ISO-10303-21;
HEADER;
FILE_DESCRIPTION(('FreeCAD Model'),'2;1');
FILE_NAME('Open CASCADE Shape Model','2026-09-30T04:59:54',('FreeCAD'),(
    'FreeCAD'),'Open CASCADE STEP processor 7.8','FreeCAD','Unknown');
FILE_SCHEMA(('AUTOMOTIVE_DESIGN { 1 0 10303 214 1 1 1 1 }'));
ENDSEC;
DATA;
#1 = APPLICATION_PROTOCOL_DEFINITION('international standard',
  'automotive_design',2000,#2);
#2 = APPLICATION_CONTEXT(
  'core data for automotive mechanical design processes');
#3 = SHAPE_DEFINITION_REPRESENTATION(#4,#10);
#4 = PRODUCT_DEFINITION_SHAPE('','',#5);
#5 = PRODUCT_DEFINITION('design','',#6,#9);
#6 = PRODUCT_DEFINITION_FORMATION('','',#7);
#7 = PRODUCT('Open CASCADE STEP translator 7.8 1',
  'Open CASCADE STEP translator 7.8 1','',(#8));
#8 = PRODUCT_CONTEXT('',#2,'mechanical');
#9 = PRODUCT_DEFINITION_CONTEXT('part definition',#2,'design');
#10 = SHAPE_REPRESENTATION('',(#11,#15,#733,#1622,#1934),#2243);
#11 = AXIS2_PLACEMENT_3D('',#12,#13,#14);
#12 = CARTESIAN_POINT('',(0.,0.,0.));
#13 = DIRECTION('',(0.,0.,1.));
#14 = DIRECTION('',(1.,0.,-0.));
#15 = MANIFOLD_SOLID_BREP('',#16);
#16 = CLOSED_SHELL('',(#17,#57,#88,#146,#170,#187,#199,#230,#254,#278,
    #295,#341,#372,#396,#420,#437,#483,#514,#538,#562,#579,#625,#656,
    #680,#704,#721));
#17 = ADVANCED_FACE('',(#18),#52,.F.);
#18 = FACE_BOUND('',#19,.F.);
#19 = EDGE_LOOP('',(#20,#30,#38,#46));
#20 = ORIENTED_EDGE('',*,*,#21,.F.);
#21 = EDGE_CURVE('',#22,#24,#26,.T.);
#22 = VERTEX_POINT('',#23);
#23 = CARTESIAN_POINT('',(5.422818472546,-7.807402885327,-18.));
#24 = VERTEX_POINT('',#25);
#25 = CARTESIAN_POINT('',(5.422818472546,-7.807402885327,-9.));
#26 = LINE('',#27,#28);
#27 = CARTESIAN_POINT('',(5.422818472546,-7.807402885327,-18.));
#28 = VECTOR('',#29,1.);
#29 = DIRECTION('',(0.,0.,1.));
#30 = ORIENTED_EDGE('',*,*,#31,.T.);
#31 = EDGE_CURVE('',#22,#32,#34,.T.);
#32 = VERTEX_POINT('',#33);
#33 = CARTESIAN_POINT('',(9.472818472546,-0.792597114673,-18.));
#34 = LINE('',#35,#36);
#35 = CARTESIAN_POINT('',(5.422818472546,-7.807402885327,-18.));
#36 = VECTOR('',#37,1.);
#37 = DIRECTION('',(0.5,0.866025403784,0.));
#38 = ORIENTED_EDGE('',*,*,#39,.T.);
#39 = EDGE_CURVE('',#32,#40,#42,.T.);
#40 = VERTEX_POINT('',#41);
#41 = CARTESIAN_POINT('',(9.472818472546,-0.792597114673,-9.));
#42 = LINE('',#43,#44);
#43 = CARTESIAN_POINT('',(9.472818472546,-0.792597114673,-18.));
#44 = VECTOR('',#45,1.);
#45 = DIRECTION('',(0.,0.,1.));
#46 = ORIENTED_EDGE('',*,*,#47,.F.);
#47 = EDGE_CURVE('',#24,#40,#48,.T.);
#48 = LINE('',#49,#50);
#49 = CARTESIAN_POINT('',(5.422818472546,-7.807402885327,-9.));
#50 = VECTOR('',#51,1.);
#51 = DIRECTION('',(0.5,0.866025403784,0.));
#52 = PLANE('',#53);
#53 = AXIS2_PLACEMENT_3D('',#54,#55,#56);
#54 = CARTESIAN_POINT('',(5.422818472546,-7.807402885327,-18.));
#55 = DIRECTION('',(0.866025403784,-0.5,0.));
#56 = DIRECTION('',(0.,0.,1.));
#57 = ADVANCED_FACE('',(#58),#83,.F.);
#58 = FACE_BOUND('',#59,.F.);
#59 = EDGE_LOOP('',(#60,#68,#69,#77));
#60 = ORIENTED_EDGE('',*,*,#61,.F.);
#61 = EDGE_CURVE('',#22,#62,#64,.T.);
#62 = VERTEX_POINT('',#63);
#63 = CARTESIAN_POINT('',(6.981664199358,-8.707402885327,-18.));
#64 = LINE('',#65,#66);
#65 = CARTESIAN_POINT('',(5.422818472546,-7.807402885327,-18.));
#66 = VECTOR('',#67,1.);
#67 = DIRECTION('',(0.866025403784,-0.5,0.));
#68 = ORIENTED_EDGE('',*,*,#21,.T.);
#69 = ORIENTED_EDGE('',*,*,#70,.T.);
#70 = EDGE_CURVE('',#24,#71,#73,.T.);
#71 = VERTEX_POINT('',#72);
#72 = CARTESIAN_POINT('',(6.981664199358,-8.707402885327,-9.));
#73 = LINE('',#74,#75);
#74 = CARTESIAN_POINT('',(5.422818472546,-7.807402885327,-9.));
#75 = VECTOR('',#76,1.);
#76 = DIRECTION('',(0.866025403784,-0.5,0.));
#77 = ORIENTED_EDGE('',*,*,#78,.F.);
#78 = EDGE_CURVE('',#62,#71,#79,.T.);
#79 = LINE('',#80,#81);
#80 = CARTESIAN_POINT('',(6.981664199358,-8.707402885327,-18.));
#81 = VECTOR('',#82,1.);
#82 = DIRECTION('',(0.,0.,1.));
#83 = PLANE('',#84);
#84 = AXIS2_PLACEMENT_3D('',#85,#86,#87);
#85 = CARTESIAN_POINT('',(5.422818472546,-7.807402885327,-18.));
#86 = DIRECTION('',(0.5,0.866025403784,0.));
#87 = DIRECTION('',(0.,0.,1.));
#88 = ADVANCED_FACE('',(#89,#107),#141,.T.);
#89 = FACE_BOUND('',#90,.T.);
#90 = EDGE_LOOP('',(#91,#92,#93,#101));
#91 = ORIENTED_EDGE('',*,*,#47,.F.);
#92 = ORIENTED_EDGE('',*,*,#70,.T.);
#93 = ORIENTED_EDGE('',*,*,#94,.T.);
#94 = EDGE_CURVE('',#71,#95,#97,.T.);
#95 = VERTEX_POINT('',#96);
#96 = CARTESIAN_POINT('',(11.031664199358,-1.692597114673,-9.));
#97 = LINE('',#98,#99);
#98 = CARTESIAN_POINT('',(6.981664199358,-8.707402885327,-9.));
#99 = VECTOR('',#100,1.);
#100 = DIRECTION('',(0.5,0.866025403784,0.));
#101 = ORIENTED_EDGE('',*,*,#102,.F.);
#102 = EDGE_CURVE('',#40,#95,#103,.T.);
#103 = LINE('',#104,#105);
#104 = CARTESIAN_POINT('',(9.472818472546,-0.792597114673,-9.));
#105 = VECTOR('',#106,1.);
#106 = DIRECTION('',(0.866025403784,-0.5,0.));
#107 = FACE_BOUND('',#108,.T.);
#108 = EDGE_LOOP('',(#109,#119,#127,#135));
#109 = ORIENTED_EDGE('',*,*,#110,.F.);
#110 = EDGE_CURVE('',#111,#113,#115,.T.);
#111 = VERTEX_POINT('',#112);
#112 = CARTESIAN_POINT('',(5.832626093682,-7.697595264192,-9.));
#113 = VERTEX_POINT('',#114);
#114 = CARTESIAN_POINT('',(6.871856578223,-8.297595264192,-9.));
#115 = LINE('',#116,#117);
#116 = CARTESIAN_POINT('',(5.832626093682,-7.697595264192,-9.));
#117 = VECTOR('',#118,1.);
#118 = DIRECTION('',(0.866025403784,-0.5,0.));
#119 = ORIENTED_EDGE('',*,*,#120,.T.);
#120 = EDGE_CURVE('',#111,#121,#123,.T.);
#121 = VERTEX_POINT('',#122);
#122 = CARTESIAN_POINT('',(9.582626093682,-1.202404735808,-9.));
#123 = LINE('',#124,#125);
#124 = CARTESIAN_POINT('',(5.832626093682,-7.697595264192,-9.));
#125 = VECTOR('',#126,1.);
#126 = DIRECTION('',(0.5,0.866025403784,0.));
#127 = ORIENTED_EDGE('',*,*,#128,.T.);
#128 = EDGE_CURVE('',#121,#129,#131,.T.);
#129 = VERTEX_POINT('',#130);
#130 = CARTESIAN_POINT('',(10.621856578223,-1.802404735808,-9.));
#131 = LINE('',#132,#133);
#132 = CARTESIAN_POINT('',(9.582626093682,-1.202404735808,-9.));
#133 = VECTOR('',#134,1.);
#134 = DIRECTION('',(0.866025403784,-0.5,0.));
#135 = ORIENTED_EDGE('',*,*,#136,.F.);
#136 = EDGE_CURVE('',#113,#129,#137,.T.);
#137 = LINE('',#138,#139);
#138 = CARTESIAN_POINT('',(6.871856578223,-8.297595264192,-9.));
#139 = VECTOR('',#140,1.);
#140 = DIRECTION('',(0.5,0.866025403784,0.));
#141 = PLANE('',#142);
#142 = AXIS2_PLACEMENT_3D('',#143,#144,#145);
#143 = CARTESIAN_POINT('',(5.422818472546,-7.807402885327,-9.));
#144 = DIRECTION('',(0.,0.,1.));
#145 = DIRECTION('',(0.866025403784,-0.5,0.));
#146 = ADVANCED_FACE('',(#147),#165,.T.);
#147 = FACE_BOUND('',#148,.T.);
#148 = EDGE_LOOP('',(#149,#157,#158,#159));
#149 = ORIENTED_EDGE('',*,*,#150,.F.);
#150 = EDGE_CURVE('',#32,#151,#153,.T.);
#151 = VERTEX_POINT('',#152);
#152 = CARTESIAN_POINT('',(11.031664199358,-1.692597114673,-18.));
#153 = LINE('',#154,#155);
#154 = CARTESIAN_POINT('',(9.472818472546,-0.792597114673,-18.));
#155 = VECTOR('',#156,1.);
#156 = DIRECTION('',(0.866025403784,-0.5,0.));
#157 = ORIENTED_EDGE('',*,*,#39,.T.);
#158 = ORIENTED_EDGE('',*,*,#102,.T.);
#159 = ORIENTED_EDGE('',*,*,#160,.F.);
#160 = EDGE_CURVE('',#151,#95,#161,.T.);
#161 = LINE('',#162,#163);
#162 = CARTESIAN_POINT('',(11.031664199358,-1.692597114673,-18.));
#163 = VECTOR('',#164,1.);
#164 = DIRECTION('',(0.,0.,1.));
#165 = PLANE('',#166);
#166 = AXIS2_PLACEMENT_3D('',#167,#168,#169);
#167 = CARTESIAN_POINT('',(9.472818472546,-0.792597114673,-18.));
#168 = DIRECTION('',(0.5,0.866025403784,0.));
#169 = DIRECTION('',(0.,0.,1.));
#170 = ADVANCED_FACE('',(#171),#182,.F.);
#171 = FACE_BOUND('',#172,.F.);
#172 = EDGE_LOOP('',(#173,#174,#175,#181));
#173 = ORIENTED_EDGE('',*,*,#31,.F.);
#174 = ORIENTED_EDGE('',*,*,#61,.T.);
#175 = ORIENTED_EDGE('',*,*,#176,.T.);
#176 = EDGE_CURVE('',#62,#151,#177,.T.);
#177 = LINE('',#178,#179);
#178 = CARTESIAN_POINT('',(6.981664199358,-8.707402885327,-18.));
#179 = VECTOR('',#180,1.);
#180 = DIRECTION('',(0.5,0.866025403784,0.));
#181 = ORIENTED_EDGE('',*,*,#150,.F.);
#182 = PLANE('',#183);
#183 = AXIS2_PLACEMENT_3D('',#184,#185,#186);
#184 = CARTESIAN_POINT('',(5.422818472546,-7.807402885327,-18.));
#185 = DIRECTION('',(0.,0.,1.));
#186 = DIRECTION('',(0.866025403784,-0.5,0.));
#187 = ADVANCED_FACE('',(#188),#194,.T.);
#188 = FACE_BOUND('',#189,.T.);
#189 = EDGE_LOOP('',(#190,#191,#192,#193));
#190 = ORIENTED_EDGE('',*,*,#78,.F.);
#191 = ORIENTED_EDGE('',*,*,#176,.T.);
#192 = ORIENTED_EDGE('',*,*,#160,.T.);
#193 = ORIENTED_EDGE('',*,*,#94,.F.);
#194 = PLANE('',#195);
#195 = AXIS2_PLACEMENT_3D('',#196,#197,#198);
#196 = CARTESIAN_POINT('',(6.981664199358,-8.707402885327,-18.));
#197 = DIRECTION('',(0.866025403784,-0.5,0.));
#198 = DIRECTION('',(0.,0.,1.));
#199 = ADVANCED_FACE('',(#200),#225,.F.);
#200 = FACE_BOUND('',#201,.F.);
#201 = EDGE_LOOP('',(#202,#203,#211,#219));
#202 = ORIENTED_EDGE('',*,*,#110,.F.);
#203 = ORIENTED_EDGE('',*,*,#204,.T.);
#204 = EDGE_CURVE('',#111,#205,#207,.T.);
#205 = VERTEX_POINT('',#206);
#206 = CARTESIAN_POINT('',(5.832626093682,-7.697595264192,0.));
#207 = LINE('',#208,#209);
#208 = CARTESIAN_POINT('',(5.832626093682,-7.697595264192,-9.));
#209 = VECTOR('',#210,1.);
#210 = DIRECTION('',(0.,0.,1.));
#211 = ORIENTED_EDGE('',*,*,#212,.T.);
#212 = EDGE_CURVE('',#205,#213,#215,.T.);
#213 = VERTEX_POINT('',#214);
#214 = CARTESIAN_POINT('',(6.871856578223,-8.297595264192,0.));
#215 = LINE('',#216,#217);
#216 = CARTESIAN_POINT('',(5.832626093682,-7.697595264192,0.));
#217 = VECTOR('',#218,1.);
#218 = DIRECTION('',(0.866025403784,-0.5,0.));
#219 = ORIENTED_EDGE('',*,*,#220,.F.);
#220 = EDGE_CURVE('',#113,#213,#221,.T.);
#221 = LINE('',#222,#223);
#222 = CARTESIAN_POINT('',(6.871856578223,-8.297595264192,-9.));
#223 = VECTOR('',#224,1.);
#224 = DIRECTION('',(0.,0.,1.));
#225 = PLANE('',#226);
#226 = AXIS2_PLACEMENT_3D('',#227,#228,#229);
#227 = CARTESIAN_POINT('',(5.832626093682,-7.697595264192,-9.));
#228 = DIRECTION('',(0.5,0.866025403784,0.));
#229 = DIRECTION('',(0.,0.,1.));
#230 = ADVANCED_FACE('',(#231),#249,.T.);
#231 = FACE_BOUND('',#232,.T.);
#232 = EDGE_LOOP('',(#233,#234,#235,#243));
#233 = ORIENTED_EDGE('',*,*,#220,.F.);
#234 = ORIENTED_EDGE('',*,*,#136,.T.);
#235 = ORIENTED_EDGE('',*,*,#236,.T.);
#236 = EDGE_CURVE('',#129,#237,#239,.T.);
#237 = VERTEX_POINT('',#238);
#238 = CARTESIAN_POINT('',(10.621856578223,-1.802404735808,0.));
#239 = LINE('',#240,#241);
#240 = CARTESIAN_POINT('',(10.621856578223,-1.802404735808,-9.));
#241 = VECTOR('',#242,1.);
#242 = DIRECTION('',(0.,0.,1.));
#243 = ORIENTED_EDGE('',*,*,#244,.F.);
#244 = EDGE_CURVE('',#213,#237,#245,.T.);
#245 = LINE('',#246,#247);
#246 = CARTESIAN_POINT('',(6.871856578223,-8.297595264192,0.));
#247 = VECTOR('',#248,1.);
#248 = DIRECTION('',(0.5,0.866025403784,0.));
#249 = PLANE('',#250);
#250 = AXIS2_PLACEMENT_3D('',#251,#252,#253);
#251 = CARTESIAN_POINT('',(6.871856578223,-8.297595264192,-9.));
#252 = DIRECTION('',(0.866025403784,-0.5,0.));
#253 = DIRECTION('',(0.,0.,1.));
#254 = ADVANCED_FACE('',(#255),#273,.T.);
#255 = FACE_BOUND('',#256,.T.);
#256 = EDGE_LOOP('',(#257,#258,#266,#272));
#257 = ORIENTED_EDGE('',*,*,#128,.F.);
#258 = ORIENTED_EDGE('',*,*,#259,.T.);
#259 = EDGE_CURVE('',#121,#260,#262,.T.);
#260 = VERTEX_POINT('',#261);
#261 = CARTESIAN_POINT('',(9.582626093682,-1.202404735808,0.));
#262 = LINE('',#263,#264);
#263 = CARTESIAN_POINT('',(9.582626093682,-1.202404735808,-9.));
#264 = VECTOR('',#265,1.);
#265 = DIRECTION('',(0.,0.,1.));
#266 = ORIENTED_EDGE('',*,*,#267,.T.);
#267 = EDGE_CURVE('',#260,#237,#268,.T.);
#268 = LINE('',#269,#270);
#269 = CARTESIAN_POINT('',(9.582626093682,-1.202404735808,0.));
#270 = VECTOR('',#271,1.);
#271 = DIRECTION('',(0.866025403784,-0.5,0.));
#272 = ORIENTED_EDGE('',*,*,#236,.F.);
#273 = PLANE('',#274);
#274 = AXIS2_PLACEMENT_3D('',#275,#276,#277);
#275 = CARTESIAN_POINT('',(9.582626093682,-1.202404735808,-9.));
#276 = DIRECTION('',(0.5,0.866025403784,0.));
#277 = DIRECTION('',(0.,0.,1.));
#278 = ADVANCED_FACE('',(#279),#290,.F.);
#279 = FACE_BOUND('',#280,.F.);
#280 = EDGE_LOOP('',(#281,#282,#283,#284));
#281 = ORIENTED_EDGE('',*,*,#204,.F.);
#282 = ORIENTED_EDGE('',*,*,#120,.T.);
#283 = ORIENTED_EDGE('',*,*,#259,.T.);
#284 = ORIENTED_EDGE('',*,*,#285,.F.);
#285 = EDGE_CURVE('',#205,#260,#286,.T.);
#286 = LINE('',#287,#288);
#287 = CARTESIAN_POINT('',(5.832626093682,-7.697595264192,0.));
#288 = VECTOR('',#289,1.);
#289 = DIRECTION('',(0.5,0.866025403784,0.));
#290 = PLANE('',#291);
#291 = AXIS2_PLACEMENT_3D('',#292,#293,#294);
#292 = CARTESIAN_POINT('',(5.832626093682,-7.697595264192,-9.));
#293 = DIRECTION('',(0.866025403784,-0.5,0.));
#294 = DIRECTION('',(0.,0.,1.));
#295 = ADVANCED_FACE('',(#296,#330),#336,.F.);
#296 = FACE_BOUND('',#297,.F.);
#297 = EDGE_LOOP('',(#298,#308,#316,#324));
#298 = ORIENTED_EDGE('',*,*,#299,.F.);
#299 = EDGE_CURVE('',#300,#302,#304,.T.);
#300 = VERTEX_POINT('',#301);
#301 = CARTESIAN_POINT('',(5.422818472546,-7.807402885327,0.));
#302 = VERTEX_POINT('',#303);
#303 = CARTESIAN_POINT('',(9.472818472546,-0.792597114673,0.));
#304 = LINE('',#305,#306);
#305 = CARTESIAN_POINT('',(5.422818472546,-7.807402885327,0.));
#306 = VECTOR('',#307,1.);
#307 = DIRECTION('',(0.5,0.866025403784,0.));
#308 = ORIENTED_EDGE('',*,*,#309,.T.);
#309 = EDGE_CURVE('',#300,#310,#312,.T.);
#310 = VERTEX_POINT('',#311);
#311 = CARTESIAN_POINT('',(6.981664199358,-8.707402885327,0.));
#312 = LINE('',#313,#314);
#313 = CARTESIAN_POINT('',(5.422818472546,-7.807402885327,0.));
#314 = VECTOR('',#315,1.);
#315 = DIRECTION('',(0.866025403784,-0.5,0.));
#316 = ORIENTED_EDGE('',*,*,#317,.T.);
#317 = EDGE_CURVE('',#310,#318,#320,.T.);
#318 = VERTEX_POINT('',#319);
#319 = CARTESIAN_POINT('',(11.031664199358,-1.692597114673,0.));
#320 = LINE('',#321,#322);
#321 = CARTESIAN_POINT('',(6.981664199358,-8.707402885327,0.));
#322 = VECTOR('',#323,1.);
#323 = DIRECTION('',(0.5,0.866025403784,0.));
#324 = ORIENTED_EDGE('',*,*,#325,.F.);
#325 = EDGE_CURVE('',#302,#318,#326,.T.);
#326 = LINE('',#327,#328);
#327 = CARTESIAN_POINT('',(9.472818472546,-0.792597114673,0.));
#328 = VECTOR('',#329,1.);
#329 = DIRECTION('',(0.866025403784,-0.5,0.));
#330 = FACE_BOUND('',#331,.F.);
#331 = EDGE_LOOP('',(#332,#333,#334,#335));
#332 = ORIENTED_EDGE('',*,*,#212,.F.);
#333 = ORIENTED_EDGE('',*,*,#285,.T.);
#334 = ORIENTED_EDGE('',*,*,#267,.T.);
#335 = ORIENTED_EDGE('',*,*,#244,.F.);
#336 = PLANE('',#337);
#337 = AXIS2_PLACEMENT_3D('',#338,#339,#340);
#338 = CARTESIAN_POINT('',(5.422818472546,-7.807402885327,0.));
#339 = DIRECTION('',(0.,0.,1.));
#340 = DIRECTION('',(0.866025403784,-0.5,0.));
#341 = ADVANCED_FACE('',(#342),#367,.F.);
#342 = FACE_BOUND('',#343,.F.);
#343 = EDGE_LOOP('',(#344,#352,#353,#361));
#344 = ORIENTED_EDGE('',*,*,#345,.F.);
#345 = EDGE_CURVE('',#300,#346,#348,.T.);
#346 = VERTEX_POINT('',#347);
#347 = CARTESIAN_POINT('',(5.422818472546,-7.807402885327,1.));
#348 = LINE('',#349,#350);
#349 = CARTESIAN_POINT('',(5.422818472546,-7.807402885327,0.));
#350 = VECTOR('',#351,1.);
#351 = DIRECTION('',(0.,0.,1.));
#352 = ORIENTED_EDGE('',*,*,#299,.T.);
#353 = ORIENTED_EDGE('',*,*,#354,.T.);
#354 = EDGE_CURVE('',#302,#355,#357,.T.);
#355 = VERTEX_POINT('',#356);
#356 = CARTESIAN_POINT('',(9.472818472546,-0.792597114673,1.));
#357 = LINE('',#358,#359);
#358 = CARTESIAN_POINT('',(9.472818472546,-0.792597114673,0.));
#359 = VECTOR('',#360,1.);
#360 = DIRECTION('',(0.,0.,1.));
#361 = ORIENTED_EDGE('',*,*,#362,.T.);
#362 = EDGE_CURVE('',#355,#346,#363,.T.);
#363 = LINE('',#364,#365);
#364 = CARTESIAN_POINT('',(4.997818472546,-8.543524478544,1.));
#365 = VECTOR('',#366,1.);
#366 = DIRECTION('',(-0.5,-0.866025403784,0.));
#367 = PLANE('',#368);
#368 = AXIS2_PLACEMENT_3D('',#369,#370,#371);
#369 = CARTESIAN_POINT('',(5.422818472546,-7.807402885327,0.));
#370 = DIRECTION('',(0.866025403784,-0.5,0.));
#371 = DIRECTION('',(0.,0.,1.));
#372 = ADVANCED_FACE('',(#373),#391,.T.);
#373 = FACE_BOUND('',#374,.T.);
#374 = EDGE_LOOP('',(#375,#383,#384,#385));
#375 = ORIENTED_EDGE('',*,*,#376,.F.);
#376 = EDGE_CURVE('',#318,#377,#379,.T.);
#377 = VERTEX_POINT('',#378);
#378 = CARTESIAN_POINT('',(11.031664199358,-1.692597114673,1.));
#379 = LINE('',#380,#381);
#380 = CARTESIAN_POINT('',(11.031664199358,-1.692597114673,0.));
#381 = VECTOR('',#382,1.);
#382 = DIRECTION('',(0.,0.,1.));
#383 = ORIENTED_EDGE('',*,*,#325,.F.);
#384 = ORIENTED_EDGE('',*,*,#354,.T.);
#385 = ORIENTED_EDGE('',*,*,#386,.T.);
#386 = EDGE_CURVE('',#355,#377,#387,.T.);
#387 = LINE('',#388,#389);
#388 = CARTESIAN_POINT('',(8.996504500465,-0.517597114673,1.));
#389 = VECTOR('',#390,1.);
#390 = DIRECTION('',(0.866025403784,-0.5,0.));
#391 = PLANE('',#392);
#392 = AXIS2_PLACEMENT_3D('',#393,#394,#395);
#393 = CARTESIAN_POINT('',(9.472818472546,-0.792597114673,0.));
#394 = DIRECTION('',(0.5,0.866025403784,0.));
#395 = DIRECTION('',(0.,0.,1.));
#396 = ADVANCED_FACE('',(#397),#415,.F.);
#397 = FACE_BOUND('',#398,.F.);
#398 = EDGE_LOOP('',(#399,#407,#408,#409));
#399 = ORIENTED_EDGE('',*,*,#400,.F.);
#400 = EDGE_CURVE('',#310,#401,#403,.T.);
#401 = VERTEX_POINT('',#402);
#402 = CARTESIAN_POINT('',(6.981664199358,-8.707402885327,1.));
#403 = LINE('',#404,#405);
#404 = CARTESIAN_POINT('',(6.981664199358,-8.707402885327,0.));
#405 = VECTOR('',#406,1.);
#406 = DIRECTION('',(0.,0.,1.));
#407 = ORIENTED_EDGE('',*,*,#309,.F.);
#408 = ORIENTED_EDGE('',*,*,#345,.T.);
#409 = ORIENTED_EDGE('',*,*,#410,.T.);
#410 = EDGE_CURVE('',#346,#401,#411,.T.);
#411 = LINE('',#412,#413);
#412 = CARTESIAN_POINT('',(4.946504500465,-7.532402885327,1.));
#413 = VECTOR('',#414,1.);
#414 = DIRECTION('',(0.866025403784,-0.5,0.));
#415 = PLANE('',#416);
#416 = AXIS2_PLACEMENT_3D('',#417,#418,#419);
#417 = CARTESIAN_POINT('',(5.422818472546,-7.807402885327,0.));
#418 = DIRECTION('',(0.5,0.866025403784,0.));
#419 = DIRECTION('',(0.,0.,1.));
#420 = ADVANCED_FACE('',(#421),#432,.T.);
#421 = FACE_BOUND('',#422,.T.);
#422 = EDGE_LOOP('',(#423,#424,#425,#426));
#423 = ORIENTED_EDGE('',*,*,#400,.F.);
#424 = ORIENTED_EDGE('',*,*,#317,.T.);
#425 = ORIENTED_EDGE('',*,*,#376,.T.);
#426 = ORIENTED_EDGE('',*,*,#427,.T.);
#427 = EDGE_CURVE('',#377,#401,#428,.T.);
#428 = LINE('',#429,#430);
#429 = CARTESIAN_POINT('',(6.556664199358,-9.443524478544,1.));
#430 = VECTOR('',#431,1.);
#431 = DIRECTION('',(-0.5,-0.866025403784,0.));
#432 = PLANE('',#433);
#433 = AXIS2_PLACEMENT_3D('',#434,#435,#436);
#434 = CARTESIAN_POINT('',(6.981664199358,-8.707402885327,0.));
#435 = DIRECTION('',(0.866025403784,-0.5,0.));
#436 = DIRECTION('',(0.,0.,1.));
#437 = ADVANCED_FACE('',(#438,#472),#478,.F.);
#438 = FACE_BOUND('',#439,.F.);
#439 = EDGE_LOOP('',(#440,#450,#458,#466));
#440 = ORIENTED_EDGE('',*,*,#441,.F.);
#441 = EDGE_CURVE('',#442,#444,#446,.T.);
#442 = VERTEX_POINT('',#443);
#443 = CARTESIAN_POINT('',(3.620190528383,-8.729646071761,1.));
#444 = VERTEX_POINT('',#445);
#445 = CARTESIAN_POINT('',(9.370190528383,1.229646071761,1.));
#446 = LINE('',#447,#448);
#447 = CARTESIAN_POINT('',(3.620190528383,-8.729646071761,1.));
#448 = VECTOR('',#449,1.);
#449 = DIRECTION('',(0.5,0.866025403784,0.));
#450 = ORIENTED_EDGE('',*,*,#451,.T.);
#451 = EDGE_CURVE('',#442,#452,#454,.T.);
#452 = VERTEX_POINT('',#453);
#453 = CARTESIAN_POINT('',(7.084292143521,-10.72964607176,1.));
#454 = LINE('',#455,#456);
#455 = CARTESIAN_POINT('',(3.620190528383,-8.729646071761,1.));
#456 = VECTOR('',#457,1.);
#457 = DIRECTION('',(0.866025403784,-0.5,0.));
#458 = ORIENTED_EDGE('',*,*,#459,.T.);
#459 = EDGE_CURVE('',#452,#460,#462,.T.);
#460 = VERTEX_POINT('',#461);
#461 = CARTESIAN_POINT('',(12.834292143521,-0.770353928239,1.));
#462 = LINE('',#463,#464);
#463 = CARTESIAN_POINT('',(7.084292143521,-10.72964607176,1.));
#464 = VECTOR('',#465,1.);
#465 = DIRECTION('',(0.5,0.866025403784,0.));
#466 = ORIENTED_EDGE('',*,*,#467,.F.);
#467 = EDGE_CURVE('',#444,#460,#468,.T.);
#468 = LINE('',#469,#470);
#469 = CARTESIAN_POINT('',(9.370190528383,1.229646071761,1.));
#470 = VECTOR('',#471,1.);
#471 = DIRECTION('',(0.866025403784,-0.5,0.));
#472 = FACE_BOUND('',#473,.F.);
#473 = EDGE_LOOP('',(#474,#475,#476,#477));
#474 = ORIENTED_EDGE('',*,*,#362,.F.);
#475 = ORIENTED_EDGE('',*,*,#386,.T.);
#476 = ORIENTED_EDGE('',*,*,#427,.T.);
#477 = ORIENTED_EDGE('',*,*,#410,.F.);
#478 = PLANE('',#479);
#479 = AXIS2_PLACEMENT_3D('',#480,#481,#482);
#480 = CARTESIAN_POINT('',(3.620190528383,-8.729646071761,1.));
#481 = DIRECTION('',(0.,0.,1.));
#482 = DIRECTION('',(0.866025403784,-0.5,0.));
#483 = ADVANCED_FACE('',(#484),#509,.F.);
#484 = FACE_BOUND('',#485,.F.);
#485 = EDGE_LOOP('',(#486,#494,#495,#503));
#486 = ORIENTED_EDGE('',*,*,#487,.F.);
#487 = EDGE_CURVE('',#442,#488,#490,.T.);
#488 = VERTEX_POINT('',#489);
#489 = CARTESIAN_POINT('',(3.620190528383,-8.729646071761,2.));
#490 = LINE('',#491,#492);
#491 = CARTESIAN_POINT('',(3.620190528383,-8.729646071761,1.));
#492 = VECTOR('',#493,1.);
#493 = DIRECTION('',(0.,0.,1.));
#494 = ORIENTED_EDGE('',*,*,#441,.T.);
#495 = ORIENTED_EDGE('',*,*,#496,.T.);
#496 = EDGE_CURVE('',#444,#497,#499,.T.);
#497 = VERTEX_POINT('',#498);
#498 = CARTESIAN_POINT('',(9.370190528383,1.229646071761,2.));
#499 = LINE('',#500,#501);
#500 = CARTESIAN_POINT('',(9.370190528383,1.229646071761,1.));
#501 = VECTOR('',#502,1.);
#502 = DIRECTION('',(0.,0.,1.));
#503 = ORIENTED_EDGE('',*,*,#504,.F.);
#504 = EDGE_CURVE('',#488,#497,#505,.T.);
#505 = LINE('',#506,#507);
#506 = CARTESIAN_POINT('',(3.620190528383,-8.729646071761,2.));
#507 = VECTOR('',#508,1.);
#508 = DIRECTION('',(0.5,0.866025403784,0.));
#509 = PLANE('',#510);
#510 = AXIS2_PLACEMENT_3D('',#511,#512,#513);
#511 = CARTESIAN_POINT('',(3.620190528383,-8.729646071761,1.));
#512 = DIRECTION('',(0.866025403784,-0.5,0.));
#513 = DIRECTION('',(0.,0.,1.));
#514 = ADVANCED_FACE('',(#515),#533,.T.);
#515 = FACE_BOUND('',#516,.T.);
#516 = EDGE_LOOP('',(#517,#518,#519,#527));
#517 = ORIENTED_EDGE('',*,*,#467,.F.);
#518 = ORIENTED_EDGE('',*,*,#496,.T.);
#519 = ORIENTED_EDGE('',*,*,#520,.T.);
#520 = EDGE_CURVE('',#497,#521,#523,.T.);
#521 = VERTEX_POINT('',#522);
#522 = CARTESIAN_POINT('',(12.834292143521,-0.770353928239,2.));
#523 = LINE('',#524,#525);
#524 = CARTESIAN_POINT('',(9.370190528383,1.229646071761,2.));
#525 = VECTOR('',#526,1.);
#526 = DIRECTION('',(0.866025403784,-0.5,0.));
#527 = ORIENTED_EDGE('',*,*,#528,.F.);
#528 = EDGE_CURVE('',#460,#521,#529,.T.);
#529 = LINE('',#530,#531);
#530 = CARTESIAN_POINT('',(12.834292143521,-0.770353928239,1.));
#531 = VECTOR('',#532,1.);
#532 = DIRECTION('',(0.,0.,1.));
#533 = PLANE('',#534);
#534 = AXIS2_PLACEMENT_3D('',#535,#536,#537);
#535 = CARTESIAN_POINT('',(9.370190528383,1.229646071761,1.));
#536 = DIRECTION('',(0.5,0.866025403784,0.));
#537 = DIRECTION('',(0.,0.,1.));
#538 = ADVANCED_FACE('',(#539),#557,.F.);
#539 = FACE_BOUND('',#540,.F.);
#540 = EDGE_LOOP('',(#541,#542,#543,#551));
#541 = ORIENTED_EDGE('',*,*,#451,.F.);
#542 = ORIENTED_EDGE('',*,*,#487,.T.);
#543 = ORIENTED_EDGE('',*,*,#544,.T.);
#544 = EDGE_CURVE('',#488,#545,#547,.T.);
#545 = VERTEX_POINT('',#546);
#546 = CARTESIAN_POINT('',(7.084292143521,-10.72964607176,2.));
#547 = LINE('',#548,#549);
#548 = CARTESIAN_POINT('',(3.620190528383,-8.729646071761,2.));
#549 = VECTOR('',#550,1.);
#550 = DIRECTION('',(0.866025403784,-0.5,0.));
#551 = ORIENTED_EDGE('',*,*,#552,.F.);
#552 = EDGE_CURVE('',#452,#545,#553,.T.);
#553 = LINE('',#554,#555);
#554 = CARTESIAN_POINT('',(7.084292143521,-10.72964607176,1.));
#555 = VECTOR('',#556,1.);
#556 = DIRECTION('',(0.,0.,1.));
#557 = PLANE('',#558);
#558 = AXIS2_PLACEMENT_3D('',#559,#560,#561);
#559 = CARTESIAN_POINT('',(3.620190528383,-8.729646071761,1.));
#560 = DIRECTION('',(0.5,0.866025403784,0.));
#561 = DIRECTION('',(0.,0.,1.));
#562 = ADVANCED_FACE('',(#563),#574,.T.);
#563 = FACE_BOUND('',#564,.T.);
#564 = EDGE_LOOP('',(#565,#566,#567,#568));
#565 = ORIENTED_EDGE('',*,*,#552,.F.);
#566 = ORIENTED_EDGE('',*,*,#459,.T.);
#567 = ORIENTED_EDGE('',*,*,#528,.T.);
#568 = ORIENTED_EDGE('',*,*,#569,.F.);
#569 = EDGE_CURVE('',#545,#521,#570,.T.);
#570 = LINE('',#571,#572);
#571 = CARTESIAN_POINT('',(7.084292143521,-10.72964607176,2.));
#572 = VECTOR('',#573,1.);
#573 = DIRECTION('',(0.5,0.866025403784,0.));
#574 = PLANE('',#575);
#575 = AXIS2_PLACEMENT_3D('',#576,#577,#578);
#576 = CARTESIAN_POINT('',(7.084292143521,-10.72964607176,1.));
#577 = DIRECTION('',(0.866025403784,-0.5,0.));
#578 = DIRECTION('',(0.,0.,1.));
#579 = ADVANCED_FACE('',(#580,#586),#620,.T.);
#580 = FACE_BOUND('',#581,.T.);
#581 = EDGE_LOOP('',(#582,#583,#584,#585));
#582 = ORIENTED_EDGE('',*,*,#504,.F.);
#583 = ORIENTED_EDGE('',*,*,#544,.T.);
#584 = ORIENTED_EDGE('',*,*,#569,.T.);
#585 = ORIENTED_EDGE('',*,*,#520,.F.);
#586 = FACE_BOUND('',#587,.T.);
#587 = EDGE_LOOP('',(#588,#598,#606,#614));
#588 = ORIENTED_EDGE('',*,*,#589,.F.);
#589 = EDGE_CURVE('',#590,#592,#594,.T.);
#590 = VERTEX_POINT('',#591);
#591 = CARTESIAN_POINT('',(9.472818472546,-0.792597114673,2.));
#592 = VERTEX_POINT('',#593);
#593 = CARTESIAN_POINT('',(5.422818472546,-7.807402885327,2.));
#594 = LINE('',#595,#596);
#595 = CARTESIAN_POINT('',(4.997818472546,-8.543524478544,2.));
#596 = VECTOR('',#597,1.);
#597 = DIRECTION('',(-0.5,-0.866025403784,0.));
#598 = ORIENTED_EDGE('',*,*,#599,.T.);
#599 = EDGE_CURVE('',#590,#600,#602,.T.);
#600 = VERTEX_POINT('',#601);
#601 = CARTESIAN_POINT('',(11.031664199358,-1.692597114673,2.));
#602 = LINE('',#603,#604);
#603 = CARTESIAN_POINT('',(8.996504500465,-0.517597114673,2.));
#604 = VECTOR('',#605,1.);
#605 = DIRECTION('',(0.866025403784,-0.5,0.));
#606 = ORIENTED_EDGE('',*,*,#607,.T.);
#607 = EDGE_CURVE('',#600,#608,#610,.T.);
#608 = VERTEX_POINT('',#609);
#609 = CARTESIAN_POINT('',(6.981664199358,-8.707402885327,2.));
#610 = LINE('',#611,#612);
#611 = CARTESIAN_POINT('',(6.556664199358,-9.443524478544,2.));
#612 = VECTOR('',#613,1.);
#613 = DIRECTION('',(-0.5,-0.866025403784,0.));
#614 = ORIENTED_EDGE('',*,*,#615,.F.);
#615 = EDGE_CURVE('',#592,#608,#616,.T.);
#616 = LINE('',#617,#618);
#617 = CARTESIAN_POINT('',(4.946504500465,-7.532402885327,2.));
#618 = VECTOR('',#619,1.);
#619 = DIRECTION('',(0.866025403784,-0.5,0.));
#620 = PLANE('',#621);
#621 = AXIS2_PLACEMENT_3D('',#622,#623,#624);
#622 = CARTESIAN_POINT('',(3.620190528383,-8.729646071761,2.));
#623 = DIRECTION('',(0.,0.,1.));
#624 = DIRECTION('',(0.866025403784,-0.5,0.));
#625 = ADVANCED_FACE('',(#626),#651,.F.);
#626 = FACE_BOUND('',#627,.F.);
#627 = EDGE_LOOP('',(#628,#636,#637,#645));
#628 = ORIENTED_EDGE('',*,*,#629,.F.);
#629 = EDGE_CURVE('',#592,#630,#632,.T.);
#630 = VERTEX_POINT('',#631);
#631 = CARTESIAN_POINT('',(5.422818472546,-7.807402885327,5.));
#632 = LINE('',#633,#634);
#633 = CARTESIAN_POINT('',(5.422818472546,-7.807402885327,0.));
#634 = VECTOR('',#635,1.);
#635 = DIRECTION('',(0.,0.,1.));
#636 = ORIENTED_EDGE('',*,*,#589,.F.);
#637 = ORIENTED_EDGE('',*,*,#638,.T.);
#638 = EDGE_CURVE('',#590,#639,#641,.T.);
#639 = VERTEX_POINT('',#640);
#640 = CARTESIAN_POINT('',(9.472818472546,-0.792597114673,5.));
#641 = LINE('',#642,#643);
#642 = CARTESIAN_POINT('',(9.472818472546,-0.792597114673,0.));
#643 = VECTOR('',#644,1.);
#644 = DIRECTION('',(0.,0.,1.));
#645 = ORIENTED_EDGE('',*,*,#646,.F.);
#646 = EDGE_CURVE('',#630,#639,#647,.T.);
#647 = LINE('',#648,#649);
#648 = CARTESIAN_POINT('',(5.422818472546,-7.807402885327,5.));
#649 = VECTOR('',#650,1.);
#650 = DIRECTION('',(0.5,0.866025403784,0.));
#651 = PLANE('',#652);
#652 = AXIS2_PLACEMENT_3D('',#653,#654,#655);
#653 = CARTESIAN_POINT('',(5.422818472546,-7.807402885327,0.));
#654 = DIRECTION('',(0.866025403784,-0.5,0.));
#655 = DIRECTION('',(0.,0.,1.));
#656 = ADVANCED_FACE('',(#657),#675,.F.);
#657 = FACE_BOUND('',#658,.F.);
#658 = EDGE_LOOP('',(#659,#667,#668,#669));
#659 = ORIENTED_EDGE('',*,*,#660,.F.);
#660 = EDGE_CURVE('',#608,#661,#663,.T.);
#661 = VERTEX_POINT('',#662);
#662 = CARTESIAN_POINT('',(6.981664199358,-8.707402885327,5.));
#663 = LINE('',#664,#665);
#664 = CARTESIAN_POINT('',(6.981664199358,-8.707402885327,0.));
#665 = VECTOR('',#666,1.);
#666 = DIRECTION('',(0.,0.,1.));
#667 = ORIENTED_EDGE('',*,*,#615,.F.);
#668 = ORIENTED_EDGE('',*,*,#629,.T.);
#669 = ORIENTED_EDGE('',*,*,#670,.T.);
#670 = EDGE_CURVE('',#630,#661,#671,.T.);
#671 = LINE('',#672,#673);
#672 = CARTESIAN_POINT('',(5.422818472546,-7.807402885327,5.));
#673 = VECTOR('',#674,1.);
#674 = DIRECTION('',(0.866025403784,-0.5,0.));
#675 = PLANE('',#676);
#676 = AXIS2_PLACEMENT_3D('',#677,#678,#679);
#677 = CARTESIAN_POINT('',(5.422818472546,-7.807402885327,0.));
#678 = DIRECTION('',(0.5,0.866025403784,0.));
#679 = DIRECTION('',(0.,0.,1.));
#680 = ADVANCED_FACE('',(#681),#699,.T.);
#681 = FACE_BOUND('',#682,.T.);
#682 = EDGE_LOOP('',(#683,#684,#685,#693));
#683 = ORIENTED_EDGE('',*,*,#660,.F.);
#684 = ORIENTED_EDGE('',*,*,#607,.F.);
#685 = ORIENTED_EDGE('',*,*,#686,.T.);
#686 = EDGE_CURVE('',#600,#687,#689,.T.);
#687 = VERTEX_POINT('',#688);
#688 = CARTESIAN_POINT('',(11.031664199358,-1.692597114673,5.));
#689 = LINE('',#690,#691);
#690 = CARTESIAN_POINT('',(11.031664199358,-1.692597114673,0.));
#691 = VECTOR('',#692,1.);
#692 = DIRECTION('',(0.,0.,1.));
#693 = ORIENTED_EDGE('',*,*,#694,.F.);
#694 = EDGE_CURVE('',#661,#687,#695,.T.);
#695 = LINE('',#696,#697);
#696 = CARTESIAN_POINT('',(6.981664199358,-8.707402885327,5.));
#697 = VECTOR('',#698,1.);
#698 = DIRECTION('',(0.5,0.866025403784,0.));
#699 = PLANE('',#700);
#700 = AXIS2_PLACEMENT_3D('',#701,#702,#703);
#701 = CARTESIAN_POINT('',(6.981664199358,-8.707402885327,0.));
#702 = DIRECTION('',(0.866025403784,-0.5,0.));
#703 = DIRECTION('',(0.,0.,1.));
#704 = ADVANCED_FACE('',(#705),#716,.T.);
#705 = FACE_BOUND('',#706,.T.);
#706 = EDGE_LOOP('',(#707,#708,#709,#710));
#707 = ORIENTED_EDGE('',*,*,#686,.F.);
#708 = ORIENTED_EDGE('',*,*,#599,.F.);
#709 = ORIENTED_EDGE('',*,*,#638,.T.);
#710 = ORIENTED_EDGE('',*,*,#711,.T.);
#711 = EDGE_CURVE('',#639,#687,#712,.T.);
#712 = LINE('',#713,#714);
#713 = CARTESIAN_POINT('',(9.472818472546,-0.792597114673,5.));
#714 = VECTOR('',#715,1.);
#715 = DIRECTION('',(0.866025403784,-0.5,0.));
#716 = PLANE('',#717);
#717 = AXIS2_PLACEMENT_3D('',#718,#719,#720);
#718 = CARTESIAN_POINT('',(9.472818472546,-0.792597114673,0.));
#719 = DIRECTION('',(0.5,0.866025403784,0.));
#720 = DIRECTION('',(0.,0.,1.));
#721 = ADVANCED_FACE('',(#722),#728,.T.);
#722 = FACE_BOUND('',#723,.T.);
#723 = EDGE_LOOP('',(#724,#725,#726,#727));
#724 = ORIENTED_EDGE('',*,*,#646,.F.);
#725 = ORIENTED_EDGE('',*,*,#670,.T.);
#726 = ORIENTED_EDGE('',*,*,#694,.T.);
#727 = ORIENTED_EDGE('',*,*,#711,.F.);
#728 = PLANE('',#729);
#729 = AXIS2_PLACEMENT_3D('',#730,#731,#732);
#730 = CARTESIAN_POINT('',(5.422818472546,-7.807402885327,5.));
#731 = DIRECTION('',(0.,0.,1.));
#732 = DIRECTION('',(0.866025403784,-0.5,0.));
#733 = MANIFOLD_SOLID_BREP('',#734);
#734 = CLOSED_SHELL('',(#735,#775,#806,#864,#888,#905,#917,#948,#972,
    #996,#1013,#1059,#1090,#1114,#1138,#1155,#1201,#1232,#1256,#1280,
    #1297,#1343,#1406,#1430,#1486,#1503,#1521,#1580,#1590,#1602,#1613));
#735 = ADVANCED_FACE('',(#736),#770,.F.);
#736 = FACE_BOUND('',#737,.F.);
#737 = EDGE_LOOP('',(#738,#748,#756,#764));
#738 = ORIENTED_EDGE('',*,*,#739,.F.);
#739 = EDGE_CURVE('',#740,#742,#744,.T.);
#740 = VERTEX_POINT('',#741);
#741 = CARTESIAN_POINT('',(-6.981664199358,-8.707402885327,-18.));
#742 = VERTEX_POINT('',#743);
#743 = CARTESIAN_POINT('',(-6.981664199358,-8.707402885327,-9.));
#744 = LINE('',#745,#746);
#745 = CARTESIAN_POINT('',(-6.981664199358,-8.707402885327,-18.));
#746 = VECTOR('',#747,1.);
#747 = DIRECTION('',(0.,0.,1.));
#748 = ORIENTED_EDGE('',*,*,#749,.T.);
#749 = EDGE_CURVE('',#740,#750,#752,.T.);
#750 = VERTEX_POINT('',#751);
#751 = CARTESIAN_POINT('',(-11.03166419935,-1.692597114673,-18.));
#752 = LINE('',#753,#754);
#753 = CARTESIAN_POINT('',(-6.981664199358,-8.707402885327,-18.));
#754 = VECTOR('',#755,1.);
#755 = DIRECTION('',(-0.5,0.866025403784,0.));
#756 = ORIENTED_EDGE('',*,*,#757,.T.);
#757 = EDGE_CURVE('',#750,#758,#760,.T.);
#758 = VERTEX_POINT('',#759);
#759 = CARTESIAN_POINT('',(-11.03166419935,-1.692597114673,-9.));
#760 = LINE('',#761,#762);
#761 = CARTESIAN_POINT('',(-11.03166419935,-1.692597114673,-18.));
#762 = VECTOR('',#763,1.);
#763 = DIRECTION('',(0.,0.,1.));
#764 = ORIENTED_EDGE('',*,*,#765,.F.);
#765 = EDGE_CURVE('',#742,#758,#766,.T.);
#766 = LINE('',#767,#768);
#767 = CARTESIAN_POINT('',(-6.981664199358,-8.707402885327,-9.));
#768 = VECTOR('',#769,1.);
#769 = DIRECTION('',(-0.5,0.866025403784,0.));
#770 = PLANE('',#771);
#771 = AXIS2_PLACEMENT_3D('',#772,#773,#774);
#772 = CARTESIAN_POINT('',(-6.981664199358,-8.707402885327,-18.));
#773 = DIRECTION('',(0.866025403784,0.5,0.));
#774 = DIRECTION('',(0.,0.,1.));
#775 = ADVANCED_FACE('',(#776),#801,.F.);
#776 = FACE_BOUND('',#777,.F.);
#777 = EDGE_LOOP('',(#778,#786,#787,#795));
#778 = ORIENTED_EDGE('',*,*,#779,.F.);
#779 = EDGE_CURVE('',#740,#780,#782,.T.);
#780 = VERTEX_POINT('',#781);
#781 = CARTESIAN_POINT('',(-5.422818472546,-7.807402885327,-18.));
#782 = LINE('',#783,#784);
#783 = CARTESIAN_POINT('',(-6.981664199358,-8.707402885327,-18.));
#784 = VECTOR('',#785,1.);
#785 = DIRECTION('',(0.866025403784,0.5,0.));
#786 = ORIENTED_EDGE('',*,*,#739,.T.);
#787 = ORIENTED_EDGE('',*,*,#788,.T.);
#788 = EDGE_CURVE('',#742,#789,#791,.T.);
#789 = VERTEX_POINT('',#790);
#790 = CARTESIAN_POINT('',(-5.422818472546,-7.807402885327,-9.));
#791 = LINE('',#792,#793);
#792 = CARTESIAN_POINT('',(-6.981664199358,-8.707402885327,-9.));
#793 = VECTOR('',#794,1.);
#794 = DIRECTION('',(0.866025403784,0.5,0.));
#795 = ORIENTED_EDGE('',*,*,#796,.F.);
#796 = EDGE_CURVE('',#780,#789,#797,.T.);
#797 = LINE('',#798,#799);
#798 = CARTESIAN_POINT('',(-5.422818472546,-7.807402885327,-18.));
#799 = VECTOR('',#800,1.);
#800 = DIRECTION('',(0.,0.,1.));
#801 = PLANE('',#802);
#802 = AXIS2_PLACEMENT_3D('',#803,#804,#805);
#803 = CARTESIAN_POINT('',(-6.981664199358,-8.707402885327,-18.));
#804 = DIRECTION('',(-0.5,0.866025403784,0.));
#805 = DIRECTION('',(0.,0.,1.));
#806 = ADVANCED_FACE('',(#807,#825),#859,.T.);
#807 = FACE_BOUND('',#808,.T.);
#808 = EDGE_LOOP('',(#809,#810,#811,#819));
#809 = ORIENTED_EDGE('',*,*,#765,.F.);
#810 = ORIENTED_EDGE('',*,*,#788,.T.);
#811 = ORIENTED_EDGE('',*,*,#812,.T.);
#812 = EDGE_CURVE('',#789,#813,#815,.T.);
#813 = VERTEX_POINT('',#814);
#814 = CARTESIAN_POINT('',(-9.472818472546,-0.792597114673,-9.));
#815 = LINE('',#816,#817);
#816 = CARTESIAN_POINT('',(-5.422818472546,-7.807402885327,-9.));
#817 = VECTOR('',#818,1.);
#818 = DIRECTION('',(-0.5,0.866025403784,0.));
#819 = ORIENTED_EDGE('',*,*,#820,.F.);
#820 = EDGE_CURVE('',#758,#813,#821,.T.);
#821 = LINE('',#822,#823);
#822 = CARTESIAN_POINT('',(-11.03166419935,-1.692597114673,-9.));
#823 = VECTOR('',#824,1.);
#824 = DIRECTION('',(0.866025403784,0.5,0.));
#825 = FACE_BOUND('',#826,.T.);
#826 = EDGE_LOOP('',(#827,#837,#845,#853));
#827 = ORIENTED_EDGE('',*,*,#828,.F.);
#828 = EDGE_CURVE('',#829,#831,#833,.T.);
#829 = VERTEX_POINT('',#830);
#830 = CARTESIAN_POINT('',(-6.871856578223,-8.297595264192,-9.));
#831 = VERTEX_POINT('',#832);
#832 = CARTESIAN_POINT('',(-5.832626093682,-7.697595264192,-9.));
#833 = LINE('',#834,#835);
#834 = CARTESIAN_POINT('',(-6.871856578223,-8.297595264192,-9.));
#835 = VECTOR('',#836,1.);
#836 = DIRECTION('',(0.866025403784,0.5,0.));
#837 = ORIENTED_EDGE('',*,*,#838,.T.);
#838 = EDGE_CURVE('',#829,#839,#841,.T.);
#839 = VERTEX_POINT('',#840);
#840 = CARTESIAN_POINT('',(-10.62185657822,-1.802404735808,-9.));
#841 = LINE('',#842,#843);
#842 = CARTESIAN_POINT('',(-6.871856578223,-8.297595264192,-9.));
#843 = VECTOR('',#844,1.);
#844 = DIRECTION('',(-0.5,0.866025403784,0.));
#845 = ORIENTED_EDGE('',*,*,#846,.T.);
#846 = EDGE_CURVE('',#839,#847,#849,.T.);
#847 = VERTEX_POINT('',#848);
#848 = CARTESIAN_POINT('',(-9.582626093682,-1.202404735808,-9.));
#849 = LINE('',#850,#851);
#850 = CARTESIAN_POINT('',(-10.62185657822,-1.802404735808,-9.));
#851 = VECTOR('',#852,1.);
#852 = DIRECTION('',(0.866025403784,0.5,0.));
#853 = ORIENTED_EDGE('',*,*,#854,.F.);
#854 = EDGE_CURVE('',#831,#847,#855,.T.);
#855 = LINE('',#856,#857);
#856 = CARTESIAN_POINT('',(-5.832626093682,-7.697595264192,-9.));
#857 = VECTOR('',#858,1.);
#858 = DIRECTION('',(-0.5,0.866025403784,0.));
#859 = PLANE('',#860);
#860 = AXIS2_PLACEMENT_3D('',#861,#862,#863);
#861 = CARTESIAN_POINT('',(-6.981664199358,-8.707402885327,-9.));
#862 = DIRECTION('',(0.,0.,1.));
#863 = DIRECTION('',(0.866025403784,0.5,0.));
#864 = ADVANCED_FACE('',(#865),#883,.T.);
#865 = FACE_BOUND('',#866,.T.);
#866 = EDGE_LOOP('',(#867,#875,#876,#877));
#867 = ORIENTED_EDGE('',*,*,#868,.F.);
#868 = EDGE_CURVE('',#750,#869,#871,.T.);
#869 = VERTEX_POINT('',#870);
#870 = CARTESIAN_POINT('',(-9.472818472546,-0.792597114673,-18.));
#871 = LINE('',#872,#873);
#872 = CARTESIAN_POINT('',(-11.03166419935,-1.692597114673,-18.));
#873 = VECTOR('',#874,1.);
#874 = DIRECTION('',(0.866025403784,0.5,0.));
#875 = ORIENTED_EDGE('',*,*,#757,.T.);
#876 = ORIENTED_EDGE('',*,*,#820,.T.);
#877 = ORIENTED_EDGE('',*,*,#878,.F.);
#878 = EDGE_CURVE('',#869,#813,#879,.T.);
#879 = LINE('',#880,#881);
#880 = CARTESIAN_POINT('',(-9.472818472546,-0.792597114673,-18.));
#881 = VECTOR('',#882,1.);
#882 = DIRECTION('',(0.,0.,1.));
#883 = PLANE('',#884);
#884 = AXIS2_PLACEMENT_3D('',#885,#886,#887);
#885 = CARTESIAN_POINT('',(-11.03166419935,-1.692597114673,-18.));
#886 = DIRECTION('',(-0.5,0.866025403784,0.));
#887 = DIRECTION('',(0.,0.,1.));
#888 = ADVANCED_FACE('',(#889),#900,.F.);
#889 = FACE_BOUND('',#890,.F.);
#890 = EDGE_LOOP('',(#891,#892,#893,#899));
#891 = ORIENTED_EDGE('',*,*,#749,.F.);
#892 = ORIENTED_EDGE('',*,*,#779,.T.);
#893 = ORIENTED_EDGE('',*,*,#894,.T.);
#894 = EDGE_CURVE('',#780,#869,#895,.T.);
#895 = LINE('',#896,#897);
#896 = CARTESIAN_POINT('',(-5.422818472546,-7.807402885327,-18.));
#897 = VECTOR('',#898,1.);
#898 = DIRECTION('',(-0.5,0.866025403784,0.));
#899 = ORIENTED_EDGE('',*,*,#868,.F.);
#900 = PLANE('',#901);
#901 = AXIS2_PLACEMENT_3D('',#902,#903,#904);
#902 = CARTESIAN_POINT('',(-6.981664199358,-8.707402885327,-18.));
#903 = DIRECTION('',(0.,0.,1.));
#904 = DIRECTION('',(0.866025403784,0.5,0.));
#905 = ADVANCED_FACE('',(#906),#912,.T.);
#906 = FACE_BOUND('',#907,.T.);
#907 = EDGE_LOOP('',(#908,#909,#910,#911));
#908 = ORIENTED_EDGE('',*,*,#796,.F.);
#909 = ORIENTED_EDGE('',*,*,#894,.T.);
#910 = ORIENTED_EDGE('',*,*,#878,.T.);
#911 = ORIENTED_EDGE('',*,*,#812,.F.);
#912 = PLANE('',#913);
#913 = AXIS2_PLACEMENT_3D('',#914,#915,#916);
#914 = CARTESIAN_POINT('',(-5.422818472546,-7.807402885327,-18.));
#915 = DIRECTION('',(0.866025403784,0.5,0.));
#916 = DIRECTION('',(0.,0.,1.));
#917 = ADVANCED_FACE('',(#918),#943,.F.);
#918 = FACE_BOUND('',#919,.F.);
#919 = EDGE_LOOP('',(#920,#921,#929,#937));
#920 = ORIENTED_EDGE('',*,*,#828,.F.);
#921 = ORIENTED_EDGE('',*,*,#922,.T.);
#922 = EDGE_CURVE('',#829,#923,#925,.T.);
#923 = VERTEX_POINT('',#924);
#924 = CARTESIAN_POINT('',(-6.871856578223,-8.297595264192,0.));
#925 = LINE('',#926,#927);
#926 = CARTESIAN_POINT('',(-6.871856578223,-8.297595264192,-9.));
#927 = VECTOR('',#928,1.);
#928 = DIRECTION('',(0.,0.,1.));
#929 = ORIENTED_EDGE('',*,*,#930,.T.);
#930 = EDGE_CURVE('',#923,#931,#933,.T.);
#931 = VERTEX_POINT('',#932);
#932 = CARTESIAN_POINT('',(-5.832626093682,-7.697595264192,0.));
#933 = LINE('',#934,#935);
#934 = CARTESIAN_POINT('',(-6.871856578223,-8.297595264192,0.));
#935 = VECTOR('',#936,1.);
#936 = DIRECTION('',(0.866025403784,0.5,0.));
#937 = ORIENTED_EDGE('',*,*,#938,.F.);
#938 = EDGE_CURVE('',#831,#931,#939,.T.);
#939 = LINE('',#940,#941);
#940 = CARTESIAN_POINT('',(-5.832626093682,-7.697595264192,-9.));
#941 = VECTOR('',#942,1.);
#942 = DIRECTION('',(0.,0.,1.));
#943 = PLANE('',#944);
#944 = AXIS2_PLACEMENT_3D('',#945,#946,#947);
#945 = CARTESIAN_POINT('',(-6.871856578223,-8.297595264192,-9.));
#946 = DIRECTION('',(-0.5,0.866025403784,0.));
#947 = DIRECTION('',(0.,0.,1.));
#948 = ADVANCED_FACE('',(#949),#967,.T.);
#949 = FACE_BOUND('',#950,.T.);
#950 = EDGE_LOOP('',(#951,#952,#953,#961));
#951 = ORIENTED_EDGE('',*,*,#938,.F.);
#952 = ORIENTED_EDGE('',*,*,#854,.T.);
#953 = ORIENTED_EDGE('',*,*,#954,.T.);
#954 = EDGE_CURVE('',#847,#955,#957,.T.);
#955 = VERTEX_POINT('',#956);
#956 = CARTESIAN_POINT('',(-9.582626093682,-1.202404735808,0.));
#957 = LINE('',#958,#959);
#958 = CARTESIAN_POINT('',(-9.582626093682,-1.202404735808,-9.));
#959 = VECTOR('',#960,1.);
#960 = DIRECTION('',(0.,0.,1.));
#961 = ORIENTED_EDGE('',*,*,#962,.F.);
#962 = EDGE_CURVE('',#931,#955,#963,.T.);
#963 = LINE('',#964,#965);
#964 = CARTESIAN_POINT('',(-5.832626093682,-7.697595264192,0.));
#965 = VECTOR('',#966,1.);
#966 = DIRECTION('',(-0.5,0.866025403784,0.));
#967 = PLANE('',#968);
#968 = AXIS2_PLACEMENT_3D('',#969,#970,#971);
#969 = CARTESIAN_POINT('',(-5.832626093682,-7.697595264192,-9.));
#970 = DIRECTION('',(0.866025403784,0.5,0.));
#971 = DIRECTION('',(0.,0.,1.));
#972 = ADVANCED_FACE('',(#973),#991,.T.);
#973 = FACE_BOUND('',#974,.T.);
#974 = EDGE_LOOP('',(#975,#976,#984,#990));
#975 = ORIENTED_EDGE('',*,*,#846,.F.);
#976 = ORIENTED_EDGE('',*,*,#977,.T.);
#977 = EDGE_CURVE('',#839,#978,#980,.T.);
#978 = VERTEX_POINT('',#979);
#979 = CARTESIAN_POINT('',(-10.62185657822,-1.802404735808,0.));
#980 = LINE('',#981,#982);
#981 = CARTESIAN_POINT('',(-10.62185657822,-1.802404735808,-9.));
#982 = VECTOR('',#983,1.);
#983 = DIRECTION('',(0.,0.,1.));
#984 = ORIENTED_EDGE('',*,*,#985,.T.);
#985 = EDGE_CURVE('',#978,#955,#986,.T.);
#986 = LINE('',#987,#988);
#987 = CARTESIAN_POINT('',(-10.62185657822,-1.802404735808,0.));
#988 = VECTOR('',#989,1.);
#989 = DIRECTION('',(0.866025403784,0.5,0.));
#990 = ORIENTED_EDGE('',*,*,#954,.F.);
#991 = PLANE('',#992);
#992 = AXIS2_PLACEMENT_3D('',#993,#994,#995);
#993 = CARTESIAN_POINT('',(-10.62185657822,-1.802404735808,-9.));
#994 = DIRECTION('',(-0.5,0.866025403784,0.));
#995 = DIRECTION('',(0.,0.,1.));
#996 = ADVANCED_FACE('',(#997),#1008,.F.);
#997 = FACE_BOUND('',#998,.F.);
#998 = EDGE_LOOP('',(#999,#1000,#1001,#1002));
#999 = ORIENTED_EDGE('',*,*,#922,.F.);
#1000 = ORIENTED_EDGE('',*,*,#838,.T.);
#1001 = ORIENTED_EDGE('',*,*,#977,.T.);
#1002 = ORIENTED_EDGE('',*,*,#1003,.F.);
#1003 = EDGE_CURVE('',#923,#978,#1004,.T.);
#1004 = LINE('',#1005,#1006);
#1005 = CARTESIAN_POINT('',(-6.871856578223,-8.297595264192,0.));
#1006 = VECTOR('',#1007,1.);
#1007 = DIRECTION('',(-0.5,0.866025403784,0.));
#1008 = PLANE('',#1009);
#1009 = AXIS2_PLACEMENT_3D('',#1010,#1011,#1012);
#1010 = CARTESIAN_POINT('',(-6.871856578223,-8.297595264192,-9.));
#1011 = DIRECTION('',(0.866025403784,0.5,0.));
#1012 = DIRECTION('',(0.,0.,1.));
#1013 = ADVANCED_FACE('',(#1014,#1048),#1054,.F.);
#1014 = FACE_BOUND('',#1015,.F.);
#1015 = EDGE_LOOP('',(#1016,#1026,#1034,#1042));
#1016 = ORIENTED_EDGE('',*,*,#1017,.F.);
#1017 = EDGE_CURVE('',#1018,#1020,#1022,.T.);
#1018 = VERTEX_POINT('',#1019);
#1019 = CARTESIAN_POINT('',(-6.981664199358,-8.707402885327,0.));
#1020 = VERTEX_POINT('',#1021);
#1021 = CARTESIAN_POINT('',(-11.03166419935,-1.692597114673,0.));
#1022 = LINE('',#1023,#1024);
#1023 = CARTESIAN_POINT('',(-6.981664199358,-8.707402885327,0.));
#1024 = VECTOR('',#1025,1.);
#1025 = DIRECTION('',(-0.5,0.866025403784,0.));
#1026 = ORIENTED_EDGE('',*,*,#1027,.T.);
#1027 = EDGE_CURVE('',#1018,#1028,#1030,.T.);
#1028 = VERTEX_POINT('',#1029);
#1029 = CARTESIAN_POINT('',(-5.422818472546,-7.807402885327,0.));
#1030 = LINE('',#1031,#1032);
#1031 = CARTESIAN_POINT('',(-6.981664199358,-8.707402885327,0.));
#1032 = VECTOR('',#1033,1.);
#1033 = DIRECTION('',(0.866025403784,0.5,0.));
#1034 = ORIENTED_EDGE('',*,*,#1035,.T.);
#1035 = EDGE_CURVE('',#1028,#1036,#1038,.T.);
#1036 = VERTEX_POINT('',#1037);
#1037 = CARTESIAN_POINT('',(-9.472818472546,-0.792597114673,0.));
#1038 = LINE('',#1039,#1040);
#1039 = CARTESIAN_POINT('',(-5.422818472546,-7.807402885327,0.));
#1040 = VECTOR('',#1041,1.);
#1041 = DIRECTION('',(-0.5,0.866025403784,0.));
#1042 = ORIENTED_EDGE('',*,*,#1043,.F.);
#1043 = EDGE_CURVE('',#1020,#1036,#1044,.T.);
#1044 = LINE('',#1045,#1046);
#1045 = CARTESIAN_POINT('',(-11.03166419935,-1.692597114673,0.));
#1046 = VECTOR('',#1047,1.);
#1047 = DIRECTION('',(0.866025403784,0.5,0.));
#1048 = FACE_BOUND('',#1049,.F.);
#1049 = EDGE_LOOP('',(#1050,#1051,#1052,#1053));
#1050 = ORIENTED_EDGE('',*,*,#930,.F.);
#1051 = ORIENTED_EDGE('',*,*,#1003,.T.);
#1052 = ORIENTED_EDGE('',*,*,#985,.T.);
#1053 = ORIENTED_EDGE('',*,*,#962,.F.);
#1054 = PLANE('',#1055);
#1055 = AXIS2_PLACEMENT_3D('',#1056,#1057,#1058);
#1056 = CARTESIAN_POINT('',(-6.981664199358,-8.707402885327,0.));
#1057 = DIRECTION('',(0.,0.,1.));
#1058 = DIRECTION('',(0.866025403784,0.5,0.));
#1059 = ADVANCED_FACE('',(#1060),#1085,.F.);
#1060 = FACE_BOUND('',#1061,.F.);
#1061 = EDGE_LOOP('',(#1062,#1072,#1078,#1079));
#1062 = ORIENTED_EDGE('',*,*,#1063,.T.);
#1063 = EDGE_CURVE('',#1064,#1066,#1068,.T.);
#1064 = VERTEX_POINT('',#1065);
#1065 = CARTESIAN_POINT('',(-11.03166419935,-1.692597114673,1.));
#1066 = VERTEX_POINT('',#1067);
#1067 = CARTESIAN_POINT('',(-6.981664199358,-8.707402885327,1.));
#1068 = LINE('',#1069,#1070);
#1069 = CARTESIAN_POINT('',(-6.556664199358,-9.443524478544,1.));
#1070 = VECTOR('',#1071,1.);
#1071 = DIRECTION('',(0.5,-0.866025403784,0.));
#1072 = ORIENTED_EDGE('',*,*,#1073,.F.);
#1073 = EDGE_CURVE('',#1018,#1066,#1074,.T.);
#1074 = LINE('',#1075,#1076);
#1075 = CARTESIAN_POINT('',(-6.981664199358,-8.707402885327,0.));
#1076 = VECTOR('',#1077,1.);
#1077 = DIRECTION('',(0.,0.,1.));
#1078 = ORIENTED_EDGE('',*,*,#1017,.T.);
#1079 = ORIENTED_EDGE('',*,*,#1080,.T.);
#1080 = EDGE_CURVE('',#1020,#1064,#1081,.T.);
#1081 = LINE('',#1082,#1083);
#1082 = CARTESIAN_POINT('',(-11.03166419935,-1.692597114673,0.));
#1083 = VECTOR('',#1084,1.);
#1084 = DIRECTION('',(0.,0.,1.));
#1085 = PLANE('',#1086);
#1086 = AXIS2_PLACEMENT_3D('',#1087,#1088,#1089);
#1087 = CARTESIAN_POINT('',(-6.981664199358,-8.707402885327,0.));
#1088 = DIRECTION('',(0.866025403784,0.5,0.));
#1089 = DIRECTION('',(0.,0.,1.));
#1090 = ADVANCED_FACE('',(#1091),#1109,.T.);
#1091 = FACE_BOUND('',#1092,.T.);
#1092 = EDGE_LOOP('',(#1093,#1101,#1102,#1103));
#1093 = ORIENTED_EDGE('',*,*,#1094,.F.);
#1094 = EDGE_CURVE('',#1036,#1095,#1097,.T.);
#1095 = VERTEX_POINT('',#1096);
#1096 = CARTESIAN_POINT('',(-9.472818472546,-0.792597114673,1.));
#1097 = LINE('',#1098,#1099);
#1098 = CARTESIAN_POINT('',(-9.472818472546,-0.792597114673,0.));
#1099 = VECTOR('',#1100,1.);
#1100 = DIRECTION('',(0.,0.,1.));
#1101 = ORIENTED_EDGE('',*,*,#1043,.F.);
#1102 = ORIENTED_EDGE('',*,*,#1080,.T.);
#1103 = ORIENTED_EDGE('',*,*,#1104,.T.);
#1104 = EDGE_CURVE('',#1064,#1095,#1105,.T.);
#1105 = LINE('',#1106,#1107);
#1106 = CARTESIAN_POINT('',(-11.50797817144,-1.967597114673,1.));
#1107 = VECTOR('',#1108,1.);
#1108 = DIRECTION('',(0.866025403784,0.5,-0.));
#1109 = PLANE('',#1110);
#1110 = AXIS2_PLACEMENT_3D('',#1111,#1112,#1113);
#1111 = CARTESIAN_POINT('',(-11.03166419935,-1.692597114673,0.));
#1112 = DIRECTION('',(-0.5,0.866025403784,0.));
#1113 = DIRECTION('',(0.,0.,1.));
#1114 = ADVANCED_FACE('',(#1115),#1133,.F.);
#1115 = FACE_BOUND('',#1116,.F.);
#1116 = EDGE_LOOP('',(#1117,#1125,#1126,#1127));
#1117 = ORIENTED_EDGE('',*,*,#1118,.F.);
#1118 = EDGE_CURVE('',#1028,#1119,#1121,.T.);
#1119 = VERTEX_POINT('',#1120);
#1120 = CARTESIAN_POINT('',(-5.422818472546,-7.807402885327,1.));
#1121 = LINE('',#1122,#1123);
#1122 = CARTESIAN_POINT('',(-5.422818472546,-7.807402885327,0.));
#1123 = VECTOR('',#1124,1.);
#1124 = DIRECTION('',(0.,0.,1.));
#1125 = ORIENTED_EDGE('',*,*,#1027,.F.);
#1126 = ORIENTED_EDGE('',*,*,#1073,.T.);
#1127 = ORIENTED_EDGE('',*,*,#1128,.T.);
#1128 = EDGE_CURVE('',#1066,#1119,#1129,.T.);
#1129 = LINE('',#1130,#1131);
#1130 = CARTESIAN_POINT('',(-7.45797817144,-8.982402885327,1.));
#1131 = VECTOR('',#1132,1.);
#1132 = DIRECTION('',(0.866025403784,0.5,-0.));
#1133 = PLANE('',#1134);
#1134 = AXIS2_PLACEMENT_3D('',#1135,#1136,#1137);
#1135 = CARTESIAN_POINT('',(-6.981664199358,-8.707402885327,0.));
#1136 = DIRECTION('',(-0.5,0.866025403784,0.));
#1137 = DIRECTION('',(0.,0.,1.));
#1138 = ADVANCED_FACE('',(#1139),#1150,.T.);
#1139 = FACE_BOUND('',#1140,.T.);
#1140 = EDGE_LOOP('',(#1141,#1147,#1148,#1149));
#1141 = ORIENTED_EDGE('',*,*,#1142,.T.);
#1142 = EDGE_CURVE('',#1095,#1119,#1143,.T.);
#1143 = LINE('',#1144,#1145);
#1144 = CARTESIAN_POINT('',(-4.997818472546,-8.543524478544,1.));
#1145 = VECTOR('',#1146,1.);
#1146 = DIRECTION('',(0.5,-0.866025403784,0.));
#1147 = ORIENTED_EDGE('',*,*,#1118,.F.);
#1148 = ORIENTED_EDGE('',*,*,#1035,.T.);
#1149 = ORIENTED_EDGE('',*,*,#1094,.T.);
#1150 = PLANE('',#1151);
#1151 = AXIS2_PLACEMENT_3D('',#1152,#1153,#1154);
#1152 = CARTESIAN_POINT('',(-5.422818472546,-7.807402885327,0.));
#1153 = DIRECTION('',(0.866025403784,0.5,0.));
#1154 = DIRECTION('',(0.,0.,1.));
#1155 = ADVANCED_FACE('',(#1156,#1190),#1196,.F.);
#1156 = FACE_BOUND('',#1157,.F.);
#1157 = EDGE_LOOP('',(#1158,#1168,#1176,#1184));
#1158 = ORIENTED_EDGE('',*,*,#1159,.F.);
#1159 = EDGE_CURVE('',#1160,#1162,#1164,.T.);
#1160 = VERTEX_POINT('',#1161);
#1161 = CARTESIAN_POINT('',(-7.084292143521,-10.72964607176,1.));
#1162 = VERTEX_POINT('',#1163);
#1163 = CARTESIAN_POINT('',(-12.83429214352,-0.770353928239,1.));
#1164 = LINE('',#1165,#1166);
#1165 = CARTESIAN_POINT('',(-7.084292143521,-10.72964607176,1.));
#1166 = VECTOR('',#1167,1.);
#1167 = DIRECTION('',(-0.5,0.866025403784,0.));
#1168 = ORIENTED_EDGE('',*,*,#1169,.T.);
#1169 = EDGE_CURVE('',#1160,#1170,#1172,.T.);
#1170 = VERTEX_POINT('',#1171);
#1171 = CARTESIAN_POINT('',(-3.620190528383,-8.729646071761,1.));
#1172 = LINE('',#1173,#1174);
#1173 = CARTESIAN_POINT('',(-7.084292143521,-10.72964607176,1.));
#1174 = VECTOR('',#1175,1.);
#1175 = DIRECTION('',(0.866025403784,0.5,0.));
#1176 = ORIENTED_EDGE('',*,*,#1177,.T.);
#1177 = EDGE_CURVE('',#1170,#1178,#1180,.T.);
#1178 = VERTEX_POINT('',#1179);
#1179 = CARTESIAN_POINT('',(-9.370190528383,1.229646071761,1.));
#1180 = LINE('',#1181,#1182);
#1181 = CARTESIAN_POINT('',(-3.620190528383,-8.729646071761,1.));
#1182 = VECTOR('',#1183,1.);
#1183 = DIRECTION('',(-0.5,0.866025403784,0.));
#1184 = ORIENTED_EDGE('',*,*,#1185,.F.);
#1185 = EDGE_CURVE('',#1162,#1178,#1186,.T.);
#1186 = LINE('',#1187,#1188);
#1187 = CARTESIAN_POINT('',(-12.83429214352,-0.770353928239,1.));
#1188 = VECTOR('',#1189,1.);
#1189 = DIRECTION('',(0.866025403784,0.5,0.));
#1190 = FACE_BOUND('',#1191,.F.);
#1191 = EDGE_LOOP('',(#1192,#1193,#1194,#1195));
#1192 = ORIENTED_EDGE('',*,*,#1063,.F.);
#1193 = ORIENTED_EDGE('',*,*,#1104,.T.);
#1194 = ORIENTED_EDGE('',*,*,#1142,.T.);
#1195 = ORIENTED_EDGE('',*,*,#1128,.F.);
#1196 = PLANE('',#1197);
#1197 = AXIS2_PLACEMENT_3D('',#1198,#1199,#1200);
#1198 = CARTESIAN_POINT('',(-7.084292143521,-10.72964607176,1.));
#1199 = DIRECTION('',(0.,0.,1.));
#1200 = DIRECTION('',(0.866025403784,0.5,0.));
#1201 = ADVANCED_FACE('',(#1202),#1227,.F.);
#1202 = FACE_BOUND('',#1203,.F.);
#1203 = EDGE_LOOP('',(#1204,#1212,#1213,#1221));
#1204 = ORIENTED_EDGE('',*,*,#1205,.F.);
#1205 = EDGE_CURVE('',#1160,#1206,#1208,.T.);
#1206 = VERTEX_POINT('',#1207);
#1207 = CARTESIAN_POINT('',(-7.084292143521,-10.72964607176,2.));
#1208 = LINE('',#1209,#1210);
#1209 = CARTESIAN_POINT('',(-7.084292143521,-10.72964607176,1.));
#1210 = VECTOR('',#1211,1.);
#1211 = DIRECTION('',(0.,0.,1.));
#1212 = ORIENTED_EDGE('',*,*,#1159,.T.);
#1213 = ORIENTED_EDGE('',*,*,#1214,.T.);
#1214 = EDGE_CURVE('',#1162,#1215,#1217,.T.);
#1215 = VERTEX_POINT('',#1216);
#1216 = CARTESIAN_POINT('',(-12.83429214352,-0.770353928239,2.));
#1217 = LINE('',#1218,#1219);
#1218 = CARTESIAN_POINT('',(-12.83429214352,-0.770353928239,1.));
#1219 = VECTOR('',#1220,1.);
#1220 = DIRECTION('',(0.,0.,1.));
#1221 = ORIENTED_EDGE('',*,*,#1222,.F.);
#1222 = EDGE_CURVE('',#1206,#1215,#1223,.T.);
#1223 = LINE('',#1224,#1225);
#1224 = CARTESIAN_POINT('',(-7.084292143521,-10.72964607176,2.));
#1225 = VECTOR('',#1226,1.);
#1226 = DIRECTION('',(-0.5,0.866025403784,0.));
#1227 = PLANE('',#1228);
#1228 = AXIS2_PLACEMENT_3D('',#1229,#1230,#1231);
#1229 = CARTESIAN_POINT('',(-7.084292143521,-10.72964607176,1.));
#1230 = DIRECTION('',(0.866025403784,0.5,0.));
#1231 = DIRECTION('',(0.,0.,1.));
#1232 = ADVANCED_FACE('',(#1233),#1251,.T.);
#1233 = FACE_BOUND('',#1234,.T.);
#1234 = EDGE_LOOP('',(#1235,#1236,#1237,#1245));
#1235 = ORIENTED_EDGE('',*,*,#1185,.F.);
#1236 = ORIENTED_EDGE('',*,*,#1214,.T.);
#1237 = ORIENTED_EDGE('',*,*,#1238,.T.);
#1238 = EDGE_CURVE('',#1215,#1239,#1241,.T.);
#1239 = VERTEX_POINT('',#1240);
#1240 = CARTESIAN_POINT('',(-9.370190528383,1.229646071761,2.));
#1241 = LINE('',#1242,#1243);
#1242 = CARTESIAN_POINT('',(-12.83429214352,-0.770353928239,2.));
#1243 = VECTOR('',#1244,1.);
#1244 = DIRECTION('',(0.866025403784,0.5,0.));
#1245 = ORIENTED_EDGE('',*,*,#1246,.F.);
#1246 = EDGE_CURVE('',#1178,#1239,#1247,.T.);
#1247 = LINE('',#1248,#1249);
#1248 = CARTESIAN_POINT('',(-9.370190528383,1.229646071761,1.));
#1249 = VECTOR('',#1250,1.);
#1250 = DIRECTION('',(0.,0.,1.));
#1251 = PLANE('',#1252);
#1252 = AXIS2_PLACEMENT_3D('',#1253,#1254,#1255);
#1253 = CARTESIAN_POINT('',(-12.83429214352,-0.770353928239,1.));
#1254 = DIRECTION('',(-0.5,0.866025403784,0.));
#1255 = DIRECTION('',(0.,0.,1.));
#1256 = ADVANCED_FACE('',(#1257),#1275,.F.);
#1257 = FACE_BOUND('',#1258,.F.);
#1258 = EDGE_LOOP('',(#1259,#1260,#1261,#1269));
#1259 = ORIENTED_EDGE('',*,*,#1169,.F.);
#1260 = ORIENTED_EDGE('',*,*,#1205,.T.);
#1261 = ORIENTED_EDGE('',*,*,#1262,.T.);
#1262 = EDGE_CURVE('',#1206,#1263,#1265,.T.);
#1263 = VERTEX_POINT('',#1264);
#1264 = CARTESIAN_POINT('',(-3.620190528383,-8.729646071761,2.));
#1265 = LINE('',#1266,#1267);
#1266 = CARTESIAN_POINT('',(-7.084292143521,-10.72964607176,2.));
#1267 = VECTOR('',#1268,1.);
#1268 = DIRECTION('',(0.866025403784,0.5,0.));
#1269 = ORIENTED_EDGE('',*,*,#1270,.F.);
#1270 = EDGE_CURVE('',#1170,#1263,#1271,.T.);
#1271 = LINE('',#1272,#1273);
#1272 = CARTESIAN_POINT('',(-3.620190528383,-8.729646071761,1.));
#1273 = VECTOR('',#1274,1.);
#1274 = DIRECTION('',(0.,0.,1.));
#1275 = PLANE('',#1276);
#1276 = AXIS2_PLACEMENT_3D('',#1277,#1278,#1279);
#1277 = CARTESIAN_POINT('',(-7.084292143521,-10.72964607176,1.));
#1278 = DIRECTION('',(-0.5,0.866025403784,0.));
#1279 = DIRECTION('',(0.,0.,1.));
#1280 = ADVANCED_FACE('',(#1281),#1292,.T.);
#1281 = FACE_BOUND('',#1282,.T.);
#1282 = EDGE_LOOP('',(#1283,#1284,#1285,#1286));
#1283 = ORIENTED_EDGE('',*,*,#1270,.F.);
#1284 = ORIENTED_EDGE('',*,*,#1177,.T.);
#1285 = ORIENTED_EDGE('',*,*,#1246,.T.);
#1286 = ORIENTED_EDGE('',*,*,#1287,.F.);
#1287 = EDGE_CURVE('',#1263,#1239,#1288,.T.);
#1288 = LINE('',#1289,#1290);
#1289 = CARTESIAN_POINT('',(-3.620190528383,-8.729646071761,2.));
#1290 = VECTOR('',#1291,1.);
#1291 = DIRECTION('',(-0.5,0.866025403784,0.));
#1292 = PLANE('',#1293);
#1293 = AXIS2_PLACEMENT_3D('',#1294,#1295,#1296);
#1294 = CARTESIAN_POINT('',(-3.620190528383,-8.729646071761,1.));
#1295 = DIRECTION('',(0.866025403784,0.5,0.));
#1296 = DIRECTION('',(0.,0.,1.));
#1297 = ADVANCED_FACE('',(#1298,#1304),#1338,.T.);
#1298 = FACE_BOUND('',#1299,.T.);
#1299 = EDGE_LOOP('',(#1300,#1301,#1302,#1303));
#1300 = ORIENTED_EDGE('',*,*,#1222,.F.);
#1301 = ORIENTED_EDGE('',*,*,#1262,.T.);
#1302 = ORIENTED_EDGE('',*,*,#1287,.T.);
#1303 = ORIENTED_EDGE('',*,*,#1238,.F.);
#1304 = FACE_BOUND('',#1305,.T.);
#1305 = EDGE_LOOP('',(#1306,#1316,#1324,#1332));
#1306 = ORIENTED_EDGE('',*,*,#1307,.F.);
#1307 = EDGE_CURVE('',#1308,#1310,#1312,.T.);
#1308 = VERTEX_POINT('',#1309);
#1309 = CARTESIAN_POINT('',(-11.03166419935,-1.692597114673,2.));
#1310 = VERTEX_POINT('',#1311);
#1311 = CARTESIAN_POINT('',(-6.981664199358,-8.707402885327,2.));
#1312 = LINE('',#1313,#1314);
#1313 = CARTESIAN_POINT('',(-6.556664199358,-9.443524478544,2.));
#1314 = VECTOR('',#1315,1.);
#1315 = DIRECTION('',(0.5,-0.866025403784,0.));
#1316 = ORIENTED_EDGE('',*,*,#1317,.T.);
#1317 = EDGE_CURVE('',#1308,#1318,#1320,.T.);
#1318 = VERTEX_POINT('',#1319);
#1319 = CARTESIAN_POINT('',(-9.472818472546,-0.792597114673,2.));
#1320 = LINE('',#1321,#1322);
#1321 = CARTESIAN_POINT('',(-11.50797817144,-1.967597114673,2.));
#1322 = VECTOR('',#1323,1.);
#1323 = DIRECTION('',(0.866025403784,0.5,-0.));
#1324 = ORIENTED_EDGE('',*,*,#1325,.T.);
#1325 = EDGE_CURVE('',#1318,#1326,#1328,.T.);
#1326 = VERTEX_POINT('',#1327);
#1327 = CARTESIAN_POINT('',(-5.422818472546,-7.807402885327,2.));
#1328 = LINE('',#1329,#1330);
#1329 = CARTESIAN_POINT('',(-4.997818472546,-8.543524478544,2.));
#1330 = VECTOR('',#1331,1.);
#1331 = DIRECTION('',(0.5,-0.866025403784,0.));
#1332 = ORIENTED_EDGE('',*,*,#1333,.F.);
#1333 = EDGE_CURVE('',#1310,#1326,#1334,.T.);
#1334 = LINE('',#1335,#1336);
#1335 = CARTESIAN_POINT('',(-7.45797817144,-8.982402885327,2.));
#1336 = VECTOR('',#1337,1.);
#1337 = DIRECTION('',(0.866025403784,0.5,-0.));
#1338 = PLANE('',#1339);
#1339 = AXIS2_PLACEMENT_3D('',#1340,#1341,#1342);
#1340 = CARTESIAN_POINT('',(-7.084292143521,-10.72964607176,2.));
#1341 = DIRECTION('',(0.,0.,1.));
#1342 = DIRECTION('',(0.866025403784,0.5,0.));
#1343 = ADVANCED_FACE('',(#1344),#1401,.F.);
#1344 = FACE_BOUND('',#1345,.F.);
#1345 = EDGE_LOOP('',(#1346,#1356,#1362,#1363,#1371,#1379,#1387,#1395));
#1346 = ORIENTED_EDGE('',*,*,#1347,.F.);
#1347 = EDGE_CURVE('',#1348,#1350,#1352,.T.);
#1348 = VERTEX_POINT('',#1349);
#1349 = CARTESIAN_POINT('',(-6.981664199358,-8.707402885327,3.2));
#1350 = VERTEX_POINT('',#1351);
#1351 = CARTESIAN_POINT('',(-8.609801502698,-5.887386354243,3.2));
#1352 = LINE('',#1353,#1354);
#1353 = CARTESIAN_POINT('',(-6.981664199358,-8.707402885327,3.2));
#1354 = VECTOR('',#1355,1.);
#1355 = DIRECTION('',(-0.5,0.866025403784,0.));
#1356 = ORIENTED_EDGE('',*,*,#1357,.F.);
#1357 = EDGE_CURVE('',#1310,#1348,#1358,.T.);
#1358 = LINE('',#1359,#1360);
#1359 = CARTESIAN_POINT('',(-6.981664199358,-8.707402885327,0.));
#1360 = VECTOR('',#1361,1.);
#1361 = DIRECTION('',(0.,0.,1.));
#1362 = ORIENTED_EDGE('',*,*,#1307,.F.);
#1363 = ORIENTED_EDGE('',*,*,#1364,.T.);
#1364 = EDGE_CURVE('',#1308,#1365,#1367,.T.);
#1365 = VERTEX_POINT('',#1366);
#1366 = CARTESIAN_POINT('',(-11.03166419935,-1.692597114673,3.2));
#1367 = LINE('',#1368,#1369);
#1368 = CARTESIAN_POINT('',(-11.03166419935,-1.692597114673,0.));
#1369 = VECTOR('',#1370,1.);
#1370 = DIRECTION('',(0.,0.,1.));
#1371 = ORIENTED_EDGE('',*,*,#1372,.F.);
#1372 = EDGE_CURVE('',#1373,#1365,#1375,.T.);
#1373 = VERTEX_POINT('',#1374);
#1374 = CARTESIAN_POINT('',(-9.403526896018,-4.512613645757,3.2));
#1375 = LINE('',#1376,#1377);
#1376 = CARTESIAN_POINT('',(-6.981664199358,-8.707402885327,3.2));
#1377 = VECTOR('',#1378,1.);
#1378 = DIRECTION('',(-0.5,0.866025403784,0.));
#1379 = ORIENTED_EDGE('',*,*,#1380,.F.);
#1380 = EDGE_CURVE('',#1381,#1373,#1383,.T.);
#1381 = VERTEX_POINT('',#1382);
#1382 = CARTESIAN_POINT('',(-9.403526896018,-4.512613645757,3.));
#1383 = LINE('',#1384,#1385);
#1384 = CARTESIAN_POINT('',(-9.403526896018,-4.512613645757,3.));
#1385 = VECTOR('',#1386,1.);
#1386 = DIRECTION('',(0.,0.,1.));
#1387 = ORIENTED_EDGE('',*,*,#1388,.T.);
#1388 = EDGE_CURVE('',#1381,#1389,#1391,.T.);
#1389 = VERTEX_POINT('',#1390);
#1390 = CARTESIAN_POINT('',(-8.609801502698,-5.887386354243,3.));
#1391 = LINE('',#1392,#1393);
#1392 = CARTESIAN_POINT('',(-7.994164199358,-6.953701442663,3.));
#1393 = VECTOR('',#1394,1.);
#1394 = DIRECTION('',(0.5,-0.866025403784,0.));
#1395 = ORIENTED_EDGE('',*,*,#1396,.T.);
#1396 = EDGE_CURVE('',#1389,#1350,#1397,.T.);
#1397 = LINE('',#1398,#1399);
#1398 = CARTESIAN_POINT('',(-8.609801502698,-5.887386354243,3.));
#1399 = VECTOR('',#1400,1.);
#1400 = DIRECTION('',(0.,0.,1.));
#1401 = PLANE('',#1402);
#1402 = AXIS2_PLACEMENT_3D('',#1403,#1404,#1405);
#1403 = CARTESIAN_POINT('',(-6.981664199358,-8.707402885327,0.));
#1404 = DIRECTION('',(0.866025403784,0.5,0.));
#1405 = DIRECTION('',(0.,0.,1.));
#1406 = ADVANCED_FACE('',(#1407),#1425,.F.);
#1407 = FACE_BOUND('',#1408,.F.);
#1408 = EDGE_LOOP('',(#1409,#1417,#1418,#1419));
#1409 = ORIENTED_EDGE('',*,*,#1410,.F.);
#1410 = EDGE_CURVE('',#1326,#1411,#1413,.T.);
#1411 = VERTEX_POINT('',#1412);
#1412 = CARTESIAN_POINT('',(-5.422818472546,-7.807402885327,3.2));
#1413 = LINE('',#1414,#1415);
#1414 = CARTESIAN_POINT('',(-5.422818472546,-7.807402885327,0.));
#1415 = VECTOR('',#1416,1.);
#1416 = DIRECTION('',(0.,0.,1.));
#1417 = ORIENTED_EDGE('',*,*,#1333,.F.);
#1418 = ORIENTED_EDGE('',*,*,#1357,.T.);
#1419 = ORIENTED_EDGE('',*,*,#1420,.T.);
#1420 = EDGE_CURVE('',#1348,#1411,#1421,.T.);
#1421 = LINE('',#1422,#1423);
#1422 = CARTESIAN_POINT('',(-6.981664199358,-8.707402885327,3.2));
#1423 = VECTOR('',#1424,1.);
#1424 = DIRECTION('',(0.866025403784,0.5,0.));
#1425 = PLANE('',#1426);
#1426 = AXIS2_PLACEMENT_3D('',#1427,#1428,#1429);
#1427 = CARTESIAN_POINT('',(-6.981664199358,-8.707402885327,0.));
#1428 = DIRECTION('',(-0.5,0.866025403784,0.));
#1429 = DIRECTION('',(0.,0.,1.));
#1430 = ADVANCED_FACE('',(#1431),#1481,.T.);
#1431 = FACE_BOUND('',#1432,.T.);
#1432 = EDGE_LOOP('',(#1433,#1441,#1442,#1443,#1451,#1459,#1467,#1475));
#1433 = ORIENTED_EDGE('',*,*,#1434,.F.);
#1434 = EDGE_CURVE('',#1411,#1435,#1437,.T.);
#1435 = VERTEX_POINT('',#1436);
#1436 = CARTESIAN_POINT('',(-7.050955775886,-4.987386354243,3.2));
#1437 = LINE('',#1438,#1439);
#1438 = CARTESIAN_POINT('',(-5.422818472546,-7.807402885327,3.2));
#1439 = VECTOR('',#1440,1.);
#1440 = DIRECTION('',(-0.5,0.866025403784,0.));
#1441 = ORIENTED_EDGE('',*,*,#1410,.F.);
#1442 = ORIENTED_EDGE('',*,*,#1325,.F.);
#1443 = ORIENTED_EDGE('',*,*,#1444,.T.);
#1444 = EDGE_CURVE('',#1318,#1445,#1447,.T.);
#1445 = VERTEX_POINT('',#1446);
#1446 = CARTESIAN_POINT('',(-9.472818472546,-0.792597114673,3.2));
#1447 = LINE('',#1448,#1449);
#1448 = CARTESIAN_POINT('',(-9.472818472546,-0.792597114673,0.));
#1449 = VECTOR('',#1450,1.);
#1450 = DIRECTION('',(0.,0.,1.));
#1451 = ORIENTED_EDGE('',*,*,#1452,.F.);
#1452 = EDGE_CURVE('',#1453,#1445,#1455,.T.);
#1453 = VERTEX_POINT('',#1454);
#1454 = CARTESIAN_POINT('',(-7.844681169206,-3.612613645757,3.2));
#1455 = LINE('',#1456,#1457);
#1456 = CARTESIAN_POINT('',(-5.422818472546,-7.807402885327,3.2));
#1457 = VECTOR('',#1458,1.);
#1458 = DIRECTION('',(-0.5,0.866025403784,0.));
#1459 = ORIENTED_EDGE('',*,*,#1460,.F.);
#1460 = EDGE_CURVE('',#1461,#1453,#1463,.T.);
#1461 = VERTEX_POINT('',#1462);
#1462 = CARTESIAN_POINT('',(-7.844681169206,-3.612613645757,3.));
#1463 = LINE('',#1464,#1465);
#1464 = CARTESIAN_POINT('',(-7.844681169206,-3.612613645757,3.));
#1465 = VECTOR('',#1466,1.);
#1466 = DIRECTION('',(0.,0.,1.));
#1467 = ORIENTED_EDGE('',*,*,#1468,.T.);
#1468 = EDGE_CURVE('',#1461,#1469,#1471,.T.);
#1469 = VERTEX_POINT('',#1470);
#1470 = CARTESIAN_POINT('',(-7.050955775886,-4.987386354243,3.));
#1471 = LINE('',#1472,#1473);
#1472 = CARTESIAN_POINT('',(-6.435318472546,-6.053701442663,3.));
#1473 = VECTOR('',#1474,1.);
#1474 = DIRECTION('',(0.5,-0.866025403784,0.));
#1475 = ORIENTED_EDGE('',*,*,#1476,.T.);
#1476 = EDGE_CURVE('',#1469,#1435,#1477,.T.);
#1477 = LINE('',#1478,#1479);
#1478 = CARTESIAN_POINT('',(-7.050955775886,-4.987386354243,3.));
#1479 = VECTOR('',#1480,1.);
#1480 = DIRECTION('',(0.,0.,1.));
#1481 = PLANE('',#1482);
#1482 = AXIS2_PLACEMENT_3D('',#1483,#1484,#1485);
#1483 = CARTESIAN_POINT('',(-5.422818472546,-7.807402885327,0.));
#1484 = DIRECTION('',(0.866025403784,0.5,0.));
#1485 = DIRECTION('',(0.,0.,1.));
#1486 = ADVANCED_FACE('',(#1487),#1498,.T.);
#1487 = FACE_BOUND('',#1488,.T.);
#1488 = EDGE_LOOP('',(#1489,#1490,#1491,#1492));
#1489 = ORIENTED_EDGE('',*,*,#1444,.F.);
#1490 = ORIENTED_EDGE('',*,*,#1317,.F.);
#1491 = ORIENTED_EDGE('',*,*,#1364,.T.);
#1492 = ORIENTED_EDGE('',*,*,#1493,.T.);
#1493 = EDGE_CURVE('',#1365,#1445,#1494,.T.);
#1494 = LINE('',#1495,#1496);
#1495 = CARTESIAN_POINT('',(-11.03166419935,-1.692597114673,3.2));
#1496 = VECTOR('',#1497,1.);
#1497 = DIRECTION('',(0.866025403784,0.5,0.));
#1498 = PLANE('',#1499);
#1499 = AXIS2_PLACEMENT_3D('',#1500,#1501,#1502);
#1500 = CARTESIAN_POINT('',(-11.03166419935,-1.692597114673,0.));
#1501 = DIRECTION('',(-0.5,0.866025403784,0.));
#1502 = DIRECTION('',(0.,0.,1.));
#1503 = ADVANCED_FACE('',(#1504),#1516,.T.);
#1504 = FACE_BOUND('',#1505,.T.);
#1505 = EDGE_LOOP('',(#1506,#1507,#1508,#1509));
#1506 = ORIENTED_EDGE('',*,*,#1347,.F.);
#1507 = ORIENTED_EDGE('',*,*,#1420,.T.);
#1508 = ORIENTED_EDGE('',*,*,#1434,.T.);
#1509 = ORIENTED_EDGE('',*,*,#1510,.F.);
#1510 = EDGE_CURVE('',#1350,#1435,#1511,.T.);
#1511 = CIRCLE('',#1512,1.2);
#1512 = AXIS2_PLACEMENT_3D('',#1513,#1514,#1515);
#1513 = CARTESIAN_POINT('',(-8.227241335952,-4.75,3.2));
#1514 = DIRECTION('',(0.,0.,1.));
#1515 = DIRECTION('',(1.,0.,-0.));
#1516 = PLANE('',#1517);
#1517 = AXIS2_PLACEMENT_3D('',#1518,#1519,#1520);
#1518 = CARTESIAN_POINT('',(-6.981664199358,-8.707402885327,3.2));
#1519 = DIRECTION('',(0.,0.,1.));
#1520 = DIRECTION('',(0.866025403784,0.5,0.));
#1521 = ADVANCED_FACE('',(#1522),#1575,.T.);
#1522 = FACE_BOUND('',#1523,.T.);
#1523 = EDGE_LOOP('',(#1524,#1534,#1541,#1542,#1549,#1550,#1557,#1558,
    #1565,#1566,#1567,#1568));
#1524 = ORIENTED_EDGE('',*,*,#1525,.T.);
#1525 = EDGE_CURVE('',#1526,#1528,#1530,.T.);
#1526 = VERTEX_POINT('',#1527);
#1527 = CARTESIAN_POINT('',(-7.027241335952,-4.75,3.));
#1528 = VERTEX_POINT('',#1529);
#1529 = CARTESIAN_POINT('',(-7.027241335952,-4.75,6.5));
#1530 = LINE('',#1531,#1532);
#1531 = CARTESIAN_POINT('',(-7.027241335952,-4.75,3.));
#1532 = VECTOR('',#1533,1.);
#1533 = DIRECTION('',(0.,0.,1.));
#1534 = ORIENTED_EDGE('',*,*,#1535,.F.);
#1535 = EDGE_CURVE('',#1528,#1528,#1536,.T.);
#1536 = CIRCLE('',#1537,1.2);
#1537 = AXIS2_PLACEMENT_3D('',#1538,#1539,#1540);
#1538 = CARTESIAN_POINT('',(-8.227241335952,-4.75,6.5));
#1539 = DIRECTION('',(0.,0.,1.));
#1540 = DIRECTION('',(1.,0.,-0.));
#1541 = ORIENTED_EDGE('',*,*,#1525,.F.);
#1542 = ORIENTED_EDGE('',*,*,#1543,.T.);
#1543 = EDGE_CURVE('',#1526,#1461,#1544,.T.);
#1544 = CIRCLE('',#1545,1.2);
#1545 = AXIS2_PLACEMENT_3D('',#1546,#1547,#1548);
#1546 = CARTESIAN_POINT('',(-8.227241335952,-4.75,3.));
#1547 = DIRECTION('',(0.,0.,1.));
#1548 = DIRECTION('',(1.,0.,-0.));
#1549 = ORIENTED_EDGE('',*,*,#1460,.T.);
#1550 = ORIENTED_EDGE('',*,*,#1551,.T.);
#1551 = EDGE_CURVE('',#1453,#1373,#1552,.T.);
#1552 = CIRCLE('',#1553,1.2);
#1553 = AXIS2_PLACEMENT_3D('',#1554,#1555,#1556);
#1554 = CARTESIAN_POINT('',(-8.227241335952,-4.75,3.2));
#1555 = DIRECTION('',(0.,0.,1.));
#1556 = DIRECTION('',(1.,0.,-0.));
#1557 = ORIENTED_EDGE('',*,*,#1380,.F.);
#1558 = ORIENTED_EDGE('',*,*,#1559,.T.);
#1559 = EDGE_CURVE('',#1381,#1389,#1560,.T.);
#1560 = CIRCLE('',#1561,1.2);
#1561 = AXIS2_PLACEMENT_3D('',#1562,#1563,#1564);
#1562 = CARTESIAN_POINT('',(-8.227241335952,-4.75,3.));
#1563 = DIRECTION('',(0.,0.,1.));
#1564 = DIRECTION('',(1.,0.,-0.));
#1565 = ORIENTED_EDGE('',*,*,#1396,.T.);
#1566 = ORIENTED_EDGE('',*,*,#1510,.T.);
#1567 = ORIENTED_EDGE('',*,*,#1476,.F.);
#1568 = ORIENTED_EDGE('',*,*,#1569,.T.);
#1569 = EDGE_CURVE('',#1469,#1526,#1570,.T.);
#1570 = CIRCLE('',#1571,1.2);
#1571 = AXIS2_PLACEMENT_3D('',#1572,#1573,#1574);
#1572 = CARTESIAN_POINT('',(-8.227241335952,-4.75,3.));
#1573 = DIRECTION('',(0.,0.,1.));
#1574 = DIRECTION('',(1.,0.,-0.));
#1575 = CYLINDRICAL_SURFACE('',#1576,1.2);
#1576 = AXIS2_PLACEMENT_3D('',#1577,#1578,#1579);
#1577 = CARTESIAN_POINT('',(-8.227241335952,-4.75,3.));
#1578 = DIRECTION('',(0.,0.,1.));
#1579 = DIRECTION('',(1.,0.,-0.));
#1580 = ADVANCED_FACE('',(#1581),#1585,.F.);
#1581 = FACE_BOUND('',#1582,.F.);
#1582 = EDGE_LOOP('',(#1583,#1584));
#1583 = ORIENTED_EDGE('',*,*,#1388,.F.);
#1584 = ORIENTED_EDGE('',*,*,#1559,.T.);
#1585 = PLANE('',#1586);
#1586 = AXIS2_PLACEMENT_3D('',#1587,#1588,#1589);
#1587 = CARTESIAN_POINT('',(-8.227241335952,-4.75,3.));
#1588 = DIRECTION('',(0.,0.,1.));
#1589 = DIRECTION('',(1.,0.,-0.));
#1590 = ADVANCED_FACE('',(#1591),#1597,.T.);
#1591 = FACE_BOUND('',#1592,.T.);
#1592 = EDGE_LOOP('',(#1593,#1594,#1595,#1596));
#1593 = ORIENTED_EDGE('',*,*,#1372,.F.);
#1594 = ORIENTED_EDGE('',*,*,#1551,.F.);
#1595 = ORIENTED_EDGE('',*,*,#1452,.T.);
#1596 = ORIENTED_EDGE('',*,*,#1493,.F.);
#1597 = PLANE('',#1598);
#1598 = AXIS2_PLACEMENT_3D('',#1599,#1600,#1601);
#1599 = CARTESIAN_POINT('',(-6.981664199358,-8.707402885327,3.2));
#1600 = DIRECTION('',(0.,0.,1.));
#1601 = DIRECTION('',(0.866025403784,0.5,0.));
#1602 = ADVANCED_FACE('',(#1603),#1608,.F.);
#1603 = FACE_BOUND('',#1604,.F.);
#1604 = EDGE_LOOP('',(#1605,#1606,#1607));
#1605 = ORIENTED_EDGE('',*,*,#1569,.T.);
#1606 = ORIENTED_EDGE('',*,*,#1543,.T.);
#1607 = ORIENTED_EDGE('',*,*,#1468,.T.);
#1608 = PLANE('',#1609);
#1609 = AXIS2_PLACEMENT_3D('',#1610,#1611,#1612);
#1610 = CARTESIAN_POINT('',(-8.227241335952,-4.75,3.));
#1611 = DIRECTION('',(0.,0.,1.));
#1612 = DIRECTION('',(1.,0.,-0.));
#1613 = ADVANCED_FACE('',(#1614),#1617,.T.);
#1614 = FACE_BOUND('',#1615,.T.);
#1615 = EDGE_LOOP('',(#1616));
#1616 = ORIENTED_EDGE('',*,*,#1535,.T.);
#1617 = PLANE('',#1618);
#1618 = AXIS2_PLACEMENT_3D('',#1619,#1620,#1621);
#1619 = CARTESIAN_POINT('',(-8.227241335952,-4.75,6.5));
#1620 = DIRECTION('',(0.,0.,1.));
#1621 = DIRECTION('',(1.,0.,-0.));
#1622 = MANIFOLD_SOLID_BREP('',#1623);
#1623 = CLOSED_SHELL('',(#1624,#1658,#1684,#1710,#1735,#1761,#1787,#1812
    ,#1838,#1864,#1890,#1916,#1925));
#1624 = ADVANCED_FACE('',(#1625),#1653,.T.);
#1625 = FACE_BOUND('',#1626,.T.);
#1626 = EDGE_LOOP('',(#1627,#1638,#1645,#1646));
#1627 = ORIENTED_EDGE('',*,*,#1628,.T.);
#1628 = EDGE_CURVE('',#1629,#1631,#1633,.T.);
#1629 = VERTEX_POINT('',#1630);
#1630 = CARTESIAN_POINT('',(9.227241335952,-3.75,5.7));
#1631 = VERTEX_POINT('',#1632);
#1632 = CARTESIAN_POINT('',(2.227241335952,-10.75,5.7));
#1633 = CIRCLE('',#1634,7.);
#1634 = AXIS2_PLACEMENT_3D('',#1635,#1636,#1637);
#1635 = CARTESIAN_POINT('',(2.227241335952,-3.75,5.7));
#1636 = DIRECTION('',(0.,0.,-1.));
#1637 = DIRECTION('',(1.,7.401486830834E-17,0.));
#1638 = ORIENTED_EDGE('',*,*,#1639,.T.);
#1639 = EDGE_CURVE('',#1631,#1631,#1640,.T.);
#1640 = CIRCLE('',#1641,1.);
#1641 = AXIS2_PLACEMENT_3D('',#1642,#1643,#1644);
#1642 = CARTESIAN_POINT('',(2.227241335952,-9.75,5.7));
#1643 = DIRECTION('',(1.,-8.679739665932E-17,0.));
#1644 = DIRECTION('',(-8.679739665932E-17,-1.,0.));
#1645 = ORIENTED_EDGE('',*,*,#1628,.F.);
#1646 = ORIENTED_EDGE('',*,*,#1647,.F.);
#1647 = EDGE_CURVE('',#1629,#1629,#1648,.T.);
#1648 = CIRCLE('',#1649,1.);
#1649 = AXIS2_PLACEMENT_3D('',#1650,#1651,#1652);
#1650 = CARTESIAN_POINT('',(8.227241335952,-3.75,5.7));
#1651 = DIRECTION('',(-7.401486830834E-17,1.,0.));
#1652 = DIRECTION('',(1.,7.401486830834E-17,0.));
#1653 = TOROIDAL_SURFACE('',#1654,6.,1.);
#1654 = AXIS2_PLACEMENT_3D('',#1655,#1656,#1657);
#1655 = CARTESIAN_POINT('',(2.227241335952,-3.75,5.7));
#1656 = DIRECTION('',(0.,-0.,-1.));
#1657 = DIRECTION('',(1.,7.401486830834E-17,0.));
#1658 = ADVANCED_FACE('',(#1659),#1679,.T.);
#1659 = FACE_BOUND('',#1660,.T.);
#1660 = EDGE_LOOP('',(#1661,#1670,#1677,#1678));
#1661 = ORIENTED_EDGE('',*,*,#1662,.T.);
#1662 = EDGE_CURVE('',#1631,#1663,#1665,.T.);
#1663 = VERTEX_POINT('',#1664);
#1664 = CARTESIAN_POINT('',(-7.994946598009,-9.600003857429,5.7));
#1665 = CIRCLE('',#1666,46.006944444444);
#1666 = AXIS2_PLACEMENT_3D('',#1667,#1668,#1669);
#1667 = CARTESIAN_POINT('',(2.227241335952,35.256944444444,5.7));
#1668 = DIRECTION('',(0.,-0.,-1.));
#1669 = DIRECTION('',(4.933563201544E-17,-1.,0.));
#1670 = ORIENTED_EDGE('',*,*,#1671,.T.);
#1671 = EDGE_CURVE('',#1663,#1663,#1672,.T.);
#1672 = CIRCLE('',#1673,1.);
#1673 = AXIS2_PLACEMENT_3D('',#1674,#1675,#1676);
#1674 = CARTESIAN_POINT('',(-7.772758664048,-8.625,5.7));
#1675 = DIRECTION('',(0.975003857429,-0.222187933961,0.));
#1676 = DIRECTION('',(-0.222187933961,-0.975003857429,0.));
#1677 = ORIENTED_EDGE('',*,*,#1662,.F.);
#1678 = ORIENTED_EDGE('',*,*,#1639,.F.);
#1679 = TOROIDAL_SURFACE('',#1680,45.006944444444,1.);
#1680 = AXIS2_PLACEMENT_3D('',#1681,#1682,#1683);
#1681 = CARTESIAN_POINT('',(2.227241335952,35.256944444444,5.7));
#1682 = DIRECTION('',(-0.,-0.,-1.));
#1683 = DIRECTION('',(4.933563201544E-17,-1.,0.));
#1684 = ADVANCED_FACE('',(#1685),#1705,.T.);
#1685 = FACE_BOUND('',#1686,.T.);
#1686 = EDGE_LOOP('',(#1687,#1696,#1703,#1704));
#1687 = ORIENTED_EDGE('',*,*,#1688,.T.);
#1688 = EDGE_CURVE('',#1663,#1689,#1691,.T.);
#1689 = VERTEX_POINT('',#1690);
#1690 = CARTESIAN_POINT('',(-17.77275866404,-8.5,5.7));
#1691 = CIRCLE('',#1692,44.006944444445);
#1692 = AXIS2_PLACEMENT_3D('',#1693,#1694,#1695);
#1693 = CARTESIAN_POINT('',(-17.77275866404,-52.50694444444,5.7));
#1694 = DIRECTION('',(0.,-0.,1.));
#1695 = DIRECTION('',(0.222187933961,0.975003857429,0.));
#1696 = ORIENTED_EDGE('',*,*,#1697,.T.);
#1697 = EDGE_CURVE('',#1689,#1689,#1698,.T.);
#1698 = CIRCLE('',#1699,1.);
#1699 = AXIS2_PLACEMENT_3D('',#1700,#1701,#1702);
#1700 = CARTESIAN_POINT('',(-17.77275866404,-7.5,5.7));
#1701 = DIRECTION('',(1.,5.551115123126E-17,0.));
#1702 = DIRECTION('',(-5.551115123126E-17,1.,0.));
#1703 = ORIENTED_EDGE('',*,*,#1688,.F.);
#1704 = ORIENTED_EDGE('',*,*,#1671,.F.);
#1705 = TOROIDAL_SURFACE('',#1706,45.006944444445,1.);
#1706 = AXIS2_PLACEMENT_3D('',#1707,#1708,#1709);
#1707 = CARTESIAN_POINT('',(-17.77275866404,-52.50694444444,5.7));
#1708 = DIRECTION('',(0.,-0.,1.));
#1709 = DIRECTION('',(0.222187933961,0.975003857429,0.));
#1710 = ADVANCED_FACE('',(#1711),#1730,.T.);
#1711 = FACE_BOUND('',#1712,.T.);
#1712 = EDGE_LOOP('',(#1713,#1721,#1728,#1729));
#1713 = ORIENTED_EDGE('',*,*,#1714,.T.);
#1714 = EDGE_CURVE('',#1689,#1715,#1717,.T.);
#1715 = VERTEX_POINT('',#1716);
#1716 = CARTESIAN_POINT('',(-37.,-8.5,5.7));
#1717 = LINE('',#1718,#1719);
#1718 = CARTESIAN_POINT('',(-17.77275866404,-8.5,5.7));
#1719 = VECTOR('',#1720,1.);
#1720 = DIRECTION('',(-1.,0.,0.));
#1721 = ORIENTED_EDGE('',*,*,#1722,.F.);
#1722 = EDGE_CURVE('',#1715,#1715,#1723,.T.);
#1723 = CIRCLE('',#1724,1.);
#1724 = AXIS2_PLACEMENT_3D('',#1725,#1726,#1727);
#1725 = CARTESIAN_POINT('',(-37.,-7.5,5.7));
#1726 = DIRECTION('',(-1.,0.,0.));
#1727 = DIRECTION('',(-0.,-1.,0.));
#1728 = ORIENTED_EDGE('',*,*,#1714,.F.);
#1729 = ORIENTED_EDGE('',*,*,#1697,.F.);
#1730 = CYLINDRICAL_SURFACE('',#1731,1.);
#1731 = AXIS2_PLACEMENT_3D('',#1732,#1733,#1734);
#1732 = CARTESIAN_POINT('',(-17.77275866404,-7.5,5.7));
#1733 = DIRECTION('',(-1.,0.,0.));
#1734 = DIRECTION('',(-0.,-1.,0.));
#1735 = ADVANCED_FACE('',(#1736),#1756,.T.);
#1736 = FACE_BOUND('',#1737,.T.);
#1737 = EDGE_LOOP('',(#1738,#1747,#1754,#1755));
#1738 = ORIENTED_EDGE('',*,*,#1739,.T.);
#1739 = EDGE_CURVE('',#1715,#1740,#1742,.T.);
#1740 = VERTEX_POINT('',#1741);
#1741 = CARTESIAN_POINT('',(-42.,-13.5,5.7));
#1742 = CIRCLE('',#1743,5.);
#1743 = AXIS2_PLACEMENT_3D('',#1744,#1745,#1746);
#1744 = CARTESIAN_POINT('',(-37.,-13.5,5.7));
#1745 = DIRECTION('',(0.,-0.,1.));
#1746 = DIRECTION('',(0.,1.,0.));
#1747 = ORIENTED_EDGE('',*,*,#1748,.T.);
#1748 = EDGE_CURVE('',#1740,#1740,#1749,.T.);
#1749 = CIRCLE('',#1750,1.);
#1750 = AXIS2_PLACEMENT_3D('',#1751,#1752,#1753);
#1751 = CARTESIAN_POINT('',(-43.,-13.5,5.7));
#1752 = DIRECTION('',(1.171455364583E-15,1.,0.));
#1753 = DIRECTION('',(-1.,1.171455364583E-15,0.));
#1754 = ORIENTED_EDGE('',*,*,#1739,.F.);
#1755 = ORIENTED_EDGE('',*,*,#1722,.T.);
#1756 = TOROIDAL_SURFACE('',#1757,6.,1.);
#1757 = AXIS2_PLACEMENT_3D('',#1758,#1759,#1760);
#1758 = CARTESIAN_POINT('',(-37.,-13.5,5.7));
#1759 = DIRECTION('',(0.,-0.,1.));
#1760 = DIRECTION('',(0.,1.,0.));
#1761 = ADVANCED_FACE('',(#1762),#1782,.T.);
#1762 = FACE_BOUND('',#1763,.T.);
#1763 = EDGE_LOOP('',(#1764,#1773,#1780,#1781));
#1764 = ORIENTED_EDGE('',*,*,#1765,.T.);
#1765 = EDGE_CURVE('',#1740,#1766,#1768,.T.);
#1766 = VERTEX_POINT('',#1767);
#1767 = CARTESIAN_POINT('',(-42.,-19.5,11.7));
#1768 = CIRCLE('',#1769,6.);
#1769 = AXIS2_PLACEMENT_3D('',#1770,#1771,#1772);
#1770 = CARTESIAN_POINT('',(-42.,-13.5,11.7));
#1771 = DIRECTION('',(-1.,-0.,0.));
#1772 = DIRECTION('',(0.,-2.960594732334E-16,-1.));
#1773 = ORIENTED_EDGE('',*,*,#1774,.T.);
#1774 = EDGE_CURVE('',#1766,#1766,#1775,.T.);
#1775 = CIRCLE('',#1776,1.);
#1776 = AXIS2_PLACEMENT_3D('',#1777,#1778,#1779);
#1777 = CARTESIAN_POINT('',(-43.,-19.5,11.7));
#1778 = DIRECTION('',(0.,-2.34827133276E-16,-1.));
#1779 = DIRECTION('',(0.,-1.,2.34827133276E-16));
#1780 = ORIENTED_EDGE('',*,*,#1765,.F.);
#1781 = ORIENTED_EDGE('',*,*,#1748,.F.);
#1782 = TOROIDAL_SURFACE('',#1783,6.,1.);
#1783 = AXIS2_PLACEMENT_3D('',#1784,#1785,#1786);
#1784 = CARTESIAN_POINT('',(-43.,-13.5,11.7));
#1785 = DIRECTION('',(-1.,-0.,0.));
#1786 = DIRECTION('',(0.,-2.960594732334E-16,-1.));
#1787 = ADVANCED_FACE('',(#1788),#1807,.T.);
#1788 = FACE_BOUND('',#1789,.T.);
#1789 = EDGE_LOOP('',(#1790,#1798,#1805,#1806));
#1790 = ORIENTED_EDGE('',*,*,#1791,.T.);
#1791 = EDGE_CURVE('',#1766,#1792,#1794,.T.);
#1792 = VERTEX_POINT('',#1793);
#1793 = CARTESIAN_POINT('',(-42.,-19.5,19.663732951628));
#1794 = LINE('',#1795,#1796);
#1795 = CARTESIAN_POINT('',(-42.,-19.5,11.7));
#1796 = VECTOR('',#1797,1.);
#1797 = DIRECTION('',(0.,0.,1.));
#1798 = ORIENTED_EDGE('',*,*,#1799,.F.);
#1799 = EDGE_CURVE('',#1792,#1792,#1800,.T.);
#1800 = CIRCLE('',#1801,1.);
#1801 = AXIS2_PLACEMENT_3D('',#1802,#1803,#1804);
#1802 = CARTESIAN_POINT('',(-43.,-19.5,19.663732951628));
#1803 = DIRECTION('',(0.,0.,1.));
#1804 = DIRECTION('',(1.,-1.484753196293E-31,0.));
#1805 = ORIENTED_EDGE('',*,*,#1791,.F.);
#1806 = ORIENTED_EDGE('',*,*,#1774,.F.);
#1807 = CYLINDRICAL_SURFACE('',#1808,1.);
#1808 = AXIS2_PLACEMENT_3D('',#1809,#1810,#1811);
#1809 = CARTESIAN_POINT('',(-43.,-19.5,11.7));
#1810 = DIRECTION('',(0.,0.,1.));
#1811 = DIRECTION('',(1.,-1.484753196293E-31,0.));
#1812 = ADVANCED_FACE('',(#1813),#1833,.T.);
#1813 = FACE_BOUND('',#1814,.T.);
#1814 = EDGE_LOOP('',(#1815,#1824,#1831,#1832));
#1815 = ORIENTED_EDGE('',*,*,#1816,.T.);
#1816 = EDGE_CURVE('',#1792,#1817,#1819,.T.);
#1817 = VERTEX_POINT('',#1818);
#1818 = CARTESIAN_POINT('',(-42.,-15.375,25.363239509217));
#1819 = CIRCLE('',#1820,6.);
#1820 = AXIS2_PLACEMENT_3D('',#1821,#1822,#1823);
#1821 = CARTESIAN_POINT('',(-42.,-13.5,19.663732951628));
#1822 = DIRECTION('',(-1.,0.,0.));
#1823 = DIRECTION('',(0.,-1.,1.7763568394E-15));
#1824 = ORIENTED_EDGE('',*,*,#1825,.T.);
#1825 = EDGE_CURVE('',#1817,#1817,#1826,.T.);
#1826 = CIRCLE('',#1827,1.);
#1827 = AXIS2_PLACEMENT_3D('',#1828,#1829,#1830);
#1828 = CARTESIAN_POINT('',(-43.,-15.375,25.363239509217));
#1829 = DIRECTION('',(-0.,-0.949917759598,-0.3125));
#1830 = DIRECTION('',(0.,-0.3125,0.949917759598));
#1831 = ORIENTED_EDGE('',*,*,#1816,.F.);
#1832 = ORIENTED_EDGE('',*,*,#1799,.T.);
#1833 = TOROIDAL_SURFACE('',#1834,6.,1.);
#1834 = AXIS2_PLACEMENT_3D('',#1835,#1836,#1837);
#1835 = CARTESIAN_POINT('',(-43.,-13.5,19.663732951628));
#1836 = DIRECTION('',(-1.,0.,0.));
#1837 = DIRECTION('',(0.,-1.,1.7763568394E-15));
#1838 = ADVANCED_FACE('',(#1839),#1859,.T.);
#1839 = FACE_BOUND('',#1840,.T.);
#1840 = EDGE_LOOP('',(#1841,#1850,#1857,#1858));
#1841 = ORIENTED_EDGE('',*,*,#1842,.T.);
#1842 = EDGE_CURVE('',#1817,#1843,#1845,.T.);
#1843 = VERTEX_POINT('',#1844);
#1844 = CARTESIAN_POINT('',(-42.,-11.25,31.062746066806));
#1845 = CIRCLE('',#1846,6.);
#1846 = AXIS2_PLACEMENT_3D('',#1847,#1848,#1849);
#1847 = CARTESIAN_POINT('',(-42.,-17.25,31.062746066806));
#1848 = DIRECTION('',(1.,-0.,0.));
#1849 = DIRECTION('',(0.,0.3125,-0.949917759598));
#1850 = ORIENTED_EDGE('',*,*,#1851,.T.);
#1851 = EDGE_CURVE('',#1843,#1843,#1852,.T.);
#1852 = CIRCLE('',#1853,1.);
#1853 = AXIS2_PLACEMENT_3D('',#1854,#1855,#1856);
#1854 = CARTESIAN_POINT('',(-43.,-11.25,31.062746066806));
#1855 = DIRECTION('',(0.,-2.22044604925E-16,-1.));
#1856 = DIRECTION('',(0.,1.,-2.22044604925E-16));
#1857 = ORIENTED_EDGE('',*,*,#1842,.F.);
#1858 = ORIENTED_EDGE('',*,*,#1825,.F.);
#1859 = TOROIDAL_SURFACE('',#1860,6.,1.);
#1860 = AXIS2_PLACEMENT_3D('',#1861,#1862,#1863);
#1861 = CARTESIAN_POINT('',(-43.,-17.25,31.062746066806));
#1862 = DIRECTION('',(1.,-0.,0.));
#1863 = DIRECTION('',(0.,0.3125,-0.949917759598));
#1864 = ADVANCED_FACE('',(#1865),#1885,.T.);
#1865 = FACE_BOUND('',#1866,.T.);
#1866 = EDGE_LOOP('',(#1867,#1876,#1883,#1884));
#1867 = ORIENTED_EDGE('',*,*,#1868,.T.);
#1868 = EDGE_CURVE('',#1843,#1869,#1871,.T.);
#1869 = VERTEX_POINT('',#1870);
#1870 = CARTESIAN_POINT('',(-40.75,-11.25,34.369935205637));
#1871 = CIRCLE('',#1872,5.);
#1872 = AXIS2_PLACEMENT_3D('',#1873,#1874,#1875);
#1873 = CARTESIAN_POINT('',(-37.,-11.25,31.062746066806));
#1874 = DIRECTION('',(0.,1.,0.));
#1875 = DIRECTION('',(-1.,0.,-5.921189464668E-16));
#1876 = ORIENTED_EDGE('',*,*,#1877,.T.);
#1877 = EDGE_CURVE('',#1869,#1869,#1878,.T.);
#1878 = CIRCLE('',#1879,1.);
#1879 = AXIS2_PLACEMENT_3D('',#1880,#1881,#1882);
#1880 = CARTESIAN_POINT('',(-41.5,-11.25,35.031373033403));
#1881 = DIRECTION('',(-0.661437827766,0.,-0.75));
#1882 = DIRECTION('',(-0.75,0.,0.661437827766));
#1883 = ORIENTED_EDGE('',*,*,#1868,.F.);
#1884 = ORIENTED_EDGE('',*,*,#1851,.F.);
#1885 = TOROIDAL_SURFACE('',#1886,6.,1.);
#1886 = AXIS2_PLACEMENT_3D('',#1887,#1888,#1889);
#1887 = CARTESIAN_POINT('',(-37.,-11.25,31.062746066806));
#1888 = DIRECTION('',(0.,1.,-0.));
#1889 = DIRECTION('',(-1.,0.,-5.921189464668E-16));
#1890 = ADVANCED_FACE('',(#1891),#1911,.T.);
#1891 = FACE_BOUND('',#1892,.T.);
#1892 = EDGE_LOOP('',(#1893,#1902,#1909,#1910));
#1893 = ORIENTED_EDGE('',*,*,#1894,.T.);
#1894 = EDGE_CURVE('',#1869,#1895,#1897,.T.);
#1895 = VERTEX_POINT('',#1896);
#1896 = CARTESIAN_POINT('',(-39.,-11.25,39.));
#1897 = CIRCLE('',#1898,7.);
#1898 = AXIS2_PLACEMENT_3D('',#1899,#1900,#1901);
#1899 = CARTESIAN_POINT('',(-46.,-11.25,39.));
#1900 = DIRECTION('',(0.,-1.,0.));
#1901 = DIRECTION('',(0.75,0.,-0.661437827766));
#1902 = ORIENTED_EDGE('',*,*,#1903,.T.);
#1903 = EDGE_CURVE('',#1895,#1895,#1904,.T.);
#1904 = CIRCLE('',#1905,1.);
#1905 = AXIS2_PLACEMENT_3D('',#1906,#1907,#1908);
#1906 = CARTESIAN_POINT('',(-40.,-11.25,39.));
#1907 = DIRECTION('',(1.110223024625E-15,0.,-1.));
#1908 = DIRECTION('',(1.,0.,1.110223024625E-15));
#1909 = ORIENTED_EDGE('',*,*,#1894,.F.);
#1910 = ORIENTED_EDGE('',*,*,#1877,.F.);
#1911 = TOROIDAL_SURFACE('',#1912,6.,1.);
#1912 = AXIS2_PLACEMENT_3D('',#1913,#1914,#1915);
#1913 = CARTESIAN_POINT('',(-46.,-11.25,39.));
#1914 = DIRECTION('',(0.,-1.,0.));
#1915 = DIRECTION('',(0.75,0.,-0.661437827766));
#1916 = ADVANCED_FACE('',(#1917),#1920,.F.);
#1917 = FACE_BOUND('',#1918,.F.);
#1918 = EDGE_LOOP('',(#1919));
#1919 = ORIENTED_EDGE('',*,*,#1647,.F.);
#1920 = PLANE('',#1921);
#1921 = AXIS2_PLACEMENT_3D('',#1922,#1923,#1924);
#1922 = CARTESIAN_POINT('',(8.227241335952,-3.75,5.7));
#1923 = DIRECTION('',(-0.,-1.,-0.));
#1924 = DIRECTION('',(0.,0.,-1.));
#1925 = ADVANCED_FACE('',(#1926),#1929,.T.);
#1926 = FACE_BOUND('',#1927,.T.);
#1927 = EDGE_LOOP('',(#1928));
#1928 = ORIENTED_EDGE('',*,*,#1903,.F.);
#1929 = PLANE('',#1930);
#1930 = AXIS2_PLACEMENT_3D('',#1931,#1932,#1933);
#1931 = CARTESIAN_POINT('',(-40.,-11.25,39.));
#1932 = DIRECTION('',(0.,0.,1.));
#1933 = DIRECTION('',(1.,0.,-0.));
#1934 = MANIFOLD_SOLID_BREP('',#1935);
#1935 = CLOSED_SHELL('',(#1936,#1969,#1995,#2020,#2046,#2071,#2097,#2122
    ,#2148,#2174,#2200,#2225,#2234));
#1936 = ADVANCED_FACE('',(#1937),#1964,.T.);
#1937 = FACE_BOUND('',#1938,.T.);
#1938 = EDGE_LOOP('',(#1939,#1949,#1956,#1957));
#1939 = ORIENTED_EDGE('',*,*,#1940,.T.);
#1940 = EDGE_CURVE('',#1941,#1943,#1945,.T.);
#1941 = VERTEX_POINT('',#1942);
#1942 = CARTESIAN_POINT('',(-7.227241335952,-4.75,5.7));
#1943 = VERTEX_POINT('',#1944);
#1944 = CARTESIAN_POINT('',(-7.227241335952,-4.,5.7));
#1945 = LINE('',#1946,#1947);
#1946 = CARTESIAN_POINT('',(-7.227241335952,-4.75,5.7));
#1947 = VECTOR('',#1948,1.);
#1948 = DIRECTION('',(0.,1.,0.));
#1949 = ORIENTED_EDGE('',*,*,#1950,.F.);
#1950 = EDGE_CURVE('',#1943,#1943,#1951,.T.);
#1951 = CIRCLE('',#1952,1.);
#1952 = AXIS2_PLACEMENT_3D('',#1953,#1954,#1955);
#1953 = CARTESIAN_POINT('',(-8.227241335952,-4.,5.7));
#1954 = DIRECTION('',(-0.,1.,0.));
#1955 = DIRECTION('',(1.,0.,0.));
#1956 = ORIENTED_EDGE('',*,*,#1940,.F.);
#1957 = ORIENTED_EDGE('',*,*,#1958,.T.);
#1958 = EDGE_CURVE('',#1941,#1941,#1959,.T.);
#1959 = CIRCLE('',#1960,1.);
#1960 = AXIS2_PLACEMENT_3D('',#1961,#1962,#1963);
#1961 = CARTESIAN_POINT('',(-8.227241335952,-4.75,5.7));
#1962 = DIRECTION('',(-0.,1.,0.));
#1963 = DIRECTION('',(1.,0.,0.));
#1964 = CYLINDRICAL_SURFACE('',#1965,1.);
#1965 = AXIS2_PLACEMENT_3D('',#1966,#1967,#1968);
#1966 = CARTESIAN_POINT('',(-8.227241335952,-4.75,5.7));
#1967 = DIRECTION('',(0.,1.,0.));
#1968 = DIRECTION('',(1.,0.,0.));
#1969 = ADVANCED_FACE('',(#1970),#1990,.T.);
#1970 = FACE_BOUND('',#1971,.T.);
#1971 = EDGE_LOOP('',(#1972,#1981,#1988,#1989));
#1972 = ORIENTED_EDGE('',*,*,#1973,.T.);
#1973 = EDGE_CURVE('',#1943,#1974,#1976,.T.);
#1974 = VERTEX_POINT('',#1975);
#1975 = CARTESIAN_POINT('',(-14.22724133595,3.,5.7));
#1976 = CIRCLE('',#1977,7.);
#1977 = AXIS2_PLACEMENT_3D('',#1978,#1979,#1980);
#1978 = CARTESIAN_POINT('',(-14.22724133595,-4.,5.7));
#1979 = DIRECTION('',(-0.,0.,1.));
#1980 = DIRECTION('',(1.,-1.480297366167E-16,0.));
#1981 = ORIENTED_EDGE('',*,*,#1982,.T.);
#1982 = EDGE_CURVE('',#1974,#1974,#1983,.T.);
#1983 = CIRCLE('',#1984,1.);
#1984 = AXIS2_PLACEMENT_3D('',#1985,#1986,#1987);
#1985 = CARTESIAN_POINT('',(-14.22724133595,2.,5.7));
#1986 = DIRECTION('',(1.,1.278252835098E-17,0.));
#1987 = DIRECTION('',(-1.278252835098E-17,1.,0.));
#1988 = ORIENTED_EDGE('',*,*,#1973,.F.);
#1989 = ORIENTED_EDGE('',*,*,#1950,.T.);
#1990 = TOROIDAL_SURFACE('',#1991,6.,1.);
#1991 = AXIS2_PLACEMENT_3D('',#1992,#1993,#1994);
#1992 = CARTESIAN_POINT('',(-14.22724133595,-4.,5.7));
#1993 = DIRECTION('',(-0.,-0.,1.));
#1994 = DIRECTION('',(1.,-1.480297366167E-16,0.));
#1995 = ADVANCED_FACE('',(#1996),#2015,.T.);
#1996 = FACE_BOUND('',#1997,.T.);
#1997 = EDGE_LOOP('',(#1998,#2006,#2013,#2014));
#1998 = ORIENTED_EDGE('',*,*,#1999,.T.);
#1999 = EDGE_CURVE('',#1974,#2000,#2002,.T.);
#2000 = VERTEX_POINT('',#2001);
#2001 = CARTESIAN_POINT('',(-43.,3.,5.7));
#2002 = LINE('',#2003,#2004);
#2003 = CARTESIAN_POINT('',(-14.22724133595,3.,5.7));
#2004 = VECTOR('',#2005,1.);
#2005 = DIRECTION('',(-1.,0.,0.));
#2006 = ORIENTED_EDGE('',*,*,#2007,.F.);
#2007 = EDGE_CURVE('',#2000,#2000,#2008,.T.);
#2008 = CIRCLE('',#2009,1.);
#2009 = AXIS2_PLACEMENT_3D('',#2010,#2011,#2012);
#2010 = CARTESIAN_POINT('',(-43.,2.,5.7));
#2011 = DIRECTION('',(-1.,0.,0.));
#2012 = DIRECTION('',(0.,1.,-0.));
#2013 = ORIENTED_EDGE('',*,*,#1999,.F.);
#2014 = ORIENTED_EDGE('',*,*,#1982,.F.);
#2015 = CYLINDRICAL_SURFACE('',#2016,1.);
#2016 = AXIS2_PLACEMENT_3D('',#2017,#2018,#2019);
#2017 = CARTESIAN_POINT('',(-14.22724133595,2.,5.7));
#2018 = DIRECTION('',(-1.,0.,0.));
#2019 = DIRECTION('',(0.,1.,-0.));
#2020 = ADVANCED_FACE('',(#2021),#2041,.T.);
#2021 = FACE_BOUND('',#2022,.T.);
#2022 = EDGE_LOOP('',(#2023,#2032,#2039,#2040));
#2023 = ORIENTED_EDGE('',*,*,#2024,.T.);
#2024 = EDGE_CURVE('',#2000,#2025,#2027,.T.);
#2025 = VERTEX_POINT('',#2026);
#2026 = CARTESIAN_POINT('',(-50.,-4.,5.7));
#2027 = CIRCLE('',#2028,7.);
#2028 = AXIS2_PLACEMENT_3D('',#2029,#2030,#2031);
#2029 = CARTESIAN_POINT('',(-43.,-4.,5.7));
#2030 = DIRECTION('',(0.,-0.,1.));
#2031 = DIRECTION('',(0.,1.,0.));
#2032 = ORIENTED_EDGE('',*,*,#2033,.T.);
#2033 = EDGE_CURVE('',#2025,#2025,#2034,.T.);
#2034 = CIRCLE('',#2035,1.);
#2035 = AXIS2_PLACEMENT_3D('',#2036,#2037,#2038);
#2036 = CARTESIAN_POINT('',(-49.,-4.,5.7));
#2037 = DIRECTION('',(2.832769448824E-16,1.,0.));
#2038 = DIRECTION('',(-1.,2.832769448824E-16,0.));
#2039 = ORIENTED_EDGE('',*,*,#2024,.F.);
#2040 = ORIENTED_EDGE('',*,*,#2007,.T.);
#2041 = TOROIDAL_SURFACE('',#2042,6.,1.);
#2042 = AXIS2_PLACEMENT_3D('',#2043,#2044,#2045);
#2043 = CARTESIAN_POINT('',(-43.,-4.,5.7));
#2044 = DIRECTION('',(0.,-0.,1.));
#2045 = DIRECTION('',(0.,1.,0.));
#2046 = ADVANCED_FACE('',(#2047),#2066,.T.);
#2047 = FACE_BOUND('',#2048,.T.);
#2048 = EDGE_LOOP('',(#2049,#2057,#2064,#2065));
#2049 = ORIENTED_EDGE('',*,*,#2050,.T.);
#2050 = EDGE_CURVE('',#2025,#2051,#2053,.T.);
#2051 = VERTEX_POINT('',#2052);
#2052 = CARTESIAN_POINT('',(-50.,-4.5,5.7));
#2053 = LINE('',#2054,#2055);
#2054 = CARTESIAN_POINT('',(-50.,-4.,5.7));
#2055 = VECTOR('',#2056,1.);
#2056 = DIRECTION('',(0.,-1.,0.));
#2057 = ORIENTED_EDGE('',*,*,#2058,.F.);
#2058 = EDGE_CURVE('',#2051,#2051,#2059,.T.);
#2059 = CIRCLE('',#2060,1.);
#2060 = AXIS2_PLACEMENT_3D('',#2061,#2062,#2063);
#2061 = CARTESIAN_POINT('',(-49.,-4.5,5.7));
#2062 = DIRECTION('',(0.,-1.,0.));
#2063 = DIRECTION('',(-1.,0.,0.));
#2064 = ORIENTED_EDGE('',*,*,#2050,.F.);
#2065 = ORIENTED_EDGE('',*,*,#2033,.F.);
#2066 = CYLINDRICAL_SURFACE('',#2067,1.);
#2067 = AXIS2_PLACEMENT_3D('',#2068,#2069,#2070);
#2068 = CARTESIAN_POINT('',(-49.,-4.,5.7));
#2069 = DIRECTION('',(0.,-1.,0.));
#2070 = DIRECTION('',(-1.,0.,0.));
#2071 = ADVANCED_FACE('',(#2072),#2092,.T.);
#2072 = FACE_BOUND('',#2073,.T.);
#2073 = EDGE_LOOP('',(#2074,#2083,#2090,#2091));
#2074 = ORIENTED_EDGE('',*,*,#2075,.T.);
#2075 = EDGE_CURVE('',#2051,#2076,#2078,.T.);
#2076 = VERTEX_POINT('',#2077);
#2077 = CARTESIAN_POINT('',(-50.,-10.5,11.7));
#2078 = CIRCLE('',#2079,6.);
#2079 = AXIS2_PLACEMENT_3D('',#2080,#2081,#2082);
#2080 = CARTESIAN_POINT('',(-50.,-4.5,11.7));
#2081 = DIRECTION('',(-1.,-0.,0.));
#2082 = DIRECTION('',(0.,-2.960594732334E-16,-1.));
#2083 = ORIENTED_EDGE('',*,*,#2084,.T.);
#2084 = EDGE_CURVE('',#2076,#2076,#2085,.T.);
#2085 = CIRCLE('',#2086,1.);
#2086 = AXIS2_PLACEMENT_3D('',#2087,#2088,#2089);
#2087 = CARTESIAN_POINT('',(-49.,-10.5,11.7));
#2088 = DIRECTION('',(-0.,8.753958913491E-16,-1.));
#2089 = DIRECTION('',(0.,-1.,-8.753958913491E-16));
#2090 = ORIENTED_EDGE('',*,*,#2075,.F.);
#2091 = ORIENTED_EDGE('',*,*,#2058,.T.);
#2092 = TOROIDAL_SURFACE('',#2093,6.,1.);
#2093 = AXIS2_PLACEMENT_3D('',#2094,#2095,#2096);
#2094 = CARTESIAN_POINT('',(-49.,-4.5,11.7));
#2095 = DIRECTION('',(-1.,-0.,0.));
#2096 = DIRECTION('',(0.,-2.960594732334E-16,-1.));
#2097 = ADVANCED_FACE('',(#2098),#2117,.T.);
#2098 = FACE_BOUND('',#2099,.T.);
#2099 = EDGE_LOOP('',(#2100,#2108,#2115,#2116));
#2100 = ORIENTED_EDGE('',*,*,#2101,.T.);
#2101 = EDGE_CURVE('',#2076,#2102,#2104,.T.);
#2102 = VERTEX_POINT('',#2103);
#2103 = CARTESIAN_POINT('',(-50.,-10.5,14.6));
#2104 = LINE('',#2105,#2106);
#2105 = CARTESIAN_POINT('',(-50.,-10.5,11.7));
#2106 = VECTOR('',#2107,1.);
#2107 = DIRECTION('',(0.,0.,1.));
#2108 = ORIENTED_EDGE('',*,*,#2109,.F.);
#2109 = EDGE_CURVE('',#2102,#2102,#2110,.T.);
#2110 = CIRCLE('',#2111,1.);
#2111 = AXIS2_PLACEMENT_3D('',#2112,#2113,#2114);
#2112 = CARTESIAN_POINT('',(-49.,-10.5,14.6));
#2113 = DIRECTION('',(0.,0.,1.));
#2114 = DIRECTION('',(-1.,0.,0.));
#2115 = ORIENTED_EDGE('',*,*,#2101,.F.);
#2116 = ORIENTED_EDGE('',*,*,#2084,.F.);
#2117 = CYLINDRICAL_SURFACE('',#2118,1.);
#2118 = AXIS2_PLACEMENT_3D('',#2119,#2120,#2121);
#2119 = CARTESIAN_POINT('',(-49.,-10.5,11.7));
#2120 = DIRECTION('',(0.,0.,1.));
#2121 = DIRECTION('',(-1.,0.,0.));
#2122 = ADVANCED_FACE('',(#2123),#2143,.T.);
#2123 = FACE_BOUND('',#2124,.T.);
#2124 = EDGE_LOOP('',(#2125,#2134,#2141,#2142));
#2125 = ORIENTED_EDGE('',*,*,#2126,.T.);
#2126 = EDGE_CURVE('',#2102,#2127,#2129,.T.);
#2127 = VERTEX_POINT('',#2128);
#2128 = CARTESIAN_POINT('',(-43.,-10.5,21.6));
#2129 = CIRCLE('',#2130,7.);
#2130 = AXIS2_PLACEMENT_3D('',#2131,#2132,#2133);
#2131 = CARTESIAN_POINT('',(-43.,-10.5,14.6));
#2132 = DIRECTION('',(0.,1.,-0.));
#2133 = DIRECTION('',(-1.,0.,5.921189464668E-16));
#2134 = ORIENTED_EDGE('',*,*,#2135,.T.);
#2135 = EDGE_CURVE('',#2127,#2127,#2136,.T.);
#2136 = CIRCLE('',#2137,1.);
#2137 = AXIS2_PLACEMENT_3D('',#2138,#2139,#2140);
#2138 = CARTESIAN_POINT('',(-43.,-10.5,20.6));
#2139 = DIRECTION('',(-1.,0.,-3.572918131907E-16));
#2140 = DIRECTION('',(-3.572918131907E-16,0.,1.));
#2141 = ORIENTED_EDGE('',*,*,#2126,.F.);
#2142 = ORIENTED_EDGE('',*,*,#2109,.T.);
#2143 = TOROIDAL_SURFACE('',#2144,6.,1.);
#2144 = AXIS2_PLACEMENT_3D('',#2145,#2146,#2147);
#2145 = CARTESIAN_POINT('',(-43.,-10.5,14.6));
#2146 = DIRECTION('',(0.,1.,-0.));
#2147 = DIRECTION('',(-1.,0.,5.921189464668E-16));
#2148 = ADVANCED_FACE('',(#2149),#2169,.T.);
#2149 = FACE_BOUND('',#2150,.T.);
#2150 = EDGE_LOOP('',(#2151,#2160,#2167,#2168));
#2151 = ORIENTED_EDGE('',*,*,#2152,.T.);
#2152 = EDGE_CURVE('',#2127,#2153,#2155,.T.);
#2153 = VERTEX_POINT('',#2154);
#2154 = CARTESIAN_POINT('',(-37.5,-11.19,21.6));
#2155 = CIRCLE('',#2156,22.265289855073);
#2156 = AXIS2_PLACEMENT_3D('',#2157,#2158,#2159);
#2157 = CARTESIAN_POINT('',(-43.,-32.76528985507,21.6));
#2158 = DIRECTION('',(0.,0.,-1.));
#2159 = DIRECTION('',(1.914754509063E-15,1.,0.));
#2160 = ORIENTED_EDGE('',*,*,#2161,.T.);
#2161 = EDGE_CURVE('',#2153,#2153,#2162,.T.);
#2162 = CIRCLE('',#2163,1.);
#2163 = AXIS2_PLACEMENT_3D('',#2164,#2165,#2166);
#2164 = CARTESIAN_POINT('',(-37.5,-11.19,20.6));
#2165 = DIRECTION('',(-0.969010059851,0.247021262054,0.));
#2166 = DIRECTION('',(0.247021262054,0.969010059851,0.));
#2167 = ORIENTED_EDGE('',*,*,#2152,.F.);
#2168 = ORIENTED_EDGE('',*,*,#2135,.F.);
#2169 = TOROIDAL_SURFACE('',#2170,22.265289855073,1.);
#2170 = AXIS2_PLACEMENT_3D('',#2171,#2172,#2173);
#2171 = CARTESIAN_POINT('',(-43.,-32.76528985507,20.6));
#2172 = DIRECTION('',(0.,0.,-1.));
#2173 = DIRECTION('',(1.914754509063E-15,1.,0.));
#2174 = ADVANCED_FACE('',(#2175),#2195,.T.);
#2175 = FACE_BOUND('',#2176,.T.);
#2176 = EDGE_LOOP('',(#2177,#2186,#2193,#2194));
#2177 = ORIENTED_EDGE('',*,*,#2178,.T.);
#2178 = EDGE_CURVE('',#2153,#2179,#2181,.T.);
#2179 = VERTEX_POINT('',#2180);
#2180 = CARTESIAN_POINT('',(-32.,-11.88,21.6));
#2181 = CIRCLE('',#2182,22.265289855072);
#2182 = AXIS2_PLACEMENT_3D('',#2183,#2184,#2185);
#2183 = CARTESIAN_POINT('',(-32.,10.385289855072,21.6));
#2184 = DIRECTION('',(0.,0.,1.));
#2185 = DIRECTION('',(-0.247021262054,-0.969010059851,0.));
#2186 = ORIENTED_EDGE('',*,*,#2187,.T.);
#2187 = EDGE_CURVE('',#2179,#2179,#2188,.T.);
#2188 = CIRCLE('',#2189,1.);
#2189 = AXIS2_PLACEMENT_3D('',#2190,#2191,#2192);
#2190 = CARTESIAN_POINT('',(-32.,-11.88,20.6));
#2191 = DIRECTION('',(-1.,1.110223024625E-16,0.));
#2192 = DIRECTION('',(-1.110223024625E-16,-1.,0.));
#2193 = ORIENTED_EDGE('',*,*,#2178,.F.);
#2194 = ORIENTED_EDGE('',*,*,#2161,.F.);
#2195 = TOROIDAL_SURFACE('',#2196,22.265289855072,1.);
#2196 = AXIS2_PLACEMENT_3D('',#2197,#2198,#2199);
#2197 = CARTESIAN_POINT('',(-32.,10.385289855072,20.6));
#2198 = DIRECTION('',(0.,0.,1.));
#2199 = DIRECTION('',(-0.247021262054,-0.969010059851,0.));
#2200 = ADVANCED_FACE('',(#2201),#2220,.T.);
#2201 = FACE_BOUND('',#2202,.T.);
#2202 = EDGE_LOOP('',(#2203,#2211,#2218,#2219));
#2203 = ORIENTED_EDGE('',*,*,#2204,.T.);
#2204 = EDGE_CURVE('',#2179,#2205,#2207,.T.);
#2205 = VERTEX_POINT('',#2206);
#2206 = CARTESIAN_POINT('',(-21.4,-11.88,21.6));
#2207 = LINE('',#2208,#2209);
#2208 = CARTESIAN_POINT('',(-32.,-11.88,21.6));
#2209 = VECTOR('',#2210,1.);
#2210 = DIRECTION('',(1.,0.,0.));
#2211 = ORIENTED_EDGE('',*,*,#2212,.F.);
#2212 = EDGE_CURVE('',#2205,#2205,#2213,.T.);
#2213 = CIRCLE('',#2214,1.);
#2214 = AXIS2_PLACEMENT_3D('',#2215,#2216,#2217);
#2215 = CARTESIAN_POINT('',(-21.4,-11.88,20.6));
#2216 = DIRECTION('',(1.,0.,-0.));
#2217 = DIRECTION('',(0.,0.,1.));
#2218 = ORIENTED_EDGE('',*,*,#2204,.F.);
#2219 = ORIENTED_EDGE('',*,*,#2187,.F.);
#2220 = CYLINDRICAL_SURFACE('',#2221,1.);
#2221 = AXIS2_PLACEMENT_3D('',#2222,#2223,#2224);
#2222 = CARTESIAN_POINT('',(-32.,-11.88,20.6));
#2223 = DIRECTION('',(1.,0.,0.));
#2224 = DIRECTION('',(0.,0.,1.));
#2225 = ADVANCED_FACE('',(#2226),#2229,.F.);
#2226 = FACE_BOUND('',#2227,.F.);
#2227 = EDGE_LOOP('',(#2228));
#2228 = ORIENTED_EDGE('',*,*,#1958,.T.);
#2229 = PLANE('',#2230);
#2230 = AXIS2_PLACEMENT_3D('',#2231,#2232,#2233);
#2231 = CARTESIAN_POINT('',(-8.227241335952,-4.75,5.7));
#2232 = DIRECTION('',(0.,1.,0.));
#2233 = DIRECTION('',(0.,-0.,1.));
#2234 = ADVANCED_FACE('',(#2235),#2238,.T.);
#2235 = FACE_BOUND('',#2236,.T.);
#2236 = EDGE_LOOP('',(#2237));
#2237 = ORIENTED_EDGE('',*,*,#2212,.T.);
#2238 = PLANE('',#2239);
#2239 = AXIS2_PLACEMENT_3D('',#2240,#2241,#2242);
#2240 = CARTESIAN_POINT('',(-21.4,-11.88,20.6));
#2241 = DIRECTION('',(1.,0.,0.));
#2242 = DIRECTION('',(-0.,0.,1.));
#2243 = ( GEOMETRIC_REPRESENTATION_CONTEXT(3) 
GLOBAL_UNCERTAINTY_ASSIGNED_CONTEXT((#2247)) 
GLOBAL_UNIT_ASSIGNED_CONTEXT((#2244,#2245,#2246)) REPRESENTATION_CONTEXT
('Context #1','3D Context with UNIT and UNCERTAINTY') );
#2244 = ( LENGTH_UNIT() NAMED_UNIT(*) SI_UNIT(.MILLI.,.METRE.) );
#2245 = ( NAMED_UNIT(*) PLANE_ANGLE_UNIT() SI_UNIT($,.RADIAN.) );
#2246 = ( NAMED_UNIT(*) SI_UNIT($,.STERADIAN.) SOLID_ANGLE_UNIT() );
#2247 = UNCERTAINTY_MEASURE_WITH_UNIT(LENGTH_MEASURE(1.E-07),#2244,
  'distance_accuracy_value','confusion accuracy');
#2248 = PRODUCT_RELATED_PRODUCT_CATEGORY('part',$,(#7));
ENDSEC;
END-ISO-10303-21;
