ISO-10303-21;
HEADER;
FILE_DESCRIPTION(('FreeCAD Model'),'2;1');
FILE_NAME('Open CASCADE Shape Model','2026-09-30T01:44:49',('FreeCAD'),(
    'FreeCAD'),'Open CASCADE STEP processor 7.8','FreeCAD','Unknown');
FILE_SCHEMA(('AUTOMOTIVE_DESIGN { 1 0 10303 214 1 1 1 1 }'));
ENDSEC;
DATA;
#1 = APPLICATION_PROTOCOL_DEFINITION('international standard',
  'automotive_design',2000,#2);
#2 = APPLICATION_CONTEXT(
  'core data for automotive mechanical design processes');
#3 = SHAPE_DEFINITION_REPRESENTATION(#4,#10);
#4 = PRODUCT_DEFINITION_SHAPE('','',#5);
#5 = PRODUCT_DEFINITION('design','',#6,#9);
#6 = PRODUCT_DEFINITION_FORMATION('','',#7);
#7 = PRODUCT('Open CASCADE STEP translator 7.8 45',
  'Open CASCADE STEP translator 7.8 45','',(#8));
#8 = PRODUCT_CONTEXT('',#2,'mechanical');
#9 = PRODUCT_DEFINITION_CONTEXT('part definition',#2,'design');
#10 = ADVANCED_BREP_SHAPE_REPRESENTATION('',(#11,#15),#169);
#11 = AXIS2_PLACEMENT_3D('',#12,#13,#14);
#12 = CARTESIAN_POINT('',(0.,0.,0.));
#13 = DIRECTION('',(0.,0.,1.));
#14 = DIRECTION('',(1.,0.,-0.));
#15 = MANIFOLD_SOLID_BREP('',#16);
#16 = CLOSED_SHELL('',(#17,#43,#87,#113,#149));
#17 = ADVANCED_FACE('',(#18),#38,.T.);
#18 = FACE_BOUND('',#19,.T.);
#19 = EDGE_LOOP('',(#20,#31));
#20 = ORIENTED_EDGE('',*,*,#21,.T.);
#21 = EDGE_CURVE('',#22,#24,#26,.T.);
#22 = VERTEX_POINT('',#23);
#23 = CARTESIAN_POINT('',(-33.,27.,29.175));
#24 = VERTEX_POINT('',#25);
#25 = CARTESIAN_POINT('',(-33.,27.,29.825));
#26 = CIRCLE('',#27,0.325);
#27 = AXIS2_PLACEMENT_3D('',#28,#29,#30);
#28 = CARTESIAN_POINT('',(-33.,27.,29.5));
#29 = DIRECTION('',(-2.449293598295E-16,-1.,0.));
#30 = DIRECTION('',(1.,-2.449293598295E-16,0.));
#31 = ORIENTED_EDGE('',*,*,#32,.F.);
#32 = EDGE_CURVE('',#22,#24,#33,.T.);
#33 = CIRCLE('',#34,0.325);
#34 = AXIS2_PLACEMENT_3D('',#35,#36,#37);
#35 = CARTESIAN_POINT('',(-33.,27.,29.5));
#36 = DIRECTION('',(0.,1.,0.));
#37 = DIRECTION('',(0.,0.,1.));
#38 = SPHERICAL_SURFACE('',#39,0.325);
#39 = AXIS2_PLACEMENT_3D('',#40,#41,#42);
#40 = CARTESIAN_POINT('',(-33.,27.,29.5));
#41 = DIRECTION('',(0.,0.,1.));
#42 = DIRECTION('',(1.,0.,0.));
#43 = ADVANCED_FACE('',(#44),#82,.T.);
#44 = FACE_BOUND('',#45,.T.);
#45 = EDGE_LOOP('',(#46,#47,#48,#56,#65,#74,#81));
#46 = ORIENTED_EDGE('',*,*,#21,.F.);
#47 = ORIENTED_EDGE('',*,*,#32,.T.);
#48 = ORIENTED_EDGE('',*,*,#49,.T.);
#49 = EDGE_CURVE('',#24,#50,#52,.T.);
#50 = VERTEX_POINT('',#51);
#51 = CARTESIAN_POINT('',(-33.,34.,29.825));
#52 = LINE('',#53,#54);
#53 = CARTESIAN_POINT('',(-33.,27.,29.825));
#54 = VECTOR('',#55,1.);
#55 = DIRECTION('',(0.,1.,0.));
#56 = ORIENTED_EDGE('',*,*,#57,.F.);
#57 = EDGE_CURVE('',#58,#50,#60,.T.);
#58 = VERTEX_POINT('',#59);
#59 = CARTESIAN_POINT('',(-33.10594697207,34.,29.192753780971));
#60 = CIRCLE('',#61,0.325);
#61 = AXIS2_PLACEMENT_3D('',#62,#63,#64);
#62 = CARTESIAN_POINT('',(-33.,34.,29.5));
#63 = DIRECTION('',(0.,1.,0.));
#64 = DIRECTION('',(0.,0.,1.));
#65 = ORIENTED_EDGE('',*,*,#66,.F.);
#66 = EDGE_CURVE('',#67,#58,#69,.T.);
#67 = VERTEX_POINT('',#68);
#68 = CARTESIAN_POINT('',(-32.89405302792,34.,29.807246219029));
#69 = ELLIPSE('',#70,0.393497934622,0.325);
#70 = AXIS2_PLACEMENT_3D('',#71,#72,#73);
#71 = CARTESIAN_POINT('',(-33.,34.,29.5));
#72 = DIRECTION('',(0.532981616099,0.825925554887,-0.183786764172));
#73 = DIRECTION('',(-0.780807704425,0.563779192401,0.269244036009));
#74 = ORIENTED_EDGE('',*,*,#75,.F.);
#75 = EDGE_CURVE('',#50,#67,#76,.T.);
#76 = CIRCLE('',#77,0.325);
#77 = AXIS2_PLACEMENT_3D('',#78,#79,#80);
#78 = CARTESIAN_POINT('',(-33.,34.,29.5));
#79 = DIRECTION('',(0.,1.,0.));
#80 = DIRECTION('',(0.,0.,1.));
#81 = ORIENTED_EDGE('',*,*,#49,.F.);
#82 = CYLINDRICAL_SURFACE('',#83,0.325);
#83 = AXIS2_PLACEMENT_3D('',#84,#85,#86);
#84 = CARTESIAN_POINT('',(-33.,27.,29.5));
#85 = DIRECTION('',(0.,1.,0.));
#86 = DIRECTION('',(0.,0.,1.));
#87 = ADVANCED_FACE('',(#88),#108,.T.);
#88 = FACE_BOUND('',#89,.T.);
#89 = EDGE_LOOP('',(#90,#91,#100,#107));
#90 = ORIENTED_EDGE('',*,*,#75,.T.);
#91 = ORIENTED_EDGE('',*,*,#92,.F.);
#92 = EDGE_CURVE('',#93,#67,#95,.T.);
#93 = VERTEX_POINT('',#94);
#94 = CARTESIAN_POINT('',(-33.12426433263,34.300305470537,29.5));
#95 = CIRCLE('',#96,0.325);
#96 = AXIS2_PLACEMENT_3D('',#97,#98,#99);
#97 = CARTESIAN_POINT('',(-33.,34.,29.5));
#98 = DIRECTION('',(0.880406274042,0.364306044431,-0.303588370359));
#99 = DIRECTION('',(-0.382351792726,0.924016832422,-2.775557561563E-17)
  );
#100 = ORIENTED_EDGE('',*,*,#101,.F.);
#101 = EDGE_CURVE('',#58,#93,#102,.T.);
#102 = CIRCLE('',#103,0.325);
#103 = AXIS2_PLACEMENT_3D('',#104,#105,#106);
#104 = CARTESIAN_POINT('',(-33.,34.,29.5));
#105 = DIRECTION('',(0.880406274042,0.364306044431,-0.303588370359));
#106 = DIRECTION('',(-0.382351792726,0.924016832422,-2.775557561563E-17)
  );
#107 = ORIENTED_EDGE('',*,*,#57,.T.);
#108 = SPHERICAL_SURFACE('',#109,0.325);
#109 = AXIS2_PLACEMENT_3D('',#110,#111,#112);
#110 = CARTESIAN_POINT('',(-33.,34.,29.5));
#111 = DIRECTION('',(0.,0.,1.));
#112 = DIRECTION('',(1.,0.,0.));
#113 = ADVANCED_FACE('',(#114),#144,.T.);
#114 = FACE_BOUND('',#115,.T.);
#115 = EDGE_LOOP('',(#116,#117,#125,#134,#141,#142,#143));
#116 = ORIENTED_EDGE('',*,*,#101,.T.);
#117 = ORIENTED_EDGE('',*,*,#118,.T.);
#118 = EDGE_CURVE('',#93,#119,#121,.T.);
#119 = VERTEX_POINT('',#120);
#120 = CARTESIAN_POINT('',(-25.87426433263,37.300305470537,27.));
#121 = LINE('',#122,#123);
#122 = CARTESIAN_POINT('',(-33.12426433263,34.300305470537,29.5));
#123 = VECTOR('',#124,1.);
#124 = DIRECTION('',(0.880406274042,0.364306044431,-0.303588370359));
#125 = ORIENTED_EDGE('',*,*,#126,.F.);
#126 = EDGE_CURVE('',#127,#119,#129,.T.);
#127 = VERTEX_POINT('',#128);
#128 = CARTESIAN_POINT('',(-25.64405302792,37.,27.307246219029));
#129 = CIRCLE('',#130,0.325);
#130 = AXIS2_PLACEMENT_3D('',#131,#132,#133);
#131 = CARTESIAN_POINT('',(-25.75,37.,27.));
#132 = DIRECTION('',(0.880406274042,0.364306044431,-0.303588370359));
#133 = DIRECTION('',(-0.382351792726,0.924016832422,-2.775557561563E-17)
  );
#134 = ORIENTED_EDGE('',*,*,#135,.F.);
#135 = EDGE_CURVE('',#119,#127,#136,.T.);
#136 = CIRCLE('',#137,0.325);
#137 = AXIS2_PLACEMENT_3D('',#138,#139,#140);
#138 = CARTESIAN_POINT('',(-25.75,37.,27.));
#139 = DIRECTION('',(0.880406274042,0.364306044431,-0.303588370359));
#140 = DIRECTION('',(-0.382351792726,0.924016832422,-2.775557561563E-17)
  );
#141 = ORIENTED_EDGE('',*,*,#118,.F.);
#142 = ORIENTED_EDGE('',*,*,#92,.T.);
#143 = ORIENTED_EDGE('',*,*,#66,.T.);
#144 = CYLINDRICAL_SURFACE('',#145,0.325);
#145 = AXIS2_PLACEMENT_3D('',#146,#147,#148);
#146 = CARTESIAN_POINT('',(-33.,34.,29.5));
#147 = DIRECTION('',(0.880406274042,0.364306044431,-0.303588370359));
#148 = DIRECTION('',(-0.382351792726,0.924016832422,-1.387778780781E-17)
  );
#149 = ADVANCED_FACE('',(#150),#164,.T.);
#150 = FACE_BOUND('',#151,.T.);
#151 = EDGE_LOOP('',(#152,#153,#162,#163));
#152 = ORIENTED_EDGE('',*,*,#135,.T.);
#153 = ORIENTED_EDGE('',*,*,#154,.F.);
#154 = EDGE_CURVE('',#155,#127,#157,.T.);
#155 = VERTEX_POINT('',#156);
#156 = CARTESIAN_POINT('',(-25.75,37.,26.675));
#157 = CIRCLE('',#158,0.325);
#158 = AXIS2_PLACEMENT_3D('',#159,#160,#161);
#159 = CARTESIAN_POINT('',(-25.75,37.,27.));
#160 = DIRECTION('',(-2.449293598295E-16,-1.,0.));
#161 = DIRECTION('',(1.,-2.449293598295E-16,0.));
#162 = ORIENTED_EDGE('',*,*,#154,.T.);
#163 = ORIENTED_EDGE('',*,*,#126,.T.);
#164 = SPHERICAL_SURFACE('',#165,0.325);
#165 = AXIS2_PLACEMENT_3D('',#166,#167,#168);
#166 = CARTESIAN_POINT('',(-25.75,37.,27.));
#167 = DIRECTION('',(0.,0.,1.));
#168 = DIRECTION('',(1.,0.,0.));
#169 = ( GEOMETRIC_REPRESENTATION_CONTEXT(3) 
GLOBAL_UNCERTAINTY_ASSIGNED_CONTEXT((#173)) GLOBAL_UNIT_ASSIGNED_CONTEXT
((#170,#171,#172)) REPRESENTATION_CONTEXT('Context #1',
  '3D Context with UNIT and UNCERTAINTY') );
#170 = ( LENGTH_UNIT() NAMED_UNIT(*) SI_UNIT(.MILLI.,.METRE.) );
#171 = ( NAMED_UNIT(*) PLANE_ANGLE_UNIT() SI_UNIT($,.RADIAN.) );
#172 = ( NAMED_UNIT(*) SI_UNIT($,.STERADIAN.) SOLID_ANGLE_UNIT() );
#173 = UNCERTAINTY_MEASURE_WITH_UNIT(LENGTH_MEASURE(1.E-07),#170,
  'distance_accuracy_value','confusion accuracy');
#174 = PRODUCT_RELATED_PRODUCT_CATEGORY('part',$,(#7));
ENDSEC;
END-ISO-10303-21;
