ISO-10303-21;
HEADER;
FILE_DESCRIPTION(('FreeCAD Model'),'2;1');
FILE_NAME('Open CASCADE Shape Model','2026-09-30T01:44:44',('FreeCAD'),(
    'FreeCAD'),'Open CASCADE STEP processor 7.8','FreeCAD','Unknown');
FILE_SCHEMA(('AUTOMOTIVE_DESIGN { 1 0 10303 214 1 1 1 1 }'));
ENDSEC;
DATA;
#1 = APPLICATION_PROTOCOL_DEFINITION('international standard',
  'automotive_design',2000,#2);
#2 = APPLICATION_CONTEXT(
  'core data for automotive mechanical design processes');
#3 = SHAPE_DEFINITION_REPRESENTATION(#4,#10);
#4 = PRODUCT_DEFINITION_SHAPE('','',#5);
#5 = PRODUCT_DEFINITION('design','',#6,#9);
#6 = PRODUCT_DEFINITION_FORMATION('','',#7);
#7 = PRODUCT('Open CASCADE STEP translator 7.8 35',
  'Open CASCADE STEP translator 7.8 35','',(#8));
#8 = PRODUCT_CONTEXT('',#2,'mechanical');
#9 = PRODUCT_DEFINITION_CONTEXT('part definition',#2,'design');
#10 = ADVANCED_BREP_SHAPE_REPRESENTATION('',(#11,#15),#718);
#11 = AXIS2_PLACEMENT_3D('',#12,#13,#14);
#12 = CARTESIAN_POINT('',(0.,0.,0.));
#13 = DIRECTION('',(0.,0.,1.));
#14 = DIRECTION('',(1.,0.,-0.));
#15 = MANIFOLD_SOLID_BREP('',#16);
#16 = CLOSED_SHELL('',(#17,#44,#78,#128,#139,#164,#209,#251,#261,#277,
    #330,#399,#411,#437,#474,#515,#525,#541,#576,#635,#645,#687,#698));
#17 = ADVANCED_FACE('',(#18),#39,.T.);
#18 = FACE_BOUND('',#19,.T.);
#19 = EDGE_LOOP('',(#20,#29,#38));
#20 = ORIENTED_EDGE('',*,*,#21,.F.);
#21 = EDGE_CURVE('',#22,#22,#24,.T.);
#22 = VERTEX_POINT('',#23);
#23 = CARTESIAN_POINT('',(33.623587576021,-12.,39.816591889405));
#24 = CIRCLE('',#25,0.65);
#25 = AXIS2_PLACEMENT_3D('',#26,#27,#28);
#26 = CARTESIAN_POINT('',(33.,-12.,40.));
#27 = DIRECTION('',(0.277302699992,-0.184868466662,0.942829179974));
#28 = DIRECTION('',(0.959365501571,1.387778780781E-17,-0.282166323992));
#29 = ORIENTED_EDGE('',*,*,#30,.F.);
#30 = EDGE_CURVE('',#31,#22,#33,.T.);
#31 = VERTEX_POINT('',#32);
#32 = CARTESIAN_POINT('',(33.,-12.,39.35));
#33 = CIRCLE('',#34,0.65);
#34 = AXIS2_PLACEMENT_3D('',#35,#36,#37);
#35 = CARTESIAN_POINT('',(33.,-12.,40.));
#36 = DIRECTION('',(-2.449293598295E-16,-1.,0.));
#37 = DIRECTION('',(1.,-2.449293598295E-16,0.));
#38 = ORIENTED_EDGE('',*,*,#30,.T.);
#39 = SPHERICAL_SURFACE('',#40,0.65);
#40 = AXIS2_PLACEMENT_3D('',#41,#42,#43);
#41 = CARTESIAN_POINT('',(33.,-12.,40.));
#42 = DIRECTION('',(0.,0.,1.));
#43 = DIRECTION('',(1.,0.,0.));
#44 = ADVANCED_FACE('',(#45),#73,.T.);
#45 = FACE_BOUND('',#46,.T.);
#46 = EDGE_LOOP('',(#47,#55,#64,#71,#72));
#47 = ORIENTED_EDGE('',*,*,#48,.T.);
#48 = EDGE_CURVE('',#22,#49,#51,.T.);
#49 = VERTEX_POINT('',#50);
#50 = CARTESIAN_POINT('',(36.623587576021,-14.,50.016591889405));
#51 = LINE('',#52,#53);
#52 = CARTESIAN_POINT('',(33.623587576021,-12.,39.816591889405));
#53 = VECTOR('',#54,1.);
#54 = DIRECTION('',(0.277302699992,-0.184868466662,0.942829179974));
#55 = ORIENTED_EDGE('',*,*,#56,.F.);
#56 = EDGE_CURVE('',#57,#49,#59,.T.);
#57 = VERTEX_POINT('',#58);
#58 = CARTESIAN_POINT('',(35.376412423979,-14.,50.383408110595));
#59 = CIRCLE('',#60,0.65);
#60 = AXIS2_PLACEMENT_3D('',#61,#62,#63);
#61 = CARTESIAN_POINT('',(36.,-14.,50.2));
#62 = DIRECTION('',(0.277302699992,-0.184868466662,0.942829179974));
#63 = DIRECTION('',(0.959365501571,1.387778780781E-17,-0.282166323992));
#64 = ORIENTED_EDGE('',*,*,#65,.F.);
#65 = EDGE_CURVE('',#49,#57,#66,.T.);
#66 = ELLIPSE('',#67,1.018156427861,0.65);
#67 = AXIS2_PLACEMENT_3D('',#68,#69,#70);
#68 = CARTESIAN_POINT('',(36.,-14.,50.2));
#69 = DIRECTION('',(0.217182712662,0.638408777093,0.738421223051));
#70 = DIRECTION('',(0.180137457836,-0.769697494689,0.612467356643));
#71 = ORIENTED_EDGE('',*,*,#48,.F.);
#72 = ORIENTED_EDGE('',*,*,#21,.T.);
#73 = CYLINDRICAL_SURFACE('',#74,0.65);
#74 = AXIS2_PLACEMENT_3D('',#75,#76,#77);
#75 = CARTESIAN_POINT('',(33.,-12.,40.));
#76 = DIRECTION('',(0.277302699992,-0.184868466662,0.942829179974));
#77 = DIRECTION('',(0.959365501571,6.938893903907E-18,-0.282166323992));
#78 = ADVANCED_FACE('',(#79),#123,.T.);
#79 = FACE_BOUND('',#80,.T.);
#80 = EDGE_LOOP('',(#81,#82,#91,#99,#108,#115,#116));
#81 = ORIENTED_EDGE('',*,*,#65,.T.);
#82 = ORIENTED_EDGE('',*,*,#83,.T.);
#83 = EDGE_CURVE('',#57,#84,#86,.T.);
#84 = VERTEX_POINT('',#85);
#85 = CARTESIAN_POINT('',(36.,-14.,50.85));
#86 = CIRCLE('',#87,0.65);
#87 = AXIS2_PLACEMENT_3D('',#88,#89,#90);
#88 = CARTESIAN_POINT('',(36.,-14.,50.2));
#89 = DIRECTION('',(0.,1.,0.));
#90 = DIRECTION('',(0.,0.,1.));
#91 = ORIENTED_EDGE('',*,*,#92,.T.);
#92 = EDGE_CURVE('',#84,#93,#95,.T.);
#93 = VERTEX_POINT('',#94);
#94 = CARTESIAN_POINT('',(36.,17.,50.85));
#95 = LINE('',#96,#97);
#96 = CARTESIAN_POINT('',(36.,-14.,50.85));
#97 = VECTOR('',#98,1.);
#98 = DIRECTION('',(0.,1.,0.));
#99 = ORIENTED_EDGE('',*,*,#100,.F.);
#100 = EDGE_CURVE('',#101,#93,#103,.T.);
#101 = VERTEX_POINT('',#102);
#102 = CARTESIAN_POINT('',(36.,17.,49.55));
#103 = ELLIPSE('',#104,0.691289639533,0.65);
#104 = AXIS2_PLACEMENT_3D('',#105,#106,#107);
#105 = CARTESIAN_POINT('',(36.,17.,50.2));
#106 = DIRECTION('',(-0.340425263753,0.940271577683,0.));
#107 = DIRECTION('',(0.940271577683,0.340425263753,0.));
#108 = ORIENTED_EDGE('',*,*,#109,.F.);
#109 = EDGE_CURVE('',#93,#101,#110,.T.);
#110 = CIRCLE('',#111,0.65);
#111 = AXIS2_PLACEMENT_3D('',#112,#113,#114);
#112 = CARTESIAN_POINT('',(36.,17.,50.2));
#113 = DIRECTION('',(0.,1.,0.));
#114 = DIRECTION('',(0.,0.,1.));
#115 = ORIENTED_EDGE('',*,*,#92,.F.);
#116 = ORIENTED_EDGE('',*,*,#117,.F.);
#117 = EDGE_CURVE('',#49,#84,#118,.T.);
#118 = CIRCLE('',#119,0.65);
#119 = AXIS2_PLACEMENT_3D('',#120,#121,#122);
#120 = CARTESIAN_POINT('',(36.,-14.,50.2));
#121 = DIRECTION('',(-2.449293598295E-16,-1.,0.));
#122 = DIRECTION('',(1.,-2.449293598295E-16,0.));
#123 = CYLINDRICAL_SURFACE('',#124,0.65);
#124 = AXIS2_PLACEMENT_3D('',#125,#126,#127);
#125 = CARTESIAN_POINT('',(36.,-14.,50.2));
#126 = DIRECTION('',(0.,1.,0.));
#127 = DIRECTION('',(0.,0.,1.));
#128 = ADVANCED_FACE('',(#129),#134,.T.);
#129 = FACE_BOUND('',#130,.T.);
#130 = EDGE_LOOP('',(#131,#132,#133));
#131 = ORIENTED_EDGE('',*,*,#56,.T.);
#132 = ORIENTED_EDGE('',*,*,#117,.T.);
#133 = ORIENTED_EDGE('',*,*,#83,.F.);
#134 = SPHERICAL_SURFACE('',#135,0.65);
#135 = AXIS2_PLACEMENT_3D('',#136,#137,#138);
#136 = CARTESIAN_POINT('',(36.,-14.,50.2));
#137 = DIRECTION('',(0.,0.,1.));
#138 = DIRECTION('',(1.,0.,0.));
#139 = ADVANCED_FACE('',(#140),#159,.T.);
#140 = FACE_BOUND('',#141,.T.);
#141 = EDGE_LOOP('',(#142,#143,#152));
#142 = ORIENTED_EDGE('',*,*,#109,.T.);
#143 = ORIENTED_EDGE('',*,*,#144,.F.);
#144 = EDGE_CURVE('',#145,#101,#147,.T.);
#145 = VERTEX_POINT('',#146);
#146 = CARTESIAN_POINT('',(36.499343831738,17.416119859782,50.2));
#147 = CIRCLE('',#148,0.65);
#148 = AXIS2_PLACEMENT_3D('',#149,#150,#151);
#149 = CARTESIAN_POINT('',(36.,17.,50.2));
#150 = DIRECTION('',(-0.640184399664,0.768221279597,0.));
#151 = DIRECTION('',(0.768221279597,0.640184399664,0.));
#152 = ORIENTED_EDGE('',*,*,#153,.F.);
#153 = EDGE_CURVE('',#93,#145,#154,.T.);
#154 = CIRCLE('',#155,0.65);
#155 = AXIS2_PLACEMENT_3D('',#156,#157,#158);
#156 = CARTESIAN_POINT('',(36.,17.,50.2));
#157 = DIRECTION('',(-0.640184399664,0.768221279597,0.));
#158 = DIRECTION('',(0.768221279597,0.640184399664,0.));
#159 = SPHERICAL_SURFACE('',#160,0.65);
#160 = AXIS2_PLACEMENT_3D('',#161,#162,#163);
#161 = CARTESIAN_POINT('',(36.,17.,50.2));
#162 = DIRECTION('',(0.,0.,1.));
#163 = DIRECTION('',(1.,0.,0.));
#164 = ADVANCED_FACE('',(#165),#204,.T.);
#165 = FACE_BOUND('',#166,.T.);
#166 = EDGE_LOOP('',(#167,#168,#169,#177,#186,#195,#202,#203));
#167 = ORIENTED_EDGE('',*,*,#100,.T.);
#168 = ORIENTED_EDGE('',*,*,#153,.T.);
#169 = ORIENTED_EDGE('',*,*,#170,.T.);
#170 = EDGE_CURVE('',#145,#171,#173,.T.);
#171 = VERTEX_POINT('',#172);
#172 = CARTESIAN_POINT('',(31.65,23.235332457868,50.2));
#173 = LINE('',#174,#175);
#174 = CARTESIAN_POINT('',(36.499343831738,17.416119859782,50.2));
#175 = VECTOR('',#176,1.);
#176 = DIRECTION('',(-0.640184399664,0.768221279597,0.));
#177 = ORIENTED_EDGE('',*,*,#178,.F.);
#178 = EDGE_CURVE('',#179,#171,#181,.T.);
#179 = VERTEX_POINT('',#180);
#180 = CARTESIAN_POINT('',(31.,23.,50.85));
#181 = ELLIPSE('',#182,0.691289639533,0.65);
#182 = AXIS2_PLACEMENT_3D('',#183,#184,#185);
#183 = CARTESIAN_POINT('',(31.,23.,50.2));
#184 = DIRECTION('',(-0.340425263753,0.940271577683,0.));
#185 = DIRECTION('',(-0.940271577683,-0.340425263753,0.));
#186 = ORIENTED_EDGE('',*,*,#187,.F.);
#187 = EDGE_CURVE('',#188,#179,#190,.T.);
#188 = VERTEX_POINT('',#189);
#189 = CARTESIAN_POINT('',(31.,23.,49.55));
#190 = CIRCLE('',#191,0.65);
#191 = AXIS2_PLACEMENT_3D('',#192,#193,#194);
#192 = CARTESIAN_POINT('',(31.,23.,50.2));
#193 = DIRECTION('',(-0.640184399664,0.768221279597,0.));
#194 = DIRECTION('',(0.768221279597,0.640184399664,0.));
#195 = ORIENTED_EDGE('',*,*,#196,.F.);
#196 = EDGE_CURVE('',#171,#188,#197,.T.);
#197 = ELLIPSE('',#198,0.691289639533,0.65);
#198 = AXIS2_PLACEMENT_3D('',#199,#200,#201);
#199 = CARTESIAN_POINT('',(31.,23.,50.2));
#200 = DIRECTION('',(-0.340425263753,0.940271577683,0.));
#201 = DIRECTION('',(-0.940271577683,-0.340425263753,0.));
#202 = ORIENTED_EDGE('',*,*,#170,.F.);
#203 = ORIENTED_EDGE('',*,*,#144,.T.);
#204 = CYLINDRICAL_SURFACE('',#205,0.65);
#205 = AXIS2_PLACEMENT_3D('',#206,#207,#208);
#206 = CARTESIAN_POINT('',(36.,17.,50.2));
#207 = DIRECTION('',(-0.640184399664,0.768221279597,0.));
#208 = DIRECTION('',(0.768221279597,0.640184399664,0.));
#209 = ADVANCED_FACE('',(#210),#246,.T.);
#210 = FACE_BOUND('',#211,.T.);
#211 = EDGE_LOOP('',(#212,#213,#220,#228,#237,#244,#245));
#212 = ORIENTED_EDGE('',*,*,#196,.T.);
#213 = ORIENTED_EDGE('',*,*,#214,.T.);
#214 = EDGE_CURVE('',#188,#179,#215,.T.);
#215 = CIRCLE('',#216,0.65);
#216 = AXIS2_PLACEMENT_3D('',#217,#218,#219);
#217 = CARTESIAN_POINT('',(31.,23.,50.2));
#218 = DIRECTION('',(0.,1.,0.));
#219 = DIRECTION('',(0.,0.,1.));
#220 = ORIENTED_EDGE('',*,*,#221,.T.);
#221 = EDGE_CURVE('',#179,#222,#224,.T.);
#222 = VERTEX_POINT('',#223);
#223 = CARTESIAN_POINT('',(31.,27.,50.85));
#224 = LINE('',#225,#226);
#225 = CARTESIAN_POINT('',(31.,23.,50.85));
#226 = VECTOR('',#227,1.);
#227 = DIRECTION('',(0.,1.,0.));
#228 = ORIENTED_EDGE('',*,*,#229,.F.);
#229 = EDGE_CURVE('',#230,#222,#232,.T.);
#230 = VERTEX_POINT('',#231);
#231 = CARTESIAN_POINT('',(31.,27.,49.55));
#232 = ELLIPSE('',#233,0.919238815543,0.65);
#233 = AXIS2_PLACEMENT_3D('',#234,#235,#236);
#234 = CARTESIAN_POINT('',(31.,27.,50.2));
#235 = DIRECTION('',(-0.707106781187,0.707106781187,0.));
#236 = DIRECTION('',(0.707106781187,0.707106781187,0.));
#237 = ORIENTED_EDGE('',*,*,#238,.F.);
#238 = EDGE_CURVE('',#222,#230,#239,.T.);
#239 = CIRCLE('',#240,0.65);
#240 = AXIS2_PLACEMENT_3D('',#241,#242,#243);
#241 = CARTESIAN_POINT('',(31.,27.,50.2));
#242 = DIRECTION('',(0.,1.,0.));
#243 = DIRECTION('',(0.,0.,1.));
#244 = ORIENTED_EDGE('',*,*,#221,.F.);
#245 = ORIENTED_EDGE('',*,*,#178,.T.);
#246 = CYLINDRICAL_SURFACE('',#247,0.65);
#247 = AXIS2_PLACEMENT_3D('',#248,#249,#250);
#248 = CARTESIAN_POINT('',(31.,23.,50.2));
#249 = DIRECTION('',(0.,1.,0.));
#250 = DIRECTION('',(0.,0.,1.));
#251 = ADVANCED_FACE('',(#252),#256,.T.);
#252 = FACE_BOUND('',#253,.T.);
#253 = EDGE_LOOP('',(#254,#255));
#254 = ORIENTED_EDGE('',*,*,#187,.T.);
#255 = ORIENTED_EDGE('',*,*,#214,.F.);
#256 = SPHERICAL_SURFACE('',#257,0.65);
#257 = AXIS2_PLACEMENT_3D('',#258,#259,#260);
#258 = CARTESIAN_POINT('',(31.,23.,50.2));
#259 = DIRECTION('',(0.,0.,1.));
#260 = DIRECTION('',(1.,0.,0.));
#261 = ADVANCED_FACE('',(#262),#272,.T.);
#262 = FACE_BOUND('',#263,.T.);
#263 = EDGE_LOOP('',(#264,#265));
#264 = ORIENTED_EDGE('',*,*,#238,.T.);
#265 = ORIENTED_EDGE('',*,*,#266,.F.);
#266 = EDGE_CURVE('',#222,#230,#267,.T.);
#267 = CIRCLE('',#268,0.65);
#268 = AXIS2_PLACEMENT_3D('',#269,#270,#271);
#269 = CARTESIAN_POINT('',(31.,27.,50.2));
#270 = DIRECTION('',(-1.,0.,0.));
#271 = DIRECTION('',(0.,0.,-1.));
#272 = SPHERICAL_SURFACE('',#273,0.65);
#273 = AXIS2_PLACEMENT_3D('',#274,#275,#276);
#274 = CARTESIAN_POINT('',(31.,27.,50.2));
#275 = DIRECTION('',(0.,0.,1.));
#276 = DIRECTION('',(1.,0.,0.));
#277 = ADVANCED_FACE('',(#278),#325,.T.);
#278 = FACE_BOUND('',#279,.T.);
#279 = EDGE_LOOP('',(#280,#281,#282,#290,#299,#308,#317,#324));
#280 = ORIENTED_EDGE('',*,*,#229,.T.);
#281 = ORIENTED_EDGE('',*,*,#266,.T.);
#282 = ORIENTED_EDGE('',*,*,#283,.T.);
#283 = EDGE_CURVE('',#230,#284,#286,.T.);
#284 = VERTEX_POINT('',#285);
#285 = CARTESIAN_POINT('',(-32.35,27.,49.55));
#286 = LINE('',#287,#288);
#287 = CARTESIAN_POINT('',(31.,27.,49.55));
#288 = VECTOR('',#289,1.);
#289 = DIRECTION('',(-1.,0.,0.));
#290 = ORIENTED_EDGE('',*,*,#291,.F.);
#291 = EDGE_CURVE('',#292,#284,#294,.T.);
#292 = VERTEX_POINT('',#293);
#293 = CARTESIAN_POINT('',(-33.,27.65,50.2));
#294 = ELLIPSE('',#295,0.919238815543,0.65);
#295 = AXIS2_PLACEMENT_3D('',#296,#297,#298);
#296 = CARTESIAN_POINT('',(-33.,27.,50.2));
#297 = DIRECTION('',(-0.707106781187,0.,-0.707106781187));
#298 = DIRECTION('',(-0.707106781187,0.,0.707106781187));
#299 = ORIENTED_EDGE('',*,*,#300,.F.);
#300 = EDGE_CURVE('',#301,#292,#303,.T.);
#301 = VERTEX_POINT('',#302);
#302 = CARTESIAN_POINT('',(-33.,27.,50.85));
#303 = CIRCLE('',#304,0.65);
#304 = AXIS2_PLACEMENT_3D('',#305,#306,#307);
#305 = CARTESIAN_POINT('',(-33.,27.,50.2));
#306 = DIRECTION('',(-1.,0.,0.));
#307 = DIRECTION('',(0.,0.,-1.));
#308 = ORIENTED_EDGE('',*,*,#309,.F.);
#309 = EDGE_CURVE('',#310,#301,#312,.T.);
#310 = VERTEX_POINT('',#311);
#311 = CARTESIAN_POINT('',(-33.,26.35,50.2));
#312 = CIRCLE('',#313,0.65);
#313 = AXIS2_PLACEMENT_3D('',#314,#315,#316);
#314 = CARTESIAN_POINT('',(-33.,27.,50.2));
#315 = DIRECTION('',(-1.,0.,0.));
#316 = DIRECTION('',(0.,0.,-1.));
#317 = ORIENTED_EDGE('',*,*,#318,.F.);
#318 = EDGE_CURVE('',#284,#310,#319,.T.);
#319 = ELLIPSE('',#320,0.919238815543,0.65);
#320 = AXIS2_PLACEMENT_3D('',#321,#322,#323);
#321 = CARTESIAN_POINT('',(-33.,27.,50.2));
#322 = DIRECTION('',(-0.707106781187,0.,-0.707106781187));
#323 = DIRECTION('',(-0.707106781187,0.,0.707106781187));
#324 = ORIENTED_EDGE('',*,*,#283,.F.);
#325 = CYLINDRICAL_SURFACE('',#326,0.65);
#326 = AXIS2_PLACEMENT_3D('',#327,#328,#329);
#327 = CARTESIAN_POINT('',(31.,27.,50.2));
#328 = DIRECTION('',(-1.,0.,0.));
#329 = DIRECTION('',(0.,0.,-1.));
#330 = ADVANCED_FACE('',(#331),#394,.T.);
#331 = FACE_BOUND('',#332,.T.);
#332 = EDGE_LOOP('',(#333,#334,#343,#351,#360,#369,#378,#385,#386,#393)
  );
#333 = ORIENTED_EDGE('',*,*,#318,.T.);
#334 = ORIENTED_EDGE('',*,*,#335,.T.);
#335 = EDGE_CURVE('',#310,#336,#338,.T.);
#336 = VERTEX_POINT('',#337);
#337 = CARTESIAN_POINT('',(-33.65,27.,50.2));
#338 = CIRCLE('',#339,0.65);
#339 = AXIS2_PLACEMENT_3D('',#340,#341,#342);
#340 = CARTESIAN_POINT('',(-33.,27.,50.2));
#341 = DIRECTION('',(0.,0.,-1.));
#342 = DIRECTION('',(-1.,0.,0.));
#343 = ORIENTED_EDGE('',*,*,#344,.T.);
#344 = EDGE_CURVE('',#336,#345,#347,.T.);
#345 = VERTEX_POINT('',#346);
#346 = CARTESIAN_POINT('',(-33.65,27.,29.5));
#347 = LINE('',#348,#349);
#348 = CARTESIAN_POINT('',(-33.65,27.,50.2));
#349 = VECTOR('',#350,1.);
#350 = DIRECTION('',(0.,0.,-1.));
#351 = ORIENTED_EDGE('',*,*,#352,.F.);
#352 = EDGE_CURVE('',#353,#345,#355,.T.);
#353 = VERTEX_POINT('',#354);
#354 = CARTESIAN_POINT('',(-33.,26.35,29.5));
#355 = CIRCLE('',#356,0.65);
#356 = AXIS2_PLACEMENT_3D('',#357,#358,#359);
#357 = CARTESIAN_POINT('',(-33.,27.,29.5));
#358 = DIRECTION('',(0.,0.,-1.));
#359 = DIRECTION('',(-1.,0.,0.));
#360 = ORIENTED_EDGE('',*,*,#361,.F.);
#361 = EDGE_CURVE('',#362,#353,#364,.T.);
#362 = VERTEX_POINT('',#363);
#363 = CARTESIAN_POINT('',(-32.35,27.,30.15));
#364 = ELLIPSE('',#365,0.919238815543,0.65);
#365 = AXIS2_PLACEMENT_3D('',#366,#367,#368);
#366 = CARTESIAN_POINT('',(-33.,27.,29.5));
#367 = DIRECTION('',(0.707106781187,0.,-0.707106781187));
#368 = DIRECTION('',(-0.707106781187,0.,-0.707106781187));
#369 = ORIENTED_EDGE('',*,*,#370,.F.);
#370 = EDGE_CURVE('',#371,#362,#373,.T.);
#371 = VERTEX_POINT('',#372);
#372 = CARTESIAN_POINT('',(-33.,27.65,29.5));
#373 = ELLIPSE('',#374,0.919238815543,0.65);
#374 = AXIS2_PLACEMENT_3D('',#375,#376,#377);
#375 = CARTESIAN_POINT('',(-33.,27.,29.5));
#376 = DIRECTION('',(0.707106781187,0.,-0.707106781187));
#377 = DIRECTION('',(-0.707106781187,0.,-0.707106781187));
#378 = ORIENTED_EDGE('',*,*,#379,.F.);
#379 = EDGE_CURVE('',#345,#371,#380,.T.);
#380 = CIRCLE('',#381,0.65);
#381 = AXIS2_PLACEMENT_3D('',#382,#383,#384);
#382 = CARTESIAN_POINT('',(-33.,27.,29.5));
#383 = DIRECTION('',(0.,0.,-1.));
#384 = DIRECTION('',(-1.,0.,0.));
#385 = ORIENTED_EDGE('',*,*,#344,.F.);
#386 = ORIENTED_EDGE('',*,*,#387,.T.);
#387 = EDGE_CURVE('',#336,#292,#388,.T.);
#388 = CIRCLE('',#389,0.65);
#389 = AXIS2_PLACEMENT_3D('',#390,#391,#392);
#390 = CARTESIAN_POINT('',(-33.,27.,50.2));
#391 = DIRECTION('',(0.,0.,-1.));
#392 = DIRECTION('',(-1.,0.,0.));
#393 = ORIENTED_EDGE('',*,*,#291,.T.);
#394 = CYLINDRICAL_SURFACE('',#395,0.65);
#395 = AXIS2_PLACEMENT_3D('',#396,#397,#398);
#396 = CARTESIAN_POINT('',(-33.,27.,50.2));
#397 = DIRECTION('',(0.,0.,-1.));
#398 = DIRECTION('',(-1.,0.,0.));
#399 = ADVANCED_FACE('',(#400),#406,.T.);
#400 = FACE_BOUND('',#401,.T.);
#401 = EDGE_LOOP('',(#402,#403,#404,#405));
#402 = ORIENTED_EDGE('',*,*,#335,.F.);
#403 = ORIENTED_EDGE('',*,*,#309,.T.);
#404 = ORIENTED_EDGE('',*,*,#300,.T.);
#405 = ORIENTED_EDGE('',*,*,#387,.F.);
#406 = SPHERICAL_SURFACE('',#407,0.65);
#407 = AXIS2_PLACEMENT_3D('',#408,#409,#410);
#408 = CARTESIAN_POINT('',(-33.,27.,50.2));
#409 = DIRECTION('',(0.,0.,1.));
#410 = DIRECTION('',(1.,0.,0.));
#411 = ADVANCED_FACE('',(#412),#432,.T.);
#412 = FACE_BOUND('',#413,.T.);
#413 = EDGE_LOOP('',(#414,#415,#416,#425));
#414 = ORIENTED_EDGE('',*,*,#352,.T.);
#415 = ORIENTED_EDGE('',*,*,#379,.T.);
#416 = ORIENTED_EDGE('',*,*,#417,.F.);
#417 = EDGE_CURVE('',#418,#371,#420,.T.);
#418 = VERTEX_POINT('',#419);
#419 = CARTESIAN_POINT('',(-33.,27.,28.85));
#420 = CIRCLE('',#421,0.65);
#421 = AXIS2_PLACEMENT_3D('',#422,#423,#424);
#422 = CARTESIAN_POINT('',(-33.,27.,29.5));
#423 = DIRECTION('',(1.,0.,-0.));
#424 = DIRECTION('',(0.,0.,1.));
#425 = ORIENTED_EDGE('',*,*,#426,.F.);
#426 = EDGE_CURVE('',#353,#418,#427,.T.);
#427 = CIRCLE('',#428,0.65);
#428 = AXIS2_PLACEMENT_3D('',#429,#430,#431);
#429 = CARTESIAN_POINT('',(-33.,27.,29.5));
#430 = DIRECTION('',(1.,0.,-0.));
#431 = DIRECTION('',(0.,0.,1.));
#432 = SPHERICAL_SURFACE('',#433,0.65);
#433 = AXIS2_PLACEMENT_3D('',#434,#435,#436);
#434 = CARTESIAN_POINT('',(-33.,27.,29.5));
#435 = DIRECTION('',(0.,0.,1.));
#436 = DIRECTION('',(1.,0.,0.));
#437 = ADVANCED_FACE('',(#438),#469,.T.);
#438 = FACE_BOUND('',#439,.T.);
#439 = EDGE_LOOP('',(#440,#441,#442,#450,#459,#466,#467,#468));
#440 = ORIENTED_EDGE('',*,*,#417,.T.);
#441 = ORIENTED_EDGE('',*,*,#370,.T.);
#442 = ORIENTED_EDGE('',*,*,#443,.T.);
#443 = EDGE_CURVE('',#362,#444,#446,.T.);
#444 = VERTEX_POINT('',#445);
#445 = CARTESIAN_POINT('',(-23.,27.,30.15));
#446 = LINE('',#447,#448);
#447 = CARTESIAN_POINT('',(-33.,27.,30.15));
#448 = VECTOR('',#449,1.);
#449 = DIRECTION('',(1.,0.,0.));
#450 = ORIENTED_EDGE('',*,*,#451,.F.);
#451 = EDGE_CURVE('',#452,#444,#454,.T.);
#452 = VERTEX_POINT('',#453);
#453 = CARTESIAN_POINT('',(-23.,27.,28.85));
#454 = CIRCLE('',#455,0.65);
#455 = AXIS2_PLACEMENT_3D('',#456,#457,#458);
#456 = CARTESIAN_POINT('',(-23.,27.,29.5));
#457 = DIRECTION('',(1.,0.,-0.));
#458 = DIRECTION('',(0.,0.,1.));
#459 = ORIENTED_EDGE('',*,*,#460,.F.);
#460 = EDGE_CURVE('',#444,#452,#461,.T.);
#461 = ELLIPSE('',#462,0.919238815543,0.65);
#462 = AXIS2_PLACEMENT_3D('',#463,#464,#465);
#463 = CARTESIAN_POINT('',(-23.,27.,29.5));
#464 = DIRECTION('',(0.707106781187,-0.707106781187,0.));
#465 = DIRECTION('',(0.707106781187,0.707106781187,0.));
#466 = ORIENTED_EDGE('',*,*,#443,.F.);
#467 = ORIENTED_EDGE('',*,*,#361,.T.);
#468 = ORIENTED_EDGE('',*,*,#426,.T.);
#469 = CYLINDRICAL_SURFACE('',#470,0.65);
#470 = AXIS2_PLACEMENT_3D('',#471,#472,#473);
#471 = CARTESIAN_POINT('',(-33.,27.,29.5));
#472 = DIRECTION('',(1.,0.,0.));
#473 = DIRECTION('',(0.,0.,1.));
#474 = ADVANCED_FACE('',(#475),#510,.T.);
#475 = FACE_BOUND('',#476,.T.);
#476 = EDGE_LOOP('',(#477,#484,#485,#493,#502,#509));
#477 = ORIENTED_EDGE('',*,*,#478,.T.);
#478 = EDGE_CURVE('',#452,#444,#479,.T.);
#479 = CIRCLE('',#480,0.65);
#480 = AXIS2_PLACEMENT_3D('',#481,#482,#483);
#481 = CARTESIAN_POINT('',(-23.,27.,29.5));
#482 = DIRECTION('',(-2.449293598295E-16,-1.,0.));
#483 = DIRECTION('',(1.,-2.449293598295E-16,0.));
#484 = ORIENTED_EDGE('',*,*,#460,.T.);
#485 = ORIENTED_EDGE('',*,*,#486,.T.);
#486 = EDGE_CURVE('',#452,#487,#489,.T.);
#487 = VERTEX_POINT('',#488);
#488 = CARTESIAN_POINT('',(-23.,-6.,28.85));
#489 = LINE('',#490,#491);
#490 = CARTESIAN_POINT('',(-23.,27.,28.85));
#491 = VECTOR('',#492,1.);
#492 = DIRECTION('',(0.,-1.,0.));
#493 = ORIENTED_EDGE('',*,*,#494,.F.);
#494 = EDGE_CURVE('',#495,#487,#497,.T.);
#495 = VERTEX_POINT('',#496);
#496 = CARTESIAN_POINT('',(-23.,-6.,30.15));
#497 = ELLIPSE('',#498,0.919238815543,0.65);
#498 = AXIS2_PLACEMENT_3D('',#499,#500,#501);
#499 = CARTESIAN_POINT('',(-23.,-6.,29.5));
#500 = DIRECTION('',(-0.707106781187,-0.707106781187,0.));
#501 = DIRECTION('',(0.707106781187,-0.707106781187,0.));
#502 = ORIENTED_EDGE('',*,*,#503,.F.);
#503 = EDGE_CURVE('',#487,#495,#504,.T.);
#504 = CIRCLE('',#505,0.65);
#505 = AXIS2_PLACEMENT_3D('',#506,#507,#508);
#506 = CARTESIAN_POINT('',(-23.,-6.,29.5));
#507 = DIRECTION('',(0.,-1.,0.));
#508 = DIRECTION('',(0.,0.,-1.));
#509 = ORIENTED_EDGE('',*,*,#486,.F.);
#510 = CYLINDRICAL_SURFACE('',#511,0.65);
#511 = AXIS2_PLACEMENT_3D('',#512,#513,#514);
#512 = CARTESIAN_POINT('',(-23.,27.,29.5));
#513 = DIRECTION('',(0.,-1.,0.));
#514 = DIRECTION('',(0.,0.,-1.));
#515 = ADVANCED_FACE('',(#516),#520,.T.);
#516 = FACE_BOUND('',#517,.T.);
#517 = EDGE_LOOP('',(#518,#519));
#518 = ORIENTED_EDGE('',*,*,#451,.T.);
#519 = ORIENTED_EDGE('',*,*,#478,.F.);
#520 = SPHERICAL_SURFACE('',#521,0.65);
#521 = AXIS2_PLACEMENT_3D('',#522,#523,#524);
#522 = CARTESIAN_POINT('',(-23.,27.,29.5));
#523 = DIRECTION('',(0.,0.,1.));
#524 = DIRECTION('',(1.,0.,0.));
#525 = ADVANCED_FACE('',(#526),#536,.T.);
#526 = FACE_BOUND('',#527,.T.);
#527 = EDGE_LOOP('',(#528,#529));
#528 = ORIENTED_EDGE('',*,*,#503,.T.);
#529 = ORIENTED_EDGE('',*,*,#530,.F.);
#530 = EDGE_CURVE('',#487,#495,#531,.T.);
#531 = CIRCLE('',#532,0.65);
#532 = AXIS2_PLACEMENT_3D('',#533,#534,#535);
#533 = CARTESIAN_POINT('',(-23.,-6.,29.5));
#534 = DIRECTION('',(-1.,0.,0.));
#535 = DIRECTION('',(0.,0.,-1.));
#536 = SPHERICAL_SURFACE('',#537,0.65);
#537 = AXIS2_PLACEMENT_3D('',#538,#539,#540);
#538 = CARTESIAN_POINT('',(-23.,-6.,29.5));
#539 = DIRECTION('',(0.,0.,1.));
#540 = DIRECTION('',(1.,0.,0.));
#541 = ADVANCED_FACE('',(#542),#571,.T.);
#542 = FACE_BOUND('',#543,.T.);
#543 = EDGE_LOOP('',(#544,#545,#546,#554,#563,#570));
#544 = ORIENTED_EDGE('',*,*,#530,.T.);
#545 = ORIENTED_EDGE('',*,*,#494,.T.);
#546 = ORIENTED_EDGE('',*,*,#547,.T.);
#547 = EDGE_CURVE('',#487,#548,#550,.T.);
#548 = VERTEX_POINT('',#549);
#549 = CARTESIAN_POINT('',(-26.,-6.,28.85));
#550 = LINE('',#551,#552);
#551 = CARTESIAN_POINT('',(-23.,-6.,28.85));
#552 = VECTOR('',#553,1.);
#553 = DIRECTION('',(-1.,0.,0.));
#554 = ORIENTED_EDGE('',*,*,#555,.F.);
#555 = EDGE_CURVE('',#556,#548,#558,.T.);
#556 = VERTEX_POINT('',#557);
#557 = CARTESIAN_POINT('',(-26.,-6.,30.15));
#558 = CIRCLE('',#559,0.65);
#559 = AXIS2_PLACEMENT_3D('',#560,#561,#562);
#560 = CARTESIAN_POINT('',(-26.,-6.,29.5));
#561 = DIRECTION('',(-1.,0.,0.));
#562 = DIRECTION('',(0.,0.,-1.));
#563 = ORIENTED_EDGE('',*,*,#564,.F.);
#564 = EDGE_CURVE('',#548,#556,#565,.T.);
#565 = ELLIPSE('',#566,0.919238815543,0.65);
#566 = AXIS2_PLACEMENT_3D('',#567,#568,#569);
#567 = CARTESIAN_POINT('',(-26.,-6.,29.5));
#568 = DIRECTION('',(-0.707106781187,-0.707106781187,-0.));
#569 = DIRECTION('',(-0.707106781187,0.707106781187,0.));
#570 = ORIENTED_EDGE('',*,*,#547,.F.);
#571 = CYLINDRICAL_SURFACE('',#572,0.65);
#572 = AXIS2_PLACEMENT_3D('',#573,#574,#575);
#573 = CARTESIAN_POINT('',(-23.,-6.,29.5));
#574 = DIRECTION('',(-1.,0.,0.));
#575 = DIRECTION('',(0.,0.,-1.));
#576 = ADVANCED_FACE('',(#577),#630,.T.);
#577 = FACE_BOUND('',#578,.T.);
#578 = EDGE_LOOP('',(#579,#580,#587,#595,#604,#613,#622,#629));
#579 = ORIENTED_EDGE('',*,*,#564,.T.);
#580 = ORIENTED_EDGE('',*,*,#581,.T.);
#581 = EDGE_CURVE('',#556,#548,#582,.T.);
#582 = CIRCLE('',#583,0.65);
#583 = AXIS2_PLACEMENT_3D('',#584,#585,#586);
#584 = CARTESIAN_POINT('',(-26.,-6.,29.5));
#585 = DIRECTION('',(0.,-1.,0.));
#586 = DIRECTION('',(0.,0.,-1.));
#587 = ORIENTED_EDGE('',*,*,#588,.T.);
#588 = EDGE_CURVE('',#548,#589,#591,.T.);
#589 = VERTEX_POINT('',#590);
#590 = CARTESIAN_POINT('',(-26.,-8.85,28.85));
#591 = LINE('',#592,#593);
#592 = CARTESIAN_POINT('',(-26.,-6.,28.85));
#593 = VECTOR('',#594,1.);
#594 = DIRECTION('',(0.,-1.,0.));
#595 = ORIENTED_EDGE('',*,*,#596,.F.);
#596 = EDGE_CURVE('',#597,#589,#599,.T.);
#597 = VERTEX_POINT('',#598);
#598 = CARTESIAN_POINT('',(-26.65,-9.5,29.5));
#599 = ELLIPSE('',#600,0.919238815543,0.65);
#600 = AXIS2_PLACEMENT_3D('',#601,#602,#603);
#601 = CARTESIAN_POINT('',(-26.,-9.5,29.5));
#602 = DIRECTION('',(-0.,-0.707106781187,-0.707106781187));
#603 = DIRECTION('',(0.,-0.707106781187,0.707106781187));
#604 = ORIENTED_EDGE('',*,*,#605,.F.);
#605 = EDGE_CURVE('',#606,#597,#608,.T.);
#606 = VERTEX_POINT('',#607);
#607 = CARTESIAN_POINT('',(-26.,-9.5,30.15));
#608 = CIRCLE('',#609,0.65);
#609 = AXIS2_PLACEMENT_3D('',#610,#611,#612);
#610 = CARTESIAN_POINT('',(-26.,-9.5,29.5));
#611 = DIRECTION('',(0.,-1.,0.));
#612 = DIRECTION('',(0.,0.,-1.));
#613 = ORIENTED_EDGE('',*,*,#614,.F.);
#614 = EDGE_CURVE('',#615,#606,#617,.T.);
#615 = VERTEX_POINT('',#616);
#616 = CARTESIAN_POINT('',(-25.35,-9.5,29.5));
#617 = CIRCLE('',#618,0.65);
#618 = AXIS2_PLACEMENT_3D('',#619,#620,#621);
#619 = CARTESIAN_POINT('',(-26.,-9.5,29.5));
#620 = DIRECTION('',(0.,-1.,0.));
#621 = DIRECTION('',(0.,0.,-1.));
#622 = ORIENTED_EDGE('',*,*,#623,.F.);
#623 = EDGE_CURVE('',#589,#615,#624,.T.);
#624 = ELLIPSE('',#625,0.919238815543,0.65);
#625 = AXIS2_PLACEMENT_3D('',#626,#627,#628);
#626 = CARTESIAN_POINT('',(-26.,-9.5,29.5));
#627 = DIRECTION('',(-0.,-0.707106781187,-0.707106781187));
#628 = DIRECTION('',(0.,-0.707106781187,0.707106781187));
#629 = ORIENTED_EDGE('',*,*,#588,.F.);
#630 = CYLINDRICAL_SURFACE('',#631,0.65);
#631 = AXIS2_PLACEMENT_3D('',#632,#633,#634);
#632 = CARTESIAN_POINT('',(-26.,-6.,29.5));
#633 = DIRECTION('',(0.,-1.,0.));
#634 = DIRECTION('',(0.,0.,-1.));
#635 = ADVANCED_FACE('',(#636),#640,.T.);
#636 = FACE_BOUND('',#637,.T.);
#637 = EDGE_LOOP('',(#638,#639));
#638 = ORIENTED_EDGE('',*,*,#555,.T.);
#639 = ORIENTED_EDGE('',*,*,#581,.F.);
#640 = SPHERICAL_SURFACE('',#641,0.65);
#641 = AXIS2_PLACEMENT_3D('',#642,#643,#644);
#642 = CARTESIAN_POINT('',(-26.,-6.,29.5));
#643 = DIRECTION('',(0.,0.,1.));
#644 = DIRECTION('',(1.,0.,0.));
#645 = ADVANCED_FACE('',(#646),#682,.T.);
#646 = FACE_BOUND('',#647,.T.);
#647 = EDGE_LOOP('',(#648,#655,#663,#672,#679,#680,#681));
#648 = ORIENTED_EDGE('',*,*,#649,.T.);
#649 = EDGE_CURVE('',#615,#597,#650,.T.);
#650 = CIRCLE('',#651,0.65);
#651 = AXIS2_PLACEMENT_3D('',#652,#653,#654);
#652 = CARTESIAN_POINT('',(-26.,-9.5,29.5));
#653 = DIRECTION('',(0.,0.,-1.));
#654 = DIRECTION('',(-1.,0.,0.));
#655 = ORIENTED_EDGE('',*,*,#656,.T.);
#656 = EDGE_CURVE('',#597,#657,#659,.T.);
#657 = VERTEX_POINT('',#658);
#658 = CARTESIAN_POINT('',(-26.65,-9.5,27.6));
#659 = LINE('',#660,#661);
#660 = CARTESIAN_POINT('',(-26.65,-9.5,29.5));
#661 = VECTOR('',#662,1.);
#662 = DIRECTION('',(0.,0.,-1.));
#663 = ORIENTED_EDGE('',*,*,#664,.F.);
#664 = EDGE_CURVE('',#665,#657,#667,.T.);
#665 = VERTEX_POINT('',#666);
#666 = CARTESIAN_POINT('',(-25.35,-9.5,27.6));
#667 = CIRCLE('',#668,0.65);
#668 = AXIS2_PLACEMENT_3D('',#669,#670,#671);
#669 = CARTESIAN_POINT('',(-26.,-9.5,27.6));
#670 = DIRECTION('',(0.,0.,-1.));
#671 = DIRECTION('',(-1.,0.,0.));
#672 = ORIENTED_EDGE('',*,*,#673,.F.);
#673 = EDGE_CURVE('',#657,#665,#674,.T.);
#674 = CIRCLE('',#675,0.65);
#675 = AXIS2_PLACEMENT_3D('',#676,#677,#678);
#676 = CARTESIAN_POINT('',(-26.,-9.5,27.6));
#677 = DIRECTION('',(0.,0.,-1.));
#678 = DIRECTION('',(-1.,0.,0.));
#679 = ORIENTED_EDGE('',*,*,#656,.F.);
#680 = ORIENTED_EDGE('',*,*,#596,.T.);
#681 = ORIENTED_EDGE('',*,*,#623,.T.);
#682 = CYLINDRICAL_SURFACE('',#683,0.65);
#683 = AXIS2_PLACEMENT_3D('',#684,#685,#686);
#684 = CARTESIAN_POINT('',(-26.,-9.5,29.5));
#685 = DIRECTION('',(0.,0.,-1.));
#686 = DIRECTION('',(-1.,0.,0.));
#687 = ADVANCED_FACE('',(#688),#693,.T.);
#688 = FACE_BOUND('',#689,.T.);
#689 = EDGE_LOOP('',(#690,#691,#692));
#690 = ORIENTED_EDGE('',*,*,#649,.F.);
#691 = ORIENTED_EDGE('',*,*,#614,.T.);
#692 = ORIENTED_EDGE('',*,*,#605,.T.);
#693 = SPHERICAL_SURFACE('',#694,0.65);
#694 = AXIS2_PLACEMENT_3D('',#695,#696,#697);
#695 = CARTESIAN_POINT('',(-26.,-9.5,29.5));
#696 = DIRECTION('',(0.,0.,1.));
#697 = DIRECTION('',(1.,0.,0.));
#698 = ADVANCED_FACE('',(#699),#713,.T.);
#699 = FACE_BOUND('',#700,.T.);
#700 = EDGE_LOOP('',(#701,#702,#711,#712));
#701 = ORIENTED_EDGE('',*,*,#673,.T.);
#702 = ORIENTED_EDGE('',*,*,#703,.F.);
#703 = EDGE_CURVE('',#704,#665,#706,.T.);
#704 = VERTEX_POINT('',#705);
#705 = CARTESIAN_POINT('',(-26.,-9.5,26.95));
#706 = CIRCLE('',#707,0.65);
#707 = AXIS2_PLACEMENT_3D('',#708,#709,#710);
#708 = CARTESIAN_POINT('',(-26.,-9.5,27.6));
#709 = DIRECTION('',(-2.449293598295E-16,-1.,0.));
#710 = DIRECTION('',(1.,-2.449293598295E-16,0.));
#711 = ORIENTED_EDGE('',*,*,#703,.T.);
#712 = ORIENTED_EDGE('',*,*,#664,.T.);
#713 = SPHERICAL_SURFACE('',#714,0.65);
#714 = AXIS2_PLACEMENT_3D('',#715,#716,#717);
#715 = CARTESIAN_POINT('',(-26.,-9.5,27.6));
#716 = DIRECTION('',(0.,0.,1.));
#717 = DIRECTION('',(1.,0.,0.));
#718 = ( GEOMETRIC_REPRESENTATION_CONTEXT(3) 
GLOBAL_UNCERTAINTY_ASSIGNED_CONTEXT((#722)) GLOBAL_UNIT_ASSIGNED_CONTEXT
((#719,#720,#721)) REPRESENTATION_CONTEXT('Context #1',
  '3D Context with UNIT and UNCERTAINTY') );
#719 = ( LENGTH_UNIT() NAMED_UNIT(*) SI_UNIT(.MILLI.,.METRE.) );
#720 = ( NAMED_UNIT(*) PLANE_ANGLE_UNIT() SI_UNIT($,.RADIAN.) );
#721 = ( NAMED_UNIT(*) SI_UNIT($,.STERADIAN.) SOLID_ANGLE_UNIT() );
#722 = UNCERTAINTY_MEASURE_WITH_UNIT(LENGTH_MEASURE(2.E-07),#719,
  'distance_accuracy_value','confusion accuracy');
#723 = PRODUCT_RELATED_PRODUCT_CATEGORY('part',$,(#7));
ENDSEC;
END-ISO-10303-21;
