ISO-10303-21;
HEADER;
FILE_DESCRIPTION(('FreeCAD Model'),'2;1');
FILE_NAME('Open CASCADE Shape Model','2026-09-30T01:44:50',('FreeCAD'),(
    'FreeCAD'),'Open CASCADE STEP processor 7.8','FreeCAD','Unknown');
FILE_SCHEMA(('AUTOMOTIVE_DESIGN { 1 0 10303 214 1 1 1 1 }'));
ENDSEC;
DATA;
#1 = APPLICATION_PROTOCOL_DEFINITION('international standard',
  'automotive_design',2000,#2);
#2 = APPLICATION_CONTEXT(
  'core data for automotive mechanical design processes');
#3 = SHAPE_DEFINITION_REPRESENTATION(#4,#10);
#4 = PRODUCT_DEFINITION_SHAPE('','',#5);
#5 = PRODUCT_DEFINITION('design','',#6,#9);
#6 = PRODUCT_DEFINITION_FORMATION('','',#7);
#7 = PRODUCT('Open CASCADE STEP translator 7.8 48',
  'Open CASCADE STEP translator 7.8 48','',(#8));
#8 = PRODUCT_CONTEXT('',#2,'mechanical');
#9 = PRODUCT_DEFINITION_CONTEXT('part definition',#2,'design');
#10 = ADVANCED_BREP_SHAPE_REPRESENTATION('',(#11,#15),#934);
#11 = AXIS2_PLACEMENT_3D('',#12,#13,#14);
#12 = CARTESIAN_POINT('',(0.,0.,0.));
#13 = DIRECTION('',(0.,0.,1.));
#14 = DIRECTION('',(1.,0.,-0.));
#15 = MANIFOLD_SOLID_BREP('',#16);
#16 = CLOSED_SHELL('',(#17,#154,#207,#241,#301,#318,#329,#382,#407,#444,
    #504,#521,#532,#548,#583,#608,#645,#661,#705,#721,#756,#773,#808,
    #824,#868,#898,#915));
#17 = ADVANCED_FACE('',(#18,#38),#149,.T.);
#18 = FACE_BOUND('',#19,.T.);
#19 = EDGE_LOOP('',(#20,#31));
#20 = ORIENTED_EDGE('',*,*,#21,.F.);
#21 = EDGE_CURVE('',#22,#24,#26,.T.);
#22 = VERTEX_POINT('',#23);
#23 = CARTESIAN_POINT('',(1.75,37.,26.));
#24 = VERTEX_POINT('',#25);
#25 = CARTESIAN_POINT('',(1.75,37.,28.));
#26 = CIRCLE('',#27,1.);
#27 = AXIS2_PLACEMENT_3D('',#28,#29,#30);
#28 = CARTESIAN_POINT('',(1.75,37.,27.));
#29 = DIRECTION('',(1.,0.,-0.));
#30 = DIRECTION('',(0.,0.,1.));
#31 = ORIENTED_EDGE('',*,*,#32,.F.);
#32 = EDGE_CURVE('',#24,#22,#33,.T.);
#33 = CIRCLE('',#34,1.);
#34 = AXIS2_PLACEMENT_3D('',#35,#36,#37);
#35 = CARTESIAN_POINT('',(1.75,37.,27.));
#36 = DIRECTION('',(1.,0.,-0.));
#37 = DIRECTION('',(0.,0.,1.));
#38 = FACE_BOUND('',#39,.T.);
#39 = EDGE_LOOP('',(#40));
#40 = ORIENTED_EDGE('',*,*,#41,.T.);
#41 = EDGE_CURVE('',#42,#42,#44,.T.);
#42 = VERTEX_POINT('',#43);
#43 = CARTESIAN_POINT('',(0.804285984031,37.,27.325));
#44 = B_SPLINE_CURVE_WITH_KNOTS('',7,(#45,#46,#47,#48,#49,#50,#51,#52,
    #53,#54,#55,#56,#57,#58,#59,#60,#61,#62,#63,#64,#65,#66,#67,#68,#69,
    #70,#71,#72,#73,#74,#75,#76,#77,#78,#79,#80,#81,#82,#83,#84,#85,#86,
    #87,#88,#89,#90,#91,#92,#93,#94,#95,#96,#97,#98,#99,#100,#101,#102,
    #103,#104,#105,#106,#107,#108,#109,#110,#111,#112,#113,#114,#115,
    #116,#117,#118,#119,#120,#121,#122,#123,#124,#125,#126,#127,#128,
    #129,#130,#131,#132,#133,#134,#135,#136,#137,#138,#139,#140,#141,
    #142,#143,#144,#145,#146,#147,#148),.UNSPECIFIED.,.T.,.F.,(8,6,6,6,6
    ,6,6,6,6,6,6,6,6,6,6,6,6,8),(0.,4.183404391412E-02,
    5.543296906696E-02,6.952799647643E-02,8.160279759816E-02,
    0.250250138895,0.418396358852,0.430471203964,0.444062748845,
    0.457661476146,0.499999537054,0.581601930526,0.750249807926,
    0.918396562394,0.93047144589,0.944063033976,0.957661804506,1.),
  .UNSPECIFIED.);
#45 = CARTESIAN_POINT('',(0.804285984031,37.,27.325));
#46 = CARTESIAN_POINT('',(0.804285984031,36.98783577555,27.325));
#47 = CARTESIAN_POINT('',(0.804285984031,36.975671634567,27.324468828993
    ));
#48 = CARTESIAN_POINT('',(0.804285984031,36.963534729068,27.323406509722
    ));
#49 = CARTESIAN_POINT('',(0.804285984031,36.951452217213,27.321814688762
    ));
#50 = CARTESIAN_POINT('',(0.804285984031,36.93945119175,27.3196966704));
#51 = CARTESIAN_POINT('',(0.804285984031,36.927558608471,27.317057450515
    ));
#52 = CARTESIAN_POINT('',(0.804285984031,36.911979257618,27.312878582258
    ));
#53 = CARTESIAN_POINT('',(0.804285984031,36.908171580105,27.31179904805)
  );
#54 = CARTESIAN_POINT('',(0.804285984031,36.904379098686,27.31066537795)
  );
#55 = CARTESIAN_POINT('',(0.804285984031,36.900602725963,27.309477821235
    ));
#56 = CARTESIAN_POINT('',(0.804285984031,36.896843370564,27.308236646336
    ));
#57 = CARTESIAN_POINT('',(0.804285984031,36.893101937146,27.306942140841
    ));
#58 = CARTESIAN_POINT('',(0.804285984031,36.885520911115,27.304197922931
    ));
#59 = CARTESIAN_POINT('',(0.804285984031,36.881682716188,27.30274427123)
  );
#60 = CARTESIAN_POINT('',(0.804285984031,36.877865744666,27.301233997994
    ));
#61 = CARTESIAN_POINT('',(0.804285984031,36.874070993076,27.29966746706)
  );
#62 = CARTESIAN_POINT('',(0.804285984031,36.870299451426,27.298045064487
    ));
#63 = CARTESIAN_POINT('',(0.804285984031,36.866552103198,27.296367198565
    ));
#64 = CARTESIAN_POINT('',(0.804285984031,36.859641243568,27.293149775706
    ));
#65 = CARTESIAN_POINT('',(0.804285984031,36.856471033458,27.291624863771
    ));
#66 = CARTESIAN_POINT('',(0.804285984031,36.853319909125,27.290059834705
    ));
#67 = CARTESIAN_POINT('',(0.804285984031,36.850188480034,27.288454971101
    ));
#68 = CARTESIAN_POINT('',(0.804285984031,36.847077351017,27.286810567453
    ));
#69 = CARTESIAN_POINT('',(0.804285984031,36.843987122276,27.285126930144
    ));
#70 = CARTESIAN_POINT('',(0.804285984031,36.7980577543,27.259345684639)
  );
#71 = CARTESIAN_POINT('',(0.804285984031,36.759380336828,27.227689823681
    ));
#72 = CARTESIAN_POINT('',(0.804285984031,36.726546203694,27.189318282791
    ));
#73 = CARTESIAN_POINT('',(0.804285984031,36.700937386895,27.145559422626
    ));
#74 = CARTESIAN_POINT('',(0.804285984031,36.683560693961,27.098081536355
    ));
#75 = CARTESIAN_POINT('',(0.804285984031,36.674922615613,27.04876153076)
  );
#76 = CARTESIAN_POINT('',(0.804285984031,36.675077963227,26.950358736641
    ));
#77 = CARTESIAN_POINT('',(0.804285984031,36.683819767296,26.901212954011
    ));
#78 = CARTESIAN_POINT('',(0.804285984031,36.701242344819,26.853920322912
    ));
#79 = CARTESIAN_POINT('',(0.804285984031,36.726839332828,26.810339467155
    ));
#80 = CARTESIAN_POINT('',(0.804285984031,36.759610516238,26.772121881041
    ));
#81 = CARTESIAN_POINT('',(0.804285984031,36.798185266743,26.740582739597
    ));
#82 = CARTESIAN_POINT('',(0.804285984031,36.843987122276,26.714873069856
    ));
#83 = CARTESIAN_POINT('',(0.804285984031,36.847077351017,26.713189432547
    ));
#84 = CARTESIAN_POINT('',(0.804285984031,36.850188480034,26.711545028899
    ));
#85 = CARTESIAN_POINT('',(0.804285984031,36.853319909125,26.709940165295
    ));
#86 = CARTESIAN_POINT('',(0.804285984031,36.856471033458,26.708375136229
    ));
#87 = CARTESIAN_POINT('',(0.804285984031,36.859641243568,26.706850224294
    ));
#88 = CARTESIAN_POINT('',(0.804285984031,36.866419131777,26.703694707669
    ));
#89 = CARTESIAN_POINT('',(0.804285984031,36.870031742291,26.702074886218
    ));
#90 = CARTESIAN_POINT('',(0.804285984031,36.873666880995,26.700506621846
    ));
#91 = CARTESIAN_POINT('',(0.804285984031,36.877323666319,26.69899028134)
  );
#92 = CARTESIAN_POINT('',(0.804285984031,36.881001211018,26.697526212268
    ));
#93 = CARTESIAN_POINT('',(0.804285984031,36.884698622177,26.696114742984
    ));
#94 = CARTESIAN_POINT('',(0.804285984031,36.892133344155,26.69339690434)
  );
#95 = CARTESIAN_POINT('',(0.804285984031,36.895870675645,26.692090590919
    ));
#96 = CARTESIAN_POINT('',(0.804285984031,36.899626095748,26.690837551936
    ));
#97 = CARTESIAN_POINT('',(0.804285984031,36.903398700506,26.689638077807
    ));
#98 = CARTESIAN_POINT('',(0.804285984031,36.907187581933,26.688492439786
    ));
#99 = CARTESIAN_POINT('',(0.804285984031,36.910991828015,26.687400889969
    ));
#100 = CARTESIAN_POINT('',(0.804285984031,36.926699585926,
    26.683134370052));
#101 = CARTESIAN_POINT('',(0.804285984031,36.938728725512,
    26.680431619909));
#102 = CARTESIAN_POINT('',(0.804285984031,36.950870273551,
    26.678262445873));
#103 = CARTESIAN_POINT('',(0.804285984031,36.963096311616,
    26.676632091767));
#104 = CARTESIAN_POINT('',(0.804285984031,36.975378745816,26.67554403311
    ));
#105 = CARTESIAN_POINT('',(0.804285984031,36.987689381839,26.675));
#106 = CARTESIAN_POINT('',(0.804285984031,37.02372748977,26.675));
#107 = CARTESIAN_POINT('',(0.804285984031,37.047455672761,
    26.677021018358));
#108 = CARTESIAN_POINT('',(0.804285984031,37.070981496502,
    26.681063182044));
#109 = CARTESIAN_POINT('',(0.804285984031,37.094103332053,26.68710232779
    ));
#110 = CARTESIAN_POINT('',(0.804285984031,37.116621905321,
    26.695090357964));
#111 = CARTESIAN_POINT('',(0.804285984031,37.138342954069,
    26.704954521878));
#112 = CARTESIAN_POINT('',(0.804285984031,37.2019422457,26.740654315361)
  );
#113 = CARTESIAN_POINT('',(0.804285984031,37.240619663174,26.77231017632
    ));
#114 = CARTESIAN_POINT('',(0.804285984031,37.273453796305,
    26.810681717207));
#115 = CARTESIAN_POINT('',(0.804285984031,37.299062613106,
    26.854440577376));
#116 = CARTESIAN_POINT('',(0.804285984031,37.316439306039,
    26.901918463644));
#117 = CARTESIAN_POINT('',(0.804285984031,37.325077384387,26.95123846924
    ));
#118 = CARTESIAN_POINT('',(0.804285984031,37.324922036773,
    27.049641263359));
#119 = CARTESIAN_POINT('',(0.804285984031,37.316180232704,
    27.098787045989));
#120 = CARTESIAN_POINT('',(0.804285984031,37.298757655181,
    27.146079677089));
#121 = CARTESIAN_POINT('',(0.804285984031,37.273160667171,
    27.189660532845));
#122 = CARTESIAN_POINT('',(0.804285984031,37.240389483762,
    27.227878118959));
#123 = CARTESIAN_POINT('',(0.804285984031,37.201814733257,
    27.259417260403));
#124 = CARTESIAN_POINT('',(0.804285984031,37.156012877724,
    27.285126930144));
#125 = CARTESIAN_POINT('',(0.804285984031,37.152922648983,
    27.286810567453));
#126 = CARTESIAN_POINT('',(0.804285984031,37.149811519966,
    27.288454971101));
#127 = CARTESIAN_POINT('',(0.804285984031,37.146680090875,
    27.290059834705));
#128 = CARTESIAN_POINT('',(0.804285984031,37.143528966542,
    27.291624863771));
#129 = CARTESIAN_POINT('',(0.804285984031,37.140358756432,
    27.293149775706));
#130 = CARTESIAN_POINT('',(0.804285984031,37.133580868223,
    27.296305292331));
#131 = CARTESIAN_POINT('',(0.804285984031,37.129968257709,
    27.297925113782));
#132 = CARTESIAN_POINT('',(0.804285984031,37.126333119005,
    27.299493378154));
#133 = CARTESIAN_POINT('',(0.804285984031,37.122676333681,27.30100971866
    ));
#134 = CARTESIAN_POINT('',(0.804285984031,37.118998788982,
    27.302473787732));
#135 = CARTESIAN_POINT('',(0.804285984031,37.115301377823,
    27.303885257016));
#136 = CARTESIAN_POINT('',(0.804285984031,37.107866655845,27.30660309566
    ));
#137 = CARTESIAN_POINT('',(0.804285984031,37.104129324355,
    27.307909409081));
#138 = CARTESIAN_POINT('',(0.804285984031,37.100373904252,
    27.309162448064));
#139 = CARTESIAN_POINT('',(0.804285984031,37.096601299494,
    27.310361922193));
#140 = CARTESIAN_POINT('',(0.804285984031,37.092812418067,
    27.311507560214));
#141 = CARTESIAN_POINT('',(0.804285984031,37.089008171985,
    27.312599110031));
#142 = CARTESIAN_POINT('',(0.804285984031,37.073300414074,
    27.316865629949));
#143 = CARTESIAN_POINT('',(0.804285984031,37.061271274488,
    27.319568380091));
#144 = CARTESIAN_POINT('',(0.804285984031,37.049129726449,
    27.321737554127));
#145 = CARTESIAN_POINT('',(0.804285984031,37.036903688384,
    27.323367908233));
#146 = CARTESIAN_POINT('',(0.804285984031,37.024621254184,27.32445596689
    ));
#147 = CARTESIAN_POINT('',(0.804285984031,37.012310618161,27.325));
#148 = CARTESIAN_POINT('',(0.804285984031,37.,27.325));
#149 = SPHERICAL_SURFACE('',#150,1.);
#150 = AXIS2_PLACEMENT_3D('',#151,#152,#153);
#151 = CARTESIAN_POINT('',(1.75,37.,27.));
#152 = DIRECTION('',(0.,0.,1.));
#153 = DIRECTION('',(1.,0.,0.));
#154 = ADVANCED_FACE('',(#155),#202,.T.);
#155 = FACE_BOUND('',#156,.T.);
#156 = EDGE_LOOP('',(#157,#158,#159,#167,#176,#185,#194,#201));
#157 = ORIENTED_EDGE('',*,*,#32,.T.);
#158 = ORIENTED_EDGE('',*,*,#21,.T.);
#159 = ORIENTED_EDGE('',*,*,#160,.T.);
#160 = EDGE_CURVE('',#24,#161,#163,.T.);
#161 = VERTEX_POINT('',#162);
#162 = CARTESIAN_POINT('',(3.,37.,28.));
#163 = LINE('',#164,#165);
#164 = CARTESIAN_POINT('',(1.75,37.,28.));
#165 = VECTOR('',#166,1.);
#166 = DIRECTION('',(1.,0.,0.));
#167 = ORIENTED_EDGE('',*,*,#168,.F.);
#168 = EDGE_CURVE('',#169,#161,#171,.T.);
#169 = VERTEX_POINT('',#170);
#170 = CARTESIAN_POINT('',(4.,38.,27.));
#171 = ELLIPSE('',#172,1.414213562373,1.);
#172 = AXIS2_PLACEMENT_3D('',#173,#174,#175);
#173 = CARTESIAN_POINT('',(4.,37.,27.));
#174 = DIRECTION('',(0.707106781187,-0.,0.707106781187));
#175 = DIRECTION('',(0.707106781187,0.,-0.707106781187));
#176 = ORIENTED_EDGE('',*,*,#177,.F.);
#177 = EDGE_CURVE('',#178,#169,#180,.T.);
#178 = VERTEX_POINT('',#179);
#179 = CARTESIAN_POINT('',(4.,37.,26.));
#180 = CIRCLE('',#181,1.);
#181 = AXIS2_PLACEMENT_3D('',#182,#183,#184);
#182 = CARTESIAN_POINT('',(4.,37.,27.));
#183 = DIRECTION('',(1.,0.,-0.));
#184 = DIRECTION('',(0.,0.,1.));
#185 = ORIENTED_EDGE('',*,*,#186,.F.);
#186 = EDGE_CURVE('',#187,#178,#189,.T.);
#187 = VERTEX_POINT('',#188);
#188 = CARTESIAN_POINT('',(4.,36.,27.));
#189 = CIRCLE('',#190,1.);
#190 = AXIS2_PLACEMENT_3D('',#191,#192,#193);
#191 = CARTESIAN_POINT('',(4.,37.,27.));
#192 = DIRECTION('',(1.,0.,-0.));
#193 = DIRECTION('',(0.,0.,1.));
#194 = ORIENTED_EDGE('',*,*,#195,.F.);
#195 = EDGE_CURVE('',#161,#187,#196,.T.);
#196 = ELLIPSE('',#197,1.414213562373,1.);
#197 = AXIS2_PLACEMENT_3D('',#198,#199,#200);
#198 = CARTESIAN_POINT('',(4.,37.,27.));
#199 = DIRECTION('',(0.707106781187,-0.,0.707106781187));
#200 = DIRECTION('',(0.707106781187,0.,-0.707106781187));
#201 = ORIENTED_EDGE('',*,*,#160,.F.);
#202 = CYLINDRICAL_SURFACE('',#203,1.);
#203 = AXIS2_PLACEMENT_3D('',#204,#205,#206);
#204 = CARTESIAN_POINT('',(1.75,37.,27.));
#205 = DIRECTION('',(1.,0.,0.));
#206 = DIRECTION('',(0.,0.,1.));
#207 = ADVANCED_FACE('',(#208),#236,.F.);
#208 = FACE_BOUND('',#209,.F.);
#209 = EDGE_LOOP('',(#210,#218,#227,#234,#235));
#210 = ORIENTED_EDGE('',*,*,#211,.T.);
#211 = EDGE_CURVE('',#42,#212,#214,.T.);
#212 = VERTEX_POINT('',#213);
#213 = CARTESIAN_POINT('',(1.75,37.,27.325));
#214 = LINE('',#215,#216);
#215 = CARTESIAN_POINT('',(-1.55,37.,27.325));
#216 = VECTOR('',#217,1.);
#217 = DIRECTION('',(1.,0.,0.));
#218 = ORIENTED_EDGE('',*,*,#219,.F.);
#219 = EDGE_CURVE('',#220,#212,#222,.T.);
#220 = VERTEX_POINT('',#221);
#221 = CARTESIAN_POINT('',(1.75,37.,26.675));
#222 = CIRCLE('',#223,0.325);
#223 = AXIS2_PLACEMENT_3D('',#224,#225,#226);
#224 = CARTESIAN_POINT('',(1.75,37.,27.));
#225 = DIRECTION('',(1.,0.,-0.));
#226 = DIRECTION('',(0.,0.,1.));
#227 = ORIENTED_EDGE('',*,*,#228,.F.);
#228 = EDGE_CURVE('',#212,#220,#229,.T.);
#229 = CIRCLE('',#230,0.325);
#230 = AXIS2_PLACEMENT_3D('',#231,#232,#233);
#231 = CARTESIAN_POINT('',(1.75,37.,27.));
#232 = DIRECTION('',(1.,0.,-0.));
#233 = DIRECTION('',(0.,0.,1.));
#234 = ORIENTED_EDGE('',*,*,#211,.F.);
#235 = ORIENTED_EDGE('',*,*,#41,.T.);
#236 = CYLINDRICAL_SURFACE('',#237,0.325);
#237 = AXIS2_PLACEMENT_3D('',#238,#239,#240);
#238 = CARTESIAN_POINT('',(-1.55,37.,27.));
#239 = DIRECTION('',(1.,0.,0.));
#240 = DIRECTION('',(0.,0.,1.));
#241 = ADVANCED_FACE('',(#242),#296,.T.);
#242 = FACE_BOUND('',#243,.T.);
#243 = EDGE_LOOP('',(#244,#245,#254,#262,#271,#280,#287,#288,#295));
#244 = ORIENTED_EDGE('',*,*,#195,.T.);
#245 = ORIENTED_EDGE('',*,*,#246,.T.);
#246 = EDGE_CURVE('',#187,#247,#249,.T.);
#247 = VERTEX_POINT('',#248);
#248 = CARTESIAN_POINT('',(5.,37.,27.));
#249 = CIRCLE('',#250,1.);
#250 = AXIS2_PLACEMENT_3D('',#251,#252,#253);
#251 = CARTESIAN_POINT('',(4.,37.,27.));
#252 = DIRECTION('',(0.,0.,1.));
#253 = DIRECTION('',(1.,0.,0.));
#254 = ORIENTED_EDGE('',*,*,#255,.T.);
#255 = EDGE_CURVE('',#247,#256,#258,.T.);
#256 = VERTEX_POINT('',#257);
#257 = CARTESIAN_POINT('',(5.,37.,29.5));
#258 = LINE('',#259,#260);
#259 = CARTESIAN_POINT('',(5.,37.,27.));
#260 = VECTOR('',#261,1.);
#261 = DIRECTION('',(0.,0.,1.));
#262 = ORIENTED_EDGE('',*,*,#263,.F.);
#263 = EDGE_CURVE('',#264,#256,#266,.T.);
#264 = VERTEX_POINT('',#265);
#265 = CARTESIAN_POINT('',(4.,36.,28.5));
#266 = ELLIPSE('',#267,1.414213562373,1.);
#267 = AXIS2_PLACEMENT_3D('',#268,#269,#270);
#268 = CARTESIAN_POINT('',(4.,37.,29.5));
#269 = DIRECTION('',(0.,-0.707106781187,0.707106781187));
#270 = DIRECTION('',(0.,0.707106781187,0.707106781187));
#271 = ORIENTED_EDGE('',*,*,#272,.F.);
#272 = EDGE_CURVE('',#273,#264,#275,.T.);
#273 = VERTEX_POINT('',#274);
#274 = CARTESIAN_POINT('',(3.,37.,29.5));
#275 = ELLIPSE('',#276,1.414213562373,1.);
#276 = AXIS2_PLACEMENT_3D('',#277,#278,#279);
#277 = CARTESIAN_POINT('',(4.,37.,29.5));
#278 = DIRECTION('',(0.,-0.707106781187,0.707106781187));
#279 = DIRECTION('',(0.,0.707106781187,0.707106781187));
#280 = ORIENTED_EDGE('',*,*,#281,.F.);
#281 = EDGE_CURVE('',#256,#273,#282,.T.);
#282 = CIRCLE('',#283,1.);
#283 = AXIS2_PLACEMENT_3D('',#284,#285,#286);
#284 = CARTESIAN_POINT('',(4.,37.,29.5));
#285 = DIRECTION('',(0.,0.,1.));
#286 = DIRECTION('',(1.,0.,0.));
#287 = ORIENTED_EDGE('',*,*,#255,.F.);
#288 = ORIENTED_EDGE('',*,*,#289,.T.);
#289 = EDGE_CURVE('',#247,#169,#290,.T.);
#290 = CIRCLE('',#291,1.);
#291 = AXIS2_PLACEMENT_3D('',#292,#293,#294);
#292 = CARTESIAN_POINT('',(4.,37.,27.));
#293 = DIRECTION('',(0.,0.,1.));
#294 = DIRECTION('',(1.,0.,0.));
#295 = ORIENTED_EDGE('',*,*,#168,.T.);
#296 = CYLINDRICAL_SURFACE('',#297,1.);
#297 = AXIS2_PLACEMENT_3D('',#298,#299,#300);
#298 = CARTESIAN_POINT('',(4.,37.,27.));
#299 = DIRECTION('',(0.,0.,1.));
#300 = DIRECTION('',(1.,0.,0.));
#301 = ADVANCED_FACE('',(#302),#313,.T.);
#302 = FACE_BOUND('',#303,.T.);
#303 = EDGE_LOOP('',(#304,#311,#312));
#304 = ORIENTED_EDGE('',*,*,#305,.T.);
#305 = EDGE_CURVE('',#178,#247,#306,.T.);
#306 = CIRCLE('',#307,1.);
#307 = AXIS2_PLACEMENT_3D('',#308,#309,#310);
#308 = CARTESIAN_POINT('',(4.,37.,27.));
#309 = DIRECTION('',(-2.449293598295E-16,-1.,0.));
#310 = DIRECTION('',(1.,-2.449293598295E-16,0.));
#311 = ORIENTED_EDGE('',*,*,#246,.F.);
#312 = ORIENTED_EDGE('',*,*,#186,.T.);
#313 = SPHERICAL_SURFACE('',#314,1.);
#314 = AXIS2_PLACEMENT_3D('',#315,#316,#317);
#315 = CARTESIAN_POINT('',(4.,37.,27.));
#316 = DIRECTION('',(0.,0.,1.));
#317 = DIRECTION('',(1.,0.,0.));
#318 = ADVANCED_FACE('',(#319),#324,.T.);
#319 = FACE_BOUND('',#320,.T.);
#320 = EDGE_LOOP('',(#321,#322,#323));
#321 = ORIENTED_EDGE('',*,*,#177,.T.);
#322 = ORIENTED_EDGE('',*,*,#289,.F.);
#323 = ORIENTED_EDGE('',*,*,#305,.F.);
#324 = SPHERICAL_SURFACE('',#325,1.);
#325 = AXIS2_PLACEMENT_3D('',#326,#327,#328);
#326 = CARTESIAN_POINT('',(4.,37.,27.));
#327 = DIRECTION('',(0.,0.,1.));
#328 = DIRECTION('',(1.,0.,0.));
#329 = ADVANCED_FACE('',(#330),#377,.F.);
#330 = FACE_BOUND('',#331,.F.);
#331 = EDGE_LOOP('',(#332,#340,#341,#342,#343,#352,#361,#370));
#332 = ORIENTED_EDGE('',*,*,#333,.F.);
#333 = EDGE_CURVE('',#212,#334,#336,.T.);
#334 = VERTEX_POINT('',#335);
#335 = CARTESIAN_POINT('',(3.675,37.,27.325));
#336 = LINE('',#337,#338);
#337 = CARTESIAN_POINT('',(1.75,37.,27.325));
#338 = VECTOR('',#339,1.);
#339 = DIRECTION('',(1.,0.,0.));
#340 = ORIENTED_EDGE('',*,*,#228,.T.);
#341 = ORIENTED_EDGE('',*,*,#219,.T.);
#342 = ORIENTED_EDGE('',*,*,#333,.T.);
#343 = ORIENTED_EDGE('',*,*,#344,.F.);
#344 = EDGE_CURVE('',#345,#334,#347,.T.);
#345 = VERTEX_POINT('',#346);
#346 = CARTESIAN_POINT('',(4.,37.325,27.));
#347 = ELLIPSE('',#348,0.459619407771,0.325);
#348 = AXIS2_PLACEMENT_3D('',#349,#350,#351);
#349 = CARTESIAN_POINT('',(4.,37.,27.));
#350 = DIRECTION('',(0.707106781187,-0.,0.707106781187));
#351 = DIRECTION('',(0.707106781187,0.,-0.707106781187));
#352 = ORIENTED_EDGE('',*,*,#353,.F.);
#353 = EDGE_CURVE('',#354,#345,#356,.T.);
#354 = VERTEX_POINT('',#355);
#355 = CARTESIAN_POINT('',(4.,37.,26.675));
#356 = CIRCLE('',#357,0.325);
#357 = AXIS2_PLACEMENT_3D('',#358,#359,#360);
#358 = CARTESIAN_POINT('',(4.,37.,27.));
#359 = DIRECTION('',(1.,0.,-0.));
#360 = DIRECTION('',(0.,0.,1.));
#361 = ORIENTED_EDGE('',*,*,#362,.F.);
#362 = EDGE_CURVE('',#363,#354,#365,.T.);
#363 = VERTEX_POINT('',#364);
#364 = CARTESIAN_POINT('',(4.,36.675,27.));
#365 = CIRCLE('',#366,0.325);
#366 = AXIS2_PLACEMENT_3D('',#367,#368,#369);
#367 = CARTESIAN_POINT('',(4.,37.,27.));
#368 = DIRECTION('',(1.,0.,-0.));
#369 = DIRECTION('',(0.,0.,1.));
#370 = ORIENTED_EDGE('',*,*,#371,.F.);
#371 = EDGE_CURVE('',#334,#363,#372,.T.);
#372 = ELLIPSE('',#373,0.459619407771,0.325);
#373 = AXIS2_PLACEMENT_3D('',#374,#375,#376);
#374 = CARTESIAN_POINT('',(4.,37.,27.));
#375 = DIRECTION('',(0.707106781187,-0.,0.707106781187));
#376 = DIRECTION('',(0.707106781187,0.,-0.707106781187));
#377 = CYLINDRICAL_SURFACE('',#378,0.325);
#378 = AXIS2_PLACEMENT_3D('',#379,#380,#381);
#379 = CARTESIAN_POINT('',(1.75,37.,27.));
#380 = DIRECTION('',(1.,0.,0.));
#381 = DIRECTION('',(0.,0.,1.));
#382 = ADVANCED_FACE('',(#383),#402,.T.);
#383 = FACE_BOUND('',#384,.T.);
#384 = EDGE_LOOP('',(#385,#394,#395));
#385 = ORIENTED_EDGE('',*,*,#386,.F.);
#386 = EDGE_CURVE('',#256,#387,#389,.T.);
#387 = VERTEX_POINT('',#388);
#388 = CARTESIAN_POINT('',(4.,37.,30.5));
#389 = CIRCLE('',#390,1.);
#390 = AXIS2_PLACEMENT_3D('',#391,#392,#393);
#391 = CARTESIAN_POINT('',(4.,37.,29.5));
#392 = DIRECTION('',(-2.449293598295E-16,-1.,0.));
#393 = DIRECTION('',(1.,-2.449293598295E-16,0.));
#394 = ORIENTED_EDGE('',*,*,#281,.T.);
#395 = ORIENTED_EDGE('',*,*,#396,.F.);
#396 = EDGE_CURVE('',#387,#273,#397,.T.);
#397 = CIRCLE('',#398,1.);
#398 = AXIS2_PLACEMENT_3D('',#399,#400,#401);
#399 = CARTESIAN_POINT('',(4.,37.,29.5));
#400 = DIRECTION('',(0.,-1.,0.));
#401 = DIRECTION('',(0.,0.,-1.));
#402 = SPHERICAL_SURFACE('',#403,1.);
#403 = AXIS2_PLACEMENT_3D('',#404,#405,#406);
#404 = CARTESIAN_POINT('',(4.,37.,29.5));
#405 = DIRECTION('',(0.,0.,1.));
#406 = DIRECTION('',(1.,0.,0.));
#407 = ADVANCED_FACE('',(#408),#439,.T.);
#408 = FACE_BOUND('',#409,.T.);
#409 = EDGE_LOOP('',(#410,#411,#412,#420,#429,#436,#437,#438));
#410 = ORIENTED_EDGE('',*,*,#396,.T.);
#411 = ORIENTED_EDGE('',*,*,#272,.T.);
#412 = ORIENTED_EDGE('',*,*,#413,.T.);
#413 = EDGE_CURVE('',#264,#414,#416,.T.);
#414 = VERTEX_POINT('',#415);
#415 = CARTESIAN_POINT('',(4.,25.,28.5));
#416 = LINE('',#417,#418);
#417 = CARTESIAN_POINT('',(4.,37.,28.5));
#418 = VECTOR('',#419,1.);
#419 = DIRECTION('',(0.,-1.,0.));
#420 = ORIENTED_EDGE('',*,*,#421,.F.);
#421 = EDGE_CURVE('',#422,#414,#424,.T.);
#422 = VERTEX_POINT('',#423);
#423 = CARTESIAN_POINT('',(4.,25.,30.5));
#424 = ELLIPSE('',#425,1.414213562373,1.);
#425 = AXIS2_PLACEMENT_3D('',#426,#427,#428);
#426 = CARTESIAN_POINT('',(4.,25.,29.5));
#427 = DIRECTION('',(-0.707106781187,-0.707106781187,0.));
#428 = DIRECTION('',(0.707106781187,-0.707106781187,0.));
#429 = ORIENTED_EDGE('',*,*,#430,.F.);
#430 = EDGE_CURVE('',#414,#422,#431,.T.);
#431 = CIRCLE('',#432,1.);
#432 = AXIS2_PLACEMENT_3D('',#433,#434,#435);
#433 = CARTESIAN_POINT('',(4.,25.,29.5));
#434 = DIRECTION('',(0.,-1.,0.));
#435 = DIRECTION('',(0.,0.,-1.));
#436 = ORIENTED_EDGE('',*,*,#413,.F.);
#437 = ORIENTED_EDGE('',*,*,#263,.T.);
#438 = ORIENTED_EDGE('',*,*,#386,.T.);
#439 = CYLINDRICAL_SURFACE('',#440,1.);
#440 = AXIS2_PLACEMENT_3D('',#441,#442,#443);
#441 = CARTESIAN_POINT('',(4.,37.,29.5));
#442 = DIRECTION('',(0.,-1.,0.));
#443 = DIRECTION('',(0.,0.,-1.));
#444 = ADVANCED_FACE('',(#445),#499,.F.);
#445 = FACE_BOUND('',#446,.F.);
#446 = EDGE_LOOP('',(#447,#448,#457,#465,#474,#483,#490,#491,#498));
#447 = ORIENTED_EDGE('',*,*,#371,.T.);
#448 = ORIENTED_EDGE('',*,*,#449,.T.);
#449 = EDGE_CURVE('',#363,#450,#452,.T.);
#450 = VERTEX_POINT('',#451);
#451 = CARTESIAN_POINT('',(4.325,37.,27.));
#452 = CIRCLE('',#453,0.325);
#453 = AXIS2_PLACEMENT_3D('',#454,#455,#456);
#454 = CARTESIAN_POINT('',(4.,37.,27.));
#455 = DIRECTION('',(0.,0.,1.));
#456 = DIRECTION('',(1.,0.,0.));
#457 = ORIENTED_EDGE('',*,*,#458,.T.);
#458 = EDGE_CURVE('',#450,#459,#461,.T.);
#459 = VERTEX_POINT('',#460);
#460 = CARTESIAN_POINT('',(4.325,37.,29.5));
#461 = LINE('',#462,#463);
#462 = CARTESIAN_POINT('',(4.325,37.,27.));
#463 = VECTOR('',#464,1.);
#464 = DIRECTION('',(0.,0.,1.));
#465 = ORIENTED_EDGE('',*,*,#466,.F.);
#466 = EDGE_CURVE('',#467,#459,#469,.T.);
#467 = VERTEX_POINT('',#468);
#468 = CARTESIAN_POINT('',(4.,36.675,29.175));
#469 = ELLIPSE('',#470,0.459619407771,0.325);
#470 = AXIS2_PLACEMENT_3D('',#471,#472,#473);
#471 = CARTESIAN_POINT('',(4.,37.,29.5));
#472 = DIRECTION('',(0.,-0.707106781187,0.707106781187));
#473 = DIRECTION('',(0.,0.707106781187,0.707106781187));
#474 = ORIENTED_EDGE('',*,*,#475,.F.);
#475 = EDGE_CURVE('',#476,#467,#478,.T.);
#476 = VERTEX_POINT('',#477);
#477 = CARTESIAN_POINT('',(3.675,37.,29.5));
#478 = ELLIPSE('',#479,0.459619407771,0.325);
#479 = AXIS2_PLACEMENT_3D('',#480,#481,#482);
#480 = CARTESIAN_POINT('',(4.,37.,29.5));
#481 = DIRECTION('',(0.,-0.707106781187,0.707106781187));
#482 = DIRECTION('',(0.,0.707106781187,0.707106781187));
#483 = ORIENTED_EDGE('',*,*,#484,.F.);
#484 = EDGE_CURVE('',#459,#476,#485,.T.);
#485 = CIRCLE('',#486,0.325);
#486 = AXIS2_PLACEMENT_3D('',#487,#488,#489);
#487 = CARTESIAN_POINT('',(4.,37.,29.5));
#488 = DIRECTION('',(0.,0.,1.));
#489 = DIRECTION('',(1.,0.,0.));
#490 = ORIENTED_EDGE('',*,*,#458,.F.);
#491 = ORIENTED_EDGE('',*,*,#492,.T.);
#492 = EDGE_CURVE('',#450,#345,#493,.T.);
#493 = CIRCLE('',#494,0.325);
#494 = AXIS2_PLACEMENT_3D('',#495,#496,#497);
#495 = CARTESIAN_POINT('',(4.,37.,27.));
#496 = DIRECTION('',(0.,0.,1.));
#497 = DIRECTION('',(1.,0.,0.));
#498 = ORIENTED_EDGE('',*,*,#344,.T.);
#499 = CYLINDRICAL_SURFACE('',#500,0.325);
#500 = AXIS2_PLACEMENT_3D('',#501,#502,#503);
#501 = CARTESIAN_POINT('',(4.,37.,27.));
#502 = DIRECTION('',(0.,0.,1.));
#503 = DIRECTION('',(1.,0.,0.));
#504 = ADVANCED_FACE('',(#505),#516,.F.);
#505 = FACE_BOUND('',#506,.F.);
#506 = EDGE_LOOP('',(#507,#514,#515));
#507 = ORIENTED_EDGE('',*,*,#508,.T.);
#508 = EDGE_CURVE('',#354,#450,#509,.T.);
#509 = CIRCLE('',#510,0.325);
#510 = AXIS2_PLACEMENT_3D('',#511,#512,#513);
#511 = CARTESIAN_POINT('',(4.,37.,27.));
#512 = DIRECTION('',(-2.449293598295E-16,-1.,0.));
#513 = DIRECTION('',(1.,-2.449293598295E-16,0.));
#514 = ORIENTED_EDGE('',*,*,#449,.F.);
#515 = ORIENTED_EDGE('',*,*,#362,.T.);
#516 = SPHERICAL_SURFACE('',#517,0.325);
#517 = AXIS2_PLACEMENT_3D('',#518,#519,#520);
#518 = CARTESIAN_POINT('',(4.,37.,27.));
#519 = DIRECTION('',(0.,0.,1.));
#520 = DIRECTION('',(1.,0.,0.));
#521 = ADVANCED_FACE('',(#522),#527,.F.);
#522 = FACE_BOUND('',#523,.F.);
#523 = EDGE_LOOP('',(#524,#525,#526));
#524 = ORIENTED_EDGE('',*,*,#353,.T.);
#525 = ORIENTED_EDGE('',*,*,#492,.F.);
#526 = ORIENTED_EDGE('',*,*,#508,.F.);
#527 = SPHERICAL_SURFACE('',#528,0.325);
#528 = AXIS2_PLACEMENT_3D('',#529,#530,#531);
#529 = CARTESIAN_POINT('',(4.,37.,27.));
#530 = DIRECTION('',(0.,0.,1.));
#531 = DIRECTION('',(1.,0.,0.));
#532 = ADVANCED_FACE('',(#533),#543,.T.);
#533 = FACE_BOUND('',#534,.T.);
#534 = EDGE_LOOP('',(#535,#536));
#535 = ORIENTED_EDGE('',*,*,#430,.T.);
#536 = ORIENTED_EDGE('',*,*,#537,.F.);
#537 = EDGE_CURVE('',#414,#422,#538,.T.);
#538 = CIRCLE('',#539,1.);
#539 = AXIS2_PLACEMENT_3D('',#540,#541,#542);
#540 = CARTESIAN_POINT('',(4.,25.,29.5));
#541 = DIRECTION('',(-1.,0.,0.));
#542 = DIRECTION('',(0.,0.,-1.));
#543 = SPHERICAL_SURFACE('',#544,1.);
#544 = AXIS2_PLACEMENT_3D('',#545,#546,#547);
#545 = CARTESIAN_POINT('',(4.,25.,29.5));
#546 = DIRECTION('',(0.,0.,1.));
#547 = DIRECTION('',(1.,0.,0.));
#548 = ADVANCED_FACE('',(#549),#578,.T.);
#549 = FACE_BOUND('',#550,.T.);
#550 = EDGE_LOOP('',(#551,#552,#553,#561,#570,#577));
#551 = ORIENTED_EDGE('',*,*,#537,.T.);
#552 = ORIENTED_EDGE('',*,*,#421,.T.);
#553 = ORIENTED_EDGE('',*,*,#554,.T.);
#554 = EDGE_CURVE('',#414,#555,#557,.T.);
#555 = VERTEX_POINT('',#556);
#556 = CARTESIAN_POINT('',(-18.,25.,28.5));
#557 = LINE('',#558,#559);
#558 = CARTESIAN_POINT('',(4.,25.,28.5));
#559 = VECTOR('',#560,1.);
#560 = DIRECTION('',(-1.,0.,0.));
#561 = ORIENTED_EDGE('',*,*,#562,.F.);
#562 = EDGE_CURVE('',#563,#555,#565,.T.);
#563 = VERTEX_POINT('',#564);
#564 = CARTESIAN_POINT('',(-18.,25.,30.5));
#565 = ELLIPSE('',#566,1.414213562373,1.);
#566 = AXIS2_PLACEMENT_3D('',#567,#568,#569);
#567 = CARTESIAN_POINT('',(-18.,25.,29.5));
#568 = DIRECTION('',(-0.707106781187,0.707106781187,0.));
#569 = DIRECTION('',(-0.707106781187,-0.707106781187,0.));
#570 = ORIENTED_EDGE('',*,*,#571,.F.);
#571 = EDGE_CURVE('',#555,#563,#572,.T.);
#572 = CIRCLE('',#573,1.);
#573 = AXIS2_PLACEMENT_3D('',#574,#575,#576);
#574 = CARTESIAN_POINT('',(-18.,25.,29.5));
#575 = DIRECTION('',(-1.,0.,0.));
#576 = DIRECTION('',(0.,0.,-1.));
#577 = ORIENTED_EDGE('',*,*,#554,.F.);
#578 = CYLINDRICAL_SURFACE('',#579,1.);
#579 = AXIS2_PLACEMENT_3D('',#580,#581,#582);
#580 = CARTESIAN_POINT('',(4.,25.,29.5));
#581 = DIRECTION('',(-1.,0.,0.));
#582 = DIRECTION('',(0.,0.,-1.));
#583 = ADVANCED_FACE('',(#584),#603,.F.);
#584 = FACE_BOUND('',#585,.F.);
#585 = EDGE_LOOP('',(#586,#595,#596));
#586 = ORIENTED_EDGE('',*,*,#587,.F.);
#587 = EDGE_CURVE('',#459,#588,#590,.T.);
#588 = VERTEX_POINT('',#589);
#589 = CARTESIAN_POINT('',(4.,37.,29.825));
#590 = CIRCLE('',#591,0.325);
#591 = AXIS2_PLACEMENT_3D('',#592,#593,#594);
#592 = CARTESIAN_POINT('',(4.,37.,29.5));
#593 = DIRECTION('',(-2.449293598295E-16,-1.,0.));
#594 = DIRECTION('',(1.,-2.449293598295E-16,0.));
#595 = ORIENTED_EDGE('',*,*,#484,.T.);
#596 = ORIENTED_EDGE('',*,*,#597,.F.);
#597 = EDGE_CURVE('',#588,#476,#598,.T.);
#598 = CIRCLE('',#599,0.325);
#599 = AXIS2_PLACEMENT_3D('',#600,#601,#602);
#600 = CARTESIAN_POINT('',(4.,37.,29.5));
#601 = DIRECTION('',(0.,-1.,0.));
#602 = DIRECTION('',(0.,0.,-1.));
#603 = SPHERICAL_SURFACE('',#604,0.325);
#604 = AXIS2_PLACEMENT_3D('',#605,#606,#607);
#605 = CARTESIAN_POINT('',(4.,37.,29.5));
#606 = DIRECTION('',(0.,0.,1.));
#607 = DIRECTION('',(1.,0.,0.));
#608 = ADVANCED_FACE('',(#609),#640,.F.);
#609 = FACE_BOUND('',#610,.F.);
#610 = EDGE_LOOP('',(#611,#612,#613,#621,#630,#637,#638,#639));
#611 = ORIENTED_EDGE('',*,*,#597,.T.);
#612 = ORIENTED_EDGE('',*,*,#475,.T.);
#613 = ORIENTED_EDGE('',*,*,#614,.T.);
#614 = EDGE_CURVE('',#467,#615,#617,.T.);
#615 = VERTEX_POINT('',#616);
#616 = CARTESIAN_POINT('',(4.,25.,29.175));
#617 = LINE('',#618,#619);
#618 = CARTESIAN_POINT('',(4.,37.,29.175));
#619 = VECTOR('',#620,1.);
#620 = DIRECTION('',(0.,-1.,0.));
#621 = ORIENTED_EDGE('',*,*,#622,.F.);
#622 = EDGE_CURVE('',#623,#615,#625,.T.);
#623 = VERTEX_POINT('',#624);
#624 = CARTESIAN_POINT('',(4.,25.,29.825));
#625 = ELLIPSE('',#626,0.459619407771,0.325);
#626 = AXIS2_PLACEMENT_3D('',#627,#628,#629);
#627 = CARTESIAN_POINT('',(4.,25.,29.5));
#628 = DIRECTION('',(-0.707106781187,-0.707106781187,0.));
#629 = DIRECTION('',(0.707106781187,-0.707106781187,0.));
#630 = ORIENTED_EDGE('',*,*,#631,.F.);
#631 = EDGE_CURVE('',#615,#623,#632,.T.);
#632 = CIRCLE('',#633,0.325);
#633 = AXIS2_PLACEMENT_3D('',#634,#635,#636);
#634 = CARTESIAN_POINT('',(4.,25.,29.5));
#635 = DIRECTION('',(0.,-1.,0.));
#636 = DIRECTION('',(0.,0.,-1.));
#637 = ORIENTED_EDGE('',*,*,#614,.F.);
#638 = ORIENTED_EDGE('',*,*,#466,.T.);
#639 = ORIENTED_EDGE('',*,*,#587,.T.);
#640 = CYLINDRICAL_SURFACE('',#641,0.325);
#641 = AXIS2_PLACEMENT_3D('',#642,#643,#644);
#642 = CARTESIAN_POINT('',(4.,37.,29.5));
#643 = DIRECTION('',(0.,-1.,0.));
#644 = DIRECTION('',(0.,0.,-1.));
#645 = ADVANCED_FACE('',(#646),#656,.T.);
#646 = FACE_BOUND('',#647,.T.);
#647 = EDGE_LOOP('',(#648,#649));
#648 = ORIENTED_EDGE('',*,*,#571,.T.);
#649 = ORIENTED_EDGE('',*,*,#650,.F.);
#650 = EDGE_CURVE('',#555,#563,#651,.T.);
#651 = CIRCLE('',#652,1.);
#652 = AXIS2_PLACEMENT_3D('',#653,#654,#655);
#653 = CARTESIAN_POINT('',(-18.,25.,29.5));
#654 = DIRECTION('',(0.,1.,0.));
#655 = DIRECTION('',(0.,0.,1.));
#656 = SPHERICAL_SURFACE('',#657,1.);
#657 = AXIS2_PLACEMENT_3D('',#658,#659,#660);
#658 = CARTESIAN_POINT('',(-18.,25.,29.5));
#659 = DIRECTION('',(0.,0.,1.));
#660 = DIRECTION('',(1.,0.,0.));
#661 = ADVANCED_FACE('',(#662),#700,.T.);
#662 = FACE_BOUND('',#663,.T.);
#663 = EDGE_LOOP('',(#664,#665,#666,#674,#683,#692,#699));
#664 = ORIENTED_EDGE('',*,*,#562,.T.);
#665 = ORIENTED_EDGE('',*,*,#650,.T.);
#666 = ORIENTED_EDGE('',*,*,#667,.T.);
#667 = EDGE_CURVE('',#563,#668,#670,.T.);
#668 = VERTEX_POINT('',#669);
#669 = CARTESIAN_POINT('',(-18.,28.,30.5));
#670 = LINE('',#671,#672);
#671 = CARTESIAN_POINT('',(-18.,25.,30.5));
#672 = VECTOR('',#673,1.);
#673 = DIRECTION('',(0.,1.,0.));
#674 = ORIENTED_EDGE('',*,*,#675,.F.);
#675 = EDGE_CURVE('',#676,#668,#678,.T.);
#676 = VERTEX_POINT('',#677);
#677 = CARTESIAN_POINT('',(-19.,28.,29.5));
#678 = CIRCLE('',#679,1.);
#679 = AXIS2_PLACEMENT_3D('',#680,#681,#682);
#680 = CARTESIAN_POINT('',(-18.,28.,29.5));
#681 = DIRECTION('',(0.,1.,0.));
#682 = DIRECTION('',(0.,0.,1.));
#683 = ORIENTED_EDGE('',*,*,#684,.F.);
#684 = EDGE_CURVE('',#685,#676,#687,.T.);
#685 = VERTEX_POINT('',#686);
#686 = CARTESIAN_POINT('',(-17.,28.,29.5));
#687 = ELLIPSE('',#688,1.414213562373,1.);
#688 = AXIS2_PLACEMENT_3D('',#689,#690,#691);
#689 = CARTESIAN_POINT('',(-18.,28.,29.5));
#690 = DIRECTION('',(0.,0.707106781187,-0.707106781187));
#691 = DIRECTION('',(0.,0.707106781187,0.707106781187));
#692 = ORIENTED_EDGE('',*,*,#693,.F.);
#693 = EDGE_CURVE('',#668,#685,#694,.T.);
#694 = CIRCLE('',#695,1.);
#695 = AXIS2_PLACEMENT_3D('',#696,#697,#698);
#696 = CARTESIAN_POINT('',(-18.,28.,29.5));
#697 = DIRECTION('',(0.,1.,0.));
#698 = DIRECTION('',(0.,0.,1.));
#699 = ORIENTED_EDGE('',*,*,#667,.F.);
#700 = CYLINDRICAL_SURFACE('',#701,1.);
#701 = AXIS2_PLACEMENT_3D('',#702,#703,#704);
#702 = CARTESIAN_POINT('',(-18.,25.,29.5));
#703 = DIRECTION('',(0.,1.,0.));
#704 = DIRECTION('',(0.,0.,1.));
#705 = ADVANCED_FACE('',(#706),#716,.F.);
#706 = FACE_BOUND('',#707,.F.);
#707 = EDGE_LOOP('',(#708,#709));
#708 = ORIENTED_EDGE('',*,*,#631,.T.);
#709 = ORIENTED_EDGE('',*,*,#710,.F.);
#710 = EDGE_CURVE('',#615,#623,#711,.T.);
#711 = CIRCLE('',#712,0.325);
#712 = AXIS2_PLACEMENT_3D('',#713,#714,#715);
#713 = CARTESIAN_POINT('',(4.,25.,29.5));
#714 = DIRECTION('',(-1.,0.,0.));
#715 = DIRECTION('',(0.,0.,-1.));
#716 = SPHERICAL_SURFACE('',#717,0.325);
#717 = AXIS2_PLACEMENT_3D('',#718,#719,#720);
#718 = CARTESIAN_POINT('',(4.,25.,29.5));
#719 = DIRECTION('',(0.,0.,1.));
#720 = DIRECTION('',(1.,0.,0.));
#721 = ADVANCED_FACE('',(#722),#751,.F.);
#722 = FACE_BOUND('',#723,.F.);
#723 = EDGE_LOOP('',(#724,#725,#726,#734,#743,#750));
#724 = ORIENTED_EDGE('',*,*,#710,.T.);
#725 = ORIENTED_EDGE('',*,*,#622,.T.);
#726 = ORIENTED_EDGE('',*,*,#727,.T.);
#727 = EDGE_CURVE('',#615,#728,#730,.T.);
#728 = VERTEX_POINT('',#729);
#729 = CARTESIAN_POINT('',(-18.,25.,29.175));
#730 = LINE('',#731,#732);
#731 = CARTESIAN_POINT('',(4.,25.,29.175));
#732 = VECTOR('',#733,1.);
#733 = DIRECTION('',(-1.,0.,0.));
#734 = ORIENTED_EDGE('',*,*,#735,.F.);
#735 = EDGE_CURVE('',#736,#728,#738,.T.);
#736 = VERTEX_POINT('',#737);
#737 = CARTESIAN_POINT('',(-18.,25.,29.825));
#738 = ELLIPSE('',#739,0.459619407771,0.325);
#739 = AXIS2_PLACEMENT_3D('',#740,#741,#742);
#740 = CARTESIAN_POINT('',(-18.,25.,29.5));
#741 = DIRECTION('',(-0.707106781187,0.707106781187,0.));
#742 = DIRECTION('',(-0.707106781187,-0.707106781187,0.));
#743 = ORIENTED_EDGE('',*,*,#744,.F.);
#744 = EDGE_CURVE('',#728,#736,#745,.T.);
#745 = CIRCLE('',#746,0.325);
#746 = AXIS2_PLACEMENT_3D('',#747,#748,#749);
#747 = CARTESIAN_POINT('',(-18.,25.,29.5));
#748 = DIRECTION('',(-1.,0.,0.));
#749 = DIRECTION('',(0.,0.,-1.));
#750 = ORIENTED_EDGE('',*,*,#727,.F.);
#751 = CYLINDRICAL_SURFACE('',#752,0.325);
#752 = AXIS2_PLACEMENT_3D('',#753,#754,#755);
#753 = CARTESIAN_POINT('',(4.,25.,29.5));
#754 = DIRECTION('',(-1.,0.,0.));
#755 = DIRECTION('',(0.,0.,-1.));
#756 = ADVANCED_FACE('',(#757),#768,.T.);
#757 = FACE_BOUND('',#758,.T.);
#758 = EDGE_LOOP('',(#759,#760,#767));
#759 = ORIENTED_EDGE('',*,*,#693,.T.);
#760 = ORIENTED_EDGE('',*,*,#761,.F.);
#761 = EDGE_CURVE('',#676,#685,#762,.T.);
#762 = CIRCLE('',#763,1.);
#763 = AXIS2_PLACEMENT_3D('',#764,#765,#766);
#764 = CARTESIAN_POINT('',(-18.,28.,29.5));
#765 = DIRECTION('',(0.,0.,-1.));
#766 = DIRECTION('',(-1.,0.,0.));
#767 = ORIENTED_EDGE('',*,*,#675,.T.);
#768 = SPHERICAL_SURFACE('',#769,1.);
#769 = AXIS2_PLACEMENT_3D('',#770,#771,#772);
#770 = CARTESIAN_POINT('',(-18.,28.,29.5));
#771 = DIRECTION('',(0.,0.,1.));
#772 = DIRECTION('',(1.,0.,0.));
#773 = ADVANCED_FACE('',(#774),#803,.T.);
#774 = FACE_BOUND('',#775,.T.);
#775 = EDGE_LOOP('',(#776,#777,#778,#786,#795,#802));
#776 = ORIENTED_EDGE('',*,*,#761,.T.);
#777 = ORIENTED_EDGE('',*,*,#684,.T.);
#778 = ORIENTED_EDGE('',*,*,#779,.T.);
#779 = EDGE_CURVE('',#676,#780,#782,.T.);
#780 = VERTEX_POINT('',#781);
#781 = CARTESIAN_POINT('',(-19.,28.,27.6));
#782 = LINE('',#783,#784);
#783 = CARTESIAN_POINT('',(-19.,28.,29.5));
#784 = VECTOR('',#785,1.);
#785 = DIRECTION('',(0.,0.,-1.));
#786 = ORIENTED_EDGE('',*,*,#787,.F.);
#787 = EDGE_CURVE('',#788,#780,#790,.T.);
#788 = VERTEX_POINT('',#789);
#789 = CARTESIAN_POINT('',(-17.,28.,27.6));
#790 = CIRCLE('',#791,1.);
#791 = AXIS2_PLACEMENT_3D('',#792,#793,#794);
#792 = CARTESIAN_POINT('',(-18.,28.,27.6));
#793 = DIRECTION('',(0.,0.,-1.));
#794 = DIRECTION('',(-1.,0.,0.));
#795 = ORIENTED_EDGE('',*,*,#796,.F.);
#796 = EDGE_CURVE('',#780,#788,#797,.T.);
#797 = CIRCLE('',#798,1.);
#798 = AXIS2_PLACEMENT_3D('',#799,#800,#801);
#799 = CARTESIAN_POINT('',(-18.,28.,27.6));
#800 = DIRECTION('',(0.,0.,-1.));
#801 = DIRECTION('',(-1.,0.,0.));
#802 = ORIENTED_EDGE('',*,*,#779,.F.);
#803 = CYLINDRICAL_SURFACE('',#804,1.);
#804 = AXIS2_PLACEMENT_3D('',#805,#806,#807);
#805 = CARTESIAN_POINT('',(-18.,28.,29.5));
#806 = DIRECTION('',(0.,0.,-1.));
#807 = DIRECTION('',(-1.,0.,0.));
#808 = ADVANCED_FACE('',(#809),#819,.F.);
#809 = FACE_BOUND('',#810,.F.);
#810 = EDGE_LOOP('',(#811,#812));
#811 = ORIENTED_EDGE('',*,*,#744,.T.);
#812 = ORIENTED_EDGE('',*,*,#813,.F.);
#813 = EDGE_CURVE('',#728,#736,#814,.T.);
#814 = CIRCLE('',#815,0.325);
#815 = AXIS2_PLACEMENT_3D('',#816,#817,#818);
#816 = CARTESIAN_POINT('',(-18.,25.,29.5));
#817 = DIRECTION('',(0.,1.,0.));
#818 = DIRECTION('',(0.,0.,1.));
#819 = SPHERICAL_SURFACE('',#820,0.325);
#820 = AXIS2_PLACEMENT_3D('',#821,#822,#823);
#821 = CARTESIAN_POINT('',(-18.,25.,29.5));
#822 = DIRECTION('',(0.,0.,1.));
#823 = DIRECTION('',(1.,0.,0.));
#824 = ADVANCED_FACE('',(#825),#863,.F.);
#825 = FACE_BOUND('',#826,.F.);
#826 = EDGE_LOOP('',(#827,#828,#829,#837,#846,#855,#862));
#827 = ORIENTED_EDGE('',*,*,#735,.T.);
#828 = ORIENTED_EDGE('',*,*,#813,.T.);
#829 = ORIENTED_EDGE('',*,*,#830,.T.);
#830 = EDGE_CURVE('',#736,#831,#833,.T.);
#831 = VERTEX_POINT('',#832);
#832 = CARTESIAN_POINT('',(-18.,28.,29.825));
#833 = LINE('',#834,#835);
#834 = CARTESIAN_POINT('',(-18.,25.,29.825));
#835 = VECTOR('',#836,1.);
#836 = DIRECTION('',(0.,1.,0.));
#837 = ORIENTED_EDGE('',*,*,#838,.F.);
#838 = EDGE_CURVE('',#839,#831,#841,.T.);
#839 = VERTEX_POINT('',#840);
#840 = CARTESIAN_POINT('',(-18.325,28.,29.5));
#841 = CIRCLE('',#842,0.325);
#842 = AXIS2_PLACEMENT_3D('',#843,#844,#845);
#843 = CARTESIAN_POINT('',(-18.,28.,29.5));
#844 = DIRECTION('',(0.,1.,0.));
#845 = DIRECTION('',(0.,0.,1.));
#846 = ORIENTED_EDGE('',*,*,#847,.F.);
#847 = EDGE_CURVE('',#848,#839,#850,.T.);
#848 = VERTEX_POINT('',#849);
#849 = CARTESIAN_POINT('',(-17.675,28.,29.5));
#850 = ELLIPSE('',#851,0.459619407771,0.325);
#851 = AXIS2_PLACEMENT_3D('',#852,#853,#854);
#852 = CARTESIAN_POINT('',(-18.,28.,29.5));
#853 = DIRECTION('',(0.,0.707106781187,-0.707106781187));
#854 = DIRECTION('',(0.,0.707106781187,0.707106781187));
#855 = ORIENTED_EDGE('',*,*,#856,.F.);
#856 = EDGE_CURVE('',#831,#848,#857,.T.);
#857 = CIRCLE('',#858,0.325);
#858 = AXIS2_PLACEMENT_3D('',#859,#860,#861);
#859 = CARTESIAN_POINT('',(-18.,28.,29.5));
#860 = DIRECTION('',(0.,1.,0.));
#861 = DIRECTION('',(0.,0.,1.));
#862 = ORIENTED_EDGE('',*,*,#830,.F.);
#863 = CYLINDRICAL_SURFACE('',#864,0.325);
#864 = AXIS2_PLACEMENT_3D('',#865,#866,#867);
#865 = CARTESIAN_POINT('',(-18.,25.,29.5));
#866 = DIRECTION('',(0.,1.,0.));
#867 = DIRECTION('',(0.,0.,1.));
#868 = ADVANCED_FACE('',(#869,#873),#893,.F.);
#869 = FACE_BOUND('',#870,.F.);
#870 = EDGE_LOOP('',(#871,#872));
#871 = ORIENTED_EDGE('',*,*,#796,.F.);
#872 = ORIENTED_EDGE('',*,*,#787,.F.);
#873 = FACE_BOUND('',#874,.F.);
#874 = EDGE_LOOP('',(#875,#886));
#875 = ORIENTED_EDGE('',*,*,#876,.T.);
#876 = EDGE_CURVE('',#877,#879,#881,.T.);
#877 = VERTEX_POINT('',#878);
#878 = CARTESIAN_POINT('',(-17.675,28.,27.6));
#879 = VERTEX_POINT('',#880);
#880 = CARTESIAN_POINT('',(-18.325,28.,27.6));
#881 = CIRCLE('',#882,0.325);
#882 = AXIS2_PLACEMENT_3D('',#883,#884,#885);
#883 = CARTESIAN_POINT('',(-18.,28.,27.6));
#884 = DIRECTION('',(0.,0.,-1.));
#885 = DIRECTION('',(-1.,0.,0.));
#886 = ORIENTED_EDGE('',*,*,#887,.T.);
#887 = EDGE_CURVE('',#879,#877,#888,.T.);
#888 = CIRCLE('',#889,0.325);
#889 = AXIS2_PLACEMENT_3D('',#890,#891,#892);
#890 = CARTESIAN_POINT('',(-18.,28.,27.6));
#891 = DIRECTION('',(0.,0.,-1.));
#892 = DIRECTION('',(-1.,0.,0.));
#893 = PLANE('',#894);
#894 = AXIS2_PLACEMENT_3D('',#895,#896,#897);
#895 = CARTESIAN_POINT('',(-21.,25.,27.6));
#896 = DIRECTION('',(0.,0.,1.));
#897 = DIRECTION('',(1.,0.,0.));
#898 = ADVANCED_FACE('',(#899),#910,.F.);
#899 = FACE_BOUND('',#900,.F.);
#900 = EDGE_LOOP('',(#901,#902,#909));
#901 = ORIENTED_EDGE('',*,*,#856,.T.);
#902 = ORIENTED_EDGE('',*,*,#903,.F.);
#903 = EDGE_CURVE('',#839,#848,#904,.T.);
#904 = CIRCLE('',#905,0.325);
#905 = AXIS2_PLACEMENT_3D('',#906,#907,#908);
#906 = CARTESIAN_POINT('',(-18.,28.,29.5));
#907 = DIRECTION('',(0.,0.,-1.));
#908 = DIRECTION('',(-1.,0.,0.));
#909 = ORIENTED_EDGE('',*,*,#838,.T.);
#910 = SPHERICAL_SURFACE('',#911,0.325);
#911 = AXIS2_PLACEMENT_3D('',#912,#913,#914);
#912 = CARTESIAN_POINT('',(-18.,28.,29.5));
#913 = DIRECTION('',(0.,0.,1.));
#914 = DIRECTION('',(1.,0.,0.));
#915 = ADVANCED_FACE('',(#916),#929,.F.);
#916 = FACE_BOUND('',#917,.F.);
#917 = EDGE_LOOP('',(#918,#919,#920,#926,#927,#928));
#918 = ORIENTED_EDGE('',*,*,#903,.T.);
#919 = ORIENTED_EDGE('',*,*,#847,.T.);
#920 = ORIENTED_EDGE('',*,*,#921,.T.);
#921 = EDGE_CURVE('',#839,#879,#922,.T.);
#922 = LINE('',#923,#924);
#923 = CARTESIAN_POINT('',(-18.325,28.,29.5));
#924 = VECTOR('',#925,1.);
#925 = DIRECTION('',(0.,0.,-1.));
#926 = ORIENTED_EDGE('',*,*,#876,.F.);
#927 = ORIENTED_EDGE('',*,*,#887,.F.);
#928 = ORIENTED_EDGE('',*,*,#921,.F.);
#929 = CYLINDRICAL_SURFACE('',#930,0.325);
#930 = AXIS2_PLACEMENT_3D('',#931,#932,#933);
#931 = CARTESIAN_POINT('',(-18.,28.,29.5));
#932 = DIRECTION('',(0.,0.,-1.));
#933 = DIRECTION('',(-1.,0.,0.));
#934 = ( GEOMETRIC_REPRESENTATION_CONTEXT(3) 
GLOBAL_UNCERTAINTY_ASSIGNED_CONTEXT((#938)) GLOBAL_UNIT_ASSIGNED_CONTEXT
((#935,#936,#937)) REPRESENTATION_CONTEXT('Context #1',
  '3D Context with UNIT and UNCERTAINTY') );
#935 = ( LENGTH_UNIT() NAMED_UNIT(*) SI_UNIT(.MILLI.,.METRE.) );
#936 = ( NAMED_UNIT(*) PLANE_ANGLE_UNIT() SI_UNIT($,.RADIAN.) );
#937 = ( NAMED_UNIT(*) SI_UNIT($,.STERADIAN.) SOLID_ANGLE_UNIT() );
#938 = UNCERTAINTY_MEASURE_WITH_UNIT(LENGTH_MEASURE(1.E-07),#935,
  'distance_accuracy_value','confusion accuracy');
#939 = PRODUCT_RELATED_PRODUCT_CATEGORY('part',$,(#7));
ENDSEC;
END-ISO-10303-21;
