ISO-10303-21;
HEADER;
FILE_DESCRIPTION(('FreeCAD Model'),'2;1');
FILE_NAME('Open CASCADE Shape Model','2026-09-30T01:44:52',('FreeCAD'),(
    'FreeCAD'),'Open CASCADE STEP processor 7.8','FreeCAD','Unknown');
FILE_SCHEMA(('AUTOMOTIVE_DESIGN { 1 0 10303 214 1 1 1 1 }'));
ENDSEC;
DATA;
#1 = APPLICATION_PROTOCOL_DEFINITION('international standard',
  'automotive_design',2000,#2);
#2 = APPLICATION_CONTEXT(
  'core data for automotive mechanical design processes');
#3 = SHAPE_DEFINITION_REPRESENTATION(#4,#10);
#4 = PRODUCT_DEFINITION_SHAPE('','',#5);
#5 = PRODUCT_DEFINITION('design','',#6,#9);
#6 = PRODUCT_DEFINITION_FORMATION('','',#7);
#7 = PRODUCT('Open CASCADE STEP translator 7.8 50',
  'Open CASCADE STEP translator 7.8 50','',(#8));
#8 = PRODUCT_CONTEXT('',#2,'mechanical');
#9 = PRODUCT_DEFINITION_CONTEXT('part definition',#2,'design');
#10 = ADVANCED_BREP_SHAPE_REPRESENTATION('',(#11,#15),#1248);
#11 = AXIS2_PLACEMENT_3D('',#12,#13,#14);
#12 = CARTESIAN_POINT('',(0.,0.,0.));
#13 = DIRECTION('',(0.,0.,1.));
#14 = DIRECTION('',(1.,0.,-0.));
#15 = MANIFOLD_SOLID_BREP('',#16);
#16 = CLOSED_SHELL('',(#17,#79,#206,#294,#310,#354,#388,#404,#449,#465,
    #509,#560,#570,#586,#631,#656,#673,#718,#769,#779,#830,#841,#866,
    #883,#928,#987,#997,#1048,#1059,#1101,#1112,#1171,#1181,#1211,#1237)
  );
#17 = ADVANCED_FACE('',(#18),#74,.T.);
#18 = FACE_BOUND('',#19,.T.);
#19 = EDGE_LOOP('',(#20,#31,#40,#49,#58,#67));
#20 = ORIENTED_EDGE('',*,*,#21,.T.);
#21 = EDGE_CURVE('',#22,#24,#26,.T.);
#22 = VERTEX_POINT('',#23);
#23 = CARTESIAN_POINT('',(-5.,-17.,4.5));
#24 = VERTEX_POINT('',#25);
#25 = CARTESIAN_POINT('',(-4.240065792321,-17.,4.85));
#26 = CIRCLE('',#27,1.);
#27 = AXIS2_PLACEMENT_3D('',#28,#29,#30);
#28 = CARTESIAN_POINT('',(-5.,-17.,5.5));
#29 = DIRECTION('',(-2.449293598295E-16,-1.,0.));
#30 = DIRECTION('',(1.,-2.449293598295E-16,0.));
#31 = ORIENTED_EDGE('',*,*,#32,.T.);
#32 = EDGE_CURVE('',#24,#33,#35,.T.);
#33 = VERTEX_POINT('',#34);
#34 = CARTESIAN_POINT('',(-4.240065792321,-17.,6.15));
#35 = CIRCLE('',#36,0.65);
#36 = AXIS2_PLACEMENT_3D('',#37,#38,#39);
#37 = CARTESIAN_POINT('',(-4.240065792321,-17.,5.5));
#38 = DIRECTION('',(-1.,0.,0.));
#39 = DIRECTION('',(0.,0.,-1.));
#40 = ORIENTED_EDGE('',*,*,#41,.T.);
#41 = EDGE_CURVE('',#33,#42,#44,.T.);
#42 = VERTEX_POINT('',#43);
#43 = CARTESIAN_POINT('',(-5.,-17.,6.5));
#44 = CIRCLE('',#45,1.);
#45 = AXIS2_PLACEMENT_3D('',#46,#47,#48);
#46 = CARTESIAN_POINT('',(-5.,-17.,5.5));
#47 = DIRECTION('',(-2.449293598295E-16,-1.,0.));
#48 = DIRECTION('',(1.,-2.449293598295E-16,0.));
#49 = ORIENTED_EDGE('',*,*,#50,.F.);
#50 = EDGE_CURVE('',#51,#42,#53,.T.);
#51 = VERTEX_POINT('',#52);
#52 = CARTESIAN_POINT('',(-5.759934207679,-17.,6.15));
#53 = CIRCLE('',#54,1.);
#54 = AXIS2_PLACEMENT_3D('',#55,#56,#57);
#55 = CARTESIAN_POINT('',(-5.,-17.,5.5));
#56 = DIRECTION('',(0.,1.,0.));
#57 = DIRECTION('',(0.,0.,1.));
#58 = ORIENTED_EDGE('',*,*,#59,.F.);
#59 = EDGE_CURVE('',#60,#51,#62,.T.);
#60 = VERTEX_POINT('',#61);
#61 = CARTESIAN_POINT('',(-5.759934207679,-17.,4.85));
#62 = CIRCLE('',#63,0.65);
#63 = AXIS2_PLACEMENT_3D('',#64,#65,#66);
#64 = CARTESIAN_POINT('',(-5.759934207679,-17.,5.5));
#65 = DIRECTION('',(-1.,0.,0.));
#66 = DIRECTION('',(0.,0.,-1.));
#67 = ORIENTED_EDGE('',*,*,#68,.F.);
#68 = EDGE_CURVE('',#22,#60,#69,.T.);
#69 = CIRCLE('',#70,1.);
#70 = AXIS2_PLACEMENT_3D('',#71,#72,#73);
#71 = CARTESIAN_POINT('',(-5.,-17.,5.5));
#72 = DIRECTION('',(0.,1.,0.));
#73 = DIRECTION('',(0.,0.,1.));
#74 = SPHERICAL_SURFACE('',#75,1.);
#75 = AXIS2_PLACEMENT_3D('',#76,#77,#78);
#76 = CARTESIAN_POINT('',(-5.,-17.,5.5));
#77 = DIRECTION('',(0.,0.,1.));
#78 = DIRECTION('',(1.,0.,0.));
#79 = ADVANCED_FACE('',(#80),#201,.T.);
#80 = FACE_BOUND('',#81,.T.);
#81 = EDGE_LOOP('',(#82,#83,#84,#129,#130,#138,#147,#154,#155,#156));
#82 = ORIENTED_EDGE('',*,*,#21,.F.);
#83 = ORIENTED_EDGE('',*,*,#68,.T.);
#84 = ORIENTED_EDGE('',*,*,#85,.F.);
#85 = EDGE_CURVE('',#51,#60,#86,.T.);
#86 = B_SPLINE_CURVE_WITH_KNOTS('',6,(#87,#88,#89,#90,#91,#92,#93,#94,
    #95,#96,#97,#98,#99,#100,#101,#102,#103,#104,#105,#106,#107,#108,
    #109,#110,#111,#112,#113,#114,#115,#116,#117,#118,#119,#120,#121,
    #122,#123,#124,#125,#126,#127,#128),.UNSPECIFIED.,.F.,.F.,(7,5,5,5,5
    ,5,5,5,7),(0.,0.101929164907,0.240220563609,0.364348511712,
    0.500439670145,0.63198201719,0.761139012904,0.892803785165,1.),
  .UNSPECIFIED.);
#87 = CARTESIAN_POINT('',(-5.759934207679,-17.0000006,6.15));
#88 = CARTESIAN_POINT('',(-5.759934179583,-16.96441596436,6.150000032847
    ));
#89 = CARTESIAN_POINT('',(-5.761933670824,-16.92891185203,6.147662341926
    ));
#90 = CARTESIAN_POINT('',(-5.765915851277,-16.89369601645,6.143006779818
    ));
#91 = CARTESIAN_POINT('',(-5.771746151184,-16.85898347081,6.136080939235
    ));
#92 = CARTESIAN_POINT('',(-5.779171830658,-16.82502049992,6.126969227053
    ));
#93 = CARTESIAN_POINT('',(-5.799654239306,-16.74740473606,6.100765917746
    ));
#94 = CARTESIAN_POINT('',(-5.813795256093,-16.70453978396,6.081960941479
    ));
#95 = CARTESIAN_POINT('',(-5.829616715914,-16.66366944034,6.059679076543
    ));
#96 = CARTESIAN_POINT('',(-5.846418862097,-16.62501028981,6.03411851606)
  );
#97 = CARTESIAN_POINT('',(-5.863567725669,-16.58879806173,6.005497564892
    ));
#98 = CARTESIAN_POINT('',(-5.895712104872,-16.5251577462,5.945789916777)
  );
#99 = CARTESIAN_POINT('',(-5.910778377927,-16.49715076774,5.915200549675
    ));
#100 = CARTESIAN_POINT('',(-5.925296140533,-16.47143237981,
    5.882414606778));
#101 = CARTESIAN_POINT('',(-5.938901481285,-16.44819218739,
    5.847593221693));
#102 = CARTESIAN_POINT('',(-5.951275129499,-16.42761885102,
    5.810909955461));
#103 = CARTESIAN_POINT('',(-5.974054009346,-16.39047839845,
    5.730497904072));
#104 = CARTESIAN_POINT('',(-5.984162539267,-16.37447612122,
    5.686403317629));
#105 = CARTESIAN_POINT('',(-5.9920388785,-16.36224587784,5.64071038324)
  );
#106 = CARTESIAN_POINT('',(-5.997385184393,-16.35402341148,
    5.593913301984));
#107 = CARTESIAN_POINT('',(-6.000042462713,-16.34993467271,
    5.546533802257));
#108 = CARTESIAN_POINT('',(-5.999958153501,-16.35006437926,
    5.453244310833));
#109 = CARTESIAN_POINT('',(-5.997394285863,-16.35400931101,5.40745853005
    ));
#110 = CARTESIAN_POINT('',(-5.992319783248,-16.36181595598,
    5.362210191798));
#111 = CARTESIAN_POINT('',(-5.984876625479,-16.37337118262,5.3179739467)
  );
#112 = CARTESIAN_POINT('',(-5.975328692821,-16.38846529767,
    5.275200906953));
#113 = CARTESIAN_POINT('',(-5.952982730916,-16.42478071959,5.19412438552
    ));
#114 = CARTESIAN_POINT('',(-5.940243400873,-16.44589109118,
    5.155742334713));
#115 = CARTESIAN_POINT('',(-5.926142136706,-16.46990645132,
    5.119359909222));
#116 = CARTESIAN_POINT('',(-5.911036512022,-16.49661409729,
    5.085174754397));
#117 = CARTESIAN_POINT('',(-5.895336665586,-16.52579968437,
    5.053369584103));
#118 = CARTESIAN_POINT('',(-5.863369853701,-16.58929981314,
    4.994290247598));
#119 = CARTESIAN_POINT('',(-5.847065374489,-16.62376671929,
    4.967056745141));
#120 = CARTESIAN_POINT('',(-5.831073459834,-16.6604509105,4.942595128238
    ));
#121 = CARTESIAN_POINT('',(-5.815937486963,-16.69915342015,
    4.921090967876));
#122 = CARTESIAN_POINT('',(-5.802256047618,-16.73968993342,
    4.902717032862));
#123 = CARTESIAN_POINT('',(-5.781129277583,-16.81627633526,4.87543870371
    ));
#124 = CARTESIAN_POINT('',(-5.772977980408,-16.8518309966,4.865383785898
    ));
#125 = CARTESIAN_POINT('',(-5.766548827947,-16.88824692507,
    4.857733210231));
#126 = CARTESIAN_POINT('',(-5.762146462005,-16.9252411234,4.852586450357
    ));
#127 = CARTESIAN_POINT('',(-5.759934207679,-16.9625701565,4.85));
#128 = CARTESIAN_POINT('',(-5.759934207679,-17.,4.85));
#129 = ORIENTED_EDGE('',*,*,#50,.T.);
#130 = ORIENTED_EDGE('',*,*,#131,.T.);
#131 = EDGE_CURVE('',#42,#132,#134,.T.);
#132 = VERTEX_POINT('',#133);
#133 = CARTESIAN_POINT('',(-5.,24.,6.5));
#134 = LINE('',#135,#136);
#135 = CARTESIAN_POINT('',(-5.,-17.,6.5));
#136 = VECTOR('',#137,1.);
#137 = DIRECTION('',(0.,1.,0.));
#138 = ORIENTED_EDGE('',*,*,#139,.F.);
#139 = EDGE_CURVE('',#140,#132,#142,.T.);
#140 = VERTEX_POINT('',#141);
#141 = CARTESIAN_POINT('',(-5.,24.,4.5));
#142 = ELLIPSE('',#143,1.414213562373,1.);
#143 = AXIS2_PLACEMENT_3D('',#144,#145,#146);
#144 = CARTESIAN_POINT('',(-5.,24.,5.5));
#145 = DIRECTION('',(-0.707106781187,0.707106781187,0.));
#146 = DIRECTION('',(0.707106781187,0.707106781187,0.));
#147 = ORIENTED_EDGE('',*,*,#148,.F.);
#148 = EDGE_CURVE('',#132,#140,#149,.T.);
#149 = CIRCLE('',#150,1.);
#150 = AXIS2_PLACEMENT_3D('',#151,#152,#153);
#151 = CARTESIAN_POINT('',(-5.,24.,5.5));
#152 = DIRECTION('',(0.,1.,0.));
#153 = DIRECTION('',(0.,0.,1.));
#154 = ORIENTED_EDGE('',*,*,#131,.F.);
#155 = ORIENTED_EDGE('',*,*,#41,.F.);
#156 = ORIENTED_EDGE('',*,*,#157,.T.);
#157 = EDGE_CURVE('',#33,#24,#158,.T.);
#158 = B_SPLINE_CURVE_WITH_KNOTS('',6,(#159,#160,#161,#162,#163,#164,
    #165,#166,#167,#168,#169,#170,#171,#172,#173,#174,#175,#176,#177,
    #178,#179,#180,#181,#182,#183,#184,#185,#186,#187,#188,#189,#190,
    #191,#192,#193,#194,#195,#196,#197,#198,#199,#200),.UNSPECIFIED.,.F.
  ,.F.,(7,5,5,5,5,5,5,5,7),(0.,0.10192916492,0.240220563639,
    0.364348511723,0.500439670094,0.631982017078,0.761139012795,
    0.892803785116,1.),.UNSPECIFIED.);
#159 = CARTESIAN_POINT('',(-4.240065792321,-17.0000006,6.15));
#160 = CARTESIAN_POINT('',(-4.240065820417,-16.96441596436,
    6.150000032847));
#161 = CARTESIAN_POINT('',(-4.238066329176,-16.92891185203,
    6.147662341926));
#162 = CARTESIAN_POINT('',(-4.234084148723,-16.89369601645,
    6.143006779818));
#163 = CARTESIAN_POINT('',(-4.228253848816,-16.85898347081,
    6.136080939235));
#164 = CARTESIAN_POINT('',(-4.220828169342,-16.82502049992,
    6.126969227053));
#165 = CARTESIAN_POINT('',(-4.200345760694,-16.74740473606,
    6.100765917746));
#166 = CARTESIAN_POINT('',(-4.186204743907,-16.70453978396,
    6.081960941479));
#167 = CARTESIAN_POINT('',(-4.170383284086,-16.66366944034,
    6.059679076543));
#168 = CARTESIAN_POINT('',(-4.153581137903,-16.62501028981,6.03411851606
    ));
#169 = CARTESIAN_POINT('',(-4.136432274331,-16.58879806173,
    6.005497564892));
#170 = CARTESIAN_POINT('',(-4.104287895133,-16.52515774621,
    5.945789916785));
#171 = CARTESIAN_POINT('',(-4.089221622071,-16.49715076773,
    5.915200549674));
#172 = CARTESIAN_POINT('',(-4.074703859463,-16.47143237981,
    5.882414606768));
#173 = CARTESIAN_POINT('',(-4.061098518715,-16.44819218739,
    5.847593221689));
#174 = CARTESIAN_POINT('',(-4.048724870504,-16.42761885103,
    5.810909955473));
#175 = CARTESIAN_POINT('',(-4.025945990654,-16.39047839845,
    5.730497904072));
#176 = CARTESIAN_POINT('',(-4.015837460733,-16.37447612122,
    5.686403317629));
#177 = CARTESIAN_POINT('',(-4.0079611215,-16.36224587784,5.64071038324)
  );
#178 = CARTESIAN_POINT('',(-4.002614815607,-16.35402341148,
    5.593913301984));
#179 = CARTESIAN_POINT('',(-3.999957537287,-16.34993467271,
    5.546533802257));
#180 = CARTESIAN_POINT('',(-4.000041846499,-16.35006437926,
    5.453244310833));
#181 = CARTESIAN_POINT('',(-4.002605714137,-16.35400931101,5.40745853005
    ));
#182 = CARTESIAN_POINT('',(-4.007680216752,-16.36181595598,
    5.362210191798));
#183 = CARTESIAN_POINT('',(-4.015123374521,-16.37337118262,5.3179739467)
  );
#184 = CARTESIAN_POINT('',(-4.024671307179,-16.38846529767,
    5.275200906953));
#185 = CARTESIAN_POINT('',(-4.047017269089,-16.4247807196,5.194124385501
    ));
#186 = CARTESIAN_POINT('',(-4.059756599127,-16.44589109118,
    5.155742334719));
#187 = CARTESIAN_POINT('',(-4.073857863288,-16.46990645131,
    5.119359909238));
#188 = CARTESIAN_POINT('',(-4.088963487975,-16.49661409728,5.0851747544)
  );
#189 = CARTESIAN_POINT('',(-4.104663334421,-16.52579968439,
    5.053369584091));
#190 = CARTESIAN_POINT('',(-4.136630146299,-16.58929981314,
    4.994290247598));
#191 = CARTESIAN_POINT('',(-4.152934625511,-16.62376671929,
    4.967056745141));
#192 = CARTESIAN_POINT('',(-4.168926540166,-16.6604509105,4.942595128238
    ));
#193 = CARTESIAN_POINT('',(-4.184062513038,-16.69915342015,
    4.921090967876));
#194 = CARTESIAN_POINT('',(-4.197743952382,-16.73968993342,
    4.902717032862));
#195 = CARTESIAN_POINT('',(-4.218870722417,-16.81627633526,4.87543870371
    ));
#196 = CARTESIAN_POINT('',(-4.227022019592,-16.8518309966,4.865383785898
    ));
#197 = CARTESIAN_POINT('',(-4.233451172053,-16.88824692507,
    4.857733210231));
#198 = CARTESIAN_POINT('',(-4.237853537995,-16.9252411234,4.852586450357
    ));
#199 = CARTESIAN_POINT('',(-4.240065792321,-16.9625701565,4.85));
#200 = CARTESIAN_POINT('',(-4.240065792321,-17.,4.85));
#201 = CYLINDRICAL_SURFACE('',#202,1.);
#202 = AXIS2_PLACEMENT_3D('',#203,#204,#205);
#203 = CARTESIAN_POINT('',(-5.,-17.,5.5));
#204 = DIRECTION('',(0.,1.,0.));
#205 = DIRECTION('',(0.,0.,1.));
#206 = ADVANCED_FACE('',(#207,#220),#289,.F.);
#207 = FACE_BOUND('',#208,.F.);
#208 = EDGE_LOOP('',(#209,#210,#216,#217,#218,#219));
#209 = ORIENTED_EDGE('',*,*,#157,.T.);
#210 = ORIENTED_EDGE('',*,*,#211,.T.);
#211 = EDGE_CURVE('',#24,#60,#212,.T.);
#212 = LINE('',#213,#214);
#213 = CARTESIAN_POINT('',(14.,-17.,4.85));
#214 = VECTOR('',#215,1.);
#215 = DIRECTION('',(-1.,0.,0.));
#216 = ORIENTED_EDGE('',*,*,#85,.F.);
#217 = ORIENTED_EDGE('',*,*,#59,.F.);
#218 = ORIENTED_EDGE('',*,*,#211,.F.);
#219 = ORIENTED_EDGE('',*,*,#32,.T.);
#220 = FACE_BOUND('',#221,.F.);
#221 = EDGE_LOOP('',(#222));
#222 = ORIENTED_EDGE('',*,*,#223,.F.);
#223 = EDGE_CURVE('',#224,#224,#226,.T.);
#224 = VERTEX_POINT('',#225);
#225 = CARTESIAN_POINT('',(-5.,-16.43708348754,5.825));
#226 = B_SPLINE_CURVE_WITH_KNOTS('',6,(#227,#228,#229,#230,#231,#232,
    #233,#234,#235,#236,#237,#238,#239,#240,#241,#242,#243,#244,#245,
    #246,#247,#248,#249,#250,#251,#252,#253,#254,#255,#256,#257,#258,
    #259,#260,#261,#262,#263,#264,#265,#266,#267,#268,#269,#270,#271,
    #272,#273,#274,#275,#276,#277,#278,#279,#280,#281,#282,#283,#284,
    #285,#286,#287,#288),.UNSPECIFIED.,.T.,.F.,(7,5,5,5,5,5,5,5,5,5,5,5,
    7),(0.,7.032058865522E-02,0.16751131588,0.249998491325,
    0.332833634523,0.429797040031,0.499997952631,0.570319117177,
    0.667510640347,0.749998491321,0.832834312898,0.929798512489,1.),
  .UNSPECIFIED.);
#227 = CARTESIAN_POINT('',(-5.,-16.43708348754,5.825));
#228 = CARTESIAN_POINT('',(-4.975141564975,-16.43708348754,5.825));
#229 = CARTESIAN_POINT('',(-4.950341370511,-16.43576620287,
    5.822718327874));
#230 = CARTESIAN_POINT('',(-4.925867530528,-16.43314311808,
    5.818175324957));
#231 = CARTESIAN_POINT('',(-4.901989105692,-16.42934376099,5.81143373878
    ));
#232 = CARTESIAN_POINT('',(-4.87899640127,-16.42461369007,5.802610974604
    ));
#233 = CARTESIAN_POINT('',(-4.827010071276,-16.41182846393,
    5.777176909031));
#234 = CARTESIAN_POINT('',(-4.799008741259,-16.40317574101,
    5.758842483066));
#235 = CARTESIAN_POINT('',(-4.773567862988,-16.39396293415,
    5.737317397485));
#236 = CARTESIAN_POINT('',(-4.751061960681,-16.38491396156,
    5.713012633016));
#237 = CARTESIAN_POINT('',(-4.731799705703,-16.37661618652,
    5.686413067942));
#238 = CARTESIAN_POINT('',(-4.702587857975,-16.36345807236,
    5.633909810014));
#239 = CARTESIAN_POINT('',(-4.691656215337,-16.35826096199,
    5.608484350793));
#240 = CARTESIAN_POINT('',(-4.683355823239,-16.35417815428,
    5.582048895469));
#241 = CARTESIAN_POINT('',(-4.677786789658,-16.35139322289,
    5.554933263038));
#242 = CARTESIAN_POINT('',(-4.675,-16.35,5.527473438634));
#243 = CARTESIAN_POINT('',(-4.675,-16.35,5.47241066613));
#244 = CARTESIAN_POINT('',(-4.677810348997,-16.35140499793,
    5.444835098034));
#245 = CARTESIAN_POINT('',(-4.68342643816,-16.35421346945,5.417608013682
    ));
#246 = CARTESIAN_POINT('',(-4.691796552252,-16.35832999066,
    5.391069676951));
#247 = CARTESIAN_POINT('',(-4.702818904789,-16.36356788718,
    5.365554061393));
#248 = CARTESIAN_POINT('',(-4.732164357063,-16.37677355831,
    5.313076358524));
#249 = CARTESIAN_POINT('',(-4.751432064541,-16.38506404133,
    5.286573924029));
#250 = CARTESIAN_POINT('',(-4.773924848686,-16.39409546455,
    5.262361462972));
#251 = CARTESIAN_POINT('',(-4.799335165875,-16.40328318525,
    5.240920084832));
#252 = CARTESIAN_POINT('',(-4.827290861416,-16.41190835668,
    5.222657297556));
#253 = CARTESIAN_POINT('',(-4.879192023389,-16.42465388496,
    5.197314075193));
#254 = CARTESIAN_POINT('',(-4.902151513864,-16.4293695752,5.188520450512
    ));
#255 = CARTESIAN_POINT('',(-4.925992451009,-16.43315651079,
    5.181801481436));
#256 = CARTESIAN_POINT('',(-4.950425922365,-16.43577070405,
    5.177273874938));
#257 = CARTESIAN_POINT('',(-4.975184073873,-16.43708348754,5.175));
#258 = CARTESIAN_POINT('',(-5.024858435025,-16.43708348754,5.175));
#259 = CARTESIAN_POINT('',(-5.049658629489,-16.43576620287,
    5.177281672126));
#260 = CARTESIAN_POINT('',(-5.074132469472,-16.43314311808,
    5.181824675043));
#261 = CARTESIAN_POINT('',(-5.098010894308,-16.42934376099,5.18856626122
    ));
#262 = CARTESIAN_POINT('',(-5.12100359873,-16.42461369007,5.197389025396
    ));
#263 = CARTESIAN_POINT('',(-5.172989928724,-16.41182846393,
    5.222823090969));
#264 = CARTESIAN_POINT('',(-5.200991258741,-16.40317574101,
    5.241157516934));
#265 = CARTESIAN_POINT('',(-5.226432137012,-16.39396293415,
    5.262682602515));
#266 = CARTESIAN_POINT('',(-5.248938039319,-16.38491396156,
    5.286987366984));
#267 = CARTESIAN_POINT('',(-5.268200294297,-16.37661618652,
    5.313586932058));
#268 = CARTESIAN_POINT('',(-5.297412142025,-16.36345807236,
    5.366090189986));
#269 = CARTESIAN_POINT('',(-5.308343784663,-16.35826096199,
    5.391515649207));
#270 = CARTESIAN_POINT('',(-5.316644176761,-16.35417815428,
    5.417951104531));
#271 = CARTESIAN_POINT('',(-5.322213210342,-16.35139322289,
    5.445066736962));
#272 = CARTESIAN_POINT('',(-5.325,-16.35,5.472526561366));
#273 = CARTESIAN_POINT('',(-5.325,-16.35,5.52758933387));
#274 = CARTESIAN_POINT('',(-5.322189651003,-16.35140499793,
    5.555164901966));
#275 = CARTESIAN_POINT('',(-5.31657356184,-16.35421346945,5.582391986318
    ));
#276 = CARTESIAN_POINT('',(-5.308203447748,-16.35832999066,
    5.608930323049));
#277 = CARTESIAN_POINT('',(-5.297181095211,-16.36356788718,
    5.634445938607));
#278 = CARTESIAN_POINT('',(-5.267835642937,-16.37677355831,
    5.686923641476));
#279 = CARTESIAN_POINT('',(-5.248567935459,-16.38506404133,
    5.713426075971));
#280 = CARTESIAN_POINT('',(-5.226075151314,-16.39409546455,
    5.737638537028));
#281 = CARTESIAN_POINT('',(-5.200664834125,-16.40328318525,
    5.759079915168));
#282 = CARTESIAN_POINT('',(-5.172709138584,-16.41190835668,
    5.777342702444));
#283 = CARTESIAN_POINT('',(-5.120807976611,-16.42465388496,
    5.802685924807));
#284 = CARTESIAN_POINT('',(-5.097848486135,-16.4293695752,5.811479549488
    ));
#285 = CARTESIAN_POINT('',(-5.074007548992,-16.43315651079,
    5.818198518564));
#286 = CARTESIAN_POINT('',(-5.049574077635,-16.43577070405,
    5.822726125062));
#287 = CARTESIAN_POINT('',(-5.024815926127,-16.43708348754,5.825));
#288 = CARTESIAN_POINT('',(-5.,-16.43708348754,5.825));
#289 = CYLINDRICAL_SURFACE('',#290,0.65);
#290 = AXIS2_PLACEMENT_3D('',#291,#292,#293);
#291 = CARTESIAN_POINT('',(14.,-17.,5.5));
#292 = DIRECTION('',(-1.,0.,0.));
#293 = DIRECTION('',(0.,0.,-1.));
#294 = ADVANCED_FACE('',(#295),#305,.T.);
#295 = FACE_BOUND('',#296,.T.);
#296 = EDGE_LOOP('',(#297,#298));
#297 = ORIENTED_EDGE('',*,*,#148,.T.);
#298 = ORIENTED_EDGE('',*,*,#299,.F.);
#299 = EDGE_CURVE('',#132,#140,#300,.T.);
#300 = CIRCLE('',#301,1.);
#301 = AXIS2_PLACEMENT_3D('',#302,#303,#304);
#302 = CARTESIAN_POINT('',(-5.,24.,5.5));
#303 = DIRECTION('',(-1.,0.,0.));
#304 = DIRECTION('',(0.,0.,-1.));
#305 = SPHERICAL_SURFACE('',#306,1.);
#306 = AXIS2_PLACEMENT_3D('',#307,#308,#309);
#307 = CARTESIAN_POINT('',(-5.,24.,5.5));
#308 = DIRECTION('',(0.,0.,1.));
#309 = DIRECTION('',(1.,0.,0.));
#310 = ADVANCED_FACE('',(#311),#349,.T.);
#311 = FACE_BOUND('',#312,.T.);
#312 = EDGE_LOOP('',(#313,#314,#315,#323,#332,#341,#348));
#313 = ORIENTED_EDGE('',*,*,#139,.T.);
#314 = ORIENTED_EDGE('',*,*,#299,.T.);
#315 = ORIENTED_EDGE('',*,*,#316,.T.);
#316 = EDGE_CURVE('',#140,#317,#319,.T.);
#317 = VERTEX_POINT('',#318);
#318 = CARTESIAN_POINT('',(-35.,24.,4.5));
#319 = LINE('',#320,#321);
#320 = CARTESIAN_POINT('',(-5.,24.,4.5));
#321 = VECTOR('',#322,1.);
#322 = DIRECTION('',(-1.,0.,0.));
#323 = ORIENTED_EDGE('',*,*,#324,.F.);
#324 = EDGE_CURVE('',#325,#317,#327,.T.);
#325 = VERTEX_POINT('',#326);
#326 = CARTESIAN_POINT('',(-34.27924077994,25.,5.5));
#327 = ELLIPSE('',#328,1.232677513909,1.);
#328 = AXIS2_PLACEMENT_3D('',#329,#330,#331);
#329 = CARTESIAN_POINT('',(-35.,24.,5.5));
#330 = DIRECTION('',(-0.811242185176,0.584710284664,0.));
#331 = DIRECTION('',(-0.584710284664,-0.811242185176,0.));
#332 = ORIENTED_EDGE('',*,*,#333,.F.);
#333 = EDGE_CURVE('',#334,#325,#336,.T.);
#334 = VERTEX_POINT('',#335);
#335 = CARTESIAN_POINT('',(-35.,24.,6.5));
#336 = ELLIPSE('',#337,1.232677513909,1.);
#337 = AXIS2_PLACEMENT_3D('',#338,#339,#340);
#338 = CARTESIAN_POINT('',(-35.,24.,5.5));
#339 = DIRECTION('',(-0.811242185176,0.584710284664,0.));
#340 = DIRECTION('',(-0.584710284664,-0.811242185176,0.));
#341 = ORIENTED_EDGE('',*,*,#342,.F.);
#342 = EDGE_CURVE('',#317,#334,#343,.T.);
#343 = CIRCLE('',#344,1.);
#344 = AXIS2_PLACEMENT_3D('',#345,#346,#347);
#345 = CARTESIAN_POINT('',(-35.,24.,5.5));
#346 = DIRECTION('',(-1.,0.,0.));
#347 = DIRECTION('',(0.,0.,-1.));
#348 = ORIENTED_EDGE('',*,*,#316,.F.);
#349 = CYLINDRICAL_SURFACE('',#350,1.);
#350 = AXIS2_PLACEMENT_3D('',#351,#352,#353);
#351 = CARTESIAN_POINT('',(-5.,24.,5.5));
#352 = DIRECTION('',(-1.,0.,0.));
#353 = DIRECTION('',(0.,0.,-1.));
#354 = ADVANCED_FACE('',(#355),#383,.F.);
#355 = FACE_BOUND('',#356,.F.);
#356 = EDGE_LOOP('',(#357,#358,#366,#375,#382));
#357 = ORIENTED_EDGE('',*,*,#223,.T.);
#358 = ORIENTED_EDGE('',*,*,#359,.T.);
#359 = EDGE_CURVE('',#224,#360,#362,.T.);
#360 = VERTEX_POINT('',#361);
#361 = CARTESIAN_POINT('',(-5.,24.,5.825));
#362 = LINE('',#363,#364);
#363 = CARTESIAN_POINT('',(-5.,-17.,5.825));
#364 = VECTOR('',#365,1.);
#365 = DIRECTION('',(0.,1.,0.));
#366 = ORIENTED_EDGE('',*,*,#367,.F.);
#367 = EDGE_CURVE('',#368,#360,#370,.T.);
#368 = VERTEX_POINT('',#369);
#369 = CARTESIAN_POINT('',(-5.,24.,5.175));
#370 = ELLIPSE('',#371,0.459619407771,0.325);
#371 = AXIS2_PLACEMENT_3D('',#372,#373,#374);
#372 = CARTESIAN_POINT('',(-5.,24.,5.5));
#373 = DIRECTION('',(-0.707106781187,0.707106781187,0.));
#374 = DIRECTION('',(0.707106781187,0.707106781187,0.));
#375 = ORIENTED_EDGE('',*,*,#376,.F.);
#376 = EDGE_CURVE('',#360,#368,#377,.T.);
#377 = CIRCLE('',#378,0.325);
#378 = AXIS2_PLACEMENT_3D('',#379,#380,#381);
#379 = CARTESIAN_POINT('',(-5.,24.,5.5));
#380 = DIRECTION('',(0.,1.,0.));
#381 = DIRECTION('',(0.,0.,1.));
#382 = ORIENTED_EDGE('',*,*,#359,.F.);
#383 = CYLINDRICAL_SURFACE('',#384,0.325);
#384 = AXIS2_PLACEMENT_3D('',#385,#386,#387);
#385 = CARTESIAN_POINT('',(-5.,-17.,5.5));
#386 = DIRECTION('',(0.,1.,0.));
#387 = DIRECTION('',(0.,0.,1.));
#388 = ADVANCED_FACE('',(#389),#399,.T.);
#389 = FACE_BOUND('',#390,.T.);
#390 = EDGE_LOOP('',(#391,#392));
#391 = ORIENTED_EDGE('',*,*,#342,.T.);
#392 = ORIENTED_EDGE('',*,*,#393,.F.);
#393 = EDGE_CURVE('',#317,#334,#394,.T.);
#394 = CIRCLE('',#395,1.);
#395 = AXIS2_PLACEMENT_3D('',#396,#397,#398);
#396 = CARTESIAN_POINT('',(-35.,24.,5.5));
#397 = DIRECTION('',(-0.316227766017,0.948683298051,0.));
#398 = DIRECTION('',(0.948683298051,0.316227766017,0.));
#399 = SPHERICAL_SURFACE('',#400,1.);
#400 = AXIS2_PLACEMENT_3D('',#401,#402,#403);
#401 = CARTESIAN_POINT('',(-35.,24.,5.5));
#402 = DIRECTION('',(0.,0.,1.));
#403 = DIRECTION('',(1.,0.,0.));
#404 = ADVANCED_FACE('',(#405),#444,.T.);
#405 = FACE_BOUND('',#406,.T.);
#406 = EDGE_LOOP('',(#407,#408,#409,#417,#426,#435,#442,#443));
#407 = ORIENTED_EDGE('',*,*,#393,.T.);
#408 = ORIENTED_EDGE('',*,*,#333,.T.);
#409 = ORIENTED_EDGE('',*,*,#410,.T.);
#410 = EDGE_CURVE('',#325,#411,#413,.T.);
#411 = VERTEX_POINT('',#412);
#412 = CARTESIAN_POINT('',(-35.87636266461,29.791365654004,5.5));
#413 = LINE('',#414,#415);
#414 = CARTESIAN_POINT('',(-34.05131670194,24.316227766017,5.5));
#415 = VECTOR('',#416,1.);
#416 = DIRECTION('',(-0.316227766017,0.948683298051,0.));
#417 = ORIENTED_EDGE('',*,*,#418,.F.);
#418 = EDGE_CURVE('',#419,#411,#421,.T.);
#419 = VERTEX_POINT('',#420);
#420 = CARTESIAN_POINT('',(-37.,30.,6.5));
#421 = ELLIPSE('',#422,1.142842575252,1.);
#422 = AXIS2_PLACEMENT_3D('',#423,#424,#425);
#423 = CARTESIAN_POINT('',(-37.,30.,5.5));
#424 = DIRECTION('',(0.182557379743,0.983195200915,-0.));
#425 = DIRECTION('',(-0.983195200915,0.182557379743,0.));
#426 = ORIENTED_EDGE('',*,*,#427,.F.);
#427 = EDGE_CURVE('',#428,#419,#430,.T.);
#428 = VERTEX_POINT('',#429);
#429 = CARTESIAN_POINT('',(-37.,30.,4.5));
#430 = CIRCLE('',#431,1.);
#431 = AXIS2_PLACEMENT_3D('',#432,#433,#434);
#432 = CARTESIAN_POINT('',(-37.,30.,5.5));
#433 = DIRECTION('',(-0.316227766017,0.948683298051,0.));
#434 = DIRECTION('',(0.948683298051,0.316227766017,0.));
#435 = ORIENTED_EDGE('',*,*,#436,.F.);
#436 = EDGE_CURVE('',#411,#428,#437,.T.);
#437 = ELLIPSE('',#438,1.142842575252,1.);
#438 = AXIS2_PLACEMENT_3D('',#439,#440,#441);
#439 = CARTESIAN_POINT('',(-37.,30.,5.5));
#440 = DIRECTION('',(0.182557379743,0.983195200915,-0.));
#441 = DIRECTION('',(-0.983195200915,0.182557379743,0.));
#442 = ORIENTED_EDGE('',*,*,#410,.F.);
#443 = ORIENTED_EDGE('',*,*,#324,.T.);
#444 = CYLINDRICAL_SURFACE('',#445,1.);
#445 = AXIS2_PLACEMENT_3D('',#446,#447,#448);
#446 = CARTESIAN_POINT('',(-35.,24.,5.5));
#447 = DIRECTION('',(-0.316227766017,0.948683298051,0.));
#448 = DIRECTION('',(0.948683298051,0.316227766017,0.));
#449 = ADVANCED_FACE('',(#450),#460,.F.);
#450 = FACE_BOUND('',#451,.F.);
#451 = EDGE_LOOP('',(#452,#453));
#452 = ORIENTED_EDGE('',*,*,#376,.T.);
#453 = ORIENTED_EDGE('',*,*,#454,.F.);
#454 = EDGE_CURVE('',#360,#368,#455,.T.);
#455 = CIRCLE('',#456,0.325);
#456 = AXIS2_PLACEMENT_3D('',#457,#458,#459);
#457 = CARTESIAN_POINT('',(-5.,24.,5.5));
#458 = DIRECTION('',(-1.,0.,0.));
#459 = DIRECTION('',(0.,0.,-1.));
#460 = SPHERICAL_SURFACE('',#461,0.325);
#461 = AXIS2_PLACEMENT_3D('',#462,#463,#464);
#462 = CARTESIAN_POINT('',(-5.,24.,5.5));
#463 = DIRECTION('',(0.,0.,1.));
#464 = DIRECTION('',(1.,0.,0.));
#465 = ADVANCED_FACE('',(#466),#504,.F.);
#466 = FACE_BOUND('',#467,.F.);
#467 = EDGE_LOOP('',(#468,#469,#470,#478,#487,#496,#503));
#468 = ORIENTED_EDGE('',*,*,#367,.T.);
#469 = ORIENTED_EDGE('',*,*,#454,.T.);
#470 = ORIENTED_EDGE('',*,*,#471,.T.);
#471 = EDGE_CURVE('',#368,#472,#474,.T.);
#472 = VERTEX_POINT('',#473);
#473 = CARTESIAN_POINT('',(-35.,24.,5.175));
#474 = LINE('',#475,#476);
#475 = CARTESIAN_POINT('',(-5.,24.,5.175));
#476 = VECTOR('',#477,1.);
#477 = DIRECTION('',(-1.,0.,0.));
#478 = ORIENTED_EDGE('',*,*,#479,.F.);
#479 = EDGE_CURVE('',#480,#472,#482,.T.);
#480 = VERTEX_POINT('',#481);
#481 = CARTESIAN_POINT('',(-34.76575325348,24.325,5.5));
#482 = ELLIPSE('',#483,0.40062019202,0.325);
#483 = AXIS2_PLACEMENT_3D('',#484,#485,#486);
#484 = CARTESIAN_POINT('',(-35.,24.,5.5));
#485 = DIRECTION('',(-0.811242185176,0.584710284664,0.));
#486 = DIRECTION('',(-0.584710284664,-0.811242185176,0.));
#487 = ORIENTED_EDGE('',*,*,#488,.F.);
#488 = EDGE_CURVE('',#489,#480,#491,.T.);
#489 = VERTEX_POINT('',#490);
#490 = CARTESIAN_POINT('',(-35.,24.,5.825));
#491 = ELLIPSE('',#492,0.40062019202,0.325);
#492 = AXIS2_PLACEMENT_3D('',#493,#494,#495);
#493 = CARTESIAN_POINT('',(-35.,24.,5.5));
#494 = DIRECTION('',(-0.811242185176,0.584710284664,0.));
#495 = DIRECTION('',(-0.584710284664,-0.811242185176,0.));
#496 = ORIENTED_EDGE('',*,*,#497,.F.);
#497 = EDGE_CURVE('',#472,#489,#498,.T.);
#498 = CIRCLE('',#499,0.325);
#499 = AXIS2_PLACEMENT_3D('',#500,#501,#502);
#500 = CARTESIAN_POINT('',(-35.,24.,5.5));
#501 = DIRECTION('',(-1.,0.,0.));
#502 = DIRECTION('',(0.,0.,-1.));
#503 = ORIENTED_EDGE('',*,*,#471,.F.);
#504 = CYLINDRICAL_SURFACE('',#505,0.325);
#505 = AXIS2_PLACEMENT_3D('',#506,#507,#508);
#506 = CARTESIAN_POINT('',(-5.,24.,5.5));
#507 = DIRECTION('',(-1.,0.,0.));
#508 = DIRECTION('',(0.,0.,-1.));
#509 = ADVANCED_FACE('',(#510),#555,.T.);
#510 = FACE_BOUND('',#511,.T.);
#511 = EDGE_LOOP('',(#512,#519,#520,#528,#537,#546,#553,#554));
#512 = ORIENTED_EDGE('',*,*,#513,.T.);
#513 = EDGE_CURVE('',#428,#419,#514,.T.);
#514 = CIRCLE('',#515,1.);
#515 = AXIS2_PLACEMENT_3D('',#516,#517,#518);
#516 = CARTESIAN_POINT('',(-37.,30.,5.5));
#517 = DIRECTION('',(0.635707252861,0.771930235617,0.));
#518 = DIRECTION('',(0.771930235617,-0.635707252861,0.));
#519 = ORIENTED_EDGE('',*,*,#418,.T.);
#520 = ORIENTED_EDGE('',*,*,#521,.T.);
#521 = EDGE_CURVE('',#411,#522,#524,.T.);
#522 = VERTEX_POINT('',#523);
#523 = CARTESIAN_POINT('',(-29.22806976438,37.864292747139,5.5));
#524 = LINE('',#525,#526);
#525 = CARTESIAN_POINT('',(-36.22806976438,29.364292747139,5.5));
#526 = VECTOR('',#527,1.);
#527 = DIRECTION('',(0.635707252861,0.771930235617,0.));
#528 = ORIENTED_EDGE('',*,*,#529,.F.);
#529 = EDGE_CURVE('',#530,#522,#532,.T.);
#530 = VERTEX_POINT('',#531);
#531 = CARTESIAN_POINT('',(-30.77193023561,39.135707252861,5.5));
#532 = ELLIPSE('',#533,1.414213562373,1.);
#533 = AXIS2_PLACEMENT_3D('',#534,#535,#536);
#534 = CARTESIAN_POINT('',(-30.,38.5,5.5));
#535 = DIRECTION('',(0.449512909348,0.545837104208,0.707106781187));
#536 = DIRECTION('',(0.449512909348,0.545837104208,-0.707106781187));
#537 = ORIENTED_EDGE('',*,*,#538,.F.);
#538 = EDGE_CURVE('',#539,#530,#541,.T.);
#539 = VERTEX_POINT('',#540);
#540 = CARTESIAN_POINT('',(-30.,38.5,4.5));
#541 = CIRCLE('',#542,1.);
#542 = AXIS2_PLACEMENT_3D('',#543,#544,#545);
#543 = CARTESIAN_POINT('',(-30.,38.5,5.5));
#544 = DIRECTION('',(0.635707252861,0.771930235617,0.));
#545 = DIRECTION('',(0.771930235617,-0.635707252861,0.));
#546 = ORIENTED_EDGE('',*,*,#547,.F.);
#547 = EDGE_CURVE('',#522,#539,#548,.T.);
#548 = CIRCLE('',#549,1.);
#549 = AXIS2_PLACEMENT_3D('',#550,#551,#552);
#550 = CARTESIAN_POINT('',(-30.,38.5,5.5));
#551 = DIRECTION('',(0.635707252861,0.771930235617,0.));
#552 = DIRECTION('',(0.771930235617,-0.635707252861,0.));
#553 = ORIENTED_EDGE('',*,*,#521,.F.);
#554 = ORIENTED_EDGE('',*,*,#436,.T.);
#555 = CYLINDRICAL_SURFACE('',#556,1.);
#556 = AXIS2_PLACEMENT_3D('',#557,#558,#559);
#557 = CARTESIAN_POINT('',(-37.,30.,5.5));
#558 = DIRECTION('',(0.635707252861,0.771930235617,0.));
#559 = DIRECTION('',(0.771930235617,-0.635707252861,0.));
#560 = ADVANCED_FACE('',(#561),#565,.T.);
#561 = FACE_BOUND('',#562,.T.);
#562 = EDGE_LOOP('',(#563,#564));
#563 = ORIENTED_EDGE('',*,*,#427,.T.);
#564 = ORIENTED_EDGE('',*,*,#513,.F.);
#565 = SPHERICAL_SURFACE('',#566,1.);
#566 = AXIS2_PLACEMENT_3D('',#567,#568,#569);
#567 = CARTESIAN_POINT('',(-37.,30.,5.5));
#568 = DIRECTION('',(0.,0.,1.));
#569 = DIRECTION('',(1.,0.,0.));
#570 = ADVANCED_FACE('',(#571),#581,.F.);
#571 = FACE_BOUND('',#572,.F.);
#572 = EDGE_LOOP('',(#573,#574));
#573 = ORIENTED_EDGE('',*,*,#497,.T.);
#574 = ORIENTED_EDGE('',*,*,#575,.F.);
#575 = EDGE_CURVE('',#472,#489,#576,.T.);
#576 = CIRCLE('',#577,0.325);
#577 = AXIS2_PLACEMENT_3D('',#578,#579,#580);
#578 = CARTESIAN_POINT('',(-35.,24.,5.5));
#579 = DIRECTION('',(-0.316227766017,0.948683298051,0.));
#580 = DIRECTION('',(0.948683298051,0.316227766017,0.));
#581 = SPHERICAL_SURFACE('',#582,0.325);
#582 = AXIS2_PLACEMENT_3D('',#583,#584,#585);
#583 = CARTESIAN_POINT('',(-35.,24.,5.5));
#584 = DIRECTION('',(0.,0.,1.));
#585 = DIRECTION('',(1.,0.,0.));
#586 = ADVANCED_FACE('',(#587),#626,.F.);
#587 = FACE_BOUND('',#588,.F.);
#588 = EDGE_LOOP('',(#589,#590,#591,#599,#608,#617,#624,#625));
#589 = ORIENTED_EDGE('',*,*,#575,.T.);
#590 = ORIENTED_EDGE('',*,*,#488,.T.);
#591 = ORIENTED_EDGE('',*,*,#592,.T.);
#592 = EDGE_CURVE('',#480,#593,#595,.T.);
#593 = VERTEX_POINT('',#594);
#594 = CARTESIAN_POINT('',(-36.63481786599,29.932193837551,5.5));
#595 = LINE('',#596,#597);
#596 = CARTESIAN_POINT('',(-34.69167792813,24.102774023955,5.5));
#597 = VECTOR('',#598,1.);
#598 = DIRECTION('',(-0.316227766017,0.948683298051,0.));
#599 = ORIENTED_EDGE('',*,*,#600,.F.);
#600 = EDGE_CURVE('',#601,#593,#603,.T.);
#601 = VERTEX_POINT('',#602);
#602 = CARTESIAN_POINT('',(-37.,30.,5.825));
#603 = ELLIPSE('',#604,0.371423836957,0.325);
#604 = AXIS2_PLACEMENT_3D('',#605,#606,#607);
#605 = CARTESIAN_POINT('',(-37.,30.,5.5));
#606 = DIRECTION('',(0.182557379743,0.983195200915,-0.));
#607 = DIRECTION('',(-0.983195200915,0.182557379743,0.));
#608 = ORIENTED_EDGE('',*,*,#609,.F.);
#609 = EDGE_CURVE('',#610,#601,#612,.T.);
#610 = VERTEX_POINT('',#611);
#611 = CARTESIAN_POINT('',(-37.,30.,5.175));
#612 = CIRCLE('',#613,0.325);
#613 = AXIS2_PLACEMENT_3D('',#614,#615,#616);
#614 = CARTESIAN_POINT('',(-37.,30.,5.5));
#615 = DIRECTION('',(-0.316227766017,0.948683298051,0.));
#616 = DIRECTION('',(0.948683298051,0.316227766017,0.));
#617 = ORIENTED_EDGE('',*,*,#618,.F.);
#618 = EDGE_CURVE('',#593,#610,#619,.T.);
#619 = ELLIPSE('',#620,0.371423836957,0.325);
#620 = AXIS2_PLACEMENT_3D('',#621,#622,#623);
#621 = CARTESIAN_POINT('',(-37.,30.,5.5));
#622 = DIRECTION('',(0.182557379743,0.983195200915,-0.));
#623 = DIRECTION('',(-0.983195200915,0.182557379743,0.));
#624 = ORIENTED_EDGE('',*,*,#592,.F.);
#625 = ORIENTED_EDGE('',*,*,#479,.T.);
#626 = CYLINDRICAL_SURFACE('',#627,0.325);
#627 = AXIS2_PLACEMENT_3D('',#628,#629,#630);
#628 = CARTESIAN_POINT('',(-35.,24.,5.5));
#629 = DIRECTION('',(-0.316227766017,0.948683298051,0.));
#630 = DIRECTION('',(0.948683298051,0.316227766017,0.));
#631 = ADVANCED_FACE('',(#632),#651,.T.);
#632 = FACE_BOUND('',#633,.T.);
#633 = EDGE_LOOP('',(#634,#643,#650));
#634 = ORIENTED_EDGE('',*,*,#635,.T.);
#635 = EDGE_CURVE('',#539,#636,#638,.T.);
#636 = VERTEX_POINT('',#637);
#637 = CARTESIAN_POINT('',(-29.,38.5,5.5));
#638 = CIRCLE('',#639,1.);
#639 = AXIS2_PLACEMENT_3D('',#640,#641,#642);
#640 = CARTESIAN_POINT('',(-30.,38.5,5.5));
#641 = DIRECTION('',(-2.449293598295E-16,-1.,0.));
#642 = DIRECTION('',(1.,-2.449293598295E-16,0.));
#643 = ORIENTED_EDGE('',*,*,#644,.F.);
#644 = EDGE_CURVE('',#522,#636,#645,.T.);
#645 = CIRCLE('',#646,1.);
#646 = AXIS2_PLACEMENT_3D('',#647,#648,#649);
#647 = CARTESIAN_POINT('',(-30.,38.5,5.5));
#648 = DIRECTION('',(0.,0.,1.));
#649 = DIRECTION('',(1.,0.,0.));
#650 = ORIENTED_EDGE('',*,*,#547,.T.);
#651 = SPHERICAL_SURFACE('',#652,1.);
#652 = AXIS2_PLACEMENT_3D('',#653,#654,#655);
#653 = CARTESIAN_POINT('',(-30.,38.5,5.5));
#654 = DIRECTION('',(0.,0.,1.));
#655 = DIRECTION('',(1.,0.,0.));
#656 = ADVANCED_FACE('',(#657),#668,.T.);
#657 = FACE_BOUND('',#658,.T.);
#658 = EDGE_LOOP('',(#659,#660,#667));
#659 = ORIENTED_EDGE('',*,*,#538,.T.);
#660 = ORIENTED_EDGE('',*,*,#661,.F.);
#661 = EDGE_CURVE('',#636,#530,#662,.T.);
#662 = CIRCLE('',#663,1.);
#663 = AXIS2_PLACEMENT_3D('',#664,#665,#666);
#664 = CARTESIAN_POINT('',(-30.,38.5,5.5));
#665 = DIRECTION('',(0.,0.,1.));
#666 = DIRECTION('',(1.,0.,0.));
#667 = ORIENTED_EDGE('',*,*,#635,.F.);
#668 = SPHERICAL_SURFACE('',#669,1.);
#669 = AXIS2_PLACEMENT_3D('',#670,#671,#672);
#670 = CARTESIAN_POINT('',(-30.,38.5,5.5));
#671 = DIRECTION('',(0.,0.,1.));
#672 = DIRECTION('',(1.,0.,0.));
#673 = ADVANCED_FACE('',(#674),#713,.T.);
#674 = FACE_BOUND('',#675,.T.);
#675 = EDGE_LOOP('',(#676,#677,#678,#686,#695,#704,#711,#712));
#676 = ORIENTED_EDGE('',*,*,#529,.T.);
#677 = ORIENTED_EDGE('',*,*,#644,.T.);
#678 = ORIENTED_EDGE('',*,*,#679,.T.);
#679 = EDGE_CURVE('',#636,#680,#682,.T.);
#680 = VERTEX_POINT('',#681);
#681 = CARTESIAN_POINT('',(-29.,38.5,30.5));
#682 = LINE('',#683,#684);
#683 = CARTESIAN_POINT('',(-29.,38.5,5.5));
#684 = VECTOR('',#685,1.);
#685 = DIRECTION('',(0.,0.,1.));
#686 = ORIENTED_EDGE('',*,*,#687,.F.);
#687 = EDGE_CURVE('',#688,#680,#690,.T.);
#688 = VERTEX_POINT('',#689);
#689 = CARTESIAN_POINT('',(-30.,37.5,31.5));
#690 = ELLIPSE('',#691,1.414213562373,1.);
#691 = AXIS2_PLACEMENT_3D('',#692,#693,#694);
#692 = CARTESIAN_POINT('',(-30.,38.5,31.5));
#693 = DIRECTION('',(0.707106781187,0.,0.707106781187));
#694 = DIRECTION('',(-0.707106781187,0.,0.707106781187));
#695 = ORIENTED_EDGE('',*,*,#696,.F.);
#696 = EDGE_CURVE('',#697,#688,#699,.T.);
#697 = VERTEX_POINT('',#698);
#698 = CARTESIAN_POINT('',(-30.,39.5,31.5));
#699 = CIRCLE('',#700,1.);
#700 = AXIS2_PLACEMENT_3D('',#701,#702,#703);
#701 = CARTESIAN_POINT('',(-30.,38.5,31.5));
#702 = DIRECTION('',(0.,0.,1.));
#703 = DIRECTION('',(1.,0.,0.));
#704 = ORIENTED_EDGE('',*,*,#705,.F.);
#705 = EDGE_CURVE('',#680,#697,#706,.T.);
#706 = ELLIPSE('',#707,1.414213562373,1.);
#707 = AXIS2_PLACEMENT_3D('',#708,#709,#710);
#708 = CARTESIAN_POINT('',(-30.,38.5,31.5));
#709 = DIRECTION('',(0.707106781187,0.,0.707106781187));
#710 = DIRECTION('',(-0.707106781187,0.,0.707106781187));
#711 = ORIENTED_EDGE('',*,*,#679,.F.);
#712 = ORIENTED_EDGE('',*,*,#661,.T.);
#713 = CYLINDRICAL_SURFACE('',#714,1.);
#714 = AXIS2_PLACEMENT_3D('',#715,#716,#717);
#715 = CARTESIAN_POINT('',(-30.,38.5,5.5));
#716 = DIRECTION('',(0.,0.,1.));
#717 = DIRECTION('',(1.,0.,0.));
#718 = ADVANCED_FACE('',(#719),#764,.F.);
#719 = FACE_BOUND('',#720,.F.);
#720 = EDGE_LOOP('',(#721,#728,#729,#737,#746,#755,#762,#763));
#721 = ORIENTED_EDGE('',*,*,#722,.T.);
#722 = EDGE_CURVE('',#610,#601,#723,.T.);
#723 = CIRCLE('',#724,0.325);
#724 = AXIS2_PLACEMENT_3D('',#725,#726,#727);
#725 = CARTESIAN_POINT('',(-37.,30.,5.5));
#726 = DIRECTION('',(0.635707252861,0.771930235617,0.));
#727 = DIRECTION('',(0.771930235617,-0.635707252861,0.));
#728 = ORIENTED_EDGE('',*,*,#600,.T.);
#729 = ORIENTED_EDGE('',*,*,#730,.T.);
#730 = EDGE_CURVE('',#593,#731,#733,.T.);
#731 = VERTEX_POINT('',#732);
#732 = CARTESIAN_POINT('',(-29.74912267342,38.29339514282,5.5));
#733 = LINE('',#734,#735);
#734 = CARTESIAN_POINT('',(-36.74912267342,29.79339514282,5.5));
#735 = VECTOR('',#736,1.);
#736 = DIRECTION('',(0.635707252861,0.771930235617,0.));
#737 = ORIENTED_EDGE('',*,*,#738,.F.);
#738 = EDGE_CURVE('',#739,#731,#741,.T.);
#739 = VERTEX_POINT('',#740);
#740 = CARTESIAN_POINT('',(-30.25087732657,38.70660485718,5.5));
#741 = ELLIPSE('',#742,0.459619407771,0.325);
#742 = AXIS2_PLACEMENT_3D('',#743,#744,#745);
#743 = CARTESIAN_POINT('',(-30.,38.5,5.5));
#744 = DIRECTION('',(0.449512909348,0.545837104208,0.707106781187));
#745 = DIRECTION('',(0.449512909348,0.545837104208,-0.707106781187));
#746 = ORIENTED_EDGE('',*,*,#747,.F.);
#747 = EDGE_CURVE('',#748,#739,#750,.T.);
#748 = VERTEX_POINT('',#749);
#749 = CARTESIAN_POINT('',(-30.,38.5,5.175));
#750 = CIRCLE('',#751,0.325);
#751 = AXIS2_PLACEMENT_3D('',#752,#753,#754);
#752 = CARTESIAN_POINT('',(-30.,38.5,5.5));
#753 = DIRECTION('',(0.635707252861,0.771930235617,0.));
#754 = DIRECTION('',(0.771930235617,-0.635707252861,0.));
#755 = ORIENTED_EDGE('',*,*,#756,.F.);
#756 = EDGE_CURVE('',#731,#748,#757,.T.);
#757 = CIRCLE('',#758,0.325);
#758 = AXIS2_PLACEMENT_3D('',#759,#760,#761);
#759 = CARTESIAN_POINT('',(-30.,38.5,5.5));
#760 = DIRECTION('',(0.635707252861,0.771930235617,0.));
#761 = DIRECTION('',(0.771930235617,-0.635707252861,0.));
#762 = ORIENTED_EDGE('',*,*,#730,.F.);
#763 = ORIENTED_EDGE('',*,*,#618,.T.);
#764 = CYLINDRICAL_SURFACE('',#765,0.325);
#765 = AXIS2_PLACEMENT_3D('',#766,#767,#768);
#766 = CARTESIAN_POINT('',(-37.,30.,5.5));
#767 = DIRECTION('',(0.635707252861,0.771930235617,0.));
#768 = DIRECTION('',(0.771930235617,-0.635707252861,0.));
#769 = ADVANCED_FACE('',(#770),#774,.F.);
#770 = FACE_BOUND('',#771,.F.);
#771 = EDGE_LOOP('',(#772,#773));
#772 = ORIENTED_EDGE('',*,*,#609,.T.);
#773 = ORIENTED_EDGE('',*,*,#722,.F.);
#774 = SPHERICAL_SURFACE('',#775,0.325);
#775 = AXIS2_PLACEMENT_3D('',#776,#777,#778);
#776 = CARTESIAN_POINT('',(-37.,30.,5.5));
#777 = DIRECTION('',(0.,0.,1.));
#778 = DIRECTION('',(1.,0.,0.));
#779 = ADVANCED_FACE('',(#780),#825,.T.);
#780 = FACE_BOUND('',#781,.T.);
#781 = EDGE_LOOP('',(#782,#783,#792,#800,#809,#816,#817,#824));
#782 = ORIENTED_EDGE('',*,*,#705,.T.);
#783 = ORIENTED_EDGE('',*,*,#784,.T.);
#784 = EDGE_CURVE('',#697,#785,#787,.T.);
#785 = VERTEX_POINT('',#786);
#786 = CARTESIAN_POINT('',(-30.,38.5,32.5));
#787 = CIRCLE('',#788,1.);
#788 = AXIS2_PLACEMENT_3D('',#789,#790,#791);
#789 = CARTESIAN_POINT('',(-30.,38.5,31.5));
#790 = DIRECTION('',(1.,0.,-0.));
#791 = DIRECTION('',(0.,0.,1.));
#792 = ORIENTED_EDGE('',*,*,#793,.T.);
#793 = EDGE_CURVE('',#785,#794,#796,.T.);
#794 = VERTEX_POINT('',#795);
#795 = CARTESIAN_POINT('',(-12.92,38.5,32.5));
#796 = LINE('',#797,#798);
#797 = CARTESIAN_POINT('',(-30.,38.5,32.5));
#798 = VECTOR('',#799,1.);
#799 = DIRECTION('',(1.,0.,0.));
#800 = ORIENTED_EDGE('',*,*,#801,.F.);
#801 = EDGE_CURVE('',#802,#794,#804,.T.);
#802 = VERTEX_POINT('',#803);
#803 = CARTESIAN_POINT('',(-12.92,38.5,30.5));
#804 = CIRCLE('',#805,1.);
#805 = AXIS2_PLACEMENT_3D('',#806,#807,#808);
#806 = CARTESIAN_POINT('',(-12.92,38.5,31.5));
#807 = DIRECTION('',(1.,0.,-0.));
#808 = DIRECTION('',(0.,0.,1.));
#809 = ORIENTED_EDGE('',*,*,#810,.F.);
#810 = EDGE_CURVE('',#794,#802,#811,.T.);
#811 = ELLIPSE('',#812,1.414213562373,1.);
#812 = AXIS2_PLACEMENT_3D('',#813,#814,#815);
#813 = CARTESIAN_POINT('',(-12.92,38.5,31.5));
#814 = DIRECTION('',(0.707106781187,-0.707106781187,0.));
#815 = DIRECTION('',(0.707106781187,0.707106781187,0.));
#816 = ORIENTED_EDGE('',*,*,#793,.F.);
#817 = ORIENTED_EDGE('',*,*,#818,.T.);
#818 = EDGE_CURVE('',#785,#688,#819,.T.);
#819 = CIRCLE('',#820,1.);
#820 = AXIS2_PLACEMENT_3D('',#821,#822,#823);
#821 = CARTESIAN_POINT('',(-30.,38.5,31.5));
#822 = DIRECTION('',(1.,0.,-0.));
#823 = DIRECTION('',(0.,0.,1.));
#824 = ORIENTED_EDGE('',*,*,#687,.T.);
#825 = CYLINDRICAL_SURFACE('',#826,1.);
#826 = AXIS2_PLACEMENT_3D('',#827,#828,#829);
#827 = CARTESIAN_POINT('',(-30.,38.5,31.5));
#828 = DIRECTION('',(1.,0.,0.));
#829 = DIRECTION('',(0.,0.,1.));
#830 = ADVANCED_FACE('',(#831),#836,.T.);
#831 = FACE_BOUND('',#832,.T.);
#832 = EDGE_LOOP('',(#833,#834,#835));
#833 = ORIENTED_EDGE('',*,*,#818,.F.);
#834 = ORIENTED_EDGE('',*,*,#784,.F.);
#835 = ORIENTED_EDGE('',*,*,#696,.T.);
#836 = SPHERICAL_SURFACE('',#837,1.);
#837 = AXIS2_PLACEMENT_3D('',#838,#839,#840);
#838 = CARTESIAN_POINT('',(-30.,38.5,31.5));
#839 = DIRECTION('',(0.,0.,1.));
#840 = DIRECTION('',(1.,0.,0.));
#841 = ADVANCED_FACE('',(#842),#861,.F.);
#842 = FACE_BOUND('',#843,.F.);
#843 = EDGE_LOOP('',(#844,#853,#860));
#844 = ORIENTED_EDGE('',*,*,#845,.T.);
#845 = EDGE_CURVE('',#748,#846,#848,.T.);
#846 = VERTEX_POINT('',#847);
#847 = CARTESIAN_POINT('',(-29.675,38.5,5.5));
#848 = CIRCLE('',#849,0.325);
#849 = AXIS2_PLACEMENT_3D('',#850,#851,#852);
#850 = CARTESIAN_POINT('',(-30.,38.5,5.5));
#851 = DIRECTION('',(-2.449293598295E-16,-1.,0.));
#852 = DIRECTION('',(1.,-2.449293598295E-16,0.));
#853 = ORIENTED_EDGE('',*,*,#854,.F.);
#854 = EDGE_CURVE('',#731,#846,#855,.T.);
#855 = CIRCLE('',#856,0.325);
#856 = AXIS2_PLACEMENT_3D('',#857,#858,#859);
#857 = CARTESIAN_POINT('',(-30.,38.5,5.5));
#858 = DIRECTION('',(0.,0.,1.));
#859 = DIRECTION('',(1.,0.,0.));
#860 = ORIENTED_EDGE('',*,*,#756,.T.);
#861 = SPHERICAL_SURFACE('',#862,0.325);
#862 = AXIS2_PLACEMENT_3D('',#863,#864,#865);
#863 = CARTESIAN_POINT('',(-30.,38.5,5.5));
#864 = DIRECTION('',(0.,0.,1.));
#865 = DIRECTION('',(1.,0.,0.));
#866 = ADVANCED_FACE('',(#867),#878,.F.);
#867 = FACE_BOUND('',#868,.F.);
#868 = EDGE_LOOP('',(#869,#870,#877));
#869 = ORIENTED_EDGE('',*,*,#747,.T.);
#870 = ORIENTED_EDGE('',*,*,#871,.F.);
#871 = EDGE_CURVE('',#846,#739,#872,.T.);
#872 = CIRCLE('',#873,0.325);
#873 = AXIS2_PLACEMENT_3D('',#874,#875,#876);
#874 = CARTESIAN_POINT('',(-30.,38.5,5.5));
#875 = DIRECTION('',(0.,0.,1.));
#876 = DIRECTION('',(1.,0.,0.));
#877 = ORIENTED_EDGE('',*,*,#845,.F.);
#878 = SPHERICAL_SURFACE('',#879,0.325);
#879 = AXIS2_PLACEMENT_3D('',#880,#881,#882);
#880 = CARTESIAN_POINT('',(-30.,38.5,5.5));
#881 = DIRECTION('',(0.,0.,1.));
#882 = DIRECTION('',(1.,0.,0.));
#883 = ADVANCED_FACE('',(#884),#923,.F.);
#884 = FACE_BOUND('',#885,.F.);
#885 = EDGE_LOOP('',(#886,#887,#888,#896,#905,#914,#921,#922));
#886 = ORIENTED_EDGE('',*,*,#738,.T.);
#887 = ORIENTED_EDGE('',*,*,#854,.T.);
#888 = ORIENTED_EDGE('',*,*,#889,.T.);
#889 = EDGE_CURVE('',#846,#890,#892,.T.);
#890 = VERTEX_POINT('',#891);
#891 = CARTESIAN_POINT('',(-29.675,38.5,31.175));
#892 = LINE('',#893,#894);
#893 = CARTESIAN_POINT('',(-29.675,38.5,5.5));
#894 = VECTOR('',#895,1.);
#895 = DIRECTION('',(0.,0.,1.));
#896 = ORIENTED_EDGE('',*,*,#897,.F.);
#897 = EDGE_CURVE('',#898,#890,#900,.T.);
#898 = VERTEX_POINT('',#899);
#899 = CARTESIAN_POINT('',(-30.,38.175,31.5));
#900 = ELLIPSE('',#901,0.459619407771,0.325);
#901 = AXIS2_PLACEMENT_3D('',#902,#903,#904);
#902 = CARTESIAN_POINT('',(-30.,38.5,31.5));
#903 = DIRECTION('',(0.707106781187,0.,0.707106781187));
#904 = DIRECTION('',(-0.707106781187,0.,0.707106781187));
#905 = ORIENTED_EDGE('',*,*,#906,.F.);
#906 = EDGE_CURVE('',#907,#898,#909,.T.);
#907 = VERTEX_POINT('',#908);
#908 = CARTESIAN_POINT('',(-30.,38.825,31.5));
#909 = CIRCLE('',#910,0.325);
#910 = AXIS2_PLACEMENT_3D('',#911,#912,#913);
#911 = CARTESIAN_POINT('',(-30.,38.5,31.5));
#912 = DIRECTION('',(0.,0.,1.));
#913 = DIRECTION('',(1.,0.,0.));
#914 = ORIENTED_EDGE('',*,*,#915,.F.);
#915 = EDGE_CURVE('',#890,#907,#916,.T.);
#916 = ELLIPSE('',#917,0.459619407771,0.325);
#917 = AXIS2_PLACEMENT_3D('',#918,#919,#920);
#918 = CARTESIAN_POINT('',(-30.,38.5,31.5));
#919 = DIRECTION('',(0.707106781187,0.,0.707106781187));
#920 = DIRECTION('',(-0.707106781187,0.,0.707106781187));
#921 = ORIENTED_EDGE('',*,*,#889,.F.);
#922 = ORIENTED_EDGE('',*,*,#871,.T.);
#923 = CYLINDRICAL_SURFACE('',#924,0.325);
#924 = AXIS2_PLACEMENT_3D('',#925,#926,#927);
#925 = CARTESIAN_POINT('',(-30.,38.5,5.5));
#926 = DIRECTION('',(0.,0.,1.));
#927 = DIRECTION('',(1.,0.,0.));
#928 = ADVANCED_FACE('',(#929),#982,.T.);
#929 = FACE_BOUND('',#930,.T.);
#930 = EDGE_LOOP('',(#931,#938,#939,#947,#956,#965,#974,#981));
#931 = ORIENTED_EDGE('',*,*,#932,.T.);
#932 = EDGE_CURVE('',#802,#794,#933,.T.);
#933 = CIRCLE('',#934,1.);
#934 = AXIS2_PLACEMENT_3D('',#935,#936,#937);
#935 = CARTESIAN_POINT('',(-12.92,38.5,31.5));
#936 = DIRECTION('',(-2.449293598295E-16,-1.,0.));
#937 = DIRECTION('',(1.,-2.449293598295E-16,0.));
#938 = ORIENTED_EDGE('',*,*,#810,.T.);
#939 = ORIENTED_EDGE('',*,*,#940,.T.);
#940 = EDGE_CURVE('',#802,#941,#943,.T.);
#941 = VERTEX_POINT('',#942);
#942 = CARTESIAN_POINT('',(-12.92,29.,30.5));
#943 = LINE('',#944,#945);
#944 = CARTESIAN_POINT('',(-12.92,38.5,30.5));
#945 = VECTOR('',#946,1.);
#946 = DIRECTION('',(0.,-1.,0.));
#947 = ORIENTED_EDGE('',*,*,#948,.F.);
#948 = EDGE_CURVE('',#949,#941,#951,.T.);
#949 = VERTEX_POINT('',#950);
#950 = CARTESIAN_POINT('',(-13.92,28.,31.5));
#951 = ELLIPSE('',#952,1.414213562373,1.);
#952 = AXIS2_PLACEMENT_3D('',#953,#954,#955);
#953 = CARTESIAN_POINT('',(-12.92,28.,31.5));
#954 = DIRECTION('',(-0.,-0.707106781187,-0.707106781187));
#955 = DIRECTION('',(0.,-0.707106781187,0.707106781187));
#956 = ORIENTED_EDGE('',*,*,#957,.F.);
#957 = EDGE_CURVE('',#958,#949,#960,.T.);
#958 = VERTEX_POINT('',#959);
#959 = CARTESIAN_POINT('',(-12.92,28.,32.5));
#960 = CIRCLE('',#961,1.);
#961 = AXIS2_PLACEMENT_3D('',#962,#963,#964);
#962 = CARTESIAN_POINT('',(-12.92,28.,31.5));
#963 = DIRECTION('',(0.,-1.,0.));
#964 = DIRECTION('',(0.,0.,-1.));
#965 = ORIENTED_EDGE('',*,*,#966,.F.);
#966 = EDGE_CURVE('',#967,#958,#969,.T.);
#967 = VERTEX_POINT('',#968);
#968 = CARTESIAN_POINT('',(-11.92,28.,31.5));
#969 = CIRCLE('',#970,1.);
#970 = AXIS2_PLACEMENT_3D('',#971,#972,#973);
#971 = CARTESIAN_POINT('',(-12.92,28.,31.5));
#972 = DIRECTION('',(0.,-1.,0.));
#973 = DIRECTION('',(0.,0.,-1.));
#974 = ORIENTED_EDGE('',*,*,#975,.F.);
#975 = EDGE_CURVE('',#941,#967,#976,.T.);
#976 = ELLIPSE('',#977,1.414213562373,1.);
#977 = AXIS2_PLACEMENT_3D('',#978,#979,#980);
#978 = CARTESIAN_POINT('',(-12.92,28.,31.5));
#979 = DIRECTION('',(-0.,-0.707106781187,-0.707106781187));
#980 = DIRECTION('',(0.,-0.707106781187,0.707106781187));
#981 = ORIENTED_EDGE('',*,*,#940,.F.);
#982 = CYLINDRICAL_SURFACE('',#983,1.);
#983 = AXIS2_PLACEMENT_3D('',#984,#985,#986);
#984 = CARTESIAN_POINT('',(-12.92,38.5,31.5));
#985 = DIRECTION('',(0.,-1.,0.));
#986 = DIRECTION('',(0.,0.,-1.));
#987 = ADVANCED_FACE('',(#988),#992,.T.);
#988 = FACE_BOUND('',#989,.T.);
#989 = EDGE_LOOP('',(#990,#991));
#990 = ORIENTED_EDGE('',*,*,#801,.T.);
#991 = ORIENTED_EDGE('',*,*,#932,.F.);
#992 = SPHERICAL_SURFACE('',#993,1.);
#993 = AXIS2_PLACEMENT_3D('',#994,#995,#996);
#994 = CARTESIAN_POINT('',(-12.92,38.5,31.5));
#995 = DIRECTION('',(0.,0.,1.));
#996 = DIRECTION('',(1.,0.,0.));
#997 = ADVANCED_FACE('',(#998),#1043,.F.);
#998 = FACE_BOUND('',#999,.F.);
#999 = EDGE_LOOP('',(#1000,#1001,#1010,#1018,#1027,#1034,#1035,#1042));
#1000 = ORIENTED_EDGE('',*,*,#915,.T.);
#1001 = ORIENTED_EDGE('',*,*,#1002,.T.);
#1002 = EDGE_CURVE('',#907,#1003,#1005,.T.);
#1003 = VERTEX_POINT('',#1004);
#1004 = CARTESIAN_POINT('',(-30.,38.5,31.825));
#1005 = CIRCLE('',#1006,0.325);
#1006 = AXIS2_PLACEMENT_3D('',#1007,#1008,#1009);
#1007 = CARTESIAN_POINT('',(-30.,38.5,31.5));
#1008 = DIRECTION('',(1.,0.,-0.));
#1009 = DIRECTION('',(0.,0.,1.));
#1010 = ORIENTED_EDGE('',*,*,#1011,.T.);
#1011 = EDGE_CURVE('',#1003,#1012,#1014,.T.);
#1012 = VERTEX_POINT('',#1013);
#1013 = CARTESIAN_POINT('',(-12.92,38.5,31.825));
#1014 = LINE('',#1015,#1016);
#1015 = CARTESIAN_POINT('',(-30.,38.5,31.825));
#1016 = VECTOR('',#1017,1.);
#1017 = DIRECTION('',(1.,0.,0.));
#1018 = ORIENTED_EDGE('',*,*,#1019,.F.);
#1019 = EDGE_CURVE('',#1020,#1012,#1022,.T.);
#1020 = VERTEX_POINT('',#1021);
#1021 = CARTESIAN_POINT('',(-12.92,38.5,31.175));
#1022 = CIRCLE('',#1023,0.325);
#1023 = AXIS2_PLACEMENT_3D('',#1024,#1025,#1026);
#1024 = CARTESIAN_POINT('',(-12.92,38.5,31.5));
#1025 = DIRECTION('',(1.,0.,-0.));
#1026 = DIRECTION('',(0.,0.,1.));
#1027 = ORIENTED_EDGE('',*,*,#1028,.F.);
#1028 = EDGE_CURVE('',#1012,#1020,#1029,.T.);
#1029 = ELLIPSE('',#1030,0.459619407771,0.325);
#1030 = AXIS2_PLACEMENT_3D('',#1031,#1032,#1033);
#1031 = CARTESIAN_POINT('',(-12.92,38.5,31.5));
#1032 = DIRECTION('',(0.707106781187,-0.707106781187,0.));
#1033 = DIRECTION('',(0.707106781187,0.707106781187,0.));
#1034 = ORIENTED_EDGE('',*,*,#1011,.F.);
#1035 = ORIENTED_EDGE('',*,*,#1036,.T.);
#1036 = EDGE_CURVE('',#1003,#898,#1037,.T.);
#1037 = CIRCLE('',#1038,0.325);
#1038 = AXIS2_PLACEMENT_3D('',#1039,#1040,#1041);
#1039 = CARTESIAN_POINT('',(-30.,38.5,31.5));
#1040 = DIRECTION('',(1.,0.,-0.));
#1041 = DIRECTION('',(0.,0.,1.));
#1042 = ORIENTED_EDGE('',*,*,#897,.T.);
#1043 = CYLINDRICAL_SURFACE('',#1044,0.325);
#1044 = AXIS2_PLACEMENT_3D('',#1045,#1046,#1047);
#1045 = CARTESIAN_POINT('',(-30.,38.5,31.5));
#1046 = DIRECTION('',(1.,0.,0.));
#1047 = DIRECTION('',(0.,0.,1.));
#1048 = ADVANCED_FACE('',(#1049),#1054,.F.);
#1049 = FACE_BOUND('',#1050,.F.);
#1050 = EDGE_LOOP('',(#1051,#1052,#1053));
#1051 = ORIENTED_EDGE('',*,*,#1036,.F.);
#1052 = ORIENTED_EDGE('',*,*,#1002,.F.);
#1053 = ORIENTED_EDGE('',*,*,#906,.T.);
#1054 = SPHERICAL_SURFACE('',#1055,0.325);
#1055 = AXIS2_PLACEMENT_3D('',#1056,#1057,#1058);
#1056 = CARTESIAN_POINT('',(-30.,38.5,31.5));
#1057 = DIRECTION('',(0.,0.,1.));
#1058 = DIRECTION('',(1.,0.,0.));
#1059 = ADVANCED_FACE('',(#1060),#1096,.T.);
#1060 = FACE_BOUND('',#1061,.T.);
#1061 = EDGE_LOOP('',(#1062,#1063,#1070,#1078,#1087,#1094,#1095));
#1062 = ORIENTED_EDGE('',*,*,#975,.T.);
#1063 = ORIENTED_EDGE('',*,*,#1064,.T.);
#1064 = EDGE_CURVE('',#967,#949,#1065,.T.);
#1065 = CIRCLE('',#1066,1.);
#1066 = AXIS2_PLACEMENT_3D('',#1067,#1068,#1069);
#1067 = CARTESIAN_POINT('',(-12.92,28.,31.5));
#1068 = DIRECTION('',(0.,0.,-1.));
#1069 = DIRECTION('',(-1.,0.,0.));
#1070 = ORIENTED_EDGE('',*,*,#1071,.T.);
#1071 = EDGE_CURVE('',#949,#1072,#1074,.T.);
#1072 = VERTEX_POINT('',#1073);
#1073 = CARTESIAN_POINT('',(-13.92,28.,27.6));
#1074 = LINE('',#1075,#1076);
#1075 = CARTESIAN_POINT('',(-13.92,28.,31.5));
#1076 = VECTOR('',#1077,1.);
#1077 = DIRECTION('',(0.,0.,-1.));
#1078 = ORIENTED_EDGE('',*,*,#1079,.F.);
#1079 = EDGE_CURVE('',#1080,#1072,#1082,.T.);
#1080 = VERTEX_POINT('',#1081);
#1081 = CARTESIAN_POINT('',(-11.92,28.,27.6));
#1082 = CIRCLE('',#1083,1.);
#1083 = AXIS2_PLACEMENT_3D('',#1084,#1085,#1086);
#1084 = CARTESIAN_POINT('',(-12.92,28.,27.6));
#1085 = DIRECTION('',(0.,0.,-1.));
#1086 = DIRECTION('',(-1.,0.,0.));
#1087 = ORIENTED_EDGE('',*,*,#1088,.F.);
#1088 = EDGE_CURVE('',#1072,#1080,#1089,.T.);
#1089 = CIRCLE('',#1090,1.);
#1090 = AXIS2_PLACEMENT_3D('',#1091,#1092,#1093);
#1091 = CARTESIAN_POINT('',(-12.92,28.,27.6));
#1092 = DIRECTION('',(0.,0.,-1.));
#1093 = DIRECTION('',(-1.,0.,0.));
#1094 = ORIENTED_EDGE('',*,*,#1071,.F.);
#1095 = ORIENTED_EDGE('',*,*,#948,.T.);
#1096 = CYLINDRICAL_SURFACE('',#1097,1.);
#1097 = AXIS2_PLACEMENT_3D('',#1098,#1099,#1100);
#1098 = CARTESIAN_POINT('',(-12.92,28.,31.5));
#1099 = DIRECTION('',(0.,0.,-1.));
#1100 = DIRECTION('',(-1.,0.,0.));
#1101 = ADVANCED_FACE('',(#1102),#1107,.T.);
#1102 = FACE_BOUND('',#1103,.T.);
#1103 = EDGE_LOOP('',(#1104,#1105,#1106));
#1104 = ORIENTED_EDGE('',*,*,#1064,.F.);
#1105 = ORIENTED_EDGE('',*,*,#966,.T.);
#1106 = ORIENTED_EDGE('',*,*,#957,.T.);
#1107 = SPHERICAL_SURFACE('',#1108,1.);
#1108 = AXIS2_PLACEMENT_3D('',#1109,#1110,#1111);
#1109 = CARTESIAN_POINT('',(-12.92,28.,31.5));
#1110 = DIRECTION('',(0.,0.,1.));
#1111 = DIRECTION('',(1.,0.,0.));
#1112 = ADVANCED_FACE('',(#1113),#1166,.F.);
#1113 = FACE_BOUND('',#1114,.F.);
#1114 = EDGE_LOOP('',(#1115,#1122,#1123,#1131,#1140,#1149,#1158,#1165));
#1115 = ORIENTED_EDGE('',*,*,#1116,.T.);
#1116 = EDGE_CURVE('',#1020,#1012,#1117,.T.);
#1117 = CIRCLE('',#1118,0.325);
#1118 = AXIS2_PLACEMENT_3D('',#1119,#1120,#1121);
#1119 = CARTESIAN_POINT('',(-12.92,38.5,31.5));
#1120 = DIRECTION('',(-2.449293598295E-16,-1.,0.));
#1121 = DIRECTION('',(1.,-2.449293598295E-16,0.));
#1122 = ORIENTED_EDGE('',*,*,#1028,.T.);
#1123 = ORIENTED_EDGE('',*,*,#1124,.T.);
#1124 = EDGE_CURVE('',#1020,#1125,#1127,.T.);
#1125 = VERTEX_POINT('',#1126);
#1126 = CARTESIAN_POINT('',(-12.92,28.325,31.175));
#1127 = LINE('',#1128,#1129);
#1128 = CARTESIAN_POINT('',(-12.92,38.5,31.175));
#1129 = VECTOR('',#1130,1.);
#1130 = DIRECTION('',(0.,-1.,0.));
#1131 = ORIENTED_EDGE('',*,*,#1132,.F.);
#1132 = EDGE_CURVE('',#1133,#1125,#1135,.T.);
#1133 = VERTEX_POINT('',#1134);
#1134 = CARTESIAN_POINT('',(-13.245,28.,31.5));
#1135 = ELLIPSE('',#1136,0.459619407771,0.325);
#1136 = AXIS2_PLACEMENT_3D('',#1137,#1138,#1139);
#1137 = CARTESIAN_POINT('',(-12.92,28.,31.5));
#1138 = DIRECTION('',(-0.,-0.707106781187,-0.707106781187));
#1139 = DIRECTION('',(0.,-0.707106781187,0.707106781187));
#1140 = ORIENTED_EDGE('',*,*,#1141,.F.);
#1141 = EDGE_CURVE('',#1142,#1133,#1144,.T.);
#1142 = VERTEX_POINT('',#1143);
#1143 = CARTESIAN_POINT('',(-12.92,28.,31.825));
#1144 = CIRCLE('',#1145,0.325);
#1145 = AXIS2_PLACEMENT_3D('',#1146,#1147,#1148);
#1146 = CARTESIAN_POINT('',(-12.92,28.,31.5));
#1147 = DIRECTION('',(0.,-1.,0.));
#1148 = DIRECTION('',(0.,0.,-1.));
#1149 = ORIENTED_EDGE('',*,*,#1150,.F.);
#1150 = EDGE_CURVE('',#1151,#1142,#1153,.T.);
#1151 = VERTEX_POINT('',#1152);
#1152 = CARTESIAN_POINT('',(-12.595,28.,31.5));
#1153 = CIRCLE('',#1154,0.325);
#1154 = AXIS2_PLACEMENT_3D('',#1155,#1156,#1157);
#1155 = CARTESIAN_POINT('',(-12.92,28.,31.5));
#1156 = DIRECTION('',(0.,-1.,0.));
#1157 = DIRECTION('',(0.,0.,-1.));
#1158 = ORIENTED_EDGE('',*,*,#1159,.F.);
#1159 = EDGE_CURVE('',#1125,#1151,#1160,.T.);
#1160 = ELLIPSE('',#1161,0.459619407771,0.325);
#1161 = AXIS2_PLACEMENT_3D('',#1162,#1163,#1164);
#1162 = CARTESIAN_POINT('',(-12.92,28.,31.5));
#1163 = DIRECTION('',(-0.,-0.707106781187,-0.707106781187));
#1164 = DIRECTION('',(0.,-0.707106781187,0.707106781187));
#1165 = ORIENTED_EDGE('',*,*,#1124,.F.);
#1166 = CYLINDRICAL_SURFACE('',#1167,0.325);
#1167 = AXIS2_PLACEMENT_3D('',#1168,#1169,#1170);
#1168 = CARTESIAN_POINT('',(-12.92,38.5,31.5));
#1169 = DIRECTION('',(0.,-1.,0.));
#1170 = DIRECTION('',(0.,0.,-1.));
#1171 = ADVANCED_FACE('',(#1172),#1176,.F.);
#1172 = FACE_BOUND('',#1173,.F.);
#1173 = EDGE_LOOP('',(#1174,#1175));
#1174 = ORIENTED_EDGE('',*,*,#1019,.T.);
#1175 = ORIENTED_EDGE('',*,*,#1116,.F.);
#1176 = SPHERICAL_SURFACE('',#1177,0.325);
#1177 = AXIS2_PLACEMENT_3D('',#1178,#1179,#1180);
#1178 = CARTESIAN_POINT('',(-12.92,38.5,31.5));
#1179 = DIRECTION('',(0.,0.,1.));
#1180 = DIRECTION('',(1.,0.,0.));
#1181 = ADVANCED_FACE('',(#1182,#1186),#1206,.F.);
#1182 = FACE_BOUND('',#1183,.F.);
#1183 = EDGE_LOOP('',(#1184,#1185));
#1184 = ORIENTED_EDGE('',*,*,#1088,.F.);
#1185 = ORIENTED_EDGE('',*,*,#1079,.F.);
#1186 = FACE_BOUND('',#1187,.F.);
#1187 = EDGE_LOOP('',(#1188,#1199));
#1188 = ORIENTED_EDGE('',*,*,#1189,.T.);
#1189 = EDGE_CURVE('',#1190,#1192,#1194,.T.);
#1190 = VERTEX_POINT('',#1191);
#1191 = CARTESIAN_POINT('',(-12.595,28.,27.6));
#1192 = VERTEX_POINT('',#1193);
#1193 = CARTESIAN_POINT('',(-13.245,28.,27.6));
#1194 = CIRCLE('',#1195,0.325);
#1195 = AXIS2_PLACEMENT_3D('',#1196,#1197,#1198);
#1196 = CARTESIAN_POINT('',(-12.92,28.,27.6));
#1197 = DIRECTION('',(0.,0.,-1.));
#1198 = DIRECTION('',(-1.,0.,0.));
#1199 = ORIENTED_EDGE('',*,*,#1200,.T.);
#1200 = EDGE_CURVE('',#1192,#1190,#1201,.T.);
#1201 = CIRCLE('',#1202,0.325);
#1202 = AXIS2_PLACEMENT_3D('',#1203,#1204,#1205);
#1203 = CARTESIAN_POINT('',(-12.92,28.,27.6));
#1204 = DIRECTION('',(0.,0.,-1.));
#1205 = DIRECTION('',(-1.,0.,0.));
#1206 = PLANE('',#1207);
#1207 = AXIS2_PLACEMENT_3D('',#1208,#1209,#1210);
#1208 = CARTESIAN_POINT('',(-15.92,25.,27.6));
#1209 = DIRECTION('',(0.,0.,1.));
#1210 = DIRECTION('',(1.,0.,0.));
#1211 = ADVANCED_FACE('',(#1212),#1232,.F.);
#1212 = FACE_BOUND('',#1213,.F.);
#1213 = EDGE_LOOP('',(#1214,#1215,#1222,#1228,#1229,#1230,#1231));
#1214 = ORIENTED_EDGE('',*,*,#1159,.T.);
#1215 = ORIENTED_EDGE('',*,*,#1216,.T.);
#1216 = EDGE_CURVE('',#1151,#1133,#1217,.T.);
#1217 = CIRCLE('',#1218,0.325);
#1218 = AXIS2_PLACEMENT_3D('',#1219,#1220,#1221);
#1219 = CARTESIAN_POINT('',(-12.92,28.,31.5));
#1220 = DIRECTION('',(0.,0.,-1.));
#1221 = DIRECTION('',(-1.,0.,0.));
#1222 = ORIENTED_EDGE('',*,*,#1223,.T.);
#1223 = EDGE_CURVE('',#1133,#1192,#1224,.T.);
#1224 = LINE('',#1225,#1226);
#1225 = CARTESIAN_POINT('',(-13.245,28.,31.5));
#1226 = VECTOR('',#1227,1.);
#1227 = DIRECTION('',(0.,0.,-1.));
#1228 = ORIENTED_EDGE('',*,*,#1189,.F.);
#1229 = ORIENTED_EDGE('',*,*,#1200,.F.);
#1230 = ORIENTED_EDGE('',*,*,#1223,.F.);
#1231 = ORIENTED_EDGE('',*,*,#1132,.T.);
#1232 = CYLINDRICAL_SURFACE('',#1233,0.325);
#1233 = AXIS2_PLACEMENT_3D('',#1234,#1235,#1236);
#1234 = CARTESIAN_POINT('',(-12.92,28.,31.5));
#1235 = DIRECTION('',(0.,0.,-1.));
#1236 = DIRECTION('',(-1.,0.,0.));
#1237 = ADVANCED_FACE('',(#1238),#1243,.F.);
#1238 = FACE_BOUND('',#1239,.F.);
#1239 = EDGE_LOOP('',(#1240,#1241,#1242));
#1240 = ORIENTED_EDGE('',*,*,#1216,.F.);
#1241 = ORIENTED_EDGE('',*,*,#1150,.T.);
#1242 = ORIENTED_EDGE('',*,*,#1141,.T.);
#1243 = SPHERICAL_SURFACE('',#1244,0.325);
#1244 = AXIS2_PLACEMENT_3D('',#1245,#1246,#1247);
#1245 = CARTESIAN_POINT('',(-12.92,28.,31.5));
#1246 = DIRECTION('',(0.,0.,1.));
#1247 = DIRECTION('',(1.,0.,0.));
#1248 = ( GEOMETRIC_REPRESENTATION_CONTEXT(3) 
GLOBAL_UNCERTAINTY_ASSIGNED_CONTEXT((#1252)) 
GLOBAL_UNIT_ASSIGNED_CONTEXT((#1249,#1250,#1251)) REPRESENTATION_CONTEXT
('Context #1','3D Context with UNIT and UNCERTAINTY') );
#1249 = ( LENGTH_UNIT() NAMED_UNIT(*) SI_UNIT(.MILLI.,.METRE.) );
#1250 = ( NAMED_UNIT(*) PLANE_ANGLE_UNIT() SI_UNIT($,.RADIAN.) );
#1251 = ( NAMED_UNIT(*) SI_UNIT($,.STERADIAN.) SOLID_ANGLE_UNIT() );
#1252 = UNCERTAINTY_MEASURE_WITH_UNIT(LENGTH_MEASURE(2.E-07),#1249,
  'distance_accuracy_value','confusion accuracy');
#1253 = PRODUCT_RELATED_PRODUCT_CATEGORY('part',$,(#7));
ENDSEC;
END-ISO-10303-21;
