ISO-10303-21;
HEADER;
FILE_DESCRIPTION(('FreeCAD Model'),'2;1');
FILE_NAME('Open CASCADE Shape Model','2026-09-30T01:44:48',('FreeCAD'),(
    'FreeCAD'),'Open CASCADE STEP processor 7.8','FreeCAD','Unknown');
FILE_SCHEMA(('AUTOMOTIVE_DESIGN { 1 0 10303 214 1 1 1 1 }'));
ENDSEC;
DATA;
#1 = APPLICATION_PROTOCOL_DEFINITION('international standard',
  'automotive_design',2000,#2);
#2 = APPLICATION_CONTEXT(
  'core data for automotive mechanical design processes');
#3 = SHAPE_DEFINITION_REPRESENTATION(#4,#10);
#4 = PRODUCT_DEFINITION_SHAPE('','',#5);
#5 = PRODUCT_DEFINITION('design','',#6,#9);
#6 = PRODUCT_DEFINITION_FORMATION('','',#7);
#7 = PRODUCT('Open CASCADE STEP translator 7.8 42',
  'Open CASCADE STEP translator 7.8 42','',(#8));
#8 = PRODUCT_CONTEXT('',#2,'mechanical');
#9 = PRODUCT_DEFINITION_CONTEXT('part definition',#2,'design');
#10 = ADVANCED_BREP_SHAPE_REPRESENTATION('',(#11,#15),#595);
#11 = AXIS2_PLACEMENT_3D('',#12,#13,#14);
#12 = CARTESIAN_POINT('',(0.,0.,0.));
#13 = DIRECTION('',(0.,0.,1.));
#14 = DIRECTION('',(1.,0.,-0.));
#15 = MANIFOLD_SOLID_BREP('',#16);
#16 = CLOSED_SHELL('',(#17,#59,#79,#104,#140,#174,#190,#225,#250,#286,
    #345,#355,#371,#406,#448,#459,#518,#528,#558,#584));
#17 = ADVANCED_FACE('',(#18),#54,.T.);
#18 = FACE_BOUND('',#19,.T.);
#19 = EDGE_LOOP('',(#20,#29,#37,#46,#53));
#20 = ORIENTED_EDGE('',*,*,#21,.T.);
#21 = EDGE_CURVE('',#22,#22,#24,.T.);
#22 = VERTEX_POINT('',#23);
#23 = CARTESIAN_POINT('',(-15.4,-7.,34.));
#24 = CIRCLE('',#25,1.4);
#25 = AXIS2_PLACEMENT_3D('',#26,#27,#28);
#26 = CARTESIAN_POINT('',(-14.,-7.,34.));
#27 = DIRECTION('',(0.,0.,-1.));
#28 = DIRECTION('',(-1.,0.,0.));
#29 = ORIENTED_EDGE('',*,*,#30,.T.);
#30 = EDGE_CURVE('',#22,#31,#33,.T.);
#31 = VERTEX_POINT('',#32);
#32 = CARTESIAN_POINT('',(-15.4,-7.,29.5));
#33 = LINE('',#34,#35);
#34 = CARTESIAN_POINT('',(-15.4,-7.,34.3));
#35 = VECTOR('',#36,1.);
#36 = DIRECTION('',(0.,0.,-1.));
#37 = ORIENTED_EDGE('',*,*,#38,.F.);
#38 = EDGE_CURVE('',#39,#31,#41,.T.);
#39 = VERTEX_POINT('',#40);
#40 = CARTESIAN_POINT('',(-12.6,-7.,29.5));
#41 = ELLIPSE('',#42,1.979898987322,1.4);
#42 = AXIS2_PLACEMENT_3D('',#43,#44,#45);
#43 = CARTESIAN_POINT('',(-14.,-7.,29.5));
#44 = DIRECTION('',(0.,-0.707106781187,-0.707106781187));
#45 = DIRECTION('',(0.,0.707106781187,-0.707106781187));
#46 = ORIENTED_EDGE('',*,*,#47,.F.);
#47 = EDGE_CURVE('',#31,#39,#48,.T.);
#48 = CIRCLE('',#49,1.4);
#49 = AXIS2_PLACEMENT_3D('',#50,#51,#52);
#50 = CARTESIAN_POINT('',(-14.,-7.,29.5));
#51 = DIRECTION('',(0.,0.,-1.));
#52 = DIRECTION('',(-1.,0.,0.));
#53 = ORIENTED_EDGE('',*,*,#30,.F.);
#54 = CYLINDRICAL_SURFACE('',#55,1.4);
#55 = AXIS2_PLACEMENT_3D('',#56,#57,#58);
#56 = CARTESIAN_POINT('',(-14.,-7.,34.3));
#57 = DIRECTION('',(0.,0.,-1.));
#58 = DIRECTION('',(-1.,0.,0.));
#59 = ADVANCED_FACE('',(#60,#63),#74,.T.);
#60 = FACE_BOUND('',#61,.T.);
#61 = EDGE_LOOP('',(#62));
#62 = ORIENTED_EDGE('',*,*,#21,.F.);
#63 = FACE_BOUND('',#64,.T.);
#64 = EDGE_LOOP('',(#65));
#65 = ORIENTED_EDGE('',*,*,#66,.T.);
#66 = EDGE_CURVE('',#67,#67,#69,.T.);
#67 = VERTEX_POINT('',#68);
#68 = CARTESIAN_POINT('',(-14.65,-7.,34.));
#69 = CIRCLE('',#70,0.65);
#70 = AXIS2_PLACEMENT_3D('',#71,#72,#73);
#71 = CARTESIAN_POINT('',(-14.,-7.,34.));
#72 = DIRECTION('',(0.,0.,-1.));
#73 = DIRECTION('',(-1.,0.,0.));
#74 = PLANE('',#75);
#75 = AXIS2_PLACEMENT_3D('',#76,#77,#78);
#76 = CARTESIAN_POINT('',(-13.66506350946,-12.58012701892,34.));
#77 = DIRECTION('',(0.,0.,1.));
#78 = DIRECTION('',(0.866025403784,0.5,0.));
#79 = ADVANCED_FACE('',(#80),#99,.T.);
#80 = FACE_BOUND('',#81,.T.);
#81 = EDGE_LOOP('',(#82,#91,#92));
#82 = ORIENTED_EDGE('',*,*,#83,.F.);
#83 = EDGE_CURVE('',#31,#84,#86,.T.);
#84 = VERTEX_POINT('',#85);
#85 = CARTESIAN_POINT('',(-14.,-7.,28.1));
#86 = CIRCLE('',#87,1.4);
#87 = AXIS2_PLACEMENT_3D('',#88,#89,#90);
#88 = CARTESIAN_POINT('',(-14.,-7.,29.5));
#89 = DIRECTION('',(0.,-1.,0.));
#90 = DIRECTION('',(0.,0.,-1.));
#91 = ORIENTED_EDGE('',*,*,#47,.T.);
#92 = ORIENTED_EDGE('',*,*,#93,.F.);
#93 = EDGE_CURVE('',#84,#39,#94,.T.);
#94 = CIRCLE('',#95,1.4);
#95 = AXIS2_PLACEMENT_3D('',#96,#97,#98);
#96 = CARTESIAN_POINT('',(-14.,-7.,29.5));
#97 = DIRECTION('',(-2.449293598295E-16,-1.,0.));
#98 = DIRECTION('',(1.,-2.449293598295E-16,0.));
#99 = SPHERICAL_SURFACE('',#100,1.4);
#100 = AXIS2_PLACEMENT_3D('',#101,#102,#103);
#101 = CARTESIAN_POINT('',(-14.,-7.,29.5));
#102 = DIRECTION('',(0.,0.,1.));
#103 = DIRECTION('',(1.,0.,0.));
#104 = ADVANCED_FACE('',(#105),#135,.T.);
#105 = FACE_BOUND('',#106,.T.);
#106 = EDGE_LOOP('',(#107,#108,#109,#117,#126,#133,#134));
#107 = ORIENTED_EDGE('',*,*,#38,.T.);
#108 = ORIENTED_EDGE('',*,*,#83,.T.);
#109 = ORIENTED_EDGE('',*,*,#110,.T.);
#110 = EDGE_CURVE('',#84,#111,#113,.T.);
#111 = VERTEX_POINT('',#112);
#112 = CARTESIAN_POINT('',(-14.,-22.,28.1));
#113 = LINE('',#114,#115);
#114 = CARTESIAN_POINT('',(-14.,-7.,28.1));
#115 = VECTOR('',#116,1.);
#116 = DIRECTION('',(0.,-1.,0.));
#117 = ORIENTED_EDGE('',*,*,#118,.F.);
#118 = EDGE_CURVE('',#119,#111,#121,.T.);
#119 = VERTEX_POINT('',#120);
#120 = CARTESIAN_POINT('',(-14.,-22.,30.9));
#121 = ELLIPSE('',#122,1.979898987322,1.4);
#122 = AXIS2_PLACEMENT_3D('',#123,#124,#125);
#123 = CARTESIAN_POINT('',(-14.,-22.,29.5));
#124 = DIRECTION('',(-0.707106781187,-0.707106781187,0.));
#125 = DIRECTION('',(0.707106781187,-0.707106781187,0.));
#126 = ORIENTED_EDGE('',*,*,#127,.F.);
#127 = EDGE_CURVE('',#111,#119,#128,.T.);
#128 = CIRCLE('',#129,1.4);
#129 = AXIS2_PLACEMENT_3D('',#130,#131,#132);
#130 = CARTESIAN_POINT('',(-14.,-22.,29.5));
#131 = DIRECTION('',(0.,-1.,0.));
#132 = DIRECTION('',(0.,0.,-1.));
#133 = ORIENTED_EDGE('',*,*,#110,.F.);
#134 = ORIENTED_EDGE('',*,*,#93,.T.);
#135 = CYLINDRICAL_SURFACE('',#136,1.4);
#136 = AXIS2_PLACEMENT_3D('',#137,#138,#139);
#137 = CARTESIAN_POINT('',(-14.,-7.,29.5));
#138 = DIRECTION('',(0.,-1.,0.));
#139 = DIRECTION('',(0.,0.,-1.));
#140 = ADVANCED_FACE('',(#141),#169,.F.);
#141 = FACE_BOUND('',#142,.F.);
#142 = EDGE_LOOP('',(#143,#144,#152,#161,#168));
#143 = ORIENTED_EDGE('',*,*,#66,.T.);
#144 = ORIENTED_EDGE('',*,*,#145,.T.);
#145 = EDGE_CURVE('',#67,#146,#148,.T.);
#146 = VERTEX_POINT('',#147);
#147 = CARTESIAN_POINT('',(-14.65,-7.,29.5));
#148 = LINE('',#149,#150);
#149 = CARTESIAN_POINT('',(-14.65,-7.,34.3));
#150 = VECTOR('',#151,1.);
#151 = DIRECTION('',(0.,0.,-1.));
#152 = ORIENTED_EDGE('',*,*,#153,.F.);
#153 = EDGE_CURVE('',#154,#146,#156,.T.);
#154 = VERTEX_POINT('',#155);
#155 = CARTESIAN_POINT('',(-13.35,-7.,29.5));
#156 = ELLIPSE('',#157,0.919238815543,0.65);
#157 = AXIS2_PLACEMENT_3D('',#158,#159,#160);
#158 = CARTESIAN_POINT('',(-14.,-7.,29.5));
#159 = DIRECTION('',(0.,-0.707106781187,-0.707106781187));
#160 = DIRECTION('',(0.,0.707106781187,-0.707106781187));
#161 = ORIENTED_EDGE('',*,*,#162,.F.);
#162 = EDGE_CURVE('',#146,#154,#163,.T.);
#163 = CIRCLE('',#164,0.65);
#164 = AXIS2_PLACEMENT_3D('',#165,#166,#167);
#165 = CARTESIAN_POINT('',(-14.,-7.,29.5));
#166 = DIRECTION('',(0.,0.,-1.));
#167 = DIRECTION('',(-1.,0.,0.));
#168 = ORIENTED_EDGE('',*,*,#145,.F.);
#169 = CYLINDRICAL_SURFACE('',#170,0.65);
#170 = AXIS2_PLACEMENT_3D('',#171,#172,#173);
#171 = CARTESIAN_POINT('',(-14.,-7.,34.3));
#172 = DIRECTION('',(0.,0.,-1.));
#173 = DIRECTION('',(-1.,0.,0.));
#174 = ADVANCED_FACE('',(#175),#185,.T.);
#175 = FACE_BOUND('',#176,.T.);
#176 = EDGE_LOOP('',(#177,#178));
#177 = ORIENTED_EDGE('',*,*,#127,.T.);
#178 = ORIENTED_EDGE('',*,*,#179,.F.);
#179 = EDGE_CURVE('',#111,#119,#180,.T.);
#180 = CIRCLE('',#181,1.4);
#181 = AXIS2_PLACEMENT_3D('',#182,#183,#184);
#182 = CARTESIAN_POINT('',(-14.,-22.,29.5));
#183 = DIRECTION('',(-1.,0.,0.));
#184 = DIRECTION('',(0.,0.,-1.));
#185 = SPHERICAL_SURFACE('',#186,1.4);
#186 = AXIS2_PLACEMENT_3D('',#187,#188,#189);
#187 = CARTESIAN_POINT('',(-14.,-22.,29.5));
#188 = DIRECTION('',(0.,0.,1.));
#189 = DIRECTION('',(1.,0.,0.));
#190 = ADVANCED_FACE('',(#191),#220,.T.);
#191 = FACE_BOUND('',#192,.T.);
#192 = EDGE_LOOP('',(#193,#194,#195,#203,#212,#219));
#193 = ORIENTED_EDGE('',*,*,#179,.T.);
#194 = ORIENTED_EDGE('',*,*,#118,.T.);
#195 = ORIENTED_EDGE('',*,*,#196,.T.);
#196 = EDGE_CURVE('',#111,#197,#199,.T.);
#197 = VERTEX_POINT('',#198);
#198 = CARTESIAN_POINT('',(-22.,-22.,28.1));
#199 = LINE('',#200,#201);
#200 = CARTESIAN_POINT('',(-14.,-22.,28.1));
#201 = VECTOR('',#202,1.);
#202 = DIRECTION('',(-1.,0.,0.));
#203 = ORIENTED_EDGE('',*,*,#204,.F.);
#204 = EDGE_CURVE('',#205,#197,#207,.T.);
#205 = VERTEX_POINT('',#206);
#206 = CARTESIAN_POINT('',(-22.,-22.,30.9));
#207 = CIRCLE('',#208,1.4);
#208 = AXIS2_PLACEMENT_3D('',#209,#210,#211);
#209 = CARTESIAN_POINT('',(-22.,-22.,29.5));
#210 = DIRECTION('',(-1.,0.,0.));
#211 = DIRECTION('',(0.,0.,-1.));
#212 = ORIENTED_EDGE('',*,*,#213,.F.);
#213 = EDGE_CURVE('',#197,#205,#214,.T.);
#214 = ELLIPSE('',#215,1.979898987322,1.4);
#215 = AXIS2_PLACEMENT_3D('',#216,#217,#218);
#216 = CARTESIAN_POINT('',(-22.,-22.,29.5));
#217 = DIRECTION('',(-0.707106781187,-0.707106781187,-0.));
#218 = DIRECTION('',(-0.707106781187,0.707106781187,0.));
#219 = ORIENTED_EDGE('',*,*,#196,.F.);
#220 = CYLINDRICAL_SURFACE('',#221,1.4);
#221 = AXIS2_PLACEMENT_3D('',#222,#223,#224);
#222 = CARTESIAN_POINT('',(-14.,-22.,29.5));
#223 = DIRECTION('',(-1.,0.,0.));
#224 = DIRECTION('',(0.,0.,-1.));
#225 = ADVANCED_FACE('',(#226),#245,.F.);
#226 = FACE_BOUND('',#227,.F.);
#227 = EDGE_LOOP('',(#228,#237,#238));
#228 = ORIENTED_EDGE('',*,*,#229,.F.);
#229 = EDGE_CURVE('',#146,#230,#232,.T.);
#230 = VERTEX_POINT('',#231);
#231 = CARTESIAN_POINT('',(-14.,-7.,28.85));
#232 = CIRCLE('',#233,0.65);
#233 = AXIS2_PLACEMENT_3D('',#234,#235,#236);
#234 = CARTESIAN_POINT('',(-14.,-7.,29.5));
#235 = DIRECTION('',(0.,-1.,0.));
#236 = DIRECTION('',(0.,0.,-1.));
#237 = ORIENTED_EDGE('',*,*,#162,.T.);
#238 = ORIENTED_EDGE('',*,*,#239,.F.);
#239 = EDGE_CURVE('',#230,#154,#240,.T.);
#240 = CIRCLE('',#241,0.65);
#241 = AXIS2_PLACEMENT_3D('',#242,#243,#244);
#242 = CARTESIAN_POINT('',(-14.,-7.,29.5));
#243 = DIRECTION('',(-2.449293598295E-16,-1.,0.));
#244 = DIRECTION('',(1.,-2.449293598295E-16,0.));
#245 = SPHERICAL_SURFACE('',#246,0.65);
#246 = AXIS2_PLACEMENT_3D('',#247,#248,#249);
#247 = CARTESIAN_POINT('',(-14.,-7.,29.5));
#248 = DIRECTION('',(0.,0.,1.));
#249 = DIRECTION('',(1.,0.,0.));
#250 = ADVANCED_FACE('',(#251),#281,.F.);
#251 = FACE_BOUND('',#252,.F.);
#252 = EDGE_LOOP('',(#253,#254,#255,#263,#272,#279,#280));
#253 = ORIENTED_EDGE('',*,*,#153,.T.);
#254 = ORIENTED_EDGE('',*,*,#229,.T.);
#255 = ORIENTED_EDGE('',*,*,#256,.T.);
#256 = EDGE_CURVE('',#230,#257,#259,.T.);
#257 = VERTEX_POINT('',#258);
#258 = CARTESIAN_POINT('',(-14.,-22.,28.85));
#259 = LINE('',#260,#261);
#260 = CARTESIAN_POINT('',(-14.,-7.,28.85));
#261 = VECTOR('',#262,1.);
#262 = DIRECTION('',(0.,-1.,0.));
#263 = ORIENTED_EDGE('',*,*,#264,.F.);
#264 = EDGE_CURVE('',#265,#257,#267,.T.);
#265 = VERTEX_POINT('',#266);
#266 = CARTESIAN_POINT('',(-14.,-22.,30.15));
#267 = ELLIPSE('',#268,0.919238815543,0.65);
#268 = AXIS2_PLACEMENT_3D('',#269,#270,#271);
#269 = CARTESIAN_POINT('',(-14.,-22.,29.5));
#270 = DIRECTION('',(-0.707106781187,-0.707106781187,0.));
#271 = DIRECTION('',(0.707106781187,-0.707106781187,0.));
#272 = ORIENTED_EDGE('',*,*,#273,.F.);
#273 = EDGE_CURVE('',#257,#265,#274,.T.);
#274 = CIRCLE('',#275,0.65);
#275 = AXIS2_PLACEMENT_3D('',#276,#277,#278);
#276 = CARTESIAN_POINT('',(-14.,-22.,29.5));
#277 = DIRECTION('',(0.,-1.,0.));
#278 = DIRECTION('',(0.,0.,-1.));
#279 = ORIENTED_EDGE('',*,*,#256,.F.);
#280 = ORIENTED_EDGE('',*,*,#239,.T.);
#281 = CYLINDRICAL_SURFACE('',#282,0.65);
#282 = AXIS2_PLACEMENT_3D('',#283,#284,#285);
#283 = CARTESIAN_POINT('',(-14.,-7.,29.5));
#284 = DIRECTION('',(0.,-1.,0.));
#285 = DIRECTION('',(0.,0.,-1.));
#286 = ADVANCED_FACE('',(#287),#340,.T.);
#287 = FACE_BOUND('',#288,.T.);
#288 = EDGE_LOOP('',(#289,#290,#297,#305,#314,#323,#332,#339));
#289 = ORIENTED_EDGE('',*,*,#213,.T.);
#290 = ORIENTED_EDGE('',*,*,#291,.T.);
#291 = EDGE_CURVE('',#205,#197,#292,.T.);
#292 = CIRCLE('',#293,1.4);
#293 = AXIS2_PLACEMENT_3D('',#294,#295,#296);
#294 = CARTESIAN_POINT('',(-22.,-22.,29.5));
#295 = DIRECTION('',(0.,-1.,0.));
#296 = DIRECTION('',(0.,0.,-1.));
#297 = ORIENTED_EDGE('',*,*,#298,.T.);
#298 = EDGE_CURVE('',#197,#299,#301,.T.);
#299 = VERTEX_POINT('',#300);
#300 = CARTESIAN_POINT('',(-22.,-24.6,28.1));
#301 = LINE('',#302,#303);
#302 = CARTESIAN_POINT('',(-22.,-22.,28.1));
#303 = VECTOR('',#304,1.);
#304 = DIRECTION('',(0.,-1.,0.));
#305 = ORIENTED_EDGE('',*,*,#306,.F.);
#306 = EDGE_CURVE('',#307,#299,#309,.T.);
#307 = VERTEX_POINT('',#308);
#308 = CARTESIAN_POINT('',(-23.4,-26.,29.5));
#309 = ELLIPSE('',#310,1.979898987322,1.4);
#310 = AXIS2_PLACEMENT_3D('',#311,#312,#313);
#311 = CARTESIAN_POINT('',(-22.,-26.,29.5));
#312 = DIRECTION('',(-0.,-0.707106781187,-0.707106781187));
#313 = DIRECTION('',(0.,-0.707106781187,0.707106781187));
#314 = ORIENTED_EDGE('',*,*,#315,.F.);
#315 = EDGE_CURVE('',#316,#307,#318,.T.);
#316 = VERTEX_POINT('',#317);
#317 = CARTESIAN_POINT('',(-22.,-26.,30.9));
#318 = CIRCLE('',#319,1.4);
#319 = AXIS2_PLACEMENT_3D('',#320,#321,#322);
#320 = CARTESIAN_POINT('',(-22.,-26.,29.5));
#321 = DIRECTION('',(0.,-1.,0.));
#322 = DIRECTION('',(0.,0.,-1.));
#323 = ORIENTED_EDGE('',*,*,#324,.F.);
#324 = EDGE_CURVE('',#325,#316,#327,.T.);
#325 = VERTEX_POINT('',#326);
#326 = CARTESIAN_POINT('',(-20.6,-26.,29.5));
#327 = CIRCLE('',#328,1.4);
#328 = AXIS2_PLACEMENT_3D('',#329,#330,#331);
#329 = CARTESIAN_POINT('',(-22.,-26.,29.5));
#330 = DIRECTION('',(0.,-1.,0.));
#331 = DIRECTION('',(0.,0.,-1.));
#332 = ORIENTED_EDGE('',*,*,#333,.F.);
#333 = EDGE_CURVE('',#299,#325,#334,.T.);
#334 = ELLIPSE('',#335,1.979898987322,1.4);
#335 = AXIS2_PLACEMENT_3D('',#336,#337,#338);
#336 = CARTESIAN_POINT('',(-22.,-26.,29.5));
#337 = DIRECTION('',(-0.,-0.707106781187,-0.707106781187));
#338 = DIRECTION('',(0.,-0.707106781187,0.707106781187));
#339 = ORIENTED_EDGE('',*,*,#298,.F.);
#340 = CYLINDRICAL_SURFACE('',#341,1.4);
#341 = AXIS2_PLACEMENT_3D('',#342,#343,#344);
#342 = CARTESIAN_POINT('',(-22.,-22.,29.5));
#343 = DIRECTION('',(0.,-1.,0.));
#344 = DIRECTION('',(0.,0.,-1.));
#345 = ADVANCED_FACE('',(#346),#350,.T.);
#346 = FACE_BOUND('',#347,.T.);
#347 = EDGE_LOOP('',(#348,#349));
#348 = ORIENTED_EDGE('',*,*,#204,.T.);
#349 = ORIENTED_EDGE('',*,*,#291,.F.);
#350 = SPHERICAL_SURFACE('',#351,1.4);
#351 = AXIS2_PLACEMENT_3D('',#352,#353,#354);
#352 = CARTESIAN_POINT('',(-22.,-22.,29.5));
#353 = DIRECTION('',(0.,0.,1.));
#354 = DIRECTION('',(1.,0.,0.));
#355 = ADVANCED_FACE('',(#356),#366,.F.);
#356 = FACE_BOUND('',#357,.F.);
#357 = EDGE_LOOP('',(#358,#359));
#358 = ORIENTED_EDGE('',*,*,#273,.T.);
#359 = ORIENTED_EDGE('',*,*,#360,.F.);
#360 = EDGE_CURVE('',#257,#265,#361,.T.);
#361 = CIRCLE('',#362,0.65);
#362 = AXIS2_PLACEMENT_3D('',#363,#364,#365);
#363 = CARTESIAN_POINT('',(-14.,-22.,29.5));
#364 = DIRECTION('',(-1.,0.,0.));
#365 = DIRECTION('',(0.,0.,-1.));
#366 = SPHERICAL_SURFACE('',#367,0.65);
#367 = AXIS2_PLACEMENT_3D('',#368,#369,#370);
#368 = CARTESIAN_POINT('',(-14.,-22.,29.5));
#369 = DIRECTION('',(0.,0.,1.));
#370 = DIRECTION('',(1.,0.,0.));
#371 = ADVANCED_FACE('',(#372),#401,.F.);
#372 = FACE_BOUND('',#373,.F.);
#373 = EDGE_LOOP('',(#374,#375,#376,#384,#393,#400));
#374 = ORIENTED_EDGE('',*,*,#360,.T.);
#375 = ORIENTED_EDGE('',*,*,#264,.T.);
#376 = ORIENTED_EDGE('',*,*,#377,.T.);
#377 = EDGE_CURVE('',#257,#378,#380,.T.);
#378 = VERTEX_POINT('',#379);
#379 = CARTESIAN_POINT('',(-22.,-22.,28.85));
#380 = LINE('',#381,#382);
#381 = CARTESIAN_POINT('',(-14.,-22.,28.85));
#382 = VECTOR('',#383,1.);
#383 = DIRECTION('',(-1.,0.,0.));
#384 = ORIENTED_EDGE('',*,*,#385,.F.);
#385 = EDGE_CURVE('',#386,#378,#388,.T.);
#386 = VERTEX_POINT('',#387);
#387 = CARTESIAN_POINT('',(-22.,-22.,30.15));
#388 = CIRCLE('',#389,0.65);
#389 = AXIS2_PLACEMENT_3D('',#390,#391,#392);
#390 = CARTESIAN_POINT('',(-22.,-22.,29.5));
#391 = DIRECTION('',(-1.,0.,0.));
#392 = DIRECTION('',(0.,0.,-1.));
#393 = ORIENTED_EDGE('',*,*,#394,.F.);
#394 = EDGE_CURVE('',#378,#386,#395,.T.);
#395 = ELLIPSE('',#396,0.919238815543,0.65);
#396 = AXIS2_PLACEMENT_3D('',#397,#398,#399);
#397 = CARTESIAN_POINT('',(-22.,-22.,29.5));
#398 = DIRECTION('',(-0.707106781187,-0.707106781187,-0.));
#399 = DIRECTION('',(-0.707106781187,0.707106781187,0.));
#400 = ORIENTED_EDGE('',*,*,#377,.F.);
#401 = CYLINDRICAL_SURFACE('',#402,0.65);
#402 = AXIS2_PLACEMENT_3D('',#403,#404,#405);
#403 = CARTESIAN_POINT('',(-14.,-22.,29.5));
#404 = DIRECTION('',(-1.,0.,0.));
#405 = DIRECTION('',(0.,0.,-1.));
#406 = ADVANCED_FACE('',(#407),#443,.T.);
#407 = FACE_BOUND('',#408,.T.);
#408 = EDGE_LOOP('',(#409,#410,#417,#425,#434,#441,#442));
#409 = ORIENTED_EDGE('',*,*,#333,.T.);
#410 = ORIENTED_EDGE('',*,*,#411,.T.);
#411 = EDGE_CURVE('',#325,#307,#412,.T.);
#412 = CIRCLE('',#413,1.4);
#413 = AXIS2_PLACEMENT_3D('',#414,#415,#416);
#414 = CARTESIAN_POINT('',(-22.,-26.,29.5));
#415 = DIRECTION('',(0.,0.,-1.));
#416 = DIRECTION('',(-1.,0.,0.));
#417 = ORIENTED_EDGE('',*,*,#418,.T.);
#418 = EDGE_CURVE('',#307,#419,#421,.T.);
#419 = VERTEX_POINT('',#420);
#420 = CARTESIAN_POINT('',(-23.4,-26.,27.6));
#421 = LINE('',#422,#423);
#422 = CARTESIAN_POINT('',(-23.4,-26.,29.5));
#423 = VECTOR('',#424,1.);
#424 = DIRECTION('',(0.,0.,-1.));
#425 = ORIENTED_EDGE('',*,*,#426,.F.);
#426 = EDGE_CURVE('',#427,#419,#429,.T.);
#427 = VERTEX_POINT('',#428);
#428 = CARTESIAN_POINT('',(-20.6,-26.,27.6));
#429 = CIRCLE('',#430,1.4);
#430 = AXIS2_PLACEMENT_3D('',#431,#432,#433);
#431 = CARTESIAN_POINT('',(-22.,-26.,27.6));
#432 = DIRECTION('',(0.,0.,-1.));
#433 = DIRECTION('',(-1.,0.,0.));
#434 = ORIENTED_EDGE('',*,*,#435,.F.);
#435 = EDGE_CURVE('',#419,#427,#436,.T.);
#436 = CIRCLE('',#437,1.4);
#437 = AXIS2_PLACEMENT_3D('',#438,#439,#440);
#438 = CARTESIAN_POINT('',(-22.,-26.,27.6));
#439 = DIRECTION('',(0.,0.,-1.));
#440 = DIRECTION('',(-1.,0.,0.));
#441 = ORIENTED_EDGE('',*,*,#418,.F.);
#442 = ORIENTED_EDGE('',*,*,#306,.T.);
#443 = CYLINDRICAL_SURFACE('',#444,1.4);
#444 = AXIS2_PLACEMENT_3D('',#445,#446,#447);
#445 = CARTESIAN_POINT('',(-22.,-26.,29.5));
#446 = DIRECTION('',(0.,0.,-1.));
#447 = DIRECTION('',(-1.,0.,0.));
#448 = ADVANCED_FACE('',(#449),#454,.T.);
#449 = FACE_BOUND('',#450,.T.);
#450 = EDGE_LOOP('',(#451,#452,#453));
#451 = ORIENTED_EDGE('',*,*,#411,.F.);
#452 = ORIENTED_EDGE('',*,*,#324,.T.);
#453 = ORIENTED_EDGE('',*,*,#315,.T.);
#454 = SPHERICAL_SURFACE('',#455,1.4);
#455 = AXIS2_PLACEMENT_3D('',#456,#457,#458);
#456 = CARTESIAN_POINT('',(-22.,-26.,29.5));
#457 = DIRECTION('',(0.,0.,1.));
#458 = DIRECTION('',(1.,0.,0.));
#459 = ADVANCED_FACE('',(#460),#513,.F.);
#460 = FACE_BOUND('',#461,.F.);
#461 = EDGE_LOOP('',(#462,#463,#470,#478,#487,#496,#505,#512));
#462 = ORIENTED_EDGE('',*,*,#394,.T.);
#463 = ORIENTED_EDGE('',*,*,#464,.T.);
#464 = EDGE_CURVE('',#386,#378,#465,.T.);
#465 = CIRCLE('',#466,0.65);
#466 = AXIS2_PLACEMENT_3D('',#467,#468,#469);
#467 = CARTESIAN_POINT('',(-22.,-22.,29.5));
#468 = DIRECTION('',(0.,-1.,0.));
#469 = DIRECTION('',(0.,0.,-1.));
#470 = ORIENTED_EDGE('',*,*,#471,.T.);
#471 = EDGE_CURVE('',#378,#472,#474,.T.);
#472 = VERTEX_POINT('',#473);
#473 = CARTESIAN_POINT('',(-22.,-25.35,28.85));
#474 = LINE('',#475,#476);
#475 = CARTESIAN_POINT('',(-22.,-22.,28.85));
#476 = VECTOR('',#477,1.);
#477 = DIRECTION('',(0.,-1.,0.));
#478 = ORIENTED_EDGE('',*,*,#479,.F.);
#479 = EDGE_CURVE('',#480,#472,#482,.T.);
#480 = VERTEX_POINT('',#481);
#481 = CARTESIAN_POINT('',(-22.65,-26.,29.5));
#482 = ELLIPSE('',#483,0.919238815543,0.65);
#483 = AXIS2_PLACEMENT_3D('',#484,#485,#486);
#484 = CARTESIAN_POINT('',(-22.,-26.,29.5));
#485 = DIRECTION('',(-0.,-0.707106781187,-0.707106781187));
#486 = DIRECTION('',(0.,-0.707106781187,0.707106781187));
#487 = ORIENTED_EDGE('',*,*,#488,.F.);
#488 = EDGE_CURVE('',#489,#480,#491,.T.);
#489 = VERTEX_POINT('',#490);
#490 = CARTESIAN_POINT('',(-22.,-26.,30.15));
#491 = CIRCLE('',#492,0.65);
#492 = AXIS2_PLACEMENT_3D('',#493,#494,#495);
#493 = CARTESIAN_POINT('',(-22.,-26.,29.5));
#494 = DIRECTION('',(0.,-1.,0.));
#495 = DIRECTION('',(0.,0.,-1.));
#496 = ORIENTED_EDGE('',*,*,#497,.F.);
#497 = EDGE_CURVE('',#498,#489,#500,.T.);
#498 = VERTEX_POINT('',#499);
#499 = CARTESIAN_POINT('',(-21.35,-26.,29.5));
#500 = CIRCLE('',#501,0.65);
#501 = AXIS2_PLACEMENT_3D('',#502,#503,#504);
#502 = CARTESIAN_POINT('',(-22.,-26.,29.5));
#503 = DIRECTION('',(0.,-1.,0.));
#504 = DIRECTION('',(0.,0.,-1.));
#505 = ORIENTED_EDGE('',*,*,#506,.F.);
#506 = EDGE_CURVE('',#472,#498,#507,.T.);
#507 = ELLIPSE('',#508,0.919238815543,0.65);
#508 = AXIS2_PLACEMENT_3D('',#509,#510,#511);
#509 = CARTESIAN_POINT('',(-22.,-26.,29.5));
#510 = DIRECTION('',(-0.,-0.707106781187,-0.707106781187));
#511 = DIRECTION('',(0.,-0.707106781187,0.707106781187));
#512 = ORIENTED_EDGE('',*,*,#471,.F.);
#513 = CYLINDRICAL_SURFACE('',#514,0.65);
#514 = AXIS2_PLACEMENT_3D('',#515,#516,#517);
#515 = CARTESIAN_POINT('',(-22.,-22.,29.5));
#516 = DIRECTION('',(0.,-1.,0.));
#517 = DIRECTION('',(0.,0.,-1.));
#518 = ADVANCED_FACE('',(#519),#523,.F.);
#519 = FACE_BOUND('',#520,.F.);
#520 = EDGE_LOOP('',(#521,#522));
#521 = ORIENTED_EDGE('',*,*,#385,.T.);
#522 = ORIENTED_EDGE('',*,*,#464,.F.);
#523 = SPHERICAL_SURFACE('',#524,0.65);
#524 = AXIS2_PLACEMENT_3D('',#525,#526,#527);
#525 = CARTESIAN_POINT('',(-22.,-22.,29.5));
#526 = DIRECTION('',(0.,0.,1.));
#527 = DIRECTION('',(1.,0.,0.));
#528 = ADVANCED_FACE('',(#529,#533),#553,.F.);
#529 = FACE_BOUND('',#530,.F.);
#530 = EDGE_LOOP('',(#531,#532));
#531 = ORIENTED_EDGE('',*,*,#435,.F.);
#532 = ORIENTED_EDGE('',*,*,#426,.F.);
#533 = FACE_BOUND('',#534,.F.);
#534 = EDGE_LOOP('',(#535,#546));
#535 = ORIENTED_EDGE('',*,*,#536,.T.);
#536 = EDGE_CURVE('',#537,#539,#541,.T.);
#537 = VERTEX_POINT('',#538);
#538 = CARTESIAN_POINT('',(-21.35,-26.,27.6));
#539 = VERTEX_POINT('',#540);
#540 = CARTESIAN_POINT('',(-22.65,-26.,27.6));
#541 = CIRCLE('',#542,0.65);
#542 = AXIS2_PLACEMENT_3D('',#543,#544,#545);
#543 = CARTESIAN_POINT('',(-22.,-26.,27.6));
#544 = DIRECTION('',(0.,0.,-1.));
#545 = DIRECTION('',(-1.,0.,0.));
#546 = ORIENTED_EDGE('',*,*,#547,.T.);
#547 = EDGE_CURVE('',#539,#537,#548,.T.);
#548 = CIRCLE('',#549,0.65);
#549 = AXIS2_PLACEMENT_3D('',#550,#551,#552);
#550 = CARTESIAN_POINT('',(-22.,-26.,27.6));
#551 = DIRECTION('',(0.,0.,-1.));
#552 = DIRECTION('',(-1.,0.,0.));
#553 = PLANE('',#554);
#554 = AXIS2_PLACEMENT_3D('',#555,#556,#557);
#555 = CARTESIAN_POINT('',(-25.,-29.,27.6));
#556 = DIRECTION('',(0.,0.,1.));
#557 = DIRECTION('',(1.,0.,0.));
#558 = ADVANCED_FACE('',(#559),#579,.F.);
#559 = FACE_BOUND('',#560,.F.);
#560 = EDGE_LOOP('',(#561,#562,#569,#575,#576,#577,#578));
#561 = ORIENTED_EDGE('',*,*,#506,.T.);
#562 = ORIENTED_EDGE('',*,*,#563,.T.);
#563 = EDGE_CURVE('',#498,#480,#564,.T.);
#564 = CIRCLE('',#565,0.65);
#565 = AXIS2_PLACEMENT_3D('',#566,#567,#568);
#566 = CARTESIAN_POINT('',(-22.,-26.,29.5));
#567 = DIRECTION('',(0.,0.,-1.));
#568 = DIRECTION('',(-1.,0.,0.));
#569 = ORIENTED_EDGE('',*,*,#570,.T.);
#570 = EDGE_CURVE('',#480,#539,#571,.T.);
#571 = LINE('',#572,#573);
#572 = CARTESIAN_POINT('',(-22.65,-26.,29.5));
#573 = VECTOR('',#574,1.);
#574 = DIRECTION('',(0.,0.,-1.));
#575 = ORIENTED_EDGE('',*,*,#536,.F.);
#576 = ORIENTED_EDGE('',*,*,#547,.F.);
#577 = ORIENTED_EDGE('',*,*,#570,.F.);
#578 = ORIENTED_EDGE('',*,*,#479,.T.);
#579 = CYLINDRICAL_SURFACE('',#580,0.65);
#580 = AXIS2_PLACEMENT_3D('',#581,#582,#583);
#581 = CARTESIAN_POINT('',(-22.,-26.,29.5));
#582 = DIRECTION('',(0.,0.,-1.));
#583 = DIRECTION('',(-1.,0.,0.));
#584 = ADVANCED_FACE('',(#585),#590,.F.);
#585 = FACE_BOUND('',#586,.F.);
#586 = EDGE_LOOP('',(#587,#588,#589));
#587 = ORIENTED_EDGE('',*,*,#563,.F.);
#588 = ORIENTED_EDGE('',*,*,#497,.T.);
#589 = ORIENTED_EDGE('',*,*,#488,.T.);
#590 = SPHERICAL_SURFACE('',#591,0.65);
#591 = AXIS2_PLACEMENT_3D('',#592,#593,#594);
#592 = CARTESIAN_POINT('',(-22.,-26.,29.5));
#593 = DIRECTION('',(0.,0.,1.));
#594 = DIRECTION('',(1.,0.,0.));
#595 = ( GEOMETRIC_REPRESENTATION_CONTEXT(3) 
GLOBAL_UNCERTAINTY_ASSIGNED_CONTEXT((#599)) GLOBAL_UNIT_ASSIGNED_CONTEXT
((#596,#597,#598)) REPRESENTATION_CONTEXT('Context #1',
  '3D Context with UNIT and UNCERTAINTY') );
#596 = ( LENGTH_UNIT() NAMED_UNIT(*) SI_UNIT(.MILLI.,.METRE.) );
#597 = ( NAMED_UNIT(*) PLANE_ANGLE_UNIT() SI_UNIT($,.RADIAN.) );
#598 = ( NAMED_UNIT(*) SI_UNIT($,.STERADIAN.) SOLID_ANGLE_UNIT() );
#599 = UNCERTAINTY_MEASURE_WITH_UNIT(LENGTH_MEASURE(2.E-07),#596,
  'distance_accuracy_value','confusion accuracy');
#600 = PRODUCT_RELATED_PRODUCT_CATEGORY('part',$,(#7));
ENDSEC;
END-ISO-10303-21;
