ISO-10303-21;
HEADER;
FILE_DESCRIPTION(('FreeCAD Model'),'2;1');
FILE_NAME('Open CASCADE Shape Model','2026-09-30T01:44:44',('FreeCAD'),(
    'FreeCAD'),'Open CASCADE STEP processor 7.8','FreeCAD','Unknown');
FILE_SCHEMA(('AUTOMOTIVE_DESIGN { 1 0 10303 214 1 1 1 1 }'));
ENDSEC;
DATA;
#1 = APPLICATION_PROTOCOL_DEFINITION('international standard',
  'automotive_design',2000,#2);
#2 = APPLICATION_CONTEXT(
  'core data for automotive mechanical design processes');
#3 = SHAPE_DEFINITION_REPRESENTATION(#4,#10);
#4 = PRODUCT_DEFINITION_SHAPE('','',#5);
#5 = PRODUCT_DEFINITION('design','',#6,#9);
#6 = PRODUCT_DEFINITION_FORMATION('','',#7);
#7 = PRODUCT('Open CASCADE STEP translator 7.8 33',
  'Open CASCADE STEP translator 7.8 33','',(#8));
#8 = PRODUCT_CONTEXT('',#2,'mechanical');
#9 = PRODUCT_DEFINITION_CONTEXT('part definition',#2,'design');
#10 = ADVANCED_BREP_SHAPE_REPRESENTATION('',(#11,#15),#414);
#11 = AXIS2_PLACEMENT_3D('',#12,#13,#14);
#12 = CARTESIAN_POINT('',(0.,0.,0.));
#13 = DIRECTION('',(0.,0.,1.));
#14 = DIRECTION('',(1.,0.,-0.));
#15 = MANIFOLD_SOLID_BREP('',#16);
#16 = CLOSED_SHELL('',(#17,#44,#96,#121,#182,#193,#210,#255,#315,#326,
    #367,#384,#395));
#17 = ADVANCED_FACE('',(#18),#39,.T.);
#18 = FACE_BOUND('',#19,.T.);
#19 = EDGE_LOOP('',(#20,#29,#38));
#20 = ORIENTED_EDGE('',*,*,#21,.F.);
#21 = EDGE_CURVE('',#22,#22,#24,.T.);
#22 = VERTEX_POINT('',#23);
#23 = CARTESIAN_POINT('',(-13.35,-7.,4.7));
#24 = CIRCLE('',#25,0.65);
#25 = AXIS2_PLACEMENT_3D('',#26,#27,#28);
#26 = CARTESIAN_POINT('',(-14.,-7.,4.7));
#27 = DIRECTION('',(0.,0.,1.));
#28 = DIRECTION('',(1.,0.,0.));
#29 = ORIENTED_EDGE('',*,*,#30,.F.);
#30 = EDGE_CURVE('',#31,#22,#33,.T.);
#31 = VERTEX_POINT('',#32);
#32 = CARTESIAN_POINT('',(-14.,-7.,4.05));
#33 = CIRCLE('',#34,0.65);
#34 = AXIS2_PLACEMENT_3D('',#35,#36,#37);
#35 = CARTESIAN_POINT('',(-14.,-7.,4.7));
#36 = DIRECTION('',(-2.449293598295E-16,-1.,0.));
#37 = DIRECTION('',(1.,-2.449293598295E-16,0.));
#38 = ORIENTED_EDGE('',*,*,#30,.T.);
#39 = SPHERICAL_SURFACE('',#40,0.65);
#40 = AXIS2_PLACEMENT_3D('',#41,#42,#43);
#41 = CARTESIAN_POINT('',(-14.,-7.,4.7));
#42 = DIRECTION('',(0.,0.,1.));
#43 = DIRECTION('',(1.,0.,0.));
#44 = ADVANCED_FACE('',(#45),#91,.T.);
#45 = FACE_BOUND('',#46,.T.);
#46 = EDGE_LOOP('',(#47,#55,#64,#73,#82,#89,#90));
#47 = ORIENTED_EDGE('',*,*,#48,.T.);
#48 = EDGE_CURVE('',#22,#49,#51,.T.);
#49 = VERTEX_POINT('',#50);
#50 = CARTESIAN_POINT('',(-13.35,-7.,5.5));
#51 = LINE('',#52,#53);
#52 = CARTESIAN_POINT('',(-13.35,-7.,4.7));
#53 = VECTOR('',#54,1.);
#54 = DIRECTION('',(0.,0.,1.));
#55 = ORIENTED_EDGE('',*,*,#56,.F.);
#56 = EDGE_CURVE('',#57,#49,#59,.T.);
#57 = VERTEX_POINT('',#58);
#58 = CARTESIAN_POINT('',(-14.,-7.65,5.5));
#59 = CIRCLE('',#60,0.65);
#60 = AXIS2_PLACEMENT_3D('',#61,#62,#63);
#61 = CARTESIAN_POINT('',(-14.,-7.,5.5));
#62 = DIRECTION('',(0.,0.,1.));
#63 = DIRECTION('',(1.,0.,0.));
#64 = ORIENTED_EDGE('',*,*,#65,.F.);
#65 = EDGE_CURVE('',#66,#57,#68,.T.);
#66 = VERTEX_POINT('',#67);
#67 = CARTESIAN_POINT('',(-14.65,-7.,4.85));
#68 = ELLIPSE('',#69,0.919238815543,0.65);
#69 = AXIS2_PLACEMENT_3D('',#70,#71,#72);
#70 = CARTESIAN_POINT('',(-14.,-7.,5.5));
#71 = DIRECTION('',(-0.707106781187,0.,0.707106781187));
#72 = DIRECTION('',(0.707106781187,0.,0.707106781187));
#73 = ORIENTED_EDGE('',*,*,#74,.F.);
#74 = EDGE_CURVE('',#75,#66,#77,.T.);
#75 = VERTEX_POINT('',#76);
#76 = CARTESIAN_POINT('',(-14.,-6.35,5.5));
#77 = ELLIPSE('',#78,0.919238815543,0.65);
#78 = AXIS2_PLACEMENT_3D('',#79,#80,#81);
#79 = CARTESIAN_POINT('',(-14.,-7.,5.5));
#80 = DIRECTION('',(-0.707106781187,0.,0.707106781187));
#81 = DIRECTION('',(0.707106781187,0.,0.707106781187));
#82 = ORIENTED_EDGE('',*,*,#83,.F.);
#83 = EDGE_CURVE('',#49,#75,#84,.T.);
#84 = CIRCLE('',#85,0.65);
#85 = AXIS2_PLACEMENT_3D('',#86,#87,#88);
#86 = CARTESIAN_POINT('',(-14.,-7.,5.5));
#87 = DIRECTION('',(0.,0.,1.));
#88 = DIRECTION('',(1.,0.,0.));
#89 = ORIENTED_EDGE('',*,*,#48,.F.);
#90 = ORIENTED_EDGE('',*,*,#21,.T.);
#91 = CYLINDRICAL_SURFACE('',#92,0.65);
#92 = AXIS2_PLACEMENT_3D('',#93,#94,#95);
#93 = CARTESIAN_POINT('',(-14.,-7.,4.7));
#94 = DIRECTION('',(0.,0.,1.));
#95 = DIRECTION('',(1.,0.,0.));
#96 = ADVANCED_FACE('',(#97),#116,.T.);
#97 = FACE_BOUND('',#98,.T.);
#98 = EDGE_LOOP('',(#99,#108,#109));
#99 = ORIENTED_EDGE('',*,*,#100,.F.);
#100 = EDGE_CURVE('',#49,#101,#103,.T.);
#101 = VERTEX_POINT('',#102);
#102 = CARTESIAN_POINT('',(-14.,-7.,6.15));
#103 = CIRCLE('',#104,0.65);
#104 = AXIS2_PLACEMENT_3D('',#105,#106,#107);
#105 = CARTESIAN_POINT('',(-14.,-7.,5.5));
#106 = DIRECTION('',(-2.449293598295E-16,-1.,0.));
#107 = DIRECTION('',(1.,-2.449293598295E-16,0.));
#108 = ORIENTED_EDGE('',*,*,#83,.T.);
#109 = ORIENTED_EDGE('',*,*,#110,.F.);
#110 = EDGE_CURVE('',#101,#75,#111,.T.);
#111 = CIRCLE('',#112,0.65);
#112 = AXIS2_PLACEMENT_3D('',#113,#114,#115);
#113 = CARTESIAN_POINT('',(-14.,-7.,5.5));
#114 = DIRECTION('',(-1.,0.,0.));
#115 = DIRECTION('',(0.,0.,-1.));
#116 = SPHERICAL_SURFACE('',#117,0.65);
#117 = AXIS2_PLACEMENT_3D('',#118,#119,#120);
#118 = CARTESIAN_POINT('',(-14.,-7.,5.5));
#119 = DIRECTION('',(0.,0.,1.));
#120 = DIRECTION('',(1.,0.,0.));
#121 = ADVANCED_FACE('',(#122),#177,.T.);
#122 = FACE_BOUND('',#123,.T.);
#123 = EDGE_LOOP('',(#124,#125,#126,#134,#143,#152,#161,#168,#169,#170)
  );
#124 = ORIENTED_EDGE('',*,*,#110,.T.);
#125 = ORIENTED_EDGE('',*,*,#74,.T.);
#126 = ORIENTED_EDGE('',*,*,#127,.T.);
#127 = EDGE_CURVE('',#66,#128,#130,.T.);
#128 = VERTEX_POINT('',#129);
#129 = CARTESIAN_POINT('',(-39.,-7.,4.85));
#130 = LINE('',#131,#132);
#131 = CARTESIAN_POINT('',(-14.,-7.,4.85));
#132 = VECTOR('',#133,1.);
#133 = DIRECTION('',(-1.,0.,0.));
#134 = ORIENTED_EDGE('',*,*,#135,.F.);
#135 = EDGE_CURVE('',#136,#128,#138,.T.);
#136 = VERTEX_POINT('',#137);
#137 = CARTESIAN_POINT('',(-39.,-6.35,5.5));
#138 = CIRCLE('',#139,0.65);
#139 = AXIS2_PLACEMENT_3D('',#140,#141,#142);
#140 = CARTESIAN_POINT('',(-39.,-7.,5.5));
#141 = DIRECTION('',(-1.,0.,0.));
#142 = DIRECTION('',(0.,0.,-1.));
#143 = ORIENTED_EDGE('',*,*,#144,.F.);
#144 = EDGE_CURVE('',#145,#136,#147,.T.);
#145 = VERTEX_POINT('',#146);
#146 = CARTESIAN_POINT('',(-38.35,-7.,6.15));
#147 = ELLIPSE('',#148,0.919238815543,0.65);
#148 = AXIS2_PLACEMENT_3D('',#149,#150,#151);
#149 = CARTESIAN_POINT('',(-39.,-7.,5.5));
#150 = DIRECTION('',(-0.707106781187,0.,0.707106781187));
#151 = DIRECTION('',(-0.707106781187,0.,-0.707106781187));
#152 = ORIENTED_EDGE('',*,*,#153,.F.);
#153 = EDGE_CURVE('',#154,#145,#156,.T.);
#154 = VERTEX_POINT('',#155);
#155 = CARTESIAN_POINT('',(-39.,-7.65,5.5));
#156 = ELLIPSE('',#157,0.919238815543,0.65);
#157 = AXIS2_PLACEMENT_3D('',#158,#159,#160);
#158 = CARTESIAN_POINT('',(-39.,-7.,5.5));
#159 = DIRECTION('',(-0.707106781187,0.,0.707106781187));
#160 = DIRECTION('',(-0.707106781187,0.,-0.707106781187));
#161 = ORIENTED_EDGE('',*,*,#162,.F.);
#162 = EDGE_CURVE('',#128,#154,#163,.T.);
#163 = CIRCLE('',#164,0.65);
#164 = AXIS2_PLACEMENT_3D('',#165,#166,#167);
#165 = CARTESIAN_POINT('',(-39.,-7.,5.5));
#166 = DIRECTION('',(-1.,0.,0.));
#167 = DIRECTION('',(0.,0.,-1.));
#168 = ORIENTED_EDGE('',*,*,#127,.F.);
#169 = ORIENTED_EDGE('',*,*,#65,.T.);
#170 = ORIENTED_EDGE('',*,*,#171,.T.);
#171 = EDGE_CURVE('',#57,#101,#172,.T.);
#172 = CIRCLE('',#173,0.65);
#173 = AXIS2_PLACEMENT_3D('',#174,#175,#176);
#174 = CARTESIAN_POINT('',(-14.,-7.,5.5));
#175 = DIRECTION('',(-1.,0.,0.));
#176 = DIRECTION('',(0.,0.,-1.));
#177 = CYLINDRICAL_SURFACE('',#178,0.65);
#178 = AXIS2_PLACEMENT_3D('',#179,#180,#181);
#179 = CARTESIAN_POINT('',(-14.,-7.,5.5));
#180 = DIRECTION('',(-1.,0.,0.));
#181 = DIRECTION('',(0.,0.,-1.));
#182 = ADVANCED_FACE('',(#183),#188,.T.);
#183 = FACE_BOUND('',#184,.T.);
#184 = EDGE_LOOP('',(#185,#186,#187));
#185 = ORIENTED_EDGE('',*,*,#56,.T.);
#186 = ORIENTED_EDGE('',*,*,#100,.T.);
#187 = ORIENTED_EDGE('',*,*,#171,.F.);
#188 = SPHERICAL_SURFACE('',#189,0.65);
#189 = AXIS2_PLACEMENT_3D('',#190,#191,#192);
#190 = CARTESIAN_POINT('',(-14.,-7.,5.5));
#191 = DIRECTION('',(0.,0.,1.));
#192 = DIRECTION('',(1.,0.,0.));
#193 = ADVANCED_FACE('',(#194),#205,.T.);
#194 = FACE_BOUND('',#195,.T.);
#195 = EDGE_LOOP('',(#196,#197,#204));
#196 = ORIENTED_EDGE('',*,*,#162,.T.);
#197 = ORIENTED_EDGE('',*,*,#198,.F.);
#198 = EDGE_CURVE('',#136,#154,#199,.T.);
#199 = CIRCLE('',#200,0.65);
#200 = AXIS2_PLACEMENT_3D('',#201,#202,#203);
#201 = CARTESIAN_POINT('',(-39.,-7.,5.5));
#202 = DIRECTION('',(0.,0.,1.));
#203 = DIRECTION('',(1.,0.,0.));
#204 = ORIENTED_EDGE('',*,*,#135,.T.);
#205 = SPHERICAL_SURFACE('',#206,0.65);
#206 = AXIS2_PLACEMENT_3D('',#207,#208,#209);
#207 = CARTESIAN_POINT('',(-39.,-7.,5.5));
#208 = DIRECTION('',(0.,0.,1.));
#209 = DIRECTION('',(1.,0.,0.));
#210 = ADVANCED_FACE('',(#211),#250,.T.);
#211 = FACE_BOUND('',#212,.T.);
#212 = EDGE_LOOP('',(#213,#214,#215,#223,#232,#241,#248,#249));
#213 = ORIENTED_EDGE('',*,*,#198,.T.);
#214 = ORIENTED_EDGE('',*,*,#153,.T.);
#215 = ORIENTED_EDGE('',*,*,#216,.T.);
#216 = EDGE_CURVE('',#145,#217,#219,.T.);
#217 = VERTEX_POINT('',#218);
#218 = CARTESIAN_POINT('',(-38.35,-7.,26.504739443457));
#219 = LINE('',#220,#221);
#220 = CARTESIAN_POINT('',(-38.35,-7.,5.5));
#221 = VECTOR('',#222,1.);
#222 = DIRECTION('',(0.,0.,1.));
#223 = ORIENTED_EDGE('',*,*,#224,.F.);
#224 = EDGE_CURVE('',#225,#217,#227,.T.);
#225 = VERTEX_POINT('',#226);
#226 = CARTESIAN_POINT('',(-39.42097147306,-7.495260556544,27.));
#227 = ELLIPSE('',#228,0.919238815543,0.65);
#228 = AXIS2_PLACEMENT_3D('',#229,#230,#231);
#229 = CARTESIAN_POINT('',(-39.,-7.,27.));
#230 = DIRECTION('',(0.53877245844,-0.457956589674,0.707106781187));
#231 = DIRECTION('',(-0.53877245844,0.457956589674,0.707106781187));
#232 = ORIENTED_EDGE('',*,*,#233,.F.);
#233 = EDGE_CURVE('',#234,#225,#236,.T.);
#234 = VERTEX_POINT('',#235);
#235 = CARTESIAN_POINT('',(-38.57902852693,-6.504739443456,27.));
#236 = CIRCLE('',#237,0.65);
#237 = AXIS2_PLACEMENT_3D('',#238,#239,#240);
#238 = CARTESIAN_POINT('',(-39.,-7.,27.));
#239 = DIRECTION('',(0.,0.,1.));
#240 = DIRECTION('',(1.,0.,0.));
#241 = ORIENTED_EDGE('',*,*,#242,.F.);
#242 = EDGE_CURVE('',#217,#234,#243,.T.);
#243 = ELLIPSE('',#244,0.919238815543,0.65);
#244 = AXIS2_PLACEMENT_3D('',#245,#246,#247);
#245 = CARTESIAN_POINT('',(-39.,-7.,27.));
#246 = DIRECTION('',(0.53877245844,-0.457956589674,0.707106781187));
#247 = DIRECTION('',(-0.53877245844,0.457956589674,0.707106781187));
#248 = ORIENTED_EDGE('',*,*,#216,.F.);
#249 = ORIENTED_EDGE('',*,*,#144,.T.);
#250 = CYLINDRICAL_SURFACE('',#251,0.65);
#251 = AXIS2_PLACEMENT_3D('',#252,#253,#254);
#252 = CARTESIAN_POINT('',(-39.,-7.,5.5));
#253 = DIRECTION('',(0.,0.,1.));
#254 = DIRECTION('',(1.,0.,0.));
#255 = ADVANCED_FACE('',(#256),#310,.T.);
#256 = FACE_BOUND('',#257,.T.);
#257 = EDGE_LOOP('',(#258,#259,#260,#268,#277,#286,#293,#294,#303));
#258 = ORIENTED_EDGE('',*,*,#224,.T.);
#259 = ORIENTED_EDGE('',*,*,#242,.T.);
#260 = ORIENTED_EDGE('',*,*,#261,.T.);
#261 = EDGE_CURVE('',#234,#262,#264,.T.);
#262 = VERTEX_POINT('',#263);
#263 = CARTESIAN_POINT('',(-33.57902852693,-10.75473944345,27.));
#264 = LINE('',#265,#266);
#265 = CARTESIAN_POINT('',(-38.57902852693,-6.504739443456,27.));
#266 = VECTOR('',#267,1.);
#267 = DIRECTION('',(0.761939317759,-0.647648420096,0.));
#268 = ORIENTED_EDGE('',*,*,#269,.F.);
#269 = EDGE_CURVE('',#270,#262,#272,.T.);
#270 = VERTEX_POINT('',#271);
#271 = CARTESIAN_POINT('',(-34.,-11.25,26.35));
#272 = CIRCLE('',#273,0.65);
#273 = AXIS2_PLACEMENT_3D('',#274,#275,#276);
#274 = CARTESIAN_POINT('',(-34.,-11.25,27.));
#275 = DIRECTION('',(0.761939317759,-0.647648420096,0.));
#276 = DIRECTION('',(0.647648420096,0.761939317759,0.));
#277 = ORIENTED_EDGE('',*,*,#278,.F.);
#278 = EDGE_CURVE('',#279,#270,#281,.T.);
#279 = VERTEX_POINT('',#280);
#280 = CARTESIAN_POINT('',(-34.42097147306,-11.74526055654,27.));
#281 = CIRCLE('',#282,0.65);
#282 = AXIS2_PLACEMENT_3D('',#283,#284,#285);
#283 = CARTESIAN_POINT('',(-34.,-11.25,27.));
#284 = DIRECTION('',(0.761939317759,-0.647648420096,0.));
#285 = DIRECTION('',(0.647648420096,0.761939317759,0.));
#286 = ORIENTED_EDGE('',*,*,#287,.F.);
#287 = EDGE_CURVE('',#262,#279,#288,.T.);
#288 = ELLIPSE('',#289,0.919238815543,0.65);
#289 = AXIS2_PLACEMENT_3D('',#290,#291,#292);
#290 = CARTESIAN_POINT('',(-34.,-11.25,27.));
#291 = DIRECTION('',(0.53877245844,-0.457956589674,0.707106781187));
#292 = DIRECTION('',(0.53877245844,-0.457956589674,-0.707106781187));
#293 = ORIENTED_EDGE('',*,*,#261,.F.);
#294 = ORIENTED_EDGE('',*,*,#295,.T.);
#295 = EDGE_CURVE('',#234,#296,#298,.T.);
#296 = VERTEX_POINT('',#297);
#297 = CARTESIAN_POINT('',(-39.,-7.,27.65));
#298 = CIRCLE('',#299,0.65);
#299 = AXIS2_PLACEMENT_3D('',#300,#301,#302);
#300 = CARTESIAN_POINT('',(-39.,-7.,27.));
#301 = DIRECTION('',(0.761939317759,-0.647648420096,0.));
#302 = DIRECTION('',(0.647648420096,0.761939317759,0.));
#303 = ORIENTED_EDGE('',*,*,#304,.T.);
#304 = EDGE_CURVE('',#296,#225,#305,.T.);
#305 = CIRCLE('',#306,0.65);
#306 = AXIS2_PLACEMENT_3D('',#307,#308,#309);
#307 = CARTESIAN_POINT('',(-39.,-7.,27.));
#308 = DIRECTION('',(0.761939317759,-0.647648420096,0.));
#309 = DIRECTION('',(0.647648420096,0.761939317759,0.));
#310 = CYLINDRICAL_SURFACE('',#311,0.65);
#311 = AXIS2_PLACEMENT_3D('',#312,#313,#314);
#312 = CARTESIAN_POINT('',(-39.,-7.,27.));
#313 = DIRECTION('',(0.761939317759,-0.647648420096,0.));
#314 = DIRECTION('',(0.647648420096,0.761939317759,0.));
#315 = ADVANCED_FACE('',(#316),#321,.T.);
#316 = FACE_BOUND('',#317,.T.);
#317 = EDGE_LOOP('',(#318,#319,#320));
#318 = ORIENTED_EDGE('',*,*,#304,.F.);
#319 = ORIENTED_EDGE('',*,*,#295,.F.);
#320 = ORIENTED_EDGE('',*,*,#233,.T.);
#321 = SPHERICAL_SURFACE('',#322,0.65);
#322 = AXIS2_PLACEMENT_3D('',#323,#324,#325);
#323 = CARTESIAN_POINT('',(-39.,-7.,27.));
#324 = DIRECTION('',(0.,0.,1.));
#325 = DIRECTION('',(1.,0.,0.));
#326 = ADVANCED_FACE('',(#327),#362,.T.);
#327 = FACE_BOUND('',#328,.T.);
#328 = EDGE_LOOP('',(#329,#338,#346,#353,#354,#361));
#329 = ORIENTED_EDGE('',*,*,#330,.T.);
#330 = EDGE_CURVE('',#279,#331,#333,.T.);
#331 = VERTEX_POINT('',#332);
#332 = CARTESIAN_POINT('',(-33.35,-11.25,27.));
#333 = CIRCLE('',#334,0.65);
#334 = AXIS2_PLACEMENT_3D('',#335,#336,#337);
#335 = CARTESIAN_POINT('',(-34.,-11.25,27.));
#336 = DIRECTION('',(0.,0.,1.));
#337 = DIRECTION('',(1.,0.,0.));
#338 = ORIENTED_EDGE('',*,*,#339,.T.);
#339 = EDGE_CURVE('',#331,#340,#342,.T.);
#340 = VERTEX_POINT('',#341);
#341 = CARTESIAN_POINT('',(-33.35,-11.25,28.5));
#342 = LINE('',#343,#344);
#343 = CARTESIAN_POINT('',(-33.35,-11.25,27.));
#344 = VECTOR('',#345,1.);
#345 = DIRECTION('',(0.,0.,1.));
#346 = ORIENTED_EDGE('',*,*,#347,.F.);
#347 = EDGE_CURVE('',#340,#340,#348,.T.);
#348 = CIRCLE('',#349,0.65);
#349 = AXIS2_PLACEMENT_3D('',#350,#351,#352);
#350 = CARTESIAN_POINT('',(-34.,-11.25,28.5));
#351 = DIRECTION('',(0.,0.,1.));
#352 = DIRECTION('',(1.,0.,0.));
#353 = ORIENTED_EDGE('',*,*,#339,.F.);
#354 = ORIENTED_EDGE('',*,*,#355,.T.);
#355 = EDGE_CURVE('',#331,#262,#356,.T.);
#356 = CIRCLE('',#357,0.65);
#357 = AXIS2_PLACEMENT_3D('',#358,#359,#360);
#358 = CARTESIAN_POINT('',(-34.,-11.25,27.));
#359 = DIRECTION('',(0.,0.,1.));
#360 = DIRECTION('',(1.,0.,0.));
#361 = ORIENTED_EDGE('',*,*,#287,.T.);
#362 = CYLINDRICAL_SURFACE('',#363,0.65);
#363 = AXIS2_PLACEMENT_3D('',#364,#365,#366);
#364 = CARTESIAN_POINT('',(-34.,-11.25,27.));
#365 = DIRECTION('',(0.,0.,1.));
#366 = DIRECTION('',(1.,0.,0.));
#367 = ADVANCED_FACE('',(#368),#379,.T.);
#368 = FACE_BOUND('',#369,.T.);
#369 = EDGE_LOOP('',(#370,#377,#378));
#370 = ORIENTED_EDGE('',*,*,#371,.T.);
#371 = EDGE_CURVE('',#270,#331,#372,.T.);
#372 = CIRCLE('',#373,0.65);
#373 = AXIS2_PLACEMENT_3D('',#374,#375,#376);
#374 = CARTESIAN_POINT('',(-34.,-11.25,27.));
#375 = DIRECTION('',(-2.449293598295E-16,-1.,0.));
#376 = DIRECTION('',(1.,-2.449293598295E-16,0.));
#377 = ORIENTED_EDGE('',*,*,#330,.F.);
#378 = ORIENTED_EDGE('',*,*,#278,.T.);
#379 = SPHERICAL_SURFACE('',#380,0.65);
#380 = AXIS2_PLACEMENT_3D('',#381,#382,#383);
#381 = CARTESIAN_POINT('',(-34.,-11.25,27.));
#382 = DIRECTION('',(0.,0.,1.));
#383 = DIRECTION('',(1.,0.,0.));
#384 = ADVANCED_FACE('',(#385),#390,.T.);
#385 = FACE_BOUND('',#386,.T.);
#386 = EDGE_LOOP('',(#387,#388,#389));
#387 = ORIENTED_EDGE('',*,*,#269,.T.);
#388 = ORIENTED_EDGE('',*,*,#355,.F.);
#389 = ORIENTED_EDGE('',*,*,#371,.F.);
#390 = SPHERICAL_SURFACE('',#391,0.65);
#391 = AXIS2_PLACEMENT_3D('',#392,#393,#394);
#392 = CARTESIAN_POINT('',(-34.,-11.25,27.));
#393 = DIRECTION('',(0.,0.,1.));
#394 = DIRECTION('',(1.,0.,0.));
#395 = ADVANCED_FACE('',(#396),#409,.T.);
#396 = FACE_BOUND('',#397,.T.);
#397 = EDGE_LOOP('',(#398,#407,#408));
#398 = ORIENTED_EDGE('',*,*,#399,.T.);
#399 = EDGE_CURVE('',#340,#400,#402,.T.);
#400 = VERTEX_POINT('',#401);
#401 = CARTESIAN_POINT('',(-34.,-11.25,29.15));
#402 = CIRCLE('',#403,0.65);
#403 = AXIS2_PLACEMENT_3D('',#404,#405,#406);
#404 = CARTESIAN_POINT('',(-34.,-11.25,28.5));
#405 = DIRECTION('',(-2.449293598295E-16,-1.,0.));
#406 = DIRECTION('',(1.,-2.449293598295E-16,0.));
#407 = ORIENTED_EDGE('',*,*,#399,.F.);
#408 = ORIENTED_EDGE('',*,*,#347,.T.);
#409 = SPHERICAL_SURFACE('',#410,0.65);
#410 = AXIS2_PLACEMENT_3D('',#411,#412,#413);
#411 = CARTESIAN_POINT('',(-34.,-11.25,28.5));
#412 = DIRECTION('',(0.,0.,1.));
#413 = DIRECTION('',(1.,0.,0.));
#414 = ( GEOMETRIC_REPRESENTATION_CONTEXT(3) 
GLOBAL_UNCERTAINTY_ASSIGNED_CONTEXT((#418)) GLOBAL_UNIT_ASSIGNED_CONTEXT
((#415,#416,#417)) REPRESENTATION_CONTEXT('Context #1',
  '3D Context with UNIT and UNCERTAINTY') );
#415 = ( LENGTH_UNIT() NAMED_UNIT(*) SI_UNIT(.MILLI.,.METRE.) );
#416 = ( NAMED_UNIT(*) PLANE_ANGLE_UNIT() SI_UNIT($,.RADIAN.) );
#417 = ( NAMED_UNIT(*) SI_UNIT($,.STERADIAN.) SOLID_ANGLE_UNIT() );
#418 = UNCERTAINTY_MEASURE_WITH_UNIT(LENGTH_MEASURE(2.E-07),#415,
  'distance_accuracy_value','confusion accuracy');
#419 = PRODUCT_RELATED_PRODUCT_CATEGORY('part',$,(#7));
ENDSEC;
END-ISO-10303-21;
