ISO-10303-21;
HEADER;
FILE_DESCRIPTION(('FreeCAD Model'),'2;1');
FILE_NAME('Open CASCADE Shape Model','2026-09-30T01:44:46',('FreeCAD'),(
    'FreeCAD'),'Open CASCADE STEP processor 7.8','FreeCAD','Unknown');
FILE_SCHEMA(('AUTOMOTIVE_DESIGN { 1 0 10303 214 1 1 1 1 }'));
ENDSEC;
DATA;
#1 = APPLICATION_PROTOCOL_DEFINITION('international standard',
  'automotive_design',2000,#2);
#2 = APPLICATION_CONTEXT(
  'core data for automotive mechanical design processes');
#3 = SHAPE_DEFINITION_REPRESENTATION(#4,#10);
#4 = PRODUCT_DEFINITION_SHAPE('','',#5);
#5 = PRODUCT_DEFINITION('design','',#6,#9);
#6 = PRODUCT_DEFINITION_FORMATION('','',#7);
#7 = PRODUCT('Open CASCADE STEP translator 7.8 36',
  'Open CASCADE STEP translator 7.8 36','',(#8));
#8 = PRODUCT_CONTEXT('',#2,'mechanical');
#9 = PRODUCT_DEFINITION_CONTEXT('part definition',#2,'design');
#10 = ADVANCED_BREP_SHAPE_REPRESENTATION('',(#11,#15),#1721);
#11 = AXIS2_PLACEMENT_3D('',#12,#13,#14);
#12 = CARTESIAN_POINT('',(0.,0.,0.));
#13 = DIRECTION('',(0.,0.,1.));
#14 = DIRECTION('',(1.,0.,-0.));
#15 = MANIFOLD_SOLID_BREP('',#16);
#16 = CLOSED_SHELL('',(#17,#62,#135,#218,#268,#279,#330,#351,#376,#421,
    #471,#482,#524,#534,#559,#604,#620,#673,#715,#725,#822,#834,#850,
    #903,#938,#1075,#1113,#1182,#1194,#1221,#1259,#1300,#1310,#1351,
    #1361,#1377,#1412,#1428,#1463,#1522,#1532,#1591,#1601,#1643,#1654,
    #1696,#1707));
#17 = ADVANCED_FACE('',(#18),#57,.T.);
#18 = FACE_BOUND('',#19,.T.);
#19 = EDGE_LOOP('',(#20,#31,#40,#49,#56));
#20 = ORIENTED_EDGE('',*,*,#21,.T.);
#21 = EDGE_CURVE('',#22,#24,#26,.T.);
#22 = VERTEX_POINT('',#23);
#23 = CARTESIAN_POINT('',(33.,-12.,38.6));
#24 = VERTEX_POINT('',#25);
#25 = CARTESIAN_POINT('',(34.3431117022,-12.,39.604967146412));
#26 = CIRCLE('',#27,1.4);
#27 = AXIS2_PLACEMENT_3D('',#28,#29,#30);
#28 = CARTESIAN_POINT('',(33.,-12.,40.));
#29 = DIRECTION('',(-2.449293598295E-16,-1.,0.));
#30 = DIRECTION('',(1.,-2.449293598295E-16,0.));
#31 = ORIENTED_EDGE('',*,*,#32,.F.);
#32 = EDGE_CURVE('',#33,#24,#35,.T.);
#33 = VERTEX_POINT('',#34);
#34 = CARTESIAN_POINT('',(32.651792616061,-10.69233031693,
    40.358819756661));
#35 = CIRCLE('',#36,1.4);
#36 = AXIS2_PLACEMENT_3D('',#37,#38,#39);
#37 = CARTESIAN_POINT('',(33.,-12.,40.));
#38 = DIRECTION('',(0.277302699992,-0.184868466662,0.942829179974));
#39 = DIRECTION('',(0.959365501571,1.387778780781E-17,-0.282166323992));
#40 = ORIENTED_EDGE('',*,*,#41,.F.);
#41 = EDGE_CURVE('',#42,#33,#44,.T.);
#42 = VERTEX_POINT('',#43);
#43 = CARTESIAN_POINT('',(33.487025821632,-10.69233031693,
    40.113162931493));
#44 = CIRCLE('',#45,0.5);
#45 = AXIS2_PLACEMENT_3D('',#46,#47,#48);
#46 = CARTESIAN_POINT('',(33.,-10.69233031693,40.));
#47 = DIRECTION('',(0.,1.,0.));
#48 = DIRECTION('',(0.,0.,1.));
#49 = ORIENTED_EDGE('',*,*,#50,.F.);
#50 = EDGE_CURVE('',#24,#42,#51,.T.);
#51 = CIRCLE('',#52,1.4);
#52 = AXIS2_PLACEMENT_3D('',#53,#54,#55);
#53 = CARTESIAN_POINT('',(33.,-12.,40.));
#54 = DIRECTION('',(0.277302699992,-0.184868466662,0.942829179974));
#55 = DIRECTION('',(0.959365501571,1.387778780781E-17,-0.282166323992));
#56 = ORIENTED_EDGE('',*,*,#21,.F.);
#57 = SPHERICAL_SURFACE('',#58,1.4);
#58 = AXIS2_PLACEMENT_3D('',#59,#60,#61);
#59 = CARTESIAN_POINT('',(33.,-12.,40.));
#60 = DIRECTION('',(0.,0.,1.));
#61 = DIRECTION('',(1.,0.,0.));
#62 = ADVANCED_FACE('',(#63),#130,.T.);
#63 = FACE_BOUND('',#64,.T.);
#64 = EDGE_LOOP('',(#65,#66,#74,#83,#90,#91,#92,#115));
#65 = ORIENTED_EDGE('',*,*,#32,.T.);
#66 = ORIENTED_EDGE('',*,*,#67,.T.);
#67 = EDGE_CURVE('',#24,#68,#70,.T.);
#68 = VERTEX_POINT('',#69);
#69 = CARTESIAN_POINT('',(37.3431117022,-14.,49.804967146412));
#70 = LINE('',#71,#72);
#71 = CARTESIAN_POINT('',(34.3431117022,-12.,39.604967146412));
#72 = VECTOR('',#73,1.);
#73 = DIRECTION('',(0.277302699992,-0.184868466662,0.942829179974));
#74 = ORIENTED_EDGE('',*,*,#75,.F.);
#75 = EDGE_CURVE('',#76,#68,#78,.T.);
#76 = VERTEX_POINT('',#77);
#77 = CARTESIAN_POINT('',(34.6568882978,-14.,50.595032853588));
#78 = CIRCLE('',#79,1.4);
#79 = AXIS2_PLACEMENT_3D('',#80,#81,#82);
#80 = CARTESIAN_POINT('',(36.,-14.,50.2));
#81 = DIRECTION('',(0.277302699992,-0.184868466662,0.942829179974));
#82 = DIRECTION('',(0.959365501571,1.387778780781E-17,-0.282166323992));
#83 = ORIENTED_EDGE('',*,*,#84,.F.);
#84 = EDGE_CURVE('',#68,#76,#85,.T.);
#85 = ELLIPSE('',#86,2.192952306162,1.4);
#86 = AXIS2_PLACEMENT_3D('',#87,#88,#89);
#87 = CARTESIAN_POINT('',(36.,-14.,50.2));
#88 = DIRECTION('',(0.217182712662,0.638408777093,0.738421223051));
#89 = DIRECTION('',(0.180137457836,-0.769697494689,0.612467356643));
#90 = ORIENTED_EDGE('',*,*,#67,.F.);
#91 = ORIENTED_EDGE('',*,*,#50,.T.);
#92 = ORIENTED_EDGE('',*,*,#93,.F.);
#93 = EDGE_CURVE('',#94,#42,#96,.T.);
#94 = VERTEX_POINT('',#95);
#95 = CARTESIAN_POINT('',(33.,-10.67293075926,40.5));
#96 = B_SPLINE_CURVE_WITH_KNOTS('',5,(#97,#98,#99,#100,#101,#102,#103,
    #104,#105,#106,#107,#108,#109,#110,#111,#112,#113,#114),
  .UNSPECIFIED.,.F.,.F.,(6,4,4,4,6),(0.,0.208665890795,0.542897837533,
    0.914694764534,1.),.UNSPECIFIED.);
#97 = CARTESIAN_POINT('',(33.,-10.67293075926,40.5));
#98 = CARTESIAN_POINT('',(33.028205219285,-10.67163898148,40.5));
#99 = CARTESIAN_POINT('',(33.05646220846,-10.67060351149,40.498011166075
    ));
#100 = CARTESIAN_POINT('',(33.084565505286,-10.669885295,40.494018884328
    ));
#101 = CARTESIAN_POINT('',(33.112308801219,-10.66951767781,
    40.488045324384));
#102 = CARTESIAN_POINT('',(33.183042109408,-10.66947496426,
    40.467495398689));
#103 = CARTESIAN_POINT('',(33.225138406792,-10.67034920758,
    40.449911853936));
#104 = CARTESIAN_POINT('',(33.264991362785,-10.67212951693,
    40.427634273005));
#105 = CARTESIAN_POINT('',(33.30187384844,-10.67459758398,
    40.401114218592));
#106 = CARTESIAN_POINT('',(33.372322930971,-10.68050137831,
    40.337454819947));
#107 = CARTESIAN_POINT('',(33.405062745118,-10.68401593191,
    40.299445939106));
#108 = CARTESIAN_POINT('',(33.432738337116,-10.68745479271,
    40.257743923648));
#109 = CARTESIAN_POINT('',(33.454882180524,-10.69013952142,
    40.21328206225));
#110 = CARTESIAN_POINT('',(33.475033223329,-10.69182658806,
    40.156429377339));
#111 = CARTESIAN_POINT('',(33.478491198831,-10.69207239402,
    40.145725064304));
#112 = CARTESIAN_POINT('',(33.481643871495,-10.69224240342,
    40.13493798977));
#113 = CARTESIAN_POINT('',(33.484489244898,-10.69233032133,
    40.124079812235));
#114 = CARTESIAN_POINT('',(33.487025980344,-10.69233031693,
    40.11316224843));
#115 = ORIENTED_EDGE('',*,*,#116,.F.);
#116 = EDGE_CURVE('',#33,#94,#117,.T.);
#117 = B_SPLINE_CURVE_WITH_KNOTS('',6,(#118,#119,#120,#121,#122,#123,
    #124,#125,#126,#127,#128,#129),.UNSPECIFIED.,.F.,.F.,(7,5,7),(0.,
    0.149596853489,1.),.UNSPECIFIED.);
#118 = CARTESIAN_POINT('',(32.65179211281,-10.69233031693,
    40.358819268293));
#119 = CARTESIAN_POINT('',(32.658582841097,-10.69233032065,
    40.365409174016));
#120 = CARTESIAN_POINT('',(32.665529122986,-10.69227016455,
    40.371850582112));
#121 = CARTESIAN_POINT('',(32.672627075619,-10.69215288066,
    40.378138748079));
#122 = CARTESIAN_POINT('',(32.679872632931,-10.69198166345,
    40.384269069585));
#123 = CARTESIAN_POINT('',(32.687261545654,-10.69175986985,
    40.390237086472));
#124 = CARTESIAN_POINT('',(32.737582361119,-10.68996270253,
    40.42901727569));
#125 = CARTESIAN_POINT('',(32.784894325487,-10.68691259148,
    40.456634502125));
#126 = CARTESIAN_POINT('',(32.835889937784,-10.68297887196,
    40.478058575507));
#127 = CARTESIAN_POINT('',(32.889531143141,-10.67894679299,
    40.492645046828));
#128 = CARTESIAN_POINT('',(32.944641251269,-10.67546614821,40.5));
#129 = CARTESIAN_POINT('',(33.,-10.67293075926,40.5));
#130 = CYLINDRICAL_SURFACE('',#131,1.4);
#131 = AXIS2_PLACEMENT_3D('',#132,#133,#134);
#132 = CARTESIAN_POINT('',(33.,-12.,40.));
#133 = DIRECTION('',(0.277302699992,-0.184868466662,0.942829179974));
#134 = DIRECTION('',(0.959365501571,6.938893903907E-18,-0.282166323992)
  );
#135 = ADVANCED_FACE('',(#136),#213,.F.);
#136 = FACE_BOUND('',#137,.F.);
#137 = EDGE_LOOP('',(#138,#139,#147,#178,#187,#210,#211,#212));
#138 = ORIENTED_EDGE('',*,*,#93,.F.);
#139 = ORIENTED_EDGE('',*,*,#140,.F.);
#140 = EDGE_CURVE('',#141,#94,#143,.T.);
#141 = VERTEX_POINT('',#142);
#142 = CARTESIAN_POINT('',(33.,-11.44460077995,40.5));
#143 = LINE('',#144,#145);
#144 = CARTESIAN_POINT('',(33.,-12.,40.5));
#145 = VECTOR('',#146,1.);
#146 = DIRECTION('',(0.,1.,0.));
#147 = ORIENTED_EDGE('',*,*,#148,.T.);
#148 = EDGE_CURVE('',#141,#149,#151,.T.);
#149 = VERTEX_POINT('',#150);
#150 = CARTESIAN_POINT('',(33.495835742902,-11.58466880685,
    39.935603446822));
#151 = B_SPLINE_CURVE_WITH_KNOTS('',7,(#152,#153,#154,#155,#156,#157,
    #158,#159,#160,#161,#162,#163,#164,#165,#166,#167,#168,#169,#170,
    #171,#172,#173,#174,#175,#176,#177),.UNSPECIFIED.,.F.,.F.,(8,6,6,6,8
    ),(0.,0.168736677565,0.567813916802,0.874857383589,1.),
  .UNSPECIFIED.);
#152 = CARTESIAN_POINT('',(33.,-11.44460077995,40.5));
#153 = CARTESIAN_POINT('',(33.020165164809,-11.44129410657,40.5));
#154 = CARTESIAN_POINT('',(33.040344986528,-11.43848807039,
    40.499051202606));
#155 = CARTESIAN_POINT('',(33.060483227854,-11.43620888531,
    40.497151068371));
#156 = CARTESIAN_POINT('',(33.080523270133,-11.43447618294,
    40.494301712714));
#157 = CARTESIAN_POINT('',(33.100408744653,-11.43330311429,
    40.490509789178));
#158 = CARTESIAN_POINT('',(33.120084163934,-11.43269645161,
    40.485786372694));
#159 = CARTESIAN_POINT('',(33.185405213431,-11.43256265063,
    40.466808853505));
#160 = CARTESIAN_POINT('',(33.22971990205,-11.43563998055,
    40.448380429852));
#161 = CARTESIAN_POINT('',(33.271801320172,-11.44186517994,
    40.425094870443));
#162 = CARTESIAN_POINT('',(33.311047216125,-11.45104500309,
    40.397270347366));
#163 = CARTESIAN_POINT('',(33.346903904862,-11.46281879059,
    40.365314764875));
#164 = CARTESIAN_POINT('',(33.378883024233,-11.47662558523,
    40.329715864528));
#165 = CARTESIAN_POINT('',(33.42789407067,-11.50318482262,
    40.261241981102));
#166 = CARTESIAN_POINT('',(33.446643522944,-11.51543059146,
    40.22967201222));
#167 = CARTESIAN_POINT('',(33.462791513018,-11.52806418719,
    40.196378875201));
#168 = CARTESIAN_POINT('',(33.476196265064,-11.54069154248,
    40.161434472664));
#169 = CARTESIAN_POINT('',(33.486621021967,-11.5527455734,
    40.125005375934));
#170 = CARTESIAN_POINT('',(33.493847398748,-11.56339895515,
    40.087330460146));
#171 = CARTESIAN_POINT('',(33.49917069292,-11.5750609503,40.032859754481
    ));
#172 = CARTESIAN_POINT('',(33.500143315842,-11.57805189048,
    40.01688254281));
#173 = CARTESIAN_POINT('',(33.500521834876,-11.58057912846,
    40.000756354914));
#174 = CARTESIAN_POINT('',(33.500289985502,-11.58256857205,
    39.984529258771));
#175 = CARTESIAN_POINT('',(33.499437239609,-11.58395193862,
    39.968241367919));
#176 = CARTESIAN_POINT('',(33.497955478065,-11.58466882993,
    39.951924666429));
#177 = CARTESIAN_POINT('',(33.495835663292,-11.58466880685,
    39.935602833854));
#178 = ORIENTED_EDGE('',*,*,#179,.T.);
#179 = EDGE_CURVE('',#149,#180,#182,.T.);
#180 = VERTEX_POINT('',#181);
#181 = CARTESIAN_POINT('',(32.548254617305,-11.58466880685,
    40.21430377788));
#182 = CIRCLE('',#183,0.5);
#183 = AXIS2_PLACEMENT_3D('',#184,#185,#186);
#184 = CARTESIAN_POINT('',(33.,-11.58466880685,40.));
#185 = DIRECTION('',(0.,1.,0.));
#186 = DIRECTION('',(0.,0.,1.));
#187 = ORIENTED_EDGE('',*,*,#188,.T.);
#188 = EDGE_CURVE('',#180,#141,#189,.T.);
#189 = B_SPLINE_CURVE_WITH_KNOTS('',7,(#190,#191,#192,#193,#194,#195,
    #196,#197,#198,#199,#200,#201,#202,#203,#204,#205,#206,#207,#208,
    #209),.UNSPECIFIED.,.F.,.F.,(8,6,6,8),(0.,0.191878748043,
    0.659770671783,1.),.UNSPECIFIED.);
#190 = CARTESIAN_POINT('',(32.548254352376,-11.58466880685,
    40.214303219418));
#191 = CARTESIAN_POINT('',(32.555378564531,-11.58466883016,
    40.229320874508));
#192 = CARTESIAN_POINT('',(32.563046786822,-11.58393767972,
    40.243981226566));
#193 = CARTESIAN_POINT('',(32.571238029233,-11.58252740845,
    40.258269104501));
#194 = CARTESIAN_POINT('',(32.579927505906,-11.58050033671,
    40.272161570165));
#195 = CARTESIAN_POINT('',(32.589083809451,-11.57792687949,
    40.285629954467));
#196 = CARTESIAN_POINT('',(32.598666085267,-11.57488337362,
    40.298641893496));
#197 = CARTESIAN_POINT('',(32.63289653895,-11.56307747017,
    40.341696684669));
#198 = CARTESIAN_POINT('',(32.659522460564,-11.55233978725,
    40.369481589984));
#199 = CARTESIAN_POINT('',(32.688167551955,-11.54021337242,
    40.394463819685));
#200 = CARTESIAN_POINT('',(32.71851608721,-11.5275300826,40.416562207528
    ));
#201 = CARTESIAN_POINT('',(32.750278587838,-11.51485643274,
    40.435767503288));
#202 = CARTESIAN_POINT('',(32.783300382905,-11.50258589617,
    40.452096811495));
#203 = CARTESIAN_POINT('',(32.842387874309,-11.48262439318,
    40.475260314327));
#204 = CARTESIAN_POINT('',(32.867839223645,-11.47461574158,
    40.483448577922));
#205 = CARTESIAN_POINT('',(32.893761398125,-11.4671429064,
    40.490040323529));
#206 = CARTESIAN_POINT('',(32.920047234665,-11.46032095221,
    40.495008860411));
#207 = CARTESIAN_POINT('',(32.946587930524,-11.45424292539,
    40.498333567233));
#208 = CARTESIAN_POINT('',(32.973274628145,-11.44898319272,40.5));
#209 = CARTESIAN_POINT('',(33.,-11.44460077995,40.5));
#210 = ORIENTED_EDGE('',*,*,#140,.T.);
#211 = ORIENTED_EDGE('',*,*,#116,.F.);
#212 = ORIENTED_EDGE('',*,*,#41,.F.);
#213 = CYLINDRICAL_SURFACE('',#214,0.5);
#214 = AXIS2_PLACEMENT_3D('',#215,#216,#217);
#215 = CARTESIAN_POINT('',(33.,-12.,40.));
#216 = DIRECTION('',(0.,1.,0.));
#217 = DIRECTION('',(0.,0.,1.));
#218 = ADVANCED_FACE('',(#219),#263,.T.);
#219 = FACE_BOUND('',#220,.T.);
#220 = EDGE_LOOP('',(#221,#222,#231,#239,#248,#255,#256));
#221 = ORIENTED_EDGE('',*,*,#84,.T.);
#222 = ORIENTED_EDGE('',*,*,#223,.T.);
#223 = EDGE_CURVE('',#76,#224,#226,.T.);
#224 = VERTEX_POINT('',#225);
#225 = CARTESIAN_POINT('',(36.,-14.,51.6));
#226 = CIRCLE('',#227,1.4);
#227 = AXIS2_PLACEMENT_3D('',#228,#229,#230);
#228 = CARTESIAN_POINT('',(36.,-14.,50.2));
#229 = DIRECTION('',(0.,1.,0.));
#230 = DIRECTION('',(0.,0.,1.));
#231 = ORIENTED_EDGE('',*,*,#232,.T.);
#232 = EDGE_CURVE('',#224,#233,#235,.T.);
#233 = VERTEX_POINT('',#234);
#234 = CARTESIAN_POINT('',(36.,17.,51.6));
#235 = LINE('',#236,#237);
#236 = CARTESIAN_POINT('',(36.,-14.,51.6));
#237 = VECTOR('',#238,1.);
#238 = DIRECTION('',(0.,1.,0.));
#239 = ORIENTED_EDGE('',*,*,#240,.F.);
#240 = EDGE_CURVE('',#241,#233,#243,.T.);
#241 = VERTEX_POINT('',#242);
#242 = CARTESIAN_POINT('',(36.,17.,48.8));
#243 = ELLIPSE('',#244,1.488931531303,1.4);
#244 = AXIS2_PLACEMENT_3D('',#245,#246,#247);
#245 = CARTESIAN_POINT('',(36.,17.,50.2));
#246 = DIRECTION('',(-0.340425263753,0.940271577683,0.));
#247 = DIRECTION('',(0.940271577683,0.340425263753,0.));
#248 = ORIENTED_EDGE('',*,*,#249,.F.);
#249 = EDGE_CURVE('',#233,#241,#250,.T.);
#250 = CIRCLE('',#251,1.4);
#251 = AXIS2_PLACEMENT_3D('',#252,#253,#254);
#252 = CARTESIAN_POINT('',(36.,17.,50.2));
#253 = DIRECTION('',(0.,1.,0.));
#254 = DIRECTION('',(0.,0.,1.));
#255 = ORIENTED_EDGE('',*,*,#232,.F.);
#256 = ORIENTED_EDGE('',*,*,#257,.F.);
#257 = EDGE_CURVE('',#68,#224,#258,.T.);
#258 = CIRCLE('',#259,1.4);
#259 = AXIS2_PLACEMENT_3D('',#260,#261,#262);
#260 = CARTESIAN_POINT('',(36.,-14.,50.2));
#261 = DIRECTION('',(-2.449293598295E-16,-1.,0.));
#262 = DIRECTION('',(1.,-2.449293598295E-16,0.));
#263 = CYLINDRICAL_SURFACE('',#264,1.4);
#264 = AXIS2_PLACEMENT_3D('',#265,#266,#267);
#265 = CARTESIAN_POINT('',(36.,-14.,50.2));
#266 = DIRECTION('',(0.,1.,0.));
#267 = DIRECTION('',(0.,0.,1.));
#268 = ADVANCED_FACE('',(#269),#274,.T.);
#269 = FACE_BOUND('',#270,.T.);
#270 = EDGE_LOOP('',(#271,#272,#273));
#271 = ORIENTED_EDGE('',*,*,#75,.T.);
#272 = ORIENTED_EDGE('',*,*,#257,.T.);
#273 = ORIENTED_EDGE('',*,*,#223,.F.);
#274 = SPHERICAL_SURFACE('',#275,1.4);
#275 = AXIS2_PLACEMENT_3D('',#276,#277,#278);
#276 = CARTESIAN_POINT('',(36.,-14.,50.2));
#277 = DIRECTION('',(0.,0.,1.));
#278 = DIRECTION('',(1.,0.,0.));
#279 = ADVANCED_FACE('',(#280),#325,.F.);
#280 = FACE_BOUND('',#281,.F.);
#281 = EDGE_LOOP('',(#282,#291,#299,#308,#315,#316,#323,#324));
#282 = ORIENTED_EDGE('',*,*,#283,.T.);
#283 = EDGE_CURVE('',#180,#284,#286,.T.);
#284 = VERTEX_POINT('',#285);
#285 = CARTESIAN_POINT('',(33.623587576021,-12.,39.816591889405));
#286 = CIRCLE('',#287,0.65);
#287 = AXIS2_PLACEMENT_3D('',#288,#289,#290);
#288 = CARTESIAN_POINT('',(33.,-12.,40.));
#289 = DIRECTION('',(0.277302699992,-0.184868466662,0.942829179974));
#290 = DIRECTION('',(0.959365501571,1.387778780781E-17,-0.282166323992)
  );
#291 = ORIENTED_EDGE('',*,*,#292,.T.);
#292 = EDGE_CURVE('',#284,#293,#295,.T.);
#293 = VERTEX_POINT('',#294);
#294 = CARTESIAN_POINT('',(36.623587576021,-14.,50.016591889405));
#295 = LINE('',#296,#297);
#296 = CARTESIAN_POINT('',(33.623587576021,-12.,39.816591889405));
#297 = VECTOR('',#298,1.);
#298 = DIRECTION('',(0.277302699992,-0.184868466662,0.942829179974));
#299 = ORIENTED_EDGE('',*,*,#300,.F.);
#300 = EDGE_CURVE('',#301,#293,#303,.T.);
#301 = VERTEX_POINT('',#302);
#302 = CARTESIAN_POINT('',(35.376412423979,-14.,50.383408110595));
#303 = CIRCLE('',#304,0.65);
#304 = AXIS2_PLACEMENT_3D('',#305,#306,#307);
#305 = CARTESIAN_POINT('',(36.,-14.,50.2));
#306 = DIRECTION('',(0.277302699992,-0.184868466662,0.942829179974));
#307 = DIRECTION('',(0.959365501571,1.387778780781E-17,-0.282166323992)
  );
#308 = ORIENTED_EDGE('',*,*,#309,.F.);
#309 = EDGE_CURVE('',#293,#301,#310,.T.);
#310 = ELLIPSE('',#311,1.018156427861,0.65);
#311 = AXIS2_PLACEMENT_3D('',#312,#313,#314);
#312 = CARTESIAN_POINT('',(36.,-14.,50.2));
#313 = DIRECTION('',(0.217182712662,0.638408777093,0.738421223051));
#314 = DIRECTION('',(0.180137457836,-0.769697494689,0.612467356643));
#315 = ORIENTED_EDGE('',*,*,#292,.F.);
#316 = ORIENTED_EDGE('',*,*,#317,.T.);
#317 = EDGE_CURVE('',#284,#149,#318,.T.);
#318 = CIRCLE('',#319,0.65);
#319 = AXIS2_PLACEMENT_3D('',#320,#321,#322);
#320 = CARTESIAN_POINT('',(33.,-12.,40.));
#321 = DIRECTION('',(0.277302699992,-0.184868466662,0.942829179974));
#322 = DIRECTION('',(0.959365501571,1.387778780781E-17,-0.282166323992)
  );
#323 = ORIENTED_EDGE('',*,*,#148,.F.);
#324 = ORIENTED_EDGE('',*,*,#188,.F.);
#325 = CYLINDRICAL_SURFACE('',#326,0.65);
#326 = AXIS2_PLACEMENT_3D('',#327,#328,#329);
#327 = CARTESIAN_POINT('',(33.,-12.,40.));
#328 = DIRECTION('',(0.277302699992,-0.184868466662,0.942829179974));
#329 = DIRECTION('',(0.959365501571,6.938893903907E-18,-0.282166323992)
  );
#330 = ADVANCED_FACE('',(#331),#346,.F.);
#331 = FACE_BOUND('',#332,.F.);
#332 = EDGE_LOOP('',(#333,#342,#343,#344,#345));
#333 = ORIENTED_EDGE('',*,*,#334,.T.);
#334 = EDGE_CURVE('',#335,#284,#337,.T.);
#335 = VERTEX_POINT('',#336);
#336 = CARTESIAN_POINT('',(33.,-12.,39.35));
#337 = CIRCLE('',#338,0.65);
#338 = AXIS2_PLACEMENT_3D('',#339,#340,#341);
#339 = CARTESIAN_POINT('',(33.,-12.,40.));
#340 = DIRECTION('',(-2.449293598295E-16,-1.,0.));
#341 = DIRECTION('',(1.,-2.449293598295E-16,0.));
#342 = ORIENTED_EDGE('',*,*,#283,.F.);
#343 = ORIENTED_EDGE('',*,*,#179,.F.);
#344 = ORIENTED_EDGE('',*,*,#317,.F.);
#345 = ORIENTED_EDGE('',*,*,#334,.F.);
#346 = SPHERICAL_SURFACE('',#347,0.65);
#347 = AXIS2_PLACEMENT_3D('',#348,#349,#350);
#348 = CARTESIAN_POINT('',(33.,-12.,40.));
#349 = DIRECTION('',(0.,0.,1.));
#350 = DIRECTION('',(1.,0.,0.));
#351 = ADVANCED_FACE('',(#352),#371,.T.);
#352 = FACE_BOUND('',#353,.T.);
#353 = EDGE_LOOP('',(#354,#355,#364));
#354 = ORIENTED_EDGE('',*,*,#249,.T.);
#355 = ORIENTED_EDGE('',*,*,#356,.F.);
#356 = EDGE_CURVE('',#357,#241,#359,.T.);
#357 = VERTEX_POINT('',#358);
#358 = CARTESIAN_POINT('',(37.075509791436,17.89625815953,50.2));
#359 = CIRCLE('',#360,1.4);
#360 = AXIS2_PLACEMENT_3D('',#361,#362,#363);
#361 = CARTESIAN_POINT('',(36.,17.,50.2));
#362 = DIRECTION('',(-0.640184399664,0.768221279597,0.));
#363 = DIRECTION('',(0.768221279597,0.640184399664,0.));
#364 = ORIENTED_EDGE('',*,*,#365,.F.);
#365 = EDGE_CURVE('',#233,#357,#366,.T.);
#366 = CIRCLE('',#367,1.4);
#367 = AXIS2_PLACEMENT_3D('',#368,#369,#370);
#368 = CARTESIAN_POINT('',(36.,17.,50.2));
#369 = DIRECTION('',(-0.640184399664,0.768221279597,0.));
#370 = DIRECTION('',(0.768221279597,0.640184399664,0.));
#371 = SPHERICAL_SURFACE('',#372,1.4);
#372 = AXIS2_PLACEMENT_3D('',#373,#374,#375);
#373 = CARTESIAN_POINT('',(36.,17.,50.2));
#374 = DIRECTION('',(0.,0.,1.));
#375 = DIRECTION('',(1.,0.,0.));
#376 = ADVANCED_FACE('',(#377),#416,.T.);
#377 = FACE_BOUND('',#378,.T.);
#378 = EDGE_LOOP('',(#379,#380,#381,#389,#398,#407,#414,#415));
#379 = ORIENTED_EDGE('',*,*,#240,.T.);
#380 = ORIENTED_EDGE('',*,*,#365,.T.);
#381 = ORIENTED_EDGE('',*,*,#382,.T.);
#382 = EDGE_CURVE('',#357,#383,#385,.T.);
#383 = VERTEX_POINT('',#384);
#384 = CARTESIAN_POINT('',(32.4,23.506869909254,50.2));
#385 = LINE('',#386,#387);
#386 = CARTESIAN_POINT('',(37.075509791436,17.89625815953,50.2));
#387 = VECTOR('',#388,1.);
#388 = DIRECTION('',(-0.640184399664,0.768221279597,0.));
#389 = ORIENTED_EDGE('',*,*,#390,.F.);
#390 = EDGE_CURVE('',#391,#383,#393,.T.);
#391 = VERTEX_POINT('',#392);
#392 = CARTESIAN_POINT('',(31.,23.,51.6));
#393 = ELLIPSE('',#394,1.488931531303,1.4);
#394 = AXIS2_PLACEMENT_3D('',#395,#396,#397);
#395 = CARTESIAN_POINT('',(31.,23.,50.2));
#396 = DIRECTION('',(-0.340425263753,0.940271577683,0.));
#397 = DIRECTION('',(-0.940271577683,-0.340425263753,0.));
#398 = ORIENTED_EDGE('',*,*,#399,.F.);
#399 = EDGE_CURVE('',#400,#391,#402,.T.);
#400 = VERTEX_POINT('',#401);
#401 = CARTESIAN_POINT('',(31.,23.,48.8));
#402 = CIRCLE('',#403,1.4);
#403 = AXIS2_PLACEMENT_3D('',#404,#405,#406);
#404 = CARTESIAN_POINT('',(31.,23.,50.2));
#405 = DIRECTION('',(-0.640184399664,0.768221279597,0.));
#406 = DIRECTION('',(0.768221279597,0.640184399664,0.));
#407 = ORIENTED_EDGE('',*,*,#408,.F.);
#408 = EDGE_CURVE('',#383,#400,#409,.T.);
#409 = ELLIPSE('',#410,1.488931531303,1.4);
#410 = AXIS2_PLACEMENT_3D('',#411,#412,#413);
#411 = CARTESIAN_POINT('',(31.,23.,50.2));
#412 = DIRECTION('',(-0.340425263753,0.940271577683,0.));
#413 = DIRECTION('',(-0.940271577683,-0.340425263753,0.));
#414 = ORIENTED_EDGE('',*,*,#382,.F.);
#415 = ORIENTED_EDGE('',*,*,#356,.T.);
#416 = CYLINDRICAL_SURFACE('',#417,1.4);
#417 = AXIS2_PLACEMENT_3D('',#418,#419,#420);
#418 = CARTESIAN_POINT('',(36.,17.,50.2));
#419 = DIRECTION('',(-0.640184399664,0.768221279597,0.));
#420 = DIRECTION('',(0.768221279597,0.640184399664,0.));
#421 = ADVANCED_FACE('',(#422),#466,.F.);
#422 = FACE_BOUND('',#423,.F.);
#423 = EDGE_LOOP('',(#424,#425,#434,#442,#451,#458,#459));
#424 = ORIENTED_EDGE('',*,*,#309,.T.);
#425 = ORIENTED_EDGE('',*,*,#426,.T.);
#426 = EDGE_CURVE('',#301,#427,#429,.T.);
#427 = VERTEX_POINT('',#428);
#428 = CARTESIAN_POINT('',(36.,-14.,50.85));
#429 = CIRCLE('',#430,0.65);
#430 = AXIS2_PLACEMENT_3D('',#431,#432,#433);
#431 = CARTESIAN_POINT('',(36.,-14.,50.2));
#432 = DIRECTION('',(0.,1.,0.));
#433 = DIRECTION('',(0.,0.,1.));
#434 = ORIENTED_EDGE('',*,*,#435,.T.);
#435 = EDGE_CURVE('',#427,#436,#438,.T.);
#436 = VERTEX_POINT('',#437);
#437 = CARTESIAN_POINT('',(36.,17.,50.85));
#438 = LINE('',#439,#440);
#439 = CARTESIAN_POINT('',(36.,-14.,50.85));
#440 = VECTOR('',#441,1.);
#441 = DIRECTION('',(0.,1.,0.));
#442 = ORIENTED_EDGE('',*,*,#443,.F.);
#443 = EDGE_CURVE('',#444,#436,#446,.T.);
#444 = VERTEX_POINT('',#445);
#445 = CARTESIAN_POINT('',(36.,17.,49.55));
#446 = ELLIPSE('',#447,0.691289639533,0.65);
#447 = AXIS2_PLACEMENT_3D('',#448,#449,#450);
#448 = CARTESIAN_POINT('',(36.,17.,50.2));
#449 = DIRECTION('',(-0.340425263753,0.940271577683,0.));
#450 = DIRECTION('',(0.940271577683,0.340425263753,0.));
#451 = ORIENTED_EDGE('',*,*,#452,.F.);
#452 = EDGE_CURVE('',#436,#444,#453,.T.);
#453 = CIRCLE('',#454,0.65);
#454 = AXIS2_PLACEMENT_3D('',#455,#456,#457);
#455 = CARTESIAN_POINT('',(36.,17.,50.2));
#456 = DIRECTION('',(0.,1.,0.));
#457 = DIRECTION('',(0.,0.,1.));
#458 = ORIENTED_EDGE('',*,*,#435,.F.);
#459 = ORIENTED_EDGE('',*,*,#460,.F.);
#460 = EDGE_CURVE('',#293,#427,#461,.T.);
#461 = CIRCLE('',#462,0.65);
#462 = AXIS2_PLACEMENT_3D('',#463,#464,#465);
#463 = CARTESIAN_POINT('',(36.,-14.,50.2));
#464 = DIRECTION('',(-2.449293598295E-16,-1.,0.));
#465 = DIRECTION('',(1.,-2.449293598295E-16,0.));
#466 = CYLINDRICAL_SURFACE('',#467,0.65);
#467 = AXIS2_PLACEMENT_3D('',#468,#469,#470);
#468 = CARTESIAN_POINT('',(36.,-14.,50.2));
#469 = DIRECTION('',(0.,1.,0.));
#470 = DIRECTION('',(0.,0.,1.));
#471 = ADVANCED_FACE('',(#472),#477,.F.);
#472 = FACE_BOUND('',#473,.F.);
#473 = EDGE_LOOP('',(#474,#475,#476));
#474 = ORIENTED_EDGE('',*,*,#300,.T.);
#475 = ORIENTED_EDGE('',*,*,#460,.T.);
#476 = ORIENTED_EDGE('',*,*,#426,.F.);
#477 = SPHERICAL_SURFACE('',#478,0.65);
#478 = AXIS2_PLACEMENT_3D('',#479,#480,#481);
#479 = CARTESIAN_POINT('',(36.,-14.,50.2));
#480 = DIRECTION('',(0.,0.,1.));
#481 = DIRECTION('',(1.,0.,0.));
#482 = ADVANCED_FACE('',(#483),#519,.T.);
#483 = FACE_BOUND('',#484,.T.);
#484 = EDGE_LOOP('',(#485,#486,#493,#501,#510,#517,#518));
#485 = ORIENTED_EDGE('',*,*,#408,.T.);
#486 = ORIENTED_EDGE('',*,*,#487,.T.);
#487 = EDGE_CURVE('',#400,#391,#488,.T.);
#488 = CIRCLE('',#489,1.4);
#489 = AXIS2_PLACEMENT_3D('',#490,#491,#492);
#490 = CARTESIAN_POINT('',(31.,23.,50.2));
#491 = DIRECTION('',(0.,1.,0.));
#492 = DIRECTION('',(0.,0.,1.));
#493 = ORIENTED_EDGE('',*,*,#494,.T.);
#494 = EDGE_CURVE('',#391,#495,#497,.T.);
#495 = VERTEX_POINT('',#496);
#496 = CARTESIAN_POINT('',(31.,27.,51.6));
#497 = LINE('',#498,#499);
#498 = CARTESIAN_POINT('',(31.,23.,51.6));
#499 = VECTOR('',#500,1.);
#500 = DIRECTION('',(0.,1.,0.));
#501 = ORIENTED_EDGE('',*,*,#502,.F.);
#502 = EDGE_CURVE('',#503,#495,#505,.T.);
#503 = VERTEX_POINT('',#504);
#504 = CARTESIAN_POINT('',(31.,27.,48.8));
#505 = ELLIPSE('',#506,1.979898987322,1.4);
#506 = AXIS2_PLACEMENT_3D('',#507,#508,#509);
#507 = CARTESIAN_POINT('',(31.,27.,50.2));
#508 = DIRECTION('',(-0.707106781187,0.707106781187,0.));
#509 = DIRECTION('',(0.707106781187,0.707106781187,0.));
#510 = ORIENTED_EDGE('',*,*,#511,.F.);
#511 = EDGE_CURVE('',#495,#503,#512,.T.);
#512 = CIRCLE('',#513,1.4);
#513 = AXIS2_PLACEMENT_3D('',#514,#515,#516);
#514 = CARTESIAN_POINT('',(31.,27.,50.2));
#515 = DIRECTION('',(0.,1.,0.));
#516 = DIRECTION('',(0.,0.,1.));
#517 = ORIENTED_EDGE('',*,*,#494,.F.);
#518 = ORIENTED_EDGE('',*,*,#390,.T.);
#519 = CYLINDRICAL_SURFACE('',#520,1.4);
#520 = AXIS2_PLACEMENT_3D('',#521,#522,#523);
#521 = CARTESIAN_POINT('',(31.,23.,50.2));
#522 = DIRECTION('',(0.,1.,0.));
#523 = DIRECTION('',(0.,0.,1.));
#524 = ADVANCED_FACE('',(#525),#529,.T.);
#525 = FACE_BOUND('',#526,.T.);
#526 = EDGE_LOOP('',(#527,#528));
#527 = ORIENTED_EDGE('',*,*,#399,.T.);
#528 = ORIENTED_EDGE('',*,*,#487,.F.);
#529 = SPHERICAL_SURFACE('',#530,1.4);
#530 = AXIS2_PLACEMENT_3D('',#531,#532,#533);
#531 = CARTESIAN_POINT('',(31.,23.,50.2));
#532 = DIRECTION('',(0.,0.,1.));
#533 = DIRECTION('',(1.,0.,0.));
#534 = ADVANCED_FACE('',(#535),#554,.F.);
#535 = FACE_BOUND('',#536,.F.);
#536 = EDGE_LOOP('',(#537,#538,#547));
#537 = ORIENTED_EDGE('',*,*,#452,.T.);
#538 = ORIENTED_EDGE('',*,*,#539,.F.);
#539 = EDGE_CURVE('',#540,#444,#542,.T.);
#540 = VERTEX_POINT('',#541);
#541 = CARTESIAN_POINT('',(36.499343831738,17.416119859782,50.2));
#542 = CIRCLE('',#543,0.65);
#543 = AXIS2_PLACEMENT_3D('',#544,#545,#546);
#544 = CARTESIAN_POINT('',(36.,17.,50.2));
#545 = DIRECTION('',(-0.640184399664,0.768221279597,0.));
#546 = DIRECTION('',(0.768221279597,0.640184399664,0.));
#547 = ORIENTED_EDGE('',*,*,#548,.F.);
#548 = EDGE_CURVE('',#436,#540,#549,.T.);
#549 = CIRCLE('',#550,0.65);
#550 = AXIS2_PLACEMENT_3D('',#551,#552,#553);
#551 = CARTESIAN_POINT('',(36.,17.,50.2));
#552 = DIRECTION('',(-0.640184399664,0.768221279597,0.));
#553 = DIRECTION('',(0.768221279597,0.640184399664,0.));
#554 = SPHERICAL_SURFACE('',#555,0.65);
#555 = AXIS2_PLACEMENT_3D('',#556,#557,#558);
#556 = CARTESIAN_POINT('',(36.,17.,50.2));
#557 = DIRECTION('',(0.,0.,1.));
#558 = DIRECTION('',(1.,0.,0.));
#559 = ADVANCED_FACE('',(#560),#599,.F.);
#560 = FACE_BOUND('',#561,.F.);
#561 = EDGE_LOOP('',(#562,#563,#564,#572,#581,#590,#597,#598));
#562 = ORIENTED_EDGE('',*,*,#443,.T.);
#563 = ORIENTED_EDGE('',*,*,#548,.T.);
#564 = ORIENTED_EDGE('',*,*,#565,.T.);
#565 = EDGE_CURVE('',#540,#566,#568,.T.);
#566 = VERTEX_POINT('',#567);
#567 = CARTESIAN_POINT('',(31.65,23.235332457868,50.2));
#568 = LINE('',#569,#570);
#569 = CARTESIAN_POINT('',(36.499343831738,17.416119859782,50.2));
#570 = VECTOR('',#571,1.);
#571 = DIRECTION('',(-0.640184399664,0.768221279597,0.));
#572 = ORIENTED_EDGE('',*,*,#573,.F.);
#573 = EDGE_CURVE('',#574,#566,#576,.T.);
#574 = VERTEX_POINT('',#575);
#575 = CARTESIAN_POINT('',(31.,23.,50.85));
#576 = ELLIPSE('',#577,0.691289639533,0.65);
#577 = AXIS2_PLACEMENT_3D('',#578,#579,#580);
#578 = CARTESIAN_POINT('',(31.,23.,50.2));
#579 = DIRECTION('',(-0.340425263753,0.940271577683,0.));
#580 = DIRECTION('',(-0.940271577683,-0.340425263753,0.));
#581 = ORIENTED_EDGE('',*,*,#582,.F.);
#582 = EDGE_CURVE('',#583,#574,#585,.T.);
#583 = VERTEX_POINT('',#584);
#584 = CARTESIAN_POINT('',(31.,23.,49.55));
#585 = CIRCLE('',#586,0.65);
#586 = AXIS2_PLACEMENT_3D('',#587,#588,#589);
#587 = CARTESIAN_POINT('',(31.,23.,50.2));
#588 = DIRECTION('',(-0.640184399664,0.768221279597,0.));
#589 = DIRECTION('',(0.768221279597,0.640184399664,0.));
#590 = ORIENTED_EDGE('',*,*,#591,.F.);
#591 = EDGE_CURVE('',#566,#583,#592,.T.);
#592 = ELLIPSE('',#593,0.691289639533,0.65);
#593 = AXIS2_PLACEMENT_3D('',#594,#595,#596);
#594 = CARTESIAN_POINT('',(31.,23.,50.2));
#595 = DIRECTION('',(-0.340425263753,0.940271577683,0.));
#596 = DIRECTION('',(-0.940271577683,-0.340425263753,0.));
#597 = ORIENTED_EDGE('',*,*,#565,.F.);
#598 = ORIENTED_EDGE('',*,*,#539,.T.);
#599 = CYLINDRICAL_SURFACE('',#600,0.65);
#600 = AXIS2_PLACEMENT_3D('',#601,#602,#603);
#601 = CARTESIAN_POINT('',(36.,17.,50.2));
#602 = DIRECTION('',(-0.640184399664,0.768221279597,0.));
#603 = DIRECTION('',(0.768221279597,0.640184399664,0.));
#604 = ADVANCED_FACE('',(#605),#615,.T.);
#605 = FACE_BOUND('',#606,.T.);
#606 = EDGE_LOOP('',(#607,#608));
#607 = ORIENTED_EDGE('',*,*,#511,.T.);
#608 = ORIENTED_EDGE('',*,*,#609,.F.);
#609 = EDGE_CURVE('',#495,#503,#610,.T.);
#610 = CIRCLE('',#611,1.4);
#611 = AXIS2_PLACEMENT_3D('',#612,#613,#614);
#612 = CARTESIAN_POINT('',(31.,27.,50.2));
#613 = DIRECTION('',(-1.,0.,0.));
#614 = DIRECTION('',(0.,0.,-1.));
#615 = SPHERICAL_SURFACE('',#616,1.4);
#616 = AXIS2_PLACEMENT_3D('',#617,#618,#619);
#617 = CARTESIAN_POINT('',(31.,27.,50.2));
#618 = DIRECTION('',(0.,0.,1.));
#619 = DIRECTION('',(1.,0.,0.));
#620 = ADVANCED_FACE('',(#621),#668,.T.);
#621 = FACE_BOUND('',#622,.T.);
#622 = EDGE_LOOP('',(#623,#624,#625,#633,#642,#651,#660,#667));
#623 = ORIENTED_EDGE('',*,*,#502,.T.);
#624 = ORIENTED_EDGE('',*,*,#609,.T.);
#625 = ORIENTED_EDGE('',*,*,#626,.T.);
#626 = EDGE_CURVE('',#503,#627,#629,.T.);
#627 = VERTEX_POINT('',#628);
#628 = CARTESIAN_POINT('',(-31.6,27.,48.8));
#629 = LINE('',#630,#631);
#630 = CARTESIAN_POINT('',(31.,27.,48.8));
#631 = VECTOR('',#632,1.);
#632 = DIRECTION('',(-1.,0.,0.));
#633 = ORIENTED_EDGE('',*,*,#634,.F.);
#634 = EDGE_CURVE('',#635,#627,#637,.T.);
#635 = VERTEX_POINT('',#636);
#636 = CARTESIAN_POINT('',(-33.,28.4,50.2));
#637 = ELLIPSE('',#638,1.979898987322,1.4);
#638 = AXIS2_PLACEMENT_3D('',#639,#640,#641);
#639 = CARTESIAN_POINT('',(-33.,27.,50.2));
#640 = DIRECTION('',(-0.707106781187,0.,-0.707106781187));
#641 = DIRECTION('',(-0.707106781187,0.,0.707106781187));
#642 = ORIENTED_EDGE('',*,*,#643,.F.);
#643 = EDGE_CURVE('',#644,#635,#646,.T.);
#644 = VERTEX_POINT('',#645);
#645 = CARTESIAN_POINT('',(-33.,27.,51.6));
#646 = CIRCLE('',#647,1.4);
#647 = AXIS2_PLACEMENT_3D('',#648,#649,#650);
#648 = CARTESIAN_POINT('',(-33.,27.,50.2));
#649 = DIRECTION('',(-1.,0.,0.));
#650 = DIRECTION('',(0.,0.,-1.));
#651 = ORIENTED_EDGE('',*,*,#652,.F.);
#652 = EDGE_CURVE('',#653,#644,#655,.T.);
#653 = VERTEX_POINT('',#654);
#654 = CARTESIAN_POINT('',(-33.,25.6,50.2));
#655 = CIRCLE('',#656,1.4);
#656 = AXIS2_PLACEMENT_3D('',#657,#658,#659);
#657 = CARTESIAN_POINT('',(-33.,27.,50.2));
#658 = DIRECTION('',(-1.,0.,0.));
#659 = DIRECTION('',(0.,0.,-1.));
#660 = ORIENTED_EDGE('',*,*,#661,.F.);
#661 = EDGE_CURVE('',#627,#653,#662,.T.);
#662 = ELLIPSE('',#663,1.979898987322,1.4);
#663 = AXIS2_PLACEMENT_3D('',#664,#665,#666);
#664 = CARTESIAN_POINT('',(-33.,27.,50.2));
#665 = DIRECTION('',(-0.707106781187,0.,-0.707106781187));
#666 = DIRECTION('',(-0.707106781187,0.,0.707106781187));
#667 = ORIENTED_EDGE('',*,*,#626,.F.);
#668 = CYLINDRICAL_SURFACE('',#669,1.4);
#669 = AXIS2_PLACEMENT_3D('',#670,#671,#672);
#670 = CARTESIAN_POINT('',(31.,27.,50.2));
#671 = DIRECTION('',(-1.,0.,0.));
#672 = DIRECTION('',(0.,0.,-1.));
#673 = ADVANCED_FACE('',(#674),#710,.F.);
#674 = FACE_BOUND('',#675,.F.);
#675 = EDGE_LOOP('',(#676,#677,#684,#692,#701,#708,#709));
#676 = ORIENTED_EDGE('',*,*,#591,.T.);
#677 = ORIENTED_EDGE('',*,*,#678,.T.);
#678 = EDGE_CURVE('',#583,#574,#679,.T.);
#679 = CIRCLE('',#680,0.65);
#680 = AXIS2_PLACEMENT_3D('',#681,#682,#683);
#681 = CARTESIAN_POINT('',(31.,23.,50.2));
#682 = DIRECTION('',(0.,1.,0.));
#683 = DIRECTION('',(0.,0.,1.));
#684 = ORIENTED_EDGE('',*,*,#685,.T.);
#685 = EDGE_CURVE('',#574,#686,#688,.T.);
#686 = VERTEX_POINT('',#687);
#687 = CARTESIAN_POINT('',(31.,27.,50.85));
#688 = LINE('',#689,#690);
#689 = CARTESIAN_POINT('',(31.,23.,50.85));
#690 = VECTOR('',#691,1.);
#691 = DIRECTION('',(0.,1.,0.));
#692 = ORIENTED_EDGE('',*,*,#693,.F.);
#693 = EDGE_CURVE('',#694,#686,#696,.T.);
#694 = VERTEX_POINT('',#695);
#695 = CARTESIAN_POINT('',(31.,27.,49.55));
#696 = ELLIPSE('',#697,0.919238815543,0.65);
#697 = AXIS2_PLACEMENT_3D('',#698,#699,#700);
#698 = CARTESIAN_POINT('',(31.,27.,50.2));
#699 = DIRECTION('',(-0.707106781187,0.707106781187,0.));
#700 = DIRECTION('',(0.707106781187,0.707106781187,0.));
#701 = ORIENTED_EDGE('',*,*,#702,.F.);
#702 = EDGE_CURVE('',#686,#694,#703,.T.);
#703 = CIRCLE('',#704,0.65);
#704 = AXIS2_PLACEMENT_3D('',#705,#706,#707);
#705 = CARTESIAN_POINT('',(31.,27.,50.2));
#706 = DIRECTION('',(0.,1.,0.));
#707 = DIRECTION('',(0.,0.,1.));
#708 = ORIENTED_EDGE('',*,*,#685,.F.);
#709 = ORIENTED_EDGE('',*,*,#573,.T.);
#710 = CYLINDRICAL_SURFACE('',#711,0.65);
#711 = AXIS2_PLACEMENT_3D('',#712,#713,#714);
#712 = CARTESIAN_POINT('',(31.,23.,50.2));
#713 = DIRECTION('',(0.,1.,0.));
#714 = DIRECTION('',(0.,0.,1.));
#715 = ADVANCED_FACE('',(#716),#720,.F.);
#716 = FACE_BOUND('',#717,.F.);
#717 = EDGE_LOOP('',(#718,#719));
#718 = ORIENTED_EDGE('',*,*,#582,.T.);
#719 = ORIENTED_EDGE('',*,*,#678,.F.);
#720 = SPHERICAL_SURFACE('',#721,0.65);
#721 = AXIS2_PLACEMENT_3D('',#722,#723,#724);
#722 = CARTESIAN_POINT('',(31.,23.,50.2));
#723 = DIRECTION('',(0.,0.,1.));
#724 = DIRECTION('',(1.,0.,0.));
#725 = ADVANCED_FACE('',(#726),#817,.T.);
#726 = FACE_BOUND('',#727,.T.);
#727 = EDGE_LOOP('',(#728,#729,#730,#739,#747,#756,#765,#774,#788,#802,
    #809,#810));
#728 = ORIENTED_EDGE('',*,*,#634,.T.);
#729 = ORIENTED_EDGE('',*,*,#661,.T.);
#730 = ORIENTED_EDGE('',*,*,#731,.T.);
#731 = EDGE_CURVE('',#653,#732,#734,.T.);
#732 = VERTEX_POINT('',#733);
#733 = CARTESIAN_POINT('',(-34.4,27.,50.2));
#734 = CIRCLE('',#735,1.4);
#735 = AXIS2_PLACEMENT_3D('',#736,#737,#738);
#736 = CARTESIAN_POINT('',(-33.,27.,50.2));
#737 = DIRECTION('',(0.,0.,-1.));
#738 = DIRECTION('',(-1.,0.,0.));
#739 = ORIENTED_EDGE('',*,*,#740,.T.);
#740 = EDGE_CURVE('',#732,#741,#743,.T.);
#741 = VERTEX_POINT('',#742);
#742 = CARTESIAN_POINT('',(-34.4,27.,29.5));
#743 = LINE('',#744,#745);
#744 = CARTESIAN_POINT('',(-34.4,27.,50.2));
#745 = VECTOR('',#746,1.);
#746 = DIRECTION('',(0.,0.,-1.));
#747 = ORIENTED_EDGE('',*,*,#748,.F.);
#748 = EDGE_CURVE('',#749,#741,#751,.T.);
#749 = VERTEX_POINT('',#750);
#750 = CARTESIAN_POINT('',(-33.,25.6,29.5));
#751 = CIRCLE('',#752,1.4);
#752 = AXIS2_PLACEMENT_3D('',#753,#754,#755);
#753 = CARTESIAN_POINT('',(-33.,27.,29.5));
#754 = DIRECTION('',(0.,0.,-1.));
#755 = DIRECTION('',(-1.,0.,0.));
#756 = ORIENTED_EDGE('',*,*,#757,.F.);
#757 = EDGE_CURVE('',#758,#749,#760,.T.);
#758 = VERTEX_POINT('',#759);
#759 = CARTESIAN_POINT('',(-31.6,27.,30.9));
#760 = ELLIPSE('',#761,1.979898987322,1.4);
#761 = AXIS2_PLACEMENT_3D('',#762,#763,#764);
#762 = CARTESIAN_POINT('',(-33.,27.,29.5));
#763 = DIRECTION('',(0.707106781187,0.,-0.707106781187));
#764 = DIRECTION('',(-0.707106781187,0.,-0.707106781187));
#765 = ORIENTED_EDGE('',*,*,#766,.F.);
#766 = EDGE_CURVE('',#767,#758,#769,.T.);
#767 = VERTEX_POINT('',#768);
#768 = CARTESIAN_POINT('',(-32.77019029611,28.381009594463,
    29.729809703886));
#769 = ELLIPSE('',#770,1.979898987322,1.4);
#770 = AXIS2_PLACEMENT_3D('',#771,#772,#773);
#771 = CARTESIAN_POINT('',(-33.,27.,29.5));
#772 = DIRECTION('',(0.707106781187,0.,-0.707106781187));
#773 = DIRECTION('',(-0.707106781187,0.,-0.707106781187));
#774 = ORIENTED_EDGE('',*,*,#775,.F.);
#775 = EDGE_CURVE('',#776,#767,#778,.T.);
#776 = VERTEX_POINT('',#777);
#777 = CARTESIAN_POINT('',(-33.,28.4,29.825));
#778 = B_SPLINE_CURVE_WITH_KNOTS('',8,(#779,#780,#781,#782,#783,#784,
    #785,#786,#787),.UNSPECIFIED.,.F.,.F.,(9,9),(0.,1.),
  .PIECEWISE_BEZIER_KNOTS.);
#779 = CARTESIAN_POINT('',(-33.,28.4,29.825));
#780 = CARTESIAN_POINT('',(-32.93487353427,28.4,29.825));
#781 = CARTESIAN_POINT('',(-32.87054485027,28.396537368229,
    29.810084195024));
#782 = CARTESIAN_POINT('',(-32.81061919607,28.389762034261,
    29.78089826506));
#783 = CARTESIAN_POINT('',(-32.75848025866,28.380841082861,
    29.738837410294));
#784 = CARTESIAN_POINT('',(-32.71719851369,28.371822841571,
    29.686293797613));
#785 = CARTESIAN_POINT('',(-32.68895262306,28.365084812456,
    29.626418769652));
#786 = CARTESIAN_POINT('',(-32.67499989097,28.36175435712,
    29.562990801833));
#787 = CARTESIAN_POINT('',(-32.675,28.36175438314,29.4999994375));
#788 = ORIENTED_EDGE('',*,*,#789,.F.);
#789 = EDGE_CURVE('',#790,#776,#792,.T.);
#790 = VERTEX_POINT('',#791);
#791 = CARTESIAN_POINT('',(-33.325,28.36175438314,29.5));
#792 = B_SPLINE_CURVE_WITH_KNOTS('',8,(#793,#794,#795,#796,#797,#798,
    #799,#800,#801),.UNSPECIFIED.,.F.,.F.,(9,9),(0.,1.),
  .PIECEWISE_BEZIER_KNOTS.);
#793 = CARTESIAN_POINT('',(-33.32499999999,28.36175438314,29.4999994));
#794 = CARTESIAN_POINT('',(-33.32500011625,28.361754355393,
    29.562973343779));
#795 = CARTESIAN_POINT('',(-33.31105513726,28.365083004653,
    29.626400886942));
#796 = CARTESIAN_POINT('',(-33.28281159,28.371820354719,29.68628507291)
  );
#797 = CARTESIAN_POINT('',(-33.2415247264,28.380840827016,
    29.738840567058));
#798 = CARTESIAN_POINT('',(-33.18937424133,28.389764547726,
    29.78090973256));
#799 = CARTESIAN_POINT('',(-33.12943284986,28.396540171479,
    29.810096122847));
#800 = CARTESIAN_POINT('',(-33.06510058836,28.4,29.825));
#801 = CARTESIAN_POINT('',(-33.,28.4,29.825));
#802 = ORIENTED_EDGE('',*,*,#803,.F.);
#803 = EDGE_CURVE('',#741,#790,#804,.T.);
#804 = CIRCLE('',#805,1.4);
#805 = AXIS2_PLACEMENT_3D('',#806,#807,#808);
#806 = CARTESIAN_POINT('',(-33.,27.,29.5));
#807 = DIRECTION('',(0.,0.,-1.));
#808 = DIRECTION('',(-1.,0.,0.));
#809 = ORIENTED_EDGE('',*,*,#740,.F.);
#810 = ORIENTED_EDGE('',*,*,#811,.T.);
#811 = EDGE_CURVE('',#732,#635,#812,.T.);
#812 = CIRCLE('',#813,1.4);
#813 = AXIS2_PLACEMENT_3D('',#814,#815,#816);
#814 = CARTESIAN_POINT('',(-33.,27.,50.2));
#815 = DIRECTION('',(0.,0.,-1.));
#816 = DIRECTION('',(-1.,0.,0.));
#817 = CYLINDRICAL_SURFACE('',#818,1.4);
#818 = AXIS2_PLACEMENT_3D('',#819,#820,#821);
#819 = CARTESIAN_POINT('',(-33.,27.,50.2));
#820 = DIRECTION('',(0.,0.,-1.));
#821 = DIRECTION('',(-1.,0.,0.));
#822 = ADVANCED_FACE('',(#823),#829,.T.);
#823 = FACE_BOUND('',#824,.T.);
#824 = EDGE_LOOP('',(#825,#826,#827,#828));
#825 = ORIENTED_EDGE('',*,*,#731,.F.);
#826 = ORIENTED_EDGE('',*,*,#652,.T.);
#827 = ORIENTED_EDGE('',*,*,#643,.T.);
#828 = ORIENTED_EDGE('',*,*,#811,.F.);
#829 = SPHERICAL_SURFACE('',#830,1.4);
#830 = AXIS2_PLACEMENT_3D('',#831,#832,#833);
#831 = CARTESIAN_POINT('',(-33.,27.,50.2));
#832 = DIRECTION('',(0.,0.,1.));
#833 = DIRECTION('',(1.,0.,0.));
#834 = ADVANCED_FACE('',(#835),#845,.F.);
#835 = FACE_BOUND('',#836,.F.);
#836 = EDGE_LOOP('',(#837,#838));
#837 = ORIENTED_EDGE('',*,*,#702,.T.);
#838 = ORIENTED_EDGE('',*,*,#839,.F.);
#839 = EDGE_CURVE('',#686,#694,#840,.T.);
#840 = CIRCLE('',#841,0.65);
#841 = AXIS2_PLACEMENT_3D('',#842,#843,#844);
#842 = CARTESIAN_POINT('',(31.,27.,50.2));
#843 = DIRECTION('',(-1.,0.,0.));
#844 = DIRECTION('',(0.,0.,-1.));
#845 = SPHERICAL_SURFACE('',#846,0.65);
#846 = AXIS2_PLACEMENT_3D('',#847,#848,#849);
#847 = CARTESIAN_POINT('',(31.,27.,50.2));
#848 = DIRECTION('',(0.,0.,1.));
#849 = DIRECTION('',(1.,0.,0.));
#850 = ADVANCED_FACE('',(#851),#898,.F.);
#851 = FACE_BOUND('',#852,.F.);
#852 = EDGE_LOOP('',(#853,#854,#855,#863,#872,#881,#890,#897));
#853 = ORIENTED_EDGE('',*,*,#693,.T.);
#854 = ORIENTED_EDGE('',*,*,#839,.T.);
#855 = ORIENTED_EDGE('',*,*,#856,.T.);
#856 = EDGE_CURVE('',#694,#857,#859,.T.);
#857 = VERTEX_POINT('',#858);
#858 = CARTESIAN_POINT('',(-32.35,27.,49.55));
#859 = LINE('',#860,#861);
#860 = CARTESIAN_POINT('',(31.,27.,49.55));
#861 = VECTOR('',#862,1.);
#862 = DIRECTION('',(-1.,0.,0.));
#863 = ORIENTED_EDGE('',*,*,#864,.F.);
#864 = EDGE_CURVE('',#865,#857,#867,.T.);
#865 = VERTEX_POINT('',#866);
#866 = CARTESIAN_POINT('',(-33.,27.65,50.2));
#867 = ELLIPSE('',#868,0.919238815543,0.65);
#868 = AXIS2_PLACEMENT_3D('',#869,#870,#871);
#869 = CARTESIAN_POINT('',(-33.,27.,50.2));
#870 = DIRECTION('',(-0.707106781187,0.,-0.707106781187));
#871 = DIRECTION('',(-0.707106781187,0.,0.707106781187));
#872 = ORIENTED_EDGE('',*,*,#873,.F.);
#873 = EDGE_CURVE('',#874,#865,#876,.T.);
#874 = VERTEX_POINT('',#875);
#875 = CARTESIAN_POINT('',(-33.,27.,50.85));
#876 = CIRCLE('',#877,0.65);
#877 = AXIS2_PLACEMENT_3D('',#878,#879,#880);
#878 = CARTESIAN_POINT('',(-33.,27.,50.2));
#879 = DIRECTION('',(-1.,0.,0.));
#880 = DIRECTION('',(0.,0.,-1.));
#881 = ORIENTED_EDGE('',*,*,#882,.F.);
#882 = EDGE_CURVE('',#883,#874,#885,.T.);
#883 = VERTEX_POINT('',#884);
#884 = CARTESIAN_POINT('',(-33.,26.35,50.2));
#885 = CIRCLE('',#886,0.65);
#886 = AXIS2_PLACEMENT_3D('',#887,#888,#889);
#887 = CARTESIAN_POINT('',(-33.,27.,50.2));
#888 = DIRECTION('',(-1.,0.,0.));
#889 = DIRECTION('',(0.,0.,-1.));
#890 = ORIENTED_EDGE('',*,*,#891,.F.);
#891 = EDGE_CURVE('',#857,#883,#892,.T.);
#892 = ELLIPSE('',#893,0.919238815543,0.65);
#893 = AXIS2_PLACEMENT_3D('',#894,#895,#896);
#894 = CARTESIAN_POINT('',(-33.,27.,50.2));
#895 = DIRECTION('',(-0.707106781187,0.,-0.707106781187));
#896 = DIRECTION('',(-0.707106781187,0.,0.707106781187));
#897 = ORIENTED_EDGE('',*,*,#856,.F.);
#898 = CYLINDRICAL_SURFACE('',#899,0.65);
#899 = AXIS2_PLACEMENT_3D('',#900,#901,#902);
#900 = CARTESIAN_POINT('',(31.,27.,50.2));
#901 = DIRECTION('',(-1.,0.,0.));
#902 = DIRECTION('',(0.,0.,-1.));
#903 = ADVANCED_FACE('',(#904),#933,.T.);
#904 = FACE_BOUND('',#905,.T.);
#905 = EDGE_LOOP('',(#906,#915,#916,#917,#926));
#906 = ORIENTED_EDGE('',*,*,#907,.F.);
#907 = EDGE_CURVE('',#749,#908,#910,.T.);
#908 = VERTEX_POINT('',#909);
#909 = CARTESIAN_POINT('',(-33.,27.,28.1));
#910 = CIRCLE('',#911,1.4);
#911 = AXIS2_PLACEMENT_3D('',#912,#913,#914);
#912 = CARTESIAN_POINT('',(-33.,27.,29.5));
#913 = DIRECTION('',(1.,0.,-0.));
#914 = DIRECTION('',(0.,0.,1.));
#915 = ORIENTED_EDGE('',*,*,#748,.T.);
#916 = ORIENTED_EDGE('',*,*,#803,.T.);
#917 = ORIENTED_EDGE('',*,*,#918,.F.);
#918 = EDGE_CURVE('',#919,#790,#921,.T.);
#919 = VERTEX_POINT('',#920);
#920 = CARTESIAN_POINT('',(-33.,28.36175438314,29.175));
#921 = CIRCLE('',#922,0.325);
#922 = AXIS2_PLACEMENT_3D('',#923,#924,#925);
#923 = CARTESIAN_POINT('',(-33.,28.36175438314,29.5));
#924 = DIRECTION('',(0.,1.,0.));
#925 = DIRECTION('',(0.,0.,1.));
#926 = ORIENTED_EDGE('',*,*,#927,.F.);
#927 = EDGE_CURVE('',#908,#919,#928,.T.);
#928 = CIRCLE('',#929,1.4);
#929 = AXIS2_PLACEMENT_3D('',#930,#931,#932);
#930 = CARTESIAN_POINT('',(-33.,27.,29.5));
#931 = DIRECTION('',(1.,0.,-0.));
#932 = DIRECTION('',(0.,0.,1.));
#933 = SPHERICAL_SURFACE('',#934,1.4);
#934 = AXIS2_PLACEMENT_3D('',#935,#936,#937);
#935 = CARTESIAN_POINT('',(-33.,27.,29.5));
#936 = DIRECTION('',(0.,0.,1.));
#937 = DIRECTION('',(1.,0.,0.));
#938 = ADVANCED_FACE('',(#939),#1070,.F.);
#939 = FACE_BOUND('',#940,.F.);
#940 = EDGE_LOOP('',(#941,#965,#971,#972,#973,#992,#993,#994,#1021,#1063
    ));
#941 = ORIENTED_EDGE('',*,*,#942,.T.);
#942 = EDGE_CURVE('',#943,#945,#947,.T.);
#943 = VERTEX_POINT('',#944);
#944 = CARTESIAN_POINT('',(-33.325,27.56291651246,29.5));
#945 = VERTEX_POINT('',#946);
#946 = CARTESIAN_POINT('',(-33.,27.65,29.825));
#947 = B_SPLINE_CURVE_WITH_KNOTS('',6,(#948,#949,#950,#951,#952,#953,
    #954,#955,#956,#957,#958,#959,#960,#961,#962,#963,#964),
  .UNSPECIFIED.,.F.,.F.,(7,5,5,7),(0.,0.281466335815,0.672523958168,1.),
  .UNSPECIFIED.);
#948 = CARTESIAN_POINT('',(-33.32499999999,27.562916512461,29.4999991));
#949 = CARTESIAN_POINT('',(-33.32500006888,27.56291647269,
    29.524874100967));
#950 = CARTESIAN_POINT('',(-33.32271542327,27.564235473911,
    29.549690702114));
#951 = CARTESIAN_POINT('',(-33.31816647549,27.566861993535,
    29.574180310296));
#952 = CARTESIAN_POINT('',(-33.31141611919,27.570666170166,
    29.598073385535));
#953 = CARTESIAN_POINT('',(-33.30258203452,27.575401829337,
    29.621079069765));
#954 = CARTESIAN_POINT('',(-33.27703881652,27.588239597816,
    29.673249435426));
#955 = CARTESIAN_POINT('',(-33.25856713426,27.596952355323,
    29.701396942631));
#956 = CARTESIAN_POINT('',(-33.23687053684,27.606226193599,
    29.726950231178));
#957 = CARTESIAN_POINT('',(-33.21236742822,27.615324383996,
    29.749528876555));
#958 = CARTESIAN_POINT('',(-33.1855514688,27.623651193052,
    29.768820054073));
#959 = CARTESIAN_POINT('',(-33.13295397101,27.636736559798,
    29.797821395654));
#960 = CARTESIAN_POINT('',(-33.10768967651,27.641861264068,
    29.808592253435));
#961 = CARTESIAN_POINT('',(-33.08143805701,27.645884305488,
    29.816769060747));
#962 = CARTESIAN_POINT('',(-33.05452137252,27.648627578825,
    29.822254795177));
#963 = CARTESIAN_POINT('',(-33.0272677277,27.65,29.825));
#964 = CARTESIAN_POINT('',(-33.,27.65,29.825));
#965 = ORIENTED_EDGE('',*,*,#966,.T.);
#966 = EDGE_CURVE('',#945,#776,#967,.T.);
#967 = LINE('',#968,#969);
#968 = CARTESIAN_POINT('',(-33.,27.,29.825));
#969 = VECTOR('',#970,1.);
#970 = DIRECTION('',(0.,1.,0.));
#971 = ORIENTED_EDGE('',*,*,#789,.F.);
#972 = ORIENTED_EDGE('',*,*,#918,.F.);
#973 = ORIENTED_EDGE('',*,*,#974,.F.);
#974 = EDGE_CURVE('',#767,#919,#975,.T.);
#975 = B_SPLINE_CURVE_WITH_KNOTS('',8,(#976,#977,#978,#979,#980,#981,
    #982,#983,#984,#985,#986,#987,#988,#989,#990,#991),.UNSPECIFIED.,.F.
  ,.F.,(9,7,9),(0.,0.499999712354,1.),.UNSPECIFIED.);
#976 = CARTESIAN_POINT('',(-33.,28.36175438314,29.825));
#977 = CARTESIAN_POINT('',(-32.93702577087,28.36175438314,29.825));
#978 = CARTESIAN_POINT('',(-32.87359904682,28.365083089186,
    29.811054776458));
#979 = CARTESIAN_POINT('',(-32.81371674494,28.371820329097,
    29.782811697567));
#980 = CARTESIAN_POINT('',(-32.76116295256,28.380840277381,
    29.741526832705));
#981 = CARTESIAN_POINT('',(-32.71909416253,28.389763675813,
    29.689378626649));
#982 = CARTESIAN_POINT('',(-32.68990700852,28.39653943663,
    29.629439840855));
#983 = CARTESIAN_POINT('',(-32.675,28.4,29.565107344126));
#984 = CARTESIAN_POINT('',(-32.675,28.4,29.434892580963));
#985 = CARTESIAN_POINT('',(-32.68990704283,28.396539428663,
    29.370560013639));
#986 = CARTESIAN_POINT('',(-32.71909426122,28.389763652914,
    29.310621172491));
#987 = CARTESIAN_POINT('',(-32.76116314016,28.380840237678,
    29.258472935902));
#988 = CARTESIAN_POINT('',(-32.81371703608,28.371820279287,
    29.217188074131));
#989 = CARTESIAN_POINT('',(-32.87359944426,28.365083044387,
    29.188945035801));
#990 = CARTESIAN_POINT('',(-32.9370262633,28.361754357127,
    29.174999891007));
#991 = CARTESIAN_POINT('',(-33.0000005625,28.36175438314,29.175));
#992 = ORIENTED_EDGE('',*,*,#775,.F.);
#993 = ORIENTED_EDGE('',*,*,#966,.F.);
#994 = ORIENTED_EDGE('',*,*,#995,.T.);
#995 = EDGE_CURVE('',#945,#996,#998,.T.);
#996 = VERTEX_POINT('',#997);
#997 = CARTESIAN_POINT('',(-32.77019029611,27.608019325351,
    29.729809703886));
#998 = B_SPLINE_CURVE_WITH_KNOTS('',6,(#999,#1000,#1001,#1002,#1003,
    #1004,#1005,#1006,#1007,#1008,#1009,#1010,#1011,#1012,#1013,#1014,
    #1015,#1016,#1017,#1018,#1019,#1020),.UNSPECIFIED.,.F.,.F.,(7,5,5,5,
    7),(0.,0.32986498603,0.720092949051,0.937233008643,1.),
  .UNSPECIFIED.);
#999 = CARTESIAN_POINT('',(-33.,27.65,29.825));
#1000 = CARTESIAN_POINT('',(-32.97252867815,27.65,29.825));
#1001 = CARTESIAN_POINT('',(-32.94507200897,27.64860701739,
    29.822213652507));
#1002 = CARTESIAN_POINT('',(-32.91795990741,27.645822694242,
    29.816645859248));
#1003 = CARTESIAN_POINT('',(-32.891527705,27.641740860132,
    29.808347519905));
#1004 = CARTESIAN_POINT('',(-32.86610469356,27.636544917778,
    29.79741844811));
#1005 = CARTESIAN_POINT('',(-32.81349014301,27.623360318851,
    29.768148527518));
#1006 = CARTESIAN_POINT('',(-32.78679179227,27.615025563717,
    29.748798207758));
#1007 = CARTESIAN_POINT('',(-32.7624082771,27.605935180765,
    29.726179397505));
#1008 = CARTESIAN_POINT('',(-32.74083028154,27.596684215114,
    29.70060501466));
#1009 = CARTESIAN_POINT('',(-32.72247289165,27.588006162518,
    29.672454619183));
#1010 = CARTESIAN_POINT('',(-32.69952187199,27.576452324226,
    29.625259372494));
#1011 = CARTESIAN_POINT('',(-32.69243296268,27.572709045711,
    29.607710069299));
#1012 = CARTESIAN_POINT('',(-32.6865535712,27.569484404301,
    29.589604713062));
#1013 = CARTESIAN_POINT('',(-32.6819463106,27.566891480009,
    29.571067460113));
#1014 = CARTESIAN_POINT('',(-32.67865185249,27.565013665932,
    29.552219847496));
#1015 = CARTESIAN_POINT('',(-32.67613267823,27.563569323072,
    29.527669210859));
#1016 = CARTESIAN_POINT('',(-32.67567998218,27.563308870067,
    29.522149604157));
#1017 = CARTESIAN_POINT('',(-32.67534007497,27.563112855328,
    29.516619207853));
#1018 = CARTESIAN_POINT('',(-32.67511334403,27.562981953156,
    29.511081585428));
#1019 = CARTESIAN_POINT('',(-32.67499998465,27.562916503601,
    29.505540337136));
#1020 = CARTESIAN_POINT('',(-32.675,27.562916512461,29.4999991));
#1021 = ORIENTED_EDGE('',*,*,#1022,.T.);
#1022 = EDGE_CURVE('',#996,#1023,#1025,.T.);
#1023 = VERTEX_POINT('',#1024);
#1024 = CARTESIAN_POINT('',(-33.,27.56291651246,29.175));
#1025 = B_SPLINE_CURVE_WITH_KNOTS('',6,(#1026,#1027,#1028,#1029,#1030,
    #1031,#1032,#1033,#1034,#1035,#1036,#1037,#1038,#1039,#1040,#1041,
    #1042,#1043,#1044,#1045,#1046,#1047,#1048,#1049,#1050,#1051,#1052,
    #1053,#1054,#1055,#1056,#1057,#1058,#1059,#1060,#1061,#1062),
  .UNSPECIFIED.,.F.,.F.,(7,5,5,5,5,5,5,7),(0.,0.140724623564,
    0.334570770867,0.499960149717,0.66490879412,0.8600327091,
    0.968613417531,1.),.UNSPECIFIED.);
#1026 = CARTESIAN_POINT('',(-33.,27.56291651246,29.825));
#1027 = CARTESIAN_POINT('',(-32.97512514955,27.56291651246,29.825));
#1028 = CARTESIAN_POINT('',(-32.95030870583,27.564235537395,
    29.822715313315));
#1029 = CARTESIAN_POINT('',(-32.92581925667,27.566862062524,
    29.818166353092));
#1030 = CARTESIAN_POINT('',(-32.90192633693,27.570666227326,
    29.811416012543));
#1031 = CARTESIAN_POINT('',(-32.8789207989,27.575401861654,
    29.802581970228));
#1032 = CARTESIAN_POINT('',(-32.82700998132,27.588175762109,
    29.777165829986));
#1033 = CARTESIAN_POINT('',(-32.79908248461,27.596803945016,
    29.758881749529));
#1034 = CARTESIAN_POINT('',(-32.77370090101,27.605990137395,
    29.737422765302));
#1035 = CARTESIAN_POINT('',(-32.7512378635,27.615015874259,
    29.713197018083));
#1036 = CARTESIAN_POINT('',(-32.7320006019,27.62329747118,
    29.686686611198));
#1037 = CARTESIAN_POINT('',(-32.70272802895,27.636475299414,
    29.634235372257));
#1038 = CARTESIAN_POINT('',(-32.69174138733,27.641697141856,
    29.6087552038));
#1039 = CARTESIAN_POINT('',(-32.68339871772,27.645800397267,
    29.58225736787));
#1040 = CARTESIAN_POINT('',(-32.67780112087,27.64859961928,
    29.555074136341));
#1041 = CARTESIAN_POINT('',(-32.675,27.65,29.52754400764));
#1042 = CARTESIAN_POINT('',(-32.675,27.65,29.472529392436));
#1043 = CARTESIAN_POINT('',(-32.67778621202,27.648607070205,
    29.445072473206));
#1044 = CARTESIAN_POINT('',(-32.68335407101,27.64582272636,
    29.417959695934));
#1045 = CARTESIAN_POINT('',(-32.69165269079,27.641740774369,
    29.391526942133));
#1046 = CARTESIAN_POINT('',(-32.70258197242,27.636544728348,
    29.366103937621));
#1047 = CARTESIAN_POINT('',(-32.73185022932,27.623360878828,
    29.31349237766));
#1048 = CARTESIAN_POINT('',(-32.75120010035,27.615026256204,
    29.286793526624));
#1049 = CARTESIAN_POINT('',(-32.77381985585,27.605935389201,
    29.262408460048));
#1050 = CARTESIAN_POINT('',(-32.79939571761,27.596683857958,
    29.240829478402));
#1051 = CARTESIAN_POINT('',(-32.82754681935,27.58800581035,
    29.222472192089));
#1052 = CARTESIAN_POINT('',(-32.8747406275,27.576452324226,
    29.199521871991));
#1053 = CARTESIAN_POINT('',(-32.8922899307,27.572709045711,
    29.192432962687));
#1054 = CARTESIAN_POINT('',(-32.91039528693,27.569484404301,
    29.1865535712));
#1055 = CARTESIAN_POINT('',(-32.92893253988,27.566891480009,
    29.181946310606));
#1056 = CARTESIAN_POINT('',(-32.9477801525,27.565013665932,
    29.17865185249));
#1057 = CARTESIAN_POINT('',(-32.97233078914,27.563569323072,
    29.17613267823));
#1058 = CARTESIAN_POINT('',(-32.97785039584,27.563308870067,
    29.175679982181));
#1059 = CARTESIAN_POINT('',(-32.98338079214,27.563112855328,
    29.175340074977));
#1060 = CARTESIAN_POINT('',(-32.98891841457,27.562981953156,
    29.175113344037));
#1061 = CARTESIAN_POINT('',(-32.99445966286,27.562916503601,
    29.174999984656));
#1062 = CARTESIAN_POINT('',(-33.0000009,27.562916512461,29.175000000001)
  );
#1063 = ORIENTED_EDGE('',*,*,#1064,.T.);
#1064 = EDGE_CURVE('',#1023,#943,#1065,.T.);
#1065 = CIRCLE('',#1066,0.325);
#1066 = AXIS2_PLACEMENT_3D('',#1067,#1068,#1069);
#1067 = CARTESIAN_POINT('',(-33.,27.56291651246,29.5));
#1068 = DIRECTION('',(0.,1.,0.));
#1069 = DIRECTION('',(0.,0.,1.));
#1070 = CYLINDRICAL_SURFACE('',#1071,0.325);
#1071 = AXIS2_PLACEMENT_3D('',#1072,#1073,#1074);
#1072 = CARTESIAN_POINT('',(-33.,27.,29.5));
#1073 = DIRECTION('',(0.,1.,0.));
#1074 = DIRECTION('',(0.,0.,1.));
#1075 = ADVANCED_FACE('',(#1076),#1108,.T.);
#1076 = FACE_BOUND('',#1077,.T.);
#1077 = EDGE_LOOP('',(#1078,#1079,#1080,#1081,#1082,#1090,#1099,#1106,
    #1107));
#1078 = ORIENTED_EDGE('',*,*,#907,.T.);
#1079 = ORIENTED_EDGE('',*,*,#927,.T.);
#1080 = ORIENTED_EDGE('',*,*,#974,.F.);
#1081 = ORIENTED_EDGE('',*,*,#766,.T.);
#1082 = ORIENTED_EDGE('',*,*,#1083,.T.);
#1083 = EDGE_CURVE('',#758,#1084,#1086,.T.);
#1084 = VERTEX_POINT('',#1085);
#1085 = CARTESIAN_POINT('',(-23.,27.,30.9));
#1086 = LINE('',#1087,#1088);
#1087 = CARTESIAN_POINT('',(-33.,27.,30.9));
#1088 = VECTOR('',#1089,1.);
#1089 = DIRECTION('',(1.,0.,0.));
#1090 = ORIENTED_EDGE('',*,*,#1091,.F.);
#1091 = EDGE_CURVE('',#1092,#1084,#1094,.T.);
#1092 = VERTEX_POINT('',#1093);
#1093 = CARTESIAN_POINT('',(-23.,27.,28.1));
#1094 = CIRCLE('',#1095,1.4);
#1095 = AXIS2_PLACEMENT_3D('',#1096,#1097,#1098);
#1096 = CARTESIAN_POINT('',(-23.,27.,29.5));
#1097 = DIRECTION('',(1.,0.,-0.));
#1098 = DIRECTION('',(0.,0.,1.));
#1099 = ORIENTED_EDGE('',*,*,#1100,.F.);
#1100 = EDGE_CURVE('',#1084,#1092,#1101,.T.);
#1101 = ELLIPSE('',#1102,1.979898987322,1.4);
#1102 = AXIS2_PLACEMENT_3D('',#1103,#1104,#1105);
#1103 = CARTESIAN_POINT('',(-23.,27.,29.5));
#1104 = DIRECTION('',(0.707106781187,-0.707106781187,0.));
#1105 = DIRECTION('',(0.707106781187,0.707106781187,0.));
#1106 = ORIENTED_EDGE('',*,*,#1083,.F.);
#1107 = ORIENTED_EDGE('',*,*,#757,.T.);
#1108 = CYLINDRICAL_SURFACE('',#1109,1.4);
#1109 = AXIS2_PLACEMENT_3D('',#1110,#1111,#1112);
#1110 = CARTESIAN_POINT('',(-33.,27.,29.5));
#1111 = DIRECTION('',(1.,0.,0.));
#1112 = DIRECTION('',(0.,0.,1.));
#1113 = ADVANCED_FACE('',(#1114),#1177,.F.);
#1114 = FACE_BOUND('',#1115,.F.);
#1115 = EDGE_LOOP('',(#1116,#1117,#1118,#1127,#1135,#1144,#1153,#1160,
    #1161,#1162,#1169,#1170));
#1116 = ORIENTED_EDGE('',*,*,#864,.T.);
#1117 = ORIENTED_EDGE('',*,*,#891,.T.);
#1118 = ORIENTED_EDGE('',*,*,#1119,.T.);
#1119 = EDGE_CURVE('',#883,#1120,#1122,.T.);
#1120 = VERTEX_POINT('',#1121);
#1121 = CARTESIAN_POINT('',(-33.65,27.,50.2));
#1122 = CIRCLE('',#1123,0.65);
#1123 = AXIS2_PLACEMENT_3D('',#1124,#1125,#1126);
#1124 = CARTESIAN_POINT('',(-33.,27.,50.2));
#1125 = DIRECTION('',(0.,0.,-1.));
#1126 = DIRECTION('',(-1.,0.,0.));
#1127 = ORIENTED_EDGE('',*,*,#1128,.T.);
#1128 = EDGE_CURVE('',#1120,#1129,#1131,.T.);
#1129 = VERTEX_POINT('',#1130);
#1130 = CARTESIAN_POINT('',(-33.65,27.,29.5));
#1131 = LINE('',#1132,#1133);
#1132 = CARTESIAN_POINT('',(-33.65,27.,50.2));
#1133 = VECTOR('',#1134,1.);
#1134 = DIRECTION('',(0.,0.,-1.));
#1135 = ORIENTED_EDGE('',*,*,#1136,.F.);
#1136 = EDGE_CURVE('',#1137,#1129,#1139,.T.);
#1137 = VERTEX_POINT('',#1138);
#1138 = CARTESIAN_POINT('',(-33.,26.35,29.5));
#1139 = CIRCLE('',#1140,0.65);
#1140 = AXIS2_PLACEMENT_3D('',#1141,#1142,#1143);
#1141 = CARTESIAN_POINT('',(-33.,27.,29.5));
#1142 = DIRECTION('',(0.,0.,-1.));
#1143 = DIRECTION('',(-1.,0.,0.));
#1144 = ORIENTED_EDGE('',*,*,#1145,.F.);
#1145 = EDGE_CURVE('',#1146,#1137,#1148,.T.);
#1146 = VERTEX_POINT('',#1147);
#1147 = CARTESIAN_POINT('',(-32.35,27.,30.15));
#1148 = ELLIPSE('',#1149,0.919238815543,0.65);
#1149 = AXIS2_PLACEMENT_3D('',#1150,#1151,#1152);
#1150 = CARTESIAN_POINT('',(-33.,27.,29.5));
#1151 = DIRECTION('',(0.707106781187,0.,-0.707106781187));
#1152 = DIRECTION('',(-0.707106781187,0.,-0.707106781187));
#1153 = ORIENTED_EDGE('',*,*,#1154,.F.);
#1154 = EDGE_CURVE('',#996,#1146,#1155,.T.);
#1155 = ELLIPSE('',#1156,0.919238815543,0.65);
#1156 = AXIS2_PLACEMENT_3D('',#1157,#1158,#1159);
#1157 = CARTESIAN_POINT('',(-33.,27.,29.5));
#1158 = DIRECTION('',(0.707106781187,0.,-0.707106781187));
#1159 = DIRECTION('',(-0.707106781187,0.,-0.707106781187));
#1160 = ORIENTED_EDGE('',*,*,#995,.F.);
#1161 = ORIENTED_EDGE('',*,*,#942,.F.);
#1162 = ORIENTED_EDGE('',*,*,#1163,.F.);
#1163 = EDGE_CURVE('',#1129,#943,#1164,.T.);
#1164 = CIRCLE('',#1165,0.65);
#1165 = AXIS2_PLACEMENT_3D('',#1166,#1167,#1168);
#1166 = CARTESIAN_POINT('',(-33.,27.,29.5));
#1167 = DIRECTION('',(0.,0.,-1.));
#1168 = DIRECTION('',(-1.,0.,0.));
#1169 = ORIENTED_EDGE('',*,*,#1128,.F.);
#1170 = ORIENTED_EDGE('',*,*,#1171,.T.);
#1171 = EDGE_CURVE('',#1120,#865,#1172,.T.);
#1172 = CIRCLE('',#1173,0.65);
#1173 = AXIS2_PLACEMENT_3D('',#1174,#1175,#1176);
#1174 = CARTESIAN_POINT('',(-33.,27.,50.2));
#1175 = DIRECTION('',(0.,0.,-1.));
#1176 = DIRECTION('',(-1.,0.,0.));
#1177 = CYLINDRICAL_SURFACE('',#1178,0.65);
#1178 = AXIS2_PLACEMENT_3D('',#1179,#1180,#1181);
#1179 = CARTESIAN_POINT('',(-33.,27.,50.2));
#1180 = DIRECTION('',(0.,0.,-1.));
#1181 = DIRECTION('',(-1.,0.,0.));
#1182 = ADVANCED_FACE('',(#1183),#1189,.F.);
#1183 = FACE_BOUND('',#1184,.F.);
#1184 = EDGE_LOOP('',(#1185,#1186,#1187,#1188));
#1185 = ORIENTED_EDGE('',*,*,#1119,.F.);
#1186 = ORIENTED_EDGE('',*,*,#882,.T.);
#1187 = ORIENTED_EDGE('',*,*,#873,.T.);
#1188 = ORIENTED_EDGE('',*,*,#1171,.F.);
#1189 = SPHERICAL_SURFACE('',#1190,0.65);
#1190 = AXIS2_PLACEMENT_3D('',#1191,#1192,#1193);
#1191 = CARTESIAN_POINT('',(-33.,27.,50.2));
#1192 = DIRECTION('',(0.,0.,1.));
#1193 = DIRECTION('',(1.,0.,0.));
#1194 = ADVANCED_FACE('',(#1195),#1216,.F.);
#1195 = FACE_BOUND('',#1196,.F.);
#1196 = EDGE_LOOP('',(#1197,#1206,#1207,#1208,#1209));
#1197 = ORIENTED_EDGE('',*,*,#1198,.F.);
#1198 = EDGE_CURVE('',#1137,#1199,#1201,.T.);
#1199 = VERTEX_POINT('',#1200);
#1200 = CARTESIAN_POINT('',(-33.,27.,28.85));
#1201 = CIRCLE('',#1202,0.65);
#1202 = AXIS2_PLACEMENT_3D('',#1203,#1204,#1205);
#1203 = CARTESIAN_POINT('',(-33.,27.,29.5));
#1204 = DIRECTION('',(1.,0.,-0.));
#1205 = DIRECTION('',(0.,0.,1.));
#1206 = ORIENTED_EDGE('',*,*,#1136,.T.);
#1207 = ORIENTED_EDGE('',*,*,#1163,.T.);
#1208 = ORIENTED_EDGE('',*,*,#1064,.F.);
#1209 = ORIENTED_EDGE('',*,*,#1210,.F.);
#1210 = EDGE_CURVE('',#1199,#1023,#1211,.T.);
#1211 = CIRCLE('',#1212,0.65);
#1212 = AXIS2_PLACEMENT_3D('',#1213,#1214,#1215);
#1213 = CARTESIAN_POINT('',(-33.,27.,29.5));
#1214 = DIRECTION('',(1.,0.,-0.));
#1215 = DIRECTION('',(0.,0.,1.));
#1216 = SPHERICAL_SURFACE('',#1217,0.65);
#1217 = AXIS2_PLACEMENT_3D('',#1218,#1219,#1220);
#1218 = CARTESIAN_POINT('',(-33.,27.,29.5));
#1219 = DIRECTION('',(0.,0.,1.));
#1220 = DIRECTION('',(1.,0.,0.));
#1221 = ADVANCED_FACE('',(#1222),#1254,.F.);
#1222 = FACE_BOUND('',#1223,.F.);
#1223 = EDGE_LOOP('',(#1224,#1225,#1226,#1227,#1228,#1236,#1245,#1252,
    #1253));
#1224 = ORIENTED_EDGE('',*,*,#1198,.T.);
#1225 = ORIENTED_EDGE('',*,*,#1210,.T.);
#1226 = ORIENTED_EDGE('',*,*,#1022,.F.);
#1227 = ORIENTED_EDGE('',*,*,#1154,.T.);
#1228 = ORIENTED_EDGE('',*,*,#1229,.T.);
#1229 = EDGE_CURVE('',#1146,#1230,#1232,.T.);
#1230 = VERTEX_POINT('',#1231);
#1231 = CARTESIAN_POINT('',(-23.,27.,30.15));
#1232 = LINE('',#1233,#1234);
#1233 = CARTESIAN_POINT('',(-33.,27.,30.15));
#1234 = VECTOR('',#1235,1.);
#1235 = DIRECTION('',(1.,0.,0.));
#1236 = ORIENTED_EDGE('',*,*,#1237,.F.);
#1237 = EDGE_CURVE('',#1238,#1230,#1240,.T.);
#1238 = VERTEX_POINT('',#1239);
#1239 = CARTESIAN_POINT('',(-23.,27.,28.85));
#1240 = CIRCLE('',#1241,0.65);
#1241 = AXIS2_PLACEMENT_3D('',#1242,#1243,#1244);
#1242 = CARTESIAN_POINT('',(-23.,27.,29.5));
#1243 = DIRECTION('',(1.,0.,-0.));
#1244 = DIRECTION('',(0.,0.,1.));
#1245 = ORIENTED_EDGE('',*,*,#1246,.F.);
#1246 = EDGE_CURVE('',#1230,#1238,#1247,.T.);
#1247 = ELLIPSE('',#1248,0.919238815543,0.65);
#1248 = AXIS2_PLACEMENT_3D('',#1249,#1250,#1251);
#1249 = CARTESIAN_POINT('',(-23.,27.,29.5));
#1250 = DIRECTION('',(0.707106781187,-0.707106781187,0.));
#1251 = DIRECTION('',(0.707106781187,0.707106781187,0.));
#1252 = ORIENTED_EDGE('',*,*,#1229,.F.);
#1253 = ORIENTED_EDGE('',*,*,#1145,.T.);
#1254 = CYLINDRICAL_SURFACE('',#1255,0.65);
#1255 = AXIS2_PLACEMENT_3D('',#1256,#1257,#1258);
#1256 = CARTESIAN_POINT('',(-33.,27.,29.5));
#1257 = DIRECTION('',(1.,0.,0.));
#1258 = DIRECTION('',(0.,0.,1.));
#1259 = ADVANCED_FACE('',(#1260),#1295,.T.);
#1260 = FACE_BOUND('',#1261,.T.);
#1261 = EDGE_LOOP('',(#1262,#1269,#1270,#1278,#1287,#1294));
#1262 = ORIENTED_EDGE('',*,*,#1263,.T.);
#1263 = EDGE_CURVE('',#1092,#1084,#1264,.T.);
#1264 = CIRCLE('',#1265,1.4);
#1265 = AXIS2_PLACEMENT_3D('',#1266,#1267,#1268);
#1266 = CARTESIAN_POINT('',(-23.,27.,29.5));
#1267 = DIRECTION('',(-2.449293598295E-16,-1.,0.));
#1268 = DIRECTION('',(1.,-2.449293598295E-16,0.));
#1269 = ORIENTED_EDGE('',*,*,#1100,.T.);
#1270 = ORIENTED_EDGE('',*,*,#1271,.T.);
#1271 = EDGE_CURVE('',#1092,#1272,#1274,.T.);
#1272 = VERTEX_POINT('',#1273);
#1273 = CARTESIAN_POINT('',(-23.,-6.,28.1));
#1274 = LINE('',#1275,#1276);
#1275 = CARTESIAN_POINT('',(-23.,27.,28.1));
#1276 = VECTOR('',#1277,1.);
#1277 = DIRECTION('',(0.,-1.,0.));
#1278 = ORIENTED_EDGE('',*,*,#1279,.F.);
#1279 = EDGE_CURVE('',#1280,#1272,#1282,.T.);
#1280 = VERTEX_POINT('',#1281);
#1281 = CARTESIAN_POINT('',(-23.,-6.,30.9));
#1282 = ELLIPSE('',#1283,1.979898987322,1.4);
#1283 = AXIS2_PLACEMENT_3D('',#1284,#1285,#1286);
#1284 = CARTESIAN_POINT('',(-23.,-6.,29.5));
#1285 = DIRECTION('',(-0.707106781187,-0.707106781187,0.));
#1286 = DIRECTION('',(0.707106781187,-0.707106781187,0.));
#1287 = ORIENTED_EDGE('',*,*,#1288,.F.);
#1288 = EDGE_CURVE('',#1272,#1280,#1289,.T.);
#1289 = CIRCLE('',#1290,1.4);
#1290 = AXIS2_PLACEMENT_3D('',#1291,#1292,#1293);
#1291 = CARTESIAN_POINT('',(-23.,-6.,29.5));
#1292 = DIRECTION('',(0.,-1.,0.));
#1293 = DIRECTION('',(0.,0.,-1.));
#1294 = ORIENTED_EDGE('',*,*,#1271,.F.);
#1295 = CYLINDRICAL_SURFACE('',#1296,1.4);
#1296 = AXIS2_PLACEMENT_3D('',#1297,#1298,#1299);
#1297 = CARTESIAN_POINT('',(-23.,27.,29.5));
#1298 = DIRECTION('',(0.,-1.,0.));
#1299 = DIRECTION('',(0.,0.,-1.));
#1300 = ADVANCED_FACE('',(#1301),#1305,.T.);
#1301 = FACE_BOUND('',#1302,.T.);
#1302 = EDGE_LOOP('',(#1303,#1304));
#1303 = ORIENTED_EDGE('',*,*,#1091,.T.);
#1304 = ORIENTED_EDGE('',*,*,#1263,.F.);
#1305 = SPHERICAL_SURFACE('',#1306,1.4);
#1306 = AXIS2_PLACEMENT_3D('',#1307,#1308,#1309);
#1307 = CARTESIAN_POINT('',(-23.,27.,29.5));
#1308 = DIRECTION('',(0.,0.,1.));
#1309 = DIRECTION('',(1.,0.,0.));
#1310 = ADVANCED_FACE('',(#1311),#1346,.F.);
#1311 = FACE_BOUND('',#1312,.F.);
#1312 = EDGE_LOOP('',(#1313,#1320,#1321,#1329,#1338,#1345));
#1313 = ORIENTED_EDGE('',*,*,#1314,.T.);
#1314 = EDGE_CURVE('',#1238,#1230,#1315,.T.);
#1315 = CIRCLE('',#1316,0.65);
#1316 = AXIS2_PLACEMENT_3D('',#1317,#1318,#1319);
#1317 = CARTESIAN_POINT('',(-23.,27.,29.5));
#1318 = DIRECTION('',(-2.449293598295E-16,-1.,0.));
#1319 = DIRECTION('',(1.,-2.449293598295E-16,0.));
#1320 = ORIENTED_EDGE('',*,*,#1246,.T.);
#1321 = ORIENTED_EDGE('',*,*,#1322,.T.);
#1322 = EDGE_CURVE('',#1238,#1323,#1325,.T.);
#1323 = VERTEX_POINT('',#1324);
#1324 = CARTESIAN_POINT('',(-23.,-6.,28.85));
#1325 = LINE('',#1326,#1327);
#1326 = CARTESIAN_POINT('',(-23.,27.,28.85));
#1327 = VECTOR('',#1328,1.);
#1328 = DIRECTION('',(0.,-1.,0.));
#1329 = ORIENTED_EDGE('',*,*,#1330,.F.);
#1330 = EDGE_CURVE('',#1331,#1323,#1333,.T.);
#1331 = VERTEX_POINT('',#1332);
#1332 = CARTESIAN_POINT('',(-23.,-6.,30.15));
#1333 = ELLIPSE('',#1334,0.919238815543,0.65);
#1334 = AXIS2_PLACEMENT_3D('',#1335,#1336,#1337);
#1335 = CARTESIAN_POINT('',(-23.,-6.,29.5));
#1336 = DIRECTION('',(-0.707106781187,-0.707106781187,0.));
#1337 = DIRECTION('',(0.707106781187,-0.707106781187,0.));
#1338 = ORIENTED_EDGE('',*,*,#1339,.F.);
#1339 = EDGE_CURVE('',#1323,#1331,#1340,.T.);
#1340 = CIRCLE('',#1341,0.65);
#1341 = AXIS2_PLACEMENT_3D('',#1342,#1343,#1344);
#1342 = CARTESIAN_POINT('',(-23.,-6.,29.5));
#1343 = DIRECTION('',(0.,-1.,0.));
#1344 = DIRECTION('',(0.,0.,-1.));
#1345 = ORIENTED_EDGE('',*,*,#1322,.F.);
#1346 = CYLINDRICAL_SURFACE('',#1347,0.65);
#1347 = AXIS2_PLACEMENT_3D('',#1348,#1349,#1350);
#1348 = CARTESIAN_POINT('',(-23.,27.,29.5));
#1349 = DIRECTION('',(0.,-1.,0.));
#1350 = DIRECTION('',(0.,0.,-1.));
#1351 = ADVANCED_FACE('',(#1352),#1356,.F.);
#1352 = FACE_BOUND('',#1353,.F.);
#1353 = EDGE_LOOP('',(#1354,#1355));
#1354 = ORIENTED_EDGE('',*,*,#1237,.T.);
#1355 = ORIENTED_EDGE('',*,*,#1314,.F.);
#1356 = SPHERICAL_SURFACE('',#1357,0.65);
#1357 = AXIS2_PLACEMENT_3D('',#1358,#1359,#1360);
#1358 = CARTESIAN_POINT('',(-23.,27.,29.5));
#1359 = DIRECTION('',(0.,0.,1.));
#1360 = DIRECTION('',(1.,0.,0.));
#1361 = ADVANCED_FACE('',(#1362),#1372,.T.);
#1362 = FACE_BOUND('',#1363,.T.);
#1363 = EDGE_LOOP('',(#1364,#1365));
#1364 = ORIENTED_EDGE('',*,*,#1288,.T.);
#1365 = ORIENTED_EDGE('',*,*,#1366,.F.);
#1366 = EDGE_CURVE('',#1272,#1280,#1367,.T.);
#1367 = CIRCLE('',#1368,1.4);
#1368 = AXIS2_PLACEMENT_3D('',#1369,#1370,#1371);
#1369 = CARTESIAN_POINT('',(-23.,-6.,29.5));
#1370 = DIRECTION('',(-1.,0.,0.));
#1371 = DIRECTION('',(0.,0.,-1.));
#1372 = SPHERICAL_SURFACE('',#1373,1.4);
#1373 = AXIS2_PLACEMENT_3D('',#1374,#1375,#1376);
#1374 = CARTESIAN_POINT('',(-23.,-6.,29.5));
#1375 = DIRECTION('',(0.,0.,1.));
#1376 = DIRECTION('',(1.,0.,0.));
#1377 = ADVANCED_FACE('',(#1378),#1407,.T.);
#1378 = FACE_BOUND('',#1379,.T.);
#1379 = EDGE_LOOP('',(#1380,#1381,#1382,#1390,#1399,#1406));
#1380 = ORIENTED_EDGE('',*,*,#1366,.T.);
#1381 = ORIENTED_EDGE('',*,*,#1279,.T.);
#1382 = ORIENTED_EDGE('',*,*,#1383,.T.);
#1383 = EDGE_CURVE('',#1272,#1384,#1386,.T.);
#1384 = VERTEX_POINT('',#1385);
#1385 = CARTESIAN_POINT('',(-26.,-6.,28.1));
#1386 = LINE('',#1387,#1388);
#1387 = CARTESIAN_POINT('',(-23.,-6.,28.1));
#1388 = VECTOR('',#1389,1.);
#1389 = DIRECTION('',(-1.,0.,0.));
#1390 = ORIENTED_EDGE('',*,*,#1391,.F.);
#1391 = EDGE_CURVE('',#1392,#1384,#1394,.T.);
#1392 = VERTEX_POINT('',#1393);
#1393 = CARTESIAN_POINT('',(-26.,-6.,30.9));
#1394 = CIRCLE('',#1395,1.4);
#1395 = AXIS2_PLACEMENT_3D('',#1396,#1397,#1398);
#1396 = CARTESIAN_POINT('',(-26.,-6.,29.5));
#1397 = DIRECTION('',(-1.,0.,0.));
#1398 = DIRECTION('',(0.,0.,-1.));
#1399 = ORIENTED_EDGE('',*,*,#1400,.F.);
#1400 = EDGE_CURVE('',#1384,#1392,#1401,.T.);
#1401 = ELLIPSE('',#1402,1.979898987322,1.4);
#1402 = AXIS2_PLACEMENT_3D('',#1403,#1404,#1405);
#1403 = CARTESIAN_POINT('',(-26.,-6.,29.5));
#1404 = DIRECTION('',(-0.707106781187,-0.707106781187,-0.));
#1405 = DIRECTION('',(-0.707106781187,0.707106781187,0.));
#1406 = ORIENTED_EDGE('',*,*,#1383,.F.);
#1407 = CYLINDRICAL_SURFACE('',#1408,1.4);
#1408 = AXIS2_PLACEMENT_3D('',#1409,#1410,#1411);
#1409 = CARTESIAN_POINT('',(-23.,-6.,29.5));
#1410 = DIRECTION('',(-1.,0.,0.));
#1411 = DIRECTION('',(0.,0.,-1.));
#1412 = ADVANCED_FACE('',(#1413),#1423,.F.);
#1413 = FACE_BOUND('',#1414,.F.);
#1414 = EDGE_LOOP('',(#1415,#1416));
#1415 = ORIENTED_EDGE('',*,*,#1339,.T.);
#1416 = ORIENTED_EDGE('',*,*,#1417,.F.);
#1417 = EDGE_CURVE('',#1323,#1331,#1418,.T.);
#1418 = CIRCLE('',#1419,0.65);
#1419 = AXIS2_PLACEMENT_3D('',#1420,#1421,#1422);
#1420 = CARTESIAN_POINT('',(-23.,-6.,29.5));
#1421 = DIRECTION('',(-1.,0.,0.));
#1422 = DIRECTION('',(0.,0.,-1.));
#1423 = SPHERICAL_SURFACE('',#1424,0.65);
#1424 = AXIS2_PLACEMENT_3D('',#1425,#1426,#1427);
#1425 = CARTESIAN_POINT('',(-23.,-6.,29.5));
#1426 = DIRECTION('',(0.,0.,1.));
#1427 = DIRECTION('',(1.,0.,0.));
#1428 = ADVANCED_FACE('',(#1429),#1458,.F.);
#1429 = FACE_BOUND('',#1430,.F.);
#1430 = EDGE_LOOP('',(#1431,#1432,#1433,#1441,#1450,#1457));
#1431 = ORIENTED_EDGE('',*,*,#1417,.T.);
#1432 = ORIENTED_EDGE('',*,*,#1330,.T.);
#1433 = ORIENTED_EDGE('',*,*,#1434,.T.);
#1434 = EDGE_CURVE('',#1323,#1435,#1437,.T.);
#1435 = VERTEX_POINT('',#1436);
#1436 = CARTESIAN_POINT('',(-26.,-6.,28.85));
#1437 = LINE('',#1438,#1439);
#1438 = CARTESIAN_POINT('',(-23.,-6.,28.85));
#1439 = VECTOR('',#1440,1.);
#1440 = DIRECTION('',(-1.,0.,0.));
#1441 = ORIENTED_EDGE('',*,*,#1442,.F.);
#1442 = EDGE_CURVE('',#1443,#1435,#1445,.T.);
#1443 = VERTEX_POINT('',#1444);
#1444 = CARTESIAN_POINT('',(-26.,-6.,30.15));
#1445 = CIRCLE('',#1446,0.65);
#1446 = AXIS2_PLACEMENT_3D('',#1447,#1448,#1449);
#1447 = CARTESIAN_POINT('',(-26.,-6.,29.5));
#1448 = DIRECTION('',(-1.,0.,0.));
#1449 = DIRECTION('',(0.,0.,-1.));
#1450 = ORIENTED_EDGE('',*,*,#1451,.F.);
#1451 = EDGE_CURVE('',#1435,#1443,#1452,.T.);
#1452 = ELLIPSE('',#1453,0.919238815543,0.65);
#1453 = AXIS2_PLACEMENT_3D('',#1454,#1455,#1456);
#1454 = CARTESIAN_POINT('',(-26.,-6.,29.5));
#1455 = DIRECTION('',(-0.707106781187,-0.707106781187,-0.));
#1456 = DIRECTION('',(-0.707106781187,0.707106781187,0.));
#1457 = ORIENTED_EDGE('',*,*,#1434,.F.);
#1458 = CYLINDRICAL_SURFACE('',#1459,0.65);
#1459 = AXIS2_PLACEMENT_3D('',#1460,#1461,#1462);
#1460 = CARTESIAN_POINT('',(-23.,-6.,29.5));
#1461 = DIRECTION('',(-1.,0.,0.));
#1462 = DIRECTION('',(0.,0.,-1.));
#1463 = ADVANCED_FACE('',(#1464),#1517,.T.);
#1464 = FACE_BOUND('',#1465,.T.);
#1465 = EDGE_LOOP('',(#1466,#1467,#1474,#1482,#1491,#1500,#1509,#1516));
#1466 = ORIENTED_EDGE('',*,*,#1400,.T.);
#1467 = ORIENTED_EDGE('',*,*,#1468,.T.);
#1468 = EDGE_CURVE('',#1392,#1384,#1469,.T.);
#1469 = CIRCLE('',#1470,1.4);
#1470 = AXIS2_PLACEMENT_3D('',#1471,#1472,#1473);
#1471 = CARTESIAN_POINT('',(-26.,-6.,29.5));
#1472 = DIRECTION('',(0.,-1.,0.));
#1473 = DIRECTION('',(0.,0.,-1.));
#1474 = ORIENTED_EDGE('',*,*,#1475,.T.);
#1475 = EDGE_CURVE('',#1384,#1476,#1478,.T.);
#1476 = VERTEX_POINT('',#1477);
#1477 = CARTESIAN_POINT('',(-26.,-8.1,28.1));
#1478 = LINE('',#1479,#1480);
#1479 = CARTESIAN_POINT('',(-26.,-6.,28.1));
#1480 = VECTOR('',#1481,1.);
#1481 = DIRECTION('',(0.,-1.,0.));
#1482 = ORIENTED_EDGE('',*,*,#1483,.F.);
#1483 = EDGE_CURVE('',#1484,#1476,#1486,.T.);
#1484 = VERTEX_POINT('',#1485);
#1485 = CARTESIAN_POINT('',(-27.4,-9.5,29.5));
#1486 = ELLIPSE('',#1487,1.979898987322,1.4);
#1487 = AXIS2_PLACEMENT_3D('',#1488,#1489,#1490);
#1488 = CARTESIAN_POINT('',(-26.,-9.5,29.5));
#1489 = DIRECTION('',(-0.,-0.707106781187,-0.707106781187));
#1490 = DIRECTION('',(0.,-0.707106781187,0.707106781187));
#1491 = ORIENTED_EDGE('',*,*,#1492,.F.);
#1492 = EDGE_CURVE('',#1493,#1484,#1495,.T.);
#1493 = VERTEX_POINT('',#1494);
#1494 = CARTESIAN_POINT('',(-26.,-9.5,30.9));
#1495 = CIRCLE('',#1496,1.4);
#1496 = AXIS2_PLACEMENT_3D('',#1497,#1498,#1499);
#1497 = CARTESIAN_POINT('',(-26.,-9.5,29.5));
#1498 = DIRECTION('',(0.,-1.,0.));
#1499 = DIRECTION('',(0.,0.,-1.));
#1500 = ORIENTED_EDGE('',*,*,#1501,.F.);
#1501 = EDGE_CURVE('',#1502,#1493,#1504,.T.);
#1502 = VERTEX_POINT('',#1503);
#1503 = CARTESIAN_POINT('',(-24.6,-9.5,29.5));
#1504 = CIRCLE('',#1505,1.4);
#1505 = AXIS2_PLACEMENT_3D('',#1506,#1507,#1508);
#1506 = CARTESIAN_POINT('',(-26.,-9.5,29.5));
#1507 = DIRECTION('',(0.,-1.,0.));
#1508 = DIRECTION('',(0.,0.,-1.));
#1509 = ORIENTED_EDGE('',*,*,#1510,.F.);
#1510 = EDGE_CURVE('',#1476,#1502,#1511,.T.);
#1511 = ELLIPSE('',#1512,1.979898987322,1.4);
#1512 = AXIS2_PLACEMENT_3D('',#1513,#1514,#1515);
#1513 = CARTESIAN_POINT('',(-26.,-9.5,29.5));
#1514 = DIRECTION('',(-0.,-0.707106781187,-0.707106781187));
#1515 = DIRECTION('',(0.,-0.707106781187,0.707106781187));
#1516 = ORIENTED_EDGE('',*,*,#1475,.F.);
#1517 = CYLINDRICAL_SURFACE('',#1518,1.4);
#1518 = AXIS2_PLACEMENT_3D('',#1519,#1520,#1521);
#1519 = CARTESIAN_POINT('',(-26.,-6.,29.5));
#1520 = DIRECTION('',(0.,-1.,0.));
#1521 = DIRECTION('',(0.,0.,-1.));
#1522 = ADVANCED_FACE('',(#1523),#1527,.T.);
#1523 = FACE_BOUND('',#1524,.T.);
#1524 = EDGE_LOOP('',(#1525,#1526));
#1525 = ORIENTED_EDGE('',*,*,#1391,.T.);
#1526 = ORIENTED_EDGE('',*,*,#1468,.F.);
#1527 = SPHERICAL_SURFACE('',#1528,1.4);
#1528 = AXIS2_PLACEMENT_3D('',#1529,#1530,#1531);
#1529 = CARTESIAN_POINT('',(-26.,-6.,29.5));
#1530 = DIRECTION('',(0.,0.,1.));
#1531 = DIRECTION('',(1.,0.,0.));
#1532 = ADVANCED_FACE('',(#1533),#1586,.F.);
#1533 = FACE_BOUND('',#1534,.F.);
#1534 = EDGE_LOOP('',(#1535,#1536,#1543,#1551,#1560,#1569,#1578,#1585));
#1535 = ORIENTED_EDGE('',*,*,#1451,.T.);
#1536 = ORIENTED_EDGE('',*,*,#1537,.T.);
#1537 = EDGE_CURVE('',#1443,#1435,#1538,.T.);
#1538 = CIRCLE('',#1539,0.65);
#1539 = AXIS2_PLACEMENT_3D('',#1540,#1541,#1542);
#1540 = CARTESIAN_POINT('',(-26.,-6.,29.5));
#1541 = DIRECTION('',(0.,-1.,0.));
#1542 = DIRECTION('',(0.,0.,-1.));
#1543 = ORIENTED_EDGE('',*,*,#1544,.T.);
#1544 = EDGE_CURVE('',#1435,#1545,#1547,.T.);
#1545 = VERTEX_POINT('',#1546);
#1546 = CARTESIAN_POINT('',(-26.,-8.85,28.85));
#1547 = LINE('',#1548,#1549);
#1548 = CARTESIAN_POINT('',(-26.,-6.,28.85));
#1549 = VECTOR('',#1550,1.);
#1550 = DIRECTION('',(0.,-1.,0.));
#1551 = ORIENTED_EDGE('',*,*,#1552,.F.);
#1552 = EDGE_CURVE('',#1553,#1545,#1555,.T.);
#1553 = VERTEX_POINT('',#1554);
#1554 = CARTESIAN_POINT('',(-26.65,-9.5,29.5));
#1555 = ELLIPSE('',#1556,0.919238815543,0.65);
#1556 = AXIS2_PLACEMENT_3D('',#1557,#1558,#1559);
#1557 = CARTESIAN_POINT('',(-26.,-9.5,29.5));
#1558 = DIRECTION('',(-0.,-0.707106781187,-0.707106781187));
#1559 = DIRECTION('',(0.,-0.707106781187,0.707106781187));
#1560 = ORIENTED_EDGE('',*,*,#1561,.F.);
#1561 = EDGE_CURVE('',#1562,#1553,#1564,.T.);
#1562 = VERTEX_POINT('',#1563);
#1563 = CARTESIAN_POINT('',(-26.,-9.5,30.15));
#1564 = CIRCLE('',#1565,0.65);
#1565 = AXIS2_PLACEMENT_3D('',#1566,#1567,#1568);
#1566 = CARTESIAN_POINT('',(-26.,-9.5,29.5));
#1567 = DIRECTION('',(0.,-1.,0.));
#1568 = DIRECTION('',(0.,0.,-1.));
#1569 = ORIENTED_EDGE('',*,*,#1570,.F.);
#1570 = EDGE_CURVE('',#1571,#1562,#1573,.T.);
#1571 = VERTEX_POINT('',#1572);
#1572 = CARTESIAN_POINT('',(-25.35,-9.5,29.5));
#1573 = CIRCLE('',#1574,0.65);
#1574 = AXIS2_PLACEMENT_3D('',#1575,#1576,#1577);
#1575 = CARTESIAN_POINT('',(-26.,-9.5,29.5));
#1576 = DIRECTION('',(0.,-1.,0.));
#1577 = DIRECTION('',(0.,0.,-1.));
#1578 = ORIENTED_EDGE('',*,*,#1579,.F.);
#1579 = EDGE_CURVE('',#1545,#1571,#1580,.T.);
#1580 = ELLIPSE('',#1581,0.919238815543,0.65);
#1581 = AXIS2_PLACEMENT_3D('',#1582,#1583,#1584);
#1582 = CARTESIAN_POINT('',(-26.,-9.5,29.5));
#1583 = DIRECTION('',(-0.,-0.707106781187,-0.707106781187));
#1584 = DIRECTION('',(0.,-0.707106781187,0.707106781187));
#1585 = ORIENTED_EDGE('',*,*,#1544,.F.);
#1586 = CYLINDRICAL_SURFACE('',#1587,0.65);
#1587 = AXIS2_PLACEMENT_3D('',#1588,#1589,#1590);
#1588 = CARTESIAN_POINT('',(-26.,-6.,29.5));
#1589 = DIRECTION('',(0.,-1.,0.));
#1590 = DIRECTION('',(0.,0.,-1.));
#1591 = ADVANCED_FACE('',(#1592),#1596,.F.);
#1592 = FACE_BOUND('',#1593,.F.);
#1593 = EDGE_LOOP('',(#1594,#1595));
#1594 = ORIENTED_EDGE('',*,*,#1442,.T.);
#1595 = ORIENTED_EDGE('',*,*,#1537,.F.);
#1596 = SPHERICAL_SURFACE('',#1597,0.65);
#1597 = AXIS2_PLACEMENT_3D('',#1598,#1599,#1600);
#1598 = CARTESIAN_POINT('',(-26.,-6.,29.5));
#1599 = DIRECTION('',(0.,0.,1.));
#1600 = DIRECTION('',(1.,0.,0.));
#1601 = ADVANCED_FACE('',(#1602),#1638,.T.);
#1602 = FACE_BOUND('',#1603,.T.);
#1603 = EDGE_LOOP('',(#1604,#1605,#1612,#1620,#1629,#1636,#1637));
#1604 = ORIENTED_EDGE('',*,*,#1510,.T.);
#1605 = ORIENTED_EDGE('',*,*,#1606,.T.);
#1606 = EDGE_CURVE('',#1502,#1484,#1607,.T.);
#1607 = CIRCLE('',#1608,1.4);
#1608 = AXIS2_PLACEMENT_3D('',#1609,#1610,#1611);
#1609 = CARTESIAN_POINT('',(-26.,-9.5,29.5));
#1610 = DIRECTION('',(0.,0.,-1.));
#1611 = DIRECTION('',(-1.,0.,0.));
#1612 = ORIENTED_EDGE('',*,*,#1613,.T.);
#1613 = EDGE_CURVE('',#1484,#1614,#1616,.T.);
#1614 = VERTEX_POINT('',#1615);
#1615 = CARTESIAN_POINT('',(-27.4,-9.5,27.6));
#1616 = LINE('',#1617,#1618);
#1617 = CARTESIAN_POINT('',(-27.4,-9.5,29.5));
#1618 = VECTOR('',#1619,1.);
#1619 = DIRECTION('',(0.,0.,-1.));
#1620 = ORIENTED_EDGE('',*,*,#1621,.F.);
#1621 = EDGE_CURVE('',#1622,#1614,#1624,.T.);
#1622 = VERTEX_POINT('',#1623);
#1623 = CARTESIAN_POINT('',(-24.6,-9.5,27.6));
#1624 = CIRCLE('',#1625,1.4);
#1625 = AXIS2_PLACEMENT_3D('',#1626,#1627,#1628);
#1626 = CARTESIAN_POINT('',(-26.,-9.5,27.6));
#1627 = DIRECTION('',(0.,0.,-1.));
#1628 = DIRECTION('',(-1.,0.,0.));
#1629 = ORIENTED_EDGE('',*,*,#1630,.F.);
#1630 = EDGE_CURVE('',#1614,#1622,#1631,.T.);
#1631 = CIRCLE('',#1632,1.4);
#1632 = AXIS2_PLACEMENT_3D('',#1633,#1634,#1635);
#1633 = CARTESIAN_POINT('',(-26.,-9.5,27.6));
#1634 = DIRECTION('',(0.,0.,-1.));
#1635 = DIRECTION('',(-1.,0.,0.));
#1636 = ORIENTED_EDGE('',*,*,#1613,.F.);
#1637 = ORIENTED_EDGE('',*,*,#1483,.T.);
#1638 = CYLINDRICAL_SURFACE('',#1639,1.4);
#1639 = AXIS2_PLACEMENT_3D('',#1640,#1641,#1642);
#1640 = CARTESIAN_POINT('',(-26.,-9.5,29.5));
#1641 = DIRECTION('',(0.,0.,-1.));
#1642 = DIRECTION('',(-1.,0.,0.));
#1643 = ADVANCED_FACE('',(#1644),#1649,.T.);
#1644 = FACE_BOUND('',#1645,.T.);
#1645 = EDGE_LOOP('',(#1646,#1647,#1648));
#1646 = ORIENTED_EDGE('',*,*,#1606,.F.);
#1647 = ORIENTED_EDGE('',*,*,#1501,.T.);
#1648 = ORIENTED_EDGE('',*,*,#1492,.T.);
#1649 = SPHERICAL_SURFACE('',#1650,1.4);
#1650 = AXIS2_PLACEMENT_3D('',#1651,#1652,#1653);
#1651 = CARTESIAN_POINT('',(-26.,-9.5,29.5));
#1652 = DIRECTION('',(0.,0.,1.));
#1653 = DIRECTION('',(1.,0.,0.));
#1654 = ADVANCED_FACE('',(#1655),#1691,.F.);
#1655 = FACE_BOUND('',#1656,.F.);
#1656 = EDGE_LOOP('',(#1657,#1658,#1665,#1673,#1682,#1689,#1690));
#1657 = ORIENTED_EDGE('',*,*,#1579,.T.);
#1658 = ORIENTED_EDGE('',*,*,#1659,.T.);
#1659 = EDGE_CURVE('',#1571,#1553,#1660,.T.);
#1660 = CIRCLE('',#1661,0.65);
#1661 = AXIS2_PLACEMENT_3D('',#1662,#1663,#1664);
#1662 = CARTESIAN_POINT('',(-26.,-9.5,29.5));
#1663 = DIRECTION('',(0.,0.,-1.));
#1664 = DIRECTION('',(-1.,0.,0.));
#1665 = ORIENTED_EDGE('',*,*,#1666,.T.);
#1666 = EDGE_CURVE('',#1553,#1667,#1669,.T.);
#1667 = VERTEX_POINT('',#1668);
#1668 = CARTESIAN_POINT('',(-26.65,-9.5,27.6));
#1669 = LINE('',#1670,#1671);
#1670 = CARTESIAN_POINT('',(-26.65,-9.5,29.5));
#1671 = VECTOR('',#1672,1.);
#1672 = DIRECTION('',(0.,0.,-1.));
#1673 = ORIENTED_EDGE('',*,*,#1674,.F.);
#1674 = EDGE_CURVE('',#1675,#1667,#1677,.T.);
#1675 = VERTEX_POINT('',#1676);
#1676 = CARTESIAN_POINT('',(-25.35,-9.5,27.6));
#1677 = CIRCLE('',#1678,0.65);
#1678 = AXIS2_PLACEMENT_3D('',#1679,#1680,#1681);
#1679 = CARTESIAN_POINT('',(-26.,-9.5,27.6));
#1680 = DIRECTION('',(0.,0.,-1.));
#1681 = DIRECTION('',(-1.,0.,0.));
#1682 = ORIENTED_EDGE('',*,*,#1683,.F.);
#1683 = EDGE_CURVE('',#1667,#1675,#1684,.T.);
#1684 = CIRCLE('',#1685,0.65);
#1685 = AXIS2_PLACEMENT_3D('',#1686,#1687,#1688);
#1686 = CARTESIAN_POINT('',(-26.,-9.5,27.6));
#1687 = DIRECTION('',(0.,0.,-1.));
#1688 = DIRECTION('',(-1.,0.,0.));
#1689 = ORIENTED_EDGE('',*,*,#1666,.F.);
#1690 = ORIENTED_EDGE('',*,*,#1552,.T.);
#1691 = CYLINDRICAL_SURFACE('',#1692,0.65);
#1692 = AXIS2_PLACEMENT_3D('',#1693,#1694,#1695);
#1693 = CARTESIAN_POINT('',(-26.,-9.5,29.5));
#1694 = DIRECTION('',(0.,0.,-1.));
#1695 = DIRECTION('',(-1.,0.,0.));
#1696 = ADVANCED_FACE('',(#1697),#1702,.F.);
#1697 = FACE_BOUND('',#1698,.F.);
#1698 = EDGE_LOOP('',(#1699,#1700,#1701));
#1699 = ORIENTED_EDGE('',*,*,#1659,.F.);
#1700 = ORIENTED_EDGE('',*,*,#1570,.T.);
#1701 = ORIENTED_EDGE('',*,*,#1561,.T.);
#1702 = SPHERICAL_SURFACE('',#1703,0.65);
#1703 = AXIS2_PLACEMENT_3D('',#1704,#1705,#1706);
#1704 = CARTESIAN_POINT('',(-26.,-9.5,29.5));
#1705 = DIRECTION('',(0.,0.,1.));
#1706 = DIRECTION('',(1.,0.,0.));
#1707 = ADVANCED_FACE('',(#1708,#1712),#1716,.F.);
#1708 = FACE_BOUND('',#1709,.F.);
#1709 = EDGE_LOOP('',(#1710,#1711));
#1710 = ORIENTED_EDGE('',*,*,#1630,.F.);
#1711 = ORIENTED_EDGE('',*,*,#1621,.F.);
#1712 = FACE_BOUND('',#1713,.F.);
#1713 = EDGE_LOOP('',(#1714,#1715));
#1714 = ORIENTED_EDGE('',*,*,#1674,.T.);
#1715 = ORIENTED_EDGE('',*,*,#1683,.T.);
#1716 = PLANE('',#1717);
#1717 = AXIS2_PLACEMENT_3D('',#1718,#1719,#1720);
#1718 = CARTESIAN_POINT('',(-29.,-12.5,27.6));
#1719 = DIRECTION('',(0.,0.,1.));
#1720 = DIRECTION('',(1.,0.,0.));
#1721 = ( GEOMETRIC_REPRESENTATION_CONTEXT(3) 
GLOBAL_UNCERTAINTY_ASSIGNED_CONTEXT((#1725)) 
GLOBAL_UNIT_ASSIGNED_CONTEXT((#1722,#1723,#1724)) REPRESENTATION_CONTEXT
('Context #1','3D Context with UNIT and UNCERTAINTY') );
#1722 = ( LENGTH_UNIT() NAMED_UNIT(*) SI_UNIT(.MILLI.,.METRE.) );
#1723 = ( NAMED_UNIT(*) PLANE_ANGLE_UNIT() SI_UNIT($,.RADIAN.) );
#1724 = ( NAMED_UNIT(*) SI_UNIT($,.STERADIAN.) SOLID_ANGLE_UNIT() );
#1725 = UNCERTAINTY_MEASURE_WITH_UNIT(LENGTH_MEASURE(2.E-07),#1722,
  'distance_accuracy_value','confusion accuracy');
#1726 = PRODUCT_RELATED_PRODUCT_CATEGORY('part',$,(#7));
ENDSEC;
END-ISO-10303-21;
