ISO-10303-21;
HEADER;
FILE_DESCRIPTION(('FreeCAD Model'),'2;1');
FILE_NAME('Open CASCADE Shape Model','2026-09-30T01:44:48',('FreeCAD'),(
    'FreeCAD'),'Open CASCADE STEP processor 7.8','FreeCAD','Unknown');
FILE_SCHEMA(('AUTOMOTIVE_DESIGN { 1 0 10303 214 1 1 1 1 }'));
ENDSEC;
DATA;
#1 = APPLICATION_PROTOCOL_DEFINITION('international standard',
  'automotive_design',2000,#2);
#2 = APPLICATION_CONTEXT(
  'core data for automotive mechanical design processes');
#3 = SHAPE_DEFINITION_REPRESENTATION(#4,#10);
#4 = PRODUCT_DEFINITION_SHAPE('','',#5);
#5 = PRODUCT_DEFINITION('design','',#6,#9);
#6 = PRODUCT_DEFINITION_FORMATION('','',#7);
#7 = PRODUCT('Open CASCADE STEP translator 7.8 40',
  'Open CASCADE STEP translator 7.8 40','',(#8));
#8 = PRODUCT_CONTEXT('',#2,'mechanical');
#9 = PRODUCT_DEFINITION_CONTEXT('part definition',#2,'design');
#10 = ADVANCED_BREP_SHAPE_REPRESENTATION('',(#11,#15),#1303);
#11 = AXIS2_PLACEMENT_3D('',#12,#13,#14);
#12 = CARTESIAN_POINT('',(0.,0.,0.));
#13 = DIRECTION('',(0.,0.,1.));
#14 = DIRECTION('',(1.,0.,-0.));
#15 = MANIFOLD_SOLID_BREP('',#16);
#16 = CLOSED_SHELL('',(#17,#52,#109,#186,#255,#333,#344,#368,#378,#429,
    #440,#511,#527,#617,#633,#651,#662,#678,#800,#817,#862,#879,#896,
    #941,#992,#1003,#1054,#1065,#1081,#1125,#1141,#1185,#1202,#1237,
    #1254,#1289));
#17 = ADVANCED_FACE('',(#18),#47,.T.);
#18 = FACE_BOUND('',#19,.T.);
#19 = EDGE_LOOP('',(#20,#31,#40));
#20 = ORIENTED_EDGE('',*,*,#21,.F.);
#21 = EDGE_CURVE('',#22,#24,#26,.T.);
#22 = VERTEX_POINT('',#23);
#23 = CARTESIAN_POINT('',(14.923760430703,-7.,3.648017744129));
#24 = VERTEX_POINT('',#25);
#25 = CARTESIAN_POINT('',(15.4,-7.,4.7));
#26 = CIRCLE('',#27,1.4);
#27 = AXIS2_PLACEMENT_3D('',#28,#29,#30);
#28 = CARTESIAN_POINT('',(14.,-7.,4.7));
#29 = DIRECTION('',(-2.449293598295E-16,-1.,0.));
#30 = DIRECTION('',(1.,-2.449293598295E-16,0.));
#31 = ORIENTED_EDGE('',*,*,#32,.T.);
#32 = EDGE_CURVE('',#22,#33,#35,.T.);
#33 = VERTEX_POINT('',#34);
#34 = CARTESIAN_POINT('',(15.267276587681,-6.405012562893,4.7));
#35 = CIRCLE('',#36,1.148912529308);
#36 = AXIS2_PLACEMENT_3D('',#37,#38,#39);
#37 = CARTESIAN_POINT('',(14.692820323028,-7.4,4.7));
#38 = DIRECTION('',(0.866025403784,-0.5,0.));
#39 = DIRECTION('',(0.5,0.866025403784,0.));
#40 = ORIENTED_EDGE('',*,*,#41,.F.);
#41 = EDGE_CURVE('',#24,#33,#42,.T.);
#42 = CIRCLE('',#43,1.4);
#43 = AXIS2_PLACEMENT_3D('',#44,#45,#46);
#44 = CARTESIAN_POINT('',(14.,-7.,4.7));
#45 = DIRECTION('',(0.,0.,1.));
#46 = DIRECTION('',(1.,0.,0.));
#47 = SPHERICAL_SURFACE('',#48,1.4);
#48 = AXIS2_PLACEMENT_3D('',#49,#50,#51);
#49 = CARTESIAN_POINT('',(14.,-7.,4.7));
#50 = DIRECTION('',(0.,0.,1.));
#51 = DIRECTION('',(1.,0.,0.));
#52 = ADVANCED_FACE('',(#53),#104,.T.);
#53 = FACE_BOUND('',#54,.T.);
#54 = EDGE_LOOP('',(#55,#64,#65,#74));
#55 = ORIENTED_EDGE('',*,*,#56,.T.);
#56 = EDGE_CURVE('',#57,#22,#59,.T.);
#57 = VERTEX_POINT('',#58);
#58 = CARTESIAN_POINT('',(14.198654775515,-8.255919835642,4.11416585397)
  );
#59 = CIRCLE('',#60,1.148912529308);
#60 = AXIS2_PLACEMENT_3D('',#61,#62,#63);
#61 = CARTESIAN_POINT('',(14.692820323028,-7.4,4.7));
#62 = DIRECTION('',(0.866025403784,-0.5,0.));
#63 = DIRECTION('',(0.5,0.866025403784,0.));
#64 = ORIENTED_EDGE('',*,*,#21,.T.);
#65 = ORIENTED_EDGE('',*,*,#66,.F.);
#66 = EDGE_CURVE('',#67,#24,#69,.T.);
#67 = VERTEX_POINT('',#68);
#68 = CARTESIAN_POINT('',(15.148912529308,-7.8,4.7));
#69 = CIRCLE('',#70,1.4);
#70 = AXIS2_PLACEMENT_3D('',#71,#72,#73);
#71 = CARTESIAN_POINT('',(14.,-7.,4.7));
#72 = DIRECTION('',(0.,0.,1.));
#73 = DIRECTION('',(1.,0.,0.));
#74 = ORIENTED_EDGE('',*,*,#75,.F.);
#75 = EDGE_CURVE('',#57,#67,#76,.T.);
#76 = B_SPLINE_CURVE_WITH_KNOTS('',6,(#77,#78,#79,#80,#81,#82,#83,#84,
    #85,#86,#87,#88,#89,#90,#91,#92,#93,#94,#95,#96,#97,#98,#99,#100,
    #101,#102,#103),.UNSPECIFIED.,.F.,.F.,(7,5,5,5,5,7),(0.,
    0.274636647605,0.556976758495,0.739397664765,0.937457546122,1.),
  .UNSPECIFIED.);
#77 = CARTESIAN_POINT('',(14.,-8.264911064067,4.1));
#78 = CARTESIAN_POINT('',(14.066503162096,-8.264911064067,4.1));
#79 = CARTESIAN_POINT('',(14.133011616456,-8.262513496194,4.103790904424
    ));
#80 = CARTESIAN_POINT('',(14.199170879704,-8.25771776935,4.111373538702)
  );
#81 = CARTESIAN_POINT('',(14.26464266975,-8.250525113169,4.122692404455)
  );
#82 = CARTESIAN_POINT('',(14.32907926924,-8.240933870255,4.137641580967)
  );
#83 = CARTESIAN_POINT('',(14.456946425766,-8.216648037613,4.174949443704
    ));
#84 = CARTESIAN_POINT('',(14.520308049985,-8.201815914262,4.1975071962)
  );
#85 = CARTESIAN_POINT('',(14.581829295604,-8.184477464435,4.223513227536
    ));
#86 = CARTESIAN_POINT('',(14.641162931127,-8.164657197302,4.252697567247
    ));
#87 = CARTESIAN_POINT('',(14.69800306467,-8.142390865588,4.284719650072)
  );
#88 = CARTESIAN_POINT('',(14.787061918381,-8.101790804002,4.341444357057
    ));
#89 = CARTESIAN_POINT('',(14.820877260327,-8.084853122009,4.364728071265
    ));
#90 = CARTESIAN_POINT('',(14.853488336966,-8.066924996992,4.388924802801
    ));
#91 = CARTESIAN_POINT('',(14.884844134642,-8.048018541409,4.413920362696
    ));
#92 = CARTESIAN_POINT('',(14.914906409454,-8.028145439904,4.439594264277
    ));
#93 = CARTESIAN_POINT('',(14.97485754653,-7.984700704878,4.494297481417)
  );
#94 = CARTESIAN_POINT('',(15.004510065208,-7.960958456717,4.523425276456
    ));
#95 = CARTESIAN_POINT('',(15.032575983028,-7.936101507307,4.553045962991
    ));
#96 = CARTESIAN_POINT('',(15.059039742582,-7.910141380185,4.582992868251
    ));
#97 = CARTESIAN_POINT('',(15.083901449841,-7.883087268351,4.613093057396
    ));
#98 = CARTESIAN_POINT('',(15.114526368422,-7.846057705096,4.652665834243
    ));
#99 = CARTESIAN_POINT('',(15.121717855802,-7.837062405717,4.662160473519
    ));
#100 = CARTESIAN_POINT('',(15.128751558841,-7.827958803679,
    4.671646967497));
#101 = CARTESIAN_POINT('',(15.135628069093,-7.818747087164,
    4.681119598328));
#102 = CARTESIAN_POINT('',(15.142348108482,-7.809427431667,
    4.690572568333));
#103 = CARTESIAN_POINT('',(15.148912529308,-7.8,4.7));
#104 = SPHERICAL_SURFACE('',#105,1.4);
#105 = AXIS2_PLACEMENT_3D('',#106,#107,#108);
#106 = CARTESIAN_POINT('',(14.,-7.,4.7));
#107 = DIRECTION('',(0.,0.,1.));
#108 = DIRECTION('',(1.,0.,0.));
#109 = ADVANCED_FACE('',(#110),#181,.T.);
#110 = FACE_BOUND('',#111,.T.);
#111 = EDGE_LOOP('',(#112,#113,#114,#122,#131,#139,#148,#156,#165,#174)
  );
#112 = ORIENTED_EDGE('',*,*,#66,.T.);
#113 = ORIENTED_EDGE('',*,*,#41,.T.);
#114 = ORIENTED_EDGE('',*,*,#115,.T.);
#115 = EDGE_CURVE('',#33,#116,#118,.T.);
#116 = VERTEX_POINT('',#117);
#117 = CARTESIAN_POINT('',(15.267276587681,-6.405012562893,5.));
#118 = LINE('',#119,#120);
#119 = CARTESIAN_POINT('',(15.267276587681,-6.405012562893,4.7));
#120 = VECTOR('',#121,1.);
#121 = DIRECTION('',(0.,0.,1.));
#122 = ORIENTED_EDGE('',*,*,#123,.T.);
#123 = EDGE_CURVE('',#116,#124,#126,.T.);
#124 = VERTEX_POINT('',#125);
#125 = CARTESIAN_POINT('',(13.881635941626,-5.605012562893,5.));
#126 = CIRCLE('',#127,1.4);
#127 = AXIS2_PLACEMENT_3D('',#128,#129,#130);
#128 = CARTESIAN_POINT('',(14.,-7.,5.));
#129 = DIRECTION('',(0.,0.,1.));
#130 = DIRECTION('',(1.,0.,0.));
#131 = ORIENTED_EDGE('',*,*,#132,.F.);
#132 = EDGE_CURVE('',#133,#124,#135,.T.);
#133 = VERTEX_POINT('',#134);
#134 = CARTESIAN_POINT('',(13.881635941626,-5.605012562893,4.7));
#135 = LINE('',#136,#137);
#136 = CARTESIAN_POINT('',(13.881635941626,-5.605012562893,4.7));
#137 = VECTOR('',#138,1.);
#138 = DIRECTION('',(0.,0.,1.));
#139 = ORIENTED_EDGE('',*,*,#140,.T.);
#140 = EDGE_CURVE('',#133,#141,#143,.T.);
#141 = VERTEX_POINT('',#142);
#142 = CARTESIAN_POINT('',(12.732723412319,-7.594987437107,4.7));
#143 = CIRCLE('',#144,1.4);
#144 = AXIS2_PLACEMENT_3D('',#145,#146,#147);
#145 = CARTESIAN_POINT('',(14.,-7.,4.7));
#146 = DIRECTION('',(0.,0.,1.));
#147 = DIRECTION('',(1.,0.,0.));
#148 = ORIENTED_EDGE('',*,*,#149,.T.);
#149 = EDGE_CURVE('',#141,#150,#152,.T.);
#150 = VERTEX_POINT('',#151);
#151 = CARTESIAN_POINT('',(12.732723412319,-7.594987437107,
    4.905012562893));
#152 = LINE('',#153,#154);
#153 = CARTESIAN_POINT('',(12.732723412319,-7.594987437107,4.7));
#154 = VECTOR('',#155,1.);
#155 = DIRECTION('',(0.,0.,1.));
#156 = ORIENTED_EDGE('',*,*,#157,.F.);
#157 = EDGE_CURVE('',#158,#150,#160,.T.);
#158 = VERTEX_POINT('',#159);
#159 = CARTESIAN_POINT('',(12.6,-7.,5.5));
#160 = ELLIPSE('',#161,1.979898987322,1.4);
#161 = AXIS2_PLACEMENT_3D('',#162,#163,#164);
#162 = CARTESIAN_POINT('',(14.,-7.,5.5));
#163 = DIRECTION('',(0.,-0.707106781187,0.707106781187));
#164 = DIRECTION('',(0.,0.707106781187,0.707106781187));
#165 = ORIENTED_EDGE('',*,*,#166,.F.);
#166 = EDGE_CURVE('',#167,#158,#169,.T.);
#167 = VERTEX_POINT('',#168);
#168 = CARTESIAN_POINT('',(15.4,-7.,5.5));
#169 = CIRCLE('',#170,1.4);
#170 = AXIS2_PLACEMENT_3D('',#171,#172,#173);
#171 = CARTESIAN_POINT('',(14.,-7.,5.5));
#172 = DIRECTION('',(0.,0.,1.));
#173 = DIRECTION('',(1.,0.,0.));
#174 = ORIENTED_EDGE('',*,*,#175,.F.);
#175 = EDGE_CURVE('',#67,#167,#176,.T.);
#176 = ELLIPSE('',#177,1.979898987322,1.4);
#177 = AXIS2_PLACEMENT_3D('',#178,#179,#180);
#178 = CARTESIAN_POINT('',(14.,-7.,5.5));
#179 = DIRECTION('',(0.,-0.707106781187,0.707106781187));
#180 = DIRECTION('',(0.,0.707106781187,0.707106781187));
#181 = CYLINDRICAL_SURFACE('',#182,1.4);
#182 = AXIS2_PLACEMENT_3D('',#183,#184,#185);
#183 = CARTESIAN_POINT('',(14.,-7.,4.7));
#184 = DIRECTION('',(0.,0.,1.));
#185 = DIRECTION('',(1.,0.,0.));
#186 = ADVANCED_FACE('',(#187),#250,.F.);
#187 = FACE_BOUND('',#188,.F.);
#188 = EDGE_LOOP('',(#189,#199,#208,#215,#216,#217,#218,#226,#235,#244)
  );
#189 = ORIENTED_EDGE('',*,*,#190,.F.);
#190 = EDGE_CURVE('',#191,#193,#195,.T.);
#191 = VERTEX_POINT('',#192);
#192 = CARTESIAN_POINT('',(13.092820323028,-10.17128129211,
    4.433686240505));
#193 = VERTEX_POINT('',#194);
#194 = CARTESIAN_POINT('',(13.092820323028,-10.17128129211,5.));
#195 = LINE('',#196,#197);
#196 = CARTESIAN_POINT('',(13.092820323028,-10.17128129211,-20.));
#197 = VECTOR('',#198,1.);
#198 = DIRECTION('',(0.,0.,1.));
#199 = ORIENTED_EDGE('',*,*,#200,.T.);
#200 = EDGE_CURVE('',#191,#201,#203,.T.);
#201 = VERTEX_POINT('',#202);
#202 = CARTESIAN_POINT('',(14.,-8.6,4.1));
#203 = ELLIPSE('',#204,2.8,1.4);
#204 = AXIS2_PLACEMENT_3D('',#205,#206,#207);
#205 = CARTESIAN_POINT('',(14.,-8.6,5.5));
#206 = DIRECTION('',(0.866025403784,-0.5,0.));
#207 = DIRECTION('',(-0.5,-0.866025403784,0.));
#208 = ORIENTED_EDGE('',*,*,#209,.T.);
#209 = EDGE_CURVE('',#201,#57,#210,.T.);
#210 = ELLIPSE('',#211,2.8,1.4);
#211 = AXIS2_PLACEMENT_3D('',#212,#213,#214);
#212 = CARTESIAN_POINT('',(14.,-8.6,5.5));
#213 = DIRECTION('',(0.866025403784,-0.5,0.));
#214 = DIRECTION('',(-0.5,-0.866025403784,0.));
#215 = ORIENTED_EDGE('',*,*,#56,.T.);
#216 = ORIENTED_EDGE('',*,*,#32,.T.);
#217 = ORIENTED_EDGE('',*,*,#115,.T.);
#218 = ORIENTED_EDGE('',*,*,#219,.F.);
#219 = EDGE_CURVE('',#220,#116,#222,.T.);
#220 = VERTEX_POINT('',#221);
#221 = CARTESIAN_POINT('',(14.415331193146,-7.880625271503,5.));
#222 = LINE('',#223,#224);
#223 = CARTESIAN_POINT('',(13.092820323028,-10.17128129211,5.));
#224 = VECTOR('',#225,1.);
#225 = DIRECTION('',(0.5,0.866025403784,0.));
#226 = ORIENTED_EDGE('',*,*,#227,.F.);
#227 = EDGE_CURVE('',#228,#220,#230,.T.);
#228 = VERTEX_POINT('',#229);
#229 = CARTESIAN_POINT('',(14.,-8.6,4.85));
#230 = ELLIPSE('',#231,1.3,0.65);
#231 = AXIS2_PLACEMENT_3D('',#232,#233,#234);
#232 = CARTESIAN_POINT('',(14.,-8.6,5.5));
#233 = DIRECTION('',(0.866025403784,-0.5,0.));
#234 = DIRECTION('',(-0.5,-0.866025403784,0.));
#235 = ORIENTED_EDGE('',*,*,#236,.F.);
#236 = EDGE_CURVE('',#237,#228,#239,.T.);
#237 = VERTEX_POINT('',#238);
#238 = CARTESIAN_POINT('',(13.584668806854,-9.319374728497,5.));
#239 = ELLIPSE('',#240,1.3,0.65);
#240 = AXIS2_PLACEMENT_3D('',#241,#242,#243);
#241 = CARTESIAN_POINT('',(14.,-8.6,5.5));
#242 = DIRECTION('',(0.866025403784,-0.5,0.));
#243 = DIRECTION('',(-0.5,-0.866025403784,0.));
#244 = ORIENTED_EDGE('',*,*,#245,.F.);
#245 = EDGE_CURVE('',#193,#237,#246,.T.);
#246 = LINE('',#247,#248);
#247 = CARTESIAN_POINT('',(13.092820323028,-10.17128129211,5.));
#248 = VECTOR('',#249,1.);
#249 = DIRECTION('',(0.5,0.866025403784,0.));
#250 = PLANE('',#251);
#251 = AXIS2_PLACEMENT_3D('',#252,#253,#254);
#252 = CARTESIAN_POINT('',(13.092820323028,-10.17128129211,-20.));
#253 = DIRECTION('',(0.866025403784,-0.5,0.));
#254 = DIRECTION('',(0.,0.,1.));
#255 = ADVANCED_FACE('',(#256),#328,.T.);
#256 = FACE_BOUND('',#257,.T.);
#257 = EDGE_LOOP('',(#258,#267,#268,#277,#285,#292,#293,#301,#310,#317,
    #318,#319,#320,#321));
#258 = ORIENTED_EDGE('',*,*,#259,.T.);
#259 = EDGE_CURVE('',#260,#158,#262,.T.);
#260 = VERTEX_POINT('',#261);
#261 = CARTESIAN_POINT('',(14.,-7.,6.9));
#262 = CIRCLE('',#263,1.4);
#263 = AXIS2_PLACEMENT_3D('',#264,#265,#266);
#264 = CARTESIAN_POINT('',(14.,-7.,5.5));
#265 = DIRECTION('',(0.,-1.,0.));
#266 = DIRECTION('',(0.,0.,-1.));
#267 = ORIENTED_EDGE('',*,*,#157,.T.);
#268 = ORIENTED_EDGE('',*,*,#269,.F.);
#269 = EDGE_CURVE('',#270,#150,#272,.T.);
#270 = VERTEX_POINT('',#271);
#271 = CARTESIAN_POINT('',(12.692330316938,-7.664950330581,5.));
#272 = ELLIPSE('',#273,2.8,1.4);
#273 = AXIS2_PLACEMENT_3D('',#274,#275,#276);
#274 = CARTESIAN_POINT('',(14.,-5.4,5.5));
#275 = DIRECTION('',(0.866025403784,-0.5,0.));
#276 = DIRECTION('',(-0.5,-0.866025403784,0.));
#277 = ORIENTED_EDGE('',*,*,#278,.T.);
#278 = EDGE_CURVE('',#270,#279,#281,.T.);
#279 = VERTEX_POINT('',#280);
#280 = CARTESIAN_POINT('',(12.692330316938,-9.940058279287,5.));
#281 = LINE('',#282,#283);
#282 = CARTESIAN_POINT('',(12.692330316938,-7.,5.));
#283 = VECTOR('',#284,1.);
#284 = DIRECTION('',(0.,-1.,0.));
#285 = ORIENTED_EDGE('',*,*,#286,.F.);
#286 = EDGE_CURVE('',#191,#279,#287,.T.);
#287 = ELLIPSE('',#288,1.616580753731,1.4);
#288 = AXIS2_PLACEMENT_3D('',#289,#290,#291);
#289 = CARTESIAN_POINT('',(14.,-10.69504172281,5.5));
#290 = DIRECTION('',(0.5,0.866025403784,0.));
#291 = DIRECTION('',(0.866025403784,-0.5,0.));
#292 = ORIENTED_EDGE('',*,*,#200,.T.);
#293 = ORIENTED_EDGE('',*,*,#294,.T.);
#294 = EDGE_CURVE('',#201,#295,#297,.T.);
#295 = VERTEX_POINT('',#296);
#296 = CARTESIAN_POINT('',(14.,-17.,4.1));
#297 = LINE('',#298,#299);
#298 = CARTESIAN_POINT('',(14.,-7.,4.1));
#299 = VECTOR('',#300,1.);
#300 = DIRECTION('',(0.,-1.,0.));
#301 = ORIENTED_EDGE('',*,*,#302,.F.);
#302 = EDGE_CURVE('',#303,#295,#305,.T.);
#303 = VERTEX_POINT('',#304);
#304 = CARTESIAN_POINT('',(14.,-17.,6.9));
#305 = ELLIPSE('',#306,1.979898987322,1.4);
#306 = AXIS2_PLACEMENT_3D('',#307,#308,#309);
#307 = CARTESIAN_POINT('',(14.,-17.,5.5));
#308 = DIRECTION('',(-0.707106781187,-0.707106781187,0.));
#309 = DIRECTION('',(0.707106781187,-0.707106781187,0.));
#310 = ORIENTED_EDGE('',*,*,#311,.F.);
#311 = EDGE_CURVE('',#295,#303,#312,.T.);
#312 = CIRCLE('',#313,1.4);
#313 = AXIS2_PLACEMENT_3D('',#314,#315,#316);
#314 = CARTESIAN_POINT('',(14.,-17.,5.5));
#315 = DIRECTION('',(0.,-1.,0.));
#316 = DIRECTION('',(0.,0.,-1.));
#317 = ORIENTED_EDGE('',*,*,#294,.F.);
#318 = ORIENTED_EDGE('',*,*,#209,.T.);
#319 = ORIENTED_EDGE('',*,*,#75,.T.);
#320 = ORIENTED_EDGE('',*,*,#175,.T.);
#321 = ORIENTED_EDGE('',*,*,#322,.T.);
#322 = EDGE_CURVE('',#167,#260,#323,.T.);
#323 = CIRCLE('',#324,1.4);
#324 = AXIS2_PLACEMENT_3D('',#325,#326,#327);
#325 = CARTESIAN_POINT('',(14.,-7.,5.5));
#326 = DIRECTION('',(-2.449293598295E-16,-1.,0.));
#327 = DIRECTION('',(1.,-2.449293598295E-16,0.));
#328 = CYLINDRICAL_SURFACE('',#329,1.4);
#329 = AXIS2_PLACEMENT_3D('',#330,#331,#332);
#330 = CARTESIAN_POINT('',(14.,-7.,5.5));
#331 = DIRECTION('',(0.,-1.,0.));
#332 = DIRECTION('',(0.,0.,-1.));
#333 = ADVANCED_FACE('',(#334),#339,.T.);
#334 = FACE_BOUND('',#335,.T.);
#335 = EDGE_LOOP('',(#336,#337,#338));
#336 = ORIENTED_EDGE('',*,*,#322,.F.);
#337 = ORIENTED_EDGE('',*,*,#166,.T.);
#338 = ORIENTED_EDGE('',*,*,#259,.F.);
#339 = SPHERICAL_SURFACE('',#340,1.4);
#340 = AXIS2_PLACEMENT_3D('',#341,#342,#343);
#341 = CARTESIAN_POINT('',(14.,-7.,5.5));
#342 = DIRECTION('',(0.,0.,1.));
#343 = DIRECTION('',(1.,0.,0.));
#344 = ADVANCED_FACE('',(#345),#363,.T.);
#345 = FACE_BOUND('',#346,.T.);
#346 = EDGE_LOOP('',(#347,#353,#354,#355,#362));
#347 = ORIENTED_EDGE('',*,*,#348,.F.);
#348 = EDGE_CURVE('',#270,#124,#349,.T.);
#349 = LINE('',#350,#351);
#350 = CARTESIAN_POINT('',(11.707179676972,-9.37128129211,5.));
#351 = VECTOR('',#352,1.);
#352 = DIRECTION('',(0.5,0.866025403784,0.));
#353 = ORIENTED_EDGE('',*,*,#269,.T.);
#354 = ORIENTED_EDGE('',*,*,#149,.F.);
#355 = ORIENTED_EDGE('',*,*,#356,.T.);
#356 = EDGE_CURVE('',#141,#133,#357,.T.);
#357 = CIRCLE('',#358,1.148912529308);
#358 = AXIS2_PLACEMENT_3D('',#359,#360,#361);
#359 = CARTESIAN_POINT('',(13.307179676972,-6.6,4.7));
#360 = DIRECTION('',(0.866025403784,-0.5,0.));
#361 = DIRECTION('',(0.5,0.866025403784,0.));
#362 = ORIENTED_EDGE('',*,*,#132,.T.);
#363 = PLANE('',#364);
#364 = AXIS2_PLACEMENT_3D('',#365,#366,#367);
#365 = CARTESIAN_POINT('',(11.707179676972,-9.37128129211,-20.));
#366 = DIRECTION('',(0.866025403784,-0.5,0.));
#367 = DIRECTION('',(0.,0.,1.));
#368 = ADVANCED_FACE('',(#369),#373,.T.);
#369 = FACE_BOUND('',#370,.T.);
#370 = EDGE_LOOP('',(#371,#372));
#371 = ORIENTED_EDGE('',*,*,#140,.F.);
#372 = ORIENTED_EDGE('',*,*,#356,.F.);
#373 = SPHERICAL_SURFACE('',#374,1.4);
#374 = AXIS2_PLACEMENT_3D('',#375,#376,#377);
#375 = CARTESIAN_POINT('',(14.,-7.,4.7));
#376 = DIRECTION('',(0.,0.,1.));
#377 = DIRECTION('',(1.,0.,0.));
#378 = ADVANCED_FACE('',(#379),#424,.F.);
#379 = FACE_BOUND('',#380,.F.);
#380 = EDGE_LOOP('',(#381,#382,#383,#389,#390,#398,#407,#416,#422,#423)
  );
#381 = ORIENTED_EDGE('',*,*,#348,.F.);
#382 = ORIENTED_EDGE('',*,*,#278,.T.);
#383 = ORIENTED_EDGE('',*,*,#384,.T.);
#384 = EDGE_CURVE('',#279,#193,#385,.T.);
#385 = LINE('',#386,#387);
#386 = CARTESIAN_POINT('',(11.707179676972,-9.37128129211,5.));
#387 = VECTOR('',#388,1.);
#388 = DIRECTION('',(0.866025403784,-0.5,0.));
#389 = ORIENTED_EDGE('',*,*,#245,.T.);
#390 = ORIENTED_EDGE('',*,*,#391,.F.);
#391 = EDGE_CURVE('',#392,#237,#394,.T.);
#392 = VERTEX_POINT('',#393);
#393 = CARTESIAN_POINT('',(13.584668806854,-7.5,5.));
#394 = LINE('',#395,#396);
#395 = CARTESIAN_POINT('',(13.584668806854,-7.,5.));
#396 = VECTOR('',#397,1.);
#397 = DIRECTION('',(0.,-1.,0.));
#398 = ORIENTED_EDGE('',*,*,#399,.F.);
#399 = EDGE_CURVE('',#400,#392,#402,.T.);
#400 = VERTEX_POINT('',#401);
#401 = CARTESIAN_POINT('',(14.65,-7.,5.));
#402 = CIRCLE('',#403,0.65);
#403 = AXIS2_PLACEMENT_3D('',#404,#405,#406);
#404 = CARTESIAN_POINT('',(14.,-7.,5.));
#405 = DIRECTION('',(0.,0.,1.));
#406 = DIRECTION('',(1.,0.,0.));
#407 = ORIENTED_EDGE('',*,*,#408,.F.);
#408 = EDGE_CURVE('',#409,#400,#411,.T.);
#409 = VERTEX_POINT('',#410);
#410 = CARTESIAN_POINT('',(14.415331193146,-7.5,5.));
#411 = CIRCLE('',#412,0.65);
#412 = AXIS2_PLACEMENT_3D('',#413,#414,#415);
#413 = CARTESIAN_POINT('',(14.,-7.,5.));
#414 = DIRECTION('',(0.,0.,1.));
#415 = DIRECTION('',(1.,0.,0.));
#416 = ORIENTED_EDGE('',*,*,#417,.T.);
#417 = EDGE_CURVE('',#409,#220,#418,.T.);
#418 = LINE('',#419,#420);
#419 = CARTESIAN_POINT('',(14.415331193146,-7.,5.));
#420 = VECTOR('',#421,1.);
#421 = DIRECTION('',(0.,-1.,0.));
#422 = ORIENTED_EDGE('',*,*,#219,.T.);
#423 = ORIENTED_EDGE('',*,*,#123,.T.);
#424 = PLANE('',#425);
#425 = AXIS2_PLACEMENT_3D('',#426,#427,#428);
#426 = CARTESIAN_POINT('',(11.707179676972,-9.37128129211,5.));
#427 = DIRECTION('',(0.,0.,1.));
#428 = DIRECTION('',(0.866025403784,-0.5,0.));
#429 = ADVANCED_FACE('',(#430),#435,.T.);
#430 = FACE_BOUND('',#431,.T.);
#431 = EDGE_LOOP('',(#432,#433,#434));
#432 = ORIENTED_EDGE('',*,*,#190,.F.);
#433 = ORIENTED_EDGE('',*,*,#286,.T.);
#434 = ORIENTED_EDGE('',*,*,#384,.T.);
#435 = PLANE('',#436);
#436 = AXIS2_PLACEMENT_3D('',#437,#438,#439);
#437 = CARTESIAN_POINT('',(11.707179676972,-9.37128129211,-20.));
#438 = DIRECTION('',(0.5,0.866025403784,0.));
#439 = DIRECTION('',(0.,0.,1.));
#440 = ADVANCED_FACE('',(#441),#506,.F.);
#441 = FACE_BOUND('',#442,.F.);
#442 = EDGE_LOOP('',(#443,#454,#463,#470,#471,#472,#480,#489,#496,#497,
    #498,#499));
#443 = ORIENTED_EDGE('',*,*,#444,.T.);
#444 = EDGE_CURVE('',#445,#447,#449,.T.);
#445 = VERTEX_POINT('',#446);
#446 = CARTESIAN_POINT('',(14.65,-7.,5.5));
#447 = VERTEX_POINT('',#448);
#448 = CARTESIAN_POINT('',(14.,-7.,6.15));
#449 = CIRCLE('',#450,0.65);
#450 = AXIS2_PLACEMENT_3D('',#451,#452,#453);
#451 = CARTESIAN_POINT('',(14.,-7.,5.5));
#452 = DIRECTION('',(-2.449293598295E-16,-1.,0.));
#453 = DIRECTION('',(1.,-2.449293598295E-16,0.));
#454 = ORIENTED_EDGE('',*,*,#455,.T.);
#455 = EDGE_CURVE('',#447,#456,#458,.T.);
#456 = VERTEX_POINT('',#457);
#457 = CARTESIAN_POINT('',(13.35,-7.,5.5));
#458 = CIRCLE('',#459,0.65);
#459 = AXIS2_PLACEMENT_3D('',#460,#461,#462);
#460 = CARTESIAN_POINT('',(14.,-7.,5.5));
#461 = DIRECTION('',(0.,-1.,0.));
#462 = DIRECTION('',(0.,0.,-1.));
#463 = ORIENTED_EDGE('',*,*,#464,.T.);
#464 = EDGE_CURVE('',#456,#392,#465,.T.);
#465 = ELLIPSE('',#466,0.919238815543,0.65);
#466 = AXIS2_PLACEMENT_3D('',#467,#468,#469);
#467 = CARTESIAN_POINT('',(14.,-7.,5.5));
#468 = DIRECTION('',(0.,-0.707106781187,0.707106781187));
#469 = DIRECTION('',(0.,0.707106781187,0.707106781187));
#470 = ORIENTED_EDGE('',*,*,#391,.T.);
#471 = ORIENTED_EDGE('',*,*,#236,.T.);
#472 = ORIENTED_EDGE('',*,*,#473,.T.);
#473 = EDGE_CURVE('',#228,#474,#476,.T.);
#474 = VERTEX_POINT('',#475);
#475 = CARTESIAN_POINT('',(14.,-17.,4.85));
#476 = LINE('',#477,#478);
#477 = CARTESIAN_POINT('',(14.,-7.,4.85));
#478 = VECTOR('',#479,1.);
#479 = DIRECTION('',(0.,-1.,0.));
#480 = ORIENTED_EDGE('',*,*,#481,.F.);
#481 = EDGE_CURVE('',#482,#474,#484,.T.);
#482 = VERTEX_POINT('',#483);
#483 = CARTESIAN_POINT('',(14.,-17.,6.15));
#484 = ELLIPSE('',#485,0.919238815543,0.65);
#485 = AXIS2_PLACEMENT_3D('',#486,#487,#488);
#486 = CARTESIAN_POINT('',(14.,-17.,5.5));
#487 = DIRECTION('',(-0.707106781187,-0.707106781187,0.));
#488 = DIRECTION('',(0.707106781187,-0.707106781187,0.));
#489 = ORIENTED_EDGE('',*,*,#490,.F.);
#490 = EDGE_CURVE('',#474,#482,#491,.T.);
#491 = CIRCLE('',#492,0.65);
#492 = AXIS2_PLACEMENT_3D('',#493,#494,#495);
#493 = CARTESIAN_POINT('',(14.,-17.,5.5));
#494 = DIRECTION('',(0.,-1.,0.));
#495 = DIRECTION('',(0.,0.,-1.));
#496 = ORIENTED_EDGE('',*,*,#473,.F.);
#497 = ORIENTED_EDGE('',*,*,#227,.T.);
#498 = ORIENTED_EDGE('',*,*,#417,.F.);
#499 = ORIENTED_EDGE('',*,*,#500,.T.);
#500 = EDGE_CURVE('',#409,#445,#501,.T.);
#501 = ELLIPSE('',#502,0.919238815543,0.65);
#502 = AXIS2_PLACEMENT_3D('',#503,#504,#505);
#503 = CARTESIAN_POINT('',(14.,-7.,5.5));
#504 = DIRECTION('',(0.,-0.707106781187,0.707106781187));
#505 = DIRECTION('',(0.,0.707106781187,0.707106781187));
#506 = CYLINDRICAL_SURFACE('',#507,0.65);
#507 = AXIS2_PLACEMENT_3D('',#508,#509,#510);
#508 = CARTESIAN_POINT('',(14.,-7.,5.5));
#509 = DIRECTION('',(0.,-1.,0.));
#510 = DIRECTION('',(0.,0.,-1.));
#511 = ADVANCED_FACE('',(#512),#522,.T.);
#512 = FACE_BOUND('',#513,.T.);
#513 = EDGE_LOOP('',(#514,#515));
#514 = ORIENTED_EDGE('',*,*,#311,.T.);
#515 = ORIENTED_EDGE('',*,*,#516,.F.);
#516 = EDGE_CURVE('',#295,#303,#517,.T.);
#517 = CIRCLE('',#518,1.4);
#518 = AXIS2_PLACEMENT_3D('',#519,#520,#521);
#519 = CARTESIAN_POINT('',(14.,-17.,5.5));
#520 = DIRECTION('',(-1.,0.,0.));
#521 = DIRECTION('',(0.,0.,-1.));
#522 = SPHERICAL_SURFACE('',#523,1.4);
#523 = AXIS2_PLACEMENT_3D('',#524,#525,#526);
#524 = CARTESIAN_POINT('',(14.,-17.,5.5));
#525 = DIRECTION('',(0.,0.,1.));
#526 = DIRECTION('',(1.,0.,0.));
#527 = ADVANCED_FACE('',(#528,#575),#612,.T.);
#528 = FACE_BOUND('',#529,.T.);
#529 = EDGE_LOOP('',(#530,#538,#539,#540,#541,#550,#559,#568));
#530 = ORIENTED_EDGE('',*,*,#531,.F.);
#531 = EDGE_CURVE('',#295,#532,#534,.T.);
#532 = VERTEX_POINT('',#533);
#533 = CARTESIAN_POINT('',(-39.,-17.,4.1));
#534 = LINE('',#535,#536);
#535 = CARTESIAN_POINT('',(14.,-17.,4.1));
#536 = VECTOR('',#537,1.);
#537 = DIRECTION('',(-1.,0.,0.));
#538 = ORIENTED_EDGE('',*,*,#516,.T.);
#539 = ORIENTED_EDGE('',*,*,#302,.T.);
#540 = ORIENTED_EDGE('',*,*,#531,.T.);
#541 = ORIENTED_EDGE('',*,*,#542,.F.);
#542 = EDGE_CURVE('',#543,#532,#545,.T.);
#543 = VERTEX_POINT('',#544);
#544 = CARTESIAN_POINT('',(-39.,-15.6,5.5));
#545 = CIRCLE('',#546,1.4);
#546 = AXIS2_PLACEMENT_3D('',#547,#548,#549);
#547 = CARTESIAN_POINT('',(-39.,-17.,5.5));
#548 = DIRECTION('',(-1.,0.,0.));
#549 = DIRECTION('',(0.,0.,-1.));
#550 = ORIENTED_EDGE('',*,*,#551,.F.);
#551 = EDGE_CURVE('',#552,#543,#554,.T.);
#552 = VERTEX_POINT('',#553);
#553 = CARTESIAN_POINT('',(-37.6,-17.,6.9));
#554 = ELLIPSE('',#555,1.979898987322,1.4);
#555 = AXIS2_PLACEMENT_3D('',#556,#557,#558);
#556 = CARTESIAN_POINT('',(-39.,-17.,5.5));
#557 = DIRECTION('',(-0.707106781187,0.,0.707106781187));
#558 = DIRECTION('',(-0.707106781187,0.,-0.707106781187));
#559 = ORIENTED_EDGE('',*,*,#560,.F.);
#560 = EDGE_CURVE('',#561,#552,#563,.T.);
#561 = VERTEX_POINT('',#562);
#562 = CARTESIAN_POINT('',(-39.,-18.4,5.5));
#563 = ELLIPSE('',#564,1.979898987322,1.4);
#564 = AXIS2_PLACEMENT_3D('',#565,#566,#567);
#565 = CARTESIAN_POINT('',(-39.,-17.,5.5));
#566 = DIRECTION('',(-0.707106781187,0.,0.707106781187));
#567 = DIRECTION('',(-0.707106781187,0.,-0.707106781187));
#568 = ORIENTED_EDGE('',*,*,#569,.F.);
#569 = EDGE_CURVE('',#532,#561,#570,.T.);
#570 = CIRCLE('',#571,1.4);
#571 = AXIS2_PLACEMENT_3D('',#572,#573,#574);
#572 = CARTESIAN_POINT('',(-39.,-17.,5.5));
#573 = DIRECTION('',(-1.,0.,0.));
#574 = DIRECTION('',(0.,0.,-1.));
#575 = FACE_BOUND('',#576,.T.);
#576 = EDGE_LOOP('',(#577));
#577 = ORIENTED_EDGE('',*,*,#578,.F.);
#578 = EDGE_CURVE('',#579,#579,#581,.T.);
#579 = VERTEX_POINT('',#580);
#580 = CARTESIAN_POINT('',(-5.,-15.63824561686,5.825));
#581 = B_SPLINE_CURVE_WITH_KNOTS('',8,(#582,#583,#584,#585,#586,#587,
    #588,#589,#590,#591,#592,#593,#594,#595,#596,#597,#598,#599,#600,
    #601,#602,#603,#604,#605,#606,#607,#608,#609,#610,#611),
  .UNSPECIFIED.,.T.,.F.,(9,7,7,7,9),(0.,0.249230752042,0.519541509104,
    0.749385010554,1.),.UNSPECIFIED.);
#582 = CARTESIAN_POINT('',(-5.,-15.63824561686,5.825));
#583 = CARTESIAN_POINT('',(-4.937025770871,-15.63824561686,5.825));
#584 = CARTESIAN_POINT('',(-4.873599046826,-15.63491691081,
    5.811054776457));
#585 = CARTESIAN_POINT('',(-4.813716744949,-15.6281796709,5.782811697567
    ));
#586 = CARTESIAN_POINT('',(-4.761162952563,-15.61915972261,
    5.741526832704));
#587 = CARTESIAN_POINT('',(-4.719094162534,-15.61023632418,5.68937862665
    ));
#588 = CARTESIAN_POINT('',(-4.689907008528,-15.60346056337,
    5.629439840855));
#589 = CARTESIAN_POINT('',(-4.675,-15.6,5.565107344126));
#590 = CARTESIAN_POINT('',(-4.675,-15.6,5.429385858941));
#591 = CARTESIAN_POINT('',(-4.692534786145,-15.60407112571,
    5.359957051472));
#592 = CARTESIAN_POINT('',(-4.726571608156,-15.61196978019,
    5.296126891885));
#593 = CARTESIAN_POINT('',(-4.775274329091,-15.62211798776,
    5.242024038024));
#594 = CARTESIAN_POINT('',(-4.835478330507,-15.63177780359,
    5.201363965365));
#595 = CARTESIAN_POINT('',(-4.903068292889,-15.63792519581,
    5.176610405623));
#596 = CARTESIAN_POINT('',(-4.973169065293,-15.63965664116,
    5.169027374182));
#597 = CARTESIAN_POINT('',(-5.098182736719,-15.63591885778,
    5.184820273591));
#598 = CARTESIAN_POINT('',(-5.154551108347,-15.63146721389,
    5.203825985421));
#599 = CARTESIAN_POINT('',(-5.206758284927,-15.62457079968,
    5.234479006679));
#600 = CARTESIAN_POINT('',(-5.251952483749,-15.61636066973,
    5.275594110801));
#601 = CARTESIAN_POINT('',(-5.28777109889,-15.60864296483,5.325291314194
    ));
#602 = CARTESIAN_POINT('',(-5.312461939001,-15.6029105318,5.381098448084
    ));
#603 = CARTESIAN_POINT('',(-5.325,-15.6,5.440288887042));
#604 = CARTESIAN_POINT('',(-5.325,-15.6,5.565107344125));
#605 = CARTESIAN_POINT('',(-5.310092991472,-15.60346056337,
    5.629439840855));
#606 = CARTESIAN_POINT('',(-5.280905837467,-15.61023632418,
    5.689378626649));
#607 = CARTESIAN_POINT('',(-5.238837047436,-15.61915972261,
    5.741526832705));
#608 = CARTESIAN_POINT('',(-5.186283255052,-15.6281796709,5.782811697567
    ));
#609 = CARTESIAN_POINT('',(-5.126400953173,-15.63491691081,
    5.811054776458));
#610 = CARTESIAN_POINT('',(-5.062974229129,-15.63824561686,5.825));
#611 = CARTESIAN_POINT('',(-5.,-15.63824561686,5.825));
#612 = CYLINDRICAL_SURFACE('',#613,1.4);
#613 = AXIS2_PLACEMENT_3D('',#614,#615,#616);
#614 = CARTESIAN_POINT('',(14.,-17.,5.5));
#615 = DIRECTION('',(-1.,0.,0.));
#616 = DIRECTION('',(0.,0.,-1.));
#617 = ADVANCED_FACE('',(#618),#628,.F.);
#618 = FACE_BOUND('',#619,.F.);
#619 = EDGE_LOOP('',(#620,#626,#627));
#620 = ORIENTED_EDGE('',*,*,#621,.T.);
#621 = EDGE_CURVE('',#400,#445,#622,.T.);
#622 = LINE('',#623,#624);
#623 = CARTESIAN_POINT('',(14.65,-7.,4.7));
#624 = VECTOR('',#625,1.);
#625 = DIRECTION('',(0.,0.,1.));
#626 = ORIENTED_EDGE('',*,*,#500,.F.);
#627 = ORIENTED_EDGE('',*,*,#408,.T.);
#628 = CYLINDRICAL_SURFACE('',#629,0.65);
#629 = AXIS2_PLACEMENT_3D('',#630,#631,#632);
#630 = CARTESIAN_POINT('',(14.,-7.,4.7));
#631 = DIRECTION('',(0.,0.,1.));
#632 = DIRECTION('',(1.,0.,0.));
#633 = ADVANCED_FACE('',(#634),#646,.F.);
#634 = FACE_BOUND('',#635,.F.);
#635 = EDGE_LOOP('',(#636,#643,#644,#645));
#636 = ORIENTED_EDGE('',*,*,#637,.F.);
#637 = EDGE_CURVE('',#445,#456,#638,.T.);
#638 = CIRCLE('',#639,0.65);
#639 = AXIS2_PLACEMENT_3D('',#640,#641,#642);
#640 = CARTESIAN_POINT('',(14.,-7.,5.5));
#641 = DIRECTION('',(0.,0.,1.));
#642 = DIRECTION('',(1.,0.,0.));
#643 = ORIENTED_EDGE('',*,*,#621,.F.);
#644 = ORIENTED_EDGE('',*,*,#399,.T.);
#645 = ORIENTED_EDGE('',*,*,#464,.F.);
#646 = CYLINDRICAL_SURFACE('',#647,0.65);
#647 = AXIS2_PLACEMENT_3D('',#648,#649,#650);
#648 = CARTESIAN_POINT('',(14.,-7.,4.7));
#649 = DIRECTION('',(0.,0.,1.));
#650 = DIRECTION('',(1.,0.,0.));
#651 = ADVANCED_FACE('',(#652),#657,.F.);
#652 = FACE_BOUND('',#653,.F.);
#653 = EDGE_LOOP('',(#654,#655,#656));
#654 = ORIENTED_EDGE('',*,*,#444,.F.);
#655 = ORIENTED_EDGE('',*,*,#637,.T.);
#656 = ORIENTED_EDGE('',*,*,#455,.F.);
#657 = SPHERICAL_SURFACE('',#658,0.65);
#658 = AXIS2_PLACEMENT_3D('',#659,#660,#661);
#659 = CARTESIAN_POINT('',(14.,-7.,5.5));
#660 = DIRECTION('',(0.,0.,1.));
#661 = DIRECTION('',(1.,0.,0.));
#662 = ADVANCED_FACE('',(#663),#673,.F.);
#663 = FACE_BOUND('',#664,.F.);
#664 = EDGE_LOOP('',(#665,#666));
#665 = ORIENTED_EDGE('',*,*,#490,.T.);
#666 = ORIENTED_EDGE('',*,*,#667,.F.);
#667 = EDGE_CURVE('',#474,#482,#668,.T.);
#668 = CIRCLE('',#669,0.65);
#669 = AXIS2_PLACEMENT_3D('',#670,#671,#672);
#670 = CARTESIAN_POINT('',(14.,-17.,5.5));
#671 = DIRECTION('',(-1.,0.,0.));
#672 = DIRECTION('',(0.,0.,-1.));
#673 = SPHERICAL_SURFACE('',#674,0.65);
#674 = AXIS2_PLACEMENT_3D('',#675,#676,#677);
#675 = CARTESIAN_POINT('',(14.,-17.,5.5));
#676 = DIRECTION('',(0.,0.,1.));
#677 = DIRECTION('',(1.,0.,0.));
#678 = ADVANCED_FACE('',(#679,#726),#795,.F.);
#679 = FACE_BOUND('',#680,.F.);
#680 = EDGE_LOOP('',(#681,#689,#690,#691,#692,#701,#710,#719));
#681 = ORIENTED_EDGE('',*,*,#682,.F.);
#682 = EDGE_CURVE('',#474,#683,#685,.T.);
#683 = VERTEX_POINT('',#684);
#684 = CARTESIAN_POINT('',(-39.,-17.,4.85));
#685 = LINE('',#686,#687);
#686 = CARTESIAN_POINT('',(14.,-17.,4.85));
#687 = VECTOR('',#688,1.);
#688 = DIRECTION('',(-1.,0.,0.));
#689 = ORIENTED_EDGE('',*,*,#667,.T.);
#690 = ORIENTED_EDGE('',*,*,#481,.T.);
#691 = ORIENTED_EDGE('',*,*,#682,.T.);
#692 = ORIENTED_EDGE('',*,*,#693,.F.);
#693 = EDGE_CURVE('',#694,#683,#696,.T.);
#694 = VERTEX_POINT('',#695);
#695 = CARTESIAN_POINT('',(-39.,-16.35,5.5));
#696 = CIRCLE('',#697,0.65);
#697 = AXIS2_PLACEMENT_3D('',#698,#699,#700);
#698 = CARTESIAN_POINT('',(-39.,-17.,5.5));
#699 = DIRECTION('',(-1.,0.,0.));
#700 = DIRECTION('',(0.,0.,-1.));
#701 = ORIENTED_EDGE('',*,*,#702,.F.);
#702 = EDGE_CURVE('',#703,#694,#705,.T.);
#703 = VERTEX_POINT('',#704);
#704 = CARTESIAN_POINT('',(-38.35,-17.,6.15));
#705 = ELLIPSE('',#706,0.919238815543,0.65);
#706 = AXIS2_PLACEMENT_3D('',#707,#708,#709);
#707 = CARTESIAN_POINT('',(-39.,-17.,5.5));
#708 = DIRECTION('',(-0.707106781187,0.,0.707106781187));
#709 = DIRECTION('',(-0.707106781187,0.,-0.707106781187));
#710 = ORIENTED_EDGE('',*,*,#711,.F.);
#711 = EDGE_CURVE('',#712,#703,#714,.T.);
#712 = VERTEX_POINT('',#713);
#713 = CARTESIAN_POINT('',(-39.,-17.65,5.5));
#714 = ELLIPSE('',#715,0.919238815543,0.65);
#715 = AXIS2_PLACEMENT_3D('',#716,#717,#718);
#716 = CARTESIAN_POINT('',(-39.,-17.,5.5));
#717 = DIRECTION('',(-0.707106781187,0.,0.707106781187));
#718 = DIRECTION('',(-0.707106781187,0.,-0.707106781187));
#719 = ORIENTED_EDGE('',*,*,#720,.F.);
#720 = EDGE_CURVE('',#683,#712,#721,.T.);
#721 = CIRCLE('',#722,0.65);
#722 = AXIS2_PLACEMENT_3D('',#723,#724,#725);
#723 = CARTESIAN_POINT('',(-39.,-17.,5.5));
#724 = DIRECTION('',(-1.,0.,0.));
#725 = DIRECTION('',(0.,0.,-1.));
#726 = FACE_BOUND('',#727,.F.);
#727 = EDGE_LOOP('',(#728));
#728 = ORIENTED_EDGE('',*,*,#729,.F.);
#729 = EDGE_CURVE('',#730,#730,#732,.T.);
#730 = VERTEX_POINT('',#731);
#731 = CARTESIAN_POINT('',(-5.,-16.43708348754,5.825));
#732 = B_SPLINE_CURVE_WITH_KNOTS('',6,(#733,#734,#735,#736,#737,#738,
    #739,#740,#741,#742,#743,#744,#745,#746,#747,#748,#749,#750,#751,
    #752,#753,#754,#755,#756,#757,#758,#759,#760,#761,#762,#763,#764,
    #765,#766,#767,#768,#769,#770,#771,#772,#773,#774,#775,#776,#777,
    #778,#779,#780,#781,#782,#783,#784,#785,#786,#787,#788,#789,#790,
    #791,#792,#793,#794),.UNSPECIFIED.,.T.,.F.,(7,5,5,5,5,5,5,5,5,5,5,5,
    7),(0.,7.032058865534E-02,0.167511315881,0.249998491326,
    0.332833634524,0.429797040032,0.499997952632,0.570319117178,
    0.667510640347,0.749998491321,0.832834312898,0.929798512489,1.),
  .UNSPECIFIED.);
#733 = CARTESIAN_POINT('',(-5.,-16.43708348754,5.825));
#734 = CARTESIAN_POINT('',(-4.975141564975,-16.43708348754,5.825));
#735 = CARTESIAN_POINT('',(-4.950341370511,-16.43576620287,
    5.822718327874));
#736 = CARTESIAN_POINT('',(-4.925867530528,-16.43314311808,
    5.818175324957));
#737 = CARTESIAN_POINT('',(-4.901989105692,-16.42934376099,5.81143373878
    ));
#738 = CARTESIAN_POINT('',(-4.87899640127,-16.42461369007,5.802610974604
    ));
#739 = CARTESIAN_POINT('',(-4.827010071276,-16.41182846393,
    5.777176909031));
#740 = CARTESIAN_POINT('',(-4.799008741259,-16.40317574101,
    5.758842483066));
#741 = CARTESIAN_POINT('',(-4.773567862988,-16.39396293415,
    5.737317397485));
#742 = CARTESIAN_POINT('',(-4.751061960681,-16.38491396156,
    5.713012633016));
#743 = CARTESIAN_POINT('',(-4.731799705703,-16.37661618652,
    5.686413067942));
#744 = CARTESIAN_POINT('',(-4.702587857975,-16.36345807236,
    5.633909810014));
#745 = CARTESIAN_POINT('',(-4.691656215337,-16.35826096199,
    5.608484350793));
#746 = CARTESIAN_POINT('',(-4.683355823239,-16.35417815428,
    5.582048895469));
#747 = CARTESIAN_POINT('',(-4.677786789658,-16.35139322289,
    5.554933263038));
#748 = CARTESIAN_POINT('',(-4.675,-16.35,5.527473438634));
#749 = CARTESIAN_POINT('',(-4.675,-16.35,5.47241066613));
#750 = CARTESIAN_POINT('',(-4.677810348997,-16.35140499793,
    5.444835098034));
#751 = CARTESIAN_POINT('',(-4.68342643816,-16.35421346945,5.417608013682
    ));
#752 = CARTESIAN_POINT('',(-4.691796552252,-16.35832999066,
    5.391069676951));
#753 = CARTESIAN_POINT('',(-4.702818904789,-16.36356788718,
    5.365554061393));
#754 = CARTESIAN_POINT('',(-4.732164357063,-16.37677355831,
    5.313076358524));
#755 = CARTESIAN_POINT('',(-4.751432064541,-16.38506404133,
    5.286573924029));
#756 = CARTESIAN_POINT('',(-4.773924848686,-16.39409546455,
    5.262361462972));
#757 = CARTESIAN_POINT('',(-4.799335165875,-16.40328318525,
    5.240920084832));
#758 = CARTESIAN_POINT('',(-4.827290861416,-16.41190835668,
    5.222657297556));
#759 = CARTESIAN_POINT('',(-4.879192023389,-16.42465388496,
    5.197314075193));
#760 = CARTESIAN_POINT('',(-4.902151513864,-16.4293695752,5.188520450512
    ));
#761 = CARTESIAN_POINT('',(-4.925992451009,-16.43315651079,
    5.181801481436));
#762 = CARTESIAN_POINT('',(-4.950425922365,-16.43577070405,
    5.177273874938));
#763 = CARTESIAN_POINT('',(-4.975184073873,-16.43708348754,5.175));
#764 = CARTESIAN_POINT('',(-5.024858435025,-16.43708348754,5.175));
#765 = CARTESIAN_POINT('',(-5.049658629489,-16.43576620287,
    5.177281672126));
#766 = CARTESIAN_POINT('',(-5.074132469472,-16.43314311808,
    5.181824675043));
#767 = CARTESIAN_POINT('',(-5.098010894308,-16.42934376099,5.18856626122
    ));
#768 = CARTESIAN_POINT('',(-5.12100359873,-16.42461369007,5.197389025396
    ));
#769 = CARTESIAN_POINT('',(-5.172989928724,-16.41182846393,
    5.222823090969));
#770 = CARTESIAN_POINT('',(-5.200991258741,-16.40317574101,
    5.241157516934));
#771 = CARTESIAN_POINT('',(-5.226432137012,-16.39396293415,
    5.262682602515));
#772 = CARTESIAN_POINT('',(-5.248938039319,-16.38491396156,
    5.286987366984));
#773 = CARTESIAN_POINT('',(-5.268200294297,-16.37661618652,
    5.313586932058));
#774 = CARTESIAN_POINT('',(-5.297412142025,-16.36345807236,
    5.366090189986));
#775 = CARTESIAN_POINT('',(-5.308343784663,-16.35826096199,
    5.391515649207));
#776 = CARTESIAN_POINT('',(-5.316644176761,-16.35417815428,
    5.417951104531));
#777 = CARTESIAN_POINT('',(-5.322213210342,-16.35139322289,
    5.445066736962));
#778 = CARTESIAN_POINT('',(-5.325,-16.35,5.472526561366));
#779 = CARTESIAN_POINT('',(-5.325,-16.35,5.52758933387));
#780 = CARTESIAN_POINT('',(-5.322189651003,-16.35140499793,
    5.555164901966));
#781 = CARTESIAN_POINT('',(-5.31657356184,-16.35421346945,5.582391986318
    ));
#782 = CARTESIAN_POINT('',(-5.308203447748,-16.35832999066,
    5.608930323049));
#783 = CARTESIAN_POINT('',(-5.297181095211,-16.36356788718,
    5.634445938607));
#784 = CARTESIAN_POINT('',(-5.267835642937,-16.37677355831,
    5.686923641476));
#785 = CARTESIAN_POINT('',(-5.248567935459,-16.38506404133,
    5.713426075971));
#786 = CARTESIAN_POINT('',(-5.226075151314,-16.39409546455,
    5.737638537028));
#787 = CARTESIAN_POINT('',(-5.200664834125,-16.40328318525,
    5.759079915168));
#788 = CARTESIAN_POINT('',(-5.172709138584,-16.41190835668,
    5.777342702444));
#789 = CARTESIAN_POINT('',(-5.12080797661,-16.42465388496,5.802685924807
    ));
#790 = CARTESIAN_POINT('',(-5.097848486136,-16.4293695752,5.811479549487
    ));
#791 = CARTESIAN_POINT('',(-5.074007548991,-16.43315651079,
    5.818198518564));
#792 = CARTESIAN_POINT('',(-5.049574077635,-16.43577070405,
    5.822726125062));
#793 = CARTESIAN_POINT('',(-5.024815926127,-16.43708348754,5.825));
#794 = CARTESIAN_POINT('',(-5.,-16.43708348754,5.825));
#795 = CYLINDRICAL_SURFACE('',#796,0.65);
#796 = AXIS2_PLACEMENT_3D('',#797,#798,#799);
#797 = CARTESIAN_POINT('',(14.,-17.,5.5));
#798 = DIRECTION('',(-1.,0.,0.));
#799 = DIRECTION('',(0.,0.,-1.));
#800 = ADVANCED_FACE('',(#801),#812,.T.);
#801 = FACE_BOUND('',#802,.T.);
#802 = EDGE_LOOP('',(#803,#804,#811));
#803 = ORIENTED_EDGE('',*,*,#569,.T.);
#804 = ORIENTED_EDGE('',*,*,#805,.F.);
#805 = EDGE_CURVE('',#543,#561,#806,.T.);
#806 = CIRCLE('',#807,1.4);
#807 = AXIS2_PLACEMENT_3D('',#808,#809,#810);
#808 = CARTESIAN_POINT('',(-39.,-17.,5.5));
#809 = DIRECTION('',(0.,0.,1.));
#810 = DIRECTION('',(1.,0.,0.));
#811 = ORIENTED_EDGE('',*,*,#542,.T.);
#812 = SPHERICAL_SURFACE('',#813,1.4);
#813 = AXIS2_PLACEMENT_3D('',#814,#815,#816);
#814 = CARTESIAN_POINT('',(-39.,-17.,5.5));
#815 = DIRECTION('',(0.,0.,1.));
#816 = DIRECTION('',(1.,0.,0.));
#817 = ADVANCED_FACE('',(#818),#857,.T.);
#818 = FACE_BOUND('',#819,.T.);
#819 = EDGE_LOOP('',(#820,#821,#822,#830,#839,#848,#855,#856));
#820 = ORIENTED_EDGE('',*,*,#805,.T.);
#821 = ORIENTED_EDGE('',*,*,#560,.T.);
#822 = ORIENTED_EDGE('',*,*,#823,.T.);
#823 = EDGE_CURVE('',#552,#824,#826,.T.);
#824 = VERTEX_POINT('',#825);
#825 = CARTESIAN_POINT('',(-37.6,-17.,28.1));
#826 = LINE('',#827,#828);
#827 = CARTESIAN_POINT('',(-37.6,-17.,5.5));
#828 = VECTOR('',#829,1.);
#829 = DIRECTION('',(0.,0.,1.));
#830 = ORIENTED_EDGE('',*,*,#831,.F.);
#831 = EDGE_CURVE('',#832,#824,#834,.T.);
#832 = VERTEX_POINT('',#833);
#833 = CARTESIAN_POINT('',(-39.,-18.4,29.5));
#834 = ELLIPSE('',#835,1.979898987322,1.4);
#835 = AXIS2_PLACEMENT_3D('',#836,#837,#838);
#836 = CARTESIAN_POINT('',(-39.,-17.,29.5));
#837 = DIRECTION('',(0.707106781187,0.,0.707106781187));
#838 = DIRECTION('',(-0.707106781187,0.,0.707106781187));
#839 = ORIENTED_EDGE('',*,*,#840,.F.);
#840 = EDGE_CURVE('',#841,#832,#843,.T.);
#841 = VERTEX_POINT('',#842);
#842 = CARTESIAN_POINT('',(-39.,-15.6,29.5));
#843 = CIRCLE('',#844,1.4);
#844 = AXIS2_PLACEMENT_3D('',#845,#846,#847);
#845 = CARTESIAN_POINT('',(-39.,-17.,29.5));
#846 = DIRECTION('',(0.,0.,1.));
#847 = DIRECTION('',(1.,0.,0.));
#848 = ORIENTED_EDGE('',*,*,#849,.F.);
#849 = EDGE_CURVE('',#824,#841,#850,.T.);
#850 = ELLIPSE('',#851,1.979898987322,1.4);
#851 = AXIS2_PLACEMENT_3D('',#852,#853,#854);
#852 = CARTESIAN_POINT('',(-39.,-17.,29.5));
#853 = DIRECTION('',(0.707106781187,0.,0.707106781187));
#854 = DIRECTION('',(-0.707106781187,0.,0.707106781187));
#855 = ORIENTED_EDGE('',*,*,#823,.F.);
#856 = ORIENTED_EDGE('',*,*,#551,.T.);
#857 = CYLINDRICAL_SURFACE('',#858,1.4);
#858 = AXIS2_PLACEMENT_3D('',#859,#860,#861);
#859 = CARTESIAN_POINT('',(-39.,-17.,5.5));
#860 = DIRECTION('',(0.,0.,1.));
#861 = DIRECTION('',(1.,0.,0.));
#862 = ADVANCED_FACE('',(#863),#874,.F.);
#863 = FACE_BOUND('',#864,.F.);
#864 = EDGE_LOOP('',(#865,#866,#872,#873));
#865 = ORIENTED_EDGE('',*,*,#729,.T.);
#866 = ORIENTED_EDGE('',*,*,#867,.T.);
#867 = EDGE_CURVE('',#730,#579,#868,.T.);
#868 = LINE('',#869,#870);
#869 = CARTESIAN_POINT('',(-5.,-17.,5.825));
#870 = VECTOR('',#871,1.);
#871 = DIRECTION('',(0.,1.,0.));
#872 = ORIENTED_EDGE('',*,*,#578,.F.);
#873 = ORIENTED_EDGE('',*,*,#867,.F.);
#874 = CYLINDRICAL_SURFACE('',#875,0.325);
#875 = AXIS2_PLACEMENT_3D('',#876,#877,#878);
#876 = CARTESIAN_POINT('',(-5.,-17.,5.5));
#877 = DIRECTION('',(0.,1.,0.));
#878 = DIRECTION('',(0.,0.,1.));
#879 = ADVANCED_FACE('',(#880),#891,.F.);
#880 = FACE_BOUND('',#881,.F.);
#881 = EDGE_LOOP('',(#882,#883,#890));
#882 = ORIENTED_EDGE('',*,*,#720,.T.);
#883 = ORIENTED_EDGE('',*,*,#884,.F.);
#884 = EDGE_CURVE('',#694,#712,#885,.T.);
#885 = CIRCLE('',#886,0.65);
#886 = AXIS2_PLACEMENT_3D('',#887,#888,#889);
#887 = CARTESIAN_POINT('',(-39.,-17.,5.5));
#888 = DIRECTION('',(0.,0.,1.));
#889 = DIRECTION('',(1.,0.,0.));
#890 = ORIENTED_EDGE('',*,*,#693,.T.);
#891 = SPHERICAL_SURFACE('',#892,0.65);
#892 = AXIS2_PLACEMENT_3D('',#893,#894,#895);
#893 = CARTESIAN_POINT('',(-39.,-17.,5.5));
#894 = DIRECTION('',(0.,0.,1.));
#895 = DIRECTION('',(1.,0.,0.));
#896 = ADVANCED_FACE('',(#897),#936,.F.);
#897 = FACE_BOUND('',#898,.F.);
#898 = EDGE_LOOP('',(#899,#900,#901,#909,#918,#927,#934,#935));
#899 = ORIENTED_EDGE('',*,*,#884,.T.);
#900 = ORIENTED_EDGE('',*,*,#711,.T.);
#901 = ORIENTED_EDGE('',*,*,#902,.T.);
#902 = EDGE_CURVE('',#703,#903,#905,.T.);
#903 = VERTEX_POINT('',#904);
#904 = CARTESIAN_POINT('',(-38.35,-17.,28.85));
#905 = LINE('',#906,#907);
#906 = CARTESIAN_POINT('',(-38.35,-17.,5.5));
#907 = VECTOR('',#908,1.);
#908 = DIRECTION('',(0.,0.,1.));
#909 = ORIENTED_EDGE('',*,*,#910,.F.);
#910 = EDGE_CURVE('',#911,#903,#913,.T.);
#911 = VERTEX_POINT('',#912);
#912 = CARTESIAN_POINT('',(-39.,-17.65,29.5));
#913 = ELLIPSE('',#914,0.919238815543,0.65);
#914 = AXIS2_PLACEMENT_3D('',#915,#916,#917);
#915 = CARTESIAN_POINT('',(-39.,-17.,29.5));
#916 = DIRECTION('',(0.707106781187,0.,0.707106781187));
#917 = DIRECTION('',(-0.707106781187,0.,0.707106781187));
#918 = ORIENTED_EDGE('',*,*,#919,.F.);
#919 = EDGE_CURVE('',#920,#911,#922,.T.);
#920 = VERTEX_POINT('',#921);
#921 = CARTESIAN_POINT('',(-39.,-16.35,29.5));
#922 = CIRCLE('',#923,0.65);
#923 = AXIS2_PLACEMENT_3D('',#924,#925,#926);
#924 = CARTESIAN_POINT('',(-39.,-17.,29.5));
#925 = DIRECTION('',(0.,0.,1.));
#926 = DIRECTION('',(1.,0.,0.));
#927 = ORIENTED_EDGE('',*,*,#928,.F.);
#928 = EDGE_CURVE('',#903,#920,#929,.T.);
#929 = ELLIPSE('',#930,0.919238815543,0.65);
#930 = AXIS2_PLACEMENT_3D('',#931,#932,#933);
#931 = CARTESIAN_POINT('',(-39.,-17.,29.5));
#932 = DIRECTION('',(0.707106781187,0.,0.707106781187));
#933 = DIRECTION('',(-0.707106781187,0.,0.707106781187));
#934 = ORIENTED_EDGE('',*,*,#902,.F.);
#935 = ORIENTED_EDGE('',*,*,#702,.T.);
#936 = CYLINDRICAL_SURFACE('',#937,0.65);
#937 = AXIS2_PLACEMENT_3D('',#938,#939,#940);
#938 = CARTESIAN_POINT('',(-39.,-17.,5.5));
#939 = DIRECTION('',(0.,0.,1.));
#940 = DIRECTION('',(1.,0.,0.));
#941 = ADVANCED_FACE('',(#942),#987,.T.);
#942 = FACE_BOUND('',#943,.T.);
#943 = EDGE_LOOP('',(#944,#945,#954,#962,#971,#978,#979,#986));
#944 = ORIENTED_EDGE('',*,*,#849,.T.);
#945 = ORIENTED_EDGE('',*,*,#946,.T.);
#946 = EDGE_CURVE('',#841,#947,#949,.T.);
#947 = VERTEX_POINT('',#948);
#948 = CARTESIAN_POINT('',(-39.,-17.,30.9));
#949 = CIRCLE('',#950,1.4);
#950 = AXIS2_PLACEMENT_3D('',#951,#952,#953);
#951 = CARTESIAN_POINT('',(-39.,-17.,29.5));
#952 = DIRECTION('',(1.,0.,-0.));
#953 = DIRECTION('',(0.,0.,1.));
#954 = ORIENTED_EDGE('',*,*,#955,.T.);
#955 = EDGE_CURVE('',#947,#956,#958,.T.);
#956 = VERTEX_POINT('',#957);
#957 = CARTESIAN_POINT('',(-20.92,-17.,30.9));
#958 = LINE('',#959,#960);
#959 = CARTESIAN_POINT('',(-39.,-17.,30.9));
#960 = VECTOR('',#961,1.);
#961 = DIRECTION('',(1.,0.,0.));
#962 = ORIENTED_EDGE('',*,*,#963,.F.);
#963 = EDGE_CURVE('',#964,#956,#966,.T.);
#964 = VERTEX_POINT('',#965);
#965 = CARTESIAN_POINT('',(-20.92,-17.,28.1));
#966 = ELLIPSE('',#967,1.979898987322,1.4);
#967 = AXIS2_PLACEMENT_3D('',#968,#969,#970);
#968 = CARTESIAN_POINT('',(-20.92,-17.,29.5));
#969 = DIRECTION('',(0.707106781187,0.707106781187,0.));
#970 = DIRECTION('',(0.707106781187,-0.707106781187,0.));
#971 = ORIENTED_EDGE('',*,*,#972,.F.);
#972 = EDGE_CURVE('',#956,#964,#973,.T.);
#973 = CIRCLE('',#974,1.4);
#974 = AXIS2_PLACEMENT_3D('',#975,#976,#977);
#975 = CARTESIAN_POINT('',(-20.92,-17.,29.5));
#976 = DIRECTION('',(1.,0.,-0.));
#977 = DIRECTION('',(0.,0.,1.));
#978 = ORIENTED_EDGE('',*,*,#955,.F.);
#979 = ORIENTED_EDGE('',*,*,#980,.T.);
#980 = EDGE_CURVE('',#947,#832,#981,.T.);
#981 = CIRCLE('',#982,1.4);
#982 = AXIS2_PLACEMENT_3D('',#983,#984,#985);
#983 = CARTESIAN_POINT('',(-39.,-17.,29.5));
#984 = DIRECTION('',(1.,0.,-0.));
#985 = DIRECTION('',(0.,0.,1.));
#986 = ORIENTED_EDGE('',*,*,#831,.T.);
#987 = CYLINDRICAL_SURFACE('',#988,1.4);
#988 = AXIS2_PLACEMENT_3D('',#989,#990,#991);
#989 = CARTESIAN_POINT('',(-39.,-17.,29.5));
#990 = DIRECTION('',(1.,0.,0.));
#991 = DIRECTION('',(0.,0.,1.));
#992 = ADVANCED_FACE('',(#993),#998,.T.);
#993 = FACE_BOUND('',#994,.T.);
#994 = EDGE_LOOP('',(#995,#996,#997));
#995 = ORIENTED_EDGE('',*,*,#980,.F.);
#996 = ORIENTED_EDGE('',*,*,#946,.F.);
#997 = ORIENTED_EDGE('',*,*,#840,.T.);
#998 = SPHERICAL_SURFACE('',#999,1.4);
#999 = AXIS2_PLACEMENT_3D('',#1000,#1001,#1002);
#1000 = CARTESIAN_POINT('',(-39.,-17.,29.5));
#1001 = DIRECTION('',(0.,0.,1.));
#1002 = DIRECTION('',(1.,0.,0.));
#1003 = ADVANCED_FACE('',(#1004),#1049,.F.);
#1004 = FACE_BOUND('',#1005,.F.);
#1005 = EDGE_LOOP('',(#1006,#1007,#1016,#1024,#1033,#1040,#1041,#1048));
#1006 = ORIENTED_EDGE('',*,*,#928,.T.);
#1007 = ORIENTED_EDGE('',*,*,#1008,.T.);
#1008 = EDGE_CURVE('',#920,#1009,#1011,.T.);
#1009 = VERTEX_POINT('',#1010);
#1010 = CARTESIAN_POINT('',(-39.,-17.,30.15));
#1011 = CIRCLE('',#1012,0.65);
#1012 = AXIS2_PLACEMENT_3D('',#1013,#1014,#1015);
#1013 = CARTESIAN_POINT('',(-39.,-17.,29.5));
#1014 = DIRECTION('',(1.,0.,-0.));
#1015 = DIRECTION('',(0.,0.,1.));
#1016 = ORIENTED_EDGE('',*,*,#1017,.T.);
#1017 = EDGE_CURVE('',#1009,#1018,#1020,.T.);
#1018 = VERTEX_POINT('',#1019);
#1019 = CARTESIAN_POINT('',(-20.92,-17.,30.15));
#1020 = LINE('',#1021,#1022);
#1021 = CARTESIAN_POINT('',(-39.,-17.,30.15));
#1022 = VECTOR('',#1023,1.);
#1023 = DIRECTION('',(1.,0.,0.));
#1024 = ORIENTED_EDGE('',*,*,#1025,.F.);
#1025 = EDGE_CURVE('',#1026,#1018,#1028,.T.);
#1026 = VERTEX_POINT('',#1027);
#1027 = CARTESIAN_POINT('',(-20.92,-17.,28.85));
#1028 = ELLIPSE('',#1029,0.919238815543,0.65);
#1029 = AXIS2_PLACEMENT_3D('',#1030,#1031,#1032);
#1030 = CARTESIAN_POINT('',(-20.92,-17.,29.5));
#1031 = DIRECTION('',(0.707106781187,0.707106781187,0.));
#1032 = DIRECTION('',(0.707106781187,-0.707106781187,0.));
#1033 = ORIENTED_EDGE('',*,*,#1034,.F.);
#1034 = EDGE_CURVE('',#1018,#1026,#1035,.T.);
#1035 = CIRCLE('',#1036,0.65);
#1036 = AXIS2_PLACEMENT_3D('',#1037,#1038,#1039);
#1037 = CARTESIAN_POINT('',(-20.92,-17.,29.5));
#1038 = DIRECTION('',(1.,0.,-0.));
#1039 = DIRECTION('',(0.,0.,1.));
#1040 = ORIENTED_EDGE('',*,*,#1017,.F.);
#1041 = ORIENTED_EDGE('',*,*,#1042,.T.);
#1042 = EDGE_CURVE('',#1009,#911,#1043,.T.);
#1043 = CIRCLE('',#1044,0.65);
#1044 = AXIS2_PLACEMENT_3D('',#1045,#1046,#1047);
#1045 = CARTESIAN_POINT('',(-39.,-17.,29.5));
#1046 = DIRECTION('',(1.,0.,-0.));
#1047 = DIRECTION('',(0.,0.,1.));
#1048 = ORIENTED_EDGE('',*,*,#910,.T.);
#1049 = CYLINDRICAL_SURFACE('',#1050,0.65);
#1050 = AXIS2_PLACEMENT_3D('',#1051,#1052,#1053);
#1051 = CARTESIAN_POINT('',(-39.,-17.,29.5));
#1052 = DIRECTION('',(1.,0.,0.));
#1053 = DIRECTION('',(0.,0.,1.));
#1054 = ADVANCED_FACE('',(#1055),#1060,.F.);
#1055 = FACE_BOUND('',#1056,.F.);
#1056 = EDGE_LOOP('',(#1057,#1058,#1059));
#1057 = ORIENTED_EDGE('',*,*,#1042,.F.);
#1058 = ORIENTED_EDGE('',*,*,#1008,.F.);
#1059 = ORIENTED_EDGE('',*,*,#919,.T.);
#1060 = SPHERICAL_SURFACE('',#1061,0.65);
#1061 = AXIS2_PLACEMENT_3D('',#1062,#1063,#1064);
#1062 = CARTESIAN_POINT('',(-39.,-17.,29.5));
#1063 = DIRECTION('',(0.,0.,1.));
#1064 = DIRECTION('',(1.,0.,0.));
#1065 = ADVANCED_FACE('',(#1066),#1076,.T.);
#1066 = FACE_BOUND('',#1067,.T.);
#1067 = EDGE_LOOP('',(#1068,#1075));
#1068 = ORIENTED_EDGE('',*,*,#1069,.T.);
#1069 = EDGE_CURVE('',#964,#956,#1070,.T.);
#1070 = CIRCLE('',#1071,1.4);
#1071 = AXIS2_PLACEMENT_3D('',#1072,#1073,#1074);
#1072 = CARTESIAN_POINT('',(-20.92,-17.,29.5));
#1073 = DIRECTION('',(-2.449293598295E-16,-1.,0.));
#1074 = DIRECTION('',(1.,-2.449293598295E-16,0.));
#1075 = ORIENTED_EDGE('',*,*,#972,.T.);
#1076 = SPHERICAL_SURFACE('',#1077,1.4);
#1077 = AXIS2_PLACEMENT_3D('',#1078,#1079,#1080);
#1078 = CARTESIAN_POINT('',(-20.92,-17.,29.5));
#1079 = DIRECTION('',(0.,0.,1.));
#1080 = DIRECTION('',(1.,0.,0.));
#1081 = ADVANCED_FACE('',(#1082),#1120,.T.);
#1082 = FACE_BOUND('',#1083,.T.);
#1083 = EDGE_LOOP('',(#1084,#1085,#1086,#1094,#1103,#1112,#1119));
#1084 = ORIENTED_EDGE('',*,*,#1069,.F.);
#1085 = ORIENTED_EDGE('',*,*,#963,.T.);
#1086 = ORIENTED_EDGE('',*,*,#1087,.T.);
#1087 = EDGE_CURVE('',#956,#1088,#1090,.T.);
#1088 = VERTEX_POINT('',#1089);
#1089 = CARTESIAN_POINT('',(-20.92,-9.5,30.9));
#1090 = LINE('',#1091,#1092);
#1091 = CARTESIAN_POINT('',(-20.92,-17.,30.9));
#1092 = VECTOR('',#1093,1.);
#1093 = DIRECTION('',(0.,1.,0.));
#1094 = ORIENTED_EDGE('',*,*,#1095,.F.);
#1095 = EDGE_CURVE('',#1096,#1088,#1098,.T.);
#1096 = VERTEX_POINT('',#1097);
#1097 = CARTESIAN_POINT('',(-22.32,-9.5,29.5));
#1098 = CIRCLE('',#1099,1.4);
#1099 = AXIS2_PLACEMENT_3D('',#1100,#1101,#1102);
#1100 = CARTESIAN_POINT('',(-20.92,-9.5,29.5));
#1101 = DIRECTION('',(0.,1.,0.));
#1102 = DIRECTION('',(0.,0.,1.));
#1103 = ORIENTED_EDGE('',*,*,#1104,.F.);
#1104 = EDGE_CURVE('',#1105,#1096,#1107,.T.);
#1105 = VERTEX_POINT('',#1106);
#1106 = CARTESIAN_POINT('',(-19.52,-9.5,29.5));
#1107 = ELLIPSE('',#1108,1.979898987322,1.4);
#1108 = AXIS2_PLACEMENT_3D('',#1109,#1110,#1111);
#1109 = CARTESIAN_POINT('',(-20.92,-9.5,29.5));
#1110 = DIRECTION('',(0.,0.707106781187,-0.707106781187));
#1111 = DIRECTION('',(0.,0.707106781187,0.707106781187));
#1112 = ORIENTED_EDGE('',*,*,#1113,.F.);
#1113 = EDGE_CURVE('',#1088,#1105,#1114,.T.);
#1114 = CIRCLE('',#1115,1.4);
#1115 = AXIS2_PLACEMENT_3D('',#1116,#1117,#1118);
#1116 = CARTESIAN_POINT('',(-20.92,-9.5,29.5));
#1117 = DIRECTION('',(0.,1.,0.));
#1118 = DIRECTION('',(0.,0.,1.));
#1119 = ORIENTED_EDGE('',*,*,#1087,.F.);
#1120 = CYLINDRICAL_SURFACE('',#1121,1.4);
#1121 = AXIS2_PLACEMENT_3D('',#1122,#1123,#1124);
#1122 = CARTESIAN_POINT('',(-20.92,-17.,29.5));
#1123 = DIRECTION('',(0.,1.,0.));
#1124 = DIRECTION('',(0.,0.,1.));
#1125 = ADVANCED_FACE('',(#1126),#1136,.F.);
#1126 = FACE_BOUND('',#1127,.F.);
#1127 = EDGE_LOOP('',(#1128,#1135));
#1128 = ORIENTED_EDGE('',*,*,#1129,.T.);
#1129 = EDGE_CURVE('',#1026,#1018,#1130,.T.);
#1130 = CIRCLE('',#1131,0.65);
#1131 = AXIS2_PLACEMENT_3D('',#1132,#1133,#1134);
#1132 = CARTESIAN_POINT('',(-20.92,-17.,29.5));
#1133 = DIRECTION('',(-2.449293598295E-16,-1.,0.));
#1134 = DIRECTION('',(1.,-2.449293598295E-16,0.));
#1135 = ORIENTED_EDGE('',*,*,#1034,.T.);
#1136 = SPHERICAL_SURFACE('',#1137,0.65);
#1137 = AXIS2_PLACEMENT_3D('',#1138,#1139,#1140);
#1138 = CARTESIAN_POINT('',(-20.92,-17.,29.5));
#1139 = DIRECTION('',(0.,0.,1.));
#1140 = DIRECTION('',(1.,0.,0.));
#1141 = ADVANCED_FACE('',(#1142),#1180,.F.);
#1142 = FACE_BOUND('',#1143,.F.);
#1143 = EDGE_LOOP('',(#1144,#1145,#1146,#1154,#1163,#1172,#1179));
#1144 = ORIENTED_EDGE('',*,*,#1129,.F.);
#1145 = ORIENTED_EDGE('',*,*,#1025,.T.);
#1146 = ORIENTED_EDGE('',*,*,#1147,.T.);
#1147 = EDGE_CURVE('',#1018,#1148,#1150,.T.);
#1148 = VERTEX_POINT('',#1149);
#1149 = CARTESIAN_POINT('',(-20.92,-9.5,30.15));
#1150 = LINE('',#1151,#1152);
#1151 = CARTESIAN_POINT('',(-20.92,-17.,30.15));
#1152 = VECTOR('',#1153,1.);
#1153 = DIRECTION('',(0.,1.,0.));
#1154 = ORIENTED_EDGE('',*,*,#1155,.F.);
#1155 = EDGE_CURVE('',#1156,#1148,#1158,.T.);
#1156 = VERTEX_POINT('',#1157);
#1157 = CARTESIAN_POINT('',(-21.57,-9.5,29.5));
#1158 = CIRCLE('',#1159,0.65);
#1159 = AXIS2_PLACEMENT_3D('',#1160,#1161,#1162);
#1160 = CARTESIAN_POINT('',(-20.92,-9.5,29.5));
#1161 = DIRECTION('',(0.,1.,0.));
#1162 = DIRECTION('',(0.,0.,1.));
#1163 = ORIENTED_EDGE('',*,*,#1164,.F.);
#1164 = EDGE_CURVE('',#1165,#1156,#1167,.T.);
#1165 = VERTEX_POINT('',#1166);
#1166 = CARTESIAN_POINT('',(-20.27,-9.5,29.5));
#1167 = ELLIPSE('',#1168,0.919238815543,0.65);
#1168 = AXIS2_PLACEMENT_3D('',#1169,#1170,#1171);
#1169 = CARTESIAN_POINT('',(-20.92,-9.5,29.5));
#1170 = DIRECTION('',(0.,0.707106781187,-0.707106781187));
#1171 = DIRECTION('',(0.,0.707106781187,0.707106781187));
#1172 = ORIENTED_EDGE('',*,*,#1173,.F.);
#1173 = EDGE_CURVE('',#1148,#1165,#1174,.T.);
#1174 = CIRCLE('',#1175,0.65);
#1175 = AXIS2_PLACEMENT_3D('',#1176,#1177,#1178);
#1176 = CARTESIAN_POINT('',(-20.92,-9.5,29.5));
#1177 = DIRECTION('',(0.,1.,0.));
#1178 = DIRECTION('',(0.,0.,1.));
#1179 = ORIENTED_EDGE('',*,*,#1147,.F.);
#1180 = CYLINDRICAL_SURFACE('',#1181,0.65);
#1181 = AXIS2_PLACEMENT_3D('',#1182,#1183,#1184);
#1182 = CARTESIAN_POINT('',(-20.92,-17.,29.5));
#1183 = DIRECTION('',(0.,1.,0.));
#1184 = DIRECTION('',(0.,0.,1.));
#1185 = ADVANCED_FACE('',(#1186),#1197,.T.);
#1186 = FACE_BOUND('',#1187,.T.);
#1187 = EDGE_LOOP('',(#1188,#1189,#1196));
#1188 = ORIENTED_EDGE('',*,*,#1113,.T.);
#1189 = ORIENTED_EDGE('',*,*,#1190,.F.);
#1190 = EDGE_CURVE('',#1096,#1105,#1191,.T.);
#1191 = CIRCLE('',#1192,1.4);
#1192 = AXIS2_PLACEMENT_3D('',#1193,#1194,#1195);
#1193 = CARTESIAN_POINT('',(-20.92,-9.5,29.5));
#1194 = DIRECTION('',(0.,0.,-1.));
#1195 = DIRECTION('',(-1.,0.,0.));
#1196 = ORIENTED_EDGE('',*,*,#1095,.T.);
#1197 = SPHERICAL_SURFACE('',#1198,1.4);
#1198 = AXIS2_PLACEMENT_3D('',#1199,#1200,#1201);
#1199 = CARTESIAN_POINT('',(-20.92,-9.5,29.5));
#1200 = DIRECTION('',(0.,0.,1.));
#1201 = DIRECTION('',(1.,0.,0.));
#1202 = ADVANCED_FACE('',(#1203),#1232,.T.);
#1203 = FACE_BOUND('',#1204,.T.);
#1204 = EDGE_LOOP('',(#1205,#1206,#1207,#1215,#1224,#1231));
#1205 = ORIENTED_EDGE('',*,*,#1190,.T.);
#1206 = ORIENTED_EDGE('',*,*,#1104,.T.);
#1207 = ORIENTED_EDGE('',*,*,#1208,.T.);
#1208 = EDGE_CURVE('',#1096,#1209,#1211,.T.);
#1209 = VERTEX_POINT('',#1210);
#1210 = CARTESIAN_POINT('',(-22.32,-9.5,27.6));
#1211 = LINE('',#1212,#1213);
#1212 = CARTESIAN_POINT('',(-22.32,-9.5,29.5));
#1213 = VECTOR('',#1214,1.);
#1214 = DIRECTION('',(0.,0.,-1.));
#1215 = ORIENTED_EDGE('',*,*,#1216,.F.);
#1216 = EDGE_CURVE('',#1217,#1209,#1219,.T.);
#1217 = VERTEX_POINT('',#1218);
#1218 = CARTESIAN_POINT('',(-19.52,-9.5,27.6));
#1219 = CIRCLE('',#1220,1.4);
#1220 = AXIS2_PLACEMENT_3D('',#1221,#1222,#1223);
#1221 = CARTESIAN_POINT('',(-20.92,-9.5,27.6));
#1222 = DIRECTION('',(0.,0.,-1.));
#1223 = DIRECTION('',(-1.,0.,0.));
#1224 = ORIENTED_EDGE('',*,*,#1225,.F.);
#1225 = EDGE_CURVE('',#1209,#1217,#1226,.T.);
#1226 = CIRCLE('',#1227,1.4);
#1227 = AXIS2_PLACEMENT_3D('',#1228,#1229,#1230);
#1228 = CARTESIAN_POINT('',(-20.92,-9.5,27.6));
#1229 = DIRECTION('',(0.,0.,-1.));
#1230 = DIRECTION('',(-1.,0.,0.));
#1231 = ORIENTED_EDGE('',*,*,#1208,.F.);
#1232 = CYLINDRICAL_SURFACE('',#1233,1.4);
#1233 = AXIS2_PLACEMENT_3D('',#1234,#1235,#1236);
#1234 = CARTESIAN_POINT('',(-20.92,-9.5,29.5));
#1235 = DIRECTION('',(0.,0.,-1.));
#1236 = DIRECTION('',(-1.,0.,0.));
#1237 = ADVANCED_FACE('',(#1238),#1249,.F.);
#1238 = FACE_BOUND('',#1239,.F.);
#1239 = EDGE_LOOP('',(#1240,#1241,#1248));
#1240 = ORIENTED_EDGE('',*,*,#1173,.T.);
#1241 = ORIENTED_EDGE('',*,*,#1242,.F.);
#1242 = EDGE_CURVE('',#1156,#1165,#1243,.T.);
#1243 = CIRCLE('',#1244,0.65);
#1244 = AXIS2_PLACEMENT_3D('',#1245,#1246,#1247);
#1245 = CARTESIAN_POINT('',(-20.92,-9.5,29.5));
#1246 = DIRECTION('',(0.,0.,-1.));
#1247 = DIRECTION('',(-1.,0.,0.));
#1248 = ORIENTED_EDGE('',*,*,#1155,.T.);
#1249 = SPHERICAL_SURFACE('',#1250,0.65);
#1250 = AXIS2_PLACEMENT_3D('',#1251,#1252,#1253);
#1251 = CARTESIAN_POINT('',(-20.92,-9.5,29.5));
#1252 = DIRECTION('',(0.,0.,1.));
#1253 = DIRECTION('',(1.,0.,0.));
#1254 = ADVANCED_FACE('',(#1255),#1284,.F.);
#1255 = FACE_BOUND('',#1256,.F.);
#1256 = EDGE_LOOP('',(#1257,#1258,#1259,#1267,#1276,#1283));
#1257 = ORIENTED_EDGE('',*,*,#1242,.T.);
#1258 = ORIENTED_EDGE('',*,*,#1164,.T.);
#1259 = ORIENTED_EDGE('',*,*,#1260,.T.);
#1260 = EDGE_CURVE('',#1156,#1261,#1263,.T.);
#1261 = VERTEX_POINT('',#1262);
#1262 = CARTESIAN_POINT('',(-21.57,-9.5,27.6));
#1263 = LINE('',#1264,#1265);
#1264 = CARTESIAN_POINT('',(-21.57,-9.5,29.5));
#1265 = VECTOR('',#1266,1.);
#1266 = DIRECTION('',(0.,0.,-1.));
#1267 = ORIENTED_EDGE('',*,*,#1268,.F.);
#1268 = EDGE_CURVE('',#1269,#1261,#1271,.T.);
#1269 = VERTEX_POINT('',#1270);
#1270 = CARTESIAN_POINT('',(-20.27,-9.5,27.6));
#1271 = CIRCLE('',#1272,0.65);
#1272 = AXIS2_PLACEMENT_3D('',#1273,#1274,#1275);
#1273 = CARTESIAN_POINT('',(-20.92,-9.5,27.6));
#1274 = DIRECTION('',(0.,0.,-1.));
#1275 = DIRECTION('',(-1.,0.,0.));
#1276 = ORIENTED_EDGE('',*,*,#1277,.F.);
#1277 = EDGE_CURVE('',#1261,#1269,#1278,.T.);
#1278 = CIRCLE('',#1279,0.65);
#1279 = AXIS2_PLACEMENT_3D('',#1280,#1281,#1282);
#1280 = CARTESIAN_POINT('',(-20.92,-9.5,27.6));
#1281 = DIRECTION('',(0.,0.,-1.));
#1282 = DIRECTION('',(-1.,0.,0.));
#1283 = ORIENTED_EDGE('',*,*,#1260,.F.);
#1284 = CYLINDRICAL_SURFACE('',#1285,0.65);
#1285 = AXIS2_PLACEMENT_3D('',#1286,#1287,#1288);
#1286 = CARTESIAN_POINT('',(-20.92,-9.5,29.5));
#1287 = DIRECTION('',(0.,0.,-1.));
#1288 = DIRECTION('',(-1.,0.,0.));
#1289 = ADVANCED_FACE('',(#1290,#1294),#1298,.F.);
#1290 = FACE_BOUND('',#1291,.F.);
#1291 = EDGE_LOOP('',(#1292,#1293));
#1292 = ORIENTED_EDGE('',*,*,#1225,.F.);
#1293 = ORIENTED_EDGE('',*,*,#1216,.F.);
#1294 = FACE_BOUND('',#1295,.F.);
#1295 = EDGE_LOOP('',(#1296,#1297));
#1296 = ORIENTED_EDGE('',*,*,#1268,.T.);
#1297 = ORIENTED_EDGE('',*,*,#1277,.T.);
#1298 = PLANE('',#1299);
#1299 = AXIS2_PLACEMENT_3D('',#1300,#1301,#1302);
#1300 = CARTESIAN_POINT('',(-23.92,-12.5,27.6));
#1301 = DIRECTION('',(0.,0.,1.));
#1302 = DIRECTION('',(1.,0.,0.));
#1303 = ( GEOMETRIC_REPRESENTATION_CONTEXT(3) 
GLOBAL_UNCERTAINTY_ASSIGNED_CONTEXT((#1307)) 
GLOBAL_UNIT_ASSIGNED_CONTEXT((#1304,#1305,#1306)) REPRESENTATION_CONTEXT
('Context #1','3D Context with UNIT and UNCERTAINTY') );
#1304 = ( LENGTH_UNIT() NAMED_UNIT(*) SI_UNIT(.MILLI.,.METRE.) );
#1305 = ( NAMED_UNIT(*) PLANE_ANGLE_UNIT() SI_UNIT($,.RADIAN.) );
#1306 = ( NAMED_UNIT(*) SI_UNIT($,.STERADIAN.) SOLID_ANGLE_UNIT() );
#1307 = UNCERTAINTY_MEASURE_WITH_UNIT(LENGTH_MEASURE(2.E-07),#1304,
  'distance_accuracy_value','confusion accuracy');
#1308 = PRODUCT_RELATED_PRODUCT_CATEGORY('part',$,(#7));
ENDSEC;
END-ISO-10303-21;
