ISO-10303-21;
HEADER;
FILE_DESCRIPTION(('FreeCAD Model'),'2;1');
FILE_NAME('Open CASCADE Shape Model','2026-09-30T01:44:47',('FreeCAD'),(
    'FreeCAD'),'Open CASCADE STEP processor 7.8','FreeCAD','Unknown');
FILE_SCHEMA(('AUTOMOTIVE_DESIGN { 1 0 10303 214 1 1 1 1 }'));
ENDSEC;
DATA;
#1 = APPLICATION_PROTOCOL_DEFINITION('international standard',
  'automotive_design',2000,#2);
#2 = APPLICATION_CONTEXT(
  'core data for automotive mechanical design processes');
#3 = SHAPE_DEFINITION_REPRESENTATION(#4,#10);
#4 = PRODUCT_DEFINITION_SHAPE('','',#5);
#5 = PRODUCT_DEFINITION('design','',#6,#9);
#6 = PRODUCT_DEFINITION_FORMATION('','',#7);
#7 = PRODUCT('Open CASCADE STEP translator 7.8 39',
  'Open CASCADE STEP translator 7.8 39','',(#8));
#8 = PRODUCT_CONTEXT('',#2,'mechanical');
#9 = PRODUCT_DEFINITION_CONTEXT('part definition',#2,'design');
#10 = ADVANCED_BREP_SHAPE_REPRESENTATION('',(#11,#15),#474);
#11 = AXIS2_PLACEMENT_3D('',#12,#13,#14);
#12 = CARTESIAN_POINT('',(0.,0.,0.));
#13 = DIRECTION('',(0.,0.,1.));
#14 = DIRECTION('',(1.,0.,-0.));
#15 = MANIFOLD_SOLID_BREP('',#16);
#16 = CLOSED_SHELL('',(#17,#44,#87,#112,#149,#165,#218,#235,#280,#331,
    #342,#358,#402,#419,#454));
#17 = ADVANCED_FACE('',(#18),#39,.T.);
#18 = FACE_BOUND('',#19,.T.);
#19 = EDGE_LOOP('',(#20,#29,#38));
#20 = ORIENTED_EDGE('',*,*,#21,.F.);
#21 = EDGE_CURVE('',#22,#22,#24,.T.);
#22 = VERTEX_POINT('',#23);
#23 = CARTESIAN_POINT('',(14.65,-7.,4.7));
#24 = CIRCLE('',#25,0.65);
#25 = AXIS2_PLACEMENT_3D('',#26,#27,#28);
#26 = CARTESIAN_POINT('',(14.,-7.,4.7));
#27 = DIRECTION('',(0.,0.,1.));
#28 = DIRECTION('',(1.,0.,0.));
#29 = ORIENTED_EDGE('',*,*,#30,.F.);
#30 = EDGE_CURVE('',#31,#22,#33,.T.);
#31 = VERTEX_POINT('',#32);
#32 = CARTESIAN_POINT('',(14.,-7.,4.05));
#33 = CIRCLE('',#34,0.65);
#34 = AXIS2_PLACEMENT_3D('',#35,#36,#37);
#35 = CARTESIAN_POINT('',(14.,-7.,4.7));
#36 = DIRECTION('',(-2.449293598295E-16,-1.,0.));
#37 = DIRECTION('',(1.,-2.449293598295E-16,0.));
#38 = ORIENTED_EDGE('',*,*,#30,.T.);
#39 = SPHERICAL_SURFACE('',#40,0.65);
#40 = AXIS2_PLACEMENT_3D('',#41,#42,#43);
#41 = CARTESIAN_POINT('',(14.,-7.,4.7));
#42 = DIRECTION('',(0.,0.,1.));
#43 = DIRECTION('',(1.,0.,0.));
#44 = ADVANCED_FACE('',(#45),#82,.T.);
#45 = FACE_BOUND('',#46,.T.);
#46 = EDGE_LOOP('',(#47,#58,#64,#65,#66,#75));
#47 = ORIENTED_EDGE('',*,*,#48,.F.);
#48 = EDGE_CURVE('',#49,#51,#53,.T.);
#49 = VERTEX_POINT('',#50);
#50 = CARTESIAN_POINT('',(14.65,-7.,5.5));
#51 = VERTEX_POINT('',#52);
#52 = CARTESIAN_POINT('',(13.35,-7.,5.5));
#53 = CIRCLE('',#54,0.65);
#54 = AXIS2_PLACEMENT_3D('',#55,#56,#57);
#55 = CARTESIAN_POINT('',(14.,-7.,5.5));
#56 = DIRECTION('',(0.,0.,1.));
#57 = DIRECTION('',(1.,0.,0.));
#58 = ORIENTED_EDGE('',*,*,#59,.F.);
#59 = EDGE_CURVE('',#22,#49,#60,.T.);
#60 = LINE('',#61,#62);
#61 = CARTESIAN_POINT('',(14.65,-7.,4.7));
#62 = VECTOR('',#63,1.);
#63 = DIRECTION('',(0.,0.,1.));
#64 = ORIENTED_EDGE('',*,*,#21,.T.);
#65 = ORIENTED_EDGE('',*,*,#59,.T.);
#66 = ORIENTED_EDGE('',*,*,#67,.F.);
#67 = EDGE_CURVE('',#68,#49,#70,.T.);
#68 = VERTEX_POINT('',#69);
#69 = CARTESIAN_POINT('',(14.,-7.65,4.85));
#70 = ELLIPSE('',#71,0.919238815543,0.65);
#71 = AXIS2_PLACEMENT_3D('',#72,#73,#74);
#72 = CARTESIAN_POINT('',(14.,-7.,5.5));
#73 = DIRECTION('',(0.,-0.707106781187,0.707106781187));
#74 = DIRECTION('',(0.,0.707106781187,0.707106781187));
#75 = ORIENTED_EDGE('',*,*,#76,.F.);
#76 = EDGE_CURVE('',#51,#68,#77,.T.);
#77 = ELLIPSE('',#78,0.919238815543,0.65);
#78 = AXIS2_PLACEMENT_3D('',#79,#80,#81);
#79 = CARTESIAN_POINT('',(14.,-7.,5.5));
#80 = DIRECTION('',(0.,-0.707106781187,0.707106781187));
#81 = DIRECTION('',(0.,0.707106781187,0.707106781187));
#82 = CYLINDRICAL_SURFACE('',#83,0.65);
#83 = AXIS2_PLACEMENT_3D('',#84,#85,#86);
#84 = CARTESIAN_POINT('',(14.,-7.,4.7));
#85 = DIRECTION('',(0.,0.,1.));
#86 = DIRECTION('',(1.,0.,0.));
#87 = ADVANCED_FACE('',(#88),#107,.T.);
#88 = FACE_BOUND('',#89,.T.);
#89 = EDGE_LOOP('',(#90,#99,#100));
#90 = ORIENTED_EDGE('',*,*,#91,.F.);
#91 = EDGE_CURVE('',#49,#92,#94,.T.);
#92 = VERTEX_POINT('',#93);
#93 = CARTESIAN_POINT('',(14.,-7.,6.15));
#94 = CIRCLE('',#95,0.65);
#95 = AXIS2_PLACEMENT_3D('',#96,#97,#98);
#96 = CARTESIAN_POINT('',(14.,-7.,5.5));
#97 = DIRECTION('',(-2.449293598295E-16,-1.,0.));
#98 = DIRECTION('',(1.,-2.449293598295E-16,0.));
#99 = ORIENTED_EDGE('',*,*,#48,.T.);
#100 = ORIENTED_EDGE('',*,*,#101,.F.);
#101 = EDGE_CURVE('',#92,#51,#102,.T.);
#102 = CIRCLE('',#103,0.65);
#103 = AXIS2_PLACEMENT_3D('',#104,#105,#106);
#104 = CARTESIAN_POINT('',(14.,-7.,5.5));
#105 = DIRECTION('',(0.,-1.,0.));
#106 = DIRECTION('',(0.,0.,-1.));
#107 = SPHERICAL_SURFACE('',#108,0.65);
#108 = AXIS2_PLACEMENT_3D('',#109,#110,#111);
#109 = CARTESIAN_POINT('',(14.,-7.,5.5));
#110 = DIRECTION('',(0.,0.,1.));
#111 = DIRECTION('',(1.,0.,0.));
#112 = ADVANCED_FACE('',(#113),#144,.T.);
#113 = FACE_BOUND('',#114,.T.);
#114 = EDGE_LOOP('',(#115,#116,#117,#125,#134,#141,#142,#143));
#115 = ORIENTED_EDGE('',*,*,#101,.T.);
#116 = ORIENTED_EDGE('',*,*,#76,.T.);
#117 = ORIENTED_EDGE('',*,*,#118,.T.);
#118 = EDGE_CURVE('',#68,#119,#121,.T.);
#119 = VERTEX_POINT('',#120);
#120 = CARTESIAN_POINT('',(14.,-17.,4.85));
#121 = LINE('',#122,#123);
#122 = CARTESIAN_POINT('',(14.,-7.,4.85));
#123 = VECTOR('',#124,1.);
#124 = DIRECTION('',(0.,-1.,0.));
#125 = ORIENTED_EDGE('',*,*,#126,.F.);
#126 = EDGE_CURVE('',#127,#119,#129,.T.);
#127 = VERTEX_POINT('',#128);
#128 = CARTESIAN_POINT('',(14.,-17.,6.15));
#129 = ELLIPSE('',#130,0.919238815543,0.65);
#130 = AXIS2_PLACEMENT_3D('',#131,#132,#133);
#131 = CARTESIAN_POINT('',(14.,-17.,5.5));
#132 = DIRECTION('',(-0.707106781187,-0.707106781187,0.));
#133 = DIRECTION('',(0.707106781187,-0.707106781187,0.));
#134 = ORIENTED_EDGE('',*,*,#135,.F.);
#135 = EDGE_CURVE('',#119,#127,#136,.T.);
#136 = CIRCLE('',#137,0.65);
#137 = AXIS2_PLACEMENT_3D('',#138,#139,#140);
#138 = CARTESIAN_POINT('',(14.,-17.,5.5));
#139 = DIRECTION('',(0.,-1.,0.));
#140 = DIRECTION('',(0.,0.,-1.));
#141 = ORIENTED_EDGE('',*,*,#118,.F.);
#142 = ORIENTED_EDGE('',*,*,#67,.T.);
#143 = ORIENTED_EDGE('',*,*,#91,.T.);
#144 = CYLINDRICAL_SURFACE('',#145,0.65);
#145 = AXIS2_PLACEMENT_3D('',#146,#147,#148);
#146 = CARTESIAN_POINT('',(14.,-7.,5.5));
#147 = DIRECTION('',(0.,-1.,0.));
#148 = DIRECTION('',(0.,0.,-1.));
#149 = ADVANCED_FACE('',(#150),#160,.T.);
#150 = FACE_BOUND('',#151,.T.);
#151 = EDGE_LOOP('',(#152,#153));
#152 = ORIENTED_EDGE('',*,*,#135,.T.);
#153 = ORIENTED_EDGE('',*,*,#154,.F.);
#154 = EDGE_CURVE('',#119,#127,#155,.T.);
#155 = CIRCLE('',#156,0.65);
#156 = AXIS2_PLACEMENT_3D('',#157,#158,#159);
#157 = CARTESIAN_POINT('',(14.,-17.,5.5));
#158 = DIRECTION('',(-1.,0.,0.));
#159 = DIRECTION('',(0.,0.,-1.));
#160 = SPHERICAL_SURFACE('',#161,0.65);
#161 = AXIS2_PLACEMENT_3D('',#162,#163,#164);
#162 = CARTESIAN_POINT('',(14.,-17.,5.5));
#163 = DIRECTION('',(0.,0.,1.));
#164 = DIRECTION('',(1.,0.,0.));
#165 = ADVANCED_FACE('',(#166),#213,.T.);
#166 = FACE_BOUND('',#167,.T.);
#167 = EDGE_LOOP('',(#168,#169,#170,#178,#187,#196,#205,#212));
#168 = ORIENTED_EDGE('',*,*,#154,.T.);
#169 = ORIENTED_EDGE('',*,*,#126,.T.);
#170 = ORIENTED_EDGE('',*,*,#171,.T.);
#171 = EDGE_CURVE('',#119,#172,#174,.T.);
#172 = VERTEX_POINT('',#173);
#173 = CARTESIAN_POINT('',(-39.,-17.,4.85));
#174 = LINE('',#175,#176);
#175 = CARTESIAN_POINT('',(14.,-17.,4.85));
#176 = VECTOR('',#177,1.);
#177 = DIRECTION('',(-1.,0.,0.));
#178 = ORIENTED_EDGE('',*,*,#179,.F.);
#179 = EDGE_CURVE('',#180,#172,#182,.T.);
#180 = VERTEX_POINT('',#181);
#181 = CARTESIAN_POINT('',(-39.,-16.35,5.5));
#182 = CIRCLE('',#183,0.65);
#183 = AXIS2_PLACEMENT_3D('',#184,#185,#186);
#184 = CARTESIAN_POINT('',(-39.,-17.,5.5));
#185 = DIRECTION('',(-1.,0.,0.));
#186 = DIRECTION('',(0.,0.,-1.));
#187 = ORIENTED_EDGE('',*,*,#188,.F.);
#188 = EDGE_CURVE('',#189,#180,#191,.T.);
#189 = VERTEX_POINT('',#190);
#190 = CARTESIAN_POINT('',(-38.35,-17.,6.15));
#191 = ELLIPSE('',#192,0.919238815543,0.65);
#192 = AXIS2_PLACEMENT_3D('',#193,#194,#195);
#193 = CARTESIAN_POINT('',(-39.,-17.,5.5));
#194 = DIRECTION('',(-0.707106781187,0.,0.707106781187));
#195 = DIRECTION('',(-0.707106781187,0.,-0.707106781187));
#196 = ORIENTED_EDGE('',*,*,#197,.F.);
#197 = EDGE_CURVE('',#198,#189,#200,.T.);
#198 = VERTEX_POINT('',#199);
#199 = CARTESIAN_POINT('',(-39.,-17.65,5.5));
#200 = ELLIPSE('',#201,0.919238815543,0.65);
#201 = AXIS2_PLACEMENT_3D('',#202,#203,#204);
#202 = CARTESIAN_POINT('',(-39.,-17.,5.5));
#203 = DIRECTION('',(-0.707106781187,0.,0.707106781187));
#204 = DIRECTION('',(-0.707106781187,0.,-0.707106781187));
#205 = ORIENTED_EDGE('',*,*,#206,.F.);
#206 = EDGE_CURVE('',#172,#198,#207,.T.);
#207 = CIRCLE('',#208,0.65);
#208 = AXIS2_PLACEMENT_3D('',#209,#210,#211);
#209 = CARTESIAN_POINT('',(-39.,-17.,5.5));
#210 = DIRECTION('',(-1.,0.,0.));
#211 = DIRECTION('',(0.,0.,-1.));
#212 = ORIENTED_EDGE('',*,*,#171,.F.);
#213 = CYLINDRICAL_SURFACE('',#214,0.65);
#214 = AXIS2_PLACEMENT_3D('',#215,#216,#217);
#215 = CARTESIAN_POINT('',(14.,-17.,5.5));
#216 = DIRECTION('',(-1.,0.,0.));
#217 = DIRECTION('',(0.,0.,-1.));
#218 = ADVANCED_FACE('',(#219),#230,.T.);
#219 = FACE_BOUND('',#220,.T.);
#220 = EDGE_LOOP('',(#221,#222,#229));
#221 = ORIENTED_EDGE('',*,*,#206,.T.);
#222 = ORIENTED_EDGE('',*,*,#223,.F.);
#223 = EDGE_CURVE('',#180,#198,#224,.T.);
#224 = CIRCLE('',#225,0.65);
#225 = AXIS2_PLACEMENT_3D('',#226,#227,#228);
#226 = CARTESIAN_POINT('',(-39.,-17.,5.5));
#227 = DIRECTION('',(0.,0.,1.));
#228 = DIRECTION('',(1.,0.,0.));
#229 = ORIENTED_EDGE('',*,*,#179,.T.);
#230 = SPHERICAL_SURFACE('',#231,0.65);
#231 = AXIS2_PLACEMENT_3D('',#232,#233,#234);
#232 = CARTESIAN_POINT('',(-39.,-17.,5.5));
#233 = DIRECTION('',(0.,0.,1.));
#234 = DIRECTION('',(1.,0.,0.));
#235 = ADVANCED_FACE('',(#236),#275,.T.);
#236 = FACE_BOUND('',#237,.T.);
#237 = EDGE_LOOP('',(#238,#239,#240,#248,#257,#266,#273,#274));
#238 = ORIENTED_EDGE('',*,*,#223,.T.);
#239 = ORIENTED_EDGE('',*,*,#197,.T.);
#240 = ORIENTED_EDGE('',*,*,#241,.T.);
#241 = EDGE_CURVE('',#189,#242,#244,.T.);
#242 = VERTEX_POINT('',#243);
#243 = CARTESIAN_POINT('',(-38.35,-17.,28.85));
#244 = LINE('',#245,#246);
#245 = CARTESIAN_POINT('',(-38.35,-17.,5.5));
#246 = VECTOR('',#247,1.);
#247 = DIRECTION('',(0.,0.,1.));
#248 = ORIENTED_EDGE('',*,*,#249,.F.);
#249 = EDGE_CURVE('',#250,#242,#252,.T.);
#250 = VERTEX_POINT('',#251);
#251 = CARTESIAN_POINT('',(-39.,-17.65,29.5));
#252 = ELLIPSE('',#253,0.919238815543,0.65);
#253 = AXIS2_PLACEMENT_3D('',#254,#255,#256);
#254 = CARTESIAN_POINT('',(-39.,-17.,29.5));
#255 = DIRECTION('',(0.707106781187,0.,0.707106781187));
#256 = DIRECTION('',(-0.707106781187,0.,0.707106781187));
#257 = ORIENTED_EDGE('',*,*,#258,.F.);
#258 = EDGE_CURVE('',#259,#250,#261,.T.);
#259 = VERTEX_POINT('',#260);
#260 = CARTESIAN_POINT('',(-39.,-16.35,29.5));
#261 = CIRCLE('',#262,0.65);
#262 = AXIS2_PLACEMENT_3D('',#263,#264,#265);
#263 = CARTESIAN_POINT('',(-39.,-17.,29.5));
#264 = DIRECTION('',(0.,0.,1.));
#265 = DIRECTION('',(1.,0.,0.));
#266 = ORIENTED_EDGE('',*,*,#267,.F.);
#267 = EDGE_CURVE('',#242,#259,#268,.T.);
#268 = ELLIPSE('',#269,0.919238815543,0.65);
#269 = AXIS2_PLACEMENT_3D('',#270,#271,#272);
#270 = CARTESIAN_POINT('',(-39.,-17.,29.5));
#271 = DIRECTION('',(0.707106781187,0.,0.707106781187));
#272 = DIRECTION('',(-0.707106781187,0.,0.707106781187));
#273 = ORIENTED_EDGE('',*,*,#241,.F.);
#274 = ORIENTED_EDGE('',*,*,#188,.T.);
#275 = CYLINDRICAL_SURFACE('',#276,0.65);
#276 = AXIS2_PLACEMENT_3D('',#277,#278,#279);
#277 = CARTESIAN_POINT('',(-39.,-17.,5.5));
#278 = DIRECTION('',(0.,0.,1.));
#279 = DIRECTION('',(1.,0.,0.));
#280 = ADVANCED_FACE('',(#281),#326,.T.);
#281 = FACE_BOUND('',#282,.T.);
#282 = EDGE_LOOP('',(#283,#284,#293,#301,#310,#317,#318,#325));
#283 = ORIENTED_EDGE('',*,*,#267,.T.);
#284 = ORIENTED_EDGE('',*,*,#285,.T.);
#285 = EDGE_CURVE('',#259,#286,#288,.T.);
#286 = VERTEX_POINT('',#287);
#287 = CARTESIAN_POINT('',(-39.,-17.,30.15));
#288 = CIRCLE('',#289,0.65);
#289 = AXIS2_PLACEMENT_3D('',#290,#291,#292);
#290 = CARTESIAN_POINT('',(-39.,-17.,29.5));
#291 = DIRECTION('',(1.,0.,-0.));
#292 = DIRECTION('',(0.,0.,1.));
#293 = ORIENTED_EDGE('',*,*,#294,.T.);
#294 = EDGE_CURVE('',#286,#295,#297,.T.);
#295 = VERTEX_POINT('',#296);
#296 = CARTESIAN_POINT('',(-20.92,-17.,30.15));
#297 = LINE('',#298,#299);
#298 = CARTESIAN_POINT('',(-39.,-17.,30.15));
#299 = VECTOR('',#300,1.);
#300 = DIRECTION('',(1.,0.,0.));
#301 = ORIENTED_EDGE('',*,*,#302,.F.);
#302 = EDGE_CURVE('',#303,#295,#305,.T.);
#303 = VERTEX_POINT('',#304);
#304 = CARTESIAN_POINT('',(-20.92,-17.,28.85));
#305 = ELLIPSE('',#306,0.919238815543,0.65);
#306 = AXIS2_PLACEMENT_3D('',#307,#308,#309);
#307 = CARTESIAN_POINT('',(-20.92,-17.,29.5));
#308 = DIRECTION('',(0.707106781187,0.707106781187,0.));
#309 = DIRECTION('',(0.707106781187,-0.707106781187,0.));
#310 = ORIENTED_EDGE('',*,*,#311,.F.);
#311 = EDGE_CURVE('',#295,#303,#312,.T.);
#312 = CIRCLE('',#313,0.65);
#313 = AXIS2_PLACEMENT_3D('',#314,#315,#316);
#314 = CARTESIAN_POINT('',(-20.92,-17.,29.5));
#315 = DIRECTION('',(1.,0.,-0.));
#316 = DIRECTION('',(0.,0.,1.));
#317 = ORIENTED_EDGE('',*,*,#294,.F.);
#318 = ORIENTED_EDGE('',*,*,#319,.T.);
#319 = EDGE_CURVE('',#286,#250,#320,.T.);
#320 = CIRCLE('',#321,0.65);
#321 = AXIS2_PLACEMENT_3D('',#322,#323,#324);
#322 = CARTESIAN_POINT('',(-39.,-17.,29.5));
#323 = DIRECTION('',(1.,0.,-0.));
#324 = DIRECTION('',(0.,0.,1.));
#325 = ORIENTED_EDGE('',*,*,#249,.T.);
#326 = CYLINDRICAL_SURFACE('',#327,0.65);
#327 = AXIS2_PLACEMENT_3D('',#328,#329,#330);
#328 = CARTESIAN_POINT('',(-39.,-17.,29.5));
#329 = DIRECTION('',(1.,0.,0.));
#330 = DIRECTION('',(0.,0.,1.));
#331 = ADVANCED_FACE('',(#332),#337,.T.);
#332 = FACE_BOUND('',#333,.T.);
#333 = EDGE_LOOP('',(#334,#335,#336));
#334 = ORIENTED_EDGE('',*,*,#319,.F.);
#335 = ORIENTED_EDGE('',*,*,#285,.F.);
#336 = ORIENTED_EDGE('',*,*,#258,.T.);
#337 = SPHERICAL_SURFACE('',#338,0.65);
#338 = AXIS2_PLACEMENT_3D('',#339,#340,#341);
#339 = CARTESIAN_POINT('',(-39.,-17.,29.5));
#340 = DIRECTION('',(0.,0.,1.));
#341 = DIRECTION('',(1.,0.,0.));
#342 = ADVANCED_FACE('',(#343),#353,.T.);
#343 = FACE_BOUND('',#344,.T.);
#344 = EDGE_LOOP('',(#345,#352));
#345 = ORIENTED_EDGE('',*,*,#346,.T.);
#346 = EDGE_CURVE('',#303,#295,#347,.T.);
#347 = CIRCLE('',#348,0.65);
#348 = AXIS2_PLACEMENT_3D('',#349,#350,#351);
#349 = CARTESIAN_POINT('',(-20.92,-17.,29.5));
#350 = DIRECTION('',(-2.449293598295E-16,-1.,0.));
#351 = DIRECTION('',(1.,-2.449293598295E-16,0.));
#352 = ORIENTED_EDGE('',*,*,#311,.T.);
#353 = SPHERICAL_SURFACE('',#354,0.65);
#354 = AXIS2_PLACEMENT_3D('',#355,#356,#357);
#355 = CARTESIAN_POINT('',(-20.92,-17.,29.5));
#356 = DIRECTION('',(0.,0.,1.));
#357 = DIRECTION('',(1.,0.,0.));
#358 = ADVANCED_FACE('',(#359),#397,.T.);
#359 = FACE_BOUND('',#360,.T.);
#360 = EDGE_LOOP('',(#361,#362,#363,#371,#380,#389,#396));
#361 = ORIENTED_EDGE('',*,*,#346,.F.);
#362 = ORIENTED_EDGE('',*,*,#302,.T.);
#363 = ORIENTED_EDGE('',*,*,#364,.T.);
#364 = EDGE_CURVE('',#295,#365,#367,.T.);
#365 = VERTEX_POINT('',#366);
#366 = CARTESIAN_POINT('',(-20.92,-9.5,30.15));
#367 = LINE('',#368,#369);
#368 = CARTESIAN_POINT('',(-20.92,-17.,30.15));
#369 = VECTOR('',#370,1.);
#370 = DIRECTION('',(0.,1.,0.));
#371 = ORIENTED_EDGE('',*,*,#372,.F.);
#372 = EDGE_CURVE('',#373,#365,#375,.T.);
#373 = VERTEX_POINT('',#374);
#374 = CARTESIAN_POINT('',(-21.57,-9.5,29.5));
#375 = CIRCLE('',#376,0.65);
#376 = AXIS2_PLACEMENT_3D('',#377,#378,#379);
#377 = CARTESIAN_POINT('',(-20.92,-9.5,29.5));
#378 = DIRECTION('',(0.,1.,0.));
#379 = DIRECTION('',(0.,0.,1.));
#380 = ORIENTED_EDGE('',*,*,#381,.F.);
#381 = EDGE_CURVE('',#382,#373,#384,.T.);
#382 = VERTEX_POINT('',#383);
#383 = CARTESIAN_POINT('',(-20.27,-9.5,29.5));
#384 = ELLIPSE('',#385,0.919238815543,0.65);
#385 = AXIS2_PLACEMENT_3D('',#386,#387,#388);
#386 = CARTESIAN_POINT('',(-20.92,-9.5,29.5));
#387 = DIRECTION('',(0.,0.707106781187,-0.707106781187));
#388 = DIRECTION('',(0.,0.707106781187,0.707106781187));
#389 = ORIENTED_EDGE('',*,*,#390,.F.);
#390 = EDGE_CURVE('',#365,#382,#391,.T.);
#391 = CIRCLE('',#392,0.65);
#392 = AXIS2_PLACEMENT_3D('',#393,#394,#395);
#393 = CARTESIAN_POINT('',(-20.92,-9.5,29.5));
#394 = DIRECTION('',(0.,1.,0.));
#395 = DIRECTION('',(0.,0.,1.));
#396 = ORIENTED_EDGE('',*,*,#364,.F.);
#397 = CYLINDRICAL_SURFACE('',#398,0.65);
#398 = AXIS2_PLACEMENT_3D('',#399,#400,#401);
#399 = CARTESIAN_POINT('',(-20.92,-17.,29.5));
#400 = DIRECTION('',(0.,1.,0.));
#401 = DIRECTION('',(0.,0.,1.));
#402 = ADVANCED_FACE('',(#403),#414,.T.);
#403 = FACE_BOUND('',#404,.T.);
#404 = EDGE_LOOP('',(#405,#406,#413));
#405 = ORIENTED_EDGE('',*,*,#390,.T.);
#406 = ORIENTED_EDGE('',*,*,#407,.F.);
#407 = EDGE_CURVE('',#373,#382,#408,.T.);
#408 = CIRCLE('',#409,0.65);
#409 = AXIS2_PLACEMENT_3D('',#410,#411,#412);
#410 = CARTESIAN_POINT('',(-20.92,-9.5,29.5));
#411 = DIRECTION('',(0.,0.,-1.));
#412 = DIRECTION('',(-1.,0.,0.));
#413 = ORIENTED_EDGE('',*,*,#372,.T.);
#414 = SPHERICAL_SURFACE('',#415,0.65);
#415 = AXIS2_PLACEMENT_3D('',#416,#417,#418);
#416 = CARTESIAN_POINT('',(-20.92,-9.5,29.5));
#417 = DIRECTION('',(0.,0.,1.));
#418 = DIRECTION('',(1.,0.,0.));
#419 = ADVANCED_FACE('',(#420),#449,.T.);
#420 = FACE_BOUND('',#421,.T.);
#421 = EDGE_LOOP('',(#422,#423,#431,#440,#447,#448));
#422 = ORIENTED_EDGE('',*,*,#381,.T.);
#423 = ORIENTED_EDGE('',*,*,#424,.T.);
#424 = EDGE_CURVE('',#373,#425,#427,.T.);
#425 = VERTEX_POINT('',#426);
#426 = CARTESIAN_POINT('',(-21.57,-9.5,27.6));
#427 = LINE('',#428,#429);
#428 = CARTESIAN_POINT('',(-21.57,-9.5,29.5));
#429 = VECTOR('',#430,1.);
#430 = DIRECTION('',(0.,0.,-1.));
#431 = ORIENTED_EDGE('',*,*,#432,.F.);
#432 = EDGE_CURVE('',#433,#425,#435,.T.);
#433 = VERTEX_POINT('',#434);
#434 = CARTESIAN_POINT('',(-20.27,-9.5,27.6));
#435 = CIRCLE('',#436,0.65);
#436 = AXIS2_PLACEMENT_3D('',#437,#438,#439);
#437 = CARTESIAN_POINT('',(-20.92,-9.5,27.6));
#438 = DIRECTION('',(0.,0.,-1.));
#439 = DIRECTION('',(-1.,0.,0.));
#440 = ORIENTED_EDGE('',*,*,#441,.F.);
#441 = EDGE_CURVE('',#425,#433,#442,.T.);
#442 = CIRCLE('',#443,0.65);
#443 = AXIS2_PLACEMENT_3D('',#444,#445,#446);
#444 = CARTESIAN_POINT('',(-20.92,-9.5,27.6));
#445 = DIRECTION('',(0.,0.,-1.));
#446 = DIRECTION('',(-1.,0.,0.));
#447 = ORIENTED_EDGE('',*,*,#424,.F.);
#448 = ORIENTED_EDGE('',*,*,#407,.T.);
#449 = CYLINDRICAL_SURFACE('',#450,0.65);
#450 = AXIS2_PLACEMENT_3D('',#451,#452,#453);
#451 = CARTESIAN_POINT('',(-20.92,-9.5,29.5));
#452 = DIRECTION('',(0.,0.,-1.));
#453 = DIRECTION('',(-1.,0.,0.));
#454 = ADVANCED_FACE('',(#455),#469,.T.);
#455 = FACE_BOUND('',#456,.T.);
#456 = EDGE_LOOP('',(#457,#458,#467,#468));
#457 = ORIENTED_EDGE('',*,*,#441,.T.);
#458 = ORIENTED_EDGE('',*,*,#459,.F.);
#459 = EDGE_CURVE('',#460,#433,#462,.T.);
#460 = VERTEX_POINT('',#461);
#461 = CARTESIAN_POINT('',(-20.92,-9.5,26.95));
#462 = CIRCLE('',#463,0.65);
#463 = AXIS2_PLACEMENT_3D('',#464,#465,#466);
#464 = CARTESIAN_POINT('',(-20.92,-9.5,27.6));
#465 = DIRECTION('',(-2.449293598295E-16,-1.,0.));
#466 = DIRECTION('',(1.,-2.449293598295E-16,0.));
#467 = ORIENTED_EDGE('',*,*,#459,.T.);
#468 = ORIENTED_EDGE('',*,*,#432,.T.);
#469 = SPHERICAL_SURFACE('',#470,0.65);
#470 = AXIS2_PLACEMENT_3D('',#471,#472,#473);
#471 = CARTESIAN_POINT('',(-20.92,-9.5,27.6));
#472 = DIRECTION('',(0.,0.,1.));
#473 = DIRECTION('',(1.,0.,0.));
#474 = ( GEOMETRIC_REPRESENTATION_CONTEXT(3) 
GLOBAL_UNCERTAINTY_ASSIGNED_CONTEXT((#478)) GLOBAL_UNIT_ASSIGNED_CONTEXT
((#475,#476,#477)) REPRESENTATION_CONTEXT('Context #1',
  '3D Context with UNIT and UNCERTAINTY') );
#475 = ( LENGTH_UNIT() NAMED_UNIT(*) SI_UNIT(.MILLI.,.METRE.) );
#476 = ( NAMED_UNIT(*) PLANE_ANGLE_UNIT() SI_UNIT($,.RADIAN.) );
#477 = ( NAMED_UNIT(*) SI_UNIT($,.STERADIAN.) SOLID_ANGLE_UNIT() );
#478 = UNCERTAINTY_MEASURE_WITH_UNIT(LENGTH_MEASURE(2.E-07),#475,
  'distance_accuracy_value','confusion accuracy');
#479 = PRODUCT_RELATED_PRODUCT_CATEGORY('part',$,(#7));
ENDSEC;
END-ISO-10303-21;
