ISO-10303-21;
HEADER;
FILE_DESCRIPTION(('FreeCAD Model'),'2;1');
FILE_NAME('Open CASCADE Shape Model','2026-09-30T01:44:49',('FreeCAD'),(
    'FreeCAD'),'Open CASCADE STEP processor 7.8','FreeCAD','Unknown');
FILE_SCHEMA(('AUTOMOTIVE_DESIGN { 1 0 10303 214 1 1 1 1 }'));
ENDSEC;
DATA;
#1 = APPLICATION_PROTOCOL_DEFINITION('international standard',
  'automotive_design',2000,#2);
#2 = APPLICATION_CONTEXT(
  'core data for automotive mechanical design processes');
#3 = SHAPE_DEFINITION_REPRESENTATION(#4,#10);
#4 = PRODUCT_DEFINITION_SHAPE('','',#5);
#5 = PRODUCT_DEFINITION('design','',#6,#9);
#6 = PRODUCT_DEFINITION_FORMATION('','',#7);
#7 = PRODUCT('Open CASCADE STEP translator 7.8 44',
  'Open CASCADE STEP translator 7.8 44','',(#8));
#8 = PRODUCT_CONTEXT('',#2,'mechanical');
#9 = PRODUCT_DEFINITION_CONTEXT('part definition',#2,'design');
#10 = ADVANCED_BREP_SHAPE_REPRESENTATION('',(#11,#15),#749);
#11 = AXIS2_PLACEMENT_3D('',#12,#13,#14);
#12 = CARTESIAN_POINT('',(0.,0.,0.));
#13 = DIRECTION('',(0.,0.,1.));
#14 = DIRECTION('',(1.,0.,-0.));
#15 = MANIFOLD_SOLID_BREP('',#16);
#16 = CLOSED_SHELL('',(#17,#77,#97,#148,#165,#176,#228,#269,#279,#330,
    #347,#358,#374,#409,#450,#460,#476,#520,#536,#571,#588,#623,#639,
    #683,#713,#730));
#17 = ADVANCED_FACE('',(#18),#72,.T.);
#18 = FACE_BOUND('',#19,.T.);
#19 = EDGE_LOOP('',(#20,#29,#37,#46,#55,#64,#71));
#20 = ORIENTED_EDGE('',*,*,#21,.T.);
#21 = EDGE_CURVE('',#22,#22,#24,.T.);
#22 = VERTEX_POINT('',#23);
#23 = CARTESIAN_POINT('',(12.6,-7.,34.));
#24 = CIRCLE('',#25,1.4);
#25 = AXIS2_PLACEMENT_3D('',#26,#27,#28);
#26 = CARTESIAN_POINT('',(14.,-7.,34.));
#27 = DIRECTION('',(0.,0.,-1.));
#28 = DIRECTION('',(-1.,0.,0.));
#29 = ORIENTED_EDGE('',*,*,#30,.T.);
#30 = EDGE_CURVE('',#22,#31,#33,.T.);
#31 = VERTEX_POINT('',#32);
#32 = CARTESIAN_POINT('',(12.6,-7.,30.9));
#33 = LINE('',#34,#35);
#34 = CARTESIAN_POINT('',(12.6,-7.,34.3));
#35 = VECTOR('',#36,1.);
#36 = DIRECTION('',(0.,0.,-1.));
#37 = ORIENTED_EDGE('',*,*,#38,.F.);
#38 = EDGE_CURVE('',#39,#31,#41,.T.);
#39 = VERTEX_POINT('',#40);
#40 = CARTESIAN_POINT('',(14.,-8.4,29.5));
#41 = ELLIPSE('',#42,1.979898987322,1.4);
#42 = AXIS2_PLACEMENT_3D('',#43,#44,#45);
#43 = CARTESIAN_POINT('',(14.,-7.,29.5));
#44 = DIRECTION('',(-0.707106781187,-0.,-0.707106781187));
#45 = DIRECTION('',(0.707106781187,0.,-0.707106781187));
#46 = ORIENTED_EDGE('',*,*,#47,.F.);
#47 = EDGE_CURVE('',#48,#39,#50,.T.);
#48 = VERTEX_POINT('',#49);
#49 = CARTESIAN_POINT('',(15.4,-7.,29.5));
#50 = CIRCLE('',#51,1.4);
#51 = AXIS2_PLACEMENT_3D('',#52,#53,#54);
#52 = CARTESIAN_POINT('',(14.,-7.,29.5));
#53 = DIRECTION('',(0.,0.,-1.));
#54 = DIRECTION('',(-1.,0.,0.));
#55 = ORIENTED_EDGE('',*,*,#56,.F.);
#56 = EDGE_CURVE('',#57,#48,#59,.T.);
#57 = VERTEX_POINT('',#58);
#58 = CARTESIAN_POINT('',(14.,-5.6,29.5));
#59 = CIRCLE('',#60,1.4);
#60 = AXIS2_PLACEMENT_3D('',#61,#62,#63);
#61 = CARTESIAN_POINT('',(14.,-7.,29.5));
#62 = DIRECTION('',(0.,0.,-1.));
#63 = DIRECTION('',(-1.,0.,0.));
#64 = ORIENTED_EDGE('',*,*,#65,.F.);
#65 = EDGE_CURVE('',#31,#57,#66,.T.);
#66 = ELLIPSE('',#67,1.979898987322,1.4);
#67 = AXIS2_PLACEMENT_3D('',#68,#69,#70);
#68 = CARTESIAN_POINT('',(14.,-7.,29.5));
#69 = DIRECTION('',(-0.707106781187,-0.,-0.707106781187));
#70 = DIRECTION('',(0.707106781187,0.,-0.707106781187));
#71 = ORIENTED_EDGE('',*,*,#30,.F.);
#72 = CYLINDRICAL_SURFACE('',#73,1.4);
#73 = AXIS2_PLACEMENT_3D('',#74,#75,#76);
#74 = CARTESIAN_POINT('',(14.,-7.,34.3));
#75 = DIRECTION('',(0.,0.,-1.));
#76 = DIRECTION('',(-1.,0.,0.));
#77 = ADVANCED_FACE('',(#78,#81),#92,.T.);
#78 = FACE_BOUND('',#79,.T.);
#79 = EDGE_LOOP('',(#80));
#80 = ORIENTED_EDGE('',*,*,#21,.F.);
#81 = FACE_BOUND('',#82,.T.);
#82 = EDGE_LOOP('',(#83));
#83 = ORIENTED_EDGE('',*,*,#84,.T.);
#84 = EDGE_CURVE('',#85,#85,#87,.T.);
#85 = VERTEX_POINT('',#86);
#86 = CARTESIAN_POINT('',(13.35,-7.,34.));
#87 = CIRCLE('',#88,0.65);
#88 = AXIS2_PLACEMENT_3D('',#89,#90,#91);
#89 = CARTESIAN_POINT('',(14.,-7.,34.));
#90 = DIRECTION('',(0.,0.,-1.));
#91 = DIRECTION('',(-1.,0.,0.));
#92 = PLANE('',#93);
#93 = AXIS2_PLACEMENT_3D('',#94,#95,#96);
#94 = CARTESIAN_POINT('',(9.334936490539,-10.08012701892,34.));
#95 = DIRECTION('',(0.,0.,1.));
#96 = DIRECTION('',(0.866025403784,-0.5,0.));
#97 = ADVANCED_FACE('',(#98),#143,.T.);
#98 = FACE_BOUND('',#99,.T.);
#99 = EDGE_LOOP('',(#100,#101,#110,#118,#127,#134,#135,#142));
#100 = ORIENTED_EDGE('',*,*,#65,.T.);
#101 = ORIENTED_EDGE('',*,*,#102,.T.);
#102 = EDGE_CURVE('',#57,#103,#105,.T.);
#103 = VERTEX_POINT('',#104);
#104 = CARTESIAN_POINT('',(14.,-7.,28.1));
#105 = CIRCLE('',#106,1.4);
#106 = AXIS2_PLACEMENT_3D('',#107,#108,#109);
#107 = CARTESIAN_POINT('',(14.,-7.,29.5));
#108 = DIRECTION('',(-1.,0.,0.));
#109 = DIRECTION('',(0.,0.,-1.));
#110 = ORIENTED_EDGE('',*,*,#111,.T.);
#111 = EDGE_CURVE('',#103,#112,#114,.T.);
#112 = VERTEX_POINT('',#113);
#113 = CARTESIAN_POINT('',(5.,-7.,28.1));
#114 = LINE('',#115,#116);
#115 = CARTESIAN_POINT('',(14.,-7.,28.1));
#116 = VECTOR('',#117,1.);
#117 = DIRECTION('',(-1.,0.,0.));
#118 = ORIENTED_EDGE('',*,*,#119,.F.);
#119 = EDGE_CURVE('',#120,#112,#122,.T.);
#120 = VERTEX_POINT('',#121);
#121 = CARTESIAN_POINT('',(5.,-7.,30.9));
#122 = CIRCLE('',#123,1.4);
#123 = AXIS2_PLACEMENT_3D('',#124,#125,#126);
#124 = CARTESIAN_POINT('',(5.,-7.,29.5));
#125 = DIRECTION('',(-1.,0.,0.));
#126 = DIRECTION('',(0.,0.,-1.));
#127 = ORIENTED_EDGE('',*,*,#128,.F.);
#128 = EDGE_CURVE('',#112,#120,#129,.T.);
#129 = ELLIPSE('',#130,1.979898987322,1.4);
#130 = AXIS2_PLACEMENT_3D('',#131,#132,#133);
#131 = CARTESIAN_POINT('',(5.,-7.,29.5));
#132 = DIRECTION('',(-0.707106781187,-0.707106781187,-0.));
#133 = DIRECTION('',(-0.707106781187,0.707106781187,0.));
#134 = ORIENTED_EDGE('',*,*,#111,.F.);
#135 = ORIENTED_EDGE('',*,*,#136,.T.);
#136 = EDGE_CURVE('',#103,#39,#137,.T.);
#137 = CIRCLE('',#138,1.4);
#138 = AXIS2_PLACEMENT_3D('',#139,#140,#141);
#139 = CARTESIAN_POINT('',(14.,-7.,29.5));
#140 = DIRECTION('',(-1.,0.,0.));
#141 = DIRECTION('',(0.,0.,-1.));
#142 = ORIENTED_EDGE('',*,*,#38,.T.);
#143 = CYLINDRICAL_SURFACE('',#144,1.4);
#144 = AXIS2_PLACEMENT_3D('',#145,#146,#147);
#145 = CARTESIAN_POINT('',(14.,-7.,29.5));
#146 = DIRECTION('',(-1.,0.,0.));
#147 = DIRECTION('',(0.,0.,-1.));
#148 = ADVANCED_FACE('',(#149),#160,.T.);
#149 = FACE_BOUND('',#150,.T.);
#150 = EDGE_LOOP('',(#151,#152,#153));
#151 = ORIENTED_EDGE('',*,*,#102,.F.);
#152 = ORIENTED_EDGE('',*,*,#56,.T.);
#153 = ORIENTED_EDGE('',*,*,#154,.F.);
#154 = EDGE_CURVE('',#103,#48,#155,.T.);
#155 = CIRCLE('',#156,1.4);
#156 = AXIS2_PLACEMENT_3D('',#157,#158,#159);
#157 = CARTESIAN_POINT('',(14.,-7.,29.5));
#158 = DIRECTION('',(-2.449293598295E-16,-1.,0.));
#159 = DIRECTION('',(1.,-2.449293598295E-16,0.));
#160 = SPHERICAL_SURFACE('',#161,1.4);
#161 = AXIS2_PLACEMENT_3D('',#162,#163,#164);
#162 = CARTESIAN_POINT('',(14.,-7.,29.5));
#163 = DIRECTION('',(0.,0.,1.));
#164 = DIRECTION('',(1.,0.,0.));
#165 = ADVANCED_FACE('',(#166),#171,.T.);
#166 = FACE_BOUND('',#167,.T.);
#167 = EDGE_LOOP('',(#168,#169,#170));
#168 = ORIENTED_EDGE('',*,*,#47,.T.);
#169 = ORIENTED_EDGE('',*,*,#136,.F.);
#170 = ORIENTED_EDGE('',*,*,#154,.T.);
#171 = SPHERICAL_SURFACE('',#172,1.4);
#172 = AXIS2_PLACEMENT_3D('',#173,#174,#175);
#173 = CARTESIAN_POINT('',(14.,-7.,29.5));
#174 = DIRECTION('',(0.,0.,1.));
#175 = DIRECTION('',(1.,0.,0.));
#176 = ADVANCED_FACE('',(#177),#223,.F.);
#177 = FACE_BOUND('',#178,.F.);
#178 = EDGE_LOOP('',(#179,#180,#188,#197,#206,#215,#222));
#179 = ORIENTED_EDGE('',*,*,#84,.T.);
#180 = ORIENTED_EDGE('',*,*,#181,.T.);
#181 = EDGE_CURVE('',#85,#182,#184,.T.);
#182 = VERTEX_POINT('',#183);
#183 = CARTESIAN_POINT('',(13.35,-7.,30.15));
#184 = LINE('',#185,#186);
#185 = CARTESIAN_POINT('',(13.35,-7.,34.3));
#186 = VECTOR('',#187,1.);
#187 = DIRECTION('',(0.,0.,-1.));
#188 = ORIENTED_EDGE('',*,*,#189,.F.);
#189 = EDGE_CURVE('',#190,#182,#192,.T.);
#190 = VERTEX_POINT('',#191);
#191 = CARTESIAN_POINT('',(14.,-7.65,29.5));
#192 = ELLIPSE('',#193,0.919238815543,0.65);
#193 = AXIS2_PLACEMENT_3D('',#194,#195,#196);
#194 = CARTESIAN_POINT('',(14.,-7.,29.5));
#195 = DIRECTION('',(-0.707106781187,-0.,-0.707106781187));
#196 = DIRECTION('',(0.707106781187,0.,-0.707106781187));
#197 = ORIENTED_EDGE('',*,*,#198,.F.);
#198 = EDGE_CURVE('',#199,#190,#201,.T.);
#199 = VERTEX_POINT('',#200);
#200 = CARTESIAN_POINT('',(14.65,-7.,29.5));
#201 = CIRCLE('',#202,0.65);
#202 = AXIS2_PLACEMENT_3D('',#203,#204,#205);
#203 = CARTESIAN_POINT('',(14.,-7.,29.5));
#204 = DIRECTION('',(0.,0.,-1.));
#205 = DIRECTION('',(-1.,0.,0.));
#206 = ORIENTED_EDGE('',*,*,#207,.F.);
#207 = EDGE_CURVE('',#208,#199,#210,.T.);
#208 = VERTEX_POINT('',#209);
#209 = CARTESIAN_POINT('',(14.,-6.35,29.5));
#210 = CIRCLE('',#211,0.65);
#211 = AXIS2_PLACEMENT_3D('',#212,#213,#214);
#212 = CARTESIAN_POINT('',(14.,-7.,29.5));
#213 = DIRECTION('',(0.,0.,-1.));
#214 = DIRECTION('',(-1.,0.,0.));
#215 = ORIENTED_EDGE('',*,*,#216,.F.);
#216 = EDGE_CURVE('',#182,#208,#217,.T.);
#217 = ELLIPSE('',#218,0.919238815543,0.65);
#218 = AXIS2_PLACEMENT_3D('',#219,#220,#221);
#219 = CARTESIAN_POINT('',(14.,-7.,29.5));
#220 = DIRECTION('',(-0.707106781187,-0.,-0.707106781187));
#221 = DIRECTION('',(0.707106781187,0.,-0.707106781187));
#222 = ORIENTED_EDGE('',*,*,#181,.F.);
#223 = CYLINDRICAL_SURFACE('',#224,0.65);
#224 = AXIS2_PLACEMENT_3D('',#225,#226,#227);
#225 = CARTESIAN_POINT('',(14.,-7.,34.3));
#226 = DIRECTION('',(0.,0.,-1.));
#227 = DIRECTION('',(-1.,0.,0.));
#228 = ADVANCED_FACE('',(#229),#264,.T.);
#229 = FACE_BOUND('',#230,.T.);
#230 = EDGE_LOOP('',(#231,#232,#239,#247,#256,#263));
#231 = ORIENTED_EDGE('',*,*,#128,.T.);
#232 = ORIENTED_EDGE('',*,*,#233,.T.);
#233 = EDGE_CURVE('',#120,#112,#234,.T.);
#234 = CIRCLE('',#235,1.4);
#235 = AXIS2_PLACEMENT_3D('',#236,#237,#238);
#236 = CARTESIAN_POINT('',(5.,-7.,29.5));
#237 = DIRECTION('',(0.,-1.,0.));
#238 = DIRECTION('',(0.,0.,-1.));
#239 = ORIENTED_EDGE('',*,*,#240,.T.);
#240 = EDGE_CURVE('',#112,#241,#243,.T.);
#241 = VERTEX_POINT('',#242);
#242 = CARTESIAN_POINT('',(5.,-36.,28.1));
#243 = LINE('',#244,#245);
#244 = CARTESIAN_POINT('',(5.,-7.,28.1));
#245 = VECTOR('',#246,1.);
#246 = DIRECTION('',(0.,-1.,0.));
#247 = ORIENTED_EDGE('',*,*,#248,.F.);
#248 = EDGE_CURVE('',#249,#241,#251,.T.);
#249 = VERTEX_POINT('',#250);
#250 = CARTESIAN_POINT('',(5.,-36.,30.9));
#251 = ELLIPSE('',#252,1.979898987322,1.4);
#252 = AXIS2_PLACEMENT_3D('',#253,#254,#255);
#253 = CARTESIAN_POINT('',(5.,-36.,29.5));
#254 = DIRECTION('',(-0.707106781187,-0.707106781187,0.));
#255 = DIRECTION('',(0.707106781187,-0.707106781187,0.));
#256 = ORIENTED_EDGE('',*,*,#257,.F.);
#257 = EDGE_CURVE('',#241,#249,#258,.T.);
#258 = CIRCLE('',#259,1.4);
#259 = AXIS2_PLACEMENT_3D('',#260,#261,#262);
#260 = CARTESIAN_POINT('',(5.,-36.,29.5));
#261 = DIRECTION('',(0.,-1.,0.));
#262 = DIRECTION('',(0.,0.,-1.));
#263 = ORIENTED_EDGE('',*,*,#240,.F.);
#264 = CYLINDRICAL_SURFACE('',#265,1.4);
#265 = AXIS2_PLACEMENT_3D('',#266,#267,#268);
#266 = CARTESIAN_POINT('',(5.,-7.,29.5));
#267 = DIRECTION('',(0.,-1.,0.));
#268 = DIRECTION('',(0.,0.,-1.));
#269 = ADVANCED_FACE('',(#270),#274,.T.);
#270 = FACE_BOUND('',#271,.T.);
#271 = EDGE_LOOP('',(#272,#273));
#272 = ORIENTED_EDGE('',*,*,#119,.T.);
#273 = ORIENTED_EDGE('',*,*,#233,.F.);
#274 = SPHERICAL_SURFACE('',#275,1.4);
#275 = AXIS2_PLACEMENT_3D('',#276,#277,#278);
#276 = CARTESIAN_POINT('',(5.,-7.,29.5));
#277 = DIRECTION('',(0.,0.,1.));
#278 = DIRECTION('',(1.,0.,0.));
#279 = ADVANCED_FACE('',(#280),#325,.F.);
#280 = FACE_BOUND('',#281,.F.);
#281 = EDGE_LOOP('',(#282,#283,#292,#300,#309,#316,#317,#324));
#282 = ORIENTED_EDGE('',*,*,#216,.T.);
#283 = ORIENTED_EDGE('',*,*,#284,.T.);
#284 = EDGE_CURVE('',#208,#285,#287,.T.);
#285 = VERTEX_POINT('',#286);
#286 = CARTESIAN_POINT('',(14.,-7.,28.85));
#287 = CIRCLE('',#288,0.65);
#288 = AXIS2_PLACEMENT_3D('',#289,#290,#291);
#289 = CARTESIAN_POINT('',(14.,-7.,29.5));
#290 = DIRECTION('',(-1.,0.,0.));
#291 = DIRECTION('',(0.,0.,-1.));
#292 = ORIENTED_EDGE('',*,*,#293,.T.);
#293 = EDGE_CURVE('',#285,#294,#296,.T.);
#294 = VERTEX_POINT('',#295);
#295 = CARTESIAN_POINT('',(5.,-7.,28.85));
#296 = LINE('',#297,#298);
#297 = CARTESIAN_POINT('',(14.,-7.,28.85));
#298 = VECTOR('',#299,1.);
#299 = DIRECTION('',(-1.,0.,0.));
#300 = ORIENTED_EDGE('',*,*,#301,.F.);
#301 = EDGE_CURVE('',#302,#294,#304,.T.);
#302 = VERTEX_POINT('',#303);
#303 = CARTESIAN_POINT('',(5.,-7.,30.15));
#304 = CIRCLE('',#305,0.65);
#305 = AXIS2_PLACEMENT_3D('',#306,#307,#308);
#306 = CARTESIAN_POINT('',(5.,-7.,29.5));
#307 = DIRECTION('',(-1.,0.,0.));
#308 = DIRECTION('',(0.,0.,-1.));
#309 = ORIENTED_EDGE('',*,*,#310,.F.);
#310 = EDGE_CURVE('',#294,#302,#311,.T.);
#311 = ELLIPSE('',#312,0.919238815543,0.65);
#312 = AXIS2_PLACEMENT_3D('',#313,#314,#315);
#313 = CARTESIAN_POINT('',(5.,-7.,29.5));
#314 = DIRECTION('',(-0.707106781187,-0.707106781187,-0.));
#315 = DIRECTION('',(-0.707106781187,0.707106781187,0.));
#316 = ORIENTED_EDGE('',*,*,#293,.F.);
#317 = ORIENTED_EDGE('',*,*,#318,.T.);
#318 = EDGE_CURVE('',#285,#190,#319,.T.);
#319 = CIRCLE('',#320,0.65);
#320 = AXIS2_PLACEMENT_3D('',#321,#322,#323);
#321 = CARTESIAN_POINT('',(14.,-7.,29.5));
#322 = DIRECTION('',(-1.,0.,0.));
#323 = DIRECTION('',(0.,0.,-1.));
#324 = ORIENTED_EDGE('',*,*,#189,.T.);
#325 = CYLINDRICAL_SURFACE('',#326,0.65);
#326 = AXIS2_PLACEMENT_3D('',#327,#328,#329);
#327 = CARTESIAN_POINT('',(14.,-7.,29.5));
#328 = DIRECTION('',(-1.,0.,0.));
#329 = DIRECTION('',(0.,0.,-1.));
#330 = ADVANCED_FACE('',(#331),#342,.F.);
#331 = FACE_BOUND('',#332,.F.);
#332 = EDGE_LOOP('',(#333,#334,#335));
#333 = ORIENTED_EDGE('',*,*,#284,.F.);
#334 = ORIENTED_EDGE('',*,*,#207,.T.);
#335 = ORIENTED_EDGE('',*,*,#336,.F.);
#336 = EDGE_CURVE('',#285,#199,#337,.T.);
#337 = CIRCLE('',#338,0.65);
#338 = AXIS2_PLACEMENT_3D('',#339,#340,#341);
#339 = CARTESIAN_POINT('',(14.,-7.,29.5));
#340 = DIRECTION('',(-2.449293598295E-16,-1.,0.));
#341 = DIRECTION('',(1.,-2.449293598295E-16,0.));
#342 = SPHERICAL_SURFACE('',#343,0.65);
#343 = AXIS2_PLACEMENT_3D('',#344,#345,#346);
#344 = CARTESIAN_POINT('',(14.,-7.,29.5));
#345 = DIRECTION('',(0.,0.,1.));
#346 = DIRECTION('',(1.,0.,0.));
#347 = ADVANCED_FACE('',(#348),#353,.F.);
#348 = FACE_BOUND('',#349,.F.);
#349 = EDGE_LOOP('',(#350,#351,#352));
#350 = ORIENTED_EDGE('',*,*,#198,.T.);
#351 = ORIENTED_EDGE('',*,*,#318,.F.);
#352 = ORIENTED_EDGE('',*,*,#336,.T.);
#353 = SPHERICAL_SURFACE('',#354,0.65);
#354 = AXIS2_PLACEMENT_3D('',#355,#356,#357);
#355 = CARTESIAN_POINT('',(14.,-7.,29.5));
#356 = DIRECTION('',(0.,0.,1.));
#357 = DIRECTION('',(1.,0.,0.));
#358 = ADVANCED_FACE('',(#359),#369,.T.);
#359 = FACE_BOUND('',#360,.T.);
#360 = EDGE_LOOP('',(#361,#362));
#361 = ORIENTED_EDGE('',*,*,#257,.T.);
#362 = ORIENTED_EDGE('',*,*,#363,.F.);
#363 = EDGE_CURVE('',#241,#249,#364,.T.);
#364 = CIRCLE('',#365,1.4);
#365 = AXIS2_PLACEMENT_3D('',#366,#367,#368);
#366 = CARTESIAN_POINT('',(5.,-36.,29.5));
#367 = DIRECTION('',(-1.,0.,0.));
#368 = DIRECTION('',(0.,0.,-1.));
#369 = SPHERICAL_SURFACE('',#370,1.4);
#370 = AXIS2_PLACEMENT_3D('',#371,#372,#373);
#371 = CARTESIAN_POINT('',(5.,-36.,29.5));
#372 = DIRECTION('',(0.,0.,1.));
#373 = DIRECTION('',(1.,0.,0.));
#374 = ADVANCED_FACE('',(#375),#404,.T.);
#375 = FACE_BOUND('',#376,.T.);
#376 = EDGE_LOOP('',(#377,#378,#379,#387,#396,#403));
#377 = ORIENTED_EDGE('',*,*,#363,.T.);
#378 = ORIENTED_EDGE('',*,*,#248,.T.);
#379 = ORIENTED_EDGE('',*,*,#380,.T.);
#380 = EDGE_CURVE('',#241,#381,#383,.T.);
#381 = VERTEX_POINT('',#382);
#382 = CARTESIAN_POINT('',(-16.92,-36.,28.1));
#383 = LINE('',#384,#385);
#384 = CARTESIAN_POINT('',(5.,-36.,28.1));
#385 = VECTOR('',#386,1.);
#386 = DIRECTION('',(-1.,0.,0.));
#387 = ORIENTED_EDGE('',*,*,#388,.F.);
#388 = EDGE_CURVE('',#389,#381,#391,.T.);
#389 = VERTEX_POINT('',#390);
#390 = CARTESIAN_POINT('',(-16.92,-36.,30.9));
#391 = ELLIPSE('',#392,1.979898987322,1.4);
#392 = AXIS2_PLACEMENT_3D('',#393,#394,#395);
#393 = CARTESIAN_POINT('',(-16.92,-36.,29.5));
#394 = DIRECTION('',(-0.707106781187,0.707106781187,0.));
#395 = DIRECTION('',(-0.707106781187,-0.707106781187,0.));
#396 = ORIENTED_EDGE('',*,*,#397,.F.);
#397 = EDGE_CURVE('',#381,#389,#398,.T.);
#398 = CIRCLE('',#399,1.4);
#399 = AXIS2_PLACEMENT_3D('',#400,#401,#402);
#400 = CARTESIAN_POINT('',(-16.92,-36.,29.5));
#401 = DIRECTION('',(-1.,0.,0.));
#402 = DIRECTION('',(0.,0.,-1.));
#403 = ORIENTED_EDGE('',*,*,#380,.F.);
#404 = CYLINDRICAL_SURFACE('',#405,1.4);
#405 = AXIS2_PLACEMENT_3D('',#406,#407,#408);
#406 = CARTESIAN_POINT('',(5.,-36.,29.5));
#407 = DIRECTION('',(-1.,0.,0.));
#408 = DIRECTION('',(0.,0.,-1.));
#409 = ADVANCED_FACE('',(#410),#445,.F.);
#410 = FACE_BOUND('',#411,.F.);
#411 = EDGE_LOOP('',(#412,#413,#420,#428,#437,#444));
#412 = ORIENTED_EDGE('',*,*,#310,.T.);
#413 = ORIENTED_EDGE('',*,*,#414,.T.);
#414 = EDGE_CURVE('',#302,#294,#415,.T.);
#415 = CIRCLE('',#416,0.65);
#416 = AXIS2_PLACEMENT_3D('',#417,#418,#419);
#417 = CARTESIAN_POINT('',(5.,-7.,29.5));
#418 = DIRECTION('',(0.,-1.,0.));
#419 = DIRECTION('',(0.,0.,-1.));
#420 = ORIENTED_EDGE('',*,*,#421,.T.);
#421 = EDGE_CURVE('',#294,#422,#424,.T.);
#422 = VERTEX_POINT('',#423);
#423 = CARTESIAN_POINT('',(5.,-36.,28.85));
#424 = LINE('',#425,#426);
#425 = CARTESIAN_POINT('',(5.,-7.,28.85));
#426 = VECTOR('',#427,1.);
#427 = DIRECTION('',(0.,-1.,0.));
#428 = ORIENTED_EDGE('',*,*,#429,.F.);
#429 = EDGE_CURVE('',#430,#422,#432,.T.);
#430 = VERTEX_POINT('',#431);
#431 = CARTESIAN_POINT('',(5.,-36.,30.15));
#432 = ELLIPSE('',#433,0.919238815543,0.65);
#433 = AXIS2_PLACEMENT_3D('',#434,#435,#436);
#434 = CARTESIAN_POINT('',(5.,-36.,29.5));
#435 = DIRECTION('',(-0.707106781187,-0.707106781187,0.));
#436 = DIRECTION('',(0.707106781187,-0.707106781187,0.));
#437 = ORIENTED_EDGE('',*,*,#438,.F.);
#438 = EDGE_CURVE('',#422,#430,#439,.T.);
#439 = CIRCLE('',#440,0.65);
#440 = AXIS2_PLACEMENT_3D('',#441,#442,#443);
#441 = CARTESIAN_POINT('',(5.,-36.,29.5));
#442 = DIRECTION('',(0.,-1.,0.));
#443 = DIRECTION('',(0.,0.,-1.));
#444 = ORIENTED_EDGE('',*,*,#421,.F.);
#445 = CYLINDRICAL_SURFACE('',#446,0.65);
#446 = AXIS2_PLACEMENT_3D('',#447,#448,#449);
#447 = CARTESIAN_POINT('',(5.,-7.,29.5));
#448 = DIRECTION('',(0.,-1.,0.));
#449 = DIRECTION('',(0.,0.,-1.));
#450 = ADVANCED_FACE('',(#451),#455,.F.);
#451 = FACE_BOUND('',#452,.F.);
#452 = EDGE_LOOP('',(#453,#454));
#453 = ORIENTED_EDGE('',*,*,#301,.T.);
#454 = ORIENTED_EDGE('',*,*,#414,.F.);
#455 = SPHERICAL_SURFACE('',#456,0.65);
#456 = AXIS2_PLACEMENT_3D('',#457,#458,#459);
#457 = CARTESIAN_POINT('',(5.,-7.,29.5));
#458 = DIRECTION('',(0.,0.,1.));
#459 = DIRECTION('',(1.,0.,0.));
#460 = ADVANCED_FACE('',(#461),#471,.T.);
#461 = FACE_BOUND('',#462,.T.);
#462 = EDGE_LOOP('',(#463,#464));
#463 = ORIENTED_EDGE('',*,*,#397,.T.);
#464 = ORIENTED_EDGE('',*,*,#465,.F.);
#465 = EDGE_CURVE('',#381,#389,#466,.T.);
#466 = CIRCLE('',#467,1.4);
#467 = AXIS2_PLACEMENT_3D('',#468,#469,#470);
#468 = CARTESIAN_POINT('',(-16.92,-36.,29.5));
#469 = DIRECTION('',(0.,1.,0.));
#470 = DIRECTION('',(0.,0.,1.));
#471 = SPHERICAL_SURFACE('',#472,1.4);
#472 = AXIS2_PLACEMENT_3D('',#473,#474,#475);
#473 = CARTESIAN_POINT('',(-16.92,-36.,29.5));
#474 = DIRECTION('',(0.,0.,1.));
#475 = DIRECTION('',(1.,0.,0.));
#476 = ADVANCED_FACE('',(#477),#515,.T.);
#477 = FACE_BOUND('',#478,.T.);
#478 = EDGE_LOOP('',(#479,#480,#481,#489,#498,#507,#514));
#479 = ORIENTED_EDGE('',*,*,#388,.T.);
#480 = ORIENTED_EDGE('',*,*,#465,.T.);
#481 = ORIENTED_EDGE('',*,*,#482,.T.);
#482 = EDGE_CURVE('',#389,#483,#485,.T.);
#483 = VERTEX_POINT('',#484);
#484 = CARTESIAN_POINT('',(-16.92,-26.,30.9));
#485 = LINE('',#486,#487);
#486 = CARTESIAN_POINT('',(-16.92,-36.,30.9));
#487 = VECTOR('',#488,1.);
#488 = DIRECTION('',(0.,1.,0.));
#489 = ORIENTED_EDGE('',*,*,#490,.F.);
#490 = EDGE_CURVE('',#491,#483,#493,.T.);
#491 = VERTEX_POINT('',#492);
#492 = CARTESIAN_POINT('',(-18.32,-26.,29.5));
#493 = CIRCLE('',#494,1.4);
#494 = AXIS2_PLACEMENT_3D('',#495,#496,#497);
#495 = CARTESIAN_POINT('',(-16.92,-26.,29.5));
#496 = DIRECTION('',(0.,1.,0.));
#497 = DIRECTION('',(0.,0.,1.));
#498 = ORIENTED_EDGE('',*,*,#499,.F.);
#499 = EDGE_CURVE('',#500,#491,#502,.T.);
#500 = VERTEX_POINT('',#501);
#501 = CARTESIAN_POINT('',(-15.52,-26.,29.5));
#502 = ELLIPSE('',#503,1.979898987322,1.4);
#503 = AXIS2_PLACEMENT_3D('',#504,#505,#506);
#504 = CARTESIAN_POINT('',(-16.92,-26.,29.5));
#505 = DIRECTION('',(0.,0.707106781187,-0.707106781187));
#506 = DIRECTION('',(0.,0.707106781187,0.707106781187));
#507 = ORIENTED_EDGE('',*,*,#508,.F.);
#508 = EDGE_CURVE('',#483,#500,#509,.T.);
#509 = CIRCLE('',#510,1.4);
#510 = AXIS2_PLACEMENT_3D('',#511,#512,#513);
#511 = CARTESIAN_POINT('',(-16.92,-26.,29.5));
#512 = DIRECTION('',(0.,1.,0.));
#513 = DIRECTION('',(0.,0.,1.));
#514 = ORIENTED_EDGE('',*,*,#482,.F.);
#515 = CYLINDRICAL_SURFACE('',#516,1.4);
#516 = AXIS2_PLACEMENT_3D('',#517,#518,#519);
#517 = CARTESIAN_POINT('',(-16.92,-36.,29.5));
#518 = DIRECTION('',(0.,1.,0.));
#519 = DIRECTION('',(0.,0.,1.));
#520 = ADVANCED_FACE('',(#521),#531,.F.);
#521 = FACE_BOUND('',#522,.F.);
#522 = EDGE_LOOP('',(#523,#524));
#523 = ORIENTED_EDGE('',*,*,#438,.T.);
#524 = ORIENTED_EDGE('',*,*,#525,.F.);
#525 = EDGE_CURVE('',#422,#430,#526,.T.);
#526 = CIRCLE('',#527,0.65);
#527 = AXIS2_PLACEMENT_3D('',#528,#529,#530);
#528 = CARTESIAN_POINT('',(5.,-36.,29.5));
#529 = DIRECTION('',(-1.,0.,0.));
#530 = DIRECTION('',(0.,0.,-1.));
#531 = SPHERICAL_SURFACE('',#532,0.65);
#532 = AXIS2_PLACEMENT_3D('',#533,#534,#535);
#533 = CARTESIAN_POINT('',(5.,-36.,29.5));
#534 = DIRECTION('',(0.,0.,1.));
#535 = DIRECTION('',(1.,0.,0.));
#536 = ADVANCED_FACE('',(#537),#566,.F.);
#537 = FACE_BOUND('',#538,.F.);
#538 = EDGE_LOOP('',(#539,#540,#541,#549,#558,#565));
#539 = ORIENTED_EDGE('',*,*,#525,.T.);
#540 = ORIENTED_EDGE('',*,*,#429,.T.);
#541 = ORIENTED_EDGE('',*,*,#542,.T.);
#542 = EDGE_CURVE('',#422,#543,#545,.T.);
#543 = VERTEX_POINT('',#544);
#544 = CARTESIAN_POINT('',(-16.92,-36.,28.85));
#545 = LINE('',#546,#547);
#546 = CARTESIAN_POINT('',(5.,-36.,28.85));
#547 = VECTOR('',#548,1.);
#548 = DIRECTION('',(-1.,0.,0.));
#549 = ORIENTED_EDGE('',*,*,#550,.F.);
#550 = EDGE_CURVE('',#551,#543,#553,.T.);
#551 = VERTEX_POINT('',#552);
#552 = CARTESIAN_POINT('',(-16.92,-36.,30.15));
#553 = ELLIPSE('',#554,0.919238815543,0.65);
#554 = AXIS2_PLACEMENT_3D('',#555,#556,#557);
#555 = CARTESIAN_POINT('',(-16.92,-36.,29.5));
#556 = DIRECTION('',(-0.707106781187,0.707106781187,0.));
#557 = DIRECTION('',(-0.707106781187,-0.707106781187,0.));
#558 = ORIENTED_EDGE('',*,*,#559,.F.);
#559 = EDGE_CURVE('',#543,#551,#560,.T.);
#560 = CIRCLE('',#561,0.65);
#561 = AXIS2_PLACEMENT_3D('',#562,#563,#564);
#562 = CARTESIAN_POINT('',(-16.92,-36.,29.5));
#563 = DIRECTION('',(-1.,0.,0.));
#564 = DIRECTION('',(0.,0.,-1.));
#565 = ORIENTED_EDGE('',*,*,#542,.F.);
#566 = CYLINDRICAL_SURFACE('',#567,0.65);
#567 = AXIS2_PLACEMENT_3D('',#568,#569,#570);
#568 = CARTESIAN_POINT('',(5.,-36.,29.5));
#569 = DIRECTION('',(-1.,0.,0.));
#570 = DIRECTION('',(0.,0.,-1.));
#571 = ADVANCED_FACE('',(#572),#583,.T.);
#572 = FACE_BOUND('',#573,.T.);
#573 = EDGE_LOOP('',(#574,#575,#582));
#574 = ORIENTED_EDGE('',*,*,#508,.T.);
#575 = ORIENTED_EDGE('',*,*,#576,.F.);
#576 = EDGE_CURVE('',#491,#500,#577,.T.);
#577 = CIRCLE('',#578,1.4);
#578 = AXIS2_PLACEMENT_3D('',#579,#580,#581);
#579 = CARTESIAN_POINT('',(-16.92,-26.,29.5));
#580 = DIRECTION('',(0.,0.,-1.));
#581 = DIRECTION('',(-1.,0.,0.));
#582 = ORIENTED_EDGE('',*,*,#490,.T.);
#583 = SPHERICAL_SURFACE('',#584,1.4);
#584 = AXIS2_PLACEMENT_3D('',#585,#586,#587);
#585 = CARTESIAN_POINT('',(-16.92,-26.,29.5));
#586 = DIRECTION('',(0.,0.,1.));
#587 = DIRECTION('',(1.,0.,0.));
#588 = ADVANCED_FACE('',(#589),#618,.T.);
#589 = FACE_BOUND('',#590,.T.);
#590 = EDGE_LOOP('',(#591,#592,#593,#601,#610,#617));
#591 = ORIENTED_EDGE('',*,*,#576,.T.);
#592 = ORIENTED_EDGE('',*,*,#499,.T.);
#593 = ORIENTED_EDGE('',*,*,#594,.T.);
#594 = EDGE_CURVE('',#491,#595,#597,.T.);
#595 = VERTEX_POINT('',#596);
#596 = CARTESIAN_POINT('',(-18.32,-26.,27.6));
#597 = LINE('',#598,#599);
#598 = CARTESIAN_POINT('',(-18.32,-26.,29.5));
#599 = VECTOR('',#600,1.);
#600 = DIRECTION('',(0.,0.,-1.));
#601 = ORIENTED_EDGE('',*,*,#602,.F.);
#602 = EDGE_CURVE('',#603,#595,#605,.T.);
#603 = VERTEX_POINT('',#604);
#604 = CARTESIAN_POINT('',(-15.52,-26.,27.6));
#605 = CIRCLE('',#606,1.4);
#606 = AXIS2_PLACEMENT_3D('',#607,#608,#609);
#607 = CARTESIAN_POINT('',(-16.92,-26.,27.6));
#608 = DIRECTION('',(0.,0.,-1.));
#609 = DIRECTION('',(-1.,0.,0.));
#610 = ORIENTED_EDGE('',*,*,#611,.F.);
#611 = EDGE_CURVE('',#595,#603,#612,.T.);
#612 = CIRCLE('',#613,1.4);
#613 = AXIS2_PLACEMENT_3D('',#614,#615,#616);
#614 = CARTESIAN_POINT('',(-16.92,-26.,27.6));
#615 = DIRECTION('',(0.,0.,-1.));
#616 = DIRECTION('',(-1.,0.,0.));
#617 = ORIENTED_EDGE('',*,*,#594,.F.);
#618 = CYLINDRICAL_SURFACE('',#619,1.4);
#619 = AXIS2_PLACEMENT_3D('',#620,#621,#622);
#620 = CARTESIAN_POINT('',(-16.92,-26.,29.5));
#621 = DIRECTION('',(0.,0.,-1.));
#622 = DIRECTION('',(-1.,0.,0.));
#623 = ADVANCED_FACE('',(#624),#634,.F.);
#624 = FACE_BOUND('',#625,.F.);
#625 = EDGE_LOOP('',(#626,#627));
#626 = ORIENTED_EDGE('',*,*,#559,.T.);
#627 = ORIENTED_EDGE('',*,*,#628,.F.);
#628 = EDGE_CURVE('',#543,#551,#629,.T.);
#629 = CIRCLE('',#630,0.65);
#630 = AXIS2_PLACEMENT_3D('',#631,#632,#633);
#631 = CARTESIAN_POINT('',(-16.92,-36.,29.5));
#632 = DIRECTION('',(0.,1.,0.));
#633 = DIRECTION('',(0.,0.,1.));
#634 = SPHERICAL_SURFACE('',#635,0.65);
#635 = AXIS2_PLACEMENT_3D('',#636,#637,#638);
#636 = CARTESIAN_POINT('',(-16.92,-36.,29.5));
#637 = DIRECTION('',(0.,0.,1.));
#638 = DIRECTION('',(1.,0.,0.));
#639 = ADVANCED_FACE('',(#640),#678,.F.);
#640 = FACE_BOUND('',#641,.F.);
#641 = EDGE_LOOP('',(#642,#643,#644,#652,#661,#670,#677));
#642 = ORIENTED_EDGE('',*,*,#550,.T.);
#643 = ORIENTED_EDGE('',*,*,#628,.T.);
#644 = ORIENTED_EDGE('',*,*,#645,.T.);
#645 = EDGE_CURVE('',#551,#646,#648,.T.);
#646 = VERTEX_POINT('',#647);
#647 = CARTESIAN_POINT('',(-16.92,-26.,30.15));
#648 = LINE('',#649,#650);
#649 = CARTESIAN_POINT('',(-16.92,-36.,30.15));
#650 = VECTOR('',#651,1.);
#651 = DIRECTION('',(0.,1.,0.));
#652 = ORIENTED_EDGE('',*,*,#653,.F.);
#653 = EDGE_CURVE('',#654,#646,#656,.T.);
#654 = VERTEX_POINT('',#655);
#655 = CARTESIAN_POINT('',(-17.57,-26.,29.5));
#656 = CIRCLE('',#657,0.65);
#657 = AXIS2_PLACEMENT_3D('',#658,#659,#660);
#658 = CARTESIAN_POINT('',(-16.92,-26.,29.5));
#659 = DIRECTION('',(0.,1.,0.));
#660 = DIRECTION('',(0.,0.,1.));
#661 = ORIENTED_EDGE('',*,*,#662,.F.);
#662 = EDGE_CURVE('',#663,#654,#665,.T.);
#663 = VERTEX_POINT('',#664);
#664 = CARTESIAN_POINT('',(-16.27,-26.,29.5));
#665 = ELLIPSE('',#666,0.919238815543,0.65);
#666 = AXIS2_PLACEMENT_3D('',#667,#668,#669);
#667 = CARTESIAN_POINT('',(-16.92,-26.,29.5));
#668 = DIRECTION('',(0.,0.707106781187,-0.707106781187));
#669 = DIRECTION('',(0.,0.707106781187,0.707106781187));
#670 = ORIENTED_EDGE('',*,*,#671,.F.);
#671 = EDGE_CURVE('',#646,#663,#672,.T.);
#672 = CIRCLE('',#673,0.65);
#673 = AXIS2_PLACEMENT_3D('',#674,#675,#676);
#674 = CARTESIAN_POINT('',(-16.92,-26.,29.5));
#675 = DIRECTION('',(0.,1.,0.));
#676 = DIRECTION('',(0.,0.,1.));
#677 = ORIENTED_EDGE('',*,*,#645,.F.);
#678 = CYLINDRICAL_SURFACE('',#679,0.65);
#679 = AXIS2_PLACEMENT_3D('',#680,#681,#682);
#680 = CARTESIAN_POINT('',(-16.92,-36.,29.5));
#681 = DIRECTION('',(0.,1.,0.));
#682 = DIRECTION('',(0.,0.,1.));
#683 = ADVANCED_FACE('',(#684,#688),#708,.F.);
#684 = FACE_BOUND('',#685,.F.);
#685 = EDGE_LOOP('',(#686,#687));
#686 = ORIENTED_EDGE('',*,*,#611,.F.);
#687 = ORIENTED_EDGE('',*,*,#602,.F.);
#688 = FACE_BOUND('',#689,.F.);
#689 = EDGE_LOOP('',(#690,#701));
#690 = ORIENTED_EDGE('',*,*,#691,.T.);
#691 = EDGE_CURVE('',#692,#694,#696,.T.);
#692 = VERTEX_POINT('',#693);
#693 = CARTESIAN_POINT('',(-16.27,-26.,27.6));
#694 = VERTEX_POINT('',#695);
#695 = CARTESIAN_POINT('',(-17.57,-26.,27.6));
#696 = CIRCLE('',#697,0.65);
#697 = AXIS2_PLACEMENT_3D('',#698,#699,#700);
#698 = CARTESIAN_POINT('',(-16.92,-26.,27.6));
#699 = DIRECTION('',(0.,0.,-1.));
#700 = DIRECTION('',(-1.,0.,0.));
#701 = ORIENTED_EDGE('',*,*,#702,.T.);
#702 = EDGE_CURVE('',#694,#692,#703,.T.);
#703 = CIRCLE('',#704,0.65);
#704 = AXIS2_PLACEMENT_3D('',#705,#706,#707);
#705 = CARTESIAN_POINT('',(-16.92,-26.,27.6));
#706 = DIRECTION('',(0.,0.,-1.));
#707 = DIRECTION('',(-1.,0.,0.));
#708 = PLANE('',#709);
#709 = AXIS2_PLACEMENT_3D('',#710,#711,#712);
#710 = CARTESIAN_POINT('',(-19.92,-29.,27.6));
#711 = DIRECTION('',(0.,0.,1.));
#712 = DIRECTION('',(1.,0.,0.));
#713 = ADVANCED_FACE('',(#714),#725,.F.);
#714 = FACE_BOUND('',#715,.F.);
#715 = EDGE_LOOP('',(#716,#717,#724));
#716 = ORIENTED_EDGE('',*,*,#671,.T.);
#717 = ORIENTED_EDGE('',*,*,#718,.F.);
#718 = EDGE_CURVE('',#654,#663,#719,.T.);
#719 = CIRCLE('',#720,0.65);
#720 = AXIS2_PLACEMENT_3D('',#721,#722,#723);
#721 = CARTESIAN_POINT('',(-16.92,-26.,29.5));
#722 = DIRECTION('',(0.,0.,-1.));
#723 = DIRECTION('',(-1.,0.,0.));
#724 = ORIENTED_EDGE('',*,*,#653,.T.);
#725 = SPHERICAL_SURFACE('',#726,0.65);
#726 = AXIS2_PLACEMENT_3D('',#727,#728,#729);
#727 = CARTESIAN_POINT('',(-16.92,-26.,29.5));
#728 = DIRECTION('',(0.,0.,1.));
#729 = DIRECTION('',(1.,0.,0.));
#730 = ADVANCED_FACE('',(#731),#744,.F.);
#731 = FACE_BOUND('',#732,.F.);
#732 = EDGE_LOOP('',(#733,#734,#735,#741,#742,#743));
#733 = ORIENTED_EDGE('',*,*,#718,.T.);
#734 = ORIENTED_EDGE('',*,*,#662,.T.);
#735 = ORIENTED_EDGE('',*,*,#736,.T.);
#736 = EDGE_CURVE('',#654,#694,#737,.T.);
#737 = LINE('',#738,#739);
#738 = CARTESIAN_POINT('',(-17.57,-26.,29.5));
#739 = VECTOR('',#740,1.);
#740 = DIRECTION('',(0.,0.,-1.));
#741 = ORIENTED_EDGE('',*,*,#691,.F.);
#742 = ORIENTED_EDGE('',*,*,#702,.F.);
#743 = ORIENTED_EDGE('',*,*,#736,.F.);
#744 = CYLINDRICAL_SURFACE('',#745,0.65);
#745 = AXIS2_PLACEMENT_3D('',#746,#747,#748);
#746 = CARTESIAN_POINT('',(-16.92,-26.,29.5));
#747 = DIRECTION('',(0.,0.,-1.));
#748 = DIRECTION('',(-1.,0.,0.));
#749 = ( GEOMETRIC_REPRESENTATION_CONTEXT(3) 
GLOBAL_UNCERTAINTY_ASSIGNED_CONTEXT((#753)) GLOBAL_UNIT_ASSIGNED_CONTEXT
((#750,#751,#752)) REPRESENTATION_CONTEXT('Context #1',
  '3D Context with UNIT and UNCERTAINTY') );
#750 = ( LENGTH_UNIT() NAMED_UNIT(*) SI_UNIT(.MILLI.,.METRE.) );
#751 = ( NAMED_UNIT(*) PLANE_ANGLE_UNIT() SI_UNIT($,.RADIAN.) );
#752 = ( NAMED_UNIT(*) SI_UNIT($,.STERADIAN.) SOLID_ANGLE_UNIT() );
#753 = UNCERTAINTY_MEASURE_WITH_UNIT(LENGTH_MEASURE(1.E-07),#750,
  'distance_accuracy_value','confusion accuracy');
#754 = PRODUCT_RELATED_PRODUCT_CATEGORY('part',$,(#7));
ENDSEC;
END-ISO-10303-21;
