ISO-10303-21;
HEADER;
FILE_DESCRIPTION(('FreeCAD Model'),'2;1');
FILE_NAME('Open CASCADE Shape Model','2026-09-30T01:44:48',('FreeCAD'),(
    'FreeCAD'),'Open CASCADE STEP processor 7.8','FreeCAD','Unknown');
FILE_SCHEMA(('AUTOMOTIVE_DESIGN { 1 0 10303 214 1 1 1 1 }'));
ENDSEC;
DATA;
#1 = APPLICATION_PROTOCOL_DEFINITION('international standard',
  'automotive_design',2000,#2);
#2 = APPLICATION_CONTEXT(
  'core data for automotive mechanical design processes');
#3 = SHAPE_DEFINITION_REPRESENTATION(#4,#10);
#4 = PRODUCT_DEFINITION_SHAPE('','',#5);
#5 = PRODUCT_DEFINITION('design','',#6,#9);
#6 = PRODUCT_DEFINITION_FORMATION('','',#7);
#7 = PRODUCT('Open CASCADE STEP translator 7.8 41',
  'Open CASCADE STEP translator 7.8 41','',(#8));
#8 = PRODUCT_CONTEXT('',#2,'mechanical');
#9 = PRODUCT_DEFINITION_CONTEXT('part definition',#2,'design');
#10 = ADVANCED_BREP_SHAPE_REPRESENTATION('',(#11,#15),#342);
#11 = AXIS2_PLACEMENT_3D('',#12,#13,#14);
#12 = CARTESIAN_POINT('',(0.,0.,0.));
#13 = DIRECTION('',(0.,0.,1.));
#14 = DIRECTION('',(1.,0.,-0.));
#15 = MANIFOLD_SOLID_BREP('',#16);
#16 = CLOSED_SHELL('',(#17,#53,#88,#113,#149,#165,#200,#259,#269,#311,
    #322));
#17 = ADVANCED_FACE('',(#18),#48,.T.);
#18 = FACE_BOUND('',#19,.T.);
#19 = EDGE_LOOP('',(#20,#31,#32,#41));
#20 = ORIENTED_EDGE('',*,*,#21,.T.);
#21 = EDGE_CURVE('',#22,#24,#26,.T.);
#22 = VERTEX_POINT('',#23);
#23 = CARTESIAN_POINT('',(-13.35,-7.,34.3));
#24 = VERTEX_POINT('',#25);
#25 = CARTESIAN_POINT('',(-14.,-7.,34.95));
#26 = CIRCLE('',#27,0.65);
#27 = AXIS2_PLACEMENT_3D('',#28,#29,#30);
#28 = CARTESIAN_POINT('',(-14.,-7.,34.3));
#29 = DIRECTION('',(-2.449293598295E-16,-1.,0.));
#30 = DIRECTION('',(1.,-2.449293598295E-16,0.));
#31 = ORIENTED_EDGE('',*,*,#21,.F.);
#32 = ORIENTED_EDGE('',*,*,#33,.F.);
#33 = EDGE_CURVE('',#34,#22,#36,.T.);
#34 = VERTEX_POINT('',#35);
#35 = CARTESIAN_POINT('',(-14.65,-7.,34.3));
#36 = CIRCLE('',#37,0.65);
#37 = AXIS2_PLACEMENT_3D('',#38,#39,#40);
#38 = CARTESIAN_POINT('',(-14.,-7.,34.3));
#39 = DIRECTION('',(0.,0.,-1.));
#40 = DIRECTION('',(-1.,0.,0.));
#41 = ORIENTED_EDGE('',*,*,#42,.F.);
#42 = EDGE_CURVE('',#22,#34,#43,.T.);
#43 = CIRCLE('',#44,0.65);
#44 = AXIS2_PLACEMENT_3D('',#45,#46,#47);
#45 = CARTESIAN_POINT('',(-14.,-7.,34.3));
#46 = DIRECTION('',(0.,0.,-1.));
#47 = DIRECTION('',(-1.,0.,0.));
#48 = SPHERICAL_SURFACE('',#49,0.65);
#49 = AXIS2_PLACEMENT_3D('',#50,#51,#52);
#50 = CARTESIAN_POINT('',(-14.,-7.,34.3));
#51 = DIRECTION('',(0.,0.,1.));
#52 = DIRECTION('',(1.,0.,0.));
#53 = ADVANCED_FACE('',(#54),#83,.T.);
#54 = FACE_BOUND('',#55,.T.);
#55 = EDGE_LOOP('',(#56,#57,#58,#66,#75,#82));
#56 = ORIENTED_EDGE('',*,*,#33,.T.);
#57 = ORIENTED_EDGE('',*,*,#42,.T.);
#58 = ORIENTED_EDGE('',*,*,#59,.T.);
#59 = EDGE_CURVE('',#34,#60,#62,.T.);
#60 = VERTEX_POINT('',#61);
#61 = CARTESIAN_POINT('',(-14.65,-7.,29.5));
#62 = LINE('',#63,#64);
#63 = CARTESIAN_POINT('',(-14.65,-7.,34.3));
#64 = VECTOR('',#65,1.);
#65 = DIRECTION('',(0.,0.,-1.));
#66 = ORIENTED_EDGE('',*,*,#67,.F.);
#67 = EDGE_CURVE('',#68,#60,#70,.T.);
#68 = VERTEX_POINT('',#69);
#69 = CARTESIAN_POINT('',(-13.35,-7.,29.5));
#70 = ELLIPSE('',#71,0.919238815543,0.65);
#71 = AXIS2_PLACEMENT_3D('',#72,#73,#74);
#72 = CARTESIAN_POINT('',(-14.,-7.,29.5));
#73 = DIRECTION('',(0.,-0.707106781187,-0.707106781187));
#74 = DIRECTION('',(0.,0.707106781187,-0.707106781187));
#75 = ORIENTED_EDGE('',*,*,#76,.F.);
#76 = EDGE_CURVE('',#60,#68,#77,.T.);
#77 = CIRCLE('',#78,0.65);
#78 = AXIS2_PLACEMENT_3D('',#79,#80,#81);
#79 = CARTESIAN_POINT('',(-14.,-7.,29.5));
#80 = DIRECTION('',(0.,0.,-1.));
#81 = DIRECTION('',(-1.,0.,0.));
#82 = ORIENTED_EDGE('',*,*,#59,.F.);
#83 = CYLINDRICAL_SURFACE('',#84,0.65);
#84 = AXIS2_PLACEMENT_3D('',#85,#86,#87);
#85 = CARTESIAN_POINT('',(-14.,-7.,34.3));
#86 = DIRECTION('',(0.,0.,-1.));
#87 = DIRECTION('',(-1.,0.,0.));
#88 = ADVANCED_FACE('',(#89),#108,.T.);
#89 = FACE_BOUND('',#90,.T.);
#90 = EDGE_LOOP('',(#91,#100,#101));
#91 = ORIENTED_EDGE('',*,*,#92,.F.);
#92 = EDGE_CURVE('',#60,#93,#95,.T.);
#93 = VERTEX_POINT('',#94);
#94 = CARTESIAN_POINT('',(-14.,-7.,28.85));
#95 = CIRCLE('',#96,0.65);
#96 = AXIS2_PLACEMENT_3D('',#97,#98,#99);
#97 = CARTESIAN_POINT('',(-14.,-7.,29.5));
#98 = DIRECTION('',(0.,-1.,0.));
#99 = DIRECTION('',(0.,0.,-1.));
#100 = ORIENTED_EDGE('',*,*,#76,.T.);
#101 = ORIENTED_EDGE('',*,*,#102,.F.);
#102 = EDGE_CURVE('',#93,#68,#103,.T.);
#103 = CIRCLE('',#104,0.65);
#104 = AXIS2_PLACEMENT_3D('',#105,#106,#107);
#105 = CARTESIAN_POINT('',(-14.,-7.,29.5));
#106 = DIRECTION('',(-2.449293598295E-16,-1.,0.));
#107 = DIRECTION('',(1.,-2.449293598295E-16,0.));
#108 = SPHERICAL_SURFACE('',#109,0.65);
#109 = AXIS2_PLACEMENT_3D('',#110,#111,#112);
#110 = CARTESIAN_POINT('',(-14.,-7.,29.5));
#111 = DIRECTION('',(0.,0.,1.));
#112 = DIRECTION('',(1.,0.,0.));
#113 = ADVANCED_FACE('',(#114),#144,.T.);
#114 = FACE_BOUND('',#115,.T.);
#115 = EDGE_LOOP('',(#116,#117,#118,#126,#135,#142,#143));
#116 = ORIENTED_EDGE('',*,*,#67,.T.);
#117 = ORIENTED_EDGE('',*,*,#92,.T.);
#118 = ORIENTED_EDGE('',*,*,#119,.T.);
#119 = EDGE_CURVE('',#93,#120,#122,.T.);
#120 = VERTEX_POINT('',#121);
#121 = CARTESIAN_POINT('',(-14.,-22.,28.85));
#122 = LINE('',#123,#124);
#123 = CARTESIAN_POINT('',(-14.,-7.,28.85));
#124 = VECTOR('',#125,1.);
#125 = DIRECTION('',(0.,-1.,0.));
#126 = ORIENTED_EDGE('',*,*,#127,.F.);
#127 = EDGE_CURVE('',#128,#120,#130,.T.);
#128 = VERTEX_POINT('',#129);
#129 = CARTESIAN_POINT('',(-14.,-22.,30.15));
#130 = ELLIPSE('',#131,0.919238815543,0.65);
#131 = AXIS2_PLACEMENT_3D('',#132,#133,#134);
#132 = CARTESIAN_POINT('',(-14.,-22.,29.5));
#133 = DIRECTION('',(-0.707106781187,-0.707106781187,0.));
#134 = DIRECTION('',(0.707106781187,-0.707106781187,0.));
#135 = ORIENTED_EDGE('',*,*,#136,.F.);
#136 = EDGE_CURVE('',#120,#128,#137,.T.);
#137 = CIRCLE('',#138,0.65);
#138 = AXIS2_PLACEMENT_3D('',#139,#140,#141);
#139 = CARTESIAN_POINT('',(-14.,-22.,29.5));
#140 = DIRECTION('',(0.,-1.,0.));
#141 = DIRECTION('',(0.,0.,-1.));
#142 = ORIENTED_EDGE('',*,*,#119,.F.);
#143 = ORIENTED_EDGE('',*,*,#102,.T.);
#144 = CYLINDRICAL_SURFACE('',#145,0.65);
#145 = AXIS2_PLACEMENT_3D('',#146,#147,#148);
#146 = CARTESIAN_POINT('',(-14.,-7.,29.5));
#147 = DIRECTION('',(0.,-1.,0.));
#148 = DIRECTION('',(0.,0.,-1.));
#149 = ADVANCED_FACE('',(#150),#160,.T.);
#150 = FACE_BOUND('',#151,.T.);
#151 = EDGE_LOOP('',(#152,#153));
#152 = ORIENTED_EDGE('',*,*,#136,.T.);
#153 = ORIENTED_EDGE('',*,*,#154,.F.);
#154 = EDGE_CURVE('',#120,#128,#155,.T.);
#155 = CIRCLE('',#156,0.65);
#156 = AXIS2_PLACEMENT_3D('',#157,#158,#159);
#157 = CARTESIAN_POINT('',(-14.,-22.,29.5));
#158 = DIRECTION('',(-1.,0.,0.));
#159 = DIRECTION('',(0.,0.,-1.));
#160 = SPHERICAL_SURFACE('',#161,0.65);
#161 = AXIS2_PLACEMENT_3D('',#162,#163,#164);
#162 = CARTESIAN_POINT('',(-14.,-22.,29.5));
#163 = DIRECTION('',(0.,0.,1.));
#164 = DIRECTION('',(1.,0.,0.));
#165 = ADVANCED_FACE('',(#166),#195,.T.);
#166 = FACE_BOUND('',#167,.T.);
#167 = EDGE_LOOP('',(#168,#169,#170,#178,#187,#194));
#168 = ORIENTED_EDGE('',*,*,#154,.T.);
#169 = ORIENTED_EDGE('',*,*,#127,.T.);
#170 = ORIENTED_EDGE('',*,*,#171,.T.);
#171 = EDGE_CURVE('',#120,#172,#174,.T.);
#172 = VERTEX_POINT('',#173);
#173 = CARTESIAN_POINT('',(-22.,-22.,28.85));
#174 = LINE('',#175,#176);
#175 = CARTESIAN_POINT('',(-14.,-22.,28.85));
#176 = VECTOR('',#177,1.);
#177 = DIRECTION('',(-1.,0.,0.));
#178 = ORIENTED_EDGE('',*,*,#179,.F.);
#179 = EDGE_CURVE('',#180,#172,#182,.T.);
#180 = VERTEX_POINT('',#181);
#181 = CARTESIAN_POINT('',(-22.,-22.,30.15));
#182 = CIRCLE('',#183,0.65);
#183 = AXIS2_PLACEMENT_3D('',#184,#185,#186);
#184 = CARTESIAN_POINT('',(-22.,-22.,29.5));
#185 = DIRECTION('',(-1.,0.,0.));
#186 = DIRECTION('',(0.,0.,-1.));
#187 = ORIENTED_EDGE('',*,*,#188,.F.);
#188 = EDGE_CURVE('',#172,#180,#189,.T.);
#189 = ELLIPSE('',#190,0.919238815543,0.65);
#190 = AXIS2_PLACEMENT_3D('',#191,#192,#193);
#191 = CARTESIAN_POINT('',(-22.,-22.,29.5));
#192 = DIRECTION('',(-0.707106781187,-0.707106781187,-0.));
#193 = DIRECTION('',(-0.707106781187,0.707106781187,0.));
#194 = ORIENTED_EDGE('',*,*,#171,.F.);
#195 = CYLINDRICAL_SURFACE('',#196,0.65);
#196 = AXIS2_PLACEMENT_3D('',#197,#198,#199);
#197 = CARTESIAN_POINT('',(-14.,-22.,29.5));
#198 = DIRECTION('',(-1.,0.,0.));
#199 = DIRECTION('',(0.,0.,-1.));
#200 = ADVANCED_FACE('',(#201),#254,.T.);
#201 = FACE_BOUND('',#202,.T.);
#202 = EDGE_LOOP('',(#203,#204,#211,#219,#228,#237,#246,#253));
#203 = ORIENTED_EDGE('',*,*,#188,.T.);
#204 = ORIENTED_EDGE('',*,*,#205,.T.);
#205 = EDGE_CURVE('',#180,#172,#206,.T.);
#206 = CIRCLE('',#207,0.65);
#207 = AXIS2_PLACEMENT_3D('',#208,#209,#210);
#208 = CARTESIAN_POINT('',(-22.,-22.,29.5));
#209 = DIRECTION('',(0.,-1.,0.));
#210 = DIRECTION('',(0.,0.,-1.));
#211 = ORIENTED_EDGE('',*,*,#212,.T.);
#212 = EDGE_CURVE('',#172,#213,#215,.T.);
#213 = VERTEX_POINT('',#214);
#214 = CARTESIAN_POINT('',(-22.,-25.35,28.85));
#215 = LINE('',#216,#217);
#216 = CARTESIAN_POINT('',(-22.,-22.,28.85));
#217 = VECTOR('',#218,1.);
#218 = DIRECTION('',(0.,-1.,0.));
#219 = ORIENTED_EDGE('',*,*,#220,.F.);
#220 = EDGE_CURVE('',#221,#213,#223,.T.);
#221 = VERTEX_POINT('',#222);
#222 = CARTESIAN_POINT('',(-22.65,-26.,29.5));
#223 = ELLIPSE('',#224,0.919238815543,0.65);
#224 = AXIS2_PLACEMENT_3D('',#225,#226,#227);
#225 = CARTESIAN_POINT('',(-22.,-26.,29.5));
#226 = DIRECTION('',(-0.,-0.707106781187,-0.707106781187));
#227 = DIRECTION('',(0.,-0.707106781187,0.707106781187));
#228 = ORIENTED_EDGE('',*,*,#229,.F.);
#229 = EDGE_CURVE('',#230,#221,#232,.T.);
#230 = VERTEX_POINT('',#231);
#231 = CARTESIAN_POINT('',(-22.,-26.,30.15));
#232 = CIRCLE('',#233,0.65);
#233 = AXIS2_PLACEMENT_3D('',#234,#235,#236);
#234 = CARTESIAN_POINT('',(-22.,-26.,29.5));
#235 = DIRECTION('',(0.,-1.,0.));
#236 = DIRECTION('',(0.,0.,-1.));
#237 = ORIENTED_EDGE('',*,*,#238,.F.);
#238 = EDGE_CURVE('',#239,#230,#241,.T.);
#239 = VERTEX_POINT('',#240);
#240 = CARTESIAN_POINT('',(-21.35,-26.,29.5));
#241 = CIRCLE('',#242,0.65);
#242 = AXIS2_PLACEMENT_3D('',#243,#244,#245);
#243 = CARTESIAN_POINT('',(-22.,-26.,29.5));
#244 = DIRECTION('',(0.,-1.,0.));
#245 = DIRECTION('',(0.,0.,-1.));
#246 = ORIENTED_EDGE('',*,*,#247,.F.);
#247 = EDGE_CURVE('',#213,#239,#248,.T.);
#248 = ELLIPSE('',#249,0.919238815543,0.65);
#249 = AXIS2_PLACEMENT_3D('',#250,#251,#252);
#250 = CARTESIAN_POINT('',(-22.,-26.,29.5));
#251 = DIRECTION('',(-0.,-0.707106781187,-0.707106781187));
#252 = DIRECTION('',(0.,-0.707106781187,0.707106781187));
#253 = ORIENTED_EDGE('',*,*,#212,.F.);
#254 = CYLINDRICAL_SURFACE('',#255,0.65);
#255 = AXIS2_PLACEMENT_3D('',#256,#257,#258);
#256 = CARTESIAN_POINT('',(-22.,-22.,29.5));
#257 = DIRECTION('',(0.,-1.,0.));
#258 = DIRECTION('',(0.,0.,-1.));
#259 = ADVANCED_FACE('',(#260),#264,.T.);
#260 = FACE_BOUND('',#261,.T.);
#261 = EDGE_LOOP('',(#262,#263));
#262 = ORIENTED_EDGE('',*,*,#179,.T.);
#263 = ORIENTED_EDGE('',*,*,#205,.F.);
#264 = SPHERICAL_SURFACE('',#265,0.65);
#265 = AXIS2_PLACEMENT_3D('',#266,#267,#268);
#266 = CARTESIAN_POINT('',(-22.,-22.,29.5));
#267 = DIRECTION('',(0.,0.,1.));
#268 = DIRECTION('',(1.,0.,0.));
#269 = ADVANCED_FACE('',(#270),#306,.T.);
#270 = FACE_BOUND('',#271,.T.);
#271 = EDGE_LOOP('',(#272,#279,#287,#296,#303,#304,#305));
#272 = ORIENTED_EDGE('',*,*,#273,.T.);
#273 = EDGE_CURVE('',#239,#221,#274,.T.);
#274 = CIRCLE('',#275,0.65);
#275 = AXIS2_PLACEMENT_3D('',#276,#277,#278);
#276 = CARTESIAN_POINT('',(-22.,-26.,29.5));
#277 = DIRECTION('',(0.,0.,-1.));
#278 = DIRECTION('',(-1.,0.,0.));
#279 = ORIENTED_EDGE('',*,*,#280,.T.);
#280 = EDGE_CURVE('',#221,#281,#283,.T.);
#281 = VERTEX_POINT('',#282);
#282 = CARTESIAN_POINT('',(-22.65,-26.,27.6));
#283 = LINE('',#284,#285);
#284 = CARTESIAN_POINT('',(-22.65,-26.,29.5));
#285 = VECTOR('',#286,1.);
#286 = DIRECTION('',(0.,0.,-1.));
#287 = ORIENTED_EDGE('',*,*,#288,.F.);
#288 = EDGE_CURVE('',#289,#281,#291,.T.);
#289 = VERTEX_POINT('',#290);
#290 = CARTESIAN_POINT('',(-21.35,-26.,27.6));
#291 = CIRCLE('',#292,0.65);
#292 = AXIS2_PLACEMENT_3D('',#293,#294,#295);
#293 = CARTESIAN_POINT('',(-22.,-26.,27.6));
#294 = DIRECTION('',(0.,0.,-1.));
#295 = DIRECTION('',(-1.,0.,0.));
#296 = ORIENTED_EDGE('',*,*,#297,.F.);
#297 = EDGE_CURVE('',#281,#289,#298,.T.);
#298 = CIRCLE('',#299,0.65);
#299 = AXIS2_PLACEMENT_3D('',#300,#301,#302);
#300 = CARTESIAN_POINT('',(-22.,-26.,27.6));
#301 = DIRECTION('',(0.,0.,-1.));
#302 = DIRECTION('',(-1.,0.,0.));
#303 = ORIENTED_EDGE('',*,*,#280,.F.);
#304 = ORIENTED_EDGE('',*,*,#220,.T.);
#305 = ORIENTED_EDGE('',*,*,#247,.T.);
#306 = CYLINDRICAL_SURFACE('',#307,0.65);
#307 = AXIS2_PLACEMENT_3D('',#308,#309,#310);
#308 = CARTESIAN_POINT('',(-22.,-26.,29.5));
#309 = DIRECTION('',(0.,0.,-1.));
#310 = DIRECTION('',(-1.,0.,0.));
#311 = ADVANCED_FACE('',(#312),#317,.T.);
#312 = FACE_BOUND('',#313,.T.);
#313 = EDGE_LOOP('',(#314,#315,#316));
#314 = ORIENTED_EDGE('',*,*,#273,.F.);
#315 = ORIENTED_EDGE('',*,*,#238,.T.);
#316 = ORIENTED_EDGE('',*,*,#229,.T.);
#317 = SPHERICAL_SURFACE('',#318,0.65);
#318 = AXIS2_PLACEMENT_3D('',#319,#320,#321);
#319 = CARTESIAN_POINT('',(-22.,-26.,29.5));
#320 = DIRECTION('',(0.,0.,1.));
#321 = DIRECTION('',(1.,0.,0.));
#322 = ADVANCED_FACE('',(#323),#337,.T.);
#323 = FACE_BOUND('',#324,.T.);
#324 = EDGE_LOOP('',(#325,#326,#335,#336));
#325 = ORIENTED_EDGE('',*,*,#297,.T.);
#326 = ORIENTED_EDGE('',*,*,#327,.F.);
#327 = EDGE_CURVE('',#328,#289,#330,.T.);
#328 = VERTEX_POINT('',#329);
#329 = CARTESIAN_POINT('',(-22.,-26.,26.95));
#330 = CIRCLE('',#331,0.65);
#331 = AXIS2_PLACEMENT_3D('',#332,#333,#334);
#332 = CARTESIAN_POINT('',(-22.,-26.,27.6));
#333 = DIRECTION('',(-2.449293598295E-16,-1.,0.));
#334 = DIRECTION('',(1.,-2.449293598295E-16,0.));
#335 = ORIENTED_EDGE('',*,*,#327,.T.);
#336 = ORIENTED_EDGE('',*,*,#288,.T.);
#337 = SPHERICAL_SURFACE('',#338,0.65);
#338 = AXIS2_PLACEMENT_3D('',#339,#340,#341);
#339 = CARTESIAN_POINT('',(-22.,-26.,27.6));
#340 = DIRECTION('',(0.,0.,1.));
#341 = DIRECTION('',(1.,0.,0.));
#342 = ( GEOMETRIC_REPRESENTATION_CONTEXT(3) 
GLOBAL_UNCERTAINTY_ASSIGNED_CONTEXT((#346)) GLOBAL_UNIT_ASSIGNED_CONTEXT
((#343,#344,#345)) REPRESENTATION_CONTEXT('Context #1',
  '3D Context with UNIT and UNCERTAINTY') );
#343 = ( LENGTH_UNIT() NAMED_UNIT(*) SI_UNIT(.MILLI.,.METRE.) );
#344 = ( NAMED_UNIT(*) PLANE_ANGLE_UNIT() SI_UNIT($,.RADIAN.) );
#345 = ( NAMED_UNIT(*) SI_UNIT($,.STERADIAN.) SOLID_ANGLE_UNIT() );
#346 = UNCERTAINTY_MEASURE_WITH_UNIT(LENGTH_MEASURE(2.E-07),#343,
  'distance_accuracy_value','confusion accuracy');
#347 = PRODUCT_RELATED_PRODUCT_CATEGORY('part',$,(#7));
ENDSEC;
END-ISO-10303-21;
