ISO-10303-21;
HEADER;
FILE_DESCRIPTION(('FreeCAD Model'),'2;1');
FILE_NAME('Open CASCADE Shape Model','2026-09-30T01:44:50',('FreeCAD'),(
    'FreeCAD'),'Open CASCADE STEP processor 7.8','FreeCAD','Unknown');
FILE_SCHEMA(('AUTOMOTIVE_DESIGN { 1 0 10303 214 1 1 1 1 }'));
ENDSEC;
DATA;
#1 = APPLICATION_PROTOCOL_DEFINITION('international standard',
  'automotive_design',2000,#2);
#2 = APPLICATION_CONTEXT(
  'core data for automotive mechanical design processes');
#3 = SHAPE_DEFINITION_REPRESENTATION(#4,#10);
#4 = PRODUCT_DEFINITION_SHAPE('','',#5);
#5 = PRODUCT_DEFINITION('design','',#6,#9);
#6 = PRODUCT_DEFINITION_FORMATION('','',#7);
#7 = PRODUCT('Open CASCADE STEP translator 7.8 47',
  'Open CASCADE STEP translator 7.8 47','',(#8));
#8 = PRODUCT_CONTEXT('',#2,'mechanical');
#9 = PRODUCT_DEFINITION_CONTEXT('part definition',#2,'design');
#10 = ADVANCED_BREP_SHAPE_REPRESENTATION('',(#11,#15),#429);
#11 = AXIS2_PLACEMENT_3D('',#12,#13,#14);
#12 = CARTESIAN_POINT('',(0.,0.,0.));
#13 = DIRECTION('',(0.,0.,1.));
#14 = DIRECTION('',(1.,0.,-0.));
#15 = MANIFOLD_SOLID_BREP('',#16);
#16 = CLOSED_SHELL('',(#17,#43,#96,#156,#173,#184,#209,#246,#262,#297,
    #313,#357,#374,#409));
#17 = ADVANCED_FACE('',(#18),#38,.T.);
#18 = FACE_BOUND('',#19,.T.);
#19 = EDGE_LOOP('',(#20,#31));
#20 = ORIENTED_EDGE('',*,*,#21,.F.);
#21 = EDGE_CURVE('',#22,#24,#26,.T.);
#22 = VERTEX_POINT('',#23);
#23 = CARTESIAN_POINT('',(1.75,37.,27.325));
#24 = VERTEX_POINT('',#25);
#25 = CARTESIAN_POINT('',(1.75,37.,26.675));
#26 = CIRCLE('',#27,0.325);
#27 = AXIS2_PLACEMENT_3D('',#28,#29,#30);
#28 = CARTESIAN_POINT('',(1.75,37.,27.));
#29 = DIRECTION('',(1.,0.,-0.));
#30 = DIRECTION('',(0.,0.,1.));
#31 = ORIENTED_EDGE('',*,*,#32,.F.);
#32 = EDGE_CURVE('',#24,#22,#33,.T.);
#33 = CIRCLE('',#34,0.325);
#34 = AXIS2_PLACEMENT_3D('',#35,#36,#37);
#35 = CARTESIAN_POINT('',(1.75,37.,27.));
#36 = DIRECTION('',(1.,0.,-0.));
#37 = DIRECTION('',(0.,0.,1.));
#38 = SPHERICAL_SURFACE('',#39,0.325);
#39 = AXIS2_PLACEMENT_3D('',#40,#41,#42);
#40 = CARTESIAN_POINT('',(1.75,37.,27.));
#41 = DIRECTION('',(0.,0.,1.));
#42 = DIRECTION('',(1.,0.,0.));
#43 = ADVANCED_FACE('',(#44),#91,.T.);
#44 = FACE_BOUND('',#45,.T.);
#45 = EDGE_LOOP('',(#46,#47,#48,#56,#65,#74,#83,#90));
#46 = ORIENTED_EDGE('',*,*,#21,.T.);
#47 = ORIENTED_EDGE('',*,*,#32,.T.);
#48 = ORIENTED_EDGE('',*,*,#49,.T.);
#49 = EDGE_CURVE('',#22,#50,#52,.T.);
#50 = VERTEX_POINT('',#51);
#51 = CARTESIAN_POINT('',(3.675,37.,27.325));
#52 = LINE('',#53,#54);
#53 = CARTESIAN_POINT('',(1.75,37.,27.325));
#54 = VECTOR('',#55,1.);
#55 = DIRECTION('',(1.,0.,0.));
#56 = ORIENTED_EDGE('',*,*,#57,.F.);
#57 = EDGE_CURVE('',#58,#50,#60,.T.);
#58 = VERTEX_POINT('',#59);
#59 = CARTESIAN_POINT('',(4.,37.325,27.));
#60 = ELLIPSE('',#61,0.459619407771,0.325);
#61 = AXIS2_PLACEMENT_3D('',#62,#63,#64);
#62 = CARTESIAN_POINT('',(4.,37.,27.));
#63 = DIRECTION('',(0.707106781187,-0.,0.707106781187));
#64 = DIRECTION('',(0.707106781187,0.,-0.707106781187));
#65 = ORIENTED_EDGE('',*,*,#66,.F.);
#66 = EDGE_CURVE('',#67,#58,#69,.T.);
#67 = VERTEX_POINT('',#68);
#68 = CARTESIAN_POINT('',(4.,37.,26.675));
#69 = CIRCLE('',#70,0.325);
#70 = AXIS2_PLACEMENT_3D('',#71,#72,#73);
#71 = CARTESIAN_POINT('',(4.,37.,27.));
#72 = DIRECTION('',(1.,0.,-0.));
#73 = DIRECTION('',(0.,0.,1.));
#74 = ORIENTED_EDGE('',*,*,#75,.F.);
#75 = EDGE_CURVE('',#76,#67,#78,.T.);
#76 = VERTEX_POINT('',#77);
#77 = CARTESIAN_POINT('',(4.,36.675,27.));
#78 = CIRCLE('',#79,0.325);
#79 = AXIS2_PLACEMENT_3D('',#80,#81,#82);
#80 = CARTESIAN_POINT('',(4.,37.,27.));
#81 = DIRECTION('',(1.,0.,-0.));
#82 = DIRECTION('',(0.,0.,1.));
#83 = ORIENTED_EDGE('',*,*,#84,.F.);
#84 = EDGE_CURVE('',#50,#76,#85,.T.);
#85 = ELLIPSE('',#86,0.459619407771,0.325);
#86 = AXIS2_PLACEMENT_3D('',#87,#88,#89);
#87 = CARTESIAN_POINT('',(4.,37.,27.));
#88 = DIRECTION('',(0.707106781187,-0.,0.707106781187));
#89 = DIRECTION('',(0.707106781187,0.,-0.707106781187));
#90 = ORIENTED_EDGE('',*,*,#49,.F.);
#91 = CYLINDRICAL_SURFACE('',#92,0.325);
#92 = AXIS2_PLACEMENT_3D('',#93,#94,#95);
#93 = CARTESIAN_POINT('',(1.75,37.,27.));
#94 = DIRECTION('',(1.,0.,0.));
#95 = DIRECTION('',(0.,0.,1.));
#96 = ADVANCED_FACE('',(#97),#151,.T.);
#97 = FACE_BOUND('',#98,.T.);
#98 = EDGE_LOOP('',(#99,#100,#109,#117,#126,#135,#142,#143,#150));
#99 = ORIENTED_EDGE('',*,*,#84,.T.);
#100 = ORIENTED_EDGE('',*,*,#101,.T.);
#101 = EDGE_CURVE('',#76,#102,#104,.T.);
#102 = VERTEX_POINT('',#103);
#103 = CARTESIAN_POINT('',(4.325,37.,27.));
#104 = CIRCLE('',#105,0.325);
#105 = AXIS2_PLACEMENT_3D('',#106,#107,#108);
#106 = CARTESIAN_POINT('',(4.,37.,27.));
#107 = DIRECTION('',(0.,0.,1.));
#108 = DIRECTION('',(1.,0.,0.));
#109 = ORIENTED_EDGE('',*,*,#110,.T.);
#110 = EDGE_CURVE('',#102,#111,#113,.T.);
#111 = VERTEX_POINT('',#112);
#112 = CARTESIAN_POINT('',(4.325,37.,29.5));
#113 = LINE('',#114,#115);
#114 = CARTESIAN_POINT('',(4.325,37.,27.));
#115 = VECTOR('',#116,1.);
#116 = DIRECTION('',(0.,0.,1.));
#117 = ORIENTED_EDGE('',*,*,#118,.F.);
#118 = EDGE_CURVE('',#119,#111,#121,.T.);
#119 = VERTEX_POINT('',#120);
#120 = CARTESIAN_POINT('',(4.,36.675,29.175));
#121 = ELLIPSE('',#122,0.459619407771,0.325);
#122 = AXIS2_PLACEMENT_3D('',#123,#124,#125);
#123 = CARTESIAN_POINT('',(4.,37.,29.5));
#124 = DIRECTION('',(0.,-0.707106781187,0.707106781187));
#125 = DIRECTION('',(0.,0.707106781187,0.707106781187));
#126 = ORIENTED_EDGE('',*,*,#127,.F.);
#127 = EDGE_CURVE('',#128,#119,#130,.T.);
#128 = VERTEX_POINT('',#129);
#129 = CARTESIAN_POINT('',(3.675,37.,29.5));
#130 = ELLIPSE('',#131,0.459619407771,0.325);
#131 = AXIS2_PLACEMENT_3D('',#132,#133,#134);
#132 = CARTESIAN_POINT('',(4.,37.,29.5));
#133 = DIRECTION('',(0.,-0.707106781187,0.707106781187));
#134 = DIRECTION('',(0.,0.707106781187,0.707106781187));
#135 = ORIENTED_EDGE('',*,*,#136,.F.);
#136 = EDGE_CURVE('',#111,#128,#137,.T.);
#137 = CIRCLE('',#138,0.325);
#138 = AXIS2_PLACEMENT_3D('',#139,#140,#141);
#139 = CARTESIAN_POINT('',(4.,37.,29.5));
#140 = DIRECTION('',(0.,0.,1.));
#141 = DIRECTION('',(1.,0.,0.));
#142 = ORIENTED_EDGE('',*,*,#110,.F.);
#143 = ORIENTED_EDGE('',*,*,#144,.T.);
#144 = EDGE_CURVE('',#102,#58,#145,.T.);
#145 = CIRCLE('',#146,0.325);
#146 = AXIS2_PLACEMENT_3D('',#147,#148,#149);
#147 = CARTESIAN_POINT('',(4.,37.,27.));
#148 = DIRECTION('',(0.,0.,1.));
#149 = DIRECTION('',(1.,0.,0.));
#150 = ORIENTED_EDGE('',*,*,#57,.T.);
#151 = CYLINDRICAL_SURFACE('',#152,0.325);
#152 = AXIS2_PLACEMENT_3D('',#153,#154,#155);
#153 = CARTESIAN_POINT('',(4.,37.,27.));
#154 = DIRECTION('',(0.,0.,1.));
#155 = DIRECTION('',(1.,0.,0.));
#156 = ADVANCED_FACE('',(#157),#168,.T.);
#157 = FACE_BOUND('',#158,.T.);
#158 = EDGE_LOOP('',(#159,#166,#167));
#159 = ORIENTED_EDGE('',*,*,#160,.T.);
#160 = EDGE_CURVE('',#67,#102,#161,.T.);
#161 = CIRCLE('',#162,0.325);
#162 = AXIS2_PLACEMENT_3D('',#163,#164,#165);
#163 = CARTESIAN_POINT('',(4.,37.,27.));
#164 = DIRECTION('',(-2.449293598295E-16,-1.,0.));
#165 = DIRECTION('',(1.,-2.449293598295E-16,0.));
#166 = ORIENTED_EDGE('',*,*,#101,.F.);
#167 = ORIENTED_EDGE('',*,*,#75,.T.);
#168 = SPHERICAL_SURFACE('',#169,0.325);
#169 = AXIS2_PLACEMENT_3D('',#170,#171,#172);
#170 = CARTESIAN_POINT('',(4.,37.,27.));
#171 = DIRECTION('',(0.,0.,1.));
#172 = DIRECTION('',(1.,0.,0.));
#173 = ADVANCED_FACE('',(#174),#179,.T.);
#174 = FACE_BOUND('',#175,.T.);
#175 = EDGE_LOOP('',(#176,#177,#178));
#176 = ORIENTED_EDGE('',*,*,#66,.T.);
#177 = ORIENTED_EDGE('',*,*,#144,.F.);
#178 = ORIENTED_EDGE('',*,*,#160,.F.);
#179 = SPHERICAL_SURFACE('',#180,0.325);
#180 = AXIS2_PLACEMENT_3D('',#181,#182,#183);
#181 = CARTESIAN_POINT('',(4.,37.,27.));
#182 = DIRECTION('',(0.,0.,1.));
#183 = DIRECTION('',(1.,0.,0.));
#184 = ADVANCED_FACE('',(#185),#204,.T.);
#185 = FACE_BOUND('',#186,.T.);
#186 = EDGE_LOOP('',(#187,#196,#197));
#187 = ORIENTED_EDGE('',*,*,#188,.F.);
#188 = EDGE_CURVE('',#111,#189,#191,.T.);
#189 = VERTEX_POINT('',#190);
#190 = CARTESIAN_POINT('',(4.,37.,29.825));
#191 = CIRCLE('',#192,0.325);
#192 = AXIS2_PLACEMENT_3D('',#193,#194,#195);
#193 = CARTESIAN_POINT('',(4.,37.,29.5));
#194 = DIRECTION('',(-2.449293598295E-16,-1.,0.));
#195 = DIRECTION('',(1.,-2.449293598295E-16,0.));
#196 = ORIENTED_EDGE('',*,*,#136,.T.);
#197 = ORIENTED_EDGE('',*,*,#198,.F.);
#198 = EDGE_CURVE('',#189,#128,#199,.T.);
#199 = CIRCLE('',#200,0.325);
#200 = AXIS2_PLACEMENT_3D('',#201,#202,#203);
#201 = CARTESIAN_POINT('',(4.,37.,29.5));
#202 = DIRECTION('',(0.,-1.,0.));
#203 = DIRECTION('',(0.,0.,-1.));
#204 = SPHERICAL_SURFACE('',#205,0.325);
#205 = AXIS2_PLACEMENT_3D('',#206,#207,#208);
#206 = CARTESIAN_POINT('',(4.,37.,29.5));
#207 = DIRECTION('',(0.,0.,1.));
#208 = DIRECTION('',(1.,0.,0.));
#209 = ADVANCED_FACE('',(#210),#241,.T.);
#210 = FACE_BOUND('',#211,.T.);
#211 = EDGE_LOOP('',(#212,#213,#214,#222,#231,#238,#239,#240));
#212 = ORIENTED_EDGE('',*,*,#198,.T.);
#213 = ORIENTED_EDGE('',*,*,#127,.T.);
#214 = ORIENTED_EDGE('',*,*,#215,.T.);
#215 = EDGE_CURVE('',#119,#216,#218,.T.);
#216 = VERTEX_POINT('',#217);
#217 = CARTESIAN_POINT('',(4.,25.,29.175));
#218 = LINE('',#219,#220);
#219 = CARTESIAN_POINT('',(4.,37.,29.175));
#220 = VECTOR('',#221,1.);
#221 = DIRECTION('',(0.,-1.,0.));
#222 = ORIENTED_EDGE('',*,*,#223,.F.);
#223 = EDGE_CURVE('',#224,#216,#226,.T.);
#224 = VERTEX_POINT('',#225);
#225 = CARTESIAN_POINT('',(4.,25.,29.825));
#226 = ELLIPSE('',#227,0.459619407771,0.325);
#227 = AXIS2_PLACEMENT_3D('',#228,#229,#230);
#228 = CARTESIAN_POINT('',(4.,25.,29.5));
#229 = DIRECTION('',(-0.707106781187,-0.707106781187,0.));
#230 = DIRECTION('',(0.707106781187,-0.707106781187,0.));
#231 = ORIENTED_EDGE('',*,*,#232,.F.);
#232 = EDGE_CURVE('',#216,#224,#233,.T.);
#233 = CIRCLE('',#234,0.325);
#234 = AXIS2_PLACEMENT_3D('',#235,#236,#237);
#235 = CARTESIAN_POINT('',(4.,25.,29.5));
#236 = DIRECTION('',(0.,-1.,0.));
#237 = DIRECTION('',(0.,0.,-1.));
#238 = ORIENTED_EDGE('',*,*,#215,.F.);
#239 = ORIENTED_EDGE('',*,*,#118,.T.);
#240 = ORIENTED_EDGE('',*,*,#188,.T.);
#241 = CYLINDRICAL_SURFACE('',#242,0.325);
#242 = AXIS2_PLACEMENT_3D('',#243,#244,#245);
#243 = CARTESIAN_POINT('',(4.,37.,29.5));
#244 = DIRECTION('',(0.,-1.,0.));
#245 = DIRECTION('',(0.,0.,-1.));
#246 = ADVANCED_FACE('',(#247),#257,.T.);
#247 = FACE_BOUND('',#248,.T.);
#248 = EDGE_LOOP('',(#249,#250));
#249 = ORIENTED_EDGE('',*,*,#232,.T.);
#250 = ORIENTED_EDGE('',*,*,#251,.F.);
#251 = EDGE_CURVE('',#216,#224,#252,.T.);
#252 = CIRCLE('',#253,0.325);
#253 = AXIS2_PLACEMENT_3D('',#254,#255,#256);
#254 = CARTESIAN_POINT('',(4.,25.,29.5));
#255 = DIRECTION('',(-1.,0.,0.));
#256 = DIRECTION('',(0.,0.,-1.));
#257 = SPHERICAL_SURFACE('',#258,0.325);
#258 = AXIS2_PLACEMENT_3D('',#259,#260,#261);
#259 = CARTESIAN_POINT('',(4.,25.,29.5));
#260 = DIRECTION('',(0.,0.,1.));
#261 = DIRECTION('',(1.,0.,0.));
#262 = ADVANCED_FACE('',(#263),#292,.T.);
#263 = FACE_BOUND('',#264,.T.);
#264 = EDGE_LOOP('',(#265,#266,#267,#275,#284,#291));
#265 = ORIENTED_EDGE('',*,*,#251,.T.);
#266 = ORIENTED_EDGE('',*,*,#223,.T.);
#267 = ORIENTED_EDGE('',*,*,#268,.T.);
#268 = EDGE_CURVE('',#216,#269,#271,.T.);
#269 = VERTEX_POINT('',#270);
#270 = CARTESIAN_POINT('',(-18.,25.,29.175));
#271 = LINE('',#272,#273);
#272 = CARTESIAN_POINT('',(4.,25.,29.175));
#273 = VECTOR('',#274,1.);
#274 = DIRECTION('',(-1.,0.,0.));
#275 = ORIENTED_EDGE('',*,*,#276,.F.);
#276 = EDGE_CURVE('',#277,#269,#279,.T.);
#277 = VERTEX_POINT('',#278);
#278 = CARTESIAN_POINT('',(-18.,25.,29.825));
#279 = ELLIPSE('',#280,0.459619407771,0.325);
#280 = AXIS2_PLACEMENT_3D('',#281,#282,#283);
#281 = CARTESIAN_POINT('',(-18.,25.,29.5));
#282 = DIRECTION('',(-0.707106781187,0.707106781187,0.));
#283 = DIRECTION('',(-0.707106781187,-0.707106781187,0.));
#284 = ORIENTED_EDGE('',*,*,#285,.F.);
#285 = EDGE_CURVE('',#269,#277,#286,.T.);
#286 = CIRCLE('',#287,0.325);
#287 = AXIS2_PLACEMENT_3D('',#288,#289,#290);
#288 = CARTESIAN_POINT('',(-18.,25.,29.5));
#289 = DIRECTION('',(-1.,0.,0.));
#290 = DIRECTION('',(0.,0.,-1.));
#291 = ORIENTED_EDGE('',*,*,#268,.F.);
#292 = CYLINDRICAL_SURFACE('',#293,0.325);
#293 = AXIS2_PLACEMENT_3D('',#294,#295,#296);
#294 = CARTESIAN_POINT('',(4.,25.,29.5));
#295 = DIRECTION('',(-1.,0.,0.));
#296 = DIRECTION('',(0.,0.,-1.));
#297 = ADVANCED_FACE('',(#298),#308,.T.);
#298 = FACE_BOUND('',#299,.T.);
#299 = EDGE_LOOP('',(#300,#301));
#300 = ORIENTED_EDGE('',*,*,#285,.T.);
#301 = ORIENTED_EDGE('',*,*,#302,.F.);
#302 = EDGE_CURVE('',#269,#277,#303,.T.);
#303 = CIRCLE('',#304,0.325);
#304 = AXIS2_PLACEMENT_3D('',#305,#306,#307);
#305 = CARTESIAN_POINT('',(-18.,25.,29.5));
#306 = DIRECTION('',(0.,1.,0.));
#307 = DIRECTION('',(0.,0.,1.));
#308 = SPHERICAL_SURFACE('',#309,0.325);
#309 = AXIS2_PLACEMENT_3D('',#310,#311,#312);
#310 = CARTESIAN_POINT('',(-18.,25.,29.5));
#311 = DIRECTION('',(0.,0.,1.));
#312 = DIRECTION('',(1.,0.,0.));
#313 = ADVANCED_FACE('',(#314),#352,.T.);
#314 = FACE_BOUND('',#315,.T.);
#315 = EDGE_LOOP('',(#316,#317,#318,#326,#335,#344,#351));
#316 = ORIENTED_EDGE('',*,*,#276,.T.);
#317 = ORIENTED_EDGE('',*,*,#302,.T.);
#318 = ORIENTED_EDGE('',*,*,#319,.T.);
#319 = EDGE_CURVE('',#277,#320,#322,.T.);
#320 = VERTEX_POINT('',#321);
#321 = CARTESIAN_POINT('',(-18.,28.,29.825));
#322 = LINE('',#323,#324);
#323 = CARTESIAN_POINT('',(-18.,25.,29.825));
#324 = VECTOR('',#325,1.);
#325 = DIRECTION('',(0.,1.,0.));
#326 = ORIENTED_EDGE('',*,*,#327,.F.);
#327 = EDGE_CURVE('',#328,#320,#330,.T.);
#328 = VERTEX_POINT('',#329);
#329 = CARTESIAN_POINT('',(-18.325,28.,29.5));
#330 = CIRCLE('',#331,0.325);
#331 = AXIS2_PLACEMENT_3D('',#332,#333,#334);
#332 = CARTESIAN_POINT('',(-18.,28.,29.5));
#333 = DIRECTION('',(0.,1.,0.));
#334 = DIRECTION('',(0.,0.,1.));
#335 = ORIENTED_EDGE('',*,*,#336,.F.);
#336 = EDGE_CURVE('',#337,#328,#339,.T.);
#337 = VERTEX_POINT('',#338);
#338 = CARTESIAN_POINT('',(-17.675,28.,29.5));
#339 = ELLIPSE('',#340,0.459619407771,0.325);
#340 = AXIS2_PLACEMENT_3D('',#341,#342,#343);
#341 = CARTESIAN_POINT('',(-18.,28.,29.5));
#342 = DIRECTION('',(0.,0.707106781187,-0.707106781187));
#343 = DIRECTION('',(0.,0.707106781187,0.707106781187));
#344 = ORIENTED_EDGE('',*,*,#345,.F.);
#345 = EDGE_CURVE('',#320,#337,#346,.T.);
#346 = CIRCLE('',#347,0.325);
#347 = AXIS2_PLACEMENT_3D('',#348,#349,#350);
#348 = CARTESIAN_POINT('',(-18.,28.,29.5));
#349 = DIRECTION('',(0.,1.,0.));
#350 = DIRECTION('',(0.,0.,1.));
#351 = ORIENTED_EDGE('',*,*,#319,.F.);
#352 = CYLINDRICAL_SURFACE('',#353,0.325);
#353 = AXIS2_PLACEMENT_3D('',#354,#355,#356);
#354 = CARTESIAN_POINT('',(-18.,25.,29.5));
#355 = DIRECTION('',(0.,1.,0.));
#356 = DIRECTION('',(0.,0.,1.));
#357 = ADVANCED_FACE('',(#358),#369,.T.);
#358 = FACE_BOUND('',#359,.T.);
#359 = EDGE_LOOP('',(#360,#361,#368));
#360 = ORIENTED_EDGE('',*,*,#345,.T.);
#361 = ORIENTED_EDGE('',*,*,#362,.F.);
#362 = EDGE_CURVE('',#328,#337,#363,.T.);
#363 = CIRCLE('',#364,0.325);
#364 = AXIS2_PLACEMENT_3D('',#365,#366,#367);
#365 = CARTESIAN_POINT('',(-18.,28.,29.5));
#366 = DIRECTION('',(0.,0.,-1.));
#367 = DIRECTION('',(-1.,0.,0.));
#368 = ORIENTED_EDGE('',*,*,#327,.T.);
#369 = SPHERICAL_SURFACE('',#370,0.325);
#370 = AXIS2_PLACEMENT_3D('',#371,#372,#373);
#371 = CARTESIAN_POINT('',(-18.,28.,29.5));
#372 = DIRECTION('',(0.,0.,1.));
#373 = DIRECTION('',(1.,0.,0.));
#374 = ADVANCED_FACE('',(#375),#404,.T.);
#375 = FACE_BOUND('',#376,.T.);
#376 = EDGE_LOOP('',(#377,#378,#386,#395,#402,#403));
#377 = ORIENTED_EDGE('',*,*,#336,.T.);
#378 = ORIENTED_EDGE('',*,*,#379,.T.);
#379 = EDGE_CURVE('',#328,#380,#382,.T.);
#380 = VERTEX_POINT('',#381);
#381 = CARTESIAN_POINT('',(-18.325,28.,27.6));
#382 = LINE('',#383,#384);
#383 = CARTESIAN_POINT('',(-18.325,28.,29.5));
#384 = VECTOR('',#385,1.);
#385 = DIRECTION('',(0.,0.,-1.));
#386 = ORIENTED_EDGE('',*,*,#387,.F.);
#387 = EDGE_CURVE('',#388,#380,#390,.T.);
#388 = VERTEX_POINT('',#389);
#389 = CARTESIAN_POINT('',(-17.675,28.,27.6));
#390 = CIRCLE('',#391,0.325);
#391 = AXIS2_PLACEMENT_3D('',#392,#393,#394);
#392 = CARTESIAN_POINT('',(-18.,28.,27.6));
#393 = DIRECTION('',(0.,0.,-1.));
#394 = DIRECTION('',(-1.,0.,0.));
#395 = ORIENTED_EDGE('',*,*,#396,.F.);
#396 = EDGE_CURVE('',#380,#388,#397,.T.);
#397 = CIRCLE('',#398,0.325);
#398 = AXIS2_PLACEMENT_3D('',#399,#400,#401);
#399 = CARTESIAN_POINT('',(-18.,28.,27.6));
#400 = DIRECTION('',(0.,0.,-1.));
#401 = DIRECTION('',(-1.,0.,0.));
#402 = ORIENTED_EDGE('',*,*,#379,.F.);
#403 = ORIENTED_EDGE('',*,*,#362,.T.);
#404 = CYLINDRICAL_SURFACE('',#405,0.325);
#405 = AXIS2_PLACEMENT_3D('',#406,#407,#408);
#406 = CARTESIAN_POINT('',(-18.,28.,29.5));
#407 = DIRECTION('',(0.,0.,-1.));
#408 = DIRECTION('',(-1.,0.,0.));
#409 = ADVANCED_FACE('',(#410),#424,.T.);
#410 = FACE_BOUND('',#411,.T.);
#411 = EDGE_LOOP('',(#412,#413,#422,#423));
#412 = ORIENTED_EDGE('',*,*,#396,.T.);
#413 = ORIENTED_EDGE('',*,*,#414,.F.);
#414 = EDGE_CURVE('',#415,#388,#417,.T.);
#415 = VERTEX_POINT('',#416);
#416 = CARTESIAN_POINT('',(-18.,28.,27.275));
#417 = CIRCLE('',#418,0.325);
#418 = AXIS2_PLACEMENT_3D('',#419,#420,#421);
#419 = CARTESIAN_POINT('',(-18.,28.,27.6));
#420 = DIRECTION('',(-2.449293598295E-16,-1.,0.));
#421 = DIRECTION('',(1.,-2.449293598295E-16,0.));
#422 = ORIENTED_EDGE('',*,*,#414,.T.);
#423 = ORIENTED_EDGE('',*,*,#387,.T.);
#424 = SPHERICAL_SURFACE('',#425,0.325);
#425 = AXIS2_PLACEMENT_3D('',#426,#427,#428);
#426 = CARTESIAN_POINT('',(-18.,28.,27.6));
#427 = DIRECTION('',(0.,0.,1.));
#428 = DIRECTION('',(1.,0.,0.));
#429 = ( GEOMETRIC_REPRESENTATION_CONTEXT(3) 
GLOBAL_UNCERTAINTY_ASSIGNED_CONTEXT((#433)) GLOBAL_UNIT_ASSIGNED_CONTEXT
((#430,#431,#432)) REPRESENTATION_CONTEXT('Context #1',
  '3D Context with UNIT and UNCERTAINTY') );
#430 = ( LENGTH_UNIT() NAMED_UNIT(*) SI_UNIT(.MILLI.,.METRE.) );
#431 = ( NAMED_UNIT(*) PLANE_ANGLE_UNIT() SI_UNIT($,.RADIAN.) );
#432 = ( NAMED_UNIT(*) SI_UNIT($,.STERADIAN.) SOLID_ANGLE_UNIT() );
#433 = UNCERTAINTY_MEASURE_WITH_UNIT(LENGTH_MEASURE(2.E-07),#430,
  'distance_accuracy_value','confusion accuracy');
#434 = PRODUCT_RELATED_PRODUCT_CATEGORY('part',$,(#7));
ENDSEC;
END-ISO-10303-21;
