ISO-10303-21;
HEADER;
FILE_DESCRIPTION(('FreeCAD Model'),'2;1');
FILE_NAME('Open CASCADE Shape Model','2026-09-30T01:44:51',('FreeCAD'),(
    'FreeCAD'),'Open CASCADE STEP processor 7.8','FreeCAD','Unknown');
FILE_SCHEMA(('AUTOMOTIVE_DESIGN { 1 0 10303 214 1 1 1 1 }'));
ENDSEC;
DATA;
#1 = APPLICATION_PROTOCOL_DEFINITION('international standard',
  'automotive_design',2000,#2);
#2 = APPLICATION_CONTEXT(
  'core data for automotive mechanical design processes');
#3 = SHAPE_DEFINITION_REPRESENTATION(#4,#10);
#4 = PRODUCT_DEFINITION_SHAPE('','',#5);
#5 = PRODUCT_DEFINITION('design','',#6,#9);
#6 = PRODUCT_DEFINITION_FORMATION('','',#7);
#7 = PRODUCT('Open CASCADE STEP translator 7.8 49',
  'Open CASCADE STEP translator 7.8 49','',(#8));
#8 = PRODUCT_CONTEXT('',#2,'mechanical');
#9 = PRODUCT_DEFINITION_CONTEXT('part definition',#2,'design');
#10 = ADVANCED_BREP_SHAPE_REPRESENTATION('',(#11,#15),#551);
#11 = AXIS2_PLACEMENT_3D('',#12,#13,#14);
#12 = CARTESIAN_POINT('',(0.,0.,0.));
#13 = DIRECTION('',(0.,0.,1.));
#14 = DIRECTION('',(1.,0.,-0.));
#15 = MANIFOLD_SOLID_BREP('',#16);
#16 = CLOSED_SHELL('',(#17,#43,#78,#94,#138,#154,#199,#250,#260,#285,
    #302,#347,#398,#409,#468,#478,#520,#531));
#17 = ADVANCED_FACE('',(#18),#38,.T.);
#18 = FACE_BOUND('',#19,.T.);
#19 = EDGE_LOOP('',(#20,#31));
#20 = ORIENTED_EDGE('',*,*,#21,.T.);
#21 = EDGE_CURVE('',#22,#24,#26,.T.);
#22 = VERTEX_POINT('',#23);
#23 = CARTESIAN_POINT('',(-5.,-17.,5.175));
#24 = VERTEX_POINT('',#25);
#25 = CARTESIAN_POINT('',(-5.,-17.,5.825));
#26 = CIRCLE('',#27,0.325);
#27 = AXIS2_PLACEMENT_3D('',#28,#29,#30);
#28 = CARTESIAN_POINT('',(-5.,-17.,5.5));
#29 = DIRECTION('',(-2.449293598295E-16,-1.,0.));
#30 = DIRECTION('',(1.,-2.449293598295E-16,0.));
#31 = ORIENTED_EDGE('',*,*,#32,.F.);
#32 = EDGE_CURVE('',#22,#24,#33,.T.);
#33 = CIRCLE('',#34,0.325);
#34 = AXIS2_PLACEMENT_3D('',#35,#36,#37);
#35 = CARTESIAN_POINT('',(-5.,-17.,5.5));
#36 = DIRECTION('',(0.,1.,0.));
#37 = DIRECTION('',(0.,0.,1.));
#38 = SPHERICAL_SURFACE('',#39,0.325);
#39 = AXIS2_PLACEMENT_3D('',#40,#41,#42);
#40 = CARTESIAN_POINT('',(-5.,-17.,5.5));
#41 = DIRECTION('',(0.,0.,1.));
#42 = DIRECTION('',(1.,0.,0.));
#43 = ADVANCED_FACE('',(#44),#73,.T.);
#44 = FACE_BOUND('',#45,.T.);
#45 = EDGE_LOOP('',(#46,#47,#48,#56,#65,#72));
#46 = ORIENTED_EDGE('',*,*,#21,.F.);
#47 = ORIENTED_EDGE('',*,*,#32,.T.);
#48 = ORIENTED_EDGE('',*,*,#49,.T.);
#49 = EDGE_CURVE('',#24,#50,#52,.T.);
#50 = VERTEX_POINT('',#51);
#51 = CARTESIAN_POINT('',(-5.,24.,5.825));
#52 = LINE('',#53,#54);
#53 = CARTESIAN_POINT('',(-5.,-17.,5.825));
#54 = VECTOR('',#55,1.);
#55 = DIRECTION('',(0.,1.,0.));
#56 = ORIENTED_EDGE('',*,*,#57,.F.);
#57 = EDGE_CURVE('',#58,#50,#60,.T.);
#58 = VERTEX_POINT('',#59);
#59 = CARTESIAN_POINT('',(-5.,24.,5.175));
#60 = ELLIPSE('',#61,0.459619407771,0.325);
#61 = AXIS2_PLACEMENT_3D('',#62,#63,#64);
#62 = CARTESIAN_POINT('',(-5.,24.,5.5));
#63 = DIRECTION('',(-0.707106781187,0.707106781187,0.));
#64 = DIRECTION('',(0.707106781187,0.707106781187,0.));
#65 = ORIENTED_EDGE('',*,*,#66,.F.);
#66 = EDGE_CURVE('',#50,#58,#67,.T.);
#67 = CIRCLE('',#68,0.325);
#68 = AXIS2_PLACEMENT_3D('',#69,#70,#71);
#69 = CARTESIAN_POINT('',(-5.,24.,5.5));
#70 = DIRECTION('',(0.,1.,0.));
#71 = DIRECTION('',(0.,0.,1.));
#72 = ORIENTED_EDGE('',*,*,#49,.F.);
#73 = CYLINDRICAL_SURFACE('',#74,0.325);
#74 = AXIS2_PLACEMENT_3D('',#75,#76,#77);
#75 = CARTESIAN_POINT('',(-5.,-17.,5.5));
#76 = DIRECTION('',(0.,1.,0.));
#77 = DIRECTION('',(0.,0.,1.));
#78 = ADVANCED_FACE('',(#79),#89,.T.);
#79 = FACE_BOUND('',#80,.T.);
#80 = EDGE_LOOP('',(#81,#82));
#81 = ORIENTED_EDGE('',*,*,#66,.T.);
#82 = ORIENTED_EDGE('',*,*,#83,.F.);
#83 = EDGE_CURVE('',#50,#58,#84,.T.);
#84 = CIRCLE('',#85,0.325);
#85 = AXIS2_PLACEMENT_3D('',#86,#87,#88);
#86 = CARTESIAN_POINT('',(-5.,24.,5.5));
#87 = DIRECTION('',(-1.,0.,0.));
#88 = DIRECTION('',(0.,0.,-1.));
#89 = SPHERICAL_SURFACE('',#90,0.325);
#90 = AXIS2_PLACEMENT_3D('',#91,#92,#93);
#91 = CARTESIAN_POINT('',(-5.,24.,5.5));
#92 = DIRECTION('',(0.,0.,1.));
#93 = DIRECTION('',(1.,0.,0.));
#94 = ADVANCED_FACE('',(#95),#133,.T.);
#95 = FACE_BOUND('',#96,.T.);
#96 = EDGE_LOOP('',(#97,#98,#99,#107,#116,#125,#132));
#97 = ORIENTED_EDGE('',*,*,#57,.T.);
#98 = ORIENTED_EDGE('',*,*,#83,.T.);
#99 = ORIENTED_EDGE('',*,*,#100,.T.);
#100 = EDGE_CURVE('',#58,#101,#103,.T.);
#101 = VERTEX_POINT('',#102);
#102 = CARTESIAN_POINT('',(-35.,24.,5.175));
#103 = LINE('',#104,#105);
#104 = CARTESIAN_POINT('',(-5.,24.,5.175));
#105 = VECTOR('',#106,1.);
#106 = DIRECTION('',(-1.,0.,0.));
#107 = ORIENTED_EDGE('',*,*,#108,.F.);
#108 = EDGE_CURVE('',#109,#101,#111,.T.);
#109 = VERTEX_POINT('',#110);
#110 = CARTESIAN_POINT('',(-34.76575325348,24.325,5.5));
#111 = ELLIPSE('',#112,0.40062019202,0.325);
#112 = AXIS2_PLACEMENT_3D('',#113,#114,#115);
#113 = CARTESIAN_POINT('',(-35.,24.,5.5));
#114 = DIRECTION('',(-0.811242185176,0.584710284664,0.));
#115 = DIRECTION('',(-0.584710284664,-0.811242185176,0.));
#116 = ORIENTED_EDGE('',*,*,#117,.F.);
#117 = EDGE_CURVE('',#118,#109,#120,.T.);
#118 = VERTEX_POINT('',#119);
#119 = CARTESIAN_POINT('',(-35.,24.,5.825));
#120 = ELLIPSE('',#121,0.40062019202,0.325);
#121 = AXIS2_PLACEMENT_3D('',#122,#123,#124);
#122 = CARTESIAN_POINT('',(-35.,24.,5.5));
#123 = DIRECTION('',(-0.811242185176,0.584710284664,0.));
#124 = DIRECTION('',(-0.584710284664,-0.811242185176,0.));
#125 = ORIENTED_EDGE('',*,*,#126,.F.);
#126 = EDGE_CURVE('',#101,#118,#127,.T.);
#127 = CIRCLE('',#128,0.325);
#128 = AXIS2_PLACEMENT_3D('',#129,#130,#131);
#129 = CARTESIAN_POINT('',(-35.,24.,5.5));
#130 = DIRECTION('',(-1.,0.,0.));
#131 = DIRECTION('',(0.,0.,-1.));
#132 = ORIENTED_EDGE('',*,*,#100,.F.);
#133 = CYLINDRICAL_SURFACE('',#134,0.325);
#134 = AXIS2_PLACEMENT_3D('',#135,#136,#137);
#135 = CARTESIAN_POINT('',(-5.,24.,5.5));
#136 = DIRECTION('',(-1.,0.,0.));
#137 = DIRECTION('',(0.,0.,-1.));
#138 = ADVANCED_FACE('',(#139),#149,.T.);
#139 = FACE_BOUND('',#140,.T.);
#140 = EDGE_LOOP('',(#141,#142));
#141 = ORIENTED_EDGE('',*,*,#126,.T.);
#142 = ORIENTED_EDGE('',*,*,#143,.F.);
#143 = EDGE_CURVE('',#101,#118,#144,.T.);
#144 = CIRCLE('',#145,0.325);
#145 = AXIS2_PLACEMENT_3D('',#146,#147,#148);
#146 = CARTESIAN_POINT('',(-35.,24.,5.5));
#147 = DIRECTION('',(-0.316227766017,0.948683298051,0.));
#148 = DIRECTION('',(0.948683298051,0.316227766017,0.));
#149 = SPHERICAL_SURFACE('',#150,0.325);
#150 = AXIS2_PLACEMENT_3D('',#151,#152,#153);
#151 = CARTESIAN_POINT('',(-35.,24.,5.5));
#152 = DIRECTION('',(0.,0.,1.));
#153 = DIRECTION('',(1.,0.,0.));
#154 = ADVANCED_FACE('',(#155),#194,.T.);
#155 = FACE_BOUND('',#156,.T.);
#156 = EDGE_LOOP('',(#157,#158,#159,#167,#176,#185,#192,#193));
#157 = ORIENTED_EDGE('',*,*,#143,.T.);
#158 = ORIENTED_EDGE('',*,*,#117,.T.);
#159 = ORIENTED_EDGE('',*,*,#160,.T.);
#160 = EDGE_CURVE('',#109,#161,#163,.T.);
#161 = VERTEX_POINT('',#162);
#162 = CARTESIAN_POINT('',(-36.63481786599,29.932193837551,5.5));
#163 = LINE('',#164,#165);
#164 = CARTESIAN_POINT('',(-34.69167792813,24.102774023955,5.5));
#165 = VECTOR('',#166,1.);
#166 = DIRECTION('',(-0.316227766017,0.948683298051,0.));
#167 = ORIENTED_EDGE('',*,*,#168,.F.);
#168 = EDGE_CURVE('',#169,#161,#171,.T.);
#169 = VERTEX_POINT('',#170);
#170 = CARTESIAN_POINT('',(-37.,30.,5.825));
#171 = ELLIPSE('',#172,0.371423836957,0.325);
#172 = AXIS2_PLACEMENT_3D('',#173,#174,#175);
#173 = CARTESIAN_POINT('',(-37.,30.,5.5));
#174 = DIRECTION('',(0.182557379743,0.983195200915,-0.));
#175 = DIRECTION('',(-0.983195200915,0.182557379743,0.));
#176 = ORIENTED_EDGE('',*,*,#177,.F.);
#177 = EDGE_CURVE('',#178,#169,#180,.T.);
#178 = VERTEX_POINT('',#179);
#179 = CARTESIAN_POINT('',(-37.,30.,5.175));
#180 = CIRCLE('',#181,0.325);
#181 = AXIS2_PLACEMENT_3D('',#182,#183,#184);
#182 = CARTESIAN_POINT('',(-37.,30.,5.5));
#183 = DIRECTION('',(-0.316227766017,0.948683298051,0.));
#184 = DIRECTION('',(0.948683298051,0.316227766017,0.));
#185 = ORIENTED_EDGE('',*,*,#186,.F.);
#186 = EDGE_CURVE('',#161,#178,#187,.T.);
#187 = ELLIPSE('',#188,0.371423836957,0.325);
#188 = AXIS2_PLACEMENT_3D('',#189,#190,#191);
#189 = CARTESIAN_POINT('',(-37.,30.,5.5));
#190 = DIRECTION('',(0.182557379743,0.983195200915,-0.));
#191 = DIRECTION('',(-0.983195200915,0.182557379743,0.));
#192 = ORIENTED_EDGE('',*,*,#160,.F.);
#193 = ORIENTED_EDGE('',*,*,#108,.T.);
#194 = CYLINDRICAL_SURFACE('',#195,0.325);
#195 = AXIS2_PLACEMENT_3D('',#196,#197,#198);
#196 = CARTESIAN_POINT('',(-35.,24.,5.5));
#197 = DIRECTION('',(-0.316227766017,0.948683298051,0.));
#198 = DIRECTION('',(0.948683298051,0.316227766017,0.));
#199 = ADVANCED_FACE('',(#200),#245,.T.);
#200 = FACE_BOUND('',#201,.T.);
#201 = EDGE_LOOP('',(#202,#209,#210,#218,#227,#236,#243,#244));
#202 = ORIENTED_EDGE('',*,*,#203,.T.);
#203 = EDGE_CURVE('',#178,#169,#204,.T.);
#204 = CIRCLE('',#205,0.325);
#205 = AXIS2_PLACEMENT_3D('',#206,#207,#208);
#206 = CARTESIAN_POINT('',(-37.,30.,5.5));
#207 = DIRECTION('',(0.635707252861,0.771930235617,0.));
#208 = DIRECTION('',(0.771930235617,-0.635707252861,0.));
#209 = ORIENTED_EDGE('',*,*,#168,.T.);
#210 = ORIENTED_EDGE('',*,*,#211,.T.);
#211 = EDGE_CURVE('',#161,#212,#214,.T.);
#212 = VERTEX_POINT('',#213);
#213 = CARTESIAN_POINT('',(-29.74912267342,38.29339514282,5.5));
#214 = LINE('',#215,#216);
#215 = CARTESIAN_POINT('',(-36.74912267342,29.79339514282,5.5));
#216 = VECTOR('',#217,1.);
#217 = DIRECTION('',(0.635707252861,0.771930235617,0.));
#218 = ORIENTED_EDGE('',*,*,#219,.F.);
#219 = EDGE_CURVE('',#220,#212,#222,.T.);
#220 = VERTEX_POINT('',#221);
#221 = CARTESIAN_POINT('',(-30.25087732657,38.70660485718,5.5));
#222 = ELLIPSE('',#223,0.459619407771,0.325);
#223 = AXIS2_PLACEMENT_3D('',#224,#225,#226);
#224 = CARTESIAN_POINT('',(-30.,38.5,5.5));
#225 = DIRECTION('',(0.449512909348,0.545837104208,0.707106781187));
#226 = DIRECTION('',(0.449512909348,0.545837104208,-0.707106781187));
#227 = ORIENTED_EDGE('',*,*,#228,.F.);
#228 = EDGE_CURVE('',#229,#220,#231,.T.);
#229 = VERTEX_POINT('',#230);
#230 = CARTESIAN_POINT('',(-30.,38.5,5.175));
#231 = CIRCLE('',#232,0.325);
#232 = AXIS2_PLACEMENT_3D('',#233,#234,#235);
#233 = CARTESIAN_POINT('',(-30.,38.5,5.5));
#234 = DIRECTION('',(0.635707252861,0.771930235617,0.));
#235 = DIRECTION('',(0.771930235617,-0.635707252861,0.));
#236 = ORIENTED_EDGE('',*,*,#237,.F.);
#237 = EDGE_CURVE('',#212,#229,#238,.T.);
#238 = CIRCLE('',#239,0.325);
#239 = AXIS2_PLACEMENT_3D('',#240,#241,#242);
#240 = CARTESIAN_POINT('',(-30.,38.5,5.5));
#241 = DIRECTION('',(0.635707252861,0.771930235617,0.));
#242 = DIRECTION('',(0.771930235617,-0.635707252861,0.));
#243 = ORIENTED_EDGE('',*,*,#211,.F.);
#244 = ORIENTED_EDGE('',*,*,#186,.T.);
#245 = CYLINDRICAL_SURFACE('',#246,0.325);
#246 = AXIS2_PLACEMENT_3D('',#247,#248,#249);
#247 = CARTESIAN_POINT('',(-37.,30.,5.5));
#248 = DIRECTION('',(0.635707252861,0.771930235617,0.));
#249 = DIRECTION('',(0.771930235617,-0.635707252861,0.));
#250 = ADVANCED_FACE('',(#251),#255,.T.);
#251 = FACE_BOUND('',#252,.T.);
#252 = EDGE_LOOP('',(#253,#254));
#253 = ORIENTED_EDGE('',*,*,#177,.T.);
#254 = ORIENTED_EDGE('',*,*,#203,.F.);
#255 = SPHERICAL_SURFACE('',#256,0.325);
#256 = AXIS2_PLACEMENT_3D('',#257,#258,#259);
#257 = CARTESIAN_POINT('',(-37.,30.,5.5));
#258 = DIRECTION('',(0.,0.,1.));
#259 = DIRECTION('',(1.,0.,0.));
#260 = ADVANCED_FACE('',(#261),#280,.T.);
#261 = FACE_BOUND('',#262,.T.);
#262 = EDGE_LOOP('',(#263,#272,#279));
#263 = ORIENTED_EDGE('',*,*,#264,.T.);
#264 = EDGE_CURVE('',#229,#265,#267,.T.);
#265 = VERTEX_POINT('',#266);
#266 = CARTESIAN_POINT('',(-29.675,38.5,5.5));
#267 = CIRCLE('',#268,0.325);
#268 = AXIS2_PLACEMENT_3D('',#269,#270,#271);
#269 = CARTESIAN_POINT('',(-30.,38.5,5.5));
#270 = DIRECTION('',(-2.449293598295E-16,-1.,0.));
#271 = DIRECTION('',(1.,-2.449293598295E-16,0.));
#272 = ORIENTED_EDGE('',*,*,#273,.F.);
#273 = EDGE_CURVE('',#212,#265,#274,.T.);
#274 = CIRCLE('',#275,0.325);
#275 = AXIS2_PLACEMENT_3D('',#276,#277,#278);
#276 = CARTESIAN_POINT('',(-30.,38.5,5.5));
#277 = DIRECTION('',(0.,0.,1.));
#278 = DIRECTION('',(1.,0.,0.));
#279 = ORIENTED_EDGE('',*,*,#237,.T.);
#280 = SPHERICAL_SURFACE('',#281,0.325);
#281 = AXIS2_PLACEMENT_3D('',#282,#283,#284);
#282 = CARTESIAN_POINT('',(-30.,38.5,5.5));
#283 = DIRECTION('',(0.,0.,1.));
#284 = DIRECTION('',(1.,0.,0.));
#285 = ADVANCED_FACE('',(#286),#297,.T.);
#286 = FACE_BOUND('',#287,.T.);
#287 = EDGE_LOOP('',(#288,#289,#296));
#288 = ORIENTED_EDGE('',*,*,#228,.T.);
#289 = ORIENTED_EDGE('',*,*,#290,.F.);
#290 = EDGE_CURVE('',#265,#220,#291,.T.);
#291 = CIRCLE('',#292,0.325);
#292 = AXIS2_PLACEMENT_3D('',#293,#294,#295);
#293 = CARTESIAN_POINT('',(-30.,38.5,5.5));
#294 = DIRECTION('',(0.,0.,1.));
#295 = DIRECTION('',(1.,0.,0.));
#296 = ORIENTED_EDGE('',*,*,#264,.F.);
#297 = SPHERICAL_SURFACE('',#298,0.325);
#298 = AXIS2_PLACEMENT_3D('',#299,#300,#301);
#299 = CARTESIAN_POINT('',(-30.,38.5,5.5));
#300 = DIRECTION('',(0.,0.,1.));
#301 = DIRECTION('',(1.,0.,0.));
#302 = ADVANCED_FACE('',(#303),#342,.T.);
#303 = FACE_BOUND('',#304,.T.);
#304 = EDGE_LOOP('',(#305,#306,#307,#315,#324,#333,#340,#341));
#305 = ORIENTED_EDGE('',*,*,#219,.T.);
#306 = ORIENTED_EDGE('',*,*,#273,.T.);
#307 = ORIENTED_EDGE('',*,*,#308,.T.);
#308 = EDGE_CURVE('',#265,#309,#311,.T.);
#309 = VERTEX_POINT('',#310);
#310 = CARTESIAN_POINT('',(-29.675,38.5,31.175));
#311 = LINE('',#312,#313);
#312 = CARTESIAN_POINT('',(-29.675,38.5,5.5));
#313 = VECTOR('',#314,1.);
#314 = DIRECTION('',(0.,0.,1.));
#315 = ORIENTED_EDGE('',*,*,#316,.F.);
#316 = EDGE_CURVE('',#317,#309,#319,.T.);
#317 = VERTEX_POINT('',#318);
#318 = CARTESIAN_POINT('',(-30.,38.175,31.5));
#319 = ELLIPSE('',#320,0.459619407771,0.325);
#320 = AXIS2_PLACEMENT_3D('',#321,#322,#323);
#321 = CARTESIAN_POINT('',(-30.,38.5,31.5));
#322 = DIRECTION('',(0.707106781187,0.,0.707106781187));
#323 = DIRECTION('',(-0.707106781187,0.,0.707106781187));
#324 = ORIENTED_EDGE('',*,*,#325,.F.);
#325 = EDGE_CURVE('',#326,#317,#328,.T.);
#326 = VERTEX_POINT('',#327);
#327 = CARTESIAN_POINT('',(-30.,38.825,31.5));
#328 = CIRCLE('',#329,0.325);
#329 = AXIS2_PLACEMENT_3D('',#330,#331,#332);
#330 = CARTESIAN_POINT('',(-30.,38.5,31.5));
#331 = DIRECTION('',(0.,0.,1.));
#332 = DIRECTION('',(1.,0.,0.));
#333 = ORIENTED_EDGE('',*,*,#334,.F.);
#334 = EDGE_CURVE('',#309,#326,#335,.T.);
#335 = ELLIPSE('',#336,0.459619407771,0.325);
#336 = AXIS2_PLACEMENT_3D('',#337,#338,#339);
#337 = CARTESIAN_POINT('',(-30.,38.5,31.5));
#338 = DIRECTION('',(0.707106781187,0.,0.707106781187));
#339 = DIRECTION('',(-0.707106781187,0.,0.707106781187));
#340 = ORIENTED_EDGE('',*,*,#308,.F.);
#341 = ORIENTED_EDGE('',*,*,#290,.T.);
#342 = CYLINDRICAL_SURFACE('',#343,0.325);
#343 = AXIS2_PLACEMENT_3D('',#344,#345,#346);
#344 = CARTESIAN_POINT('',(-30.,38.5,5.5));
#345 = DIRECTION('',(0.,0.,1.));
#346 = DIRECTION('',(1.,0.,0.));
#347 = ADVANCED_FACE('',(#348),#393,.T.);
#348 = FACE_BOUND('',#349,.T.);
#349 = EDGE_LOOP('',(#350,#351,#360,#368,#377,#384,#385,#392));
#350 = ORIENTED_EDGE('',*,*,#334,.T.);
#351 = ORIENTED_EDGE('',*,*,#352,.T.);
#352 = EDGE_CURVE('',#326,#353,#355,.T.);
#353 = VERTEX_POINT('',#354);
#354 = CARTESIAN_POINT('',(-30.,38.5,31.825));
#355 = CIRCLE('',#356,0.325);
#356 = AXIS2_PLACEMENT_3D('',#357,#358,#359);
#357 = CARTESIAN_POINT('',(-30.,38.5,31.5));
#358 = DIRECTION('',(1.,0.,-0.));
#359 = DIRECTION('',(0.,0.,1.));
#360 = ORIENTED_EDGE('',*,*,#361,.T.);
#361 = EDGE_CURVE('',#353,#362,#364,.T.);
#362 = VERTEX_POINT('',#363);
#363 = CARTESIAN_POINT('',(-12.92,38.5,31.825));
#364 = LINE('',#365,#366);
#365 = CARTESIAN_POINT('',(-30.,38.5,31.825));
#366 = VECTOR('',#367,1.);
#367 = DIRECTION('',(1.,0.,0.));
#368 = ORIENTED_EDGE('',*,*,#369,.F.);
#369 = EDGE_CURVE('',#370,#362,#372,.T.);
#370 = VERTEX_POINT('',#371);
#371 = CARTESIAN_POINT('',(-12.92,38.5,31.175));
#372 = CIRCLE('',#373,0.325);
#373 = AXIS2_PLACEMENT_3D('',#374,#375,#376);
#374 = CARTESIAN_POINT('',(-12.92,38.5,31.5));
#375 = DIRECTION('',(1.,0.,-0.));
#376 = DIRECTION('',(0.,0.,1.));
#377 = ORIENTED_EDGE('',*,*,#378,.F.);
#378 = EDGE_CURVE('',#362,#370,#379,.T.);
#379 = ELLIPSE('',#380,0.459619407771,0.325);
#380 = AXIS2_PLACEMENT_3D('',#381,#382,#383);
#381 = CARTESIAN_POINT('',(-12.92,38.5,31.5));
#382 = DIRECTION('',(0.707106781187,-0.707106781187,0.));
#383 = DIRECTION('',(0.707106781187,0.707106781187,0.));
#384 = ORIENTED_EDGE('',*,*,#361,.F.);
#385 = ORIENTED_EDGE('',*,*,#386,.T.);
#386 = EDGE_CURVE('',#353,#317,#387,.T.);
#387 = CIRCLE('',#388,0.325);
#388 = AXIS2_PLACEMENT_3D('',#389,#390,#391);
#389 = CARTESIAN_POINT('',(-30.,38.5,31.5));
#390 = DIRECTION('',(1.,0.,-0.));
#391 = DIRECTION('',(0.,0.,1.));
#392 = ORIENTED_EDGE('',*,*,#316,.T.);
#393 = CYLINDRICAL_SURFACE('',#394,0.325);
#394 = AXIS2_PLACEMENT_3D('',#395,#396,#397);
#395 = CARTESIAN_POINT('',(-30.,38.5,31.5));
#396 = DIRECTION('',(1.,0.,0.));
#397 = DIRECTION('',(0.,0.,1.));
#398 = ADVANCED_FACE('',(#399),#404,.T.);
#399 = FACE_BOUND('',#400,.T.);
#400 = EDGE_LOOP('',(#401,#402,#403));
#401 = ORIENTED_EDGE('',*,*,#386,.F.);
#402 = ORIENTED_EDGE('',*,*,#352,.F.);
#403 = ORIENTED_EDGE('',*,*,#325,.T.);
#404 = SPHERICAL_SURFACE('',#405,0.325);
#405 = AXIS2_PLACEMENT_3D('',#406,#407,#408);
#406 = CARTESIAN_POINT('',(-30.,38.5,31.5));
#407 = DIRECTION('',(0.,0.,1.));
#408 = DIRECTION('',(1.,0.,0.));
#409 = ADVANCED_FACE('',(#410),#463,.T.);
#410 = FACE_BOUND('',#411,.T.);
#411 = EDGE_LOOP('',(#412,#419,#420,#428,#437,#446,#455,#462));
#412 = ORIENTED_EDGE('',*,*,#413,.T.);
#413 = EDGE_CURVE('',#370,#362,#414,.T.);
#414 = CIRCLE('',#415,0.325);
#415 = AXIS2_PLACEMENT_3D('',#416,#417,#418);
#416 = CARTESIAN_POINT('',(-12.92,38.5,31.5));
#417 = DIRECTION('',(-2.449293598295E-16,-1.,0.));
#418 = DIRECTION('',(1.,-2.449293598295E-16,0.));
#419 = ORIENTED_EDGE('',*,*,#378,.T.);
#420 = ORIENTED_EDGE('',*,*,#421,.T.);
#421 = EDGE_CURVE('',#370,#422,#424,.T.);
#422 = VERTEX_POINT('',#423);
#423 = CARTESIAN_POINT('',(-12.92,28.325,31.175));
#424 = LINE('',#425,#426);
#425 = CARTESIAN_POINT('',(-12.92,38.5,31.175));
#426 = VECTOR('',#427,1.);
#427 = DIRECTION('',(0.,-1.,0.));
#428 = ORIENTED_EDGE('',*,*,#429,.F.);
#429 = EDGE_CURVE('',#430,#422,#432,.T.);
#430 = VERTEX_POINT('',#431);
#431 = CARTESIAN_POINT('',(-13.245,28.,31.5));
#432 = ELLIPSE('',#433,0.459619407771,0.325);
#433 = AXIS2_PLACEMENT_3D('',#434,#435,#436);
#434 = CARTESIAN_POINT('',(-12.92,28.,31.5));
#435 = DIRECTION('',(-0.,-0.707106781187,-0.707106781187));
#436 = DIRECTION('',(0.,-0.707106781187,0.707106781187));
#437 = ORIENTED_EDGE('',*,*,#438,.F.);
#438 = EDGE_CURVE('',#439,#430,#441,.T.);
#439 = VERTEX_POINT('',#440);
#440 = CARTESIAN_POINT('',(-12.92,28.,31.825));
#441 = CIRCLE('',#442,0.325);
#442 = AXIS2_PLACEMENT_3D('',#443,#444,#445);
#443 = CARTESIAN_POINT('',(-12.92,28.,31.5));
#444 = DIRECTION('',(0.,-1.,0.));
#445 = DIRECTION('',(0.,0.,-1.));
#446 = ORIENTED_EDGE('',*,*,#447,.F.);
#447 = EDGE_CURVE('',#448,#439,#450,.T.);
#448 = VERTEX_POINT('',#449);
#449 = CARTESIAN_POINT('',(-12.595,28.,31.5));
#450 = CIRCLE('',#451,0.325);
#451 = AXIS2_PLACEMENT_3D('',#452,#453,#454);
#452 = CARTESIAN_POINT('',(-12.92,28.,31.5));
#453 = DIRECTION('',(0.,-1.,0.));
#454 = DIRECTION('',(0.,0.,-1.));
#455 = ORIENTED_EDGE('',*,*,#456,.F.);
#456 = EDGE_CURVE('',#422,#448,#457,.T.);
#457 = ELLIPSE('',#458,0.459619407771,0.325);
#458 = AXIS2_PLACEMENT_3D('',#459,#460,#461);
#459 = CARTESIAN_POINT('',(-12.92,28.,31.5));
#460 = DIRECTION('',(-0.,-0.707106781187,-0.707106781187));
#461 = DIRECTION('',(0.,-0.707106781187,0.707106781187));
#462 = ORIENTED_EDGE('',*,*,#421,.F.);
#463 = CYLINDRICAL_SURFACE('',#464,0.325);
#464 = AXIS2_PLACEMENT_3D('',#465,#466,#467);
#465 = CARTESIAN_POINT('',(-12.92,38.5,31.5));
#466 = DIRECTION('',(0.,-1.,0.));
#467 = DIRECTION('',(0.,0.,-1.));
#468 = ADVANCED_FACE('',(#469),#473,.T.);
#469 = FACE_BOUND('',#470,.T.);
#470 = EDGE_LOOP('',(#471,#472));
#471 = ORIENTED_EDGE('',*,*,#369,.T.);
#472 = ORIENTED_EDGE('',*,*,#413,.F.);
#473 = SPHERICAL_SURFACE('',#474,0.325);
#474 = AXIS2_PLACEMENT_3D('',#475,#476,#477);
#475 = CARTESIAN_POINT('',(-12.92,38.5,31.5));
#476 = DIRECTION('',(0.,0.,1.));
#477 = DIRECTION('',(1.,0.,0.));
#478 = ADVANCED_FACE('',(#479),#515,.T.);
#479 = FACE_BOUND('',#480,.T.);
#480 = EDGE_LOOP('',(#481,#488,#496,#505,#512,#513,#514));
#481 = ORIENTED_EDGE('',*,*,#482,.T.);
#482 = EDGE_CURVE('',#448,#430,#483,.T.);
#483 = CIRCLE('',#484,0.325);
#484 = AXIS2_PLACEMENT_3D('',#485,#486,#487);
#485 = CARTESIAN_POINT('',(-12.92,28.,31.5));
#486 = DIRECTION('',(0.,0.,-1.));
#487 = DIRECTION('',(-1.,0.,0.));
#488 = ORIENTED_EDGE('',*,*,#489,.T.);
#489 = EDGE_CURVE('',#430,#490,#492,.T.);
#490 = VERTEX_POINT('',#491);
#491 = CARTESIAN_POINT('',(-13.245,28.,27.6));
#492 = LINE('',#493,#494);
#493 = CARTESIAN_POINT('',(-13.245,28.,31.5));
#494 = VECTOR('',#495,1.);
#495 = DIRECTION('',(0.,0.,-1.));
#496 = ORIENTED_EDGE('',*,*,#497,.F.);
#497 = EDGE_CURVE('',#498,#490,#500,.T.);
#498 = VERTEX_POINT('',#499);
#499 = CARTESIAN_POINT('',(-12.595,28.,27.6));
#500 = CIRCLE('',#501,0.325);
#501 = AXIS2_PLACEMENT_3D('',#502,#503,#504);
#502 = CARTESIAN_POINT('',(-12.92,28.,27.6));
#503 = DIRECTION('',(0.,0.,-1.));
#504 = DIRECTION('',(-1.,0.,0.));
#505 = ORIENTED_EDGE('',*,*,#506,.F.);
#506 = EDGE_CURVE('',#490,#498,#507,.T.);
#507 = CIRCLE('',#508,0.325);
#508 = AXIS2_PLACEMENT_3D('',#509,#510,#511);
#509 = CARTESIAN_POINT('',(-12.92,28.,27.6));
#510 = DIRECTION('',(0.,0.,-1.));
#511 = DIRECTION('',(-1.,0.,0.));
#512 = ORIENTED_EDGE('',*,*,#489,.F.);
#513 = ORIENTED_EDGE('',*,*,#429,.T.);
#514 = ORIENTED_EDGE('',*,*,#456,.T.);
#515 = CYLINDRICAL_SURFACE('',#516,0.325);
#516 = AXIS2_PLACEMENT_3D('',#517,#518,#519);
#517 = CARTESIAN_POINT('',(-12.92,28.,31.5));
#518 = DIRECTION('',(0.,0.,-1.));
#519 = DIRECTION('',(-1.,0.,0.));
#520 = ADVANCED_FACE('',(#521),#526,.T.);
#521 = FACE_BOUND('',#522,.T.);
#522 = EDGE_LOOP('',(#523,#524,#525));
#523 = ORIENTED_EDGE('',*,*,#482,.F.);
#524 = ORIENTED_EDGE('',*,*,#447,.T.);
#525 = ORIENTED_EDGE('',*,*,#438,.T.);
#526 = SPHERICAL_SURFACE('',#527,0.325);
#527 = AXIS2_PLACEMENT_3D('',#528,#529,#530);
#528 = CARTESIAN_POINT('',(-12.92,28.,31.5));
#529 = DIRECTION('',(0.,0.,1.));
#530 = DIRECTION('',(1.,0.,0.));
#531 = ADVANCED_FACE('',(#532),#546,.T.);
#532 = FACE_BOUND('',#533,.T.);
#533 = EDGE_LOOP('',(#534,#535,#544,#545));
#534 = ORIENTED_EDGE('',*,*,#506,.T.);
#535 = ORIENTED_EDGE('',*,*,#536,.F.);
#536 = EDGE_CURVE('',#537,#498,#539,.T.);
#537 = VERTEX_POINT('',#538);
#538 = CARTESIAN_POINT('',(-12.92,28.,27.275));
#539 = CIRCLE('',#540,0.325);
#540 = AXIS2_PLACEMENT_3D('',#541,#542,#543);
#541 = CARTESIAN_POINT('',(-12.92,28.,27.6));
#542 = DIRECTION('',(-2.449293598295E-16,-1.,0.));
#543 = DIRECTION('',(1.,-2.449293598295E-16,0.));
#544 = ORIENTED_EDGE('',*,*,#536,.T.);
#545 = ORIENTED_EDGE('',*,*,#497,.T.);
#546 = SPHERICAL_SURFACE('',#547,0.325);
#547 = AXIS2_PLACEMENT_3D('',#548,#549,#550);
#548 = CARTESIAN_POINT('',(-12.92,28.,27.6));
#549 = DIRECTION('',(0.,0.,1.));
#550 = DIRECTION('',(1.,0.,0.));
#551 = ( GEOMETRIC_REPRESENTATION_CONTEXT(3) 
GLOBAL_UNCERTAINTY_ASSIGNED_CONTEXT((#555)) GLOBAL_UNIT_ASSIGNED_CONTEXT
((#552,#553,#554)) REPRESENTATION_CONTEXT('Context #1',
  '3D Context with UNIT and UNCERTAINTY') );
#552 = ( LENGTH_UNIT() NAMED_UNIT(*) SI_UNIT(.MILLI.,.METRE.) );
#553 = ( NAMED_UNIT(*) PLANE_ANGLE_UNIT() SI_UNIT($,.RADIAN.) );
#554 = ( NAMED_UNIT(*) SI_UNIT($,.STERADIAN.) SOLID_ANGLE_UNIT() );
#555 = UNCERTAINTY_MEASURE_WITH_UNIT(LENGTH_MEASURE(2.E-07),#552,
  'distance_accuracy_value','confusion accuracy');
#556 = PRODUCT_RELATED_PRODUCT_CATEGORY('part',$,(#7));
ENDSEC;
END-ISO-10303-21;
