ISO-10303-21;
HEADER;
FILE_DESCRIPTION(('FreeCAD Model'),'2;1');
FILE_NAME('Open CASCADE Shape Model','2026-09-30T01:44:46',('FreeCAD'),(
    'FreeCAD'),'Open CASCADE STEP processor 7.8','FreeCAD','Unknown');
FILE_SCHEMA(('AUTOMOTIVE_DESIGN { 1 0 10303 214 1 1 1 1 }'));
ENDSEC;
DATA;
#1 = APPLICATION_PROTOCOL_DEFINITION('international standard',
  'automotive_design',2000,#2);
#2 = APPLICATION_CONTEXT(
  'core data for automotive mechanical design processes');
#3 = SHAPE_DEFINITION_REPRESENTATION(#4,#10);
#4 = PRODUCT_DEFINITION_SHAPE('','',#5);
#5 = PRODUCT_DEFINITION('design','',#6,#9);
#6 = PRODUCT_DEFINITION_FORMATION('','',#7);
#7 = PRODUCT('Open CASCADE STEP translator 7.8 38',
  'Open CASCADE STEP translator 7.8 38','',(#8));
#8 = PRODUCT_CONTEXT('',#2,'mechanical');
#9 = PRODUCT_DEFINITION_CONTEXT('part definition',#2,'design');
#10 = ADVANCED_BREP_SHAPE_REPRESENTATION('',(#11,#15),#1340);
#11 = AXIS2_PLACEMENT_3D('',#12,#13,#14);
#12 = CARTESIAN_POINT('',(0.,0.,0.));
#13 = DIRECTION('',(0.,0.,1.));
#14 = DIRECTION('',(1.,0.,-0.));
#15 = MANIFOLD_SOLID_BREP('',#16);
#16 = CLOSED_SHELL('',(#17,#52,#135,#152,#255,#271,#324,#349,#391,#402,
    #453,#464,#480,#533,#558,#595,#646,#657,#716,#726,#751,#788,#813,
    #923,#934,#993,#1003,#1054,#1073,#1159,#1184,#1245,#1256,#1266,#1293
    ,#1330));
#17 = ADVANCED_FACE('',(#18),#47,.T.);
#18 = FACE_BOUND('',#19,.T.);
#19 = EDGE_LOOP('',(#20,#31,#40));
#20 = ORIENTED_EDGE('',*,*,#21,.F.);
#21 = EDGE_CURVE('',#22,#24,#26,.T.);
#22 = VERTEX_POINT('',#23);
#23 = CARTESIAN_POINT('',(-34.,11.75,29.807669683062));
#24 = VERTEX_POINT('',#25);
#25 = CARTESIAN_POINT('',(-34.,11.25,27.1));
#26 = CIRCLE('',#27,1.4);
#27 = AXIS2_PLACEMENT_3D('',#28,#29,#30);
#28 = CARTESIAN_POINT('',(-34.,11.25,28.5));
#29 = DIRECTION('',(-1.,0.,0.));
#30 = DIRECTION('',(0.,0.,-1.));
#31 = ORIENTED_EDGE('',*,*,#32,.F.);
#32 = EDGE_CURVE('',#33,#22,#35,.T.);
#33 = VERTEX_POINT('',#34);
#34 = CARTESIAN_POINT('',(-33.5,11.25,29.807669683062));
#35 = CIRCLE('',#36,0.5);
#36 = AXIS2_PLACEMENT_3D('',#37,#38,#39);
#37 = CARTESIAN_POINT('',(-34.,11.25,29.807669683062));
#38 = DIRECTION('',(-0.,0.,1.));
#39 = DIRECTION('',(0.,-1.,0.));
#40 = ORIENTED_EDGE('',*,*,#41,.F.);
#41 = EDGE_CURVE('',#24,#33,#42,.T.);
#42 = CIRCLE('',#43,1.4);
#43 = AXIS2_PLACEMENT_3D('',#44,#45,#46);
#44 = CARTESIAN_POINT('',(-34.,11.25,28.5));
#45 = DIRECTION('',(-2.449293598295E-16,-1.,0.));
#46 = DIRECTION('',(1.,-2.449293598295E-16,0.));
#47 = SPHERICAL_SURFACE('',#48,1.4);
#48 = AXIS2_PLACEMENT_3D('',#49,#50,#51);
#49 = CARTESIAN_POINT('',(-34.,11.25,28.5));
#50 = DIRECTION('',(0.,0.,1.));
#51 = DIRECTION('',(1.,0.,0.));
#52 = ADVANCED_FACE('',(#53),#130,.T.);
#53 = FACE_BOUND('',#54,.T.);
#54 = EDGE_LOOP('',(#55,#63,#72,#112,#113,#114,#123));
#55 = ORIENTED_EDGE('',*,*,#56,.F.);
#56 = EDGE_CURVE('',#24,#57,#59,.T.);
#57 = VERTEX_POINT('',#58);
#58 = CARTESIAN_POINT('',(-39.,11.25,27.1));
#59 = LINE('',#60,#61);
#60 = CARTESIAN_POINT('',(-34.,11.25,27.1));
#61 = VECTOR('',#62,1.);
#62 = DIRECTION('',(-1.,0.,0.));
#63 = ORIENTED_EDGE('',*,*,#64,.T.);
#64 = EDGE_CURVE('',#24,#65,#67,.T.);
#65 = VERTEX_POINT('',#66);
#66 = CARTESIAN_POINT('',(-34.,10.75,29.807669683062));
#67 = CIRCLE('',#68,1.4);
#68 = AXIS2_PLACEMENT_3D('',#69,#70,#71);
#69 = CARTESIAN_POINT('',(-34.,11.25,28.5));
#70 = DIRECTION('',(-1.,0.,0.));
#71 = DIRECTION('',(0.,0.,-1.));
#72 = ORIENTED_EDGE('',*,*,#73,.F.);
#73 = EDGE_CURVE('',#22,#65,#74,.T.);
#74 = B_SPLINE_CURVE_WITH_KNOTS('',6,(#75,#76,#77,#78,#79,#80,#81,#82,
    #83,#84,#85,#86,#87,#88,#89,#90,#91,#92,#93,#94,#95,#96,#97,#98,#99,
    #100,#101,#102,#103,#104,#105,#106,#107,#108,#109,#110,#111),
  .UNSPECIFIED.,.F.,.F.,(7,5,5,5,5,5,5,7),(0.,0.178586221198,
    0.347717226069,0.499982159104,0.65167103193,0.820288762872,
    0.960362502833,1.),.UNSPECIFIED.);
#75 = CARTESIAN_POINT('',(-33.9999994,11.75,29.807669683062));
#76 = CARTESIAN_POINT('',(-34.04596971661,11.750000055164,29.80766966197
    ));
#77 = CARTESIAN_POINT('',(-34.09189802198,11.744928263104,
    29.809608853821));
#78 = CARTESIAN_POINT('',(-34.13714159311,11.73480203024,29.81348098098)
  );
#79 = CARTESIAN_POINT('',(-34.18105735696,11.719725288905,
    29.819075978491));
#80 = CARTESIAN_POINT('',(-34.22298868687,11.699897999144,
    29.825985801595));
#81 = CARTESIAN_POINT('',(-34.29953003413,11.652733318002,
    29.841039066947));
#82 = CARTESIAN_POINT('',(-34.33447493099,11.625809356611,
    29.849110922335));
#83 = CARTESIAN_POINT('',(-34.36661142008,11.595157939008,
    29.857522256935));
#84 = CARTESIAN_POINT('',(-34.39545347685,11.561117379834,
    29.865802397415));
#85 = CARTESIAN_POINT('',(-34.42056293379,11.524098370327,
    29.873490963214));
#86 = CARTESIAN_POINT('',(-34.46046332142,11.448990054134,
    29.886256004681));
#87 = CARTESIAN_POINT('',(-34.47603976774,11.411363658254,
    29.891518163543));
#88 = CARTESIAN_POINT('',(-34.48795291753,11.372139606331,
    29.895697552912));
#89 = CARTESIAN_POINT('',(-34.49597950514,11.331819542727,
    29.898564085012));
#90 = CARTESIAN_POINT('',(-34.5,11.290929251451,29.9));
#91 = CARTESIAN_POINT('',(-34.5,11.209225595188,29.9));
#92 = CARTESIAN_POINT('',(-34.49600986913,11.168489658505,
    29.898574930474));
#93 = CARTESIAN_POINT('',(-34.48804377222,11.128317549976,
    29.895729997383));
#94 = CARTESIAN_POINT('',(-34.47621949448,11.089229300933,
    29.891581219544));
#95 = CARTESIAN_POINT('',(-34.46075710816,11.051721239291,
    29.886355280095));
#96 = CARTESIAN_POINT('',(-34.42112487368,10.976787252292,29.87366499016
    ));
#97 = CARTESIAN_POINT('',(-34.39616871695,10.939823925225,
    29.866014051142));
#98 = CARTESIAN_POINT('',(-34.36749546407,10.905813583653,
    29.857767980805));
#99 = CARTESIAN_POINT('',(-34.33553868343,10.87516438904,29.849382421973
    ));
#100 = CARTESIAN_POINT('',(-34.30077957827,10.848213031815,
    29.841323902658));
#101 = CARTESIAN_POINT('',(-34.23296447668,10.80610868226,
    29.827916613182));
#102 = CARTESIAN_POINT('',(-34.20058322067,10.789710525666,
    29.82233294168));
#103 = CARTESIAN_POINT('',(-34.16689371751,10.776182103484,
    29.817487496839));
#104 = CARTESIAN_POINT('',(-34.13220278162,10.76563505549,
    29.813582156062));
#105 = CARTESIAN_POINT('',(-34.09681779786,10.758140631938,
    29.810761805327));
#106 = CARTESIAN_POINT('',(-34.05091739766,10.752494761364,
    29.808621530871));
#107 = CARTESIAN_POINT('',(-34.04076369265,10.75149741521,
    29.808241822114));
#108 = CARTESIAN_POINT('',(-34.03058758442,10.750748839261,
    29.807956009477));
#109 = CARTESIAN_POINT('',(-34.02039651385,10.750249601673,
    29.807765122393));
#110 = CARTESIAN_POINT('',(-34.01019795199,10.749999987762,
    29.807669678383));
#111 = CARTESIAN_POINT('',(-33.9999994,10.75,29.807669683062));
#112 = ORIENTED_EDGE('',*,*,#21,.T.);
#113 = ORIENTED_EDGE('',*,*,#56,.T.);
#114 = ORIENTED_EDGE('',*,*,#115,.F.);
#115 = EDGE_CURVE('',#116,#57,#118,.T.);
#116 = VERTEX_POINT('',#117);
#117 = CARTESIAN_POINT('',(-39.,11.25,29.9));
#118 = ELLIPSE('',#119,1.979898987322,1.4);
#119 = AXIS2_PLACEMENT_3D('',#120,#121,#122);
#120 = CARTESIAN_POINT('',(-39.,11.25,28.5));
#121 = DIRECTION('',(-0.707106781187,0.707106781187,0.));
#122 = DIRECTION('',(-0.707106781187,-0.707106781187,0.));
#123 = ORIENTED_EDGE('',*,*,#124,.F.);
#124 = EDGE_CURVE('',#57,#116,#125,.T.);
#125 = CIRCLE('',#126,1.4);
#126 = AXIS2_PLACEMENT_3D('',#127,#128,#129);
#127 = CARTESIAN_POINT('',(-39.,11.25,28.5));
#128 = DIRECTION('',(-1.,0.,0.));
#129 = DIRECTION('',(0.,0.,-1.));
#130 = CYLINDRICAL_SURFACE('',#131,1.4);
#131 = AXIS2_PLACEMENT_3D('',#132,#133,#134);
#132 = CARTESIAN_POINT('',(-34.,11.25,28.5));
#133 = DIRECTION('',(-1.,0.,0.));
#134 = DIRECTION('',(0.,0.,-1.));
#135 = ADVANCED_FACE('',(#136),#147,.T.);
#136 = FACE_BOUND('',#137,.T.);
#137 = EDGE_LOOP('',(#138,#139,#146));
#138 = ORIENTED_EDGE('',*,*,#41,.T.);
#139 = ORIENTED_EDGE('',*,*,#140,.F.);
#140 = EDGE_CURVE('',#65,#33,#141,.T.);
#141 = CIRCLE('',#142,0.5);
#142 = AXIS2_PLACEMENT_3D('',#143,#144,#145);
#143 = CARTESIAN_POINT('',(-34.,11.25,29.807669683062));
#144 = DIRECTION('',(-0.,0.,1.));
#145 = DIRECTION('',(0.,-1.,0.));
#146 = ORIENTED_EDGE('',*,*,#64,.F.);
#147 = SPHERICAL_SURFACE('',#148,1.4);
#148 = AXIS2_PLACEMENT_3D('',#149,#150,#151);
#149 = CARTESIAN_POINT('',(-34.,11.25,28.5));
#150 = DIRECTION('',(0.,0.,1.));
#151 = DIRECTION('',(1.,0.,0.));
#152 = ADVANCED_FACE('',(#153),#250,.F.);
#153 = FACE_BOUND('',#154,.F.);
#154 = EDGE_LOOP('',(#155,#156,#164,#173,#240,#247,#248,#249));
#155 = ORIENTED_EDGE('',*,*,#32,.F.);
#156 = ORIENTED_EDGE('',*,*,#157,.F.);
#157 = EDGE_CURVE('',#158,#33,#160,.T.);
#158 = VERTEX_POINT('',#159);
#159 = CARTESIAN_POINT('',(-33.5,11.25,28.915331193146));
#160 = LINE('',#161,#162);
#161 = CARTESIAN_POINT('',(-33.5,11.25,28.5));
#162 = VECTOR('',#163,1.);
#163 = DIRECTION('',(0.,0.,1.));
#164 = ORIENTED_EDGE('',*,*,#165,.T.);
#165 = EDGE_CURVE('',#158,#166,#168,.T.);
#166 = VERTEX_POINT('',#167);
#167 = CARTESIAN_POINT('',(-34.,11.75,28.915331193146));
#168 = CIRCLE('',#169,0.5);
#169 = AXIS2_PLACEMENT_3D('',#170,#171,#172);
#170 = CARTESIAN_POINT('',(-34.,11.25,28.915331193146));
#171 = DIRECTION('',(-0.,0.,1.));
#172 = DIRECTION('',(0.,-1.,0.));
#173 = ORIENTED_EDGE('',*,*,#174,.T.);
#174 = EDGE_CURVE('',#166,#175,#177,.T.);
#175 = VERTEX_POINT('',#176);
#176 = CARTESIAN_POINT('',(-34.,10.75,28.915331193146));
#177 = B_SPLINE_CURVE_WITH_KNOTS('',7,(#178,#179,#180,#181,#182,#183,
    #184,#185,#186,#187,#188,#189,#190,#191,#192,#193,#194,#195,#196,
    #197,#198,#199,#200,#201,#202,#203,#204,#205,#206,#207,#208,#209,
    #210,#211,#212,#213,#214,#215,#216,#217,#218,#219,#220,#221,#222,
    #223,#224,#225,#226,#227,#228,#229,#230,#231,#232,#233,#234,#235,
    #236,#237,#238,#239),.UNSPECIFIED.,.F.,.F.,(8,6,6,6,6,6,6,6,6,6,8),(
    0.,9.33339319486E-02,0.13350755617,0.251809638244,0.365486895121,
    0.49984828587,0.63495558704,0.748407649945,0.905690098404,
    0.964217231524,1.),.UNSPECIFIED.);
#178 = CARTESIAN_POINT('',(-33.9999994,11.75,28.915331193146));
#179 = CARTESIAN_POINT('',(-34.02298556464,11.750000027583,
    28.91533115994));
#180 = CARTESIAN_POINT('',(-34.04584996514,11.748767174655,
    28.916815267167));
#181 = CARTESIAN_POINT('',(-34.06851175746,11.746325125805,
    28.919755389937));
#182 = CARTESIAN_POINT('',(-34.09088149618,11.742703652929,
    28.924058396683));
#183 = CARTESIAN_POINT('',(-34.11284562719,11.737946181554,
    28.929565761411));
#184 = CARTESIAN_POINT('',(-34.13425787017,11.732128506319,
    28.93606166008));
#185 = CARTESIAN_POINT('',(-34.16383859811,11.722487628865,
    28.94640064452));
#186 = CARTESIAN_POINT('',(-34.17263075106,11.719406966829,
    28.949656803883));
#187 = CARTESIAN_POINT('',(-34.18131099864,11.716151718721,
    28.953043282333));
#188 = CARTESIAN_POINT('',(-34.18987694283,11.712726617465,
    28.956546040202));
#189 = CARTESIAN_POINT('',(-34.19832673885,11.709136079666,
    28.960151745036));
#190 = CARTESIAN_POINT('',(-34.20665909518,11.705384205611,28.9638477716
    ));
#191 = CARTESIAN_POINT('',(-34.23906213929,11.689962417991,
    28.978737030779));
#192 = CARTESIAN_POINT('',(-34.26224528467,11.677074234679,
    28.990541430317));
#193 = CARTESIAN_POINT('',(-34.28438475892,11.662907372638,
    29.002729745684));
#194 = CARTESIAN_POINT('',(-34.30545169962,11.64754533447,
    29.015047897493));
#195 = CARTESIAN_POINT('',(-34.32542596434,11.631056586928,
    29.027294647903));
#196 = CARTESIAN_POINT('',(-34.3442930163,11.61348898705,29.03931322198)
  );
#197 = CARTESIAN_POINT('',(-34.37908939883,11.576959340541,
    29.062177515649));
#198 = CARTESIAN_POINT('',(-34.39509067593,11.558093531388,
    29.073041487603));
#199 = CARTESIAN_POINT('',(-34.40999232846,11.538321694899,
    29.083425616215));
#200 = CARTESIAN_POINT('',(-34.42374504405,11.517705439797,
    29.093210058918));
#201 = CARTESIAN_POINT('',(-34.43630025336,11.496308255494,
    29.102291781363));
#202 = CARTESIAN_POINT('',(-34.44761061841,11.474194876846,
    29.110581624274));
#203 = CARTESIAN_POINT('',(-34.46947359379,11.424524358139,
    29.126771175455));
#204 = CARTESIAN_POINT('',(-34.47951348611,11.396709631502,
    29.134325279495));
#205 = CARTESIAN_POINT('',(-34.48765066437,11.368146960486,
    29.140517426622));
#206 = CARTESIAN_POINT('',(-34.49380871151,11.339010623091,
    29.145237523332));
#207 = CARTESIAN_POINT('',(-34.49793477249,11.309483484289,
    29.148411304588));
#208 = CARTESIAN_POINT('',(-34.5,11.279751796487,29.15));
#209 = CARTESIAN_POINT('',(-34.5,11.220083035714,29.15));
#210 = CARTESIAN_POINT('',(-34.49791178235,11.190186843843,
    29.148393617027));
#211 = CARTESIAN_POINT('',(-34.49373991791,11.160498769627,
    29.145184606527));
#212 = CARTESIAN_POINT('',(-34.48751390794,11.131207994742,
    29.140412607512));
#213 = CARTESIAN_POINT('',(-34.47928772504,11.10250021552,
    29.134153492812));
#214 = CARTESIAN_POINT('',(-34.46913935408,11.074552321176,
    29.126519719319));
#215 = CARTESIAN_POINT('',(-34.447119728,11.02483347783,29.110221579997)
  );
#216 = CARTESIAN_POINT('',(-34.43578558315,11.00279099172,
    29.101918609187));
#217 = CARTESIAN_POINT('',(-34.42321326193,10.981464163474,
    29.092829805098));
#218 = CARTESIAN_POINT('',(-34.40944975507,10.9609169941,29.083044023712
    ));
#219 = CARTESIAN_POINT('',(-34.39454320132,10.941212315416,
    29.072663883915));
#220 = CARTESIAN_POINT('',(-34.37854240817,10.922411169643,
    29.06180871371));
#221 = CARTESIAN_POINT('',(-34.33786487439,10.879841404163,
    29.035102731789));
#222 = CARTESIAN_POINT('',(-34.31227486856,10.857012875523,
    29.018975428944));
#223 = CARTESIAN_POINT('',(-34.28475168445,10.83610348088,
    29.002532438319));
#224 = CARTESIAN_POINT('',(-34.25530155362,10.817227340943,
    28.986150226042));
#225 = CARTESIAN_POINT('',(-34.2239831287,10.800594774681,
    28.970369140988));
#226 = CARTESIAN_POINT('',(-34.19089510377,10.786426078038,
    28.955938447748));
#227 = CARTESIAN_POINT('',(-34.1431472465,10.770735299341,
    28.939140305656));
#228 = CARTESIAN_POINT('',(-34.12994681388,10.766853718055,
    28.93488257228));
#229 = CARTESIAN_POINT('',(-34.11652331245,10.763369853699,
    28.930976420561));
#230 = CARTESIAN_POINT('',(-34.10290170643,10.760302428722,
    28.927471904389));
#231 = CARTESIAN_POINT('',(-34.08910332847,10.757666470674,
    28.924414426017));
#232 = CARTESIAN_POINT('',(-34.07514552284,10.755474884814,
    28.921843722545));
#233 = CARTESIAN_POINT('',(-34.05241813363,10.752679355856,
    28.918538975649));
#234 = CARTESIAN_POINT('',(-34.04374632632,10.751790200476,
    28.917480278626));
#235 = CARTESIAN_POINT('',(-34.03503598505,10.751075710791,
    28.916624965259));
#236 = CARTESIAN_POINT('',(-34.02629687823,10.750538253771,
    28.915979227083));
#237 = CARTESIAN_POINT('',(-34.01753842436,10.750179413161,
    28.91554724324));
#238 = CARTESIAN_POINT('',(-34.00876969205,10.749999989476,
    28.915331180476));
#239 = CARTESIAN_POINT('',(-33.9999994,10.75,28.915331193146));
#240 = ORIENTED_EDGE('',*,*,#241,.T.);
#241 = EDGE_CURVE('',#175,#158,#242,.T.);
#242 = CIRCLE('',#243,0.5);
#243 = AXIS2_PLACEMENT_3D('',#244,#245,#246);
#244 = CARTESIAN_POINT('',(-34.,11.25,28.915331193146));
#245 = DIRECTION('',(-0.,0.,1.));
#246 = DIRECTION('',(0.,-1.,0.));
#247 = ORIENTED_EDGE('',*,*,#157,.T.);
#248 = ORIENTED_EDGE('',*,*,#140,.F.);
#249 = ORIENTED_EDGE('',*,*,#73,.F.);
#250 = CYLINDRICAL_SURFACE('',#251,0.5);
#251 = AXIS2_PLACEMENT_3D('',#252,#253,#254);
#252 = CARTESIAN_POINT('',(-34.,11.25,28.5));
#253 = DIRECTION('',(0.,0.,1.));
#254 = DIRECTION('',(1.,0.,0.));
#255 = ADVANCED_FACE('',(#256),#266,.T.);
#256 = FACE_BOUND('',#257,.T.);
#257 = EDGE_LOOP('',(#258,#259));
#258 = ORIENTED_EDGE('',*,*,#124,.T.);
#259 = ORIENTED_EDGE('',*,*,#260,.F.);
#260 = EDGE_CURVE('',#57,#116,#261,.T.);
#261 = CIRCLE('',#262,1.4);
#262 = AXIS2_PLACEMENT_3D('',#263,#264,#265);
#263 = CARTESIAN_POINT('',(-39.,11.25,28.5));
#264 = DIRECTION('',(0.,1.,0.));
#265 = DIRECTION('',(0.,0.,1.));
#266 = SPHERICAL_SURFACE('',#267,1.4);
#267 = AXIS2_PLACEMENT_3D('',#268,#269,#270);
#268 = CARTESIAN_POINT('',(-39.,11.25,28.5));
#269 = DIRECTION('',(0.,0.,1.));
#270 = DIRECTION('',(1.,0.,0.));
#271 = ADVANCED_FACE('',(#272),#319,.T.);
#272 = FACE_BOUND('',#273,.T.);
#273 = EDGE_LOOP('',(#274,#275,#276,#284,#293,#302,#311,#318));
#274 = ORIENTED_EDGE('',*,*,#115,.T.);
#275 = ORIENTED_EDGE('',*,*,#260,.T.);
#276 = ORIENTED_EDGE('',*,*,#277,.T.);
#277 = EDGE_CURVE('',#116,#278,#280,.T.);
#278 = VERTEX_POINT('',#279);
#279 = CARTESIAN_POINT('',(-39.,15.6,29.9));
#280 = LINE('',#281,#282);
#281 = CARTESIAN_POINT('',(-39.,11.25,29.9));
#282 = VECTOR('',#283,1.);
#283 = DIRECTION('',(0.,1.,0.));
#284 = ORIENTED_EDGE('',*,*,#285,.F.);
#285 = EDGE_CURVE('',#286,#278,#288,.T.);
#286 = VERTEX_POINT('',#287);
#287 = CARTESIAN_POINT('',(-40.4,17.,28.5));
#288 = ELLIPSE('',#289,1.979898987322,1.4);
#289 = AXIS2_PLACEMENT_3D('',#290,#291,#292);
#290 = CARTESIAN_POINT('',(-39.,17.,28.5));
#291 = DIRECTION('',(0.,0.707106781187,0.707106781187));
#292 = DIRECTION('',(0.,0.707106781187,-0.707106781187));
#293 = ORIENTED_EDGE('',*,*,#294,.F.);
#294 = EDGE_CURVE('',#295,#286,#297,.T.);
#295 = VERTEX_POINT('',#296);
#296 = CARTESIAN_POINT('',(-39.,17.,27.1));
#297 = CIRCLE('',#298,1.4);
#298 = AXIS2_PLACEMENT_3D('',#299,#300,#301);
#299 = CARTESIAN_POINT('',(-39.,17.,28.5));
#300 = DIRECTION('',(0.,1.,0.));
#301 = DIRECTION('',(0.,0.,1.));
#302 = ORIENTED_EDGE('',*,*,#303,.F.);
#303 = EDGE_CURVE('',#304,#295,#306,.T.);
#304 = VERTEX_POINT('',#305);
#305 = CARTESIAN_POINT('',(-37.6,17.,28.5));
#306 = CIRCLE('',#307,1.4);
#307 = AXIS2_PLACEMENT_3D('',#308,#309,#310);
#308 = CARTESIAN_POINT('',(-39.,17.,28.5));
#309 = DIRECTION('',(0.,1.,0.));
#310 = DIRECTION('',(0.,0.,1.));
#311 = ORIENTED_EDGE('',*,*,#312,.F.);
#312 = EDGE_CURVE('',#278,#304,#313,.T.);
#313 = ELLIPSE('',#314,1.979898987322,1.4);
#314 = AXIS2_PLACEMENT_3D('',#315,#316,#317);
#315 = CARTESIAN_POINT('',(-39.,17.,28.5));
#316 = DIRECTION('',(0.,0.707106781187,0.707106781187));
#317 = DIRECTION('',(0.,0.707106781187,-0.707106781187));
#318 = ORIENTED_EDGE('',*,*,#277,.F.);
#319 = CYLINDRICAL_SURFACE('',#320,1.4);
#320 = AXIS2_PLACEMENT_3D('',#321,#322,#323);
#321 = CARTESIAN_POINT('',(-39.,11.25,28.5));
#322 = DIRECTION('',(0.,1.,0.));
#323 = DIRECTION('',(0.,0.,1.));
#324 = ADVANCED_FACE('',(#325),#344,.F.);
#325 = FACE_BOUND('',#326,.F.);
#326 = EDGE_LOOP('',(#327,#336,#337));
#327 = ORIENTED_EDGE('',*,*,#328,.T.);
#328 = EDGE_CURVE('',#329,#158,#331,.T.);
#329 = VERTEX_POINT('',#330);
#330 = CARTESIAN_POINT('',(-34.,11.25,27.85));
#331 = CIRCLE('',#332,0.65);
#332 = AXIS2_PLACEMENT_3D('',#333,#334,#335);
#333 = CARTESIAN_POINT('',(-34.,11.25,28.5));
#334 = DIRECTION('',(-2.449293598295E-16,-1.,0.));
#335 = DIRECTION('',(1.,-2.449293598295E-16,0.));
#336 = ORIENTED_EDGE('',*,*,#241,.F.);
#337 = ORIENTED_EDGE('',*,*,#338,.F.);
#338 = EDGE_CURVE('',#329,#175,#339,.T.);
#339 = CIRCLE('',#340,0.65);
#340 = AXIS2_PLACEMENT_3D('',#341,#342,#343);
#341 = CARTESIAN_POINT('',(-34.,11.25,28.5));
#342 = DIRECTION('',(-1.,0.,0.));
#343 = DIRECTION('',(0.,0.,-1.));
#344 = SPHERICAL_SURFACE('',#345,0.65);
#345 = AXIS2_PLACEMENT_3D('',#346,#347,#348);
#346 = CARTESIAN_POINT('',(-34.,11.25,28.5));
#347 = DIRECTION('',(0.,0.,1.));
#348 = DIRECTION('',(1.,0.,0.));
#349 = ADVANCED_FACE('',(#350),#386,.F.);
#350 = FACE_BOUND('',#351,.F.);
#351 = EDGE_LOOP('',(#352,#360,#361,#362,#369,#370,#379));
#352 = ORIENTED_EDGE('',*,*,#353,.F.);
#353 = EDGE_CURVE('',#329,#354,#356,.T.);
#354 = VERTEX_POINT('',#355);
#355 = CARTESIAN_POINT('',(-39.,11.25,27.85));
#356 = LINE('',#357,#358);
#357 = CARTESIAN_POINT('',(-34.,11.25,27.85));
#358 = VECTOR('',#359,1.);
#359 = DIRECTION('',(-1.,0.,0.));
#360 = ORIENTED_EDGE('',*,*,#338,.T.);
#361 = ORIENTED_EDGE('',*,*,#174,.F.);
#362 = ORIENTED_EDGE('',*,*,#363,.T.);
#363 = EDGE_CURVE('',#166,#329,#364,.T.);
#364 = CIRCLE('',#365,0.65);
#365 = AXIS2_PLACEMENT_3D('',#366,#367,#368);
#366 = CARTESIAN_POINT('',(-34.,11.25,28.5));
#367 = DIRECTION('',(-1.,0.,0.));
#368 = DIRECTION('',(0.,0.,-1.));
#369 = ORIENTED_EDGE('',*,*,#353,.T.);
#370 = ORIENTED_EDGE('',*,*,#371,.F.);
#371 = EDGE_CURVE('',#372,#354,#374,.T.);
#372 = VERTEX_POINT('',#373);
#373 = CARTESIAN_POINT('',(-39.,11.25,29.15));
#374 = ELLIPSE('',#375,0.919238815543,0.65);
#375 = AXIS2_PLACEMENT_3D('',#376,#377,#378);
#376 = CARTESIAN_POINT('',(-39.,11.25,28.5));
#377 = DIRECTION('',(-0.707106781187,0.707106781187,0.));
#378 = DIRECTION('',(-0.707106781187,-0.707106781187,0.));
#379 = ORIENTED_EDGE('',*,*,#380,.F.);
#380 = EDGE_CURVE('',#354,#372,#381,.T.);
#381 = CIRCLE('',#382,0.65);
#382 = AXIS2_PLACEMENT_3D('',#383,#384,#385);
#383 = CARTESIAN_POINT('',(-39.,11.25,28.5));
#384 = DIRECTION('',(-1.,0.,0.));
#385 = DIRECTION('',(0.,0.,-1.));
#386 = CYLINDRICAL_SURFACE('',#387,0.65);
#387 = AXIS2_PLACEMENT_3D('',#388,#389,#390);
#388 = CARTESIAN_POINT('',(-34.,11.25,28.5));
#389 = DIRECTION('',(-1.,0.,0.));
#390 = DIRECTION('',(0.,0.,-1.));
#391 = ADVANCED_FACE('',(#392),#397,.F.);
#392 = FACE_BOUND('',#393,.F.);
#393 = EDGE_LOOP('',(#394,#395,#396));
#394 = ORIENTED_EDGE('',*,*,#363,.F.);
#395 = ORIENTED_EDGE('',*,*,#165,.F.);
#396 = ORIENTED_EDGE('',*,*,#328,.F.);
#397 = SPHERICAL_SURFACE('',#398,0.65);
#398 = AXIS2_PLACEMENT_3D('',#399,#400,#401);
#399 = CARTESIAN_POINT('',(-34.,11.25,28.5));
#400 = DIRECTION('',(0.,0.,1.));
#401 = DIRECTION('',(1.,0.,0.));
#402 = ADVANCED_FACE('',(#403),#448,.T.);
#403 = FACE_BOUND('',#404,.T.);
#404 = EDGE_LOOP('',(#405,#406,#407,#415,#424,#433,#440,#441));
#405 = ORIENTED_EDGE('',*,*,#285,.T.);
#406 = ORIENTED_EDGE('',*,*,#312,.T.);
#407 = ORIENTED_EDGE('',*,*,#408,.T.);
#408 = EDGE_CURVE('',#304,#409,#411,.T.);
#409 = VERTEX_POINT('',#410);
#410 = CARTESIAN_POINT('',(-37.6,17.,48.5));
#411 = LINE('',#412,#413);
#412 = CARTESIAN_POINT('',(-37.6,17.,28.5));
#413 = VECTOR('',#414,1.);
#414 = DIRECTION('',(0.,0.,1.));
#415 = ORIENTED_EDGE('',*,*,#416,.F.);
#416 = EDGE_CURVE('',#417,#409,#419,.T.);
#417 = VERTEX_POINT('',#418);
#418 = CARTESIAN_POINT('',(-39.,15.6,47.1));
#419 = ELLIPSE('',#420,1.979898987322,1.4);
#420 = AXIS2_PLACEMENT_3D('',#421,#422,#423);
#421 = CARTESIAN_POINT('',(-39.,17.,48.5));
#422 = DIRECTION('',(0.,-0.707106781187,0.707106781187));
#423 = DIRECTION('',(0.,0.707106781187,0.707106781187));
#424 = ORIENTED_EDGE('',*,*,#425,.F.);
#425 = EDGE_CURVE('',#426,#417,#428,.T.);
#426 = VERTEX_POINT('',#427);
#427 = CARTESIAN_POINT('',(-40.4,17.,48.5));
#428 = ELLIPSE('',#429,1.979898987322,1.4);
#429 = AXIS2_PLACEMENT_3D('',#430,#431,#432);
#430 = CARTESIAN_POINT('',(-39.,17.,48.5));
#431 = DIRECTION('',(0.,-0.707106781187,0.707106781187));
#432 = DIRECTION('',(0.,0.707106781187,0.707106781187));
#433 = ORIENTED_EDGE('',*,*,#434,.F.);
#434 = EDGE_CURVE('',#409,#426,#435,.T.);
#435 = CIRCLE('',#436,1.4);
#436 = AXIS2_PLACEMENT_3D('',#437,#438,#439);
#437 = CARTESIAN_POINT('',(-39.,17.,48.5));
#438 = DIRECTION('',(0.,0.,1.));
#439 = DIRECTION('',(1.,0.,0.));
#440 = ORIENTED_EDGE('',*,*,#408,.F.);
#441 = ORIENTED_EDGE('',*,*,#442,.T.);
#442 = EDGE_CURVE('',#304,#286,#443,.T.);
#443 = CIRCLE('',#444,1.4);
#444 = AXIS2_PLACEMENT_3D('',#445,#446,#447);
#445 = CARTESIAN_POINT('',(-39.,17.,28.5));
#446 = DIRECTION('',(0.,0.,1.));
#447 = DIRECTION('',(1.,0.,0.));
#448 = CYLINDRICAL_SURFACE('',#449,1.4);
#449 = AXIS2_PLACEMENT_3D('',#450,#451,#452);
#450 = CARTESIAN_POINT('',(-39.,17.,28.5));
#451 = DIRECTION('',(0.,0.,1.));
#452 = DIRECTION('',(1.,0.,0.));
#453 = ADVANCED_FACE('',(#454),#459,.T.);
#454 = FACE_BOUND('',#455,.T.);
#455 = EDGE_LOOP('',(#456,#457,#458));
#456 = ORIENTED_EDGE('',*,*,#294,.T.);
#457 = ORIENTED_EDGE('',*,*,#442,.F.);
#458 = ORIENTED_EDGE('',*,*,#303,.T.);
#459 = SPHERICAL_SURFACE('',#460,1.4);
#460 = AXIS2_PLACEMENT_3D('',#461,#462,#463);
#461 = CARTESIAN_POINT('',(-39.,17.,28.5));
#462 = DIRECTION('',(0.,0.,1.));
#463 = DIRECTION('',(1.,0.,0.));
#464 = ADVANCED_FACE('',(#465),#475,.F.);
#465 = FACE_BOUND('',#466,.F.);
#466 = EDGE_LOOP('',(#467,#468));
#467 = ORIENTED_EDGE('',*,*,#380,.T.);
#468 = ORIENTED_EDGE('',*,*,#469,.F.);
#469 = EDGE_CURVE('',#354,#372,#470,.T.);
#470 = CIRCLE('',#471,0.65);
#471 = AXIS2_PLACEMENT_3D('',#472,#473,#474);
#472 = CARTESIAN_POINT('',(-39.,11.25,28.5));
#473 = DIRECTION('',(0.,1.,0.));
#474 = DIRECTION('',(0.,0.,1.));
#475 = SPHERICAL_SURFACE('',#476,0.65);
#476 = AXIS2_PLACEMENT_3D('',#477,#478,#479);
#477 = CARTESIAN_POINT('',(-39.,11.25,28.5));
#478 = DIRECTION('',(0.,0.,1.));
#479 = DIRECTION('',(1.,0.,0.));
#480 = ADVANCED_FACE('',(#481),#528,.F.);
#481 = FACE_BOUND('',#482,.F.);
#482 = EDGE_LOOP('',(#483,#484,#485,#493,#502,#511,#520,#527));
#483 = ORIENTED_EDGE('',*,*,#371,.T.);
#484 = ORIENTED_EDGE('',*,*,#469,.T.);
#485 = ORIENTED_EDGE('',*,*,#486,.T.);
#486 = EDGE_CURVE('',#372,#487,#489,.T.);
#487 = VERTEX_POINT('',#488);
#488 = CARTESIAN_POINT('',(-39.,16.35,29.15));
#489 = LINE('',#490,#491);
#490 = CARTESIAN_POINT('',(-39.,11.25,29.15));
#491 = VECTOR('',#492,1.);
#492 = DIRECTION('',(0.,1.,0.));
#493 = ORIENTED_EDGE('',*,*,#494,.F.);
#494 = EDGE_CURVE('',#495,#487,#497,.T.);
#495 = VERTEX_POINT('',#496);
#496 = CARTESIAN_POINT('',(-39.65,17.,28.5));
#497 = ELLIPSE('',#498,0.919238815543,0.65);
#498 = AXIS2_PLACEMENT_3D('',#499,#500,#501);
#499 = CARTESIAN_POINT('',(-39.,17.,28.5));
#500 = DIRECTION('',(0.,0.707106781187,0.707106781187));
#501 = DIRECTION('',(0.,0.707106781187,-0.707106781187));
#502 = ORIENTED_EDGE('',*,*,#503,.F.);
#503 = EDGE_CURVE('',#504,#495,#506,.T.);
#504 = VERTEX_POINT('',#505);
#505 = CARTESIAN_POINT('',(-39.,17.,27.85));
#506 = CIRCLE('',#507,0.65);
#507 = AXIS2_PLACEMENT_3D('',#508,#509,#510);
#508 = CARTESIAN_POINT('',(-39.,17.,28.5));
#509 = DIRECTION('',(0.,1.,0.));
#510 = DIRECTION('',(0.,0.,1.));
#511 = ORIENTED_EDGE('',*,*,#512,.F.);
#512 = EDGE_CURVE('',#513,#504,#515,.T.);
#513 = VERTEX_POINT('',#514);
#514 = CARTESIAN_POINT('',(-38.35,17.,28.5));
#515 = CIRCLE('',#516,0.65);
#516 = AXIS2_PLACEMENT_3D('',#517,#518,#519);
#517 = CARTESIAN_POINT('',(-39.,17.,28.5));
#518 = DIRECTION('',(0.,1.,0.));
#519 = DIRECTION('',(0.,0.,1.));
#520 = ORIENTED_EDGE('',*,*,#521,.F.);
#521 = EDGE_CURVE('',#487,#513,#522,.T.);
#522 = ELLIPSE('',#523,0.919238815543,0.65);
#523 = AXIS2_PLACEMENT_3D('',#524,#525,#526);
#524 = CARTESIAN_POINT('',(-39.,17.,28.5));
#525 = DIRECTION('',(0.,0.707106781187,0.707106781187));
#526 = DIRECTION('',(0.,0.707106781187,-0.707106781187));
#527 = ORIENTED_EDGE('',*,*,#486,.F.);
#528 = CYLINDRICAL_SURFACE('',#529,0.65);
#529 = AXIS2_PLACEMENT_3D('',#530,#531,#532);
#530 = CARTESIAN_POINT('',(-39.,11.25,28.5));
#531 = DIRECTION('',(0.,1.,0.));
#532 = DIRECTION('',(0.,0.,1.));
#533 = ADVANCED_FACE('',(#534),#553,.T.);
#534 = FACE_BOUND('',#535,.T.);
#535 = EDGE_LOOP('',(#536,#545,#546));
#536 = ORIENTED_EDGE('',*,*,#537,.F.);
#537 = EDGE_CURVE('',#409,#538,#540,.T.);
#538 = VERTEX_POINT('',#539);
#539 = CARTESIAN_POINT('',(-39.,17.,49.9));
#540 = CIRCLE('',#541,1.4);
#541 = AXIS2_PLACEMENT_3D('',#542,#543,#544);
#542 = CARTESIAN_POINT('',(-39.,17.,48.5));
#543 = DIRECTION('',(-2.449293598295E-16,-1.,0.));
#544 = DIRECTION('',(1.,-2.449293598295E-16,0.));
#545 = ORIENTED_EDGE('',*,*,#434,.T.);
#546 = ORIENTED_EDGE('',*,*,#547,.F.);
#547 = EDGE_CURVE('',#538,#426,#548,.T.);
#548 = CIRCLE('',#549,1.4);
#549 = AXIS2_PLACEMENT_3D('',#550,#551,#552);
#550 = CARTESIAN_POINT('',(-39.,17.,48.5));
#551 = DIRECTION('',(0.,-1.,0.));
#552 = DIRECTION('',(0.,0.,-1.));
#553 = SPHERICAL_SURFACE('',#554,1.4);
#554 = AXIS2_PLACEMENT_3D('',#555,#556,#557);
#555 = CARTESIAN_POINT('',(-39.,17.,48.5));
#556 = DIRECTION('',(0.,0.,1.));
#557 = DIRECTION('',(1.,0.,0.));
#558 = ADVANCED_FACE('',(#559),#590,.T.);
#559 = FACE_BOUND('',#560,.T.);
#560 = EDGE_LOOP('',(#561,#562,#563,#571,#580,#587,#588,#589));
#561 = ORIENTED_EDGE('',*,*,#547,.T.);
#562 = ORIENTED_EDGE('',*,*,#425,.T.);
#563 = ORIENTED_EDGE('',*,*,#564,.T.);
#564 = EDGE_CURVE('',#417,#565,#567,.T.);
#565 = VERTEX_POINT('',#566);
#566 = CARTESIAN_POINT('',(-39.,10.,47.1));
#567 = LINE('',#568,#569);
#568 = CARTESIAN_POINT('',(-39.,17.,47.1));
#569 = VECTOR('',#570,1.);
#570 = DIRECTION('',(0.,-1.,0.));
#571 = ORIENTED_EDGE('',*,*,#572,.F.);
#572 = EDGE_CURVE('',#573,#565,#575,.T.);
#573 = VERTEX_POINT('',#574);
#574 = CARTESIAN_POINT('',(-39.,10.,49.9));
#575 = CIRCLE('',#576,1.4);
#576 = AXIS2_PLACEMENT_3D('',#577,#578,#579);
#577 = CARTESIAN_POINT('',(-39.,10.,48.5));
#578 = DIRECTION('',(0.,-1.,0.));
#579 = DIRECTION('',(0.,0.,-1.));
#580 = ORIENTED_EDGE('',*,*,#581,.F.);
#581 = EDGE_CURVE('',#565,#573,#582,.T.);
#582 = ELLIPSE('',#583,1.979898987322,1.4);
#583 = AXIS2_PLACEMENT_3D('',#584,#585,#586);
#584 = CARTESIAN_POINT('',(-39.,10.,48.5));
#585 = DIRECTION('',(0.707106781187,-0.707106781187,0.));
#586 = DIRECTION('',(-0.707106781187,-0.707106781187,0.));
#587 = ORIENTED_EDGE('',*,*,#564,.F.);
#588 = ORIENTED_EDGE('',*,*,#416,.T.);
#589 = ORIENTED_EDGE('',*,*,#537,.T.);
#590 = CYLINDRICAL_SURFACE('',#591,1.4);
#591 = AXIS2_PLACEMENT_3D('',#592,#593,#594);
#592 = CARTESIAN_POINT('',(-39.,17.,48.5));
#593 = DIRECTION('',(0.,-1.,0.));
#594 = DIRECTION('',(0.,0.,-1.));
#595 = ADVANCED_FACE('',(#596),#641,.F.);
#596 = FACE_BOUND('',#597,.F.);
#597 = EDGE_LOOP('',(#598,#599,#600,#608,#617,#626,#633,#634));
#598 = ORIENTED_EDGE('',*,*,#494,.T.);
#599 = ORIENTED_EDGE('',*,*,#521,.T.);
#600 = ORIENTED_EDGE('',*,*,#601,.T.);
#601 = EDGE_CURVE('',#513,#602,#604,.T.);
#602 = VERTEX_POINT('',#603);
#603 = CARTESIAN_POINT('',(-38.35,17.,48.5));
#604 = LINE('',#605,#606);
#605 = CARTESIAN_POINT('',(-38.35,17.,28.5));
#606 = VECTOR('',#607,1.);
#607 = DIRECTION('',(0.,0.,1.));
#608 = ORIENTED_EDGE('',*,*,#609,.F.);
#609 = EDGE_CURVE('',#610,#602,#612,.T.);
#610 = VERTEX_POINT('',#611);
#611 = CARTESIAN_POINT('',(-39.,16.35,47.85));
#612 = ELLIPSE('',#613,0.919238815543,0.65);
#613 = AXIS2_PLACEMENT_3D('',#614,#615,#616);
#614 = CARTESIAN_POINT('',(-39.,17.,48.5));
#615 = DIRECTION('',(0.,-0.707106781187,0.707106781187));
#616 = DIRECTION('',(0.,0.707106781187,0.707106781187));
#617 = ORIENTED_EDGE('',*,*,#618,.F.);
#618 = EDGE_CURVE('',#619,#610,#621,.T.);
#619 = VERTEX_POINT('',#620);
#620 = CARTESIAN_POINT('',(-39.65,17.,48.5));
#621 = ELLIPSE('',#622,0.919238815543,0.65);
#622 = AXIS2_PLACEMENT_3D('',#623,#624,#625);
#623 = CARTESIAN_POINT('',(-39.,17.,48.5));
#624 = DIRECTION('',(0.,-0.707106781187,0.707106781187));
#625 = DIRECTION('',(0.,0.707106781187,0.707106781187));
#626 = ORIENTED_EDGE('',*,*,#627,.F.);
#627 = EDGE_CURVE('',#602,#619,#628,.T.);
#628 = CIRCLE('',#629,0.65);
#629 = AXIS2_PLACEMENT_3D('',#630,#631,#632);
#630 = CARTESIAN_POINT('',(-39.,17.,48.5));
#631 = DIRECTION('',(0.,0.,1.));
#632 = DIRECTION('',(1.,0.,0.));
#633 = ORIENTED_EDGE('',*,*,#601,.F.);
#634 = ORIENTED_EDGE('',*,*,#635,.T.);
#635 = EDGE_CURVE('',#513,#495,#636,.T.);
#636 = CIRCLE('',#637,0.65);
#637 = AXIS2_PLACEMENT_3D('',#638,#639,#640);
#638 = CARTESIAN_POINT('',(-39.,17.,28.5));
#639 = DIRECTION('',(0.,0.,1.));
#640 = DIRECTION('',(1.,0.,0.));
#641 = CYLINDRICAL_SURFACE('',#642,0.65);
#642 = AXIS2_PLACEMENT_3D('',#643,#644,#645);
#643 = CARTESIAN_POINT('',(-39.,17.,28.5));
#644 = DIRECTION('',(0.,0.,1.));
#645 = DIRECTION('',(1.,0.,0.));
#646 = ADVANCED_FACE('',(#647),#652,.F.);
#647 = FACE_BOUND('',#648,.F.);
#648 = EDGE_LOOP('',(#649,#650,#651));
#649 = ORIENTED_EDGE('',*,*,#503,.T.);
#650 = ORIENTED_EDGE('',*,*,#635,.F.);
#651 = ORIENTED_EDGE('',*,*,#512,.T.);
#652 = SPHERICAL_SURFACE('',#653,0.65);
#653 = AXIS2_PLACEMENT_3D('',#654,#655,#656);
#654 = CARTESIAN_POINT('',(-39.,17.,28.5));
#655 = DIRECTION('',(0.,0.,1.));
#656 = DIRECTION('',(1.,0.,0.));
#657 = ADVANCED_FACE('',(#658),#711,.T.);
#658 = FACE_BOUND('',#659,.T.);
#659 = EDGE_LOOP('',(#660,#667,#668,#676,#685,#694,#703,#710));
#660 = ORIENTED_EDGE('',*,*,#661,.T.);
#661 = EDGE_CURVE('',#573,#565,#662,.T.);
#662 = CIRCLE('',#663,1.4);
#663 = AXIS2_PLACEMENT_3D('',#664,#665,#666);
#664 = CARTESIAN_POINT('',(-39.,10.,48.5));
#665 = DIRECTION('',(1.,0.,-0.));
#666 = DIRECTION('',(0.,0.,1.));
#667 = ORIENTED_EDGE('',*,*,#581,.T.);
#668 = ORIENTED_EDGE('',*,*,#669,.T.);
#669 = EDGE_CURVE('',#573,#670,#672,.T.);
#670 = VERTEX_POINT('',#671);
#671 = CARTESIAN_POINT('',(33.,10.,49.9));
#672 = LINE('',#673,#674);
#673 = CARTESIAN_POINT('',(-39.,10.,49.9));
#674 = VECTOR('',#675,1.);
#675 = DIRECTION('',(1.,0.,0.));
#676 = ORIENTED_EDGE('',*,*,#677,.F.);
#677 = EDGE_CURVE('',#678,#670,#680,.T.);
#678 = VERTEX_POINT('',#679);
#679 = CARTESIAN_POINT('',(33.,11.4,48.5));
#680 = CIRCLE('',#681,1.4);
#681 = AXIS2_PLACEMENT_3D('',#682,#683,#684);
#682 = CARTESIAN_POINT('',(33.,10.,48.5));
#683 = DIRECTION('',(1.,0.,-0.));
#684 = DIRECTION('',(0.,0.,1.));
#685 = ORIENTED_EDGE('',*,*,#686,.F.);
#686 = EDGE_CURVE('',#687,#678,#689,.T.);
#687 = VERTEX_POINT('',#688);
#688 = CARTESIAN_POINT('',(31.6,10.,47.1));
#689 = ELLIPSE('',#690,1.979898987322,1.4);
#690 = AXIS2_PLACEMENT_3D('',#691,#692,#693);
#691 = CARTESIAN_POINT('',(33.,10.,48.5));
#692 = DIRECTION('',(0.707106781187,0.,-0.707106781187));
#693 = DIRECTION('',(0.707106781187,0.,0.707106781187));
#694 = ORIENTED_EDGE('',*,*,#695,.F.);
#695 = EDGE_CURVE('',#696,#687,#698,.T.);
#696 = VERTEX_POINT('',#697);
#697 = CARTESIAN_POINT('',(33.,8.6,48.5));
#698 = ELLIPSE('',#699,1.979898987322,1.4);
#699 = AXIS2_PLACEMENT_3D('',#700,#701,#702);
#700 = CARTESIAN_POINT('',(33.,10.,48.5));
#701 = DIRECTION('',(0.707106781187,0.,-0.707106781187));
#702 = DIRECTION('',(0.707106781187,0.,0.707106781187));
#703 = ORIENTED_EDGE('',*,*,#704,.F.);
#704 = EDGE_CURVE('',#670,#696,#705,.T.);
#705 = CIRCLE('',#706,1.4);
#706 = AXIS2_PLACEMENT_3D('',#707,#708,#709);
#707 = CARTESIAN_POINT('',(33.,10.,48.5));
#708 = DIRECTION('',(1.,0.,-0.));
#709 = DIRECTION('',(0.,0.,1.));
#710 = ORIENTED_EDGE('',*,*,#669,.F.);
#711 = CYLINDRICAL_SURFACE('',#712,1.4);
#712 = AXIS2_PLACEMENT_3D('',#713,#714,#715);
#713 = CARTESIAN_POINT('',(-39.,10.,48.5));
#714 = DIRECTION('',(1.,0.,0.));
#715 = DIRECTION('',(0.,0.,1.));
#716 = ADVANCED_FACE('',(#717),#721,.T.);
#717 = FACE_BOUND('',#718,.T.);
#718 = EDGE_LOOP('',(#719,#720));
#719 = ORIENTED_EDGE('',*,*,#572,.T.);
#720 = ORIENTED_EDGE('',*,*,#661,.F.);
#721 = SPHERICAL_SURFACE('',#722,1.4);
#722 = AXIS2_PLACEMENT_3D('',#723,#724,#725);
#723 = CARTESIAN_POINT('',(-39.,10.,48.5));
#724 = DIRECTION('',(0.,0.,1.));
#725 = DIRECTION('',(1.,0.,0.));
#726 = ADVANCED_FACE('',(#727),#746,.F.);
#727 = FACE_BOUND('',#728,.F.);
#728 = EDGE_LOOP('',(#729,#738,#739));
#729 = ORIENTED_EDGE('',*,*,#730,.F.);
#730 = EDGE_CURVE('',#602,#731,#733,.T.);
#731 = VERTEX_POINT('',#732);
#732 = CARTESIAN_POINT('',(-39.,17.,49.15));
#733 = CIRCLE('',#734,0.65);
#734 = AXIS2_PLACEMENT_3D('',#735,#736,#737);
#735 = CARTESIAN_POINT('',(-39.,17.,48.5));
#736 = DIRECTION('',(-2.449293598295E-16,-1.,0.));
#737 = DIRECTION('',(1.,-2.449293598295E-16,0.));
#738 = ORIENTED_EDGE('',*,*,#627,.T.);
#739 = ORIENTED_EDGE('',*,*,#740,.F.);
#740 = EDGE_CURVE('',#731,#619,#741,.T.);
#741 = CIRCLE('',#742,0.65);
#742 = AXIS2_PLACEMENT_3D('',#743,#744,#745);
#743 = CARTESIAN_POINT('',(-39.,17.,48.5));
#744 = DIRECTION('',(0.,-1.,0.));
#745 = DIRECTION('',(0.,0.,-1.));
#746 = SPHERICAL_SURFACE('',#747,0.65);
#747 = AXIS2_PLACEMENT_3D('',#748,#749,#750);
#748 = CARTESIAN_POINT('',(-39.,17.,48.5));
#749 = DIRECTION('',(0.,0.,1.));
#750 = DIRECTION('',(1.,0.,0.));
#751 = ADVANCED_FACE('',(#752),#783,.F.);
#752 = FACE_BOUND('',#753,.F.);
#753 = EDGE_LOOP('',(#754,#755,#756,#764,#773,#780,#781,#782));
#754 = ORIENTED_EDGE('',*,*,#740,.T.);
#755 = ORIENTED_EDGE('',*,*,#618,.T.);
#756 = ORIENTED_EDGE('',*,*,#757,.T.);
#757 = EDGE_CURVE('',#610,#758,#760,.T.);
#758 = VERTEX_POINT('',#759);
#759 = CARTESIAN_POINT('',(-39.,10.,47.85));
#760 = LINE('',#761,#762);
#761 = CARTESIAN_POINT('',(-39.,17.,47.85));
#762 = VECTOR('',#763,1.);
#763 = DIRECTION('',(0.,-1.,0.));
#764 = ORIENTED_EDGE('',*,*,#765,.F.);
#765 = EDGE_CURVE('',#766,#758,#768,.T.);
#766 = VERTEX_POINT('',#767);
#767 = CARTESIAN_POINT('',(-39.,10.,49.15));
#768 = CIRCLE('',#769,0.65);
#769 = AXIS2_PLACEMENT_3D('',#770,#771,#772);
#770 = CARTESIAN_POINT('',(-39.,10.,48.5));
#771 = DIRECTION('',(0.,-1.,0.));
#772 = DIRECTION('',(0.,0.,-1.));
#773 = ORIENTED_EDGE('',*,*,#774,.F.);
#774 = EDGE_CURVE('',#758,#766,#775,.T.);
#775 = ELLIPSE('',#776,0.919238815543,0.65);
#776 = AXIS2_PLACEMENT_3D('',#777,#778,#779);
#777 = CARTESIAN_POINT('',(-39.,10.,48.5));
#778 = DIRECTION('',(0.707106781187,-0.707106781187,0.));
#779 = DIRECTION('',(-0.707106781187,-0.707106781187,0.));
#780 = ORIENTED_EDGE('',*,*,#757,.F.);
#781 = ORIENTED_EDGE('',*,*,#609,.T.);
#782 = ORIENTED_EDGE('',*,*,#730,.T.);
#783 = CYLINDRICAL_SURFACE('',#784,0.65);
#784 = AXIS2_PLACEMENT_3D('',#785,#786,#787);
#785 = CARTESIAN_POINT('',(-39.,17.,48.5));
#786 = DIRECTION('',(0.,-1.,0.));
#787 = DIRECTION('',(0.,0.,-1.));
#788 = ADVANCED_FACE('',(#789),#808,.T.);
#789 = FACE_BOUND('',#790,.T.);
#790 = EDGE_LOOP('',(#791,#800,#807));
#791 = ORIENTED_EDGE('',*,*,#792,.F.);
#792 = EDGE_CURVE('',#793,#696,#795,.T.);
#793 = VERTEX_POINT('',#794);
#794 = CARTESIAN_POINT('',(34.4,10.,48.5));
#795 = CIRCLE('',#796,1.4);
#796 = AXIS2_PLACEMENT_3D('',#797,#798,#799);
#797 = CARTESIAN_POINT('',(33.,10.,48.5));
#798 = DIRECTION('',(0.,0.,-1.));
#799 = DIRECTION('',(-1.,0.,0.));
#800 = ORIENTED_EDGE('',*,*,#801,.T.);
#801 = EDGE_CURVE('',#793,#670,#802,.T.);
#802 = CIRCLE('',#803,1.4);
#803 = AXIS2_PLACEMENT_3D('',#804,#805,#806);
#804 = CARTESIAN_POINT('',(33.,10.,48.5));
#805 = DIRECTION('',(-2.449293598295E-16,-1.,0.));
#806 = DIRECTION('',(1.,-2.449293598295E-16,0.));
#807 = ORIENTED_EDGE('',*,*,#704,.T.);
#808 = SPHERICAL_SURFACE('',#809,1.4);
#809 = AXIS2_PLACEMENT_3D('',#810,#811,#812);
#810 = CARTESIAN_POINT('',(33.,10.,48.5));
#811 = DIRECTION('',(0.,0.,1.));
#812 = DIRECTION('',(1.,0.,0.));
#813 = ADVANCED_FACE('',(#814),#918,.T.);
#814 = FACE_BOUND('',#815,.T.);
#815 = EDGE_LOOP('',(#816,#823,#824,#825,#833,#842,#864,#891,#900,#909,
    #916,#917));
#816 = ORIENTED_EDGE('',*,*,#817,.T.);
#817 = EDGE_CURVE('',#678,#793,#818,.T.);
#818 = CIRCLE('',#819,1.4);
#819 = AXIS2_PLACEMENT_3D('',#820,#821,#822);
#820 = CARTESIAN_POINT('',(33.,10.,48.5));
#821 = DIRECTION('',(0.,0.,-1.));
#822 = DIRECTION('',(-1.,0.,0.));
#823 = ORIENTED_EDGE('',*,*,#792,.T.);
#824 = ORIENTED_EDGE('',*,*,#695,.T.);
#825 = ORIENTED_EDGE('',*,*,#826,.T.);
#826 = EDGE_CURVE('',#687,#827,#829,.T.);
#827 = VERTEX_POINT('',#828);
#828 = CARTESIAN_POINT('',(31.6,10.,40.));
#829 = LINE('',#830,#831);
#830 = CARTESIAN_POINT('',(31.6,10.,48.5));
#831 = VECTOR('',#832,1.);
#832 = DIRECTION('',(0.,0.,-1.));
#833 = ORIENTED_EDGE('',*,*,#834,.F.);
#834 = EDGE_CURVE('',#835,#827,#837,.T.);
#835 = VERTEX_POINT('',#836);
#836 = CARTESIAN_POINT('',(32.5,8.692330316938,40.));
#837 = CIRCLE('',#838,1.4);
#838 = AXIS2_PLACEMENT_3D('',#839,#840,#841);
#839 = CARTESIAN_POINT('',(33.,10.,40.));
#840 = DIRECTION('',(0.,0.,-1.));
#841 = DIRECTION('',(-1.,0.,0.));
#842 = ORIENTED_EDGE('',*,*,#843,.T.);
#843 = EDGE_CURVE('',#835,#844,#846,.T.);
#844 = VERTEX_POINT('',#845);
#845 = CARTESIAN_POINT('',(33.,8.6,40.5));
#846 = B_SPLINE_CURVE_WITH_KNOTS('',6,(#847,#848,#849,#850,#851,#852,
    #853,#854,#855,#856,#857,#858,#859,#860,#861,#862,#863),
  .UNSPECIFIED.,.F.,.F.,(7,5,5,7),(0.,0.357185824825,0.695460508464,1.),
  .UNSPECIFIED.);
#847 = CARTESIAN_POINT('',(32.5,8.692330316938,39.9999994));
#848 = CARTESIAN_POINT('',(32.499999944836,8.69233033803,40.045969716613
    ));
#849 = CARTESIAN_POINT('',(32.505071736896,8.690391146179,
    40.091898021989));
#850 = CARTESIAN_POINT('',(32.51519796976,8.68651901902,40.137141593116)
  );
#851 = CARTESIAN_POINT('',(32.530274711095,8.680924021509,40.18105735696
    ));
#852 = CARTESIAN_POINT('',(32.550102000856,8.674014198405,
    40.222988686874));
#853 = CARTESIAN_POINT('',(32.597266681998,8.658960933053,
    40.299530034137));
#854 = CARTESIAN_POINT('',(32.624190643389,8.650889077665,
    40.334474930995));
#855 = CARTESIAN_POINT('',(32.654842060992,8.642477743065,
    40.366611420082));
#856 = CARTESIAN_POINT('',(32.688882620166,8.634197602585,
    40.395453476857));
#857 = CARTESIAN_POINT('',(32.725901629673,8.626509036786,
    40.420562933793));
#858 = CARTESIAN_POINT('',(32.801009737352,8.613744030757,
    40.460463210652));
#859 = CARTESIAN_POINT('',(32.838636154547,8.608481854113,
    40.476039719767));
#860 = CARTESIAN_POINT('',(32.877860354143,8.604302442164,
    40.487952936153));
#861 = CARTESIAN_POINT('',(32.918180554892,8.601435906368,
    40.495979527539));
#862 = CARTESIAN_POINT('',(32.959070862014,8.6,40.5));
#863 = CARTESIAN_POINT('',(33.,8.6,40.5));
#864 = ORIENTED_EDGE('',*,*,#865,.T.);
#865 = EDGE_CURVE('',#844,#866,#868,.T.);
#866 = VERTEX_POINT('',#867);
#867 = CARTESIAN_POINT('',(33.5,8.692330316938,40.));
#868 = B_SPLINE_CURVE_WITH_KNOTS('',6,(#869,#870,#871,#872,#873,#874,
    #875,#876,#877,#878,#879,#880,#881,#882,#883,#884,#885,#886,#887,
    #888,#889,#890),.UNSPECIFIED.,.F.,.F.,(7,5,5,5,7),(0.,0.30545505894,
    0.643662399623,0.91684326284,1.),.UNSPECIFIED.);
#869 = CARTESIAN_POINT('',(33.,8.6,40.5));
#870 = CARTESIAN_POINT('',(33.04105596566,8.6,40.5));
#871 = CARTESIAN_POINT('',(33.082072137248,8.601444819645,
    40.495954572302));
#872 = CARTESIAN_POINT('',(33.122512642696,8.604329034344,
    40.487878471539));
#873 = CARTESIAN_POINT('',(33.161847164519,8.608533437184,
    40.475892663999));
#874 = CARTESIAN_POINT('',(33.199569831002,8.613825187387,
    40.460222955552));
#875 = CARTESIAN_POINT('',(33.27471775447,8.626633848457,40.420157680496
    ));
#876 = CARTESIAN_POINT('',(33.311692557428,8.634330633033,
    40.394998722107));
#877 = CARTESIAN_POINT('',(33.345684641649,8.642613943415,
    40.366112969466));
#878 = CARTESIAN_POINT('',(33.376284347299,8.651023326491,
    40.333938802299));
#879 = CARTESIAN_POINT('',(33.403154346563,8.659088452063,
    40.298962140979));
#880 = CARTESIAN_POINT('',(33.444525470185,8.672305120252,
    40.231612643013));
#881 = CARTESIAN_POINT('',(33.460429796381,8.677725179371,40.20000187444
    ));
#882 = CARTESIAN_POINT('',(33.473603957547,8.682440098079,
    40.167152570492));
#883 = CARTESIAN_POINT('',(33.483944579305,8.686263329539,
    40.133349118915));
#884 = CARTESIAN_POINT('',(33.491384800342,8.689059827251,
    40.098876413218));
#885 = CARTESIAN_POINT('',(33.497255051585,8.69128323937,40.053403200821
    ));
#886 = CARTESIAN_POINT('',(33.498352353054,8.691700822461,
    40.042756942279));
#887 = CARTESIAN_POINT('',(33.499176015043,8.692015257663,
    40.032084830142));
#888 = CARTESIAN_POINT('',(33.499725350093,8.692225299598,
    40.021395448624));
#889 = CARTESIAN_POINT('',(33.500000012837,8.692330321846,
    40.010697419079));
#890 = CARTESIAN_POINT('',(33.5,8.692330316938,39.9999994));
#891 = ORIENTED_EDGE('',*,*,#892,.F.);
#892 = EDGE_CURVE('',#893,#866,#895,.T.);
#893 = VERTEX_POINT('',#894);
#894 = CARTESIAN_POINT('',(34.4,10.,40.));
#895 = CIRCLE('',#896,1.4);
#896 = AXIS2_PLACEMENT_3D('',#897,#898,#899);
#897 = CARTESIAN_POINT('',(33.,10.,40.));
#898 = DIRECTION('',(0.,0.,-1.));
#899 = DIRECTION('',(-1.,0.,0.));
#900 = ORIENTED_EDGE('',*,*,#901,.F.);
#901 = EDGE_CURVE('',#902,#893,#904,.T.);
#902 = VERTEX_POINT('',#903);
#903 = CARTESIAN_POINT('',(33.,11.4,41.4));
#904 = ELLIPSE('',#905,1.979898987322,1.4);
#905 = AXIS2_PLACEMENT_3D('',#906,#907,#908);
#906 = CARTESIAN_POINT('',(33.,10.,40.));
#907 = DIRECTION('',(0.,0.707106781187,-0.707106781187));
#908 = DIRECTION('',(0.,-0.707106781187,-0.707106781187));
#909 = ORIENTED_EDGE('',*,*,#910,.F.);
#910 = EDGE_CURVE('',#827,#902,#911,.T.);
#911 = ELLIPSE('',#912,1.979898987322,1.4);
#912 = AXIS2_PLACEMENT_3D('',#913,#914,#915);
#913 = CARTESIAN_POINT('',(33.,10.,40.));
#914 = DIRECTION('',(0.,0.707106781187,-0.707106781187));
#915 = DIRECTION('',(0.,-0.707106781187,-0.707106781187));
#916 = ORIENTED_EDGE('',*,*,#826,.F.);
#917 = ORIENTED_EDGE('',*,*,#686,.T.);
#918 = CYLINDRICAL_SURFACE('',#919,1.4);
#919 = AXIS2_PLACEMENT_3D('',#920,#921,#922);
#920 = CARTESIAN_POINT('',(33.,10.,48.5));
#921 = DIRECTION('',(0.,0.,-1.));
#922 = DIRECTION('',(-1.,0.,0.));
#923 = ADVANCED_FACE('',(#924),#929,.T.);
#924 = FACE_BOUND('',#925,.T.);
#925 = EDGE_LOOP('',(#926,#927,#928));
#926 = ORIENTED_EDGE('',*,*,#801,.F.);
#927 = ORIENTED_EDGE('',*,*,#817,.F.);
#928 = ORIENTED_EDGE('',*,*,#677,.T.);
#929 = SPHERICAL_SURFACE('',#930,1.4);
#930 = AXIS2_PLACEMENT_3D('',#931,#932,#933);
#931 = CARTESIAN_POINT('',(33.,10.,48.5));
#932 = DIRECTION('',(0.,0.,1.));
#933 = DIRECTION('',(1.,0.,0.));
#934 = ADVANCED_FACE('',(#935),#988,.F.);
#935 = FACE_BOUND('',#936,.F.);
#936 = EDGE_LOOP('',(#937,#944,#945,#953,#962,#971,#980,#987));
#937 = ORIENTED_EDGE('',*,*,#938,.T.);
#938 = EDGE_CURVE('',#766,#758,#939,.T.);
#939 = CIRCLE('',#940,0.65);
#940 = AXIS2_PLACEMENT_3D('',#941,#942,#943);
#941 = CARTESIAN_POINT('',(-39.,10.,48.5));
#942 = DIRECTION('',(1.,0.,-0.));
#943 = DIRECTION('',(0.,0.,1.));
#944 = ORIENTED_EDGE('',*,*,#774,.T.);
#945 = ORIENTED_EDGE('',*,*,#946,.T.);
#946 = EDGE_CURVE('',#766,#947,#949,.T.);
#947 = VERTEX_POINT('',#948);
#948 = CARTESIAN_POINT('',(33.,10.,49.15));
#949 = LINE('',#950,#951);
#950 = CARTESIAN_POINT('',(-39.,10.,49.15));
#951 = VECTOR('',#952,1.);
#952 = DIRECTION('',(1.,0.,0.));
#953 = ORIENTED_EDGE('',*,*,#954,.F.);
#954 = EDGE_CURVE('',#955,#947,#957,.T.);
#955 = VERTEX_POINT('',#956);
#956 = CARTESIAN_POINT('',(33.,10.65,48.5));
#957 = CIRCLE('',#958,0.65);
#958 = AXIS2_PLACEMENT_3D('',#959,#960,#961);
#959 = CARTESIAN_POINT('',(33.,10.,48.5));
#960 = DIRECTION('',(1.,0.,-0.));
#961 = DIRECTION('',(0.,0.,1.));
#962 = ORIENTED_EDGE('',*,*,#963,.F.);
#963 = EDGE_CURVE('',#964,#955,#966,.T.);
#964 = VERTEX_POINT('',#965);
#965 = CARTESIAN_POINT('',(32.35,10.,47.85));
#966 = ELLIPSE('',#967,0.919238815543,0.65);
#967 = AXIS2_PLACEMENT_3D('',#968,#969,#970);
#968 = CARTESIAN_POINT('',(33.,10.,48.5));
#969 = DIRECTION('',(0.707106781187,0.,-0.707106781187));
#970 = DIRECTION('',(0.707106781187,0.,0.707106781187));
#971 = ORIENTED_EDGE('',*,*,#972,.F.);
#972 = EDGE_CURVE('',#973,#964,#975,.T.);
#973 = VERTEX_POINT('',#974);
#974 = CARTESIAN_POINT('',(33.,9.35,48.5));
#975 = ELLIPSE('',#976,0.919238815543,0.65);
#976 = AXIS2_PLACEMENT_3D('',#977,#978,#979);
#977 = CARTESIAN_POINT('',(33.,10.,48.5));
#978 = DIRECTION('',(0.707106781187,0.,-0.707106781187));
#979 = DIRECTION('',(0.707106781187,0.,0.707106781187));
#980 = ORIENTED_EDGE('',*,*,#981,.F.);
#981 = EDGE_CURVE('',#947,#973,#982,.T.);
#982 = CIRCLE('',#983,0.65);
#983 = AXIS2_PLACEMENT_3D('',#984,#985,#986);
#984 = CARTESIAN_POINT('',(33.,10.,48.5));
#985 = DIRECTION('',(1.,0.,-0.));
#986 = DIRECTION('',(0.,0.,1.));
#987 = ORIENTED_EDGE('',*,*,#946,.F.);
#988 = CYLINDRICAL_SURFACE('',#989,0.65);
#989 = AXIS2_PLACEMENT_3D('',#990,#991,#992);
#990 = CARTESIAN_POINT('',(-39.,10.,48.5));
#991 = DIRECTION('',(1.,0.,0.));
#992 = DIRECTION('',(0.,0.,1.));
#993 = ADVANCED_FACE('',(#994),#998,.F.);
#994 = FACE_BOUND('',#995,.F.);
#995 = EDGE_LOOP('',(#996,#997));
#996 = ORIENTED_EDGE('',*,*,#765,.T.);
#997 = ORIENTED_EDGE('',*,*,#938,.F.);
#998 = SPHERICAL_SURFACE('',#999,0.65);
#999 = AXIS2_PLACEMENT_3D('',#1000,#1001,#1002);
#1000 = CARTESIAN_POINT('',(-39.,10.,48.5));
#1001 = DIRECTION('',(0.,0.,1.));
#1002 = DIRECTION('',(1.,0.,0.));
#1003 = ADVANCED_FACE('',(#1004),#1049,.T.);
#1004 = FACE_BOUND('',#1005,.T.);
#1005 = EDGE_LOOP('',(#1006,#1007,#1015,#1024,#1031,#1032,#1033,#1042));
#1006 = ORIENTED_EDGE('',*,*,#910,.T.);
#1007 = ORIENTED_EDGE('',*,*,#1008,.T.);
#1008 = EDGE_CURVE('',#902,#1009,#1011,.T.);
#1009 = VERTEX_POINT('',#1010);
#1010 = CARTESIAN_POINT('',(33.,12.,41.4));
#1011 = LINE('',#1012,#1013);
#1012 = CARTESIAN_POINT('',(33.,10.,41.4));
#1013 = VECTOR('',#1014,1.);
#1014 = DIRECTION('',(0.,1.,0.));
#1015 = ORIENTED_EDGE('',*,*,#1016,.F.);
#1016 = EDGE_CURVE('',#1017,#1009,#1019,.T.);
#1017 = VERTEX_POINT('',#1018);
#1018 = CARTESIAN_POINT('',(33.,12.,38.6));
#1019 = CIRCLE('',#1020,1.4);
#1020 = AXIS2_PLACEMENT_3D('',#1021,#1022,#1023);
#1021 = CARTESIAN_POINT('',(33.,12.,40.));
#1022 = DIRECTION('',(0.,1.,0.));
#1023 = DIRECTION('',(0.,0.,1.));
#1024 = ORIENTED_EDGE('',*,*,#1025,.F.);
#1025 = EDGE_CURVE('',#1009,#1017,#1026,.T.);
#1026 = CIRCLE('',#1027,1.4);
#1027 = AXIS2_PLACEMENT_3D('',#1028,#1029,#1030);
#1028 = CARTESIAN_POINT('',(33.,12.,40.));
#1029 = DIRECTION('',(0.,1.,0.));
#1030 = DIRECTION('',(0.,0.,1.));
#1031 = ORIENTED_EDGE('',*,*,#1008,.F.);
#1032 = ORIENTED_EDGE('',*,*,#901,.T.);
#1033 = ORIENTED_EDGE('',*,*,#1034,.F.);
#1034 = EDGE_CURVE('',#1035,#893,#1037,.T.);
#1035 = VERTEX_POINT('',#1036);
#1036 = CARTESIAN_POINT('',(33.,10.,38.6));
#1037 = CIRCLE('',#1038,1.4);
#1038 = AXIS2_PLACEMENT_3D('',#1039,#1040,#1041);
#1039 = CARTESIAN_POINT('',(33.,10.,40.));
#1040 = DIRECTION('',(-2.449293598295E-16,-1.,0.));
#1041 = DIRECTION('',(1.,-2.449293598295E-16,0.));
#1042 = ORIENTED_EDGE('',*,*,#1043,.T.);
#1043 = EDGE_CURVE('',#1035,#827,#1044,.T.);
#1044 = CIRCLE('',#1045,1.4);
#1045 = AXIS2_PLACEMENT_3D('',#1046,#1047,#1048);
#1046 = CARTESIAN_POINT('',(33.,10.,40.));
#1047 = DIRECTION('',(0.,1.,0.));
#1048 = DIRECTION('',(0.,0.,1.));
#1049 = CYLINDRICAL_SURFACE('',#1050,1.4);
#1050 = AXIS2_PLACEMENT_3D('',#1051,#1052,#1053);
#1051 = CARTESIAN_POINT('',(33.,10.,40.));
#1052 = DIRECTION('',(0.,1.,0.));
#1053 = DIRECTION('',(0.,0.,1.));
#1054 = ADVANCED_FACE('',(#1055),#1068,.T.);
#1055 = FACE_BOUND('',#1056,.T.);
#1056 = EDGE_LOOP('',(#1057,#1058,#1059,#1066,#1067));
#1057 = ORIENTED_EDGE('',*,*,#1034,.T.);
#1058 = ORIENTED_EDGE('',*,*,#892,.T.);
#1059 = ORIENTED_EDGE('',*,*,#1060,.T.);
#1060 = EDGE_CURVE('',#866,#835,#1061,.T.);
#1061 = CIRCLE('',#1062,0.5);
#1062 = AXIS2_PLACEMENT_3D('',#1063,#1064,#1065);
#1063 = CARTESIAN_POINT('',(33.,8.692330316938,40.));
#1064 = DIRECTION('',(0.,1.,0.));
#1065 = DIRECTION('',(0.,0.,1.));
#1066 = ORIENTED_EDGE('',*,*,#834,.T.);
#1067 = ORIENTED_EDGE('',*,*,#1043,.F.);
#1068 = SPHERICAL_SURFACE('',#1069,1.4);
#1069 = AXIS2_PLACEMENT_3D('',#1070,#1071,#1072);
#1070 = CARTESIAN_POINT('',(33.,10.,40.));
#1071 = DIRECTION('',(0.,0.,1.));
#1072 = DIRECTION('',(1.,0.,0.));
#1073 = ADVANCED_FACE('',(#1074),#1154,.F.);
#1074 = FACE_BOUND('',#1075,.F.);
#1075 = EDGE_LOOP('',(#1076,#1110,#1116,#1117,#1118,#1119,#1120,#1147));
#1076 = ORIENTED_EDGE('',*,*,#1077,.F.);
#1077 = EDGE_CURVE('',#1078,#1080,#1082,.T.);
#1078 = VERTEX_POINT('',#1079);
#1079 = CARTESIAN_POINT('',(33.,9.35,40.5));
#1080 = VERTEX_POINT('',#1081);
#1081 = CARTESIAN_POINT('',(33.5,9.584668806854,40.));
#1082 = B_SPLINE_CURVE_WITH_KNOTS('',6,(#1083,#1084,#1085,#1086,#1087,
    #1088,#1089,#1090,#1091,#1092,#1093,#1094,#1095,#1096,#1097,#1098,
    #1099,#1100,#1101,#1102,#1103,#1104,#1105,#1106,#1107,#1108,#1109),
  .UNSPECIFIED.,.F.,.F.,(7,5,5,5,5,7),(0.,0.495554176004,0.733291418367,
    0.813801727186,0.924822445713,1.),.UNSPECIFIED.);
#1083 = CARTESIAN_POINT('',(33.,9.35,40.5));
#1084 = CARTESIAN_POINT('',(33.064291316039,9.35,40.5));
#1085 = CARTESIAN_POINT('',(33.128113021363,9.357631193817,
    40.49008033249));
#1086 = CARTESIAN_POINT('',(33.189694422291,9.372682701873,
    40.470509834518));
#1087 = CARTESIAN_POINT('',(33.247315364169,9.394222721531,
    40.441912627771));
#1088 = CARTESIAN_POINT('',(33.299461382072,9.42060313102,
    40.405299503938));
#1089 = CARTESIAN_POINT('',(33.366743868651,9.462727932935,
    40.341184458416));
#1090 = CARTESIAN_POINT('',(33.387059336949,9.476890030945,
    40.318815592615));
#1091 = CARTESIAN_POINT('',(33.405846350277,9.49132648156,
    40.294890233403));
#1092 = CARTESIAN_POINT('',(33.423002082064,9.505744005001,
    40.269433736964));
#1093 = CARTESIAN_POINT('',(33.438386424132,9.519722076233,
    40.242491807024));
#1094 = CARTESIAN_POINT('',(33.456378552556,9.537119125427,
    40.204527686016));
#1095 = CARTESIAN_POINT('',(33.460708816026,9.541409163441,
    40.194757803802));
#1096 = CARTESIAN_POINT('',(33.464811016931,9.545567129772,
    40.184823524617));
#1097 = CARTESIAN_POINT('',(33.468677741144,9.549570375146,
    40.174727482614));
#1098 = CARTESIAN_POINT('',(33.472300835346,9.553394602842,
    40.164473629356));
#1099 = CARTESIAN_POINT('',(33.480319299896,9.562004701546,
    40.139717201785));
#1100 = CARTESIAN_POINT('',(33.484494257396,9.566613727386,
    40.125055165153));
#1101 = CARTESIAN_POINT('',(33.48816133295,9.570761598938,
    40.110122455009));
#1102 = CARTESIAN_POINT('',(33.491295218098,9.574375862531,
    40.094954198118));
#1103 = CARTESIAN_POINT('',(33.493876042393,9.577393667708,
    40.079578362382));
#1104 = CARTESIAN_POINT('',(33.497245654004,9.581369867591,
    40.053475955164));
#1105 = CARTESIAN_POINT('',(33.498342924738,9.58267746269,
    40.042858689654));
#1106 = CARTESIAN_POINT('',(33.499170338959,9.583669976924,
    40.032183460318));
#1107 = CARTESIAN_POINT('',(33.499723451653,9.584335766712,
    40.021469692711));
#1108 = CARTESIAN_POINT('',(33.500000019325,9.584668830119,
    40.010735783408));
#1109 = CARTESIAN_POINT('',(33.499999999999,9.584668806853,39.9999991));
#1110 = ORIENTED_EDGE('',*,*,#1111,.F.);
#1111 = EDGE_CURVE('',#844,#1078,#1112,.T.);
#1112 = LINE('',#1113,#1114);
#1113 = CARTESIAN_POINT('',(33.,7.2,40.5));
#1114 = VECTOR('',#1115,1.);
#1115 = DIRECTION('',(0.,1.,0.));
#1116 = ORIENTED_EDGE('',*,*,#865,.T.);
#1117 = ORIENTED_EDGE('',*,*,#1060,.T.);
#1118 = ORIENTED_EDGE('',*,*,#843,.T.);
#1119 = ORIENTED_EDGE('',*,*,#1111,.T.);
#1120 = ORIENTED_EDGE('',*,*,#1121,.F.);
#1121 = EDGE_CURVE('',#1122,#1078,#1124,.T.);
#1122 = VERTEX_POINT('',#1123);
#1123 = CARTESIAN_POINT('',(32.5,9.584668806854,40.));
#1124 = B_SPLINE_CURVE_WITH_KNOTS('',6,(#1125,#1126,#1127,#1128,#1129,
    #1130,#1131,#1132,#1133,#1134,#1135,#1136,#1137,#1138,#1139,#1140,
    #1141,#1142,#1143,#1144,#1145,#1146),.UNSPECIFIED.,.F.,.F.,(7,5,5,5,
    7),(0.,0.186941722051,0.267406707342,0.504357634637,1.),
  .UNSPECIFIED.);
#1125 = CARTESIAN_POINT('',(32.500000000001,9.584668806853,39.9999991));
#1126 = CARTESIAN_POINT('',(32.49999995173,9.584668864965,
    40.026816359889));
#1127 = CARTESIAN_POINT('',(32.501725945006,9.582591115839,
    40.053463150942));
#1128 = CARTESIAN_POINT('',(32.505136531752,9.578484777341,
    40.079797994822));
#1129 = CARTESIAN_POINT('',(32.510176059998,9.572550751225,
    40.105659343431));
#1130 = CARTESIAN_POINT('',(32.516748191613,9.565142980424,
    40.130811302287));
#1131 = CARTESIAN_POINT('',(32.527995910269,9.55308080322,
    40.165322215477));
#1132 = CARTESIAN_POINT('',(32.531631935616,9.549248097521,
    40.175554311007));
#1133 = CARTESIAN_POINT('',(32.535510614536,9.545238106411,
    40.185628705809));
#1134 = CARTESIAN_POINT('',(32.539623848918,9.541074986813,
    40.195541526067));
#1135 = CARTESIAN_POINT('',(32.543964278728,9.536781245474,
    40.205290188888));
#1136 = CARTESIAN_POINT('',(32.561956390623,9.519410422225,
    40.243093767913));
#1137 = CARTESIAN_POINT('',(32.577313653398,9.505477706274,
    40.269906122185));
#1138 = CARTESIAN_POINT('',(32.594427069161,9.491114488307,
    40.295244051129));
#1139 = CARTESIAN_POINT('',(32.613158465121,9.476735322435,
    40.319062346848));
#1140 = CARTESIAN_POINT('',(32.633406379879,9.462629988356,
    40.34133571833));
#1141 = CARTESIAN_POINT('',(32.700601934973,9.420571615415,
    40.40534288853));
#1142 = CARTESIAN_POINT('',(32.752740848325,9.394201391197,
    40.441941337696));
#1143 = CARTESIAN_POINT('',(32.810354232075,9.372669784177,
    40.47052654899));
#1144 = CARTESIAN_POINT('',(32.871924869416,9.357625962384,
    40.490087152065));
#1145 = CARTESIAN_POINT('',(32.935730784129,9.35,40.5));
#1146 = CARTESIAN_POINT('',(33.,9.35,40.5));
#1147 = ORIENTED_EDGE('',*,*,#1148,.F.);
#1148 = EDGE_CURVE('',#1080,#1122,#1149,.T.);
#1149 = CIRCLE('',#1150,0.5);
#1150 = AXIS2_PLACEMENT_3D('',#1151,#1152,#1153);
#1151 = CARTESIAN_POINT('',(33.,9.584668806854,40.));
#1152 = DIRECTION('',(0.,1.,0.));
#1153 = DIRECTION('',(0.,0.,1.));
#1154 = CYLINDRICAL_SURFACE('',#1155,0.5);
#1155 = AXIS2_PLACEMENT_3D('',#1156,#1157,#1158);
#1156 = CARTESIAN_POINT('',(33.,7.2,40.));
#1157 = DIRECTION('',(0.,1.,0.));
#1158 = DIRECTION('',(0.,0.,1.));
#1159 = ADVANCED_FACE('',(#1160),#1179,.F.);
#1160 = FACE_BOUND('',#1161,.F.);
#1161 = EDGE_LOOP('',(#1162,#1171,#1178));
#1162 = ORIENTED_EDGE('',*,*,#1163,.F.);
#1163 = EDGE_CURVE('',#1164,#973,#1166,.T.);
#1164 = VERTEX_POINT('',#1165);
#1165 = CARTESIAN_POINT('',(33.65,10.,48.5));
#1166 = CIRCLE('',#1167,0.65);
#1167 = AXIS2_PLACEMENT_3D('',#1168,#1169,#1170);
#1168 = CARTESIAN_POINT('',(33.,10.,48.5));
#1169 = DIRECTION('',(0.,0.,-1.));
#1170 = DIRECTION('',(-1.,0.,0.));
#1171 = ORIENTED_EDGE('',*,*,#1172,.T.);
#1172 = EDGE_CURVE('',#1164,#947,#1173,.T.);
#1173 = CIRCLE('',#1174,0.65);
#1174 = AXIS2_PLACEMENT_3D('',#1175,#1176,#1177);
#1175 = CARTESIAN_POINT('',(33.,10.,48.5));
#1176 = DIRECTION('',(-2.449293598295E-16,-1.,0.));
#1177 = DIRECTION('',(1.,-2.449293598295E-16,0.));
#1178 = ORIENTED_EDGE('',*,*,#981,.T.);
#1179 = SPHERICAL_SURFACE('',#1180,0.65);
#1180 = AXIS2_PLACEMENT_3D('',#1181,#1182,#1183);
#1181 = CARTESIAN_POINT('',(33.,10.,48.5));
#1182 = DIRECTION('',(0.,0.,1.));
#1183 = DIRECTION('',(1.,0.,0.));
#1184 = ADVANCED_FACE('',(#1185),#1240,.F.);
#1185 = FACE_BOUND('',#1186,.F.);
#1186 = EDGE_LOOP('',(#1187,#1194,#1195,#1196,#1204,#1211,#1212,#1213,
    #1222,#1231,#1238,#1239));
#1187 = ORIENTED_EDGE('',*,*,#1188,.T.);
#1188 = EDGE_CURVE('',#955,#1164,#1189,.T.);
#1189 = CIRCLE('',#1190,0.65);
#1190 = AXIS2_PLACEMENT_3D('',#1191,#1192,#1193);
#1191 = CARTESIAN_POINT('',(33.,10.,48.5));
#1192 = DIRECTION('',(0.,0.,-1.));
#1193 = DIRECTION('',(-1.,0.,0.));
#1194 = ORIENTED_EDGE('',*,*,#1163,.T.);
#1195 = ORIENTED_EDGE('',*,*,#972,.T.);
#1196 = ORIENTED_EDGE('',*,*,#1197,.T.);
#1197 = EDGE_CURVE('',#964,#1198,#1200,.T.);
#1198 = VERTEX_POINT('',#1199);
#1199 = CARTESIAN_POINT('',(32.35,10.,40.));
#1200 = LINE('',#1201,#1202);
#1201 = CARTESIAN_POINT('',(32.35,10.,48.5));
#1202 = VECTOR('',#1203,1.);
#1203 = DIRECTION('',(0.,0.,-1.));
#1204 = ORIENTED_EDGE('',*,*,#1205,.F.);
#1205 = EDGE_CURVE('',#1122,#1198,#1206,.T.);
#1206 = CIRCLE('',#1207,0.65);
#1207 = AXIS2_PLACEMENT_3D('',#1208,#1209,#1210);
#1208 = CARTESIAN_POINT('',(33.,10.,40.));
#1209 = DIRECTION('',(0.,0.,-1.));
#1210 = DIRECTION('',(-1.,0.,0.));
#1211 = ORIENTED_EDGE('',*,*,#1121,.T.);
#1212 = ORIENTED_EDGE('',*,*,#1077,.T.);
#1213 = ORIENTED_EDGE('',*,*,#1214,.F.);
#1214 = EDGE_CURVE('',#1215,#1080,#1217,.T.);
#1215 = VERTEX_POINT('',#1216);
#1216 = CARTESIAN_POINT('',(33.65,10.,40.));
#1217 = CIRCLE('',#1218,0.65);
#1218 = AXIS2_PLACEMENT_3D('',#1219,#1220,#1221);
#1219 = CARTESIAN_POINT('',(33.,10.,40.));
#1220 = DIRECTION('',(0.,0.,-1.));
#1221 = DIRECTION('',(-1.,0.,0.));
#1222 = ORIENTED_EDGE('',*,*,#1223,.F.);
#1223 = EDGE_CURVE('',#1224,#1215,#1226,.T.);
#1224 = VERTEX_POINT('',#1225);
#1225 = CARTESIAN_POINT('',(33.,10.65,40.65));
#1226 = ELLIPSE('',#1227,0.919238815543,0.65);
#1227 = AXIS2_PLACEMENT_3D('',#1228,#1229,#1230);
#1228 = CARTESIAN_POINT('',(33.,10.,40.));
#1229 = DIRECTION('',(0.,0.707106781187,-0.707106781187));
#1230 = DIRECTION('',(0.,-0.707106781187,-0.707106781187));
#1231 = ORIENTED_EDGE('',*,*,#1232,.F.);
#1232 = EDGE_CURVE('',#1198,#1224,#1233,.T.);
#1233 = ELLIPSE('',#1234,0.919238815543,0.65);
#1234 = AXIS2_PLACEMENT_3D('',#1235,#1236,#1237);
#1235 = CARTESIAN_POINT('',(33.,10.,40.));
#1236 = DIRECTION('',(0.,0.707106781187,-0.707106781187));
#1237 = DIRECTION('',(0.,-0.707106781187,-0.707106781187));
#1238 = ORIENTED_EDGE('',*,*,#1197,.F.);
#1239 = ORIENTED_EDGE('',*,*,#963,.T.);
#1240 = CYLINDRICAL_SURFACE('',#1241,0.65);
#1241 = AXIS2_PLACEMENT_3D('',#1242,#1243,#1244);
#1242 = CARTESIAN_POINT('',(33.,10.,48.5));
#1243 = DIRECTION('',(0.,0.,-1.));
#1244 = DIRECTION('',(-1.,0.,0.));
#1245 = ADVANCED_FACE('',(#1246),#1251,.F.);
#1246 = FACE_BOUND('',#1247,.F.);
#1247 = EDGE_LOOP('',(#1248,#1249,#1250));
#1248 = ORIENTED_EDGE('',*,*,#1172,.F.);
#1249 = ORIENTED_EDGE('',*,*,#1188,.F.);
#1250 = ORIENTED_EDGE('',*,*,#954,.T.);
#1251 = SPHERICAL_SURFACE('',#1252,0.65);
#1252 = AXIS2_PLACEMENT_3D('',#1253,#1254,#1255);
#1253 = CARTESIAN_POINT('',(33.,10.,48.5));
#1254 = DIRECTION('',(0.,0.,1.));
#1255 = DIRECTION('',(1.,0.,0.));
#1256 = ADVANCED_FACE('',(#1257),#1261,.T.);
#1257 = FACE_BOUND('',#1258,.T.);
#1258 = EDGE_LOOP('',(#1259,#1260));
#1259 = ORIENTED_EDGE('',*,*,#1016,.T.);
#1260 = ORIENTED_EDGE('',*,*,#1025,.T.);
#1261 = SPHERICAL_SURFACE('',#1262,1.4);
#1262 = AXIS2_PLACEMENT_3D('',#1263,#1264,#1265);
#1263 = CARTESIAN_POINT('',(33.,12.,40.));
#1264 = DIRECTION('',(0.,0.,1.));
#1265 = DIRECTION('',(1.,0.,0.));
#1266 = ADVANCED_FACE('',(#1267),#1288,.F.);
#1267 = FACE_BOUND('',#1268,.F.);
#1268 = EDGE_LOOP('',(#1269,#1278,#1279,#1280,#1281));
#1269 = ORIENTED_EDGE('',*,*,#1270,.T.);
#1270 = EDGE_CURVE('',#1271,#1215,#1273,.T.);
#1271 = VERTEX_POINT('',#1272);
#1272 = CARTESIAN_POINT('',(33.,10.,39.35));
#1273 = CIRCLE('',#1274,0.65);
#1274 = AXIS2_PLACEMENT_3D('',#1275,#1276,#1277);
#1275 = CARTESIAN_POINT('',(33.,10.,40.));
#1276 = DIRECTION('',(-2.449293598295E-16,-1.,0.));
#1277 = DIRECTION('',(1.,-2.449293598295E-16,0.));
#1278 = ORIENTED_EDGE('',*,*,#1214,.T.);
#1279 = ORIENTED_EDGE('',*,*,#1148,.T.);
#1280 = ORIENTED_EDGE('',*,*,#1205,.T.);
#1281 = ORIENTED_EDGE('',*,*,#1282,.F.);
#1282 = EDGE_CURVE('',#1271,#1198,#1283,.T.);
#1283 = CIRCLE('',#1284,0.65);
#1284 = AXIS2_PLACEMENT_3D('',#1285,#1286,#1287);
#1285 = CARTESIAN_POINT('',(33.,10.,40.));
#1286 = DIRECTION('',(0.,1.,0.));
#1287 = DIRECTION('',(0.,0.,1.));
#1288 = SPHERICAL_SURFACE('',#1289,0.65);
#1289 = AXIS2_PLACEMENT_3D('',#1290,#1291,#1292);
#1290 = CARTESIAN_POINT('',(33.,10.,40.));
#1291 = DIRECTION('',(0.,0.,1.));
#1292 = DIRECTION('',(1.,0.,0.));
#1293 = ADVANCED_FACE('',(#1294),#1325,.F.);
#1294 = FACE_BOUND('',#1295,.F.);
#1295 = EDGE_LOOP('',(#1296,#1297,#1305,#1314,#1321,#1322,#1323,#1324));
#1296 = ORIENTED_EDGE('',*,*,#1232,.T.);
#1297 = ORIENTED_EDGE('',*,*,#1298,.T.);
#1298 = EDGE_CURVE('',#1224,#1299,#1301,.T.);
#1299 = VERTEX_POINT('',#1300);
#1300 = CARTESIAN_POINT('',(33.,12.,40.65));
#1301 = LINE('',#1302,#1303);
#1302 = CARTESIAN_POINT('',(33.,10.,40.65));
#1303 = VECTOR('',#1304,1.);
#1304 = DIRECTION('',(0.,1.,0.));
#1305 = ORIENTED_EDGE('',*,*,#1306,.F.);
#1306 = EDGE_CURVE('',#1307,#1299,#1309,.T.);
#1307 = VERTEX_POINT('',#1308);
#1308 = CARTESIAN_POINT('',(33.,12.,39.35));
#1309 = CIRCLE('',#1310,0.65);
#1310 = AXIS2_PLACEMENT_3D('',#1311,#1312,#1313);
#1311 = CARTESIAN_POINT('',(33.,12.,40.));
#1312 = DIRECTION('',(0.,1.,0.));
#1313 = DIRECTION('',(0.,0.,1.));
#1314 = ORIENTED_EDGE('',*,*,#1315,.F.);
#1315 = EDGE_CURVE('',#1299,#1307,#1316,.T.);
#1316 = CIRCLE('',#1317,0.65);
#1317 = AXIS2_PLACEMENT_3D('',#1318,#1319,#1320);
#1318 = CARTESIAN_POINT('',(33.,12.,40.));
#1319 = DIRECTION('',(0.,1.,0.));
#1320 = DIRECTION('',(0.,0.,1.));
#1321 = ORIENTED_EDGE('',*,*,#1298,.F.);
#1322 = ORIENTED_EDGE('',*,*,#1223,.T.);
#1323 = ORIENTED_EDGE('',*,*,#1270,.F.);
#1324 = ORIENTED_EDGE('',*,*,#1282,.T.);
#1325 = CYLINDRICAL_SURFACE('',#1326,0.65);
#1326 = AXIS2_PLACEMENT_3D('',#1327,#1328,#1329);
#1327 = CARTESIAN_POINT('',(33.,10.,40.));
#1328 = DIRECTION('',(0.,1.,0.));
#1329 = DIRECTION('',(0.,0.,1.));
#1330 = ADVANCED_FACE('',(#1331),#1335,.F.);
#1331 = FACE_BOUND('',#1332,.F.);
#1332 = EDGE_LOOP('',(#1333,#1334));
#1333 = ORIENTED_EDGE('',*,*,#1306,.T.);
#1334 = ORIENTED_EDGE('',*,*,#1315,.T.);
#1335 = SPHERICAL_SURFACE('',#1336,0.65);
#1336 = AXIS2_PLACEMENT_3D('',#1337,#1338,#1339);
#1337 = CARTESIAN_POINT('',(33.,12.,40.));
#1338 = DIRECTION('',(0.,0.,1.));
#1339 = DIRECTION('',(1.,0.,0.));
#1340 = ( GEOMETRIC_REPRESENTATION_CONTEXT(3) 
GLOBAL_UNCERTAINTY_ASSIGNED_CONTEXT((#1344)) 
GLOBAL_UNIT_ASSIGNED_CONTEXT((#1341,#1342,#1343)) REPRESENTATION_CONTEXT
('Context #1','3D Context with UNIT and UNCERTAINTY') );
#1341 = ( LENGTH_UNIT() NAMED_UNIT(*) SI_UNIT(.MILLI.,.METRE.) );
#1342 = ( NAMED_UNIT(*) PLANE_ANGLE_UNIT() SI_UNIT($,.RADIAN.) );
#1343 = ( NAMED_UNIT(*) SI_UNIT($,.STERADIAN.) SOLID_ANGLE_UNIT() );
#1344 = UNCERTAINTY_MEASURE_WITH_UNIT(LENGTH_MEASURE(2.E-07),#1341,
  'distance_accuracy_value','confusion accuracy');
#1345 = PRODUCT_RELATED_PRODUCT_CATEGORY('part',$,(#7));
ENDSEC;
END-ISO-10303-21;
