ISO-10303-21;
HEADER;
FILE_DESCRIPTION(('FreeCAD Model'),'2;1');
FILE_NAME('Open CASCADE Shape Model','2026-09-30T01:44:50',('FreeCAD'),(
    'FreeCAD'),'Open CASCADE STEP processor 7.8','FreeCAD','Unknown');
FILE_SCHEMA(('AUTOMOTIVE_DESIGN { 1 0 10303 214 1 1 1 1 }'));
ENDSEC;
DATA;
#1 = APPLICATION_PROTOCOL_DEFINITION('international standard',
  'automotive_design',2000,#2);
#2 = APPLICATION_CONTEXT(
  'core data for automotive mechanical design processes');
#3 = SHAPE_DEFINITION_REPRESENTATION(#4,#10);
#4 = PRODUCT_DEFINITION_SHAPE('','',#5);
#5 = PRODUCT_DEFINITION('design','',#6,#9);
#6 = PRODUCT_DEFINITION_FORMATION('','',#7);
#7 = PRODUCT('Open CASCADE STEP translator 7.8 46',
  'Open CASCADE STEP translator 7.8 46','',(#8));
#8 = PRODUCT_CONTEXT('',#2,'mechanical');
#9 = PRODUCT_DEFINITION_CONTEXT('part definition',#2,'design');
#10 = ADVANCED_BREP_SHAPE_REPRESENTATION('',(#11,#15),#696);
#11 = AXIS2_PLACEMENT_3D('',#12,#13,#14);
#12 = CARTESIAN_POINT('',(0.,0.,0.));
#13 = DIRECTION('',(0.,0.,1.));
#14 = DIRECTION('',(1.,0.,-0.));
#15 = MANIFOLD_SOLID_BREP('',#16);
#16 = CLOSED_SHELL('',(#17,#70,#216,#319,#396,#422,#458,#477,#523,#569,
    #595,#649,#684));
#17 = ADVANCED_FACE('',(#18),#65,.T.);
#18 = FACE_BOUND('',#19,.T.);
#19 = EDGE_LOOP('',(#20,#31,#40,#49,#58));
#20 = ORIENTED_EDGE('',*,*,#21,.T.);
#21 = EDGE_CURVE('',#22,#24,#26,.T.);
#22 = VERTEX_POINT('',#23);
#23 = CARTESIAN_POINT('',(-33.,27.,28.5));
#24 = VERTEX_POINT('',#25);
#25 = CARTESIAN_POINT('',(-32.24006579232,27.,28.85));
#26 = CIRCLE('',#27,1.);
#27 = AXIS2_PLACEMENT_3D('',#28,#29,#30);
#28 = CARTESIAN_POINT('',(-33.,27.,29.5));
#29 = DIRECTION('',(-2.449293598295E-16,-1.,0.));
#30 = DIRECTION('',(1.,-2.449293598295E-16,0.));
#31 = ORIENTED_EDGE('',*,*,#32,.F.);
#32 = EDGE_CURVE('',#33,#24,#35,.T.);
#33 = VERTEX_POINT('',#34);
#34 = CARTESIAN_POINT('',(-32.24006579232,27.,30.15));
#35 = CIRCLE('',#36,0.65);
#36 = AXIS2_PLACEMENT_3D('',#37,#38,#39);
#37 = CARTESIAN_POINT('',(-32.24006579232,27.,29.5));
#38 = DIRECTION('',(1.,0.,-0.));
#39 = DIRECTION('',(0.,0.,1.));
#40 = ORIENTED_EDGE('',*,*,#41,.T.);
#41 = EDGE_CURVE('',#33,#42,#44,.T.);
#42 = VERTEX_POINT('',#43);
#43 = CARTESIAN_POINT('',(-32.35,27.,30.259934207679));
#44 = CIRCLE('',#45,1.);
#45 = AXIS2_PLACEMENT_3D('',#46,#47,#48);
#46 = CARTESIAN_POINT('',(-33.,27.,29.5));
#47 = DIRECTION('',(-2.449293598295E-16,-1.,0.));
#48 = DIRECTION('',(1.,-2.449293598295E-16,0.));
#49 = ORIENTED_EDGE('',*,*,#50,.T.);
#50 = EDGE_CURVE('',#42,#51,#53,.T.);
#51 = VERTEX_POINT('',#52);
#52 = CARTESIAN_POINT('',(-33.65,27.,30.259934207679));
#53 = CIRCLE('',#54,0.65);
#54 = AXIS2_PLACEMENT_3D('',#55,#56,#57);
#55 = CARTESIAN_POINT('',(-33.,27.,30.259934207679));
#56 = DIRECTION('',(0.,0.,-1.));
#57 = DIRECTION('',(0.,1.,0.));
#58 = ORIENTED_EDGE('',*,*,#59,.F.);
#59 = EDGE_CURVE('',#22,#51,#60,.T.);
#60 = CIRCLE('',#61,1.);
#61 = AXIS2_PLACEMENT_3D('',#62,#63,#64);
#62 = CARTESIAN_POINT('',(-33.,27.,29.5));
#63 = DIRECTION('',(0.,1.,0.));
#64 = DIRECTION('',(0.,0.,1.));
#65 = SPHERICAL_SURFACE('',#66,1.);
#66 = AXIS2_PLACEMENT_3D('',#67,#68,#69);
#67 = CARTESIAN_POINT('',(-33.,27.,29.5));
#68 = DIRECTION('',(0.,0.,1.));
#69 = DIRECTION('',(1.,0.,0.));
#70 = ADVANCED_FACE('',(#71),#211,.T.);
#71 = FACE_BOUND('',#72,.T.);
#72 = EDGE_LOOP('',(#73,#74,#75,#102,#110,#119,#128,#135,#136,#165,#166)
  );
#73 = ORIENTED_EDGE('',*,*,#21,.F.);
#74 = ORIENTED_EDGE('',*,*,#59,.T.);
#75 = ORIENTED_EDGE('',*,*,#76,.T.);
#76 = EDGE_CURVE('',#51,#77,#79,.T.);
#77 = VERTEX_POINT('',#78);
#78 = CARTESIAN_POINT('',(-33.,27.65,30.5));
#79 = B_SPLINE_CURVE_WITH_KNOTS('',6,(#80,#81,#82,#83,#84,#85,#86,#87,
    #88,#89,#90,#91,#92,#93,#94,#95,#96,#97,#98,#99,#100,#101),
  .UNSPECIFIED.,.F.,.F.,(7,5,5,5,7),(0.,0.213935361417,0.480443766714,
    0.732461674228,1.),.UNSPECIFIED.);
#80 = CARTESIAN_POINT('',(-33.65,27.,30.259934207679));
#81 = CARTESIAN_POINT('',(-33.65,27.037349934792,30.259934207679));
#82 = CARTESIAN_POINT('',(-33.64742458143,27.074599864035,
    30.262137026519));
#83 = CARTESIAN_POINT('',(-33.64229962119,27.111516947703,
    30.266520744552));
#84 = CARTESIAN_POINT('',(-33.63468123452,27.147859091199,
    30.272923341701));
#85 = CARTESIAN_POINT('',(-33.62466818772,27.183345082709,
    30.281042603258));
#86 = CARTESIAN_POINT('',(-33.59728735277,27.260394389499,
    30.302257438821));
#87 = CARTESIAN_POINT('',(-33.5786788658,27.301415132952,30.316115010406
    ));
#88 = CARTESIAN_POINT('',(-33.55686562979,27.340556475964,
    30.331459317968));
#89 = CARTESIAN_POINT('',(-33.53202618296,27.377627554417,
    30.347669650791));
#90 = CARTESIAN_POINT('',(-33.50435263013,27.412422284602,
    30.364184116003));
#91 = CARTESIAN_POINT('',(-33.44536083302,27.475299599315,30.39594310762
    ));
#92 = CARTESIAN_POINT('',(-33.41426707628,27.503703447328,
    30.411238048452));
#93 = CARTESIAN_POINT('',(-33.38090931626,27.529746172615,
    30.425961865619));
#94 = CARTESIAN_POINT('',(-33.3454582016,27.553227419802,30.439733306709
    ));
#95 = CARTESIAN_POINT('',(-33.30809826021,27.573948934989,
    30.452218957553));
#96 = CARTESIAN_POINT('',(-33.22755421881,27.610569282467,30.47471712402
    ));
#97 = CARTESIAN_POINT('',(-33.1841351544,27.626100660937,30.484535228571
    ));
#98 = CARTESIAN_POINT('',(-33.13918931615,27.637980107618,
    30.492186525802));
#99 = CARTESIAN_POINT('',(-33.09318789711,27.645986386277,30.4973915219)
  );
#100 = CARTESIAN_POINT('',(-33.0466272334,27.65,30.5));
#101 = CARTESIAN_POINT('',(-33.,27.65,30.5));
#102 = ORIENTED_EDGE('',*,*,#103,.T.);
#103 = EDGE_CURVE('',#77,#104,#106,.T.);
#104 = VERTEX_POINT('',#105);
#105 = CARTESIAN_POINT('',(-33.,34.,30.5));
#106 = LINE('',#107,#108);
#107 = CARTESIAN_POINT('',(-33.,27.,30.5));
#108 = VECTOR('',#109,1.);
#109 = DIRECTION('',(0.,1.,0.));
#110 = ORIENTED_EDGE('',*,*,#111,.F.);
#111 = EDGE_CURVE('',#112,#104,#114,.T.);
#112 = VERTEX_POINT('',#113);
#113 = CARTESIAN_POINT('',(-33.32599068331,34.,28.554627018374));
#114 = CIRCLE('',#115,1.);
#115 = AXIS2_PLACEMENT_3D('',#116,#117,#118);
#116 = CARTESIAN_POINT('',(-33.,34.,29.5));
#117 = DIRECTION('',(0.,1.,0.));
#118 = DIRECTION('',(0.,0.,1.));
#119 = ORIENTED_EDGE('',*,*,#120,.F.);
#120 = EDGE_CURVE('',#121,#112,#123,.T.);
#121 = VERTEX_POINT('',#122);
#122 = CARTESIAN_POINT('',(-32.67400931668,34.,30.445372981626));
#123 = ELLIPSE('',#124,1.210762875761,1.);
#124 = AXIS2_PLACEMENT_3D('',#125,#126,#127);
#125 = CARTESIAN_POINT('',(-33.,34.,29.5));
#126 = DIRECTION('',(0.532981616099,0.825925554887,-0.183786764172));
#127 = DIRECTION('',(-0.780807704425,0.563779192401,0.269244036009));
#128 = ORIENTED_EDGE('',*,*,#129,.F.);
#129 = EDGE_CURVE('',#104,#121,#130,.T.);
#130 = CIRCLE('',#131,1.);
#131 = AXIS2_PLACEMENT_3D('',#132,#133,#134);
#132 = CARTESIAN_POINT('',(-33.,34.,29.5));
#133 = DIRECTION('',(0.,1.,0.));
#134 = DIRECTION('',(0.,0.,1.));
#135 = ORIENTED_EDGE('',*,*,#103,.F.);
#136 = ORIENTED_EDGE('',*,*,#137,.T.);
#137 = EDGE_CURVE('',#77,#42,#138,.T.);
#138 = B_SPLINE_CURVE_WITH_KNOTS('',5,(#139,#140,#141,#142,#143,#144,
    #145,#146,#147,#148,#149,#150,#151,#152,#153,#154,#155,#156,#157,
    #158,#159,#160,#161,#162,#163,#164),.UNSPECIFIED.,.F.,.F.,(6,4,4,4,4
    ,4,6),(0.,0.269005692236,0.520484302207,0.725236338433,0.82089033732
    ,0.92375165217,1.),.UNSPECIFIED.);
#139 = CARTESIAN_POINT('',(-33.,27.65,30.5));
#140 = CARTESIAN_POINT('',(-32.94370752163,27.65,30.5));
#141 = CARTESIAN_POINT('',(-32.88751850442,27.64390623629,
    30.496039633457));
#142 = CARTESIAN_POINT('',(-32.83243466173,27.631762404086,
    30.488143876046));
#143 = CARTESIAN_POINT('',(-32.7794686825,27.613913610767,
    30.476761751584));
#144 = CARTESIAN_POINT('',(-32.68272351892,27.56963005516,
    30.449575244769));
#145 = CARTESIAN_POINT('',(-32.63854510304,27.543818853438,
    30.434099826136));
#146 = CARTESIAN_POINT('',(-32.59732726819,27.51398800164,
    30.416857172588));
#147 = CARTESIAN_POINT('',(-32.55942037462,27.480531003347,
    30.398558299708));
#148 = CARTESIAN_POINT('',(-32.49722623918,27.413992001258,
    30.364999688248));
#149 = CARTESIAN_POINT('',(-32.47167940044,27.38195496589,
    30.349786809124));
#150 = CARTESIAN_POINT('',(-32.44865312595,27.34792140739,
    30.334865212631));
#151 = CARTESIAN_POINT('',(-32.42830100519,27.312051737255,
    30.320749075542));
#152 = CARTESIAN_POINT('',(-32.40263402676,27.25695994467,
    30.302032546377));
#153 = CARTESIAN_POINT('',(-32.39508514504,27.239051121689,
    30.296369286561));
#154 = CARTESIAN_POINT('',(-32.38818461998,27.220805376637,
    30.291063866965));
#155 = CARTESIAN_POINT('',(-32.38195417999,27.202249933605,
    30.286174032577));
#156 = CARTESIAN_POINT('',(-32.37045391539,27.163149339974,
    30.277000533753));
#157 = CARTESIAN_POINT('',(-32.36529099836,27.142556038049,
    30.272789266613));
#158 = CARTESIAN_POINT('',(-32.36095783036,27.121689686553,
    30.269193902313));
#159 = CARTESIAN_POINT('',(-32.3574761169,27.100605871141,
    30.266273296284));
#160 = CARTESIAN_POINT('',(-32.35292432311,27.063600296286,
    30.262429996841));
#161 = CARTESIAN_POINT('',(-32.35146398858,27.047759777508,
    30.261186386464));
#162 = CARTESIAN_POINT('',(-32.35048802531,27.031859833207,
    30.260351676695));
#163 = CARTESIAN_POINT('',(-32.34999998529,27.015929517403,
    30.259934195101));
#164 = CARTESIAN_POINT('',(-32.35,26.9999994,30.259934207679));
#165 = ORIENTED_EDGE('',*,*,#41,.F.);
#166 = ORIENTED_EDGE('',*,*,#167,.F.);
#167 = EDGE_CURVE('',#24,#33,#168,.T.);
#168 = B_SPLINE_CURVE_WITH_KNOTS('',6,(#169,#170,#171,#172,#173,#174,
    #175,#176,#177,#178,#179,#180,#181,#182,#183,#184,#185,#186,#187,
    #188,#189,#190,#191,#192,#193,#194,#195,#196,#197,#198,#199,#200,
    #201,#202,#203,#204,#205,#206,#207,#208,#209,#210),.UNSPECIFIED.,.F.
  ,.F.,(7,5,5,5,5,5,5,5,7),(0.,0.101925597136,0.240212155301,
    0.364335758698,0.499991835438,0.634562673229,0.760382343197,
    0.893920932508,1.),.UNSPECIFIED.);
#169 = CARTESIAN_POINT('',(-32.24006579232,26.9999994,28.85));
#170 = CARTESIAN_POINT('',(-32.24006582041,27.035584035638,
    28.849999967153));
#171 = CARTESIAN_POINT('',(-32.23806632917,27.071088147965,
    28.852337658074));
#172 = CARTESIAN_POINT('',(-32.23408414872,27.106303983544,
    28.856993220182));
#173 = CARTESIAN_POINT('',(-32.22825384881,27.141016529181,
    28.863919060765));
#174 = CARTESIAN_POINT('',(-32.22082816934,27.174979500075,
    28.873030772947));
#175 = CARTESIAN_POINT('',(-32.20034576069,27.252595263939,
    28.899234082254));
#176 = CARTESIAN_POINT('',(-32.1862047439,27.29546021604,28.918039058521
    ));
#177 = CARTESIAN_POINT('',(-32.17038328408,27.336330559658,
    28.940320923457));
#178 = CARTESIAN_POINT('',(-32.1535811379,27.374989710188,28.96588148394
    ));
#179 = CARTESIAN_POINT('',(-32.13643227433,27.411201938269,
    28.994502435109));
#180 = CARTESIAN_POINT('',(-32.10428789511,27.474842253814,
    29.05421008324));
#181 = CARTESIAN_POINT('',(-32.08922162207,27.502849232251,
    29.084799450321));
#182 = CARTESIAN_POINT('',(-32.07470385947,27.528567620165,29.1175853932
    ));
#183 = CARTESIAN_POINT('',(-32.06109851871,27.551807812607,
    29.152406778299));
#184 = CARTESIAN_POINT('',(-32.04872487049,27.572381148986,
    29.189090044566));
#185 = CARTESIAN_POINT('',(-32.02598366088,27.609460181087,
    29.269369115715));
#186 = CARTESIAN_POINT('',(-32.01590152357,27.625422473249,
    29.313317459421));
#187 = CARTESIAN_POINT('',(-32.00803612524,27.637637656471,
    29.358855163465));
#188 = CARTESIAN_POINT('',(-32.00268283816,27.645871965479,
    29.405492968705));
#189 = CARTESIAN_POINT('',(-32.,27.65,29.452714352101));
#190 = CARTESIAN_POINT('',(-32.,27.65,29.546907366085));
#191 = CARTESIAN_POINT('',(-32.00263991547,27.645938012627,
    29.593749742349));
#192 = CARTESIAN_POINT('',(-32.00790807669,27.637834601134,
    29.640024206668));
#193 = CARTESIAN_POINT('',(-32.01565066895,27.62581200863,
    29.685224006627));
#194 = CARTESIAN_POINT('',(-32.0255810802,27.61009741907,29.728868454948
    ));
#195 = CARTESIAN_POINT('',(-32.04823603274,27.573195221311,
    29.809487752782));
#196 = CARTESIAN_POINT('',(-32.06074218763,27.552421746354,
    29.846729830899));
#197 = CARTESIAN_POINT('',(-32.07452133851,27.528903618336,
    29.882063035288));
#198 = CARTESIAN_POINT('',(-32.08924150487,27.502837322916,
    29.915306159967));
#199 = CARTESIAN_POINT('',(-32.10452353186,27.474420440699,
    29.94629118024));
#200 = CARTESIAN_POINT('',(-32.13630126788,27.41141250469,30.0051848213)
  );
#201 = CARTESIAN_POINT('',(-32.15284675891,27.376485102434,
    30.032848369736));
#202 = CARTESIAN_POINT('',(-32.16907611239,27.339274922187,
    30.057662053839));
#203 = CARTESIAN_POINT('',(-32.18442219561,27.29999036085,
    30.079431792726));
#204 = CARTESIAN_POINT('',(-32.19825935293,27.258824157746,
    30.097977862005));
#205 = CARTESIAN_POINT('',(-32.21929364237,27.181869028388,
    30.125082617191));
#206 = CARTESIAN_POINT('',(-32.22728861249,27.146650820281,
    30.134933428489));
#207 = CARTESIAN_POINT('',(-32.23358828945,27.110595899925,
    30.142427087849));
#208 = CARTESIAN_POINT('',(-32.23789964643,27.073979125291,
    30.147467459146));
#209 = CARTESIAN_POINT('',(-32.24006579232,27.037037713283,30.15));
#210 = CARTESIAN_POINT('',(-32.24006579232,27.,30.15));
#211 = CYLINDRICAL_SURFACE('',#212,1.);
#212 = AXIS2_PLACEMENT_3D('',#213,#214,#215);
#213 = CARTESIAN_POINT('',(-33.,27.,29.5));
#214 = DIRECTION('',(0.,1.,0.));
#215 = DIRECTION('',(0.,0.,1.));
#216 = ADVANCED_FACE('',(#217),#314,.F.);
#217 = FACE_BOUND('',#218,.F.);
#218 = EDGE_LOOP('',(#219,#220,#228,#237,#246,#255,#282,#304,#311,#312,
    #313));
#219 = ORIENTED_EDGE('',*,*,#50,.T.);
#220 = ORIENTED_EDGE('',*,*,#221,.T.);
#221 = EDGE_CURVE('',#51,#222,#224,.T.);
#222 = VERTEX_POINT('',#223);
#223 = CARTESIAN_POINT('',(-33.65,27.,29.5));
#224 = LINE('',#225,#226);
#225 = CARTESIAN_POINT('',(-33.65,27.,50.2));
#226 = VECTOR('',#227,1.);
#227 = DIRECTION('',(0.,0.,-1.));
#228 = ORIENTED_EDGE('',*,*,#229,.F.);
#229 = EDGE_CURVE('',#230,#222,#232,.T.);
#230 = VERTEX_POINT('',#231);
#231 = CARTESIAN_POINT('',(-33.,26.35,29.5));
#232 = CIRCLE('',#233,0.65);
#233 = AXIS2_PLACEMENT_3D('',#234,#235,#236);
#234 = CARTESIAN_POINT('',(-33.,27.,29.5));
#235 = DIRECTION('',(0.,0.,-1.));
#236 = DIRECTION('',(-1.,0.,0.));
#237 = ORIENTED_EDGE('',*,*,#238,.F.);
#238 = EDGE_CURVE('',#239,#230,#241,.T.);
#239 = VERTEX_POINT('',#240);
#240 = CARTESIAN_POINT('',(-32.35,27.,30.15));
#241 = ELLIPSE('',#242,0.919238815543,0.65);
#242 = AXIS2_PLACEMENT_3D('',#243,#244,#245);
#243 = CARTESIAN_POINT('',(-33.,27.,29.5));
#244 = DIRECTION('',(0.707106781187,0.,-0.707106781187));
#245 = DIRECTION('',(-0.707106781187,0.,-0.707106781187));
#246 = ORIENTED_EDGE('',*,*,#247,.F.);
#247 = EDGE_CURVE('',#248,#239,#250,.T.);
#248 = VERTEX_POINT('',#249);
#249 = CARTESIAN_POINT('',(-32.77019029611,27.608019325351,
    29.729809703886));
#250 = ELLIPSE('',#251,0.919238815543,0.65);
#251 = AXIS2_PLACEMENT_3D('',#252,#253,#254);
#252 = CARTESIAN_POINT('',(-33.,27.,29.5));
#253 = DIRECTION('',(0.707106781187,0.,-0.707106781187));
#254 = DIRECTION('',(-0.707106781187,0.,-0.707106781187));
#255 = ORIENTED_EDGE('',*,*,#256,.F.);
#256 = EDGE_CURVE('',#257,#248,#259,.T.);
#257 = VERTEX_POINT('',#258);
#258 = CARTESIAN_POINT('',(-33.,27.65,29.825));
#259 = B_SPLINE_CURVE_WITH_KNOTS('',6,(#260,#261,#262,#263,#264,#265,
    #266,#267,#268,#269,#270,#271,#272,#273,#274,#275,#276,#277,#278,
    #279,#280,#281),.UNSPECIFIED.,.F.,.F.,(7,5,5,5,7),(0.,0.32986498603,
    0.720092949051,0.937233008643,1.),.UNSPECIFIED.);
#260 = CARTESIAN_POINT('',(-33.,27.65,29.825));
#261 = CARTESIAN_POINT('',(-32.97252867815,27.65,29.825));
#262 = CARTESIAN_POINT('',(-32.94507200897,27.64860701739,
    29.822213652507));
#263 = CARTESIAN_POINT('',(-32.91795990741,27.645822694242,
    29.816645859248));
#264 = CARTESIAN_POINT('',(-32.891527705,27.641740860132,29.808347519905
    ));
#265 = CARTESIAN_POINT('',(-32.86610469356,27.636544917778,
    29.79741844811));
#266 = CARTESIAN_POINT('',(-32.81349014301,27.623360318851,
    29.768148527518));
#267 = CARTESIAN_POINT('',(-32.78679179227,27.615025563717,
    29.748798207758));
#268 = CARTESIAN_POINT('',(-32.7624082771,27.605935180765,
    29.726179397505));
#269 = CARTESIAN_POINT('',(-32.74083028154,27.596684215114,
    29.70060501466));
#270 = CARTESIAN_POINT('',(-32.72247289165,27.588006162518,
    29.672454619183));
#271 = CARTESIAN_POINT('',(-32.69952187199,27.576452324226,
    29.625259372494));
#272 = CARTESIAN_POINT('',(-32.69243296268,27.572709045711,
    29.607710069299));
#273 = CARTESIAN_POINT('',(-32.6865535712,27.569484404301,
    29.589604713062));
#274 = CARTESIAN_POINT('',(-32.6819463106,27.566891480009,
    29.571067460113));
#275 = CARTESIAN_POINT('',(-32.67865185249,27.565013665932,
    29.552219847496));
#276 = CARTESIAN_POINT('',(-32.67613267823,27.563569323072,
    29.527669210859));
#277 = CARTESIAN_POINT('',(-32.67567998218,27.563308870067,
    29.522149604157));
#278 = CARTESIAN_POINT('',(-32.67534007497,27.563112855328,
    29.516619207853));
#279 = CARTESIAN_POINT('',(-32.67511334403,27.562981953156,
    29.511081585428));
#280 = CARTESIAN_POINT('',(-32.67499998465,27.562916503601,
    29.505540337136));
#281 = CARTESIAN_POINT('',(-32.675,27.562916512461,29.4999991));
#282 = ORIENTED_EDGE('',*,*,#283,.F.);
#283 = EDGE_CURVE('',#284,#257,#286,.T.);
#284 = VERTEX_POINT('',#285);
#285 = CARTESIAN_POINT('',(-33.325,27.56291651246,29.5));
#286 = B_SPLINE_CURVE_WITH_KNOTS('',6,(#287,#288,#289,#290,#291,#292,
    #293,#294,#295,#296,#297,#298,#299,#300,#301,#302,#303),
  .UNSPECIFIED.,.F.,.F.,(7,5,5,7),(0.,0.281466335815,0.672523958168,1.),
  .UNSPECIFIED.);
#287 = CARTESIAN_POINT('',(-33.32499999999,27.562916512461,29.4999991));
#288 = CARTESIAN_POINT('',(-33.32500006888,27.56291647269,
    29.524874100967));
#289 = CARTESIAN_POINT('',(-33.32271542327,27.564235473911,
    29.549690702114));
#290 = CARTESIAN_POINT('',(-33.31816647549,27.566861993535,
    29.574180310296));
#291 = CARTESIAN_POINT('',(-33.31141611919,27.570666170166,
    29.598073385535));
#292 = CARTESIAN_POINT('',(-33.30258203452,27.575401829337,
    29.621079069765));
#293 = CARTESIAN_POINT('',(-33.27703881652,27.588239597816,
    29.673249435426));
#294 = CARTESIAN_POINT('',(-33.25856713426,27.596952355323,
    29.701396942631));
#295 = CARTESIAN_POINT('',(-33.23687053684,27.606226193599,
    29.726950231178));
#296 = CARTESIAN_POINT('',(-33.21236742822,27.615324383996,
    29.749528876555));
#297 = CARTESIAN_POINT('',(-33.1855514688,27.623651193052,
    29.768820054073));
#298 = CARTESIAN_POINT('',(-33.13295397101,27.636736559798,
    29.797821395654));
#299 = CARTESIAN_POINT('',(-33.10768967651,27.641861264068,
    29.808592253435));
#300 = CARTESIAN_POINT('',(-33.08143805701,27.645884305488,
    29.816769060747));
#301 = CARTESIAN_POINT('',(-33.05452137252,27.648627578825,
    29.822254795177));
#302 = CARTESIAN_POINT('',(-33.0272677277,27.65,29.825));
#303 = CARTESIAN_POINT('',(-33.,27.65,29.825));
#304 = ORIENTED_EDGE('',*,*,#305,.F.);
#305 = EDGE_CURVE('',#222,#284,#306,.T.);
#306 = CIRCLE('',#307,0.65);
#307 = AXIS2_PLACEMENT_3D('',#308,#309,#310);
#308 = CARTESIAN_POINT('',(-33.,27.,29.5));
#309 = DIRECTION('',(0.,0.,-1.));
#310 = DIRECTION('',(-1.,0.,0.));
#311 = ORIENTED_EDGE('',*,*,#221,.F.);
#312 = ORIENTED_EDGE('',*,*,#76,.T.);
#313 = ORIENTED_EDGE('',*,*,#137,.T.);
#314 = CYLINDRICAL_SURFACE('',#315,0.65);
#315 = AXIS2_PLACEMENT_3D('',#316,#317,#318);
#316 = CARTESIAN_POINT('',(-33.,27.,50.2));
#317 = DIRECTION('',(0.,0.,-1.));
#318 = DIRECTION('',(-1.,0.,0.));
#319 = ADVANCED_FACE('',(#320),#391,.F.);
#320 = FACE_BOUND('',#321,.F.);
#321 = EDGE_LOOP('',(#322,#331,#340,#380,#381,#387,#388,#389,#390));
#322 = ORIENTED_EDGE('',*,*,#323,.T.);
#323 = EDGE_CURVE('',#230,#324,#326,.T.);
#324 = VERTEX_POINT('',#325);
#325 = CARTESIAN_POINT('',(-33.,27.,28.85));
#326 = CIRCLE('',#327,0.65);
#327 = AXIS2_PLACEMENT_3D('',#328,#329,#330);
#328 = CARTESIAN_POINT('',(-33.,27.,29.5));
#329 = DIRECTION('',(1.,0.,-0.));
#330 = DIRECTION('',(0.,0.,1.));
#331 = ORIENTED_EDGE('',*,*,#332,.T.);
#332 = EDGE_CURVE('',#324,#333,#335,.T.);
#333 = VERTEX_POINT('',#334);
#334 = CARTESIAN_POINT('',(-33.,27.56291651246,29.175));
#335 = CIRCLE('',#336,0.65);
#336 = AXIS2_PLACEMENT_3D('',#337,#338,#339);
#337 = CARTESIAN_POINT('',(-33.,27.,29.5));
#338 = DIRECTION('',(1.,0.,-0.));
#339 = DIRECTION('',(0.,0.,1.));
#340 = ORIENTED_EDGE('',*,*,#341,.F.);
#341 = EDGE_CURVE('',#248,#333,#342,.T.);
#342 = B_SPLINE_CURVE_WITH_KNOTS('',6,(#343,#344,#345,#346,#347,#348,
    #349,#350,#351,#352,#353,#354,#355,#356,#357,#358,#359,#360,#361,
    #362,#363,#364,#365,#366,#367,#368,#369,#370,#371,#372,#373,#374,
    #375,#376,#377,#378,#379),.UNSPECIFIED.,.F.,.F.,(7,5,5,5,5,5,5,7),(
    0.,0.140724623564,0.334570770867,0.499960149717,0.664908794121,
    0.8600327091,0.968613417531,1.),.UNSPECIFIED.);
#343 = CARTESIAN_POINT('',(-33.,27.56291651246,29.825));
#344 = CARTESIAN_POINT('',(-32.97512514955,27.56291651246,29.825));
#345 = CARTESIAN_POINT('',(-32.95030870583,27.564235537395,
    29.822715313315));
#346 = CARTESIAN_POINT('',(-32.92581925667,27.566862062524,
    29.818166353092));
#347 = CARTESIAN_POINT('',(-32.90192633693,27.570666227326,
    29.811416012543));
#348 = CARTESIAN_POINT('',(-32.8789207989,27.575401861654,
    29.802581970228));
#349 = CARTESIAN_POINT('',(-32.82700998132,27.588175762109,
    29.777165829986));
#350 = CARTESIAN_POINT('',(-32.79908248461,27.596803945016,
    29.758881749529));
#351 = CARTESIAN_POINT('',(-32.77370090101,27.605990137395,
    29.737422765302));
#352 = CARTESIAN_POINT('',(-32.7512378635,27.615015874259,
    29.713197018083));
#353 = CARTESIAN_POINT('',(-32.7320006019,27.62329747118,29.686686611198
    ));
#354 = CARTESIAN_POINT('',(-32.70272802895,27.636475299414,
    29.634235372257));
#355 = CARTESIAN_POINT('',(-32.69174138733,27.641697141856,29.6087552038
    ));
#356 = CARTESIAN_POINT('',(-32.68339871772,27.645800397267,
    29.58225736787));
#357 = CARTESIAN_POINT('',(-32.67780112087,27.64859961928,
    29.555074136341));
#358 = CARTESIAN_POINT('',(-32.675,27.65,29.52754400764));
#359 = CARTESIAN_POINT('',(-32.675,27.65,29.472529392436));
#360 = CARTESIAN_POINT('',(-32.67778621202,27.648607070205,
    29.445072473206));
#361 = CARTESIAN_POINT('',(-32.68335407101,27.64582272636,
    29.417959695934));
#362 = CARTESIAN_POINT('',(-32.69165269079,27.641740774369,
    29.391526942133));
#363 = CARTESIAN_POINT('',(-32.70258197242,27.636544728348,
    29.366103937621));
#364 = CARTESIAN_POINT('',(-32.73185022932,27.623360878828,
    29.31349237766));
#365 = CARTESIAN_POINT('',(-32.75120010035,27.615026256204,
    29.286793526624));
#366 = CARTESIAN_POINT('',(-32.77381985585,27.605935389201,
    29.262408460048));
#367 = CARTESIAN_POINT('',(-32.79939571761,27.596683857958,
    29.240829478402));
#368 = CARTESIAN_POINT('',(-32.82754681935,27.58800581035,
    29.222472192089));
#369 = CARTESIAN_POINT('',(-32.8747406275,27.576452324226,
    29.199521871991));
#370 = CARTESIAN_POINT('',(-32.8922899307,27.572709045711,
    29.192432962687));
#371 = CARTESIAN_POINT('',(-32.91039528693,27.569484404301,29.1865535712
    ));
#372 = CARTESIAN_POINT('',(-32.92893253988,27.566891480009,
    29.181946310606));
#373 = CARTESIAN_POINT('',(-32.9477801525,27.565013665932,29.17865185249
    ));
#374 = CARTESIAN_POINT('',(-32.97233078914,27.563569323072,
    29.17613267823));
#375 = CARTESIAN_POINT('',(-32.97785039584,27.563308870067,
    29.175679982181));
#376 = CARTESIAN_POINT('',(-32.98338079214,27.563112855328,
    29.175340074977));
#377 = CARTESIAN_POINT('',(-32.98891841457,27.562981953156,
    29.175113344037));
#378 = CARTESIAN_POINT('',(-32.99445966286,27.562916503601,
    29.174999984656));
#379 = CARTESIAN_POINT('',(-33.0000009,27.562916512461,29.175000000001)
  );
#380 = ORIENTED_EDGE('',*,*,#247,.T.);
#381 = ORIENTED_EDGE('',*,*,#382,.T.);
#382 = EDGE_CURVE('',#239,#33,#383,.T.);
#383 = LINE('',#384,#385);
#384 = CARTESIAN_POINT('',(-33.,27.,30.15));
#385 = VECTOR('',#386,1.);
#386 = DIRECTION('',(1.,0.,0.));
#387 = ORIENTED_EDGE('',*,*,#167,.F.);
#388 = ORIENTED_EDGE('',*,*,#32,.F.);
#389 = ORIENTED_EDGE('',*,*,#382,.F.);
#390 = ORIENTED_EDGE('',*,*,#238,.T.);
#391 = CYLINDRICAL_SURFACE('',#392,0.65);
#392 = AXIS2_PLACEMENT_3D('',#393,#394,#395);
#393 = CARTESIAN_POINT('',(-33.,27.,29.5));
#394 = DIRECTION('',(1.,0.,0.));
#395 = DIRECTION('',(0.,0.,1.));
#396 = ADVANCED_FACE('',(#397),#417,.T.);
#397 = FACE_BOUND('',#398,.T.);
#398 = EDGE_LOOP('',(#399,#400,#409,#416));
#399 = ORIENTED_EDGE('',*,*,#129,.T.);
#400 = ORIENTED_EDGE('',*,*,#401,.F.);
#401 = EDGE_CURVE('',#402,#121,#404,.T.);
#402 = VERTEX_POINT('',#403);
#403 = CARTESIAN_POINT('',(-33.38235179272,34.924016832422,29.5));
#404 = CIRCLE('',#405,1.);
#405 = AXIS2_PLACEMENT_3D('',#406,#407,#408);
#406 = CARTESIAN_POINT('',(-33.,34.,29.5));
#407 = DIRECTION('',(0.880406274042,0.364306044431,-0.303588370359));
#408 = DIRECTION('',(-0.382351792726,0.924016832422,-2.775557561563E-17)
  );
#409 = ORIENTED_EDGE('',*,*,#410,.F.);
#410 = EDGE_CURVE('',#112,#402,#411,.T.);
#411 = CIRCLE('',#412,1.);
#412 = AXIS2_PLACEMENT_3D('',#413,#414,#415);
#413 = CARTESIAN_POINT('',(-33.,34.,29.5));
#414 = DIRECTION('',(0.880406274042,0.364306044431,-0.303588370359));
#415 = DIRECTION('',(-0.382351792726,0.924016832422,-2.775557561563E-17)
  );
#416 = ORIENTED_EDGE('',*,*,#111,.T.);
#417 = SPHERICAL_SURFACE('',#418,1.);
#418 = AXIS2_PLACEMENT_3D('',#419,#420,#421);
#419 = CARTESIAN_POINT('',(-33.,34.,29.5));
#420 = DIRECTION('',(0.,0.,1.));
#421 = DIRECTION('',(1.,0.,0.));
#422 = ADVANCED_FACE('',(#423),#453,.T.);
#423 = FACE_BOUND('',#424,.T.);
#424 = EDGE_LOOP('',(#425,#426,#434,#443,#450,#451,#452));
#425 = ORIENTED_EDGE('',*,*,#410,.T.);
#426 = ORIENTED_EDGE('',*,*,#427,.T.);
#427 = EDGE_CURVE('',#402,#428,#430,.T.);
#428 = VERTEX_POINT('',#429);
#429 = CARTESIAN_POINT('',(-26.13235179272,37.924016832422,27.));
#430 = LINE('',#431,#432);
#431 = CARTESIAN_POINT('',(-33.38235179272,34.924016832422,29.5));
#432 = VECTOR('',#433,1.);
#433 = DIRECTION('',(0.880406274042,0.364306044431,-0.303588370359));
#434 = ORIENTED_EDGE('',*,*,#435,.F.);
#435 = EDGE_CURVE('',#436,#428,#438,.T.);
#436 = VERTEX_POINT('',#437);
#437 = CARTESIAN_POINT('',(-25.42400931668,37.,27.945372981626));
#438 = CIRCLE('',#439,1.);
#439 = AXIS2_PLACEMENT_3D('',#440,#441,#442);
#440 = CARTESIAN_POINT('',(-25.75,37.,27.));
#441 = DIRECTION('',(0.880406274042,0.364306044431,-0.303588370359));
#442 = DIRECTION('',(-0.382351792726,0.924016832422,-2.775557561563E-17)
  );
#443 = ORIENTED_EDGE('',*,*,#444,.F.);
#444 = EDGE_CURVE('',#428,#436,#445,.T.);
#445 = CIRCLE('',#446,1.);
#446 = AXIS2_PLACEMENT_3D('',#447,#448,#449);
#447 = CARTESIAN_POINT('',(-25.75,37.,27.));
#448 = DIRECTION('',(0.880406274042,0.364306044431,-0.303588370359));
#449 = DIRECTION('',(-0.382351792726,0.924016832422,-2.775557561563E-17)
  );
#450 = ORIENTED_EDGE('',*,*,#427,.F.);
#451 = ORIENTED_EDGE('',*,*,#401,.T.);
#452 = ORIENTED_EDGE('',*,*,#120,.T.);
#453 = CYLINDRICAL_SURFACE('',#454,1.);
#454 = AXIS2_PLACEMENT_3D('',#455,#456,#457);
#455 = CARTESIAN_POINT('',(-33.,34.,29.5));
#456 = DIRECTION('',(0.880406274042,0.364306044431,-0.303588370359));
#457 = DIRECTION('',(-0.382351792726,0.924016832422,-1.387778780781E-17)
  );
#458 = ADVANCED_FACE('',(#459),#472,.F.);
#459 = FACE_BOUND('',#460,.F.);
#460 = EDGE_LOOP('',(#461,#462,#463,#464,#471));
#461 = ORIENTED_EDGE('',*,*,#323,.F.);
#462 = ORIENTED_EDGE('',*,*,#229,.T.);
#463 = ORIENTED_EDGE('',*,*,#305,.T.);
#464 = ORIENTED_EDGE('',*,*,#465,.F.);
#465 = EDGE_CURVE('',#333,#284,#466,.T.);
#466 = CIRCLE('',#467,0.325);
#467 = AXIS2_PLACEMENT_3D('',#468,#469,#470);
#468 = CARTESIAN_POINT('',(-33.,27.56291651246,29.5));
#469 = DIRECTION('',(0.,1.,0.));
#470 = DIRECTION('',(0.,0.,1.));
#471 = ORIENTED_EDGE('',*,*,#332,.F.);
#472 = SPHERICAL_SURFACE('',#473,0.65);
#473 = AXIS2_PLACEMENT_3D('',#474,#475,#476);
#474 = CARTESIAN_POINT('',(-33.,27.,29.5));
#475 = DIRECTION('',(0.,0.,1.));
#476 = DIRECTION('',(1.,0.,0.));
#477 = ADVANCED_FACE('',(#478),#518,.F.);
#478 = FACE_BOUND('',#479,.F.);
#479 = EDGE_LOOP('',(#480,#481,#489,#498,#507,#514,#515,#516,#517));
#480 = ORIENTED_EDGE('',*,*,#283,.T.);
#481 = ORIENTED_EDGE('',*,*,#482,.T.);
#482 = EDGE_CURVE('',#257,#483,#485,.T.);
#483 = VERTEX_POINT('',#484);
#484 = CARTESIAN_POINT('',(-33.,34.,29.825));
#485 = LINE('',#486,#487);
#486 = CARTESIAN_POINT('',(-33.,27.,29.825));
#487 = VECTOR('',#488,1.);
#488 = DIRECTION('',(0.,1.,0.));
#489 = ORIENTED_EDGE('',*,*,#490,.F.);
#490 = EDGE_CURVE('',#491,#483,#493,.T.);
#491 = VERTEX_POINT('',#492);
#492 = CARTESIAN_POINT('',(-33.10594697207,34.,29.192753780971));
#493 = CIRCLE('',#494,0.325);
#494 = AXIS2_PLACEMENT_3D('',#495,#496,#497);
#495 = CARTESIAN_POINT('',(-33.,34.,29.5));
#496 = DIRECTION('',(0.,1.,0.));
#497 = DIRECTION('',(0.,0.,1.));
#498 = ORIENTED_EDGE('',*,*,#499,.F.);
#499 = EDGE_CURVE('',#500,#491,#502,.T.);
#500 = VERTEX_POINT('',#501);
#501 = CARTESIAN_POINT('',(-32.89405302792,34.,29.807246219029));
#502 = ELLIPSE('',#503,0.393497934622,0.325);
#503 = AXIS2_PLACEMENT_3D('',#504,#505,#506);
#504 = CARTESIAN_POINT('',(-33.,34.,29.5));
#505 = DIRECTION('',(0.532981616099,0.825925554887,-0.183786764172));
#506 = DIRECTION('',(-0.780807704425,0.563779192401,0.269244036009));
#507 = ORIENTED_EDGE('',*,*,#508,.F.);
#508 = EDGE_CURVE('',#483,#500,#509,.T.);
#509 = CIRCLE('',#510,0.325);
#510 = AXIS2_PLACEMENT_3D('',#511,#512,#513);
#511 = CARTESIAN_POINT('',(-33.,34.,29.5));
#512 = DIRECTION('',(0.,1.,0.));
#513 = DIRECTION('',(0.,0.,1.));
#514 = ORIENTED_EDGE('',*,*,#482,.F.);
#515 = ORIENTED_EDGE('',*,*,#256,.T.);
#516 = ORIENTED_EDGE('',*,*,#341,.T.);
#517 = ORIENTED_EDGE('',*,*,#465,.T.);
#518 = CYLINDRICAL_SURFACE('',#519,0.325);
#519 = AXIS2_PLACEMENT_3D('',#520,#521,#522);
#520 = CARTESIAN_POINT('',(-33.,27.,29.5));
#521 = DIRECTION('',(0.,1.,0.));
#522 = DIRECTION('',(0.,0.,1.));
#523 = ADVANCED_FACE('',(#524),#564,.T.);
#524 = FACE_BOUND('',#525,.T.);
#525 = EDGE_LOOP('',(#526,#527,#528,#537,#546,#555,#556,#563));
#526 = ORIENTED_EDGE('',*,*,#435,.T.);
#527 = ORIENTED_EDGE('',*,*,#444,.T.);
#528 = ORIENTED_EDGE('',*,*,#529,.F.);
#529 = EDGE_CURVE('',#530,#436,#532,.T.);
#530 = VERTEX_POINT('',#531);
#531 = CARTESIAN_POINT('',(-24.80428598403,37.,27.325));
#532 = CIRCLE('',#533,1.);
#533 = AXIS2_PLACEMENT_3D('',#534,#535,#536);
#534 = CARTESIAN_POINT('',(-25.75,37.,27.));
#535 = DIRECTION('',(-2.449293598295E-16,-1.,0.));
#536 = DIRECTION('',(1.,-2.449293598295E-16,0.));
#537 = ORIENTED_EDGE('',*,*,#538,.F.);
#538 = EDGE_CURVE('',#539,#530,#541,.T.);
#539 = VERTEX_POINT('',#540);
#540 = CARTESIAN_POINT('',(-24.80428598403,37.,26.675));
#541 = CIRCLE('',#542,0.325);
#542 = AXIS2_PLACEMENT_3D('',#543,#544,#545);
#543 = CARTESIAN_POINT('',(-24.80428598403,37.,27.));
#544 = DIRECTION('',(1.,0.,-0.));
#545 = DIRECTION('',(0.,0.,1.));
#546 = ORIENTED_EDGE('',*,*,#547,.F.);
#547 = EDGE_CURVE('',#548,#539,#550,.T.);
#548 = VERTEX_POINT('',#549);
#549 = CARTESIAN_POINT('',(-25.75,37.,26.));
#550 = CIRCLE('',#551,1.);
#551 = AXIS2_PLACEMENT_3D('',#552,#553,#554);
#552 = CARTESIAN_POINT('',(-25.75,37.,27.));
#553 = DIRECTION('',(-2.449293598295E-16,-1.,0.));
#554 = DIRECTION('',(1.,-2.449293598295E-16,0.));
#555 = ORIENTED_EDGE('',*,*,#547,.T.);
#556 = ORIENTED_EDGE('',*,*,#557,.F.);
#557 = EDGE_CURVE('',#530,#539,#558,.T.);
#558 = CIRCLE('',#559,0.325);
#559 = AXIS2_PLACEMENT_3D('',#560,#561,#562);
#560 = CARTESIAN_POINT('',(-24.80428598403,37.,27.));
#561 = DIRECTION('',(1.,0.,-0.));
#562 = DIRECTION('',(0.,0.,1.));
#563 = ORIENTED_EDGE('',*,*,#529,.T.);
#564 = SPHERICAL_SURFACE('',#565,1.);
#565 = AXIS2_PLACEMENT_3D('',#566,#567,#568);
#566 = CARTESIAN_POINT('',(-25.75,37.,27.));
#567 = DIRECTION('',(0.,0.,1.));
#568 = DIRECTION('',(1.,0.,0.));
#569 = ADVANCED_FACE('',(#570),#590,.F.);
#570 = FACE_BOUND('',#571,.F.);
#571 = EDGE_LOOP('',(#572,#573,#582,#589));
#572 = ORIENTED_EDGE('',*,*,#508,.T.);
#573 = ORIENTED_EDGE('',*,*,#574,.F.);
#574 = EDGE_CURVE('',#575,#500,#577,.T.);
#575 = VERTEX_POINT('',#576);
#576 = CARTESIAN_POINT('',(-33.12426433263,34.300305470537,29.5));
#577 = CIRCLE('',#578,0.325);
#578 = AXIS2_PLACEMENT_3D('',#579,#580,#581);
#579 = CARTESIAN_POINT('',(-33.,34.,29.5));
#580 = DIRECTION('',(0.880406274042,0.364306044431,-0.303588370359));
#581 = DIRECTION('',(-0.382351792726,0.924016832422,-2.775557561563E-17)
  );
#582 = ORIENTED_EDGE('',*,*,#583,.F.);
#583 = EDGE_CURVE('',#491,#575,#584,.T.);
#584 = CIRCLE('',#585,0.325);
#585 = AXIS2_PLACEMENT_3D('',#586,#587,#588);
#586 = CARTESIAN_POINT('',(-33.,34.,29.5));
#587 = DIRECTION('',(0.880406274042,0.364306044431,-0.303588370359));
#588 = DIRECTION('',(-0.382351792726,0.924016832422,-2.775557561563E-17)
  );
#589 = ORIENTED_EDGE('',*,*,#490,.T.);
#590 = SPHERICAL_SURFACE('',#591,0.325);
#591 = AXIS2_PLACEMENT_3D('',#592,#593,#594);
#592 = CARTESIAN_POINT('',(-33.,34.,29.5));
#593 = DIRECTION('',(0.,0.,1.));
#594 = DIRECTION('',(1.,0.,0.));
#595 = ADVANCED_FACE('',(#596),#644,.F.);
#596 = FACE_BOUND('',#597,.F.);
#597 = EDGE_LOOP('',(#598,#599,#600,#608,#617,#626,#635,#642,#643));
#598 = ORIENTED_EDGE('',*,*,#499,.T.);
#599 = ORIENTED_EDGE('',*,*,#583,.T.);
#600 = ORIENTED_EDGE('',*,*,#601,.T.);
#601 = EDGE_CURVE('',#575,#602,#604,.T.);
#602 = VERTEX_POINT('',#603);
#603 = CARTESIAN_POINT('',(-25.87426433263,37.300305470537,27.));
#604 = LINE('',#605,#606);
#605 = CARTESIAN_POINT('',(-33.12426433263,34.300305470537,29.5));
#606 = VECTOR('',#607,1.);
#607 = DIRECTION('',(0.880406274042,0.364306044431,-0.303588370359));
#608 = ORIENTED_EDGE('',*,*,#609,.F.);
#609 = EDGE_CURVE('',#610,#602,#612,.T.);
#610 = VERTEX_POINT('',#611);
#611 = CARTESIAN_POINT('',(-25.75,36.791940070109,26.750328084131));
#612 = CIRCLE('',#613,0.325);
#613 = AXIS2_PLACEMENT_3D('',#614,#615,#616);
#614 = CARTESIAN_POINT('',(-25.75,37.,27.));
#615 = DIRECTION('',(0.880406274042,0.364306044431,-0.303588370359));
#616 = DIRECTION('',(-0.382351792726,0.924016832422,-2.775557561563E-17)
  );
#617 = ORIENTED_EDGE('',*,*,#618,.F.);
#618 = EDGE_CURVE('',#619,#610,#621,.T.);
#619 = VERTEX_POINT('',#620);
#620 = CARTESIAN_POINT('',(-25.69752930697,37.,27.325));
#621 = ELLIPSE('',#622,0.335175690718,0.325);
#622 = AXIS2_PLACEMENT_3D('',#623,#624,#625);
#623 = CARTESIAN_POINT('',(-25.75,37.,27.));
#624 = DIRECTION('',(0.969640725744,0.187856200116,-0.15654683343));
#625 = DIRECTION('',(-0.244533971012,0.744898639081,-0.620748865901));
#626 = ORIENTED_EDGE('',*,*,#627,.F.);
#627 = EDGE_CURVE('',#628,#619,#630,.T.);
#628 = VERTEX_POINT('',#629);
#629 = CARTESIAN_POINT('',(-25.75,37.208059929891,27.249671915869));
#630 = ELLIPSE('',#631,0.335175690718,0.325);
#631 = AXIS2_PLACEMENT_3D('',#632,#633,#634);
#632 = CARTESIAN_POINT('',(-25.75,37.,27.));
#633 = DIRECTION('',(0.969640725744,0.187856200116,-0.15654683343));
#634 = DIRECTION('',(-0.244533971012,0.744898639081,-0.620748865901));
#635 = ORIENTED_EDGE('',*,*,#636,.F.);
#636 = EDGE_CURVE('',#602,#628,#637,.T.);
#637 = CIRCLE('',#638,0.325);
#638 = AXIS2_PLACEMENT_3D('',#639,#640,#641);
#639 = CARTESIAN_POINT('',(-25.75,37.,27.));
#640 = DIRECTION('',(0.880406274042,0.364306044431,-0.303588370359));
#641 = DIRECTION('',(-0.382351792726,0.924016832422,-2.775557561563E-17)
  );
#642 = ORIENTED_EDGE('',*,*,#601,.F.);
#643 = ORIENTED_EDGE('',*,*,#574,.T.);
#644 = CYLINDRICAL_SURFACE('',#645,0.325);
#645 = AXIS2_PLACEMENT_3D('',#646,#647,#648);
#646 = CARTESIAN_POINT('',(-33.,34.,29.5));
#647 = DIRECTION('',(0.880406274042,0.364306044431,-0.303588370359));
#648 = DIRECTION('',(-0.382351792726,0.924016832422,-1.387778780781E-17)
  );
#649 = ADVANCED_FACE('',(#650),#679,.F.);
#650 = FACE_BOUND('',#651,.F.);
#651 = EDGE_LOOP('',(#652,#653,#659,#660,#669,#676,#677,#678));
#652 = ORIENTED_EDGE('',*,*,#557,.F.);
#653 = ORIENTED_EDGE('',*,*,#654,.F.);
#654 = EDGE_CURVE('',#619,#530,#655,.T.);
#655 = LINE('',#656,#657);
#656 = CARTESIAN_POINT('',(-25.75,37.,27.325));
#657 = VECTOR('',#658,1.);
#658 = DIRECTION('',(1.,0.,0.));
#659 = ORIENTED_EDGE('',*,*,#618,.T.);
#660 = ORIENTED_EDGE('',*,*,#661,.T.);
#661 = EDGE_CURVE('',#610,#662,#664,.T.);
#662 = VERTEX_POINT('',#663);
#663 = CARTESIAN_POINT('',(-25.75,37.,26.675));
#664 = CIRCLE('',#665,0.325);
#665 = AXIS2_PLACEMENT_3D('',#666,#667,#668);
#666 = CARTESIAN_POINT('',(-25.75,37.,27.));
#667 = DIRECTION('',(1.,0.,-0.));
#668 = DIRECTION('',(0.,0.,1.));
#669 = ORIENTED_EDGE('',*,*,#670,.T.);
#670 = EDGE_CURVE('',#662,#628,#671,.T.);
#671 = CIRCLE('',#672,0.325);
#672 = AXIS2_PLACEMENT_3D('',#673,#674,#675);
#673 = CARTESIAN_POINT('',(-25.75,37.,27.));
#674 = DIRECTION('',(1.,0.,-0.));
#675 = DIRECTION('',(0.,0.,1.));
#676 = ORIENTED_EDGE('',*,*,#627,.T.);
#677 = ORIENTED_EDGE('',*,*,#654,.T.);
#678 = ORIENTED_EDGE('',*,*,#538,.F.);
#679 = CYLINDRICAL_SURFACE('',#680,0.325);
#680 = AXIS2_PLACEMENT_3D('',#681,#682,#683);
#681 = CARTESIAN_POINT('',(-25.75,37.,27.));
#682 = DIRECTION('',(1.,0.,0.));
#683 = DIRECTION('',(0.,0.,1.));
#684 = ADVANCED_FACE('',(#685),#691,.F.);
#685 = FACE_BOUND('',#686,.F.);
#686 = EDGE_LOOP('',(#687,#688,#689,#690));
#687 = ORIENTED_EDGE('',*,*,#609,.T.);
#688 = ORIENTED_EDGE('',*,*,#636,.T.);
#689 = ORIENTED_EDGE('',*,*,#670,.F.);
#690 = ORIENTED_EDGE('',*,*,#661,.F.);
#691 = SPHERICAL_SURFACE('',#692,0.325);
#692 = AXIS2_PLACEMENT_3D('',#693,#694,#695);
#693 = CARTESIAN_POINT('',(-25.75,37.,27.));
#694 = DIRECTION('',(0.,0.,1.));
#695 = DIRECTION('',(1.,0.,0.));
#696 = ( GEOMETRIC_REPRESENTATION_CONTEXT(3) 
GLOBAL_UNCERTAINTY_ASSIGNED_CONTEXT((#700)) GLOBAL_UNIT_ASSIGNED_CONTEXT
((#697,#698,#699)) REPRESENTATION_CONTEXT('Context #1',
  '3D Context with UNIT and UNCERTAINTY') );
#697 = ( LENGTH_UNIT() NAMED_UNIT(*) SI_UNIT(.MILLI.,.METRE.) );
#698 = ( NAMED_UNIT(*) PLANE_ANGLE_UNIT() SI_UNIT($,.RADIAN.) );
#699 = ( NAMED_UNIT(*) SI_UNIT($,.STERADIAN.) SOLID_ANGLE_UNIT() );
#700 = UNCERTAINTY_MEASURE_WITH_UNIT(LENGTH_MEASURE(1.E-07),#697,
  'distance_accuracy_value','confusion accuracy');
#701 = PRODUCT_RELATED_PRODUCT_CATEGORY('part',$,(#7));
ENDSEC;
END-ISO-10303-21;
