ISO-10303-21;
HEADER;
FILE_DESCRIPTION(('FreeCAD Model'),'2;1');
FILE_NAME('Open CASCADE Shape Model','2026-09-30T01:44:46',('FreeCAD'),(
    'FreeCAD'),'Open CASCADE STEP processor 7.8','FreeCAD','Unknown');
FILE_SCHEMA(('AUTOMOTIVE_DESIGN { 1 0 10303 214 1 1 1 1 }'));
ENDSEC;
DATA;
#1 = APPLICATION_PROTOCOL_DEFINITION('international standard',
  'automotive_design',2000,#2);
#2 = APPLICATION_CONTEXT(
  'core data for automotive mechanical design processes');
#3 = SHAPE_DEFINITION_REPRESENTATION(#4,#10);
#4 = PRODUCT_DEFINITION_SHAPE('','',#5);
#5 = PRODUCT_DEFINITION('design','',#6,#9);
#6 = PRODUCT_DEFINITION_FORMATION('','',#7);
#7 = PRODUCT('Open CASCADE STEP translator 7.8 37',
  'Open CASCADE STEP translator 7.8 37','',(#8));
#8 = PRODUCT_CONTEXT('',#2,'mechanical');
#9 = PRODUCT_DEFINITION_CONTEXT('part definition',#2,'design');
#10 = ADVANCED_BREP_SHAPE_REPRESENTATION('',(#11,#15),#516);
#11 = AXIS2_PLACEMENT_3D('',#12,#13,#14);
#12 = CARTESIAN_POINT('',(0.,0.,0.));
#13 = DIRECTION('',(0.,0.,1.));
#14 = DIRECTION('',(1.,0.,-0.));
#15 = MANIFOLD_SOLID_BREP('',#16);
#16 = CLOSED_SHELL('',(#17,#43,#84,#94,#110,#163,#214,#225,#250,#287,
    #346,#356,#381,#433,#444,#495,#506));
#17 = ADVANCED_FACE('',(#18),#38,.T.);
#18 = FACE_BOUND('',#19,.T.);
#19 = EDGE_LOOP('',(#20,#31));
#20 = ORIENTED_EDGE('',*,*,#21,.F.);
#21 = EDGE_CURVE('',#22,#24,#26,.T.);
#22 = VERTEX_POINT('',#23);
#23 = CARTESIAN_POINT('',(-34.,11.25,29.15));
#24 = VERTEX_POINT('',#25);
#25 = CARTESIAN_POINT('',(-34.,11.25,27.85));
#26 = CIRCLE('',#27,0.65);
#27 = AXIS2_PLACEMENT_3D('',#28,#29,#30);
#28 = CARTESIAN_POINT('',(-34.,11.25,28.5));
#29 = DIRECTION('',(-1.,0.,0.));
#30 = DIRECTION('',(0.,0.,-1.));
#31 = ORIENTED_EDGE('',*,*,#32,.F.);
#32 = EDGE_CURVE('',#24,#22,#33,.T.);
#33 = CIRCLE('',#34,0.65);
#34 = AXIS2_PLACEMENT_3D('',#35,#36,#37);
#35 = CARTESIAN_POINT('',(-34.,11.25,28.5));
#36 = DIRECTION('',(-2.449293598295E-16,-1.,0.));
#37 = DIRECTION('',(1.,-2.449293598295E-16,0.));
#38 = SPHERICAL_SURFACE('',#39,0.65);
#39 = AXIS2_PLACEMENT_3D('',#40,#41,#42);
#40 = CARTESIAN_POINT('',(-34.,11.25,28.5));
#41 = DIRECTION('',(0.,0.,1.));
#42 = DIRECTION('',(1.,0.,0.));
#43 = ADVANCED_FACE('',(#44),#79,.T.);
#44 = FACE_BOUND('',#45,.T.);
#45 = EDGE_LOOP('',(#46,#53,#54,#62,#71,#78));
#46 = ORIENTED_EDGE('',*,*,#47,.T.);
#47 = EDGE_CURVE('',#24,#22,#48,.T.);
#48 = CIRCLE('',#49,0.65);
#49 = AXIS2_PLACEMENT_3D('',#50,#51,#52);
#50 = CARTESIAN_POINT('',(-34.,11.25,28.5));
#51 = DIRECTION('',(-1.,0.,0.));
#52 = DIRECTION('',(0.,0.,-1.));
#53 = ORIENTED_EDGE('',*,*,#21,.T.);
#54 = ORIENTED_EDGE('',*,*,#55,.T.);
#55 = EDGE_CURVE('',#24,#56,#58,.T.);
#56 = VERTEX_POINT('',#57);
#57 = CARTESIAN_POINT('',(-39.,11.25,27.85));
#58 = LINE('',#59,#60);
#59 = CARTESIAN_POINT('',(-34.,11.25,27.85));
#60 = VECTOR('',#61,1.);
#61 = DIRECTION('',(-1.,0.,0.));
#62 = ORIENTED_EDGE('',*,*,#63,.F.);
#63 = EDGE_CURVE('',#64,#56,#66,.T.);
#64 = VERTEX_POINT('',#65);
#65 = CARTESIAN_POINT('',(-39.,11.25,29.15));
#66 = ELLIPSE('',#67,0.919238815543,0.65);
#67 = AXIS2_PLACEMENT_3D('',#68,#69,#70);
#68 = CARTESIAN_POINT('',(-39.,11.25,28.5));
#69 = DIRECTION('',(-0.707106781187,0.707106781187,0.));
#70 = DIRECTION('',(-0.707106781187,-0.707106781187,0.));
#71 = ORIENTED_EDGE('',*,*,#72,.F.);
#72 = EDGE_CURVE('',#56,#64,#73,.T.);
#73 = CIRCLE('',#74,0.65);
#74 = AXIS2_PLACEMENT_3D('',#75,#76,#77);
#75 = CARTESIAN_POINT('',(-39.,11.25,28.5));
#76 = DIRECTION('',(-1.,0.,0.));
#77 = DIRECTION('',(0.,0.,-1.));
#78 = ORIENTED_EDGE('',*,*,#55,.F.);
#79 = CYLINDRICAL_SURFACE('',#80,0.65);
#80 = AXIS2_PLACEMENT_3D('',#81,#82,#83);
#81 = CARTESIAN_POINT('',(-34.,11.25,28.5));
#82 = DIRECTION('',(-1.,0.,0.));
#83 = DIRECTION('',(0.,0.,-1.));
#84 = ADVANCED_FACE('',(#85),#89,.T.);
#85 = FACE_BOUND('',#86,.T.);
#86 = EDGE_LOOP('',(#87,#88));
#87 = ORIENTED_EDGE('',*,*,#32,.T.);
#88 = ORIENTED_EDGE('',*,*,#47,.F.);
#89 = SPHERICAL_SURFACE('',#90,0.65);
#90 = AXIS2_PLACEMENT_3D('',#91,#92,#93);
#91 = CARTESIAN_POINT('',(-34.,11.25,28.5));
#92 = DIRECTION('',(0.,0.,1.));
#93 = DIRECTION('',(1.,0.,0.));
#94 = ADVANCED_FACE('',(#95),#105,.T.);
#95 = FACE_BOUND('',#96,.T.);
#96 = EDGE_LOOP('',(#97,#98));
#97 = ORIENTED_EDGE('',*,*,#72,.T.);
#98 = ORIENTED_EDGE('',*,*,#99,.F.);
#99 = EDGE_CURVE('',#56,#64,#100,.T.);
#100 = CIRCLE('',#101,0.65);
#101 = AXIS2_PLACEMENT_3D('',#102,#103,#104);
#102 = CARTESIAN_POINT('',(-39.,11.25,28.5));
#103 = DIRECTION('',(0.,1.,0.));
#104 = DIRECTION('',(0.,0.,1.));
#105 = SPHERICAL_SURFACE('',#106,0.65);
#106 = AXIS2_PLACEMENT_3D('',#107,#108,#109);
#107 = CARTESIAN_POINT('',(-39.,11.25,28.5));
#108 = DIRECTION('',(0.,0.,1.));
#109 = DIRECTION('',(1.,0.,0.));
#110 = ADVANCED_FACE('',(#111),#158,.T.);
#111 = FACE_BOUND('',#112,.T.);
#112 = EDGE_LOOP('',(#113,#114,#115,#123,#132,#141,#150,#157));
#113 = ORIENTED_EDGE('',*,*,#63,.T.);
#114 = ORIENTED_EDGE('',*,*,#99,.T.);
#115 = ORIENTED_EDGE('',*,*,#116,.T.);
#116 = EDGE_CURVE('',#64,#117,#119,.T.);
#117 = VERTEX_POINT('',#118);
#118 = CARTESIAN_POINT('',(-39.,16.35,29.15));
#119 = LINE('',#120,#121);
#120 = CARTESIAN_POINT('',(-39.,11.25,29.15));
#121 = VECTOR('',#122,1.);
#122 = DIRECTION('',(0.,1.,0.));
#123 = ORIENTED_EDGE('',*,*,#124,.F.);
#124 = EDGE_CURVE('',#125,#117,#127,.T.);
#125 = VERTEX_POINT('',#126);
#126 = CARTESIAN_POINT('',(-39.65,17.,28.5));
#127 = ELLIPSE('',#128,0.919238815543,0.65);
#128 = AXIS2_PLACEMENT_3D('',#129,#130,#131);
#129 = CARTESIAN_POINT('',(-39.,17.,28.5));
#130 = DIRECTION('',(0.,0.707106781187,0.707106781187));
#131 = DIRECTION('',(0.,0.707106781187,-0.707106781187));
#132 = ORIENTED_EDGE('',*,*,#133,.F.);
#133 = EDGE_CURVE('',#134,#125,#136,.T.);
#134 = VERTEX_POINT('',#135);
#135 = CARTESIAN_POINT('',(-39.,17.,27.85));
#136 = CIRCLE('',#137,0.65);
#137 = AXIS2_PLACEMENT_3D('',#138,#139,#140);
#138 = CARTESIAN_POINT('',(-39.,17.,28.5));
#139 = DIRECTION('',(0.,1.,0.));
#140 = DIRECTION('',(0.,0.,1.));
#141 = ORIENTED_EDGE('',*,*,#142,.F.);
#142 = EDGE_CURVE('',#143,#134,#145,.T.);
#143 = VERTEX_POINT('',#144);
#144 = CARTESIAN_POINT('',(-38.35,17.,28.5));
#145 = CIRCLE('',#146,0.65);
#146 = AXIS2_PLACEMENT_3D('',#147,#148,#149);
#147 = CARTESIAN_POINT('',(-39.,17.,28.5));
#148 = DIRECTION('',(0.,1.,0.));
#149 = DIRECTION('',(0.,0.,1.));
#150 = ORIENTED_EDGE('',*,*,#151,.F.);
#151 = EDGE_CURVE('',#117,#143,#152,.T.);
#152 = ELLIPSE('',#153,0.919238815543,0.65);
#153 = AXIS2_PLACEMENT_3D('',#154,#155,#156);
#154 = CARTESIAN_POINT('',(-39.,17.,28.5));
#155 = DIRECTION('',(0.,0.707106781187,0.707106781187));
#156 = DIRECTION('',(0.,0.707106781187,-0.707106781187));
#157 = ORIENTED_EDGE('',*,*,#116,.F.);
#158 = CYLINDRICAL_SURFACE('',#159,0.65);
#159 = AXIS2_PLACEMENT_3D('',#160,#161,#162);
#160 = CARTESIAN_POINT('',(-39.,11.25,28.5));
#161 = DIRECTION('',(0.,1.,0.));
#162 = DIRECTION('',(0.,0.,1.));
#163 = ADVANCED_FACE('',(#164),#209,.T.);
#164 = FACE_BOUND('',#165,.T.);
#165 = EDGE_LOOP('',(#166,#167,#168,#176,#185,#194,#201,#202));
#166 = ORIENTED_EDGE('',*,*,#124,.T.);
#167 = ORIENTED_EDGE('',*,*,#151,.T.);
#168 = ORIENTED_EDGE('',*,*,#169,.T.);
#169 = EDGE_CURVE('',#143,#170,#172,.T.);
#170 = VERTEX_POINT('',#171);
#171 = CARTESIAN_POINT('',(-38.35,17.,48.5));
#172 = LINE('',#173,#174);
#173 = CARTESIAN_POINT('',(-38.35,17.,28.5));
#174 = VECTOR('',#175,1.);
#175 = DIRECTION('',(0.,0.,1.));
#176 = ORIENTED_EDGE('',*,*,#177,.F.);
#177 = EDGE_CURVE('',#178,#170,#180,.T.);
#178 = VERTEX_POINT('',#179);
#179 = CARTESIAN_POINT('',(-39.,16.35,47.85));
#180 = ELLIPSE('',#181,0.919238815543,0.65);
#181 = AXIS2_PLACEMENT_3D('',#182,#183,#184);
#182 = CARTESIAN_POINT('',(-39.,17.,48.5));
#183 = DIRECTION('',(0.,-0.707106781187,0.707106781187));
#184 = DIRECTION('',(0.,0.707106781187,0.707106781187));
#185 = ORIENTED_EDGE('',*,*,#186,.F.);
#186 = EDGE_CURVE('',#187,#178,#189,.T.);
#187 = VERTEX_POINT('',#188);
#188 = CARTESIAN_POINT('',(-39.65,17.,48.5));
#189 = ELLIPSE('',#190,0.919238815543,0.65);
#190 = AXIS2_PLACEMENT_3D('',#191,#192,#193);
#191 = CARTESIAN_POINT('',(-39.,17.,48.5));
#192 = DIRECTION('',(0.,-0.707106781187,0.707106781187));
#193 = DIRECTION('',(0.,0.707106781187,0.707106781187));
#194 = ORIENTED_EDGE('',*,*,#195,.F.);
#195 = EDGE_CURVE('',#170,#187,#196,.T.);
#196 = CIRCLE('',#197,0.65);
#197 = AXIS2_PLACEMENT_3D('',#198,#199,#200);
#198 = CARTESIAN_POINT('',(-39.,17.,48.5));
#199 = DIRECTION('',(0.,0.,1.));
#200 = DIRECTION('',(1.,0.,0.));
#201 = ORIENTED_EDGE('',*,*,#169,.F.);
#202 = ORIENTED_EDGE('',*,*,#203,.T.);
#203 = EDGE_CURVE('',#143,#125,#204,.T.);
#204 = CIRCLE('',#205,0.65);
#205 = AXIS2_PLACEMENT_3D('',#206,#207,#208);
#206 = CARTESIAN_POINT('',(-39.,17.,28.5));
#207 = DIRECTION('',(0.,0.,1.));
#208 = DIRECTION('',(1.,0.,0.));
#209 = CYLINDRICAL_SURFACE('',#210,0.65);
#210 = AXIS2_PLACEMENT_3D('',#211,#212,#213);
#211 = CARTESIAN_POINT('',(-39.,17.,28.5));
#212 = DIRECTION('',(0.,0.,1.));
#213 = DIRECTION('',(1.,0.,0.));
#214 = ADVANCED_FACE('',(#215),#220,.T.);
#215 = FACE_BOUND('',#216,.T.);
#216 = EDGE_LOOP('',(#217,#218,#219));
#217 = ORIENTED_EDGE('',*,*,#133,.T.);
#218 = ORIENTED_EDGE('',*,*,#203,.F.);
#219 = ORIENTED_EDGE('',*,*,#142,.T.);
#220 = SPHERICAL_SURFACE('',#221,0.65);
#221 = AXIS2_PLACEMENT_3D('',#222,#223,#224);
#222 = CARTESIAN_POINT('',(-39.,17.,28.5));
#223 = DIRECTION('',(0.,0.,1.));
#224 = DIRECTION('',(1.,0.,0.));
#225 = ADVANCED_FACE('',(#226),#245,.T.);
#226 = FACE_BOUND('',#227,.T.);
#227 = EDGE_LOOP('',(#228,#237,#238));
#228 = ORIENTED_EDGE('',*,*,#229,.F.);
#229 = EDGE_CURVE('',#170,#230,#232,.T.);
#230 = VERTEX_POINT('',#231);
#231 = CARTESIAN_POINT('',(-39.,17.,49.15));
#232 = CIRCLE('',#233,0.65);
#233 = AXIS2_PLACEMENT_3D('',#234,#235,#236);
#234 = CARTESIAN_POINT('',(-39.,17.,48.5));
#235 = DIRECTION('',(-2.449293598295E-16,-1.,0.));
#236 = DIRECTION('',(1.,-2.449293598295E-16,0.));
#237 = ORIENTED_EDGE('',*,*,#195,.T.);
#238 = ORIENTED_EDGE('',*,*,#239,.F.);
#239 = EDGE_CURVE('',#230,#187,#240,.T.);
#240 = CIRCLE('',#241,0.65);
#241 = AXIS2_PLACEMENT_3D('',#242,#243,#244);
#242 = CARTESIAN_POINT('',(-39.,17.,48.5));
#243 = DIRECTION('',(0.,-1.,0.));
#244 = DIRECTION('',(0.,0.,-1.));
#245 = SPHERICAL_SURFACE('',#246,0.65);
#246 = AXIS2_PLACEMENT_3D('',#247,#248,#249);
#247 = CARTESIAN_POINT('',(-39.,17.,48.5));
#248 = DIRECTION('',(0.,0.,1.));
#249 = DIRECTION('',(1.,0.,0.));
#250 = ADVANCED_FACE('',(#251),#282,.T.);
#251 = FACE_BOUND('',#252,.T.);
#252 = EDGE_LOOP('',(#253,#254,#255,#263,#272,#279,#280,#281));
#253 = ORIENTED_EDGE('',*,*,#239,.T.);
#254 = ORIENTED_EDGE('',*,*,#186,.T.);
#255 = ORIENTED_EDGE('',*,*,#256,.T.);
#256 = EDGE_CURVE('',#178,#257,#259,.T.);
#257 = VERTEX_POINT('',#258);
#258 = CARTESIAN_POINT('',(-39.,10.,47.85));
#259 = LINE('',#260,#261);
#260 = CARTESIAN_POINT('',(-39.,17.,47.85));
#261 = VECTOR('',#262,1.);
#262 = DIRECTION('',(0.,-1.,0.));
#263 = ORIENTED_EDGE('',*,*,#264,.F.);
#264 = EDGE_CURVE('',#265,#257,#267,.T.);
#265 = VERTEX_POINT('',#266);
#266 = CARTESIAN_POINT('',(-39.,10.,49.15));
#267 = CIRCLE('',#268,0.65);
#268 = AXIS2_PLACEMENT_3D('',#269,#270,#271);
#269 = CARTESIAN_POINT('',(-39.,10.,48.5));
#270 = DIRECTION('',(0.,-1.,0.));
#271 = DIRECTION('',(0.,0.,-1.));
#272 = ORIENTED_EDGE('',*,*,#273,.F.);
#273 = EDGE_CURVE('',#257,#265,#274,.T.);
#274 = ELLIPSE('',#275,0.919238815543,0.65);
#275 = AXIS2_PLACEMENT_3D('',#276,#277,#278);
#276 = CARTESIAN_POINT('',(-39.,10.,48.5));
#277 = DIRECTION('',(0.707106781187,-0.707106781187,0.));
#278 = DIRECTION('',(-0.707106781187,-0.707106781187,0.));
#279 = ORIENTED_EDGE('',*,*,#256,.F.);
#280 = ORIENTED_EDGE('',*,*,#177,.T.);
#281 = ORIENTED_EDGE('',*,*,#229,.T.);
#282 = CYLINDRICAL_SURFACE('',#283,0.65);
#283 = AXIS2_PLACEMENT_3D('',#284,#285,#286);
#284 = CARTESIAN_POINT('',(-39.,17.,48.5));
#285 = DIRECTION('',(0.,-1.,0.));
#286 = DIRECTION('',(0.,0.,-1.));
#287 = ADVANCED_FACE('',(#288),#341,.T.);
#288 = FACE_BOUND('',#289,.T.);
#289 = EDGE_LOOP('',(#290,#297,#298,#306,#315,#324,#333,#340));
#290 = ORIENTED_EDGE('',*,*,#291,.T.);
#291 = EDGE_CURVE('',#265,#257,#292,.T.);
#292 = CIRCLE('',#293,0.65);
#293 = AXIS2_PLACEMENT_3D('',#294,#295,#296);
#294 = CARTESIAN_POINT('',(-39.,10.,48.5));
#295 = DIRECTION('',(1.,0.,-0.));
#296 = DIRECTION('',(0.,0.,1.));
#297 = ORIENTED_EDGE('',*,*,#273,.T.);
#298 = ORIENTED_EDGE('',*,*,#299,.T.);
#299 = EDGE_CURVE('',#265,#300,#302,.T.);
#300 = VERTEX_POINT('',#301);
#301 = CARTESIAN_POINT('',(33.,10.,49.15));
#302 = LINE('',#303,#304);
#303 = CARTESIAN_POINT('',(-39.,10.,49.15));
#304 = VECTOR('',#305,1.);
#305 = DIRECTION('',(1.,0.,0.));
#306 = ORIENTED_EDGE('',*,*,#307,.F.);
#307 = EDGE_CURVE('',#308,#300,#310,.T.);
#308 = VERTEX_POINT('',#309);
#309 = CARTESIAN_POINT('',(33.,10.65,48.5));
#310 = CIRCLE('',#311,0.65);
#311 = AXIS2_PLACEMENT_3D('',#312,#313,#314);
#312 = CARTESIAN_POINT('',(33.,10.,48.5));
#313 = DIRECTION('',(1.,0.,-0.));
#314 = DIRECTION('',(0.,0.,1.));
#315 = ORIENTED_EDGE('',*,*,#316,.F.);
#316 = EDGE_CURVE('',#317,#308,#319,.T.);
#317 = VERTEX_POINT('',#318);
#318 = CARTESIAN_POINT('',(32.35,10.,47.85));
#319 = ELLIPSE('',#320,0.919238815543,0.65);
#320 = AXIS2_PLACEMENT_3D('',#321,#322,#323);
#321 = CARTESIAN_POINT('',(33.,10.,48.5));
#322 = DIRECTION('',(0.707106781187,0.,-0.707106781187));
#323 = DIRECTION('',(0.707106781187,0.,0.707106781187));
#324 = ORIENTED_EDGE('',*,*,#325,.F.);
#325 = EDGE_CURVE('',#326,#317,#328,.T.);
#326 = VERTEX_POINT('',#327);
#327 = CARTESIAN_POINT('',(33.,9.35,48.5));
#328 = ELLIPSE('',#329,0.919238815543,0.65);
#329 = AXIS2_PLACEMENT_3D('',#330,#331,#332);
#330 = CARTESIAN_POINT('',(33.,10.,48.5));
#331 = DIRECTION('',(0.707106781187,0.,-0.707106781187));
#332 = DIRECTION('',(0.707106781187,0.,0.707106781187));
#333 = ORIENTED_EDGE('',*,*,#334,.F.);
#334 = EDGE_CURVE('',#300,#326,#335,.T.);
#335 = CIRCLE('',#336,0.65);
#336 = AXIS2_PLACEMENT_3D('',#337,#338,#339);
#337 = CARTESIAN_POINT('',(33.,10.,48.5));
#338 = DIRECTION('',(1.,0.,-0.));
#339 = DIRECTION('',(0.,0.,1.));
#340 = ORIENTED_EDGE('',*,*,#299,.F.);
#341 = CYLINDRICAL_SURFACE('',#342,0.65);
#342 = AXIS2_PLACEMENT_3D('',#343,#344,#345);
#343 = CARTESIAN_POINT('',(-39.,10.,48.5));
#344 = DIRECTION('',(1.,0.,0.));
#345 = DIRECTION('',(0.,0.,1.));
#346 = ADVANCED_FACE('',(#347),#351,.T.);
#347 = FACE_BOUND('',#348,.T.);
#348 = EDGE_LOOP('',(#349,#350));
#349 = ORIENTED_EDGE('',*,*,#264,.T.);
#350 = ORIENTED_EDGE('',*,*,#291,.F.);
#351 = SPHERICAL_SURFACE('',#352,0.65);
#352 = AXIS2_PLACEMENT_3D('',#353,#354,#355);
#353 = CARTESIAN_POINT('',(-39.,10.,48.5));
#354 = DIRECTION('',(0.,0.,1.));
#355 = DIRECTION('',(1.,0.,0.));
#356 = ADVANCED_FACE('',(#357),#376,.T.);
#357 = FACE_BOUND('',#358,.T.);
#358 = EDGE_LOOP('',(#359,#368,#375));
#359 = ORIENTED_EDGE('',*,*,#360,.F.);
#360 = EDGE_CURVE('',#361,#326,#363,.T.);
#361 = VERTEX_POINT('',#362);
#362 = CARTESIAN_POINT('',(33.65,10.,48.5));
#363 = CIRCLE('',#364,0.65);
#364 = AXIS2_PLACEMENT_3D('',#365,#366,#367);
#365 = CARTESIAN_POINT('',(33.,10.,48.5));
#366 = DIRECTION('',(0.,0.,-1.));
#367 = DIRECTION('',(-1.,0.,0.));
#368 = ORIENTED_EDGE('',*,*,#369,.T.);
#369 = EDGE_CURVE('',#361,#300,#370,.T.);
#370 = CIRCLE('',#371,0.65);
#371 = AXIS2_PLACEMENT_3D('',#372,#373,#374);
#372 = CARTESIAN_POINT('',(33.,10.,48.5));
#373 = DIRECTION('',(-2.449293598295E-16,-1.,0.));
#374 = DIRECTION('',(1.,-2.449293598295E-16,0.));
#375 = ORIENTED_EDGE('',*,*,#334,.T.);
#376 = SPHERICAL_SURFACE('',#377,0.65);
#377 = AXIS2_PLACEMENT_3D('',#378,#379,#380);
#378 = CARTESIAN_POINT('',(33.,10.,48.5));
#379 = DIRECTION('',(0.,0.,1.));
#380 = DIRECTION('',(1.,0.,0.));
#381 = ADVANCED_FACE('',(#382),#428,.T.);
#382 = FACE_BOUND('',#383,.T.);
#383 = EDGE_LOOP('',(#384,#385,#386,#394,#403,#412,#419,#420,#421));
#384 = ORIENTED_EDGE('',*,*,#360,.T.);
#385 = ORIENTED_EDGE('',*,*,#325,.T.);
#386 = ORIENTED_EDGE('',*,*,#387,.T.);
#387 = EDGE_CURVE('',#317,#388,#390,.T.);
#388 = VERTEX_POINT('',#389);
#389 = CARTESIAN_POINT('',(32.35,10.,40.));
#390 = LINE('',#391,#392);
#391 = CARTESIAN_POINT('',(32.35,10.,48.5));
#392 = VECTOR('',#393,1.);
#393 = DIRECTION('',(0.,0.,-1.));
#394 = ORIENTED_EDGE('',*,*,#395,.F.);
#395 = EDGE_CURVE('',#396,#388,#398,.T.);
#396 = VERTEX_POINT('',#397);
#397 = CARTESIAN_POINT('',(33.65,10.,40.));
#398 = CIRCLE('',#399,0.65);
#399 = AXIS2_PLACEMENT_3D('',#400,#401,#402);
#400 = CARTESIAN_POINT('',(33.,10.,40.));
#401 = DIRECTION('',(0.,0.,-1.));
#402 = DIRECTION('',(-1.,0.,0.));
#403 = ORIENTED_EDGE('',*,*,#404,.F.);
#404 = EDGE_CURVE('',#405,#396,#407,.T.);
#405 = VERTEX_POINT('',#406);
#406 = CARTESIAN_POINT('',(33.,10.65,40.65));
#407 = ELLIPSE('',#408,0.919238815543,0.65);
#408 = AXIS2_PLACEMENT_3D('',#409,#410,#411);
#409 = CARTESIAN_POINT('',(33.,10.,40.));
#410 = DIRECTION('',(0.,0.707106781187,-0.707106781187));
#411 = DIRECTION('',(0.,-0.707106781187,-0.707106781187));
#412 = ORIENTED_EDGE('',*,*,#413,.F.);
#413 = EDGE_CURVE('',#388,#405,#414,.T.);
#414 = ELLIPSE('',#415,0.919238815543,0.65);
#415 = AXIS2_PLACEMENT_3D('',#416,#417,#418);
#416 = CARTESIAN_POINT('',(33.,10.,40.));
#417 = DIRECTION('',(0.,0.707106781187,-0.707106781187));
#418 = DIRECTION('',(0.,-0.707106781187,-0.707106781187));
#419 = ORIENTED_EDGE('',*,*,#387,.F.);
#420 = ORIENTED_EDGE('',*,*,#316,.T.);
#421 = ORIENTED_EDGE('',*,*,#422,.T.);
#422 = EDGE_CURVE('',#308,#361,#423,.T.);
#423 = CIRCLE('',#424,0.65);
#424 = AXIS2_PLACEMENT_3D('',#425,#426,#427);
#425 = CARTESIAN_POINT('',(33.,10.,48.5));
#426 = DIRECTION('',(0.,0.,-1.));
#427 = DIRECTION('',(-1.,0.,0.));
#428 = CYLINDRICAL_SURFACE('',#429,0.65);
#429 = AXIS2_PLACEMENT_3D('',#430,#431,#432);
#430 = CARTESIAN_POINT('',(33.,10.,48.5));
#431 = DIRECTION('',(0.,0.,-1.));
#432 = DIRECTION('',(-1.,0.,0.));
#433 = ADVANCED_FACE('',(#434),#439,.T.);
#434 = FACE_BOUND('',#435,.T.);
#435 = EDGE_LOOP('',(#436,#437,#438));
#436 = ORIENTED_EDGE('',*,*,#369,.F.);
#437 = ORIENTED_EDGE('',*,*,#422,.F.);
#438 = ORIENTED_EDGE('',*,*,#307,.T.);
#439 = SPHERICAL_SURFACE('',#440,0.65);
#440 = AXIS2_PLACEMENT_3D('',#441,#442,#443);
#441 = CARTESIAN_POINT('',(33.,10.,48.5));
#442 = DIRECTION('',(0.,0.,1.));
#443 = DIRECTION('',(1.,0.,0.));
#444 = ADVANCED_FACE('',(#445),#490,.T.);
#445 = FACE_BOUND('',#446,.T.);
#446 = EDGE_LOOP('',(#447,#448,#456,#465,#472,#473,#474,#483));
#447 = ORIENTED_EDGE('',*,*,#413,.T.);
#448 = ORIENTED_EDGE('',*,*,#449,.T.);
#449 = EDGE_CURVE('',#405,#450,#452,.T.);
#450 = VERTEX_POINT('',#451);
#451 = CARTESIAN_POINT('',(33.,12.,40.65));
#452 = LINE('',#453,#454);
#453 = CARTESIAN_POINT('',(33.,10.,40.65));
#454 = VECTOR('',#455,1.);
#455 = DIRECTION('',(0.,1.,0.));
#456 = ORIENTED_EDGE('',*,*,#457,.F.);
#457 = EDGE_CURVE('',#458,#450,#460,.T.);
#458 = VERTEX_POINT('',#459);
#459 = CARTESIAN_POINT('',(33.,12.,39.35));
#460 = CIRCLE('',#461,0.65);
#461 = AXIS2_PLACEMENT_3D('',#462,#463,#464);
#462 = CARTESIAN_POINT('',(33.,12.,40.));
#463 = DIRECTION('',(0.,1.,0.));
#464 = DIRECTION('',(0.,0.,1.));
#465 = ORIENTED_EDGE('',*,*,#466,.F.);
#466 = EDGE_CURVE('',#450,#458,#467,.T.);
#467 = CIRCLE('',#468,0.65);
#468 = AXIS2_PLACEMENT_3D('',#469,#470,#471);
#469 = CARTESIAN_POINT('',(33.,12.,40.));
#470 = DIRECTION('',(0.,1.,0.));
#471 = DIRECTION('',(0.,0.,1.));
#472 = ORIENTED_EDGE('',*,*,#449,.F.);
#473 = ORIENTED_EDGE('',*,*,#404,.T.);
#474 = ORIENTED_EDGE('',*,*,#475,.F.);
#475 = EDGE_CURVE('',#476,#396,#478,.T.);
#476 = VERTEX_POINT('',#477);
#477 = CARTESIAN_POINT('',(33.,10.,39.35));
#478 = CIRCLE('',#479,0.65);
#479 = AXIS2_PLACEMENT_3D('',#480,#481,#482);
#480 = CARTESIAN_POINT('',(33.,10.,40.));
#481 = DIRECTION('',(-2.449293598295E-16,-1.,0.));
#482 = DIRECTION('',(1.,-2.449293598295E-16,0.));
#483 = ORIENTED_EDGE('',*,*,#484,.T.);
#484 = EDGE_CURVE('',#476,#388,#485,.T.);
#485 = CIRCLE('',#486,0.65);
#486 = AXIS2_PLACEMENT_3D('',#487,#488,#489);
#487 = CARTESIAN_POINT('',(33.,10.,40.));
#488 = DIRECTION('',(0.,1.,0.));
#489 = DIRECTION('',(0.,0.,1.));
#490 = CYLINDRICAL_SURFACE('',#491,0.65);
#491 = AXIS2_PLACEMENT_3D('',#492,#493,#494);
#492 = CARTESIAN_POINT('',(33.,10.,40.));
#493 = DIRECTION('',(0.,1.,0.));
#494 = DIRECTION('',(0.,0.,1.));
#495 = ADVANCED_FACE('',(#496),#501,.T.);
#496 = FACE_BOUND('',#497,.T.);
#497 = EDGE_LOOP('',(#498,#499,#500));
#498 = ORIENTED_EDGE('',*,*,#395,.T.);
#499 = ORIENTED_EDGE('',*,*,#484,.F.);
#500 = ORIENTED_EDGE('',*,*,#475,.T.);
#501 = SPHERICAL_SURFACE('',#502,0.65);
#502 = AXIS2_PLACEMENT_3D('',#503,#504,#505);
#503 = CARTESIAN_POINT('',(33.,10.,40.));
#504 = DIRECTION('',(0.,0.,1.));
#505 = DIRECTION('',(1.,0.,0.));
#506 = ADVANCED_FACE('',(#507),#511,.T.);
#507 = FACE_BOUND('',#508,.T.);
#508 = EDGE_LOOP('',(#509,#510));
#509 = ORIENTED_EDGE('',*,*,#457,.T.);
#510 = ORIENTED_EDGE('',*,*,#466,.T.);
#511 = SPHERICAL_SURFACE('',#512,0.65);
#512 = AXIS2_PLACEMENT_3D('',#513,#514,#515);
#513 = CARTESIAN_POINT('',(33.,12.,40.));
#514 = DIRECTION('',(0.,0.,1.));
#515 = DIRECTION('',(1.,0.,0.));
#516 = ( GEOMETRIC_REPRESENTATION_CONTEXT(3) 
GLOBAL_UNCERTAINTY_ASSIGNED_CONTEXT((#520)) GLOBAL_UNIT_ASSIGNED_CONTEXT
((#517,#518,#519)) REPRESENTATION_CONTEXT('Context #1',
  '3D Context with UNIT and UNCERTAINTY') );
#517 = ( LENGTH_UNIT() NAMED_UNIT(*) SI_UNIT(.MILLI.,.METRE.) );
#518 = ( NAMED_UNIT(*) PLANE_ANGLE_UNIT() SI_UNIT($,.RADIAN.) );
#519 = ( NAMED_UNIT(*) SI_UNIT($,.STERADIAN.) SOLID_ANGLE_UNIT() );
#520 = UNCERTAINTY_MEASURE_WITH_UNIT(LENGTH_MEASURE(2.E-07),#517,
  'distance_accuracy_value','confusion accuracy');
#521 = PRODUCT_RELATED_PRODUCT_CATEGORY('part',$,(#7));
ENDSEC;
END-ISO-10303-21;
