ISO-10303-21;
HEADER;
FILE_DESCRIPTION(('FreeCAD Model'),'2;1');
FILE_NAME('Open CASCADE Shape Model','2026-09-30T05:24:06',('FreeCAD'),(
    'FreeCAD'),'Open CASCADE STEP processor 7.8','FreeCAD','Unknown');
FILE_SCHEMA(('AUTOMOTIVE_DESIGN { 1 0 10303 214 1 1 1 1 }'));
ENDSEC;
DATA;
#1 = APPLICATION_PROTOCOL_DEFINITION('international standard',
  'automotive_design',2000,#2);
#2 = APPLICATION_CONTEXT(
  'core data for automotive mechanical design processes');
#3 = SHAPE_DEFINITION_REPRESENTATION(#4,#10);
#4 = PRODUCT_DEFINITION_SHAPE('','',#5);
#5 = PRODUCT_DEFINITION('design','',#6,#9);
#6 = PRODUCT_DEFINITION_FORMATION('','',#7);
#7 = PRODUCT('Open CASCADE STEP translator 7.8 21',
  'Open CASCADE STEP translator 7.8 21','',(#8));
#8 = PRODUCT_CONTEXT('',#2,'mechanical');
#9 = PRODUCT_DEFINITION_CONTEXT('part definition',#2,'design');
#10 = ADVANCED_BREP_SHAPE_REPRESENTATION('',(#11,#15),#733);
#11 = AXIS2_PLACEMENT_3D('',#12,#13,#14);
#12 = CARTESIAN_POINT('',(0.,0.,0.));
#13 = DIRECTION('',(0.,0.,1.));
#14 = DIRECTION('',(1.,0.,-0.));
#15 = MANIFOLD_SOLID_BREP('',#16);
#16 = CLOSED_SHELL('',(#17,#57,#88,#146,#170,#187,#199,#230,#254,#278,
    #295,#341,#372,#396,#420,#437,#483,#514,#538,#562,#579,#625,#656,
    #680,#704,#721));
#17 = ADVANCED_FACE('',(#18),#52,.F.);
#18 = FACE_BOUND('',#19,.F.);
#19 = EDGE_LOOP('',(#20,#30,#38,#46));
#20 = ORIENTED_EDGE('',*,*,#21,.F.);
#21 = EDGE_CURVE('',#22,#24,#26,.T.);
#22 = VERTEX_POINT('',#23);
#23 = CARTESIAN_POINT('',(5.422818472546,-7.807402885327,-18.));
#24 = VERTEX_POINT('',#25);
#25 = CARTESIAN_POINT('',(5.422818472546,-7.807402885327,-9.));
#26 = LINE('',#27,#28);
#27 = CARTESIAN_POINT('',(5.422818472546,-7.807402885327,-18.));
#28 = VECTOR('',#29,1.);
#29 = DIRECTION('',(0.,0.,1.));
#30 = ORIENTED_EDGE('',*,*,#31,.T.);
#31 = EDGE_CURVE('',#22,#32,#34,.T.);
#32 = VERTEX_POINT('',#33);
#33 = CARTESIAN_POINT('',(9.472818472546,-0.792597114673,-18.));
#34 = LINE('',#35,#36);
#35 = CARTESIAN_POINT('',(5.422818472546,-7.807402885327,-18.));
#36 = VECTOR('',#37,1.);
#37 = DIRECTION('',(0.5,0.866025403784,0.));
#38 = ORIENTED_EDGE('',*,*,#39,.T.);
#39 = EDGE_CURVE('',#32,#40,#42,.T.);
#40 = VERTEX_POINT('',#41);
#41 = CARTESIAN_POINT('',(9.472818472546,-0.792597114673,-9.));
#42 = LINE('',#43,#44);
#43 = CARTESIAN_POINT('',(9.472818472546,-0.792597114673,-18.));
#44 = VECTOR('',#45,1.);
#45 = DIRECTION('',(0.,0.,1.));
#46 = ORIENTED_EDGE('',*,*,#47,.F.);
#47 = EDGE_CURVE('',#24,#40,#48,.T.);
#48 = LINE('',#49,#50);
#49 = CARTESIAN_POINT('',(5.422818472546,-7.807402885327,-9.));
#50 = VECTOR('',#51,1.);
#51 = DIRECTION('',(0.5,0.866025403784,0.));
#52 = PLANE('',#53);
#53 = AXIS2_PLACEMENT_3D('',#54,#55,#56);
#54 = CARTESIAN_POINT('',(5.422818472546,-7.807402885327,-18.));
#55 = DIRECTION('',(0.866025403784,-0.5,0.));
#56 = DIRECTION('',(0.,0.,1.));
#57 = ADVANCED_FACE('',(#58),#83,.F.);
#58 = FACE_BOUND('',#59,.F.);
#59 = EDGE_LOOP('',(#60,#68,#69,#77));
#60 = ORIENTED_EDGE('',*,*,#61,.F.);
#61 = EDGE_CURVE('',#22,#62,#64,.T.);
#62 = VERTEX_POINT('',#63);
#63 = CARTESIAN_POINT('',(6.981664199358,-8.707402885327,-18.));
#64 = LINE('',#65,#66);
#65 = CARTESIAN_POINT('',(5.422818472546,-7.807402885327,-18.));
#66 = VECTOR('',#67,1.);
#67 = DIRECTION('',(0.866025403784,-0.5,0.));
#68 = ORIENTED_EDGE('',*,*,#21,.T.);
#69 = ORIENTED_EDGE('',*,*,#70,.T.);
#70 = EDGE_CURVE('',#24,#71,#73,.T.);
#71 = VERTEX_POINT('',#72);
#72 = CARTESIAN_POINT('',(6.981664199358,-8.707402885327,-9.));
#73 = LINE('',#74,#75);
#74 = CARTESIAN_POINT('',(5.422818472546,-7.807402885327,-9.));
#75 = VECTOR('',#76,1.);
#76 = DIRECTION('',(0.866025403784,-0.5,0.));
#77 = ORIENTED_EDGE('',*,*,#78,.F.);
#78 = EDGE_CURVE('',#62,#71,#79,.T.);
#79 = LINE('',#80,#81);
#80 = CARTESIAN_POINT('',(6.981664199358,-8.707402885327,-18.));
#81 = VECTOR('',#82,1.);
#82 = DIRECTION('',(0.,0.,1.));
#83 = PLANE('',#84);
#84 = AXIS2_PLACEMENT_3D('',#85,#86,#87);
#85 = CARTESIAN_POINT('',(5.422818472546,-7.807402885327,-18.));
#86 = DIRECTION('',(0.5,0.866025403784,0.));
#87 = DIRECTION('',(0.,0.,1.));
#88 = ADVANCED_FACE('',(#89,#107),#141,.T.);
#89 = FACE_BOUND('',#90,.T.);
#90 = EDGE_LOOP('',(#91,#92,#93,#101));
#91 = ORIENTED_EDGE('',*,*,#47,.F.);
#92 = ORIENTED_EDGE('',*,*,#70,.T.);
#93 = ORIENTED_EDGE('',*,*,#94,.T.);
#94 = EDGE_CURVE('',#71,#95,#97,.T.);
#95 = VERTEX_POINT('',#96);
#96 = CARTESIAN_POINT('',(11.031664199358,-1.692597114673,-9.));
#97 = LINE('',#98,#99);
#98 = CARTESIAN_POINT('',(6.981664199358,-8.707402885327,-9.));
#99 = VECTOR('',#100,1.);
#100 = DIRECTION('',(0.5,0.866025403784,0.));
#101 = ORIENTED_EDGE('',*,*,#102,.F.);
#102 = EDGE_CURVE('',#40,#95,#103,.T.);
#103 = LINE('',#104,#105);
#104 = CARTESIAN_POINT('',(9.472818472546,-0.792597114673,-9.));
#105 = VECTOR('',#106,1.);
#106 = DIRECTION('',(0.866025403784,-0.5,0.));
#107 = FACE_BOUND('',#108,.T.);
#108 = EDGE_LOOP('',(#109,#119,#127,#135));
#109 = ORIENTED_EDGE('',*,*,#110,.F.);
#110 = EDGE_CURVE('',#111,#113,#115,.T.);
#111 = VERTEX_POINT('',#112);
#112 = CARTESIAN_POINT('',(5.832626093682,-7.697595264192,-9.));
#113 = VERTEX_POINT('',#114);
#114 = CARTESIAN_POINT('',(6.871856578223,-8.297595264192,-9.));
#115 = LINE('',#116,#117);
#116 = CARTESIAN_POINT('',(5.832626093682,-7.697595264192,-9.));
#117 = VECTOR('',#118,1.);
#118 = DIRECTION('',(0.866025403784,-0.5,0.));
#119 = ORIENTED_EDGE('',*,*,#120,.T.);
#120 = EDGE_CURVE('',#111,#121,#123,.T.);
#121 = VERTEX_POINT('',#122);
#122 = CARTESIAN_POINT('',(9.582626093682,-1.202404735808,-9.));
#123 = LINE('',#124,#125);
#124 = CARTESIAN_POINT('',(5.832626093682,-7.697595264192,-9.));
#125 = VECTOR('',#126,1.);
#126 = DIRECTION('',(0.5,0.866025403784,0.));
#127 = ORIENTED_EDGE('',*,*,#128,.T.);
#128 = EDGE_CURVE('',#121,#129,#131,.T.);
#129 = VERTEX_POINT('',#130);
#130 = CARTESIAN_POINT('',(10.621856578223,-1.802404735808,-9.));
#131 = LINE('',#132,#133);
#132 = CARTESIAN_POINT('',(9.582626093682,-1.202404735808,-9.));
#133 = VECTOR('',#134,1.);
#134 = DIRECTION('',(0.866025403784,-0.5,0.));
#135 = ORIENTED_EDGE('',*,*,#136,.F.);
#136 = EDGE_CURVE('',#113,#129,#137,.T.);
#137 = LINE('',#138,#139);
#138 = CARTESIAN_POINT('',(6.871856578223,-8.297595264192,-9.));
#139 = VECTOR('',#140,1.);
#140 = DIRECTION('',(0.5,0.866025403784,0.));
#141 = PLANE('',#142);
#142 = AXIS2_PLACEMENT_3D('',#143,#144,#145);
#143 = CARTESIAN_POINT('',(5.422818472546,-7.807402885327,-9.));
#144 = DIRECTION('',(0.,0.,1.));
#145 = DIRECTION('',(0.866025403784,-0.5,0.));
#146 = ADVANCED_FACE('',(#147),#165,.T.);
#147 = FACE_BOUND('',#148,.T.);
#148 = EDGE_LOOP('',(#149,#157,#158,#159));
#149 = ORIENTED_EDGE('',*,*,#150,.F.);
#150 = EDGE_CURVE('',#32,#151,#153,.T.);
#151 = VERTEX_POINT('',#152);
#152 = CARTESIAN_POINT('',(11.031664199358,-1.692597114673,-18.));
#153 = LINE('',#154,#155);
#154 = CARTESIAN_POINT('',(9.472818472546,-0.792597114673,-18.));
#155 = VECTOR('',#156,1.);
#156 = DIRECTION('',(0.866025403784,-0.5,0.));
#157 = ORIENTED_EDGE('',*,*,#39,.T.);
#158 = ORIENTED_EDGE('',*,*,#102,.T.);
#159 = ORIENTED_EDGE('',*,*,#160,.F.);
#160 = EDGE_CURVE('',#151,#95,#161,.T.);
#161 = LINE('',#162,#163);
#162 = CARTESIAN_POINT('',(11.031664199358,-1.692597114673,-18.));
#163 = VECTOR('',#164,1.);
#164 = DIRECTION('',(0.,0.,1.));
#165 = PLANE('',#166);
#166 = AXIS2_PLACEMENT_3D('',#167,#168,#169);
#167 = CARTESIAN_POINT('',(9.472818472546,-0.792597114673,-18.));
#168 = DIRECTION('',(0.5,0.866025403784,0.));
#169 = DIRECTION('',(0.,0.,1.));
#170 = ADVANCED_FACE('',(#171),#182,.F.);
#171 = FACE_BOUND('',#172,.F.);
#172 = EDGE_LOOP('',(#173,#174,#175,#181));
#173 = ORIENTED_EDGE('',*,*,#31,.F.);
#174 = ORIENTED_EDGE('',*,*,#61,.T.);
#175 = ORIENTED_EDGE('',*,*,#176,.T.);
#176 = EDGE_CURVE('',#62,#151,#177,.T.);
#177 = LINE('',#178,#179);
#178 = CARTESIAN_POINT('',(6.981664199358,-8.707402885327,-18.));
#179 = VECTOR('',#180,1.);
#180 = DIRECTION('',(0.5,0.866025403784,0.));
#181 = ORIENTED_EDGE('',*,*,#150,.F.);
#182 = PLANE('',#183);
#183 = AXIS2_PLACEMENT_3D('',#184,#185,#186);
#184 = CARTESIAN_POINT('',(5.422818472546,-7.807402885327,-18.));
#185 = DIRECTION('',(0.,0.,1.));
#186 = DIRECTION('',(0.866025403784,-0.5,0.));
#187 = ADVANCED_FACE('',(#188),#194,.T.);
#188 = FACE_BOUND('',#189,.T.);
#189 = EDGE_LOOP('',(#190,#191,#192,#193));
#190 = ORIENTED_EDGE('',*,*,#78,.F.);
#191 = ORIENTED_EDGE('',*,*,#176,.T.);
#192 = ORIENTED_EDGE('',*,*,#160,.T.);
#193 = ORIENTED_EDGE('',*,*,#94,.F.);
#194 = PLANE('',#195);
#195 = AXIS2_PLACEMENT_3D('',#196,#197,#198);
#196 = CARTESIAN_POINT('',(6.981664199358,-8.707402885327,-18.));
#197 = DIRECTION('',(0.866025403784,-0.5,0.));
#198 = DIRECTION('',(0.,0.,1.));
#199 = ADVANCED_FACE('',(#200),#225,.F.);
#200 = FACE_BOUND('',#201,.F.);
#201 = EDGE_LOOP('',(#202,#203,#211,#219));
#202 = ORIENTED_EDGE('',*,*,#110,.F.);
#203 = ORIENTED_EDGE('',*,*,#204,.T.);
#204 = EDGE_CURVE('',#111,#205,#207,.T.);
#205 = VERTEX_POINT('',#206);
#206 = CARTESIAN_POINT('',(5.832626093682,-7.697595264192,0.));
#207 = LINE('',#208,#209);
#208 = CARTESIAN_POINT('',(5.832626093682,-7.697595264192,-9.));
#209 = VECTOR('',#210,1.);
#210 = DIRECTION('',(0.,0.,1.));
#211 = ORIENTED_EDGE('',*,*,#212,.T.);
#212 = EDGE_CURVE('',#205,#213,#215,.T.);
#213 = VERTEX_POINT('',#214);
#214 = CARTESIAN_POINT('',(6.871856578223,-8.297595264192,0.));
#215 = LINE('',#216,#217);
#216 = CARTESIAN_POINT('',(5.832626093682,-7.697595264192,0.));
#217 = VECTOR('',#218,1.);
#218 = DIRECTION('',(0.866025403784,-0.5,0.));
#219 = ORIENTED_EDGE('',*,*,#220,.F.);
#220 = EDGE_CURVE('',#113,#213,#221,.T.);
#221 = LINE('',#222,#223);
#222 = CARTESIAN_POINT('',(6.871856578223,-8.297595264192,-9.));
#223 = VECTOR('',#224,1.);
#224 = DIRECTION('',(0.,0.,1.));
#225 = PLANE('',#226);
#226 = AXIS2_PLACEMENT_3D('',#227,#228,#229);
#227 = CARTESIAN_POINT('',(5.832626093682,-7.697595264192,-9.));
#228 = DIRECTION('',(0.5,0.866025403784,0.));
#229 = DIRECTION('',(0.,0.,1.));
#230 = ADVANCED_FACE('',(#231),#249,.T.);
#231 = FACE_BOUND('',#232,.T.);
#232 = EDGE_LOOP('',(#233,#234,#235,#243));
#233 = ORIENTED_EDGE('',*,*,#220,.F.);
#234 = ORIENTED_EDGE('',*,*,#136,.T.);
#235 = ORIENTED_EDGE('',*,*,#236,.T.);
#236 = EDGE_CURVE('',#129,#237,#239,.T.);
#237 = VERTEX_POINT('',#238);
#238 = CARTESIAN_POINT('',(10.621856578223,-1.802404735808,0.));
#239 = LINE('',#240,#241);
#240 = CARTESIAN_POINT('',(10.621856578223,-1.802404735808,-9.));
#241 = VECTOR('',#242,1.);
#242 = DIRECTION('',(0.,0.,1.));
#243 = ORIENTED_EDGE('',*,*,#244,.F.);
#244 = EDGE_CURVE('',#213,#237,#245,.T.);
#245 = LINE('',#246,#247);
#246 = CARTESIAN_POINT('',(6.871856578223,-8.297595264192,0.));
#247 = VECTOR('',#248,1.);
#248 = DIRECTION('',(0.5,0.866025403784,0.));
#249 = PLANE('',#250);
#250 = AXIS2_PLACEMENT_3D('',#251,#252,#253);
#251 = CARTESIAN_POINT('',(6.871856578223,-8.297595264192,-9.));
#252 = DIRECTION('',(0.866025403784,-0.5,0.));
#253 = DIRECTION('',(0.,0.,1.));
#254 = ADVANCED_FACE('',(#255),#273,.T.);
#255 = FACE_BOUND('',#256,.T.);
#256 = EDGE_LOOP('',(#257,#258,#266,#272));
#257 = ORIENTED_EDGE('',*,*,#128,.F.);
#258 = ORIENTED_EDGE('',*,*,#259,.T.);
#259 = EDGE_CURVE('',#121,#260,#262,.T.);
#260 = VERTEX_POINT('',#261);
#261 = CARTESIAN_POINT('',(9.582626093682,-1.202404735808,0.));
#262 = LINE('',#263,#264);
#263 = CARTESIAN_POINT('',(9.582626093682,-1.202404735808,-9.));
#264 = VECTOR('',#265,1.);
#265 = DIRECTION('',(0.,0.,1.));
#266 = ORIENTED_EDGE('',*,*,#267,.T.);
#267 = EDGE_CURVE('',#260,#237,#268,.T.);
#268 = LINE('',#269,#270);
#269 = CARTESIAN_POINT('',(9.582626093682,-1.202404735808,0.));
#270 = VECTOR('',#271,1.);
#271 = DIRECTION('',(0.866025403784,-0.5,0.));
#272 = ORIENTED_EDGE('',*,*,#236,.F.);
#273 = PLANE('',#274);
#274 = AXIS2_PLACEMENT_3D('',#275,#276,#277);
#275 = CARTESIAN_POINT('',(9.582626093682,-1.202404735808,-9.));
#276 = DIRECTION('',(0.5,0.866025403784,0.));
#277 = DIRECTION('',(0.,0.,1.));
#278 = ADVANCED_FACE('',(#279),#290,.F.);
#279 = FACE_BOUND('',#280,.F.);
#280 = EDGE_LOOP('',(#281,#282,#283,#284));
#281 = ORIENTED_EDGE('',*,*,#204,.F.);
#282 = ORIENTED_EDGE('',*,*,#120,.T.);
#283 = ORIENTED_EDGE('',*,*,#259,.T.);
#284 = ORIENTED_EDGE('',*,*,#285,.F.);
#285 = EDGE_CURVE('',#205,#260,#286,.T.);
#286 = LINE('',#287,#288);
#287 = CARTESIAN_POINT('',(5.832626093682,-7.697595264192,0.));
#288 = VECTOR('',#289,1.);
#289 = DIRECTION('',(0.5,0.866025403784,0.));
#290 = PLANE('',#291);
#291 = AXIS2_PLACEMENT_3D('',#292,#293,#294);
#292 = CARTESIAN_POINT('',(5.832626093682,-7.697595264192,-9.));
#293 = DIRECTION('',(0.866025403784,-0.5,0.));
#294 = DIRECTION('',(0.,0.,1.));
#295 = ADVANCED_FACE('',(#296,#330),#336,.F.);
#296 = FACE_BOUND('',#297,.F.);
#297 = EDGE_LOOP('',(#298,#308,#316,#324));
#298 = ORIENTED_EDGE('',*,*,#299,.F.);
#299 = EDGE_CURVE('',#300,#302,#304,.T.);
#300 = VERTEX_POINT('',#301);
#301 = CARTESIAN_POINT('',(5.422818472546,-7.807402885327,0.));
#302 = VERTEX_POINT('',#303);
#303 = CARTESIAN_POINT('',(9.472818472546,-0.792597114673,0.));
#304 = LINE('',#305,#306);
#305 = CARTESIAN_POINT('',(5.422818472546,-7.807402885327,0.));
#306 = VECTOR('',#307,1.);
#307 = DIRECTION('',(0.5,0.866025403784,0.));
#308 = ORIENTED_EDGE('',*,*,#309,.T.);
#309 = EDGE_CURVE('',#300,#310,#312,.T.);
#310 = VERTEX_POINT('',#311);
#311 = CARTESIAN_POINT('',(6.981664199358,-8.707402885327,0.));
#312 = LINE('',#313,#314);
#313 = CARTESIAN_POINT('',(5.422818472546,-7.807402885327,0.));
#314 = VECTOR('',#315,1.);
#315 = DIRECTION('',(0.866025403784,-0.5,0.));
#316 = ORIENTED_EDGE('',*,*,#317,.T.);
#317 = EDGE_CURVE('',#310,#318,#320,.T.);
#318 = VERTEX_POINT('',#319);
#319 = CARTESIAN_POINT('',(11.031664199358,-1.692597114673,0.));
#320 = LINE('',#321,#322);
#321 = CARTESIAN_POINT('',(6.981664199358,-8.707402885327,0.));
#322 = VECTOR('',#323,1.);
#323 = DIRECTION('',(0.5,0.866025403784,0.));
#324 = ORIENTED_EDGE('',*,*,#325,.F.);
#325 = EDGE_CURVE('',#302,#318,#326,.T.);
#326 = LINE('',#327,#328);
#327 = CARTESIAN_POINT('',(9.472818472546,-0.792597114673,0.));
#328 = VECTOR('',#329,1.);
#329 = DIRECTION('',(0.866025403784,-0.5,0.));
#330 = FACE_BOUND('',#331,.F.);
#331 = EDGE_LOOP('',(#332,#333,#334,#335));
#332 = ORIENTED_EDGE('',*,*,#212,.F.);
#333 = ORIENTED_EDGE('',*,*,#285,.T.);
#334 = ORIENTED_EDGE('',*,*,#267,.T.);
#335 = ORIENTED_EDGE('',*,*,#244,.F.);
#336 = PLANE('',#337);
#337 = AXIS2_PLACEMENT_3D('',#338,#339,#340);
#338 = CARTESIAN_POINT('',(5.422818472546,-7.807402885327,0.));
#339 = DIRECTION('',(0.,0.,1.));
#340 = DIRECTION('',(0.866025403784,-0.5,0.));
#341 = ADVANCED_FACE('',(#342),#367,.F.);
#342 = FACE_BOUND('',#343,.F.);
#343 = EDGE_LOOP('',(#344,#352,#353,#361));
#344 = ORIENTED_EDGE('',*,*,#345,.F.);
#345 = EDGE_CURVE('',#300,#346,#348,.T.);
#346 = VERTEX_POINT('',#347);
#347 = CARTESIAN_POINT('',(5.422818472546,-7.807402885327,1.));
#348 = LINE('',#349,#350);
#349 = CARTESIAN_POINT('',(5.422818472546,-7.807402885327,0.));
#350 = VECTOR('',#351,1.);
#351 = DIRECTION('',(0.,0.,1.));
#352 = ORIENTED_EDGE('',*,*,#299,.T.);
#353 = ORIENTED_EDGE('',*,*,#354,.T.);
#354 = EDGE_CURVE('',#302,#355,#357,.T.);
#355 = VERTEX_POINT('',#356);
#356 = CARTESIAN_POINT('',(9.472818472546,-0.792597114673,1.));
#357 = LINE('',#358,#359);
#358 = CARTESIAN_POINT('',(9.472818472546,-0.792597114673,0.));
#359 = VECTOR('',#360,1.);
#360 = DIRECTION('',(0.,0.,1.));
#361 = ORIENTED_EDGE('',*,*,#362,.T.);
#362 = EDGE_CURVE('',#355,#346,#363,.T.);
#363 = LINE('',#364,#365);
#364 = CARTESIAN_POINT('',(4.997818472546,-8.543524478544,1.));
#365 = VECTOR('',#366,1.);
#366 = DIRECTION('',(-0.5,-0.866025403784,0.));
#367 = PLANE('',#368);
#368 = AXIS2_PLACEMENT_3D('',#369,#370,#371);
#369 = CARTESIAN_POINT('',(5.422818472546,-7.807402885327,0.));
#370 = DIRECTION('',(0.866025403784,-0.5,0.));
#371 = DIRECTION('',(0.,0.,1.));
#372 = ADVANCED_FACE('',(#373),#391,.T.);
#373 = FACE_BOUND('',#374,.T.);
#374 = EDGE_LOOP('',(#375,#383,#384,#385));
#375 = ORIENTED_EDGE('',*,*,#376,.F.);
#376 = EDGE_CURVE('',#318,#377,#379,.T.);
#377 = VERTEX_POINT('',#378);
#378 = CARTESIAN_POINT('',(11.031664199358,-1.692597114673,1.));
#379 = LINE('',#380,#381);
#380 = CARTESIAN_POINT('',(11.031664199358,-1.692597114673,0.));
#381 = VECTOR('',#382,1.);
#382 = DIRECTION('',(0.,0.,1.));
#383 = ORIENTED_EDGE('',*,*,#325,.F.);
#384 = ORIENTED_EDGE('',*,*,#354,.T.);
#385 = ORIENTED_EDGE('',*,*,#386,.T.);
#386 = EDGE_CURVE('',#355,#377,#387,.T.);
#387 = LINE('',#388,#389);
#388 = CARTESIAN_POINT('',(8.996504500465,-0.517597114673,1.));
#389 = VECTOR('',#390,1.);
#390 = DIRECTION('',(0.866025403784,-0.5,0.));
#391 = PLANE('',#392);
#392 = AXIS2_PLACEMENT_3D('',#393,#394,#395);
#393 = CARTESIAN_POINT('',(9.472818472546,-0.792597114673,0.));
#394 = DIRECTION('',(0.5,0.866025403784,0.));
#395 = DIRECTION('',(0.,0.,1.));
#396 = ADVANCED_FACE('',(#397),#415,.F.);
#397 = FACE_BOUND('',#398,.F.);
#398 = EDGE_LOOP('',(#399,#407,#408,#409));
#399 = ORIENTED_EDGE('',*,*,#400,.F.);
#400 = EDGE_CURVE('',#310,#401,#403,.T.);
#401 = VERTEX_POINT('',#402);
#402 = CARTESIAN_POINT('',(6.981664199358,-8.707402885327,1.));
#403 = LINE('',#404,#405);
#404 = CARTESIAN_POINT('',(6.981664199358,-8.707402885327,0.));
#405 = VECTOR('',#406,1.);
#406 = DIRECTION('',(0.,0.,1.));
#407 = ORIENTED_EDGE('',*,*,#309,.F.);
#408 = ORIENTED_EDGE('',*,*,#345,.T.);
#409 = ORIENTED_EDGE('',*,*,#410,.T.);
#410 = EDGE_CURVE('',#346,#401,#411,.T.);
#411 = LINE('',#412,#413);
#412 = CARTESIAN_POINT('',(4.946504500465,-7.532402885327,1.));
#413 = VECTOR('',#414,1.);
#414 = DIRECTION('',(0.866025403784,-0.5,0.));
#415 = PLANE('',#416);
#416 = AXIS2_PLACEMENT_3D('',#417,#418,#419);
#417 = CARTESIAN_POINT('',(5.422818472546,-7.807402885327,0.));
#418 = DIRECTION('',(0.5,0.866025403784,0.));
#419 = DIRECTION('',(0.,0.,1.));
#420 = ADVANCED_FACE('',(#421),#432,.T.);
#421 = FACE_BOUND('',#422,.T.);
#422 = EDGE_LOOP('',(#423,#424,#425,#426));
#423 = ORIENTED_EDGE('',*,*,#400,.F.);
#424 = ORIENTED_EDGE('',*,*,#317,.T.);
#425 = ORIENTED_EDGE('',*,*,#376,.T.);
#426 = ORIENTED_EDGE('',*,*,#427,.T.);
#427 = EDGE_CURVE('',#377,#401,#428,.T.);
#428 = LINE('',#429,#430);
#429 = CARTESIAN_POINT('',(6.556664199358,-9.443524478544,1.));
#430 = VECTOR('',#431,1.);
#431 = DIRECTION('',(-0.5,-0.866025403784,0.));
#432 = PLANE('',#433);
#433 = AXIS2_PLACEMENT_3D('',#434,#435,#436);
#434 = CARTESIAN_POINT('',(6.981664199358,-8.707402885327,0.));
#435 = DIRECTION('',(0.866025403784,-0.5,0.));
#436 = DIRECTION('',(0.,0.,1.));
#437 = ADVANCED_FACE('',(#438,#472),#478,.F.);
#438 = FACE_BOUND('',#439,.F.);
#439 = EDGE_LOOP('',(#440,#450,#458,#466));
#440 = ORIENTED_EDGE('',*,*,#441,.F.);
#441 = EDGE_CURVE('',#442,#444,#446,.T.);
#442 = VERTEX_POINT('',#443);
#443 = CARTESIAN_POINT('',(3.620190528383,-8.729646071761,1.));
#444 = VERTEX_POINT('',#445);
#445 = CARTESIAN_POINT('',(9.370190528383,1.229646071761,1.));
#446 = LINE('',#447,#448);
#447 = CARTESIAN_POINT('',(3.620190528383,-8.729646071761,1.));
#448 = VECTOR('',#449,1.);
#449 = DIRECTION('',(0.5,0.866025403784,0.));
#450 = ORIENTED_EDGE('',*,*,#451,.T.);
#451 = EDGE_CURVE('',#442,#452,#454,.T.);
#452 = VERTEX_POINT('',#453);
#453 = CARTESIAN_POINT('',(7.084292143521,-10.72964607176,1.));
#454 = LINE('',#455,#456);
#455 = CARTESIAN_POINT('',(3.620190528383,-8.729646071761,1.));
#456 = VECTOR('',#457,1.);
#457 = DIRECTION('',(0.866025403784,-0.5,0.));
#458 = ORIENTED_EDGE('',*,*,#459,.T.);
#459 = EDGE_CURVE('',#452,#460,#462,.T.);
#460 = VERTEX_POINT('',#461);
#461 = CARTESIAN_POINT('',(12.834292143521,-0.770353928239,1.));
#462 = LINE('',#463,#464);
#463 = CARTESIAN_POINT('',(7.084292143521,-10.72964607176,1.));
#464 = VECTOR('',#465,1.);
#465 = DIRECTION('',(0.5,0.866025403784,0.));
#466 = ORIENTED_EDGE('',*,*,#467,.F.);
#467 = EDGE_CURVE('',#444,#460,#468,.T.);
#468 = LINE('',#469,#470);
#469 = CARTESIAN_POINT('',(9.370190528383,1.229646071761,1.));
#470 = VECTOR('',#471,1.);
#471 = DIRECTION('',(0.866025403784,-0.5,0.));
#472 = FACE_BOUND('',#473,.F.);
#473 = EDGE_LOOP('',(#474,#475,#476,#477));
#474 = ORIENTED_EDGE('',*,*,#362,.F.);
#475 = ORIENTED_EDGE('',*,*,#386,.T.);
#476 = ORIENTED_EDGE('',*,*,#427,.T.);
#477 = ORIENTED_EDGE('',*,*,#410,.F.);
#478 = PLANE('',#479);
#479 = AXIS2_PLACEMENT_3D('',#480,#481,#482);
#480 = CARTESIAN_POINT('',(3.620190528383,-8.729646071761,1.));
#481 = DIRECTION('',(0.,0.,1.));
#482 = DIRECTION('',(0.866025403784,-0.5,0.));
#483 = ADVANCED_FACE('',(#484),#509,.F.);
#484 = FACE_BOUND('',#485,.F.);
#485 = EDGE_LOOP('',(#486,#494,#495,#503));
#486 = ORIENTED_EDGE('',*,*,#487,.F.);
#487 = EDGE_CURVE('',#442,#488,#490,.T.);
#488 = VERTEX_POINT('',#489);
#489 = CARTESIAN_POINT('',(3.620190528383,-8.729646071761,2.));
#490 = LINE('',#491,#492);
#491 = CARTESIAN_POINT('',(3.620190528383,-8.729646071761,1.));
#492 = VECTOR('',#493,1.);
#493 = DIRECTION('',(0.,0.,1.));
#494 = ORIENTED_EDGE('',*,*,#441,.T.);
#495 = ORIENTED_EDGE('',*,*,#496,.T.);
#496 = EDGE_CURVE('',#444,#497,#499,.T.);
#497 = VERTEX_POINT('',#498);
#498 = CARTESIAN_POINT('',(9.370190528383,1.229646071761,2.));
#499 = LINE('',#500,#501);
#500 = CARTESIAN_POINT('',(9.370190528383,1.229646071761,1.));
#501 = VECTOR('',#502,1.);
#502 = DIRECTION('',(0.,0.,1.));
#503 = ORIENTED_EDGE('',*,*,#504,.F.);
#504 = EDGE_CURVE('',#488,#497,#505,.T.);
#505 = LINE('',#506,#507);
#506 = CARTESIAN_POINT('',(3.620190528383,-8.729646071761,2.));
#507 = VECTOR('',#508,1.);
#508 = DIRECTION('',(0.5,0.866025403784,0.));
#509 = PLANE('',#510);
#510 = AXIS2_PLACEMENT_3D('',#511,#512,#513);
#511 = CARTESIAN_POINT('',(3.620190528383,-8.729646071761,1.));
#512 = DIRECTION('',(0.866025403784,-0.5,0.));
#513 = DIRECTION('',(0.,0.,1.));
#514 = ADVANCED_FACE('',(#515),#533,.T.);
#515 = FACE_BOUND('',#516,.T.);
#516 = EDGE_LOOP('',(#517,#518,#519,#527));
#517 = ORIENTED_EDGE('',*,*,#467,.F.);
#518 = ORIENTED_EDGE('',*,*,#496,.T.);
#519 = ORIENTED_EDGE('',*,*,#520,.T.);
#520 = EDGE_CURVE('',#497,#521,#523,.T.);
#521 = VERTEX_POINT('',#522);
#522 = CARTESIAN_POINT('',(12.834292143521,-0.770353928239,2.));
#523 = LINE('',#524,#525);
#524 = CARTESIAN_POINT('',(9.370190528383,1.229646071761,2.));
#525 = VECTOR('',#526,1.);
#526 = DIRECTION('',(0.866025403784,-0.5,0.));
#527 = ORIENTED_EDGE('',*,*,#528,.F.);
#528 = EDGE_CURVE('',#460,#521,#529,.T.);
#529 = LINE('',#530,#531);
#530 = CARTESIAN_POINT('',(12.834292143521,-0.770353928239,1.));
#531 = VECTOR('',#532,1.);
#532 = DIRECTION('',(0.,0.,1.));
#533 = PLANE('',#534);
#534 = AXIS2_PLACEMENT_3D('',#535,#536,#537);
#535 = CARTESIAN_POINT('',(9.370190528383,1.229646071761,1.));
#536 = DIRECTION('',(0.5,0.866025403784,0.));
#537 = DIRECTION('',(0.,0.,1.));
#538 = ADVANCED_FACE('',(#539),#557,.F.);
#539 = FACE_BOUND('',#540,.F.);
#540 = EDGE_LOOP('',(#541,#542,#543,#551));
#541 = ORIENTED_EDGE('',*,*,#451,.F.);
#542 = ORIENTED_EDGE('',*,*,#487,.T.);
#543 = ORIENTED_EDGE('',*,*,#544,.T.);
#544 = EDGE_CURVE('',#488,#545,#547,.T.);
#545 = VERTEX_POINT('',#546);
#546 = CARTESIAN_POINT('',(7.084292143521,-10.72964607176,2.));
#547 = LINE('',#548,#549);
#548 = CARTESIAN_POINT('',(3.620190528383,-8.729646071761,2.));
#549 = VECTOR('',#550,1.);
#550 = DIRECTION('',(0.866025403784,-0.5,0.));
#551 = ORIENTED_EDGE('',*,*,#552,.F.);
#552 = EDGE_CURVE('',#452,#545,#553,.T.);
#553 = LINE('',#554,#555);
#554 = CARTESIAN_POINT('',(7.084292143521,-10.72964607176,1.));
#555 = VECTOR('',#556,1.);
#556 = DIRECTION('',(0.,0.,1.));
#557 = PLANE('',#558);
#558 = AXIS2_PLACEMENT_3D('',#559,#560,#561);
#559 = CARTESIAN_POINT('',(3.620190528383,-8.729646071761,1.));
#560 = DIRECTION('',(0.5,0.866025403784,0.));
#561 = DIRECTION('',(0.,0.,1.));
#562 = ADVANCED_FACE('',(#563),#574,.T.);
#563 = FACE_BOUND('',#564,.T.);
#564 = EDGE_LOOP('',(#565,#566,#567,#568));
#565 = ORIENTED_EDGE('',*,*,#552,.F.);
#566 = ORIENTED_EDGE('',*,*,#459,.T.);
#567 = ORIENTED_EDGE('',*,*,#528,.T.);
#568 = ORIENTED_EDGE('',*,*,#569,.F.);
#569 = EDGE_CURVE('',#545,#521,#570,.T.);
#570 = LINE('',#571,#572);
#571 = CARTESIAN_POINT('',(7.084292143521,-10.72964607176,2.));
#572 = VECTOR('',#573,1.);
#573 = DIRECTION('',(0.5,0.866025403784,0.));
#574 = PLANE('',#575);
#575 = AXIS2_PLACEMENT_3D('',#576,#577,#578);
#576 = CARTESIAN_POINT('',(7.084292143521,-10.72964607176,1.));
#577 = DIRECTION('',(0.866025403784,-0.5,0.));
#578 = DIRECTION('',(0.,0.,1.));
#579 = ADVANCED_FACE('',(#580,#586),#620,.T.);
#580 = FACE_BOUND('',#581,.T.);
#581 = EDGE_LOOP('',(#582,#583,#584,#585));
#582 = ORIENTED_EDGE('',*,*,#504,.F.);
#583 = ORIENTED_EDGE('',*,*,#544,.T.);
#584 = ORIENTED_EDGE('',*,*,#569,.T.);
#585 = ORIENTED_EDGE('',*,*,#520,.F.);
#586 = FACE_BOUND('',#587,.T.);
#587 = EDGE_LOOP('',(#588,#598,#606,#614));
#588 = ORIENTED_EDGE('',*,*,#589,.F.);
#589 = EDGE_CURVE('',#590,#592,#594,.T.);
#590 = VERTEX_POINT('',#591);
#591 = CARTESIAN_POINT('',(9.472818472546,-0.792597114673,2.));
#592 = VERTEX_POINT('',#593);
#593 = CARTESIAN_POINT('',(5.422818472546,-7.807402885327,2.));
#594 = LINE('',#595,#596);
#595 = CARTESIAN_POINT('',(4.997818472546,-8.543524478544,2.));
#596 = VECTOR('',#597,1.);
#597 = DIRECTION('',(-0.5,-0.866025403784,0.));
#598 = ORIENTED_EDGE('',*,*,#599,.T.);
#599 = EDGE_CURVE('',#590,#600,#602,.T.);
#600 = VERTEX_POINT('',#601);
#601 = CARTESIAN_POINT('',(11.031664199358,-1.692597114673,2.));
#602 = LINE('',#603,#604);
#603 = CARTESIAN_POINT('',(8.996504500465,-0.517597114673,2.));
#604 = VECTOR('',#605,1.);
#605 = DIRECTION('',(0.866025403784,-0.5,0.));
#606 = ORIENTED_EDGE('',*,*,#607,.T.);
#607 = EDGE_CURVE('',#600,#608,#610,.T.);
#608 = VERTEX_POINT('',#609);
#609 = CARTESIAN_POINT('',(6.981664199358,-8.707402885327,2.));
#610 = LINE('',#611,#612);
#611 = CARTESIAN_POINT('',(6.556664199358,-9.443524478544,2.));
#612 = VECTOR('',#613,1.);
#613 = DIRECTION('',(-0.5,-0.866025403784,0.));
#614 = ORIENTED_EDGE('',*,*,#615,.F.);
#615 = EDGE_CURVE('',#592,#608,#616,.T.);
#616 = LINE('',#617,#618);
#617 = CARTESIAN_POINT('',(4.946504500465,-7.532402885327,2.));
#618 = VECTOR('',#619,1.);
#619 = DIRECTION('',(0.866025403784,-0.5,0.));
#620 = PLANE('',#621);
#621 = AXIS2_PLACEMENT_3D('',#622,#623,#624);
#622 = CARTESIAN_POINT('',(3.620190528383,-8.729646071761,2.));
#623 = DIRECTION('',(0.,0.,1.));
#624 = DIRECTION('',(0.866025403784,-0.5,0.));
#625 = ADVANCED_FACE('',(#626),#651,.F.);
#626 = FACE_BOUND('',#627,.F.);
#627 = EDGE_LOOP('',(#628,#636,#637,#645));
#628 = ORIENTED_EDGE('',*,*,#629,.F.);
#629 = EDGE_CURVE('',#592,#630,#632,.T.);
#630 = VERTEX_POINT('',#631);
#631 = CARTESIAN_POINT('',(5.422818472546,-7.807402885327,5.));
#632 = LINE('',#633,#634);
#633 = CARTESIAN_POINT('',(5.422818472546,-7.807402885327,0.));
#634 = VECTOR('',#635,1.);
#635 = DIRECTION('',(0.,0.,1.));
#636 = ORIENTED_EDGE('',*,*,#589,.F.);
#637 = ORIENTED_EDGE('',*,*,#638,.T.);
#638 = EDGE_CURVE('',#590,#639,#641,.T.);
#639 = VERTEX_POINT('',#640);
#640 = CARTESIAN_POINT('',(9.472818472546,-0.792597114673,5.));
#641 = LINE('',#642,#643);
#642 = CARTESIAN_POINT('',(9.472818472546,-0.792597114673,0.));
#643 = VECTOR('',#644,1.);
#644 = DIRECTION('',(0.,0.,1.));
#645 = ORIENTED_EDGE('',*,*,#646,.F.);
#646 = EDGE_CURVE('',#630,#639,#647,.T.);
#647 = LINE('',#648,#649);
#648 = CARTESIAN_POINT('',(5.422818472546,-7.807402885327,5.));
#649 = VECTOR('',#650,1.);
#650 = DIRECTION('',(0.5,0.866025403784,0.));
#651 = PLANE('',#652);
#652 = AXIS2_PLACEMENT_3D('',#653,#654,#655);
#653 = CARTESIAN_POINT('',(5.422818472546,-7.807402885327,0.));
#654 = DIRECTION('',(0.866025403784,-0.5,0.));
#655 = DIRECTION('',(0.,0.,1.));
#656 = ADVANCED_FACE('',(#657),#675,.F.);
#657 = FACE_BOUND('',#658,.F.);
#658 = EDGE_LOOP('',(#659,#667,#668,#669));
#659 = ORIENTED_EDGE('',*,*,#660,.F.);
#660 = EDGE_CURVE('',#608,#661,#663,.T.);
#661 = VERTEX_POINT('',#662);
#662 = CARTESIAN_POINT('',(6.981664199358,-8.707402885327,5.));
#663 = LINE('',#664,#665);
#664 = CARTESIAN_POINT('',(6.981664199358,-8.707402885327,0.));
#665 = VECTOR('',#666,1.);
#666 = DIRECTION('',(0.,0.,1.));
#667 = ORIENTED_EDGE('',*,*,#615,.F.);
#668 = ORIENTED_EDGE('',*,*,#629,.T.);
#669 = ORIENTED_EDGE('',*,*,#670,.T.);
#670 = EDGE_CURVE('',#630,#661,#671,.T.);
#671 = LINE('',#672,#673);
#672 = CARTESIAN_POINT('',(5.422818472546,-7.807402885327,5.));
#673 = VECTOR('',#674,1.);
#674 = DIRECTION('',(0.866025403784,-0.5,0.));
#675 = PLANE('',#676);
#676 = AXIS2_PLACEMENT_3D('',#677,#678,#679);
#677 = CARTESIAN_POINT('',(5.422818472546,-7.807402885327,0.));
#678 = DIRECTION('',(0.5,0.866025403784,0.));
#679 = DIRECTION('',(0.,0.,1.));
#680 = ADVANCED_FACE('',(#681),#699,.T.);
#681 = FACE_BOUND('',#682,.T.);
#682 = EDGE_LOOP('',(#683,#684,#685,#693));
#683 = ORIENTED_EDGE('',*,*,#660,.F.);
#684 = ORIENTED_EDGE('',*,*,#607,.F.);
#685 = ORIENTED_EDGE('',*,*,#686,.T.);
#686 = EDGE_CURVE('',#600,#687,#689,.T.);
#687 = VERTEX_POINT('',#688);
#688 = CARTESIAN_POINT('',(11.031664199358,-1.692597114673,5.));
#689 = LINE('',#690,#691);
#690 = CARTESIAN_POINT('',(11.031664199358,-1.692597114673,0.));
#691 = VECTOR('',#692,1.);
#692 = DIRECTION('',(0.,0.,1.));
#693 = ORIENTED_EDGE('',*,*,#694,.F.);
#694 = EDGE_CURVE('',#661,#687,#695,.T.);
#695 = LINE('',#696,#697);
#696 = CARTESIAN_POINT('',(6.981664199358,-8.707402885327,5.));
#697 = VECTOR('',#698,1.);
#698 = DIRECTION('',(0.5,0.866025403784,0.));
#699 = PLANE('',#700);
#700 = AXIS2_PLACEMENT_3D('',#701,#702,#703);
#701 = CARTESIAN_POINT('',(6.981664199358,-8.707402885327,0.));
#702 = DIRECTION('',(0.866025403784,-0.5,0.));
#703 = DIRECTION('',(0.,0.,1.));
#704 = ADVANCED_FACE('',(#705),#716,.T.);
#705 = FACE_BOUND('',#706,.T.);
#706 = EDGE_LOOP('',(#707,#708,#709,#710));
#707 = ORIENTED_EDGE('',*,*,#686,.F.);
#708 = ORIENTED_EDGE('',*,*,#599,.F.);
#709 = ORIENTED_EDGE('',*,*,#638,.T.);
#710 = ORIENTED_EDGE('',*,*,#711,.T.);
#711 = EDGE_CURVE('',#639,#687,#712,.T.);
#712 = LINE('',#713,#714);
#713 = CARTESIAN_POINT('',(9.472818472546,-0.792597114673,5.));
#714 = VECTOR('',#715,1.);
#715 = DIRECTION('',(0.866025403784,-0.5,0.));
#716 = PLANE('',#717);
#717 = AXIS2_PLACEMENT_3D('',#718,#719,#720);
#718 = CARTESIAN_POINT('',(9.472818472546,-0.792597114673,0.));
#719 = DIRECTION('',(0.5,0.866025403784,0.));
#720 = DIRECTION('',(0.,0.,1.));
#721 = ADVANCED_FACE('',(#722),#728,.T.);
#722 = FACE_BOUND('',#723,.T.);
#723 = EDGE_LOOP('',(#724,#725,#726,#727));
#724 = ORIENTED_EDGE('',*,*,#646,.F.);
#725 = ORIENTED_EDGE('',*,*,#670,.T.);
#726 = ORIENTED_EDGE('',*,*,#694,.T.);
#727 = ORIENTED_EDGE('',*,*,#711,.F.);
#728 = PLANE('',#729);
#729 = AXIS2_PLACEMENT_3D('',#730,#731,#732);
#730 = CARTESIAN_POINT('',(5.422818472546,-7.807402885327,5.));
#731 = DIRECTION('',(0.,0.,1.));
#732 = DIRECTION('',(0.866025403784,-0.5,0.));
#733 = ( GEOMETRIC_REPRESENTATION_CONTEXT(3) 
GLOBAL_UNCERTAINTY_ASSIGNED_CONTEXT((#737)) GLOBAL_UNIT_ASSIGNED_CONTEXT
((#734,#735,#736)) REPRESENTATION_CONTEXT('Context #1',
  '3D Context with UNIT and UNCERTAINTY') );
#734 = ( LENGTH_UNIT() NAMED_UNIT(*) SI_UNIT(.MILLI.,.METRE.) );
#735 = ( NAMED_UNIT(*) PLANE_ANGLE_UNIT() SI_UNIT($,.RADIAN.) );
#736 = ( NAMED_UNIT(*) SI_UNIT($,.STERADIAN.) SOLID_ANGLE_UNIT() );
#737 = UNCERTAINTY_MEASURE_WITH_UNIT(LENGTH_MEASURE(1.E-07),#734,
  'distance_accuracy_value','confusion accuracy');
#738 = PRODUCT_RELATED_PRODUCT_CATEGORY('part',$,(#7));
ENDSEC;
END-ISO-10303-21;
