ISO-10303-21;
HEADER;
FILE_DESCRIPTION(('FreeCAD Model'),'2;1');
FILE_NAME('Open CASCADE Shape Model','2026-09-30T05:24:06',('FreeCAD'),(
    'FreeCAD'),'Open CASCADE STEP processor 7.8','FreeCAD','Unknown');
FILE_SCHEMA(('AUTOMOTIVE_DESIGN { 1 0 10303 214 1 1 1 1 }'));
ENDSEC;
DATA;
#1 = APPLICATION_PROTOCOL_DEFINITION('international standard',
  'automotive_design',2000,#2);
#2 = APPLICATION_CONTEXT(
  'core data for automotive mechanical design processes');
#3 = SHAPE_DEFINITION_REPRESENTATION(#4,#10);
#4 = PRODUCT_DEFINITION_SHAPE('','',#5);
#5 = PRODUCT_DEFINITION('design','',#6,#9);
#6 = PRODUCT_DEFINITION_FORMATION('','',#7);
#7 = PRODUCT('Open CASCADE STEP translator 7.8 26',
  'Open CASCADE STEP translator 7.8 26','',(#8));
#8 = PRODUCT_CONTEXT('',#2,'mechanical');
#9 = PRODUCT_DEFINITION_CONTEXT('part definition',#2,'design');
#10 = ADVANCED_BREP_SHAPE_REPRESENTATION('',(#11,#15),#693);
#11 = AXIS2_PLACEMENT_3D('',#12,#13,#14);
#12 = CARTESIAN_POINT('',(0.,0.,0.));
#13 = DIRECTION('',(0.,0.,1.));
#14 = DIRECTION('',(1.,0.,-0.));
#15 = MANIFOLD_SOLID_BREP('',#16);
#16 = CLOSED_SHELL('',(#17,#57,#88,#128,#159,#190,#221,#252,#283,#314,
    #345,#376,#407,#438,#469,#500,#531,#553,#584,#615,#648,#681));
#17 = ADVANCED_FACE('',(#18),#52,.F.);
#18 = FACE_BOUND('',#19,.F.);
#19 = EDGE_LOOP('',(#20,#30,#38,#46));
#20 = ORIENTED_EDGE('',*,*,#21,.T.);
#21 = EDGE_CURVE('',#22,#24,#26,.T.);
#22 = VERTEX_POINT('',#23);
#23 = CARTESIAN_POINT('',(-2.5,6.1,42.7));
#24 = VERTEX_POINT('',#25);
#25 = CARTESIAN_POINT('',(-2.5,16.1,42.7));
#26 = LINE('',#27,#28);
#27 = CARTESIAN_POINT('',(-2.5,6.1,42.7));
#28 = VECTOR('',#29,1.);
#29 = DIRECTION('',(0.,1.,0.));
#30 = ORIENTED_EDGE('',*,*,#31,.T.);
#31 = EDGE_CURVE('',#24,#32,#34,.T.);
#32 = VERTEX_POINT('',#33);
#33 = CARTESIAN_POINT('',(-1.25,16.1,52.));
#34 = LINE('',#35,#36);
#35 = CARTESIAN_POINT('',(-2.5,16.1,42.7));
#36 = VECTOR('',#37,1.);
#37 = DIRECTION('',(0.133210717496,0.,0.991087738167));
#38 = ORIENTED_EDGE('',*,*,#39,.F.);
#39 = EDGE_CURVE('',#40,#32,#42,.T.);
#40 = VERTEX_POINT('',#41);
#41 = CARTESIAN_POINT('',(-1.25,6.1,52.));
#42 = LINE('',#43,#44);
#43 = CARTESIAN_POINT('',(-1.25,6.1,52.));
#44 = VECTOR('',#45,1.);
#45 = DIRECTION('',(0.,1.,0.));
#46 = ORIENTED_EDGE('',*,*,#47,.F.);
#47 = EDGE_CURVE('',#22,#40,#48,.T.);
#48 = LINE('',#49,#50);
#49 = CARTESIAN_POINT('',(-2.5,6.1,42.7));
#50 = VECTOR('',#51,1.);
#51 = DIRECTION('',(0.133210717496,0.,0.991087738167));
#52 = PLANE('',#53);
#53 = AXIS2_PLACEMENT_3D('',#54,#55,#56);
#54 = CARTESIAN_POINT('',(-2.5,6.1,42.7));
#55 = DIRECTION('',(0.991087738167,0.,-0.133210717496));
#56 = DIRECTION('',(0.133210717496,0.,0.991087738167));
#57 = ADVANCED_FACE('',(#58),#83,.F.);
#58 = FACE_BOUND('',#59,.F.);
#59 = EDGE_LOOP('',(#60,#61,#69,#77));
#60 = ORIENTED_EDGE('',*,*,#39,.T.);
#61 = ORIENTED_EDGE('',*,*,#62,.T.);
#62 = EDGE_CURVE('',#32,#63,#65,.T.);
#63 = VERTEX_POINT('',#64);
#64 = CARTESIAN_POINT('',(-1.25,16.1,53.3));
#65 = LINE('',#66,#67);
#66 = CARTESIAN_POINT('',(-1.25,16.1,52.));
#67 = VECTOR('',#68,1.);
#68 = DIRECTION('',(0.,0.,1.));
#69 = ORIENTED_EDGE('',*,*,#70,.F.);
#70 = EDGE_CURVE('',#71,#63,#73,.T.);
#71 = VERTEX_POINT('',#72);
#72 = CARTESIAN_POINT('',(-1.25,6.1,53.3));
#73 = LINE('',#74,#75);
#74 = CARTESIAN_POINT('',(-1.25,6.1,53.3));
#75 = VECTOR('',#76,1.);
#76 = DIRECTION('',(0.,1.,0.));
#77 = ORIENTED_EDGE('',*,*,#78,.F.);
#78 = EDGE_CURVE('',#40,#71,#79,.T.);
#79 = LINE('',#80,#81);
#80 = CARTESIAN_POINT('',(-1.25,6.1,52.));
#81 = VECTOR('',#82,1.);
#82 = DIRECTION('',(0.,0.,1.));
#83 = PLANE('',#84);
#84 = AXIS2_PLACEMENT_3D('',#85,#86,#87);
#85 = CARTESIAN_POINT('',(-1.25,6.1,52.));
#86 = DIRECTION('',(1.,0.,0.));
#87 = DIRECTION('',(0.,0.,1.));
#88 = ADVANCED_FACE('',(#89),#123,.T.);
#89 = FACE_BOUND('',#90,.T.);
#90 = EDGE_LOOP('',(#91,#101,#109,#117));
#91 = ORIENTED_EDGE('',*,*,#92,.F.);
#92 = EDGE_CURVE('',#93,#95,#97,.T.);
#93 = VERTEX_POINT('',#94);
#94 = CARTESIAN_POINT('',(-2.1,16.1,41.8));
#95 = VERTEX_POINT('',#96);
#96 = CARTESIAN_POINT('',(2.1,16.1,41.8));
#97 = LINE('',#98,#99);
#98 = CARTESIAN_POINT('',(-2.5,16.1,41.8));
#99 = VECTOR('',#100,1.);
#100 = DIRECTION('',(1.,0.,0.));
#101 = ORIENTED_EDGE('',*,*,#102,.T.);
#102 = EDGE_CURVE('',#93,#103,#105,.T.);
#103 = VERTEX_POINT('',#104);
#104 = CARTESIAN_POINT('',(-2.1,6.1,41.8));
#105 = LINE('',#106,#107);
#106 = CARTESIAN_POINT('',(-2.1,6.1,41.8));
#107 = VECTOR('',#108,1.);
#108 = DIRECTION('',(0.,-1.,0.));
#109 = ORIENTED_EDGE('',*,*,#110,.T.);
#110 = EDGE_CURVE('',#103,#111,#113,.T.);
#111 = VERTEX_POINT('',#112);
#112 = CARTESIAN_POINT('',(2.1,6.1,41.8));
#113 = LINE('',#114,#115);
#114 = CARTESIAN_POINT('',(-2.5,6.1,41.8));
#115 = VECTOR('',#116,1.);
#116 = DIRECTION('',(1.,0.,0.));
#117 = ORIENTED_EDGE('',*,*,#118,.F.);
#118 = EDGE_CURVE('',#95,#111,#119,.T.);
#119 = LINE('',#120,#121);
#120 = CARTESIAN_POINT('',(2.1,6.1,41.8));
#121 = VECTOR('',#122,1.);
#122 = DIRECTION('',(0.,-1.,0.));
#123 = PLANE('',#124);
#124 = AXIS2_PLACEMENT_3D('',#125,#126,#127);
#125 = CARTESIAN_POINT('',(-2.5,6.1,41.8));
#126 = DIRECTION('',(0.,0.,1.));
#127 = DIRECTION('',(1.,0.,0.));
#128 = ADVANCED_FACE('',(#129),#154,.T.);
#129 = FACE_BOUND('',#130,.T.);
#130 = EDGE_LOOP('',(#131,#139,#147,#153));
#131 = ORIENTED_EDGE('',*,*,#132,.F.);
#132 = EDGE_CURVE('',#133,#111,#135,.T.);
#133 = VERTEX_POINT('',#134);
#134 = CARTESIAN_POINT('',(2.1,6.1,42.7));
#135 = LINE('',#136,#137);
#136 = CARTESIAN_POINT('',(2.1,6.1,42.7));
#137 = VECTOR('',#138,1.);
#138 = DIRECTION('',(0.,0.,-1.));
#139 = ORIENTED_EDGE('',*,*,#140,.T.);
#140 = EDGE_CURVE('',#133,#141,#143,.T.);
#141 = VERTEX_POINT('',#142);
#142 = CARTESIAN_POINT('',(2.1,16.1,42.7));
#143 = LINE('',#144,#145);
#144 = CARTESIAN_POINT('',(2.1,6.1,42.7));
#145 = VECTOR('',#146,1.);
#146 = DIRECTION('',(0.,1.,0.));
#147 = ORIENTED_EDGE('',*,*,#148,.T.);
#148 = EDGE_CURVE('',#141,#95,#149,.T.);
#149 = LINE('',#150,#151);
#150 = CARTESIAN_POINT('',(2.1,16.1,42.7));
#151 = VECTOR('',#152,1.);
#152 = DIRECTION('',(0.,0.,-1.));
#153 = ORIENTED_EDGE('',*,*,#118,.T.);
#154 = PLANE('',#155);
#155 = AXIS2_PLACEMENT_3D('',#156,#157,#158);
#156 = CARTESIAN_POINT('',(2.1,6.1,42.7));
#157 = DIRECTION('',(-1.,0.,0.));
#158 = DIRECTION('',(0.,0.,-1.));
#159 = ADVANCED_FACE('',(#160),#185,.F.);
#160 = FACE_BOUND('',#161,.F.);
#161 = EDGE_LOOP('',(#162,#170,#178,#184));
#162 = ORIENTED_EDGE('',*,*,#163,.F.);
#163 = EDGE_CURVE('',#164,#103,#166,.T.);
#164 = VERTEX_POINT('',#165);
#165 = CARTESIAN_POINT('',(-2.1,6.1,42.7));
#166 = LINE('',#167,#168);
#167 = CARTESIAN_POINT('',(-2.1,6.1,42.7));
#168 = VECTOR('',#169,1.);
#169 = DIRECTION('',(0.,0.,-1.));
#170 = ORIENTED_EDGE('',*,*,#171,.T.);
#171 = EDGE_CURVE('',#164,#172,#174,.T.);
#172 = VERTEX_POINT('',#173);
#173 = CARTESIAN_POINT('',(-2.1,16.1,42.7));
#174 = LINE('',#175,#176);
#175 = CARTESIAN_POINT('',(-2.1,6.1,42.7));
#176 = VECTOR('',#177,1.);
#177 = DIRECTION('',(0.,1.,0.));
#178 = ORIENTED_EDGE('',*,*,#179,.T.);
#179 = EDGE_CURVE('',#172,#93,#180,.T.);
#180 = LINE('',#181,#182);
#181 = CARTESIAN_POINT('',(-2.1,16.1,42.7));
#182 = VECTOR('',#183,1.);
#183 = DIRECTION('',(0.,0.,-1.));
#184 = ORIENTED_EDGE('',*,*,#102,.T.);
#185 = PLANE('',#186);
#186 = AXIS2_PLACEMENT_3D('',#187,#188,#189);
#187 = CARTESIAN_POINT('',(-2.1,6.1,42.7));
#188 = DIRECTION('',(-1.,0.,0.));
#189 = DIRECTION('',(0.,0.,-1.));
#190 = ADVANCED_FACE('',(#191),#216,.T.);
#191 = FACE_BOUND('',#192,.T.);
#192 = EDGE_LOOP('',(#193,#203,#209,#210));
#193 = ORIENTED_EDGE('',*,*,#194,.T.);
#194 = EDGE_CURVE('',#195,#197,#199,.T.);
#195 = VERTEX_POINT('',#196);
#196 = CARTESIAN_POINT('',(0.85,6.1,52.));
#197 = VERTEX_POINT('',#198);
#198 = CARTESIAN_POINT('',(0.85,16.1,52.));
#199 = LINE('',#200,#201);
#200 = CARTESIAN_POINT('',(0.85,6.1,52.));
#201 = VECTOR('',#202,1.);
#202 = DIRECTION('',(0.,1.,0.));
#203 = ORIENTED_EDGE('',*,*,#204,.T.);
#204 = EDGE_CURVE('',#197,#141,#205,.T.);
#205 = LINE('',#206,#207);
#206 = CARTESIAN_POINT('',(0.85,16.1,52.));
#207 = VECTOR('',#208,1.);
#208 = DIRECTION('',(0.133210717496,0.,-0.991087738167));
#209 = ORIENTED_EDGE('',*,*,#140,.F.);
#210 = ORIENTED_EDGE('',*,*,#211,.F.);
#211 = EDGE_CURVE('',#195,#133,#212,.T.);
#212 = LINE('',#213,#214);
#213 = CARTESIAN_POINT('',(0.85,6.1,52.));
#214 = VECTOR('',#215,1.);
#215 = DIRECTION('',(0.133210717496,0.,-0.991087738167));
#216 = PLANE('',#217);
#217 = AXIS2_PLACEMENT_3D('',#218,#219,#220);
#218 = CARTESIAN_POINT('',(0.85,6.1,52.));
#219 = DIRECTION('',(-0.991087738167,0.,-0.133210717496));
#220 = DIRECTION('',(0.133210717496,0.,-0.991087738167));
#221 = ADVANCED_FACE('',(#222),#247,.T.);
#222 = FACE_BOUND('',#223,.T.);
#223 = EDGE_LOOP('',(#224,#234,#240,#241));
#224 = ORIENTED_EDGE('',*,*,#225,.T.);
#225 = EDGE_CURVE('',#226,#228,#230,.T.);
#226 = VERTEX_POINT('',#227);
#227 = CARTESIAN_POINT('',(0.85,6.1,53.3));
#228 = VERTEX_POINT('',#229);
#229 = CARTESIAN_POINT('',(0.85,16.1,53.3));
#230 = LINE('',#231,#232);
#231 = CARTESIAN_POINT('',(0.85,6.1,53.3));
#232 = VECTOR('',#233,1.);
#233 = DIRECTION('',(0.,1.,0.));
#234 = ORIENTED_EDGE('',*,*,#235,.T.);
#235 = EDGE_CURVE('',#228,#197,#236,.T.);
#236 = LINE('',#237,#238);
#237 = CARTESIAN_POINT('',(0.85,16.1,53.3));
#238 = VECTOR('',#239,1.);
#239 = DIRECTION('',(0.,0.,-1.));
#240 = ORIENTED_EDGE('',*,*,#194,.F.);
#241 = ORIENTED_EDGE('',*,*,#242,.F.);
#242 = EDGE_CURVE('',#226,#195,#243,.T.);
#243 = LINE('',#244,#245);
#244 = CARTESIAN_POINT('',(0.85,6.1,53.3));
#245 = VECTOR('',#246,1.);
#246 = DIRECTION('',(0.,0.,-1.));
#247 = PLANE('',#248);
#248 = AXIS2_PLACEMENT_3D('',#249,#250,#251);
#249 = CARTESIAN_POINT('',(0.85,6.1,53.3));
#250 = DIRECTION('',(-1.,0.,0.));
#251 = DIRECTION('',(0.,0.,-1.));
#252 = ADVANCED_FACE('',(#253),#278,.T.);
#253 = FACE_BOUND('',#254,.T.);
#254 = EDGE_LOOP('',(#255,#265,#271,#272));
#255 = ORIENTED_EDGE('',*,*,#256,.T.);
#256 = EDGE_CURVE('',#257,#259,#261,.T.);
#257 = VERTEX_POINT('',#258);
#258 = CARTESIAN_POINT('',(1.2,6.1,55.3));
#259 = VERTEX_POINT('',#260);
#260 = CARTESIAN_POINT('',(1.2,16.1,55.3));
#261 = LINE('',#262,#263);
#262 = CARTESIAN_POINT('',(1.2,6.1,55.3));
#263 = VECTOR('',#264,1.);
#264 = DIRECTION('',(0.,1.,0.));
#265 = ORIENTED_EDGE('',*,*,#266,.T.);
#266 = EDGE_CURVE('',#259,#228,#267,.T.);
#267 = LINE('',#268,#269);
#268 = CARTESIAN_POINT('',(1.2,16.1,55.3));
#269 = VECTOR('',#270,1.);
#270 = DIRECTION('',(-0.172380331752,0.,-0.985030467156));
#271 = ORIENTED_EDGE('',*,*,#225,.F.);
#272 = ORIENTED_EDGE('',*,*,#273,.F.);
#273 = EDGE_CURVE('',#257,#226,#274,.T.);
#274 = LINE('',#275,#276);
#275 = CARTESIAN_POINT('',(1.2,6.1,55.3));
#276 = VECTOR('',#277,1.);
#277 = DIRECTION('',(-0.172380331752,0.,-0.985030467156));
#278 = PLANE('',#279);
#279 = AXIS2_PLACEMENT_3D('',#280,#281,#282);
#280 = CARTESIAN_POINT('',(1.2,6.1,55.3));
#281 = DIRECTION('',(-0.985030467156,0.,0.172380331752));
#282 = DIRECTION('',(-0.172380331752,0.,-0.985030467156));
#283 = ADVANCED_FACE('',(#284),#309,.T.);
#284 = FACE_BOUND('',#285,.T.);
#285 = EDGE_LOOP('',(#286,#296,#302,#303));
#286 = ORIENTED_EDGE('',*,*,#287,.T.);
#287 = EDGE_CURVE('',#288,#290,#292,.T.);
#288 = VERTEX_POINT('',#289);
#289 = CARTESIAN_POINT('',(1.6,6.1,55.3));
#290 = VERTEX_POINT('',#291);
#291 = CARTESIAN_POINT('',(1.6,16.1,55.3));
#292 = LINE('',#293,#294);
#293 = CARTESIAN_POINT('',(1.6,6.1,55.3));
#294 = VECTOR('',#295,1.);
#295 = DIRECTION('',(0.,1.,0.));
#296 = ORIENTED_EDGE('',*,*,#297,.T.);
#297 = EDGE_CURVE('',#290,#259,#298,.T.);
#298 = LINE('',#299,#300);
#299 = CARTESIAN_POINT('',(1.6,16.1,55.3));
#300 = VECTOR('',#301,1.);
#301 = DIRECTION('',(-1.,0.,0.));
#302 = ORIENTED_EDGE('',*,*,#256,.F.);
#303 = ORIENTED_EDGE('',*,*,#304,.F.);
#304 = EDGE_CURVE('',#288,#257,#305,.T.);
#305 = LINE('',#306,#307);
#306 = CARTESIAN_POINT('',(1.6,6.1,55.3));
#307 = VECTOR('',#308,1.);
#308 = DIRECTION('',(-1.,0.,0.));
#309 = PLANE('',#310);
#310 = AXIS2_PLACEMENT_3D('',#311,#312,#313);
#311 = CARTESIAN_POINT('',(1.6,6.1,55.3));
#312 = DIRECTION('',(0.,0.,1.));
#313 = DIRECTION('',(-1.,0.,0.));
#314 = ADVANCED_FACE('',(#315),#340,.T.);
#315 = FACE_BOUND('',#316,.T.);
#316 = EDGE_LOOP('',(#317,#327,#333,#334));
#317 = ORIENTED_EDGE('',*,*,#318,.T.);
#318 = EDGE_CURVE('',#319,#321,#323,.T.);
#319 = VERTEX_POINT('',#320);
#320 = CARTESIAN_POINT('',(1.25,6.1,53.3));
#321 = VERTEX_POINT('',#322);
#322 = CARTESIAN_POINT('',(1.25,16.1,53.3));
#323 = LINE('',#324,#325);
#324 = CARTESIAN_POINT('',(1.25,6.1,53.3));
#325 = VECTOR('',#326,1.);
#326 = DIRECTION('',(0.,1.,0.));
#327 = ORIENTED_EDGE('',*,*,#328,.T.);
#328 = EDGE_CURVE('',#321,#290,#329,.T.);
#329 = LINE('',#330,#331);
#330 = CARTESIAN_POINT('',(1.25,16.1,53.3));
#331 = VECTOR('',#332,1.);
#332 = DIRECTION('',(0.172380331752,0.,0.985030467156));
#333 = ORIENTED_EDGE('',*,*,#287,.F.);
#334 = ORIENTED_EDGE('',*,*,#335,.F.);
#335 = EDGE_CURVE('',#319,#288,#336,.T.);
#336 = LINE('',#337,#338);
#337 = CARTESIAN_POINT('',(1.25,6.1,53.3));
#338 = VECTOR('',#339,1.);
#339 = DIRECTION('',(0.172380331752,0.,0.985030467156));
#340 = PLANE('',#341);
#341 = AXIS2_PLACEMENT_3D('',#342,#343,#344);
#342 = CARTESIAN_POINT('',(1.25,6.1,53.3));
#343 = DIRECTION('',(0.985030467156,0.,-0.172380331752));
#344 = DIRECTION('',(0.172380331752,0.,0.985030467156));
#345 = ADVANCED_FACE('',(#346),#371,.T.);
#346 = FACE_BOUND('',#347,.T.);
#347 = EDGE_LOOP('',(#348,#358,#364,#365));
#348 = ORIENTED_EDGE('',*,*,#349,.T.);
#349 = EDGE_CURVE('',#350,#352,#354,.T.);
#350 = VERTEX_POINT('',#351);
#351 = CARTESIAN_POINT('',(1.25,6.1,52.));
#352 = VERTEX_POINT('',#353);
#353 = CARTESIAN_POINT('',(1.25,16.1,52.));
#354 = LINE('',#355,#356);
#355 = CARTESIAN_POINT('',(1.25,6.1,52.));
#356 = VECTOR('',#357,1.);
#357 = DIRECTION('',(0.,1.,0.));
#358 = ORIENTED_EDGE('',*,*,#359,.T.);
#359 = EDGE_CURVE('',#352,#321,#360,.T.);
#360 = LINE('',#361,#362);
#361 = CARTESIAN_POINT('',(1.25,16.1,52.));
#362 = VECTOR('',#363,1.);
#363 = DIRECTION('',(0.,0.,1.));
#364 = ORIENTED_EDGE('',*,*,#318,.F.);
#365 = ORIENTED_EDGE('',*,*,#366,.F.);
#366 = EDGE_CURVE('',#350,#319,#367,.T.);
#367 = LINE('',#368,#369);
#368 = CARTESIAN_POINT('',(1.25,6.1,52.));
#369 = VECTOR('',#370,1.);
#370 = DIRECTION('',(0.,0.,1.));
#371 = PLANE('',#372);
#372 = AXIS2_PLACEMENT_3D('',#373,#374,#375);
#373 = CARTESIAN_POINT('',(1.25,6.1,52.));
#374 = DIRECTION('',(1.,0.,0.));
#375 = DIRECTION('',(0.,0.,1.));
#376 = ADVANCED_FACE('',(#377),#402,.T.);
#377 = FACE_BOUND('',#378,.T.);
#378 = EDGE_LOOP('',(#379,#389,#395,#396));
#379 = ORIENTED_EDGE('',*,*,#380,.T.);
#380 = EDGE_CURVE('',#381,#383,#385,.T.);
#381 = VERTEX_POINT('',#382);
#382 = CARTESIAN_POINT('',(2.5,6.1,42.7));
#383 = VERTEX_POINT('',#384);
#384 = CARTESIAN_POINT('',(2.5,16.1,42.7));
#385 = LINE('',#386,#387);
#386 = CARTESIAN_POINT('',(2.5,6.1,42.7));
#387 = VECTOR('',#388,1.);
#388 = DIRECTION('',(0.,1.,0.));
#389 = ORIENTED_EDGE('',*,*,#390,.T.);
#390 = EDGE_CURVE('',#383,#352,#391,.T.);
#391 = LINE('',#392,#393);
#392 = CARTESIAN_POINT('',(2.5,16.1,42.7));
#393 = VECTOR('',#394,1.);
#394 = DIRECTION('',(-0.133210717496,0.,0.991087738167));
#395 = ORIENTED_EDGE('',*,*,#349,.F.);
#396 = ORIENTED_EDGE('',*,*,#397,.F.);
#397 = EDGE_CURVE('',#381,#350,#398,.T.);
#398 = LINE('',#399,#400);
#399 = CARTESIAN_POINT('',(2.5,6.1,42.7));
#400 = VECTOR('',#401,1.);
#401 = DIRECTION('',(-0.133210717496,0.,0.991087738167));
#402 = PLANE('',#403);
#403 = AXIS2_PLACEMENT_3D('',#404,#405,#406);
#404 = CARTESIAN_POINT('',(2.5,6.1,42.7));
#405 = DIRECTION('',(0.991087738167,0.,0.133210717496));
#406 = DIRECTION('',(-0.133210717496,0.,0.991087738167));
#407 = ADVANCED_FACE('',(#408),#433,.F.);
#408 = FACE_BOUND('',#409,.F.);
#409 = EDGE_LOOP('',(#410,#420,#426,#427));
#410 = ORIENTED_EDGE('',*,*,#411,.T.);
#411 = EDGE_CURVE('',#412,#414,#416,.T.);
#412 = VERTEX_POINT('',#413);
#413 = CARTESIAN_POINT('',(-0.85,6.1,52.));
#414 = VERTEX_POINT('',#415);
#415 = CARTESIAN_POINT('',(-0.85,16.1,52.));
#416 = LINE('',#417,#418);
#417 = CARTESIAN_POINT('',(-0.85,6.1,52.));
#418 = VECTOR('',#419,1.);
#419 = DIRECTION('',(0.,1.,0.));
#420 = ORIENTED_EDGE('',*,*,#421,.T.);
#421 = EDGE_CURVE('',#414,#172,#422,.T.);
#422 = LINE('',#423,#424);
#423 = CARTESIAN_POINT('',(-0.85,16.1,52.));
#424 = VECTOR('',#425,1.);
#425 = DIRECTION('',(-0.133210717496,0.,-0.991087738167));
#426 = ORIENTED_EDGE('',*,*,#171,.F.);
#427 = ORIENTED_EDGE('',*,*,#428,.F.);
#428 = EDGE_CURVE('',#412,#164,#429,.T.);
#429 = LINE('',#430,#431);
#430 = CARTESIAN_POINT('',(-0.85,6.1,52.));
#431 = VECTOR('',#432,1.);
#432 = DIRECTION('',(-0.133210717496,0.,-0.991087738167));
#433 = PLANE('',#434);
#434 = AXIS2_PLACEMENT_3D('',#435,#436,#437);
#435 = CARTESIAN_POINT('',(-0.85,6.1,52.));
#436 = DIRECTION('',(-0.991087738167,0.,0.133210717496));
#437 = DIRECTION('',(-0.133210717496,0.,-0.991087738167));
#438 = ADVANCED_FACE('',(#439),#464,.F.);
#439 = FACE_BOUND('',#440,.F.);
#440 = EDGE_LOOP('',(#441,#451,#457,#458));
#441 = ORIENTED_EDGE('',*,*,#442,.T.);
#442 = EDGE_CURVE('',#443,#445,#447,.T.);
#443 = VERTEX_POINT('',#444);
#444 = CARTESIAN_POINT('',(-0.85,6.1,53.3));
#445 = VERTEX_POINT('',#446);
#446 = CARTESIAN_POINT('',(-0.85,16.1,53.3));
#447 = LINE('',#448,#449);
#448 = CARTESIAN_POINT('',(-0.85,6.1,53.3));
#449 = VECTOR('',#450,1.);
#450 = DIRECTION('',(0.,1.,0.));
#451 = ORIENTED_EDGE('',*,*,#452,.T.);
#452 = EDGE_CURVE('',#445,#414,#453,.T.);
#453 = LINE('',#454,#455);
#454 = CARTESIAN_POINT('',(-0.85,16.1,53.3));
#455 = VECTOR('',#456,1.);
#456 = DIRECTION('',(0.,0.,-1.));
#457 = ORIENTED_EDGE('',*,*,#411,.F.);
#458 = ORIENTED_EDGE('',*,*,#459,.F.);
#459 = EDGE_CURVE('',#443,#412,#460,.T.);
#460 = LINE('',#461,#462);
#461 = CARTESIAN_POINT('',(-0.85,6.1,53.3));
#462 = VECTOR('',#463,1.);
#463 = DIRECTION('',(0.,0.,-1.));
#464 = PLANE('',#465);
#465 = AXIS2_PLACEMENT_3D('',#466,#467,#468);
#466 = CARTESIAN_POINT('',(-0.85,6.1,53.3));
#467 = DIRECTION('',(-1.,0.,0.));
#468 = DIRECTION('',(0.,0.,-1.));
#469 = ADVANCED_FACE('',(#470),#495,.F.);
#470 = FACE_BOUND('',#471,.F.);
#471 = EDGE_LOOP('',(#472,#482,#488,#489));
#472 = ORIENTED_EDGE('',*,*,#473,.T.);
#473 = EDGE_CURVE('',#474,#476,#478,.T.);
#474 = VERTEX_POINT('',#475);
#475 = CARTESIAN_POINT('',(-1.2,6.1,55.3));
#476 = VERTEX_POINT('',#477);
#477 = CARTESIAN_POINT('',(-1.2,16.1,55.3));
#478 = LINE('',#479,#480);
#479 = CARTESIAN_POINT('',(-1.2,6.1,55.3));
#480 = VECTOR('',#481,1.);
#481 = DIRECTION('',(0.,1.,0.));
#482 = ORIENTED_EDGE('',*,*,#483,.T.);
#483 = EDGE_CURVE('',#476,#445,#484,.T.);
#484 = LINE('',#485,#486);
#485 = CARTESIAN_POINT('',(-1.2,16.1,55.3));
#486 = VECTOR('',#487,1.);
#487 = DIRECTION('',(0.172380331752,0.,-0.985030467156));
#488 = ORIENTED_EDGE('',*,*,#442,.F.);
#489 = ORIENTED_EDGE('',*,*,#490,.F.);
#490 = EDGE_CURVE('',#474,#443,#491,.T.);
#491 = LINE('',#492,#493);
#492 = CARTESIAN_POINT('',(-1.2,6.1,55.3));
#493 = VECTOR('',#494,1.);
#494 = DIRECTION('',(0.172380331752,0.,-0.985030467156));
#495 = PLANE('',#496);
#496 = AXIS2_PLACEMENT_3D('',#497,#498,#499);
#497 = CARTESIAN_POINT('',(-1.2,6.1,55.3));
#498 = DIRECTION('',(-0.985030467156,0.,-0.172380331752));
#499 = DIRECTION('',(0.172380331752,0.,-0.985030467156));
#500 = ADVANCED_FACE('',(#501),#526,.F.);
#501 = FACE_BOUND('',#502,.F.);
#502 = EDGE_LOOP('',(#503,#513,#519,#520));
#503 = ORIENTED_EDGE('',*,*,#504,.T.);
#504 = EDGE_CURVE('',#505,#507,#509,.T.);
#505 = VERTEX_POINT('',#506);
#506 = CARTESIAN_POINT('',(-1.6,6.1,55.3));
#507 = VERTEX_POINT('',#508);
#508 = CARTESIAN_POINT('',(-1.6,16.1,55.3));
#509 = LINE('',#510,#511);
#510 = CARTESIAN_POINT('',(-1.6,6.1,55.3));
#511 = VECTOR('',#512,1.);
#512 = DIRECTION('',(0.,1.,0.));
#513 = ORIENTED_EDGE('',*,*,#514,.T.);
#514 = EDGE_CURVE('',#507,#476,#515,.T.);
#515 = LINE('',#516,#517);
#516 = CARTESIAN_POINT('',(-1.6,16.1,55.3));
#517 = VECTOR('',#518,1.);
#518 = DIRECTION('',(1.,0.,0.));
#519 = ORIENTED_EDGE('',*,*,#473,.F.);
#520 = ORIENTED_EDGE('',*,*,#521,.F.);
#521 = EDGE_CURVE('',#505,#474,#522,.T.);
#522 = LINE('',#523,#524);
#523 = CARTESIAN_POINT('',(-1.6,6.1,55.3));
#524 = VECTOR('',#525,1.);
#525 = DIRECTION('',(1.,0.,0.));
#526 = PLANE('',#527);
#527 = AXIS2_PLACEMENT_3D('',#528,#529,#530);
#528 = CARTESIAN_POINT('',(-1.6,6.1,55.3));
#529 = DIRECTION('',(0.,0.,-1.));
#530 = DIRECTION('',(1.,0.,0.));
#531 = ADVANCED_FACE('',(#532),#548,.F.);
#532 = FACE_BOUND('',#533,.F.);
#533 = EDGE_LOOP('',(#534,#535,#541,#542));
#534 = ORIENTED_EDGE('',*,*,#70,.T.);
#535 = ORIENTED_EDGE('',*,*,#536,.T.);
#536 = EDGE_CURVE('',#63,#507,#537,.T.);
#537 = LINE('',#538,#539);
#538 = CARTESIAN_POINT('',(-1.25,16.1,53.3));
#539 = VECTOR('',#540,1.);
#540 = DIRECTION('',(-0.172380331752,0.,0.985030467156));
#541 = ORIENTED_EDGE('',*,*,#504,.F.);
#542 = ORIENTED_EDGE('',*,*,#543,.F.);
#543 = EDGE_CURVE('',#71,#505,#544,.T.);
#544 = LINE('',#545,#546);
#545 = CARTESIAN_POINT('',(-1.25,6.1,53.3));
#546 = VECTOR('',#547,1.);
#547 = DIRECTION('',(-0.172380331752,0.,0.985030467156));
#548 = PLANE('',#549);
#549 = AXIS2_PLACEMENT_3D('',#550,#551,#552);
#550 = CARTESIAN_POINT('',(-1.25,6.1,53.3));
#551 = DIRECTION('',(0.985030467156,0.,0.172380331752));
#552 = DIRECTION('',(-0.172380331752,0.,0.985030467156));
#553 = ADVANCED_FACE('',(#554),#579,.T.);
#554 = FACE_BOUND('',#555,.T.);
#555 = EDGE_LOOP('',(#556,#564,#565,#573));
#556 = ORIENTED_EDGE('',*,*,#557,.T.);
#557 = EDGE_CURVE('',#558,#22,#560,.T.);
#558 = VERTEX_POINT('',#559);
#559 = CARTESIAN_POINT('',(-2.5,6.1,40.5));
#560 = LINE('',#561,#562);
#561 = CARTESIAN_POINT('',(-2.5,6.1,40.5));
#562 = VECTOR('',#563,1.);
#563 = DIRECTION('',(0.,0.,1.));
#564 = ORIENTED_EDGE('',*,*,#21,.T.);
#565 = ORIENTED_EDGE('',*,*,#566,.F.);
#566 = EDGE_CURVE('',#567,#24,#569,.T.);
#567 = VERTEX_POINT('',#568);
#568 = CARTESIAN_POINT('',(-2.5,16.1,40.5));
#569 = LINE('',#570,#571);
#570 = CARTESIAN_POINT('',(-2.5,16.1,41.7));
#571 = VECTOR('',#572,1.);
#572 = DIRECTION('',(0.,0.,1.));
#573 = ORIENTED_EDGE('',*,*,#574,.F.);
#574 = EDGE_CURVE('',#558,#567,#575,.T.);
#575 = LINE('',#576,#577);
#576 = CARTESIAN_POINT('',(-2.5,6.1,40.5));
#577 = VECTOR('',#578,1.);
#578 = DIRECTION('',(0.,1.,0.));
#579 = PLANE('',#580);
#580 = AXIS2_PLACEMENT_3D('',#581,#582,#583);
#581 = CARTESIAN_POINT('',(-2.5,11.1,41.6));
#582 = DIRECTION('',(-1.,-0.,-0.));
#583 = DIRECTION('',(0.,0.,-1.));
#584 = ADVANCED_FACE('',(#585),#610,.F.);
#585 = FACE_BOUND('',#586,.F.);
#586 = EDGE_LOOP('',(#587,#588,#596,#604));
#587 = ORIENTED_EDGE('',*,*,#574,.F.);
#588 = ORIENTED_EDGE('',*,*,#589,.T.);
#589 = EDGE_CURVE('',#558,#590,#592,.T.);
#590 = VERTEX_POINT('',#591);
#591 = CARTESIAN_POINT('',(2.5,6.1,40.5));
#592 = LINE('',#593,#594);
#593 = CARTESIAN_POINT('',(-2.5,6.1,40.5));
#594 = VECTOR('',#595,1.);
#595 = DIRECTION('',(1.,0.,0.));
#596 = ORIENTED_EDGE('',*,*,#597,.T.);
#597 = EDGE_CURVE('',#590,#598,#600,.T.);
#598 = VERTEX_POINT('',#599);
#599 = CARTESIAN_POINT('',(2.5,16.1,40.5));
#600 = LINE('',#601,#602);
#601 = CARTESIAN_POINT('',(2.5,6.1,40.5));
#602 = VECTOR('',#603,1.);
#603 = DIRECTION('',(0.,1.,0.));
#604 = ORIENTED_EDGE('',*,*,#605,.F.);
#605 = EDGE_CURVE('',#567,#598,#606,.T.);
#606 = LINE('',#607,#608);
#607 = CARTESIAN_POINT('',(-2.5,16.1,40.5));
#608 = VECTOR('',#609,1.);
#609 = DIRECTION('',(1.,0.,0.));
#610 = PLANE('',#611);
#611 = AXIS2_PLACEMENT_3D('',#612,#613,#614);
#612 = CARTESIAN_POINT('',(-2.5,6.1,40.5));
#613 = DIRECTION('',(0.,0.,1.));
#614 = DIRECTION('',(1.,0.,0.));
#615 = ADVANCED_FACE('',(#616),#643,.T.);
#616 = FACE_BOUND('',#617,.T.);
#617 = EDGE_LOOP('',(#618,#624,#625,#626,#627,#628,#629,#630,#631,#632,
    #633,#634,#635,#636,#637,#638,#639,#640,#641,#642));
#618 = ORIENTED_EDGE('',*,*,#619,.T.);
#619 = EDGE_CURVE('',#590,#381,#620,.T.);
#620 = LINE('',#621,#622);
#621 = CARTESIAN_POINT('',(2.5,6.1,40.5));
#622 = VECTOR('',#623,1.);
#623 = DIRECTION('',(0.,0.,1.));
#624 = ORIENTED_EDGE('',*,*,#397,.T.);
#625 = ORIENTED_EDGE('',*,*,#366,.T.);
#626 = ORIENTED_EDGE('',*,*,#335,.T.);
#627 = ORIENTED_EDGE('',*,*,#304,.T.);
#628 = ORIENTED_EDGE('',*,*,#273,.T.);
#629 = ORIENTED_EDGE('',*,*,#242,.T.);
#630 = ORIENTED_EDGE('',*,*,#211,.T.);
#631 = ORIENTED_EDGE('',*,*,#132,.T.);
#632 = ORIENTED_EDGE('',*,*,#110,.F.);
#633 = ORIENTED_EDGE('',*,*,#163,.F.);
#634 = ORIENTED_EDGE('',*,*,#428,.F.);
#635 = ORIENTED_EDGE('',*,*,#459,.F.);
#636 = ORIENTED_EDGE('',*,*,#490,.F.);
#637 = ORIENTED_EDGE('',*,*,#521,.F.);
#638 = ORIENTED_EDGE('',*,*,#543,.F.);
#639 = ORIENTED_EDGE('',*,*,#78,.F.);
#640 = ORIENTED_EDGE('',*,*,#47,.F.);
#641 = ORIENTED_EDGE('',*,*,#557,.F.);
#642 = ORIENTED_EDGE('',*,*,#589,.T.);
#643 = PLANE('',#644);
#644 = AXIS2_PLACEMENT_3D('',#645,#646,#647);
#645 = CARTESIAN_POINT('',(-1.5E-16,6.1,47.325020235939));
#646 = DIRECTION('',(-0.,-1.,-0.));
#647 = DIRECTION('',(0.,0.,-1.));
#648 = ADVANCED_FACE('',(#649),#676,.T.);
#649 = FACE_BOUND('',#650,.T.);
#650 = EDGE_LOOP('',(#651,#652,#653,#654,#655,#656,#657,#658,#659,#660,
    #661,#662,#663,#664,#665,#666,#667,#668,#669,#670));
#651 = ORIENTED_EDGE('',*,*,#605,.F.);
#652 = ORIENTED_EDGE('',*,*,#566,.T.);
#653 = ORIENTED_EDGE('',*,*,#31,.T.);
#654 = ORIENTED_EDGE('',*,*,#62,.T.);
#655 = ORIENTED_EDGE('',*,*,#536,.T.);
#656 = ORIENTED_EDGE('',*,*,#514,.T.);
#657 = ORIENTED_EDGE('',*,*,#483,.T.);
#658 = ORIENTED_EDGE('',*,*,#452,.T.);
#659 = ORIENTED_EDGE('',*,*,#421,.T.);
#660 = ORIENTED_EDGE('',*,*,#179,.T.);
#661 = ORIENTED_EDGE('',*,*,#92,.T.);
#662 = ORIENTED_EDGE('',*,*,#148,.F.);
#663 = ORIENTED_EDGE('',*,*,#204,.F.);
#664 = ORIENTED_EDGE('',*,*,#235,.F.);
#665 = ORIENTED_EDGE('',*,*,#266,.F.);
#666 = ORIENTED_EDGE('',*,*,#297,.F.);
#667 = ORIENTED_EDGE('',*,*,#328,.F.);
#668 = ORIENTED_EDGE('',*,*,#359,.F.);
#669 = ORIENTED_EDGE('',*,*,#390,.F.);
#670 = ORIENTED_EDGE('',*,*,#671,.F.);
#671 = EDGE_CURVE('',#598,#383,#672,.T.);
#672 = LINE('',#673,#674);
#673 = CARTESIAN_POINT('',(2.5,16.1,41.7));
#674 = VECTOR('',#675,1.);
#675 = DIRECTION('',(0.,0.,1.));
#676 = PLANE('',#677);
#677 = AXIS2_PLACEMENT_3D('',#678,#679,#680);
#678 = CARTESIAN_POINT('',(4.E-17,16.1,47.325020235939));
#679 = DIRECTION('',(0.,1.,0.));
#680 = DIRECTION('',(0.,0.,1.));
#681 = ADVANCED_FACE('',(#682),#688,.T.);
#682 = FACE_BOUND('',#683,.T.);
#683 = EDGE_LOOP('',(#684,#685,#686,#687));
#684 = ORIENTED_EDGE('',*,*,#619,.F.);
#685 = ORIENTED_EDGE('',*,*,#597,.T.);
#686 = ORIENTED_EDGE('',*,*,#671,.T.);
#687 = ORIENTED_EDGE('',*,*,#380,.F.);
#688 = PLANE('',#689);
#689 = AXIS2_PLACEMENT_3D('',#690,#691,#692);
#690 = CARTESIAN_POINT('',(2.5,11.1,41.6));
#691 = DIRECTION('',(1.,0.,0.));
#692 = DIRECTION('',(0.,0.,1.));
#693 = ( GEOMETRIC_REPRESENTATION_CONTEXT(3) 
GLOBAL_UNCERTAINTY_ASSIGNED_CONTEXT((#697)) GLOBAL_UNIT_ASSIGNED_CONTEXT
((#694,#695,#696)) REPRESENTATION_CONTEXT('Context #1',
  '3D Context with UNIT and UNCERTAINTY') );
#694 = ( LENGTH_UNIT() NAMED_UNIT(*) SI_UNIT(.MILLI.,.METRE.) );
#695 = ( NAMED_UNIT(*) PLANE_ANGLE_UNIT() SI_UNIT($,.RADIAN.) );
#696 = ( NAMED_UNIT(*) SI_UNIT($,.STERADIAN.) SOLID_ANGLE_UNIT() );
#697 = UNCERTAINTY_MEASURE_WITH_UNIT(LENGTH_MEASURE(1.E-07),#694,
  'distance_accuracy_value','confusion accuracy');
#698 = PRODUCT_RELATED_PRODUCT_CATEGORY('part',$,(#7));
ENDSEC;
END-ISO-10303-21;
