ISO-10303-21;
HEADER;
FILE_DESCRIPTION(('FreeCAD Model'),'2;1');
FILE_NAME('Open CASCADE Shape Model','2026-09-30T05:24:06',('FreeCAD'),(
    'FreeCAD'),'Open CASCADE STEP processor 7.8','FreeCAD','Unknown');
FILE_SCHEMA(('AUTOMOTIVE_DESIGN { 1 0 10303 214 1 1 1 1 }'));
ENDSEC;
DATA;
#1 = APPLICATION_PROTOCOL_DEFINITION('international standard',
  'automotive_design',2000,#2);
#2 = APPLICATION_CONTEXT(
  'core data for automotive mechanical design processes');
#3 = SHAPE_DEFINITION_REPRESENTATION(#4,#10);
#4 = PRODUCT_DEFINITION_SHAPE('','',#5);
#5 = PRODUCT_DEFINITION('design','',#6,#9);
#6 = PRODUCT_DEFINITION_FORMATION('','',#7);
#7 = PRODUCT('Open CASCADE STEP translator 7.8 24',
  'Open CASCADE STEP translator 7.8 24','',(#8));
#8 = PRODUCT_CONTEXT('',#2,'mechanical');
#9 = PRODUCT_DEFINITION_CONTEXT('part definition',#2,'design');
#10 = ADVANCED_BREP_SHAPE_REPRESENTATION('',(#11,#15),#1496);
#11 = AXIS2_PLACEMENT_3D('',#12,#13,#14);
#12 = CARTESIAN_POINT('',(0.,0.,0.));
#13 = DIRECTION('',(0.,0.,1.));
#14 = DIRECTION('',(1.,0.,-0.));
#15 = MANIFOLD_SOLID_BREP('',#16);
#16 = CLOSED_SHELL('',(#17,#57,#120,#151,#232,#377,#410,#441,#458,#475,
    #492,#509,#526,#543,#574,#605,#629,#653,#677,#701,#725,#749,#773,
    #797,#836,#867,#921,#952,#983,#1014,#1047,#1080,#1113,#1166,#1215,
    #1246,#1278,#1302,#1326,#1344,#1368,#1378,#1423,#1436,#1470,#1484));
#17 = ADVANCED_FACE('',(#18),#52,.F.);
#18 = FACE_BOUND('',#19,.T.);
#19 = EDGE_LOOP('',(#20,#30,#38,#46));
#20 = ORIENTED_EDGE('',*,*,#21,.T.);
#21 = EDGE_CURVE('',#22,#24,#26,.T.);
#22 = VERTEX_POINT('',#23);
#23 = CARTESIAN_POINT('',(7.892304845413,-10.33012701892,46.2));
#24 = VERTEX_POINT('',#25);
#25 = CARTESIAN_POINT('',(12.892304845413,-1.669872981078,46.2));
#26 = LINE('',#27,#28);
#27 = CARTESIAN_POINT('',(7.892304845413,-10.33012701892,46.2));
#28 = VECTOR('',#29,1.);
#29 = DIRECTION('',(0.5,0.866025403784,0.));
#30 = ORIENTED_EDGE('',*,*,#31,.T.);
#31 = EDGE_CURVE('',#24,#32,#34,.T.);
#32 = VERTEX_POINT('',#33);
#33 = CARTESIAN_POINT('',(11.809773090683,-1.044872981078,52.));
#34 = LINE('',#35,#36);
#35 = CARTESIAN_POINT('',(12.892304845413,-1.669872981078,46.2));
#36 = VECTOR('',#37,1.);
#37 = DIRECTION('',(-0.182454210955,0.10533998781,0.977555086874));
#38 = ORIENTED_EDGE('',*,*,#39,.F.);
#39 = EDGE_CURVE('',#40,#32,#42,.T.);
#40 = VERTEX_POINT('',#41);
#41 = CARTESIAN_POINT('',(6.809773090683,-9.705127018922,52.));
#42 = LINE('',#43,#44);
#43 = CARTESIAN_POINT('',(6.809773090683,-9.705127018922,52.));
#44 = VECTOR('',#45,1.);
#45 = DIRECTION('',(0.5,0.866025403784,0.));
#46 = ORIENTED_EDGE('',*,*,#47,.F.);
#47 = EDGE_CURVE('',#22,#40,#48,.T.);
#48 = LINE('',#49,#50);
#49 = CARTESIAN_POINT('',(7.892304845413,-10.33012701892,46.2));
#50 = VECTOR('',#51,1.);
#51 = DIRECTION('',(-0.182454210955,0.10533998781,0.977555086874));
#52 = PLANE('',#53);
#53 = AXIS2_PLACEMENT_3D('',#54,#55,#56);
#54 = CARTESIAN_POINT('',(7.892304845413,-10.33012701892,46.2));
#55 = DIRECTION('',(-0.846587538831,0.488777543437,-0.210679975619));
#56 = DIRECTION('',(0.182454210955,-0.10533998781,-0.977555086874));
#57 = ADVANCED_FACE('',(#58),#115,.T.);
#58 = FACE_BOUND('',#59,.F.);
#59 = EDGE_LOOP('',(#60,#70,#76,#77,#85,#93,#101,#109));
#60 = ORIENTED_EDGE('',*,*,#61,.F.);
#61 = EDGE_CURVE('',#62,#64,#66,.T.);
#62 = VERTEX_POINT('',#63);
#63 = CARTESIAN_POINT('',(7.892304845413,-10.33012701892,44.));
#64 = VERTEX_POINT('',#65);
#65 = CARTESIAN_POINT('',(9.968961188121,-6.733252723492,44.));
#66 = LINE('',#67,#68);
#67 = CARTESIAN_POINT('',(7.892304845413,-10.33012701892,44.));
#68 = VECTOR('',#69,1.);
#69 = DIRECTION('',(0.5,0.866025403784,0.));
#70 = ORIENTED_EDGE('',*,*,#71,.T.);
#71 = EDGE_CURVE('',#62,#22,#72,.T.);
#72 = LINE('',#73,#74);
#73 = CARTESIAN_POINT('',(7.892304845413,-10.33012701892,44.));
#74 = VECTOR('',#75,1.);
#75 = DIRECTION('',(0.,0.,1.));
#76 = ORIENTED_EDGE('',*,*,#21,.T.);
#77 = ORIENTED_EDGE('',*,*,#78,.F.);
#78 = EDGE_CURVE('',#79,#24,#81,.T.);
#79 = VERTEX_POINT('',#80);
#80 = CARTESIAN_POINT('',(12.892304845413,-1.669872981078,44.));
#81 = LINE('',#82,#83);
#82 = CARTESIAN_POINT('',(12.892304845413,-1.669872981078,45.2));
#83 = VECTOR('',#84,1.);
#84 = DIRECTION('',(0.,0.,1.));
#85 = ORIENTED_EDGE('',*,*,#86,.F.);
#86 = EDGE_CURVE('',#87,#79,#89,.T.);
#87 = VERTEX_POINT('',#88);
#88 = CARTESIAN_POINT('',(12.26869322028,-2.75,44.));
#89 = LINE('',#90,#91);
#90 = CARTESIAN_POINT('',(7.892304845413,-10.33012701892,44.));
#91 = VECTOR('',#92,1.);
#92 = DIRECTION('',(0.5,0.866025403784,0.));
#93 = ORIENTED_EDGE('',*,*,#94,.T.);
#94 = EDGE_CURVE('',#87,#95,#97,.T.);
#95 = VERTEX_POINT('',#96);
#96 = CARTESIAN_POINT('',(12.26869322028,-2.75,45.3));
#97 = LINE('',#98,#99);
#98 = CARTESIAN_POINT('',(12.26869322028,-2.75,44.55));
#99 = VECTOR('',#100,1.);
#100 = DIRECTION('',(0.,0.,1.));
#101 = ORIENTED_EDGE('',*,*,#102,.F.);
#102 = EDGE_CURVE('',#103,#95,#105,.T.);
#103 = VERTEX_POINT('',#104);
#104 = CARTESIAN_POINT('',(9.968961188121,-6.733252723492,45.3));
#105 = LINE('',#106,#107);
#106 = CARTESIAN_POINT('',(11.075317547305,-4.816987298108,45.3));
#107 = VECTOR('',#108,1.);
#108 = DIRECTION('',(0.5,0.866025403784,0.));
#109 = ORIENTED_EDGE('',*,*,#110,.F.);
#110 = EDGE_CURVE('',#64,#103,#111,.T.);
#111 = LINE('',#112,#113);
#112 = CARTESIAN_POINT('',(9.968961188121,-6.733252723492,44.));
#113 = VECTOR('',#114,1.);
#114 = DIRECTION('',(0.,0.,1.));
#115 = PLANE('',#116);
#116 = AXIS2_PLACEMENT_3D('',#117,#118,#119);
#117 = CARTESIAN_POINT('',(10.392304845413,-6.,45.1));
#118 = DIRECTION('',(0.866025403784,-0.5,0.));
#119 = DIRECTION('',(0.,0.,1.));
#120 = ADVANCED_FACE('',(#121),#146,.F.);
#121 = FACE_BOUND('',#122,.T.);
#122 = EDGE_LOOP('',(#123,#124,#132,#140));
#123 = ORIENTED_EDGE('',*,*,#39,.T.);
#124 = ORIENTED_EDGE('',*,*,#125,.T.);
#125 = EDGE_CURVE('',#32,#126,#128,.T.);
#126 = VERTEX_POINT('',#127);
#127 = CARTESIAN_POINT('',(11.809773090683,-1.044872981078,53.3));
#128 = LINE('',#129,#130);
#129 = CARTESIAN_POINT('',(11.809773090683,-1.044872981078,52.));
#130 = VECTOR('',#131,1.);
#131 = DIRECTION('',(0.,0.,1.));
#132 = ORIENTED_EDGE('',*,*,#133,.F.);
#133 = EDGE_CURVE('',#134,#126,#136,.T.);
#134 = VERTEX_POINT('',#135);
#135 = CARTESIAN_POINT('',(6.809773090683,-9.705127018922,53.3));
#136 = LINE('',#137,#138);
#137 = CARTESIAN_POINT('',(6.809773090683,-9.705127018922,53.3));
#138 = VECTOR('',#139,1.);
#139 = DIRECTION('',(0.5,0.866025403784,0.));
#140 = ORIENTED_EDGE('',*,*,#141,.F.);
#141 = EDGE_CURVE('',#40,#134,#142,.T.);
#142 = LINE('',#143,#144);
#143 = CARTESIAN_POINT('',(6.809773090683,-9.705127018922,52.));
#144 = VECTOR('',#145,1.);
#145 = DIRECTION('',(0.,0.,1.));
#146 = PLANE('',#147);
#147 = AXIS2_PLACEMENT_3D('',#148,#149,#150);
#148 = CARTESIAN_POINT('',(6.809773090683,-9.705127018922,52.));
#149 = DIRECTION('',(-0.866025403784,0.5,0.));
#150 = DIRECTION('',(0.,0.,-1.));
#151 = ADVANCED_FACE('',(#152),#227,.T.);
#152 = FACE_BOUND('',#153,.F.);
#153 = EDGE_LOOP('',(#154,#162,#170,#178,#186,#194,#202,#210,#218,#224,
    #225,#226));
#154 = ORIENTED_EDGE('',*,*,#155,.T.);
#155 = EDGE_CURVE('',#62,#156,#158,.T.);
#156 = VERTEX_POINT('',#157);
#157 = CARTESIAN_POINT('',(7.263753438392,-9.967232694879,44.));
#158 = LINE('',#159,#160);
#159 = CARTESIAN_POINT('',(7.892304845413,-10.33012701892,44.));
#160 = VECTOR('',#161,1.);
#161 = DIRECTION('',(-0.866025403784,0.5,0.));
#162 = ORIENTED_EDGE('',*,*,#163,.T.);
#163 = EDGE_CURVE('',#156,#164,#166,.T.);
#164 = VERTEX_POINT('',#165);
#165 = CARTESIAN_POINT('',(7.263753438392,-9.967232694879,45.3));
#166 = LINE('',#167,#168);
#167 = CARTESIAN_POINT('',(7.263753438392,-9.967232694879,
    46.555278416329));
#168 = VECTOR('',#169,1.);
#169 = DIRECTION('',(0.,0.,1.));
#170 = ORIENTED_EDGE('',*,*,#171,.F.);
#171 = EDGE_CURVE('',#172,#164,#174,.T.);
#172 = VERTEX_POINT('',#173);
#173 = CARTESIAN_POINT('',(7.545894683899,-10.13012701892,45.3));
#174 = LINE('',#175,#176);
#175 = CARTESIAN_POINT('',(7.892304845413,-10.33012701892,45.3));
#176 = VECTOR('',#177,1.);
#177 = DIRECTION('',(-0.866025403784,0.5,0.));
#178 = ORIENTED_EDGE('',*,*,#179,.F.);
#179 = EDGE_CURVE('',#180,#172,#182,.T.);
#180 = VERTEX_POINT('',#181);
#181 = CARTESIAN_POINT('',(7.545894683899,-10.13012701892,46.2));
#182 = LINE('',#183,#184);
#183 = CARTESIAN_POINT('',(7.545894683899,-10.13012701892,46.2));
#184 = VECTOR('',#185,1.);
#185 = DIRECTION('',(-0.,0.,-1.));
#186 = ORIENTED_EDGE('',*,*,#187,.F.);
#187 = EDGE_CURVE('',#188,#180,#190,.T.);
#188 = VERTEX_POINT('',#189);
#189 = CARTESIAN_POINT('',(6.463362929169,-9.505127018922,52.));
#190 = LINE('',#191,#192);
#191 = CARTESIAN_POINT('',(6.463362929169,-9.505127018922,52.));
#192 = VECTOR('',#193,1.);
#193 = DIRECTION('',(0.182454210955,-0.10533998781,-0.977555086874));
#194 = ORIENTED_EDGE('',*,*,#195,.F.);
#195 = EDGE_CURVE('',#196,#188,#198,.T.);
#196 = VERTEX_POINT('',#197);
#197 = CARTESIAN_POINT('',(6.463362929169,-9.505127018922,53.3));
#198 = LINE('',#199,#200);
#199 = CARTESIAN_POINT('',(6.463362929169,-9.505127018922,53.3));
#200 = VECTOR('',#201,1.);
#201 = DIRECTION('',(-0.,0.,-1.));
#202 = ORIENTED_EDGE('',*,*,#203,.F.);
#203 = EDGE_CURVE('',#204,#196,#206,.T.);
#204 = VERTEX_POINT('',#205);
#205 = CARTESIAN_POINT('',(6.766471820493,-9.680127018922,55.3));
#206 = LINE('',#207,#208);
#207 = CARTESIAN_POINT('',(6.766471820493,-9.680127018922,55.3));
#208 = VECTOR('',#209,1.);
#209 = DIRECTION('',(-0.14928574641,8.619016587612E-02,-0.985030467156)
  );
#210 = ORIENTED_EDGE('',*,*,#211,.F.);
#211 = EDGE_CURVE('',#212,#204,#214,.T.);
#212 = VERTEX_POINT('',#213);
#213 = CARTESIAN_POINT('',(7.112881982007,-9.880127018922,55.3));
#214 = LINE('',#215,#216);
#215 = CARTESIAN_POINT('',(7.112881982007,-9.880127018922,55.3));
#216 = VECTOR('',#217,1.);
#217 = DIRECTION('',(-0.866025403784,0.5,0.));
#218 = ORIENTED_EDGE('',*,*,#219,.F.);
#219 = EDGE_CURVE('',#134,#212,#220,.T.);
#220 = LINE('',#221,#222);
#221 = CARTESIAN_POINT('',(6.809773090683,-9.705127018922,53.3));
#222 = VECTOR('',#223,1.);
#223 = DIRECTION('',(0.14928574641,-8.619016587612E-02,0.985030467156));
#224 = ORIENTED_EDGE('',*,*,#141,.F.);
#225 = ORIENTED_EDGE('',*,*,#47,.F.);
#226 = ORIENTED_EDGE('',*,*,#71,.F.);
#227 = PLANE('',#228);
#228 = AXIS2_PLACEMENT_3D('',#229,#230,#231);
#229 = CARTESIAN_POINT('',(5.727241335952,-9.080127018922,
    49.110556832658));
#230 = DIRECTION('',(-0.5,-0.866025403784,-0.));
#231 = DIRECTION('',(0.,0.,1.));
#232 = ADVANCED_FACE('',(#233),#372,.T.);
#233 = FACE_BOUND('',#234,.F.);
#234 = EDGE_LOOP('',(#235,#243,#244,#245,#246,#254,#262,#270,#278,#286,
    #294,#302,#310,#318,#326,#334,#342,#350,#358,#366));
#235 = ORIENTED_EDGE('',*,*,#236,.F.);
#236 = EDGE_CURVE('',#79,#237,#239,.T.);
#237 = VERTEX_POINT('',#238);
#238 = CARTESIAN_POINT('',(8.562177826491,0.830127018922,44.));
#239 = LINE('',#240,#241);
#240 = CARTESIAN_POINT('',(12.892304845413,-1.669872981078,44.));
#241 = VECTOR('',#242,1.);
#242 = DIRECTION('',(-0.866025403784,0.5,0.));
#243 = ORIENTED_EDGE('',*,*,#78,.T.);
#244 = ORIENTED_EDGE('',*,*,#31,.T.);
#245 = ORIENTED_EDGE('',*,*,#125,.T.);
#246 = ORIENTED_EDGE('',*,*,#247,.T.);
#247 = EDGE_CURVE('',#126,#248,#250,.T.);
#248 = VERTEX_POINT('',#249);
#249 = CARTESIAN_POINT('',(12.112881982007,-1.219872981078,55.3));
#250 = LINE('',#251,#252);
#251 = CARTESIAN_POINT('',(11.809773090683,-1.044872981078,53.3));
#252 = VECTOR('',#253,1.);
#253 = DIRECTION('',(0.14928574641,-8.619016587612E-02,0.985030467156));
#254 = ORIENTED_EDGE('',*,*,#255,.T.);
#255 = EDGE_CURVE('',#248,#256,#258,.T.);
#256 = VERTEX_POINT('',#257);
#257 = CARTESIAN_POINT('',(11.766471820493,-1.019872981078,55.3));
#258 = LINE('',#259,#260);
#259 = CARTESIAN_POINT('',(12.112881982007,-1.219872981078,55.3));
#260 = VECTOR('',#261,1.);
#261 = DIRECTION('',(-0.866025403784,0.5,0.));
#262 = ORIENTED_EDGE('',*,*,#263,.T.);
#263 = EDGE_CURVE('',#256,#264,#266,.T.);
#264 = VERTEX_POINT('',#265);
#265 = CARTESIAN_POINT('',(11.463362929169,-0.844872981078,53.3));
#266 = LINE('',#267,#268);
#267 = CARTESIAN_POINT('',(11.766471820494,-1.019872981078,55.3));
#268 = VECTOR('',#269,1.);
#269 = DIRECTION('',(-0.14928574641,8.619016587612E-02,-0.985030467156)
  );
#270 = ORIENTED_EDGE('',*,*,#271,.T.);
#271 = EDGE_CURVE('',#264,#272,#274,.T.);
#272 = VERTEX_POINT('',#273);
#273 = CARTESIAN_POINT('',(11.463362929169,-0.844872981078,52.));
#274 = LINE('',#275,#276);
#275 = CARTESIAN_POINT('',(11.463362929169,-0.844872981078,53.3));
#276 = VECTOR('',#277,1.);
#277 = DIRECTION('',(-0.,0.,-1.));
#278 = ORIENTED_EDGE('',*,*,#279,.T.);
#279 = EDGE_CURVE('',#272,#280,#282,.T.);
#280 = VERTEX_POINT('',#281);
#281 = CARTESIAN_POINT('',(12.545894683899,-1.469872981078,46.2));
#282 = LINE('',#283,#284);
#283 = CARTESIAN_POINT('',(11.463362929169,-0.844872981078,52.));
#284 = VECTOR('',#285,1.);
#285 = DIRECTION('',(0.182454210955,-0.10533998781,-0.977555086874));
#286 = ORIENTED_EDGE('',*,*,#287,.T.);
#287 = EDGE_CURVE('',#280,#288,#290,.T.);
#288 = VERTEX_POINT('',#289);
#289 = CARTESIAN_POINT('',(12.545894683899,-1.469872981078,45.3));
#290 = LINE('',#291,#292);
#291 = CARTESIAN_POINT('',(12.545894683899,-1.469872981078,46.2));
#292 = VECTOR('',#293,1.);
#293 = DIRECTION('',(-0.,0.,-1.));
#294 = ORIENTED_EDGE('',*,*,#295,.T.);
#295 = EDGE_CURVE('',#288,#296,#298,.T.);
#296 = VERTEX_POINT('',#297);
#297 = CARTESIAN_POINT('',(8.908587988005,0.630127018922,45.3));
#298 = LINE('',#299,#300);
#299 = CARTESIAN_POINT('',(12.892304845413,-1.669872981078,45.3));
#300 = VECTOR('',#301,1.);
#301 = DIRECTION('',(-0.866025403784,0.5,0.));
#302 = ORIENTED_EDGE('',*,*,#303,.F.);
#303 = EDGE_CURVE('',#304,#296,#306,.T.);
#304 = VERTEX_POINT('',#305);
#305 = CARTESIAN_POINT('',(8.908587988005,0.630127018922,46.2));
#306 = LINE('',#307,#308);
#307 = CARTESIAN_POINT('',(8.908587988005,0.630127018922,46.2));
#308 = VECTOR('',#309,1.);
#309 = DIRECTION('',(-0.,0.,-1.));
#310 = ORIENTED_EDGE('',*,*,#311,.F.);
#311 = EDGE_CURVE('',#312,#304,#314,.T.);
#312 = VERTEX_POINT('',#313);
#313 = CARTESIAN_POINT('',(9.991119742735,5.127018922193E-03,52.));
#314 = LINE('',#315,#316);
#315 = CARTESIAN_POINT('',(9.991119742735,5.127018922196E-03,52.));
#316 = VECTOR('',#317,1.);
#317 = DIRECTION('',(-0.182454210955,0.10533998781,-0.977555086874));
#318 = ORIENTED_EDGE('',*,*,#319,.F.);
#319 = EDGE_CURVE('',#320,#312,#322,.T.);
#320 = VERTEX_POINT('',#321);
#321 = CARTESIAN_POINT('',(9.991119742735,5.127018922193E-03,53.3));
#322 = LINE('',#323,#324);
#323 = CARTESIAN_POINT('',(9.991119742735,5.127018922196E-03,53.3));
#324 = VECTOR('',#325,1.);
#325 = DIRECTION('',(-0.,0.,-1.));
#326 = ORIENTED_EDGE('',*,*,#327,.F.);
#327 = EDGE_CURVE('',#328,#320,#330,.T.);
#328 = VERTEX_POINT('',#329);
#329 = CARTESIAN_POINT('',(9.688010851411,0.180127018922,55.3));
#330 = LINE('',#331,#332);
#331 = CARTESIAN_POINT('',(9.688010851411,0.180127018922,55.3));
#332 = VECTOR('',#333,1.);
#333 = DIRECTION('',(0.14928574641,-8.619016587612E-02,-0.985030467156)
  );
#334 = ORIENTED_EDGE('',*,*,#335,.F.);
#335 = EDGE_CURVE('',#336,#328,#338,.T.);
#336 = VERTEX_POINT('',#337);
#337 = CARTESIAN_POINT('',(9.341600689897,0.380127018922,55.3));
#338 = LINE('',#339,#340);
#339 = CARTESIAN_POINT('',(9.341600689897,0.380127018922,55.3));
#340 = VECTOR('',#341,1.);
#341 = DIRECTION('',(0.866025403784,-0.5,0.));
#342 = ORIENTED_EDGE('',*,*,#343,.F.);
#343 = EDGE_CURVE('',#344,#336,#346,.T.);
#344 = VERTEX_POINT('',#345);
#345 = CARTESIAN_POINT('',(9.644709581222,0.205127018922,53.3));
#346 = LINE('',#347,#348);
#347 = CARTESIAN_POINT('',(9.644709581222,0.205127018922,53.3));
#348 = VECTOR('',#349,1.);
#349 = DIRECTION('',(-0.14928574641,8.619016587612E-02,0.985030467156));
#350 = ORIENTED_EDGE('',*,*,#351,.F.);
#351 = EDGE_CURVE('',#352,#344,#354,.T.);
#352 = VERTEX_POINT('',#353);
#353 = CARTESIAN_POINT('',(9.644709581222,0.205127018922,52.));
#354 = LINE('',#355,#356);
#355 = CARTESIAN_POINT('',(9.644709581222,0.205127018922,52.));
#356 = VECTOR('',#357,1.);
#357 = DIRECTION('',(0.,0.,1.));
#358 = ORIENTED_EDGE('',*,*,#359,.F.);
#359 = EDGE_CURVE('',#360,#352,#362,.T.);
#360 = VERTEX_POINT('',#361);
#361 = CARTESIAN_POINT('',(8.562177826491,0.830127018922,46.2));
#362 = LINE('',#363,#364);
#363 = CARTESIAN_POINT('',(8.562177826491,0.830127018922,46.2));
#364 = VECTOR('',#365,1.);
#365 = DIRECTION('',(0.182454210955,-0.10533998781,0.977555086874));
#366 = ORIENTED_EDGE('',*,*,#367,.F.);
#367 = EDGE_CURVE('',#237,#360,#368,.T.);
#368 = LINE('',#369,#370);
#369 = CARTESIAN_POINT('',(8.562177826491,0.830127018922,45.2));
#370 = VECTOR('',#371,1.);
#371 = DIRECTION('',(0.,0.,1.));
#372 = PLANE('',#373);
#373 = AXIS2_PLACEMENT_3D('',#374,#375,#376);
#374 = CARTESIAN_POINT('',(10.727241335952,-0.419872981078,
    49.110556832658));
#375 = DIRECTION('',(0.5,0.866025403784,0.));
#376 = DIRECTION('',(0.,-0.,-1.));
#377 = ADVANCED_FACE('',(#378),#405,.T.);
#378 = FACE_BOUND('',#379,.F.);
#379 = EDGE_LOOP('',(#380,#381,#390,#398));
#380 = ORIENTED_EDGE('',*,*,#110,.T.);
#381 = ORIENTED_EDGE('',*,*,#382,.F.);
#382 = EDGE_CURVE('',#383,#103,#385,.T.);
#383 = VERTEX_POINT('',#384);
#384 = CARTESIAN_POINT('',(10.227241335952,-6.75,45.3));
#385 = CIRCLE('',#386,2.);
#386 = AXIS2_PLACEMENT_3D('',#387,#388,#389);
#387 = CARTESIAN_POINT('',(10.227241335952,-4.75,45.3));
#388 = DIRECTION('',(0.,0.,-1.));
#389 = DIRECTION('',(-1.,0.,0.));
#390 = ORIENTED_EDGE('',*,*,#391,.F.);
#391 = EDGE_CURVE('',#392,#383,#394,.T.);
#392 = VERTEX_POINT('',#393);
#393 = CARTESIAN_POINT('',(10.227241335952,-6.75,44.));
#394 = LINE('',#395,#396);
#395 = CARTESIAN_POINT('',(10.227241335952,-6.75,44.));
#396 = VECTOR('',#397,1.);
#397 = DIRECTION('',(0.,0.,1.));
#398 = ORIENTED_EDGE('',*,*,#399,.T.);
#399 = EDGE_CURVE('',#392,#64,#400,.T.);
#400 = CIRCLE('',#401,2.);
#401 = AXIS2_PLACEMENT_3D('',#402,#403,#404);
#402 = CARTESIAN_POINT('',(10.227241335952,-4.75,44.));
#403 = DIRECTION('',(0.,0.,-1.));
#404 = DIRECTION('',(-1.,0.,0.));
#405 = CYLINDRICAL_SURFACE('',#406,2.);
#406 = AXIS2_PLACEMENT_3D('',#407,#408,#409);
#407 = CARTESIAN_POINT('',(10.227241335952,-4.75,44.));
#408 = DIRECTION('',(0.,0.,1.));
#409 = DIRECTION('',(-1.,0.,0.));
#410 = ADVANCED_FACE('',(#411),#436,.F.);
#411 = FACE_BOUND('',#412,.T.);
#412 = EDGE_LOOP('',(#413,#421,#422,#430));
#413 = ORIENTED_EDGE('',*,*,#414,.F.);
#414 = EDGE_CURVE('',#87,#415,#417,.T.);
#415 = VERTEX_POINT('',#416);
#416 = CARTESIAN_POINT('',(12.827241335952,-2.75,44.));
#417 = LINE('',#418,#419);
#418 = CARTESIAN_POINT('',(10.227241335952,-2.75,44.));
#419 = VECTOR('',#420,1.);
#420 = DIRECTION('',(1.,2.4E-16,-0.));
#421 = ORIENTED_EDGE('',*,*,#94,.T.);
#422 = ORIENTED_EDGE('',*,*,#423,.T.);
#423 = EDGE_CURVE('',#95,#424,#426,.T.);
#424 = VERTEX_POINT('',#425);
#425 = CARTESIAN_POINT('',(12.827241335952,-2.75,45.3));
#426 = LINE('',#427,#428);
#427 = CARTESIAN_POINT('',(10.227241335952,-2.75,45.3));
#428 = VECTOR('',#429,1.);
#429 = DIRECTION('',(1.,2.4E-16,-0.));
#430 = ORIENTED_EDGE('',*,*,#431,.F.);
#431 = EDGE_CURVE('',#415,#424,#432,.T.);
#432 = LINE('',#433,#434);
#433 = CARTESIAN_POINT('',(12.827241335952,-2.75,44.));
#434 = VECTOR('',#435,1.);
#435 = DIRECTION('',(0.,0.,1.));
#436 = PLANE('',#437);
#437 = AXIS2_PLACEMENT_3D('',#438,#439,#440);
#438 = CARTESIAN_POINT('',(10.227241335952,-2.75,44.));
#439 = DIRECTION('',(2.4E-16,-1.,0.));
#440 = DIRECTION('',(0.,-0.,-1.));
#441 = ADVANCED_FACE('',(#442),#453,.F.);
#442 = FACE_BOUND('',#443,.T.);
#443 = EDGE_LOOP('',(#444,#445,#446,#452));
#444 = ORIENTED_EDGE('',*,*,#133,.T.);
#445 = ORIENTED_EDGE('',*,*,#247,.T.);
#446 = ORIENTED_EDGE('',*,*,#447,.F.);
#447 = EDGE_CURVE('',#212,#248,#448,.T.);
#448 = LINE('',#449,#450);
#449 = CARTESIAN_POINT('',(7.112881982007,-9.880127018922,55.3));
#450 = VECTOR('',#451,1.);
#451 = DIRECTION('',(0.5,0.866025403784,0.));
#452 = ORIENTED_EDGE('',*,*,#219,.F.);
#453 = PLANE('',#454);
#454 = AXIS2_PLACEMENT_3D('',#455,#456,#457);
#455 = CARTESIAN_POINT('',(6.809773090683,-9.705127018922,53.3));
#456 = DIRECTION('',(-0.853061408058,0.492515233578,0.172380331752));
#457 = DIRECTION('',(-0.14928574641,8.619016587612E-02,-0.985030467156)
  );
#458 = ADVANCED_FACE('',(#459),#470,.F.);
#459 = FACE_BOUND('',#460,.T.);
#460 = EDGE_LOOP('',(#461,#462,#463,#469));
#461 = ORIENTED_EDGE('',*,*,#447,.T.);
#462 = ORIENTED_EDGE('',*,*,#255,.T.);
#463 = ORIENTED_EDGE('',*,*,#464,.F.);
#464 = EDGE_CURVE('',#204,#256,#465,.T.);
#465 = LINE('',#466,#467);
#466 = CARTESIAN_POINT('',(6.766471820493,-9.680127018922,55.3));
#467 = VECTOR('',#468,1.);
#468 = DIRECTION('',(0.5,0.866025403784,0.));
#469 = ORIENTED_EDGE('',*,*,#211,.F.);
#470 = PLANE('',#471);
#471 = AXIS2_PLACEMENT_3D('',#472,#473,#474);
#472 = CARTESIAN_POINT('',(7.112881982007,-9.880127018922,55.3));
#473 = DIRECTION('',(-0.,0.,-1.));
#474 = DIRECTION('',(0.866025403784,-0.5,0.));
#475 = ADVANCED_FACE('',(#476),#487,.F.);
#476 = FACE_BOUND('',#477,.T.);
#477 = EDGE_LOOP('',(#478,#479,#480,#486));
#478 = ORIENTED_EDGE('',*,*,#464,.T.);
#479 = ORIENTED_EDGE('',*,*,#263,.T.);
#480 = ORIENTED_EDGE('',*,*,#481,.F.);
#481 = EDGE_CURVE('',#196,#264,#482,.T.);
#482 = LINE('',#483,#484);
#483 = CARTESIAN_POINT('',(6.463362929169,-9.505127018922,53.3));
#484 = VECTOR('',#485,1.);
#485 = DIRECTION('',(0.5,0.866025403784,0.));
#486 = ORIENTED_EDGE('',*,*,#203,.F.);
#487 = PLANE('',#488);
#488 = AXIS2_PLACEMENT_3D('',#489,#490,#491);
#489 = CARTESIAN_POINT('',(6.766471820493,-9.680127018922,55.3));
#490 = DIRECTION('',(0.853061408058,-0.492515233578,-0.172380331752));
#491 = DIRECTION('',(0.14928574641,-8.619016587612E-02,0.985030467156));
#492 = ADVANCED_FACE('',(#493),#504,.F.);
#493 = FACE_BOUND('',#494,.T.);
#494 = EDGE_LOOP('',(#495,#496,#497,#503));
#495 = ORIENTED_EDGE('',*,*,#481,.T.);
#496 = ORIENTED_EDGE('',*,*,#271,.T.);
#497 = ORIENTED_EDGE('',*,*,#498,.F.);
#498 = EDGE_CURVE('',#188,#272,#499,.T.);
#499 = LINE('',#500,#501);
#500 = CARTESIAN_POINT('',(6.463362929169,-9.505127018922,52.));
#501 = VECTOR('',#502,1.);
#502 = DIRECTION('',(0.5,0.866025403784,0.));
#503 = ORIENTED_EDGE('',*,*,#195,.F.);
#504 = PLANE('',#505);
#505 = AXIS2_PLACEMENT_3D('',#506,#507,#508);
#506 = CARTESIAN_POINT('',(6.463362929169,-9.505127018922,53.3));
#507 = DIRECTION('',(0.866025403784,-0.5,0.));
#508 = DIRECTION('',(0.,0.,1.));
#509 = ADVANCED_FACE('',(#510),#521,.F.);
#510 = FACE_BOUND('',#511,.T.);
#511 = EDGE_LOOP('',(#512,#513,#514,#520));
#512 = ORIENTED_EDGE('',*,*,#498,.T.);
#513 = ORIENTED_EDGE('',*,*,#279,.T.);
#514 = ORIENTED_EDGE('',*,*,#515,.F.);
#515 = EDGE_CURVE('',#180,#280,#516,.T.);
#516 = LINE('',#517,#518);
#517 = CARTESIAN_POINT('',(7.545894683899,-10.13012701892,46.2));
#518 = VECTOR('',#519,1.);
#519 = DIRECTION('',(0.5,0.866025403784,0.));
#520 = ORIENTED_EDGE('',*,*,#187,.F.);
#521 = PLANE('',#522);
#522 = AXIS2_PLACEMENT_3D('',#523,#524,#525);
#523 = CARTESIAN_POINT('',(6.463362929169,-9.505127018922,52.));
#524 = DIRECTION('',(0.846587538831,-0.488777543437,0.210679975619));
#525 = DIRECTION('',(-0.182454210955,0.10533998781,0.977555086874));
#526 = ADVANCED_FACE('',(#527),#538,.F.);
#527 = FACE_BOUND('',#528,.T.);
#528 = EDGE_LOOP('',(#529,#530,#531,#532));
#529 = ORIENTED_EDGE('',*,*,#179,.F.);
#530 = ORIENTED_EDGE('',*,*,#515,.T.);
#531 = ORIENTED_EDGE('',*,*,#287,.T.);
#532 = ORIENTED_EDGE('',*,*,#533,.T.);
#533 = EDGE_CURVE('',#288,#172,#534,.T.);
#534 = LINE('',#535,#536);
#535 = CARTESIAN_POINT('',(7.545894683899,-10.13012701892,45.3));
#536 = VECTOR('',#537,1.);
#537 = DIRECTION('',(-0.5,-0.866025403784,0.));
#538 = PLANE('',#539);
#539 = AXIS2_PLACEMENT_3D('',#540,#541,#542);
#540 = CARTESIAN_POINT('',(7.545894683899,-10.13012701892,46.2));
#541 = DIRECTION('',(0.866025403784,-0.5,0.));
#542 = DIRECTION('',(0.,0.,1.));
#543 = ADVANCED_FACE('',(#544),#569,.F.);
#544 = FACE_BOUND('',#545,.T.);
#545 = EDGE_LOOP('',(#546,#554,#555,#563));
#546 = ORIENTED_EDGE('',*,*,#547,.F.);
#547 = EDGE_CURVE('',#156,#548,#550,.T.);
#548 = VERTEX_POINT('',#549);
#549 = CARTESIAN_POINT('',(4.227241335952,-15.28112887414,44.));
#550 = LINE('',#551,#552);
#551 = CARTESIAN_POINT('',(7.963727620201,-8.742277876714,44.));
#552 = VECTOR('',#553,1.);
#553 = DIRECTION('',(-0.496138938357,-0.868243142124,0.));
#554 = ORIENTED_EDGE('',*,*,#163,.T.);
#555 = ORIENTED_EDGE('',*,*,#556,.T.);
#556 = EDGE_CURVE('',#164,#557,#559,.T.);
#557 = VERTEX_POINT('',#558);
#558 = CARTESIAN_POINT('',(4.227241335952,-15.28112887414,45.3));
#559 = LINE('',#560,#561);
#560 = CARTESIAN_POINT('',(7.963727620201,-8.742277876714,45.3));
#561 = VECTOR('',#562,1.);
#562 = DIRECTION('',(-0.496138938357,-0.868243142124,0.));
#563 = ORIENTED_EDGE('',*,*,#564,.T.);
#564 = EDGE_CURVE('',#557,#548,#565,.T.);
#565 = LINE('',#566,#567);
#566 = CARTESIAN_POINT('',(4.227241335952,-15.28112887414,44.));
#567 = VECTOR('',#568,1.);
#568 = DIRECTION('',(0.,0.,-1.));
#569 = PLANE('',#570);
#570 = AXIS2_PLACEMENT_3D('',#571,#572,#573);
#571 = CARTESIAN_POINT('',(7.963727620201,-8.742277876714,44.));
#572 = DIRECTION('',(-0.868243142124,0.496138938357,-0.));
#573 = DIRECTION('',(0.,-0.,-1.));
#574 = ADVANCED_FACE('',(#575),#600,.T.);
#575 = FACE_BOUND('',#576,.F.);
#576 = EDGE_LOOP('',(#577,#587,#593,#594));
#577 = ORIENTED_EDGE('',*,*,#578,.F.);
#578 = EDGE_CURVE('',#579,#581,#583,.T.);
#579 = VERTEX_POINT('',#580);
#580 = CARTESIAN_POINT('',(3.908587988005,-8.030127018922,46.2));
#581 = VERTEX_POINT('',#582);
#582 = CARTESIAN_POINT('',(3.908587988005,-8.030127018922,45.3));
#583 = LINE('',#584,#585);
#584 = CARTESIAN_POINT('',(3.908587988005,-8.030127018922,46.2));
#585 = VECTOR('',#586,1.);
#586 = DIRECTION('',(-0.,0.,-1.));
#587 = ORIENTED_EDGE('',*,*,#588,.T.);
#588 = EDGE_CURVE('',#579,#304,#589,.T.);
#589 = LINE('',#590,#591);
#590 = CARTESIAN_POINT('',(3.908587988005,-8.030127018922,46.2));
#591 = VECTOR('',#592,1.);
#592 = DIRECTION('',(0.5,0.866025403784,0.));
#593 = ORIENTED_EDGE('',*,*,#303,.T.);
#594 = ORIENTED_EDGE('',*,*,#595,.T.);
#595 = EDGE_CURVE('',#296,#581,#596,.T.);
#596 = LINE('',#597,#598);
#597 = CARTESIAN_POINT('',(3.908587988005,-8.030127018922,45.3));
#598 = VECTOR('',#599,1.);
#599 = DIRECTION('',(-0.5,-0.866025403784,0.));
#600 = PLANE('',#601);
#601 = AXIS2_PLACEMENT_3D('',#602,#603,#604);
#602 = CARTESIAN_POINT('',(3.908587988005,-8.030127018922,46.2));
#603 = DIRECTION('',(0.866025403784,-0.5,0.));
#604 = DIRECTION('',(0.,0.,1.));
#605 = ADVANCED_FACE('',(#606),#624,.T.);
#606 = FACE_BOUND('',#607,.F.);
#607 = EDGE_LOOP('',(#608,#616,#617,#618));
#608 = ORIENTED_EDGE('',*,*,#609,.T.);
#609 = EDGE_CURVE('',#610,#312,#612,.T.);
#610 = VERTEX_POINT('',#611);
#611 = CARTESIAN_POINT('',(4.991119742735,-8.655127018922,52.));
#612 = LINE('',#613,#614);
#613 = CARTESIAN_POINT('',(4.991119742735,-8.655127018922,52.));
#614 = VECTOR('',#615,1.);
#615 = DIRECTION('',(0.5,0.866025403784,0.));
#616 = ORIENTED_EDGE('',*,*,#311,.T.);
#617 = ORIENTED_EDGE('',*,*,#588,.F.);
#618 = ORIENTED_EDGE('',*,*,#619,.F.);
#619 = EDGE_CURVE('',#610,#579,#620,.T.);
#620 = LINE('',#621,#622);
#621 = CARTESIAN_POINT('',(4.991119742735,-8.655127018922,52.));
#622 = VECTOR('',#623,1.);
#623 = DIRECTION('',(-0.182454210955,0.10533998781,-0.977555086874));
#624 = PLANE('',#625);
#625 = AXIS2_PLACEMENT_3D('',#626,#627,#628);
#626 = CARTESIAN_POINT('',(4.991119742735,-8.655127018922,52.));
#627 = DIRECTION('',(0.846587538831,-0.488777543437,-0.210679975619));
#628 = DIRECTION('',(0.182454210955,-0.10533998781,0.977555086874));
#629 = ADVANCED_FACE('',(#630),#648,.T.);
#630 = FACE_BOUND('',#631,.F.);
#631 = EDGE_LOOP('',(#632,#640,#641,#642));
#632 = ORIENTED_EDGE('',*,*,#633,.T.);
#633 = EDGE_CURVE('',#634,#320,#636,.T.);
#634 = VERTEX_POINT('',#635);
#635 = CARTESIAN_POINT('',(4.991119742735,-8.655127018922,53.3));
#636 = LINE('',#637,#638);
#637 = CARTESIAN_POINT('',(4.991119742735,-8.655127018922,53.3));
#638 = VECTOR('',#639,1.);
#639 = DIRECTION('',(0.5,0.866025403784,0.));
#640 = ORIENTED_EDGE('',*,*,#319,.T.);
#641 = ORIENTED_EDGE('',*,*,#609,.F.);
#642 = ORIENTED_EDGE('',*,*,#643,.F.);
#643 = EDGE_CURVE('',#634,#610,#644,.T.);
#644 = LINE('',#645,#646);
#645 = CARTESIAN_POINT('',(4.991119742735,-8.655127018922,53.3));
#646 = VECTOR('',#647,1.);
#647 = DIRECTION('',(-0.,0.,-1.));
#648 = PLANE('',#649);
#649 = AXIS2_PLACEMENT_3D('',#650,#651,#652);
#650 = CARTESIAN_POINT('',(4.991119742735,-8.655127018922,53.3));
#651 = DIRECTION('',(0.866025403784,-0.5,0.));
#652 = DIRECTION('',(0.,0.,1.));
#653 = ADVANCED_FACE('',(#654),#672,.T.);
#654 = FACE_BOUND('',#655,.F.);
#655 = EDGE_LOOP('',(#656,#664,#665,#666));
#656 = ORIENTED_EDGE('',*,*,#657,.T.);
#657 = EDGE_CURVE('',#658,#328,#660,.T.);
#658 = VERTEX_POINT('',#659);
#659 = CARTESIAN_POINT('',(4.688010851411,-8.480127018922,55.3));
#660 = LINE('',#661,#662);
#661 = CARTESIAN_POINT('',(4.688010851411,-8.480127018922,55.3));
#662 = VECTOR('',#663,1.);
#663 = DIRECTION('',(0.5,0.866025403784,0.));
#664 = ORIENTED_EDGE('',*,*,#327,.T.);
#665 = ORIENTED_EDGE('',*,*,#633,.F.);
#666 = ORIENTED_EDGE('',*,*,#667,.F.);
#667 = EDGE_CURVE('',#658,#634,#668,.T.);
#668 = LINE('',#669,#670);
#669 = CARTESIAN_POINT('',(4.688010851411,-8.480127018922,55.3));
#670 = VECTOR('',#671,1.);
#671 = DIRECTION('',(0.14928574641,-8.619016587612E-02,-0.985030467156)
  );
#672 = PLANE('',#673);
#673 = AXIS2_PLACEMENT_3D('',#674,#675,#676);
#674 = CARTESIAN_POINT('',(4.688010851411,-8.480127018922,55.3));
#675 = DIRECTION('',(0.853061408058,-0.492515233578,0.172380331752));
#676 = DIRECTION('',(-0.14928574641,8.619016587612E-02,0.985030467156));
#677 = ADVANCED_FACE('',(#678),#696,.T.);
#678 = FACE_BOUND('',#679,.F.);
#679 = EDGE_LOOP('',(#680,#688,#689,#690));
#680 = ORIENTED_EDGE('',*,*,#681,.T.);
#681 = EDGE_CURVE('',#682,#336,#684,.T.);
#682 = VERTEX_POINT('',#683);
#683 = CARTESIAN_POINT('',(4.341600689897,-8.280127018922,55.3));
#684 = LINE('',#685,#686);
#685 = CARTESIAN_POINT('',(4.341600689897,-8.280127018922,55.3));
#686 = VECTOR('',#687,1.);
#687 = DIRECTION('',(0.5,0.866025403784,0.));
#688 = ORIENTED_EDGE('',*,*,#335,.T.);
#689 = ORIENTED_EDGE('',*,*,#657,.F.);
#690 = ORIENTED_EDGE('',*,*,#691,.F.);
#691 = EDGE_CURVE('',#682,#658,#692,.T.);
#692 = LINE('',#693,#694);
#693 = CARTESIAN_POINT('',(4.341600689897,-8.280127018922,55.3));
#694 = VECTOR('',#695,1.);
#695 = DIRECTION('',(0.866025403784,-0.5,0.));
#696 = PLANE('',#697);
#697 = AXIS2_PLACEMENT_3D('',#698,#699,#700);
#698 = CARTESIAN_POINT('',(4.341600689897,-8.280127018922,55.3));
#699 = DIRECTION('',(0.,0.,1.));
#700 = DIRECTION('',(-0.866025403784,0.5,0.));
#701 = ADVANCED_FACE('',(#702),#720,.T.);
#702 = FACE_BOUND('',#703,.F.);
#703 = EDGE_LOOP('',(#704,#712,#713,#714));
#704 = ORIENTED_EDGE('',*,*,#705,.T.);
#705 = EDGE_CURVE('',#706,#344,#708,.T.);
#706 = VERTEX_POINT('',#707);
#707 = CARTESIAN_POINT('',(4.644709581222,-8.455127018922,53.3));
#708 = LINE('',#709,#710);
#709 = CARTESIAN_POINT('',(4.644709581222,-8.455127018922,53.3));
#710 = VECTOR('',#711,1.);
#711 = DIRECTION('',(0.5,0.866025403784,0.));
#712 = ORIENTED_EDGE('',*,*,#343,.T.);
#713 = ORIENTED_EDGE('',*,*,#681,.F.);
#714 = ORIENTED_EDGE('',*,*,#715,.F.);
#715 = EDGE_CURVE('',#706,#682,#716,.T.);
#716 = LINE('',#717,#718);
#717 = CARTESIAN_POINT('',(4.644709581222,-8.455127018922,53.3));
#718 = VECTOR('',#719,1.);
#719 = DIRECTION('',(-0.14928574641,8.619016587612E-02,0.985030467156));
#720 = PLANE('',#721);
#721 = AXIS2_PLACEMENT_3D('',#722,#723,#724);
#722 = CARTESIAN_POINT('',(4.644709581222,-8.455127018922,53.3));
#723 = DIRECTION('',(-0.853061408058,0.492515233578,-0.172380331752));
#724 = DIRECTION('',(0.14928574641,-8.619016587612E-02,-0.985030467156)
  );
#725 = ADVANCED_FACE('',(#726),#744,.T.);
#726 = FACE_BOUND('',#727,.F.);
#727 = EDGE_LOOP('',(#728,#736,#737,#738));
#728 = ORIENTED_EDGE('',*,*,#729,.T.);
#729 = EDGE_CURVE('',#730,#352,#732,.T.);
#730 = VERTEX_POINT('',#731);
#731 = CARTESIAN_POINT('',(4.644709581222,-8.455127018922,52.));
#732 = LINE('',#733,#734);
#733 = CARTESIAN_POINT('',(4.644709581222,-8.455127018922,52.));
#734 = VECTOR('',#735,1.);
#735 = DIRECTION('',(0.5,0.866025403784,0.));
#736 = ORIENTED_EDGE('',*,*,#351,.T.);
#737 = ORIENTED_EDGE('',*,*,#705,.F.);
#738 = ORIENTED_EDGE('',*,*,#739,.F.);
#739 = EDGE_CURVE('',#730,#706,#740,.T.);
#740 = LINE('',#741,#742);
#741 = CARTESIAN_POINT('',(4.644709581222,-8.455127018922,52.));
#742 = VECTOR('',#743,1.);
#743 = DIRECTION('',(0.,0.,1.));
#744 = PLANE('',#745);
#745 = AXIS2_PLACEMENT_3D('',#746,#747,#748);
#746 = CARTESIAN_POINT('',(4.644709581222,-8.455127018922,52.));
#747 = DIRECTION('',(-0.866025403784,0.5,0.));
#748 = DIRECTION('',(0.,0.,-1.));
#749 = ADVANCED_FACE('',(#750),#768,.T.);
#750 = FACE_BOUND('',#751,.F.);
#751 = EDGE_LOOP('',(#752,#760,#761,#762));
#752 = ORIENTED_EDGE('',*,*,#753,.T.);
#753 = EDGE_CURVE('',#754,#360,#756,.T.);
#754 = VERTEX_POINT('',#755);
#755 = CARTESIAN_POINT('',(3.562177826491,-7.830127018922,46.2));
#756 = LINE('',#757,#758);
#757 = CARTESIAN_POINT('',(3.562177826491,-7.830127018922,46.2));
#758 = VECTOR('',#759,1.);
#759 = DIRECTION('',(0.5,0.866025403784,0.));
#760 = ORIENTED_EDGE('',*,*,#359,.T.);
#761 = ORIENTED_EDGE('',*,*,#729,.F.);
#762 = ORIENTED_EDGE('',*,*,#763,.F.);
#763 = EDGE_CURVE('',#754,#730,#764,.T.);
#764 = LINE('',#765,#766);
#765 = CARTESIAN_POINT('',(3.562177826491,-7.830127018922,46.2));
#766 = VECTOR('',#767,1.);
#767 = DIRECTION('',(0.182454210955,-0.10533998781,0.977555086874));
#768 = PLANE('',#769);
#769 = AXIS2_PLACEMENT_3D('',#770,#771,#772);
#770 = CARTESIAN_POINT('',(3.562177826491,-7.830127018922,46.2));
#771 = DIRECTION('',(-0.846587538831,0.488777543437,0.210679975619));
#772 = DIRECTION('',(-0.182454210955,0.10533998781,-0.977555086874));
#773 = ADVANCED_FACE('',(#774),#792,.T.);
#774 = FACE_BOUND('',#775,.F.);
#775 = EDGE_LOOP('',(#776,#784,#790,#791));
#776 = ORIENTED_EDGE('',*,*,#777,.F.);
#777 = EDGE_CURVE('',#778,#754,#780,.T.);
#778 = VERTEX_POINT('',#779);
#779 = CARTESIAN_POINT('',(3.562177826491,-7.830127018922,44.));
#780 = LINE('',#781,#782);
#781 = CARTESIAN_POINT('',(3.562177826491,-7.830127018922,44.));
#782 = VECTOR('',#783,1.);
#783 = DIRECTION('',(0.,0.,1.));
#784 = ORIENTED_EDGE('',*,*,#785,.T.);
#785 = EDGE_CURVE('',#778,#237,#786,.T.);
#786 = LINE('',#787,#788);
#787 = CARTESIAN_POINT('',(3.562177826491,-7.830127018922,44.));
#788 = VECTOR('',#789,1.);
#789 = DIRECTION('',(0.5,0.866025403784,0.));
#790 = ORIENTED_EDGE('',*,*,#367,.T.);
#791 = ORIENTED_EDGE('',*,*,#753,.F.);
#792 = PLANE('',#793);
#793 = AXIS2_PLACEMENT_3D('',#794,#795,#796);
#794 = CARTESIAN_POINT('',(6.062177826491,-3.5,45.1));
#795 = DIRECTION('',(-0.866025403784,0.5,0.));
#796 = DIRECTION('',(0.,0.,-1.));
#797 = ADVANCED_FACE('',(#798),#831,.T.);
#798 = FACE_BOUND('',#799,.F.);
#799 = EDGE_LOOP('',(#800,#808,#809,#810,#811,#812,#813,#814,#815,#816,
    #817,#825));
#800 = ORIENTED_EDGE('',*,*,#801,.T.);
#801 = EDGE_CURVE('',#802,#778,#804,.T.);
#802 = VERTEX_POINT('',#803);
#803 = CARTESIAN_POINT('',(3.799617482997,-7.967212868522,44.));
#804 = LINE('',#805,#806);
#805 = CARTESIAN_POINT('',(7.892304845413,-10.33012701892,44.));
#806 = VECTOR('',#807,1.);
#807 = DIRECTION('',(-0.866025403784,0.5,0.));
#808 = ORIENTED_EDGE('',*,*,#777,.T.);
#809 = ORIENTED_EDGE('',*,*,#763,.T.);
#810 = ORIENTED_EDGE('',*,*,#739,.T.);
#811 = ORIENTED_EDGE('',*,*,#715,.T.);
#812 = ORIENTED_EDGE('',*,*,#691,.T.);
#813 = ORIENTED_EDGE('',*,*,#667,.T.);
#814 = ORIENTED_EDGE('',*,*,#643,.T.);
#815 = ORIENTED_EDGE('',*,*,#619,.T.);
#816 = ORIENTED_EDGE('',*,*,#578,.T.);
#817 = ORIENTED_EDGE('',*,*,#818,.F.);
#818 = EDGE_CURVE('',#819,#581,#821,.T.);
#819 = VERTEX_POINT('',#820);
#820 = CARTESIAN_POINT('',(3.799617482997,-7.967212868522,45.3));
#821 = LINE('',#822,#823);
#822 = CARTESIAN_POINT('',(6.492777207596,-9.52210936049,45.3));
#823 = VECTOR('',#824,1.);
#824 = DIRECTION('',(0.866025403784,-0.5,0.));
#825 = ORIENTED_EDGE('',*,*,#826,.F.);
#826 = EDGE_CURVE('',#802,#819,#827,.T.);
#827 = LINE('',#828,#829);
#828 = CARTESIAN_POINT('',(3.799617482997,-7.967212868522,
    46.555278416329));
#829 = VECTOR('',#830,1.);
#830 = DIRECTION('',(0.,0.,1.));
#831 = PLANE('',#832);
#832 = AXIS2_PLACEMENT_3D('',#833,#834,#835);
#833 = CARTESIAN_POINT('',(5.727241335952,-9.080127018922,
    49.110556832658));
#834 = DIRECTION('',(-0.5,-0.866025403784,-0.));
#835 = DIRECTION('',(0.,0.,1.));
#836 = ADVANCED_FACE('',(#837),#862,.T.);
#837 = FACE_BOUND('',#838,.F.);
#838 = EDGE_LOOP('',(#839,#847,#848,#856));
#839 = ORIENTED_EDGE('',*,*,#840,.F.);
#840 = EDGE_CURVE('',#392,#841,#843,.T.);
#841 = VERTEX_POINT('',#842);
#842 = CARTESIAN_POINT('',(12.827241335952,-6.75,44.));
#843 = LINE('',#844,#845);
#844 = CARTESIAN_POINT('',(10.227241335952,-6.75,44.));
#845 = VECTOR('',#846,1.);
#846 = DIRECTION('',(1.,2.4E-16,-0.));
#847 = ORIENTED_EDGE('',*,*,#391,.T.);
#848 = ORIENTED_EDGE('',*,*,#849,.T.);
#849 = EDGE_CURVE('',#383,#850,#852,.T.);
#850 = VERTEX_POINT('',#851);
#851 = CARTESIAN_POINT('',(12.827241335952,-6.75,45.3));
#852 = LINE('',#853,#854);
#853 = CARTESIAN_POINT('',(10.227241335952,-6.75,45.3));
#854 = VECTOR('',#855,1.);
#855 = DIRECTION('',(1.,2.4E-16,-0.));
#856 = ORIENTED_EDGE('',*,*,#857,.F.);
#857 = EDGE_CURVE('',#841,#850,#858,.T.);
#858 = LINE('',#859,#860);
#859 = CARTESIAN_POINT('',(12.827241335952,-6.75,44.));
#860 = VECTOR('',#861,1.);
#861 = DIRECTION('',(0.,0.,1.));
#862 = PLANE('',#863);
#863 = AXIS2_PLACEMENT_3D('',#864,#865,#866);
#864 = CARTESIAN_POINT('',(10.227241335952,-6.75,44.));
#865 = DIRECTION('',(2.4E-16,-1.,0.));
#866 = DIRECTION('',(0.,-0.,-1.));
#867 = ADVANCED_FACE('',(#868),#916,.T.);
#868 = FACE_BOUND('',#869,.F.);
#869 = EDGE_LOOP('',(#870,#880,#888,#894,#895,#901,#902,#910));
#870 = ORIENTED_EDGE('',*,*,#871,.F.);
#871 = EDGE_CURVE('',#872,#874,#876,.T.);
#872 = VERTEX_POINT('',#873);
#873 = CARTESIAN_POINT('',(12.827241335952,-7.25,51.));
#874 = VERTEX_POINT('',#875);
#875 = CARTESIAN_POINT('',(12.827241335952,-2.25,51.));
#876 = LINE('',#877,#878);
#877 = CARTESIAN_POINT('',(12.827241335952,-7.25,51.));
#878 = VECTOR('',#879,1.);
#879 = DIRECTION('',(0.,1.,0.));
#880 = ORIENTED_EDGE('',*,*,#881,.F.);
#881 = EDGE_CURVE('',#882,#872,#884,.T.);
#882 = VERTEX_POINT('',#883);
#883 = CARTESIAN_POINT('',(12.827241335952,-7.25,44.));
#884 = LINE('',#885,#886);
#885 = CARTESIAN_POINT('',(12.827241335952,-7.25,44.));
#886 = VECTOR('',#887,1.);
#887 = DIRECTION('',(0.,0.,1.));
#888 = ORIENTED_EDGE('',*,*,#889,.T.);
#889 = EDGE_CURVE('',#882,#841,#890,.T.);
#890 = LINE('',#891,#892);
#891 = CARTESIAN_POINT('',(12.827241335952,-7.25,44.));
#892 = VECTOR('',#893,1.);
#893 = DIRECTION('',(0.,1.,0.));
#894 = ORIENTED_EDGE('',*,*,#857,.T.);
#895 = ORIENTED_EDGE('',*,*,#896,.T.);
#896 = EDGE_CURVE('',#850,#424,#897,.T.);
#897 = LINE('',#898,#899);
#898 = CARTESIAN_POINT('',(12.827241335952,-5.,45.3));
#899 = VECTOR('',#900,1.);
#900 = DIRECTION('',(0.,1.,0.));
#901 = ORIENTED_EDGE('',*,*,#431,.F.);
#902 = ORIENTED_EDGE('',*,*,#903,.T.);
#903 = EDGE_CURVE('',#415,#904,#906,.T.);
#904 = VERTEX_POINT('',#905);
#905 = CARTESIAN_POINT('',(12.827241335952,-2.25,44.));
#906 = LINE('',#907,#908);
#907 = CARTESIAN_POINT('',(12.827241335952,-7.25,44.));
#908 = VECTOR('',#909,1.);
#909 = DIRECTION('',(0.,1.,0.));
#910 = ORIENTED_EDGE('',*,*,#911,.T.);
#911 = EDGE_CURVE('',#904,#874,#912,.T.);
#912 = LINE('',#913,#914);
#913 = CARTESIAN_POINT('',(12.827241335952,-2.25,44.));
#914 = VECTOR('',#915,1.);
#915 = DIRECTION('',(0.,0.,1.));
#916 = PLANE('',#917);
#917 = AXIS2_PLACEMENT_3D('',#918,#919,#920);
#918 = CARTESIAN_POINT('',(12.827241335952,-7.25,44.));
#919 = DIRECTION('',(-1.,0.,0.));
#920 = DIRECTION('',(0.,0.,-1.));
#921 = ADVANCED_FACE('',(#922),#947,.F.);
#922 = FACE_BOUND('',#923,.T.);
#923 = EDGE_LOOP('',(#924,#932,#933,#941));
#924 = ORIENTED_EDGE('',*,*,#925,.F.);
#925 = EDGE_CURVE('',#548,#926,#928,.T.);
#926 = VERTEX_POINT('',#927);
#927 = CARTESIAN_POINT('',(4.227241335952,-19.5139320225,44.));
#928 = LINE('',#929,#930);
#929 = CARTESIAN_POINT('',(4.227241335952,-14.75,44.));
#930 = VECTOR('',#931,1.);
#931 = DIRECTION('',(-2.2E-16,-1.,0.));
#932 = ORIENTED_EDGE('',*,*,#564,.F.);
#933 = ORIENTED_EDGE('',*,*,#934,.T.);
#934 = EDGE_CURVE('',#557,#935,#937,.T.);
#935 = VERTEX_POINT('',#936);
#936 = CARTESIAN_POINT('',(4.227241335952,-19.5139320225,45.3));
#937 = LINE('',#938,#939);
#938 = CARTESIAN_POINT('',(4.227241335952,-14.75,45.3));
#939 = VECTOR('',#940,1.);
#940 = DIRECTION('',(-2.2E-16,-1.,0.));
#941 = ORIENTED_EDGE('',*,*,#942,.F.);
#942 = EDGE_CURVE('',#926,#935,#943,.T.);
#943 = LINE('',#944,#945);
#944 = CARTESIAN_POINT('',(4.227241335952,-19.5139320225,44.));
#945 = VECTOR('',#946,1.);
#946 = DIRECTION('',(0.,0.,1.));
#947 = PLANE('',#948);
#948 = AXIS2_PLACEMENT_3D('',#949,#950,#951);
#949 = CARTESIAN_POINT('',(4.227241335952,-14.75,44.));
#950 = DIRECTION('',(-1.,2.2E-16,-0.));
#951 = DIRECTION('',(0.,-0.,-1.));
#952 = ADVANCED_FACE('',(#953),#978,.T.);
#953 = FACE_BOUND('',#954,.F.);
#954 = EDGE_LOOP('',(#955,#963,#964,#972));
#955 = ORIENTED_EDGE('',*,*,#956,.F.);
#956 = EDGE_CURVE('',#802,#957,#959,.T.);
#957 = VERTEX_POINT('',#958);
#958 = CARTESIAN_POINT('',(0.490755051703,-13.75772212328,44.));
#959 = LINE('',#960,#961);
#960 = CARTESIAN_POINT('',(4.490755051703,-6.757722123286,44.));
#961 = VECTOR('',#962,1.);
#962 = DIRECTION('',(-0.496138938357,-0.868243142124,0.));
#963 = ORIENTED_EDGE('',*,*,#826,.T.);
#964 = ORIENTED_EDGE('',*,*,#965,.T.);
#965 = EDGE_CURVE('',#819,#966,#968,.T.);
#966 = VERTEX_POINT('',#967);
#967 = CARTESIAN_POINT('',(0.490755051703,-13.75772212328,45.3));
#968 = LINE('',#969,#970);
#969 = CARTESIAN_POINT('',(4.490755051703,-6.757722123286,45.3));
#970 = VECTOR('',#971,1.);
#971 = DIRECTION('',(-0.496138938357,-0.868243142124,0.));
#972 = ORIENTED_EDGE('',*,*,#973,.F.);
#973 = EDGE_CURVE('',#957,#966,#974,.T.);
#974 = LINE('',#975,#976);
#975 = CARTESIAN_POINT('',(0.490755051703,-13.75772212328,44.));
#976 = VECTOR('',#977,1.);
#977 = DIRECTION('',(0.,0.,1.));
#978 = PLANE('',#979);
#979 = AXIS2_PLACEMENT_3D('',#980,#981,#982);
#980 = CARTESIAN_POINT('',(4.490755051703,-6.757722123286,44.));
#981 = DIRECTION('',(-0.868243142124,0.496138938357,-0.));
#982 = DIRECTION('',(0.,-0.,-1.));
#983 = ADVANCED_FACE('',(#984),#1009,.T.);
#984 = FACE_BOUND('',#985,.F.);
#985 = EDGE_LOOP('',(#986,#994,#1002,#1008));
#986 = ORIENTED_EDGE('',*,*,#987,.F.);
#987 = EDGE_CURVE('',#988,#874,#990,.T.);
#988 = VERTEX_POINT('',#989);
#989 = CARTESIAN_POINT('',(13.227241335952,-2.25,51.));
#990 = LINE('',#991,#992);
#991 = CARTESIAN_POINT('',(14.227241335952,-2.25,51.));
#992 = VECTOR('',#993,1.);
#993 = DIRECTION('',(-1.,0.,0.));
#994 = ORIENTED_EDGE('',*,*,#995,.F.);
#995 = EDGE_CURVE('',#996,#988,#998,.T.);
#996 = VERTEX_POINT('',#997);
#997 = CARTESIAN_POINT('',(13.227241335952,-7.25,51.));
#998 = LINE('',#999,#1000);
#999 = CARTESIAN_POINT('',(13.227241335952,-10.75,51.));
#1000 = VECTOR('',#1001,1.);
#1001 = DIRECTION('',(0.,1.,0.));
#1002 = ORIENTED_EDGE('',*,*,#1003,.T.);
#1003 = EDGE_CURVE('',#996,#872,#1004,.T.);
#1004 = LINE('',#1005,#1006);
#1005 = CARTESIAN_POINT('',(14.227241335952,-7.25,51.));
#1006 = VECTOR('',#1007,1.);
#1007 = DIRECTION('',(-1.,0.,0.));
#1008 = ORIENTED_EDGE('',*,*,#871,.T.);
#1009 = PLANE('',#1010);
#1010 = AXIS2_PLACEMENT_3D('',#1011,#1012,#1013);
#1011 = CARTESIAN_POINT('',(14.227241335952,-7.25,51.));
#1012 = DIRECTION('',(0.,0.,1.));
#1013 = DIRECTION('',(1.,0.,0.));
#1014 = ADVANCED_FACE('',(#1015),#1042,.T.);
#1015 = FACE_BOUND('',#1016,.F.);
#1016 = EDGE_LOOP('',(#1017,#1018,#1026,#1034,#1041));
#1017 = ORIENTED_EDGE('',*,*,#911,.F.);
#1018 = ORIENTED_EDGE('',*,*,#1019,.F.);
#1019 = EDGE_CURVE('',#1020,#904,#1022,.T.);
#1020 = VERTEX_POINT('',#1021);
#1021 = CARTESIAN_POINT('',(14.227241335952,-2.25,44.));
#1022 = LINE('',#1023,#1024);
#1023 = CARTESIAN_POINT('',(14.227241335952,-2.25,44.));
#1024 = VECTOR('',#1025,1.);
#1025 = DIRECTION('',(-1.,0.,0.));
#1026 = ORIENTED_EDGE('',*,*,#1027,.T.);
#1027 = EDGE_CURVE('',#1020,#1028,#1030,.T.);
#1028 = VERTEX_POINT('',#1029);
#1029 = CARTESIAN_POINT('',(14.227241335952,-2.25,48.7639320225));
#1030 = LINE('',#1031,#1032);
#1031 = CARTESIAN_POINT('',(14.227241335952,-2.25,44.));
#1032 = VECTOR('',#1033,1.);
#1033 = DIRECTION('',(0.,0.,1.));
#1034 = ORIENTED_EDGE('',*,*,#1035,.F.);
#1035 = EDGE_CURVE('',#988,#1028,#1036,.T.);
#1036 = CIRCLE('',#1037,3.);
#1037 = AXIS2_PLACEMENT_3D('',#1038,#1039,#1040);
#1038 = CARTESIAN_POINT('',(16.227241335952,-2.25,51.));
#1039 = DIRECTION('',(0.,-1.,0.));
#1040 = DIRECTION('',(0.,0.,1.));
#1041 = ORIENTED_EDGE('',*,*,#987,.T.);
#1042 = PLANE('',#1043);
#1043 = AXIS2_PLACEMENT_3D('',#1044,#1045,#1046);
#1044 = CARTESIAN_POINT('',(14.227241335952,-2.25,44.));
#1045 = DIRECTION('',(0.,1.,0.));
#1046 = DIRECTION('',(-0.,-0.,-1.));
#1047 = ADVANCED_FACE('',(#1048),#1075,.F.);
#1048 = FACE_BOUND('',#1049,.T.);
#1049 = EDGE_LOOP('',(#1050,#1051,#1059,#1067,#1074));
#1050 = ORIENTED_EDGE('',*,*,#881,.F.);
#1051 = ORIENTED_EDGE('',*,*,#1052,.F.);
#1052 = EDGE_CURVE('',#1053,#882,#1055,.T.);
#1053 = VERTEX_POINT('',#1054);
#1054 = CARTESIAN_POINT('',(14.227241335952,-7.25,44.));
#1055 = LINE('',#1056,#1057);
#1056 = CARTESIAN_POINT('',(14.227241335952,-7.25,44.));
#1057 = VECTOR('',#1058,1.);
#1058 = DIRECTION('',(-1.,0.,0.));
#1059 = ORIENTED_EDGE('',*,*,#1060,.T.);
#1060 = EDGE_CURVE('',#1053,#1061,#1063,.T.);
#1061 = VERTEX_POINT('',#1062);
#1062 = CARTESIAN_POINT('',(14.227241335952,-7.25,48.7639320225));
#1063 = LINE('',#1064,#1065);
#1064 = CARTESIAN_POINT('',(14.227241335952,-7.25,44.));
#1065 = VECTOR('',#1066,1.);
#1066 = DIRECTION('',(0.,0.,1.));
#1067 = ORIENTED_EDGE('',*,*,#1068,.F.);
#1068 = EDGE_CURVE('',#996,#1061,#1069,.T.);
#1069 = CIRCLE('',#1070,3.);
#1070 = AXIS2_PLACEMENT_3D('',#1071,#1072,#1073);
#1071 = CARTESIAN_POINT('',(16.227241335952,-7.25,51.));
#1072 = DIRECTION('',(0.,-1.,0.));
#1073 = DIRECTION('',(0.,0.,1.));
#1074 = ORIENTED_EDGE('',*,*,#1003,.T.);
#1075 = PLANE('',#1076);
#1076 = AXIS2_PLACEMENT_3D('',#1077,#1078,#1079);
#1077 = CARTESIAN_POINT('',(14.227241335952,-7.25,44.));
#1078 = DIRECTION('',(0.,1.,0.));
#1079 = DIRECTION('',(-0.,-0.,-1.));
#1080 = ADVANCED_FACE('',(#1081),#1108,.T.);
#1081 = FACE_BOUND('',#1082,.F.);
#1082 = EDGE_LOOP('',(#1083,#1092,#1100,#1107));
#1083 = ORIENTED_EDGE('',*,*,#1084,.F.);
#1084 = EDGE_CURVE('',#1085,#966,#1087,.T.);
#1085 = VERTEX_POINT('',#1086);
#1086 = CARTESIAN_POINT('',(0.227241335952,-14.75,45.3));
#1087 = CIRCLE('',#1088,2.);
#1088 = AXIS2_PLACEMENT_3D('',#1089,#1090,#1091);
#1089 = CARTESIAN_POINT('',(2.227241335952,-14.75,45.3));
#1090 = DIRECTION('',(0.,0.,-1.));
#1091 = DIRECTION('',(-1.,0.,0.));
#1092 = ORIENTED_EDGE('',*,*,#1093,.F.);
#1093 = EDGE_CURVE('',#1094,#1085,#1096,.T.);
#1094 = VERTEX_POINT('',#1095);
#1095 = CARTESIAN_POINT('',(0.227241335952,-14.75,44.));
#1096 = LINE('',#1097,#1098);
#1097 = CARTESIAN_POINT('',(0.227241335952,-14.75,44.));
#1098 = VECTOR('',#1099,1.);
#1099 = DIRECTION('',(0.,0.,1.));
#1100 = ORIENTED_EDGE('',*,*,#1101,.T.);
#1101 = EDGE_CURVE('',#1094,#957,#1102,.T.);
#1102 = CIRCLE('',#1103,2.);
#1103 = AXIS2_PLACEMENT_3D('',#1104,#1105,#1106);
#1104 = CARTESIAN_POINT('',(2.227241335952,-14.75,44.));
#1105 = DIRECTION('',(0.,0.,-1.));
#1106 = DIRECTION('',(-1.,0.,0.));
#1107 = ORIENTED_EDGE('',*,*,#973,.T.);
#1108 = CYLINDRICAL_SURFACE('',#1109,2.);
#1109 = AXIS2_PLACEMENT_3D('',#1110,#1111,#1112);
#1110 = CARTESIAN_POINT('',(2.227241335952,-14.75,44.));
#1111 = DIRECTION('',(0.,0.,1.));
#1112 = DIRECTION('',(-1.,0.,0.));
#1113 = ADVANCED_FACE('',(#1114,#1150),#1161,.T.);
#1114 = FACE_BOUND('',#1115,.F.);
#1115 = EDGE_LOOP('',(#1116,#1127,#1135,#1144));
#1116 = ORIENTED_EDGE('',*,*,#1117,.F.);
#1117 = EDGE_CURVE('',#1118,#1120,#1122,.T.);
#1118 = VERTEX_POINT('',#1119);
#1119 = CARTESIAN_POINT('',(16.227241335952,1.25,54.));
#1120 = VERTEX_POINT('',#1121);
#1121 = CARTESIAN_POINT('',(16.227241335952,1.25,48.));
#1122 = CIRCLE('',#1123,3.);
#1123 = AXIS2_PLACEMENT_3D('',#1124,#1125,#1126);
#1124 = CARTESIAN_POINT('',(16.227241335952,1.25,51.));
#1125 = DIRECTION('',(0.,-1.,0.));
#1126 = DIRECTION('',(0.,0.,1.));
#1127 = ORIENTED_EDGE('',*,*,#1128,.F.);
#1128 = EDGE_CURVE('',#1129,#1118,#1131,.T.);
#1129 = VERTEX_POINT('',#1130);
#1130 = CARTESIAN_POINT('',(16.227241335952,-10.75,54.));
#1131 = LINE('',#1132,#1133);
#1132 = CARTESIAN_POINT('',(16.227241335952,-10.75,54.));
#1133 = VECTOR('',#1134,1.);
#1134 = DIRECTION('',(0.,1.,0.));
#1135 = ORIENTED_EDGE('',*,*,#1136,.T.);
#1136 = EDGE_CURVE('',#1129,#1137,#1139,.T.);
#1137 = VERTEX_POINT('',#1138);
#1138 = CARTESIAN_POINT('',(16.227241335952,-10.75,48.));
#1139 = CIRCLE('',#1140,3.);
#1140 = AXIS2_PLACEMENT_3D('',#1141,#1142,#1143);
#1141 = CARTESIAN_POINT('',(16.227241335952,-10.75,51.));
#1142 = DIRECTION('',(0.,-1.,0.));
#1143 = DIRECTION('',(0.,0.,1.));
#1144 = ORIENTED_EDGE('',*,*,#1145,.T.);
#1145 = EDGE_CURVE('',#1137,#1120,#1146,.T.);
#1146 = LINE('',#1147,#1148);
#1147 = CARTESIAN_POINT('',(16.227241335952,-10.75,48.));
#1148 = VECTOR('',#1149,1.);
#1149 = DIRECTION('',(0.,1.,0.));
#1150 = FACE_BOUND('',#1151,.F.);
#1151 = EDGE_LOOP('',(#1152,#1153,#1154,#1155));
#1152 = ORIENTED_EDGE('',*,*,#1068,.F.);
#1153 = ORIENTED_EDGE('',*,*,#995,.T.);
#1154 = ORIENTED_EDGE('',*,*,#1035,.T.);
#1155 = ORIENTED_EDGE('',*,*,#1156,.F.);
#1156 = EDGE_CURVE('',#1061,#1028,#1157,.T.);
#1157 = LINE('',#1158,#1159);
#1158 = CARTESIAN_POINT('',(14.227241335952,-10.75,48.7639320225));
#1159 = VECTOR('',#1160,1.);
#1160 = DIRECTION('',(0.,1.,0.));
#1161 = CYLINDRICAL_SURFACE('',#1162,3.);
#1162 = AXIS2_PLACEMENT_3D('',#1163,#1164,#1165);
#1163 = CARTESIAN_POINT('',(16.227241335952,-10.75,51.));
#1164 = DIRECTION('',(0.,1.,0.));
#1165 = DIRECTION('',(0.,0.,1.));
#1166 = ADVANCED_FACE('',(#1167),#1210,.F.);
#1167 = FACE_BOUND('',#1168,.T.);
#1168 = EDGE_LOOP('',(#1169,#1170,#1171,#1172,#1180,#1188,#1196,#1204));
#1169 = ORIENTED_EDGE('',*,*,#1027,.T.);
#1170 = ORIENTED_EDGE('',*,*,#1156,.F.);
#1171 = ORIENTED_EDGE('',*,*,#1060,.F.);
#1172 = ORIENTED_EDGE('',*,*,#1173,.T.);
#1173 = EDGE_CURVE('',#1053,#1174,#1176,.T.);
#1174 = VERTEX_POINT('',#1175);
#1175 = CARTESIAN_POINT('',(14.227241335952,-6.62349939952,44.));
#1176 = LINE('',#1177,#1178);
#1177 = CARTESIAN_POINT('',(14.227241335952,-7.25,44.));
#1178 = VECTOR('',#1179,1.);
#1179 = DIRECTION('',(0.,1.,0.));
#1180 = ORIENTED_EDGE('',*,*,#1181,.T.);
#1181 = EDGE_CURVE('',#1174,#1182,#1184,.T.);
#1182 = VERTEX_POINT('',#1183);
#1183 = CARTESIAN_POINT('',(14.227241335952,-6.62349939952,45.3));
#1184 = LINE('',#1185,#1186);
#1185 = CARTESIAN_POINT('',(14.227241335952,-6.62349939952,44.));
#1186 = VECTOR('',#1187,1.);
#1187 = DIRECTION('',(0.,0.,1.));
#1188 = ORIENTED_EDGE('',*,*,#1189,.T.);
#1189 = EDGE_CURVE('',#1182,#1190,#1192,.T.);
#1190 = VERTEX_POINT('',#1191);
#1191 = CARTESIAN_POINT('',(14.227241335952,-2.87650060048,45.3));
#1192 = LINE('',#1193,#1194);
#1193 = CARTESIAN_POINT('',(14.227241335952,-6.,45.3));
#1194 = VECTOR('',#1195,1.);
#1195 = DIRECTION('',(0.,1.,0.));
#1196 = ORIENTED_EDGE('',*,*,#1197,.F.);
#1197 = EDGE_CURVE('',#1198,#1190,#1200,.T.);
#1198 = VERTEX_POINT('',#1199);
#1199 = CARTESIAN_POINT('',(14.227241335952,-2.87650060048,44.));
#1200 = LINE('',#1201,#1202);
#1201 = CARTESIAN_POINT('',(14.227241335952,-2.87650060048,44.));
#1202 = VECTOR('',#1203,1.);
#1203 = DIRECTION('',(0.,0.,1.));
#1204 = ORIENTED_EDGE('',*,*,#1205,.T.);
#1205 = EDGE_CURVE('',#1198,#1020,#1206,.T.);
#1206 = LINE('',#1207,#1208);
#1207 = CARTESIAN_POINT('',(14.227241335952,-7.25,44.));
#1208 = VECTOR('',#1209,1.);
#1209 = DIRECTION('',(0.,1.,0.));
#1210 = PLANE('',#1211);
#1211 = AXIS2_PLACEMENT_3D('',#1212,#1213,#1214);
#1212 = CARTESIAN_POINT('',(14.227241335952,-7.25,44.));
#1213 = DIRECTION('',(-1.,0.,0.));
#1214 = DIRECTION('',(0.,0.,-1.));
#1215 = ADVANCED_FACE('',(#1216),#1241,.T.);
#1216 = FACE_BOUND('',#1217,.F.);
#1217 = EDGE_LOOP('',(#1218,#1226,#1227,#1235));
#1218 = ORIENTED_EDGE('',*,*,#1219,.F.);
#1219 = EDGE_CURVE('',#1094,#1220,#1222,.T.);
#1220 = VERTEX_POINT('',#1221);
#1221 = CARTESIAN_POINT('',(0.227241335952,-19.5139320225,44.));
#1222 = LINE('',#1223,#1224);
#1223 = CARTESIAN_POINT('',(0.227241335952,-14.75,44.));
#1224 = VECTOR('',#1225,1.);
#1225 = DIRECTION('',(-2.2E-16,-1.,0.));
#1226 = ORIENTED_EDGE('',*,*,#1093,.T.);
#1227 = ORIENTED_EDGE('',*,*,#1228,.T.);
#1228 = EDGE_CURVE('',#1085,#1229,#1231,.T.);
#1229 = VERTEX_POINT('',#1230);
#1230 = CARTESIAN_POINT('',(0.227241335952,-19.5139320225,45.3));
#1231 = LINE('',#1232,#1233);
#1232 = CARTESIAN_POINT('',(0.227241335952,-14.75,45.3));
#1233 = VECTOR('',#1234,1.);
#1234 = DIRECTION('',(-2.2E-16,-1.,0.));
#1235 = ORIENTED_EDGE('',*,*,#1236,.F.);
#1236 = EDGE_CURVE('',#1220,#1229,#1237,.T.);
#1237 = LINE('',#1238,#1239);
#1238 = CARTESIAN_POINT('',(0.227241335952,-19.5139320225,44.));
#1239 = VECTOR('',#1240,1.);
#1240 = DIRECTION('',(0.,0.,1.));
#1241 = PLANE('',#1242);
#1242 = AXIS2_PLACEMENT_3D('',#1243,#1244,#1245);
#1243 = CARTESIAN_POINT('',(0.227241335952,-14.75,44.));
#1244 = DIRECTION('',(-1.,2.2E-16,-0.));
#1245 = DIRECTION('',(0.,-0.,-1.));
#1246 = ADVANCED_FACE('',(#1247),#1273,.T.);
#1247 = FACE_BOUND('',#1248,.F.);
#1248 = EDGE_LOOP('',(#1249,#1257,#1258,#1266));
#1249 = ORIENTED_EDGE('',*,*,#1250,.F.);
#1250 = EDGE_CURVE('',#1118,#1251,#1253,.T.);
#1251 = VERTEX_POINT('',#1252);
#1252 = CARTESIAN_POINT('',(16.227241335952,1.25,53.5));
#1253 = LINE('',#1254,#1255);
#1254 = CARTESIAN_POINT('',(16.227241335952,1.25,49.));
#1255 = VECTOR('',#1256,1.);
#1256 = DIRECTION('',(-0.,-0.,-1.));
#1257 = ORIENTED_EDGE('',*,*,#1117,.T.);
#1258 = ORIENTED_EDGE('',*,*,#1259,.F.);
#1259 = EDGE_CURVE('',#1260,#1120,#1262,.T.);
#1260 = VERTEX_POINT('',#1261);
#1261 = CARTESIAN_POINT('',(16.227241335952,1.25,48.5));
#1262 = LINE('',#1263,#1264);
#1263 = CARTESIAN_POINT('',(16.227241335952,1.25,49.));
#1264 = VECTOR('',#1265,1.);
#1265 = DIRECTION('',(-0.,-0.,-1.));
#1266 = ORIENTED_EDGE('',*,*,#1267,.F.);
#1267 = EDGE_CURVE('',#1251,#1260,#1268,.T.);
#1268 = CIRCLE('',#1269,2.5);
#1269 = AXIS2_PLACEMENT_3D('',#1270,#1271,#1272);
#1270 = CARTESIAN_POINT('',(16.227241335952,1.25,51.));
#1271 = DIRECTION('',(0.,-1.,0.));
#1272 = DIRECTION('',(0.,0.,1.));
#1273 = PLANE('',#1274);
#1274 = AXIS2_PLACEMENT_3D('',#1275,#1276,#1277);
#1275 = CARTESIAN_POINT('',(16.227241335952,1.25,51.));
#1276 = DIRECTION('',(0.,1.,0.));
#1277 = DIRECTION('',(0.,0.,-1.));
#1278 = ADVANCED_FACE('',(#1279),#1297,.F.);
#1279 = FACE_BOUND('',#1280,.T.);
#1280 = EDGE_LOOP('',(#1281,#1282,#1290,#1296));
#1281 = ORIENTED_EDGE('',*,*,#1128,.F.);
#1282 = ORIENTED_EDGE('',*,*,#1283,.T.);
#1283 = EDGE_CURVE('',#1129,#1284,#1286,.T.);
#1284 = VERTEX_POINT('',#1285);
#1285 = CARTESIAN_POINT('',(16.227241335952,-10.75,53.5));
#1286 = LINE('',#1287,#1288);
#1287 = CARTESIAN_POINT('',(16.227241335952,-10.75,49.));
#1288 = VECTOR('',#1289,1.);
#1289 = DIRECTION('',(-0.,-0.,-1.));
#1290 = ORIENTED_EDGE('',*,*,#1291,.T.);
#1291 = EDGE_CURVE('',#1284,#1251,#1292,.T.);
#1292 = LINE('',#1293,#1294);
#1293 = CARTESIAN_POINT('',(16.227241335952,-10.85,53.5));
#1294 = VECTOR('',#1295,1.);
#1295 = DIRECTION('',(0.,1.,0.));
#1296 = ORIENTED_EDGE('',*,*,#1250,.F.);
#1297 = PLANE('',#1298);
#1298 = AXIS2_PLACEMENT_3D('',#1299,#1300,#1301);
#1299 = CARTESIAN_POINT('',(16.227241335952,-10.85,47.));
#1300 = DIRECTION('',(-1.,0.,0.));
#1301 = DIRECTION('',(0.,0.,-1.));
#1302 = ADVANCED_FACE('',(#1303),#1321,.F.);
#1303 = FACE_BOUND('',#1304,.T.);
#1304 = EDGE_LOOP('',(#1305,#1313,#1314,#1315));
#1305 = ORIENTED_EDGE('',*,*,#1306,.T.);
#1306 = EDGE_CURVE('',#1307,#1137,#1309,.T.);
#1307 = VERTEX_POINT('',#1308);
#1308 = CARTESIAN_POINT('',(16.227241335952,-10.75,48.5));
#1309 = LINE('',#1310,#1311);
#1310 = CARTESIAN_POINT('',(16.227241335952,-10.75,49.));
#1311 = VECTOR('',#1312,1.);
#1312 = DIRECTION('',(-0.,-0.,-1.));
#1313 = ORIENTED_EDGE('',*,*,#1145,.T.);
#1314 = ORIENTED_EDGE('',*,*,#1259,.F.);
#1315 = ORIENTED_EDGE('',*,*,#1316,.F.);
#1316 = EDGE_CURVE('',#1307,#1260,#1317,.T.);
#1317 = LINE('',#1318,#1319);
#1318 = CARTESIAN_POINT('',(16.227241335952,-10.85,48.5));
#1319 = VECTOR('',#1320,1.);
#1320 = DIRECTION('',(0.,1.,0.));
#1321 = PLANE('',#1322);
#1322 = AXIS2_PLACEMENT_3D('',#1323,#1324,#1325);
#1323 = CARTESIAN_POINT('',(16.227241335952,-10.85,47.));
#1324 = DIRECTION('',(-1.,0.,0.));
#1325 = DIRECTION('',(0.,0.,-1.));
#1326 = ADVANCED_FACE('',(#1327),#1339,.F.);
#1327 = FACE_BOUND('',#1328,.T.);
#1328 = EDGE_LOOP('',(#1329,#1330,#1331,#1332));
#1329 = ORIENTED_EDGE('',*,*,#1283,.F.);
#1330 = ORIENTED_EDGE('',*,*,#1136,.T.);
#1331 = ORIENTED_EDGE('',*,*,#1306,.F.);
#1332 = ORIENTED_EDGE('',*,*,#1333,.F.);
#1333 = EDGE_CURVE('',#1284,#1307,#1334,.T.);
#1334 = CIRCLE('',#1335,2.5);
#1335 = AXIS2_PLACEMENT_3D('',#1336,#1337,#1338);
#1336 = CARTESIAN_POINT('',(16.227241335952,-10.75,51.));
#1337 = DIRECTION('',(0.,-1.,0.));
#1338 = DIRECTION('',(0.,0.,1.));
#1339 = PLANE('',#1340);
#1340 = AXIS2_PLACEMENT_3D('',#1341,#1342,#1343);
#1341 = CARTESIAN_POINT('',(16.227241335952,-10.75,51.));
#1342 = DIRECTION('',(0.,1.,0.));
#1343 = DIRECTION('',(0.,0.,-1.));
#1344 = ADVANCED_FACE('',(#1345),#1363,.T.);
#1345 = FACE_BOUND('',#1346,.F.);
#1346 = EDGE_LOOP('',(#1347,#1354,#1355,#1362));
#1347 = ORIENTED_EDGE('',*,*,#1348,.F.);
#1348 = EDGE_CURVE('',#1190,#1182,#1349,.T.);
#1349 = CIRCLE('',#1350,2.);
#1350 = AXIS2_PLACEMENT_3D('',#1351,#1352,#1353);
#1351 = CARTESIAN_POINT('',(13.527241335952,-4.75,45.3));
#1352 = DIRECTION('',(0.,0.,-1.));
#1353 = DIRECTION('',(-1.,0.,0.));
#1354 = ORIENTED_EDGE('',*,*,#1197,.F.);
#1355 = ORIENTED_EDGE('',*,*,#1356,.T.);
#1356 = EDGE_CURVE('',#1198,#1174,#1357,.T.);
#1357 = CIRCLE('',#1358,2.);
#1358 = AXIS2_PLACEMENT_3D('',#1359,#1360,#1361);
#1359 = CARTESIAN_POINT('',(13.527241335952,-4.75,44.));
#1360 = DIRECTION('',(0.,0.,-1.));
#1361 = DIRECTION('',(-1.,0.,0.));
#1362 = ORIENTED_EDGE('',*,*,#1181,.T.);
#1363 = CYLINDRICAL_SURFACE('',#1364,2.);
#1364 = AXIS2_PLACEMENT_3D('',#1365,#1366,#1367);
#1365 = CARTESIAN_POINT('',(13.527241335952,-4.75,44.));
#1366 = DIRECTION('',(0.,0.,1.));
#1367 = DIRECTION('',(-1.,0.,0.));
#1368 = ADVANCED_FACE('',(#1369),#1373,.T.);
#1369 = FACE_BOUND('',#1370,.F.);
#1370 = EDGE_LOOP('',(#1371,#1372));
#1371 = ORIENTED_EDGE('',*,*,#1189,.T.);
#1372 = ORIENTED_EDGE('',*,*,#1348,.T.);
#1373 = PLANE('',#1374);
#1374 = AXIS2_PLACEMENT_3D('',#1375,#1376,#1377);
#1375 = CARTESIAN_POINT('',(13.527241335952,-4.75,45.3));
#1376 = DIRECTION('',(0.,0.,1.));
#1377 = DIRECTION('',(1.,0.,0.));
#1378 = ADVANCED_FACE('',(#1379),#1418,.T.);
#1379 = FACE_BOUND('',#1380,.F.);
#1380 = EDGE_LOOP('',(#1381,#1382,#1383,#1384,#1385,#1386,#1395,#1402,
    #1403,#1404,#1405,#1406,#1407,#1408,#1409,#1410,#1411,#1412,#1413,
    #1414,#1415,#1416,#1417));
#1381 = ORIENTED_EDGE('',*,*,#785,.F.);
#1382 = ORIENTED_EDGE('',*,*,#801,.F.);
#1383 = ORIENTED_EDGE('',*,*,#956,.T.);
#1384 = ORIENTED_EDGE('',*,*,#1101,.F.);
#1385 = ORIENTED_EDGE('',*,*,#1219,.T.);
#1386 = ORIENTED_EDGE('',*,*,#1387,.F.);
#1387 = EDGE_CURVE('',#1388,#1220,#1390,.T.);
#1388 = VERTEX_POINT('',#1389);
#1389 = CARTESIAN_POINT('',(-0.772758664048,-21.75,44.));
#1390 = CIRCLE('',#1391,3.);
#1391 = AXIS2_PLACEMENT_3D('',#1392,#1393,#1394);
#1392 = CARTESIAN_POINT('',(2.227241335952,-21.75,44.));
#1393 = DIRECTION('',(0.,0.,-1.));
#1394 = DIRECTION('',(-1.,0.,0.));
#1395 = ORIENTED_EDGE('',*,*,#1396,.F.);
#1396 = EDGE_CURVE('',#926,#1388,#1397,.T.);
#1397 = CIRCLE('',#1398,3.);
#1398 = AXIS2_PLACEMENT_3D('',#1399,#1400,#1401);
#1399 = CARTESIAN_POINT('',(2.227241335952,-21.75,44.));
#1400 = DIRECTION('',(0.,0.,-1.));
#1401 = DIRECTION('',(-1.,0.,0.));
#1402 = ORIENTED_EDGE('',*,*,#925,.F.);
#1403 = ORIENTED_EDGE('',*,*,#547,.F.);
#1404 = ORIENTED_EDGE('',*,*,#155,.F.);
#1405 = ORIENTED_EDGE('',*,*,#61,.T.);
#1406 = ORIENTED_EDGE('',*,*,#399,.F.);
#1407 = ORIENTED_EDGE('',*,*,#840,.T.);
#1408 = ORIENTED_EDGE('',*,*,#889,.F.);
#1409 = ORIENTED_EDGE('',*,*,#1052,.F.);
#1410 = ORIENTED_EDGE('',*,*,#1173,.T.);
#1411 = ORIENTED_EDGE('',*,*,#1356,.F.);
#1412 = ORIENTED_EDGE('',*,*,#1205,.T.);
#1413 = ORIENTED_EDGE('',*,*,#1019,.T.);
#1414 = ORIENTED_EDGE('',*,*,#903,.F.);
#1415 = ORIENTED_EDGE('',*,*,#414,.F.);
#1416 = ORIENTED_EDGE('',*,*,#86,.T.);
#1417 = ORIENTED_EDGE('',*,*,#236,.T.);
#1418 = PLANE('',#1419);
#1419 = AXIS2_PLACEMENT_3D('',#1420,#1421,#1422);
#1420 = CARTESIAN_POINT('',(6.338395154452,-10.9343532328,44.));
#1421 = DIRECTION('',(-0.,-0.,-1.));
#1422 = DIRECTION('',(-1.,0.,0.));
#1423 = ADVANCED_FACE('',(#1424),#1431,.T.);
#1424 = FACE_BOUND('',#1425,.F.);
#1425 = EDGE_LOOP('',(#1426,#1427,#1428,#1429,#1430));
#1426 = ORIENTED_EDGE('',*,*,#382,.T.);
#1427 = ORIENTED_EDGE('',*,*,#102,.T.);
#1428 = ORIENTED_EDGE('',*,*,#423,.T.);
#1429 = ORIENTED_EDGE('',*,*,#896,.F.);
#1430 = ORIENTED_EDGE('',*,*,#849,.F.);
#1431 = PLANE('',#1432);
#1432 = AXIS2_PLACEMENT_3D('',#1433,#1434,#1435);
#1433 = CARTESIAN_POINT('',(11.820282410239,-5.129531595781,45.3));
#1434 = DIRECTION('',(0.,0.,1.));
#1435 = DIRECTION('',(1.,0.,0.));
#1436 = ADVANCED_FACE('',(#1437),#1465,.T.);
#1437 = FACE_BOUND('',#1438,.F.);
#1438 = EDGE_LOOP('',(#1439,#1440,#1441,#1442,#1443,#1444,#1453,#1460,
    #1461,#1462,#1463,#1464));
#1439 = ORIENTED_EDGE('',*,*,#295,.F.);
#1440 = ORIENTED_EDGE('',*,*,#533,.T.);
#1441 = ORIENTED_EDGE('',*,*,#171,.T.);
#1442 = ORIENTED_EDGE('',*,*,#556,.T.);
#1443 = ORIENTED_EDGE('',*,*,#934,.T.);
#1444 = ORIENTED_EDGE('',*,*,#1445,.T.);
#1445 = EDGE_CURVE('',#935,#1446,#1448,.T.);
#1446 = VERTEX_POINT('',#1447);
#1447 = CARTESIAN_POINT('',(-0.772758664048,-21.75,45.3));
#1448 = CIRCLE('',#1449,3.);
#1449 = AXIS2_PLACEMENT_3D('',#1450,#1451,#1452);
#1450 = CARTESIAN_POINT('',(2.227241335952,-21.75,45.3));
#1451 = DIRECTION('',(0.,0.,-1.));
#1452 = DIRECTION('',(-1.,0.,0.));
#1453 = ORIENTED_EDGE('',*,*,#1454,.T.);
#1454 = EDGE_CURVE('',#1446,#1229,#1455,.T.);
#1455 = CIRCLE('',#1456,3.);
#1456 = AXIS2_PLACEMENT_3D('',#1457,#1458,#1459);
#1457 = CARTESIAN_POINT('',(2.227241335952,-21.75,45.3));
#1458 = DIRECTION('',(0.,0.,-1.));
#1459 = DIRECTION('',(-1.,0.,0.));
#1460 = ORIENTED_EDGE('',*,*,#1228,.F.);
#1461 = ORIENTED_EDGE('',*,*,#1084,.T.);
#1462 = ORIENTED_EDGE('',*,*,#965,.F.);
#1463 = ORIENTED_EDGE('',*,*,#818,.T.);
#1464 = ORIENTED_EDGE('',*,*,#595,.F.);
#1465 = PLANE('',#1466);
#1466 = AXIS2_PLACEMENT_3D('',#1467,#1468,#1469);
#1467 = CARTESIAN_POINT('',(5.078917170752,-11.87835238551,45.3));
#1468 = DIRECTION('',(0.,0.,1.));
#1469 = DIRECTION('',(1.,0.,0.));
#1470 = ADVANCED_FACE('',(#1471),#1479,.T.);
#1471 = FACE_BOUND('',#1472,.F.);
#1472 = EDGE_LOOP('',(#1473,#1474,#1475,#1476,#1477,#1478));
#1473 = ORIENTED_EDGE('',*,*,#1387,.T.);
#1474 = ORIENTED_EDGE('',*,*,#1236,.T.);
#1475 = ORIENTED_EDGE('',*,*,#1454,.F.);
#1476 = ORIENTED_EDGE('',*,*,#1445,.F.);
#1477 = ORIENTED_EDGE('',*,*,#942,.F.);
#1478 = ORIENTED_EDGE('',*,*,#1396,.T.);
#1479 = CYLINDRICAL_SURFACE('',#1480,3.);
#1480 = AXIS2_PLACEMENT_3D('',#1481,#1482,#1483);
#1481 = CARTESIAN_POINT('',(2.227241335952,-21.75,44.));
#1482 = DIRECTION('',(0.,0.,1.));
#1483 = DIRECTION('',(-1.,0.,0.));
#1484 = ADVANCED_FACE('',(#1485),#1491,.F.);
#1485 = FACE_BOUND('',#1486,.T.);
#1486 = EDGE_LOOP('',(#1487,#1488,#1489,#1490));
#1487 = ORIENTED_EDGE('',*,*,#1316,.T.);
#1488 = ORIENTED_EDGE('',*,*,#1267,.F.);
#1489 = ORIENTED_EDGE('',*,*,#1291,.F.);
#1490 = ORIENTED_EDGE('',*,*,#1333,.T.);
#1491 = CYLINDRICAL_SURFACE('',#1492,2.5);
#1492 = AXIS2_PLACEMENT_3D('',#1493,#1494,#1495);
#1493 = CARTESIAN_POINT('',(16.227241335952,-10.85,51.));
#1494 = DIRECTION('',(0.,1.,0.));
#1495 = DIRECTION('',(0.,0.,1.));
#1496 = ( GEOMETRIC_REPRESENTATION_CONTEXT(3) 
GLOBAL_UNCERTAINTY_ASSIGNED_CONTEXT((#1500)) 
GLOBAL_UNIT_ASSIGNED_CONTEXT((#1497,#1498,#1499)) REPRESENTATION_CONTEXT
('Context #1','3D Context with UNIT and UNCERTAINTY') );
#1497 = ( LENGTH_UNIT() NAMED_UNIT(*) SI_UNIT(.MILLI.,.METRE.) );
#1498 = ( NAMED_UNIT(*) PLANE_ANGLE_UNIT() SI_UNIT($,.RADIAN.) );
#1499 = ( NAMED_UNIT(*) SI_UNIT($,.STERADIAN.) SOLID_ANGLE_UNIT() );
#1500 = UNCERTAINTY_MEASURE_WITH_UNIT(LENGTH_MEASURE(1.E-07),#1497,
  'distance_accuracy_value','confusion accuracy');
#1501 = PRODUCT_RELATED_PRODUCT_CATEGORY('part',$,(#7));
ENDSEC;
END-ISO-10303-21;
