ISO-10303-21;
HEADER;
FILE_DESCRIPTION(('FreeCAD Model'),'2;1');
FILE_NAME('Open CASCADE Shape Model','2026-09-30T05:23:30',('FreeCAD'),(
    'FreeCAD'),'Open CASCADE STEP processor 7.8','FreeCAD','Unknown');
FILE_SCHEMA(('AUTOMOTIVE_DESIGN { 1 0 10303 214 1 1 1 1 }'));
ENDSEC;
DATA;
#1 = APPLICATION_PROTOCOL_DEFINITION('international standard',
  'automotive_design',2000,#2);
#2 = APPLICATION_CONTEXT(
  'core data for automotive mechanical design processes');
#3 = SHAPE_DEFINITION_REPRESENTATION(#4,#10);
#4 = PRODUCT_DEFINITION_SHAPE('','',#5);
#5 = PRODUCT_DEFINITION('design','',#6,#9);
#6 = PRODUCT_DEFINITION_FORMATION('','',#7);
#7 = PRODUCT('Open CASCADE STEP translator 7.8 13',
  'Open CASCADE STEP translator 7.8 13','',(#8));
#8 = PRODUCT_CONTEXT('',#2,'mechanical');
#9 = PRODUCT_DEFINITION_CONTEXT('part definition',#2,'design');
#10 = ADVANCED_BREP_SHAPE_REPRESENTATION('',(#11,#15),#427);
#11 = AXIS2_PLACEMENT_3D('',#12,#13,#14);
#12 = CARTESIAN_POINT('',(0.,0.,0.));
#13 = DIRECTION('',(0.,0.,1.));
#14 = DIRECTION('',(1.,0.,-0.));
#15 = MANIFOLD_SOLID_BREP('',#16);
#16 = CLOSED_SHELL('',(#17,#409,#418));
#17 = ADVANCED_FACE('',(#18),#93,.T.);
#18 = FACE_BOUND('',#19,.T.);
#19 = EDGE_LOOP('',(#20,#72,#82,#83));
#20 = ORIENTED_EDGE('',*,*,#21,.T.);
#21 = EDGE_CURVE('',#22,#24,#26,.T.);
#22 = VERTEX_POINT('',#23);
#23 = CARTESIAN_POINT('',(-7.497241335952,-4.75,58.28));
#24 = VERTEX_POINT('',#25);
#25 = CARTESIAN_POINT('',(-7.497241336025,-4.750000233621,
    59.940002962294));
#26 = ( BOUNDED_CURVE() B_SPLINE_CURVE(11,(#27,#28,#29,#30,#31,#32,#33,
    #34,#35,#36,#37,#38,#39,#40,#41,#42,#43,#44,#45,#46,#47,#48,#49,#50,
    #51,#52,#53,#54,#55,#56,#57,#58,#59,#60,#61,#62,#63,#64,#65,#66,#67,
#68,#69,#70,#71),.UNSPECIFIED.,.F.,.F.) B_SPLINE_CURVE_WITH_KNOTS((12,11
    ,11,11,12),(0.,7.864938175651,15.729876351301,23.594814526952,
31.459752702603),.PIECEWISE_BEZIER_KNOTS.) CURVE() 
GEOMETRIC_REPRESENTATION_ITEM() RATIONAL_B_SPLINE_CURVE((1.669078461068,
    1.669078461068,1.669078461068,1.669078461068,1.669078461068,
    1.669078461068,1.669078461068,1.669078461068,1.669078461068,
    1.669078461068,1.669078461068,1.669078461068,1.669078461068,
    1.669078461068,1.669078461068,1.669078461068,1.669078461068,
    1.669078461068,1.669078461068,1.669078461068,1.669078461068,
    1.669078461068,1.669078461068,1.669078461068,1.669078461067,
    1.66907846107,1.669078461065,1.669078461072,1.669078461065,
    1.669078461071,1.669078461067,1.669078461069,1.669078461068,
    1.669078461068,1.669078461068,1.669078461069,1.669078461066,
    1.669078461072,1.669078461063,1.669078461073,1.669078461065,
    1.66907846107,1.669078461068,1.669078461068,1.669078461068)) 
REPRESENTATION_ITEM('') );
#27 = CARTESIAN_POINT('',(-7.497241335952,-4.75,58.28));
#28 = CARTESIAN_POINT('',(-7.49724135719,-4.228791362187,58.31773968192)
  );
#29 = CARTESIAN_POINT('',(-7.905992427974,-3.707116336096,
    58.355415257043));
#30 = CARTESIAN_POINT('',(-8.729570188733,-3.546146991596,
    58.393280503751));
#31 = CARTESIAN_POINT('',(-9.587222704382,-4.086546184381,
    58.430745746368));
#32 = CARTESIAN_POINT('',(-9.876620052447,-5.335591914606,
    58.468848230388));
#33 = CARTESIAN_POINT('',(-8.812832718885,-6.399377710324,
    58.506157805492));
#34 = CARTESIAN_POINT('',(-7.563789094976,-6.109982098475,
    58.544249287225));
#35 = CARTESIAN_POINT('',(-7.023387464655,-5.252328978612,
    58.581732189258));
#36 = CARTESIAN_POINT('',(-7.184358335231,-4.428751521973,
    58.619579191463));
#37 = CARTESIAN_POINT('',(-7.70603199264,-4.020000166362,58.65726899454)
  );
#38 = CARTESIAN_POINT('',(-8.227241335952,-4.02,58.695));
#39 = CARTESIAN_POINT('',(-8.748449973765,-4.020000021238,58.73273968192
    ));
#40 = CARTESIAN_POINT('',(-9.270124999858,-4.428751092021,
    58.770415257042));
#41 = CARTESIAN_POINT('',(-9.43109434435,-5.252328852782,58.808280503751
    ));
#42 = CARTESIAN_POINT('',(-8.890695151587,-6.109981368428,
    58.845745746368));
#43 = CARTESIAN_POINT('',(-7.64164942132,-6.399378716498,58.883848230389
    ));
#44 = CARTESIAN_POINT('',(-6.57786362566,-5.335591382928,58.921157805491
    ));
#45 = CARTESIAN_POINT('',(-6.867259237451,-4.086547759028,
    58.959249287225));
#46 = CARTESIAN_POINT('',(-7.724912357354,-3.5461461287,58.996732189258)
  );
#47 = CARTESIAN_POINT('',(-8.548489813975,-3.70711699928,59.034579191463
    ));
#48 = CARTESIAN_POINT('',(-8.957241169591,-4.228790656688,59.07226899454
    ));
#49 = CARTESIAN_POINT('',(-8.957241335952,-4.75,59.11));
#50 = CARTESIAN_POINT('',(-8.957241314714,-5.271208637813,59.14773968192
    ));
#51 = CARTESIAN_POINT('',(-8.548490243931,-5.792883663906,
    59.185415257042));
#52 = CARTESIAN_POINT('',(-7.72491248317,-5.953853008399,59.223280503751
    ));
#53 = CARTESIAN_POINT('',(-6.867259967523,-5.413453815631,
    59.260745746367));
#54 = CARTESIAN_POINT('',(-6.577862619455,-4.164408085377,
    59.298848230389));
#55 = CARTESIAN_POINT('',(-7.641649953025,-3.100622289695,
    59.336157805491));
#56 = CARTESIAN_POINT('',(-8.890693576922,-3.390017901508,
    59.374249287225));
#57 = CARTESIAN_POINT('',(-9.431095207254,-4.247671021398,
    59.411732189258));
#58 = CARTESIAN_POINT('',(-9.270124336672,-5.071248478023,
    59.449579191463));
#59 = CARTESIAN_POINT('',(-8.748450679265,-5.479999833639,59.48726899454
    ));
#60 = CARTESIAN_POINT('',(-8.227241335952,-5.48,59.525));
#61 = CARTESIAN_POINT('',(-7.706032698146,-5.48,59.562739951219));
#62 = CARTESIAN_POINT('',(-7.184357672017,-5.071248813601,
    59.600414060349));
#63 = CARTESIAN_POINT('',(-7.023388327635,-4.247671402491,
    59.638283740584));
#64 = CARTESIAN_POINT('',(-7.563787520152,-3.390018120229,
    59.675739262571));
#65 = CARTESIAN_POINT('',(-8.812833250852,-3.100622095389,
    59.713858525071));
#66 = CARTESIAN_POINT('',(-9.876619045896,-4.16440756278,59.751144437194
    ));
#67 = CARTESIAN_POINT('',(-9.587223434823,-5.413453377622,
    59.789263699782));
#68 = CARTESIAN_POINT('',(-8.729570314223,-5.953852848608,
    59.826719221662));
#69 = CARTESIAN_POINT('',(-7.905992858172,-5.792883766539,
    59.864588901965));
#70 = CARTESIAN_POINT('',(-7.497241502165,-5.271208871427,59.90226301107
    ));
#71 = CARTESIAN_POINT('',(-7.497241336025,-4.750000233621,
    59.940002962294));
#72 = ORIENTED_EDGE('',*,*,#73,.F.);
#73 = EDGE_CURVE('',#24,#24,#74,.T.);
#74 = ( BOUNDED_CURVE() B_SPLINE_CURVE(6,(#75,#76,#77,#78,#79,#80,#81),
.UNSPECIFIED.,.T.,.F.) B_SPLINE_CURVE_WITH_KNOTS((1,6,6,1),(
    -6.28318530718,0.,6.28318530718,12.566370614359),.UNSPECIFIED.) 
CURVE() GEOMETRIC_REPRESENTATION_ITEM() RATIONAL_B_SPLINE_CURVE((
    1.669078461068,1.03672962321,1.038346699848,0.853534330196,
1.038346699848,1.03672962321,1.669078461068)) REPRESENTATION_ITEM('') );
#75 = CARTESIAN_POINT('',(-7.497241336025,-4.750000233621,
    59.940002962294));
#76 = CARTESIAN_POINT('',(-7.497236398764,-4.742162330926,
    59.840618966258));
#77 = CARTESIAN_POINT('',(-7.620508581139,-4.741036461508,
    59.826343029679));
#78 = CARTESIAN_POINT('',(-7.72218835101,-4.749999357749,59.939991856309
    ));
#79 = CARTESIAN_POINT('',(-7.620519873475,-4.758963045763,
    60.053650722559));
#80 = CARTESIAN_POINT('',(-7.497246273287,-4.757838136315,60.03938695833
    ));
#81 = CARTESIAN_POINT('',(-7.497241336025,-4.750000233621,
    59.940002962294));
#82 = ORIENTED_EDGE('',*,*,#21,.F.);
#83 = ORIENTED_EDGE('',*,*,#84,.T.);
#84 = EDGE_CURVE('',#22,#22,#85,.T.);
#85 = ( BOUNDED_CURVE() B_SPLINE_CURVE(6,(#86,#87,#88,#89,#90,#91,#92),
.UNSPECIFIED.,.T.,.F.) B_SPLINE_CURVE_WITH_KNOTS((1,6,6,1),(
    -6.28318530718,0.,6.28318530718,12.566370614359),.UNSPECIFIED.) 
CURVE() GEOMETRIC_REPRESENTATION_ITEM() RATIONAL_B_SPLINE_CURVE((
    1.669078461068,1.03672962321,1.038346699848,0.853534330196,
1.038346699848,1.03672962321,1.669078461068)) REPRESENTATION_ITEM('') );
#86 = CARTESIAN_POINT('',(-7.497241335952,-4.75,58.28));
#87 = CARTESIAN_POINT('',(-7.497241335952,-4.742162097296,
    58.180616003842));
#88 = CARTESIAN_POINT('',(-7.620514227385,-4.741036707861,
    58.166346153421));
#89 = CARTESIAN_POINT('',(-7.722188351213,-4.75,58.28));
#90 = CARTESIAN_POINT('',(-7.620514227385,-4.758963292139,
    58.393653846579));
#91 = CARTESIAN_POINT('',(-7.497241335952,-4.757837902704,
    58.379383996158));
#92 = CARTESIAN_POINT('',(-7.497241335952,-4.75,58.28));
#93 = ( BOUNDED_SURFACE() B_SPLINE_SURFACE(6,11,(
    (#94,#95,#96,#97,#98,#99,#100,#101,#102,#103,#104,#105,#106,#107
      ,#108,#109,#110,#111,#112,#113,#114,#115,#116,#117,#118,#119,#120
      ,#121,#122,#123,#124,#125,#126,#127,#128,#129,#130,#131,#132,#133
      ,#134,#135,#136,#137,#138)
    ,(#139,#140,#141,#142,#143,#144,#145,#146,#147,#148,#149,#150,#151
      ,#152,#153,#154,#155,#156,#157,#158,#159,#160,#161,#162,#163,#164
      ,#165,#166,#167,#168,#169,#170,#171,#172,#173,#174,#175,#176,#177
      ,#178,#179,#180,#181,#182,#183)
    ,(#184,#185,#186,#187,#188,#189,#190,#191,#192,#193,#194,#195,#196
      ,#197,#198,#199,#200,#201,#202,#203,#204,#205,#206,#207,#208,#209
      ,#210,#211,#212,#213,#214,#215,#216,#217,#218,#219,#220,#221,#222
      ,#223,#224,#225,#226,#227,#228)
    ,(#229,#230,#231,#232,#233,#234,#235,#236,#237,#238,#239,#240,#241
      ,#242,#243,#244,#245,#246,#247,#248,#249,#250,#251,#252,#253,#254
      ,#255,#256,#257,#258,#259,#260,#261,#262,#263,#264,#265,#266,#267
      ,#268,#269,#270,#271,#272,#273)
    ,(#274,#275,#276,#277,#278,#279,#280,#281,#282,#283,#284,#285,#286
      ,#287,#288,#289,#290,#291,#292,#293,#294,#295,#296,#297,#298,#299
      ,#300,#301,#302,#303,#304,#305,#306,#307,#308,#309,#310,#311,#312
      ,#313,#314,#315,#316,#317,#318)
    ,(#319,#320,#321,#322,#323,#324,#325,#326,#327,#328,#329,#330,#331
      ,#332,#333,#334,#335,#336,#337,#338,#339,#340,#341,#342,#343,#344
      ,#345,#346,#347,#348,#349,#350,#351,#352,#353,#354,#355,#356,#357
      ,#358,#359,#360,#361,#362,#363)
    ,(#364,#365,#366,#367,#368,#369,#370,#371,#372,#373,#374,#375,#376
      ,#377,#378,#379,#380,#381,#382,#383,#384,#385,#386,#387,#388,#389
      ,#390,#391,#392,#393,#394,#395,#396,#397,#398,#399,#400,#401,#402
      ,#403,#404,#405,#406,#407,#408
)),.UNSPECIFIED.,.T.,.F.,.F.) B_SPLINE_SURFACE_WITH_KNOTS((1,6,6,1),(12,
    11,11,11,12),(-6.28318530718,0.,6.28318530718,12.566370614359),(0.,
    7.864938175651,15.729876351301,23.594814526952,31.459752702603),
.UNSPECIFIED.) GEOMETRIC_REPRESENTATION_ITEM() RATIONAL_B_SPLINE_SURFACE
((
    (1.669078461068,1.669078461068,1.669078461068,1.669078461068
      ,1.669078461068,1.669078461068,1.669078461068,1.669078461068
      ,1.669078461068,1.669078461068,1.669078461068,1.669078461068
      ,1.669078461068,1.669078461068,1.669078461068,1.669078461068
      ,1.669078461068,1.669078461068,1.669078461068,1.669078461068
      ,1.669078461068,1.669078461068,1.669078461068,1.669078461068
      ,1.669078461067,1.66907846107,1.669078461065,1.669078461072
      ,1.669078461065,1.669078461071,1.669078461067,1.669078461069
      ,1.669078461068,1.669078461068,1.669078461068,1.669078461069
      ,1.669078461066,1.669078461072,1.669078461063,1.669078461073
      ,1.669078461065,1.66907846107,1.669078461068,1.669078461068
      ,1.669078461068)
    ,(1.03672962321,1.03672962321,1.03672962321,1.03672962321
      ,1.036729623209,1.03672962321,1.036729623209,1.03672962321
      ,1.036729623209,1.03672962321,1.03672962321,1.03672962321
      ,1.03672962321,1.036729623209,1.03672962321,1.036729623209
      ,1.03672962321,1.036729623209,1.03672962321,1.036729623209
      ,1.03672962321,1.03672962321,1.03672962321,1.03672962321
      ,1.036729623209,1.036729623211,1.036729623207,1.036729623212
      ,1.036729623207,1.036729623211,1.036729623209,1.03672962321
      ,1.03672962321,1.03672962321,1.036729623209,1.03672962321
      ,1.036729623208,1.036729623212,1.036729623207,1.036729623212
      ,1.036729623208,1.036729623211,1.036729623209,1.03672962321
      ,1.03672962321)
    ,(1.038346699848,1.038346699848,1.038346699847,1.038346699848
      ,1.038346699847,1.038346699848,1.038346699847,1.038346699848
      ,1.038346699847,1.038346699847,1.038346699848,1.038346699848
      ,1.038346699848,1.038346699847,1.038346699848,1.038346699847
      ,1.038346699848,1.038346699847,1.038346699847,1.038346699848
      ,1.038346699847,1.038346699848,1.038346699848,1.038346699848
      ,1.038346699847,1.038346699849,1.038346699845,1.03834669985
      ,1.038346699845,1.038346699849,1.038346699847,1.038346699848
      ,1.038346699847,1.038346699848,1.038346699847,1.038346699848
      ,1.038346699846,1.03834669985,1.038346699845,1.03834669985
      ,1.038346699845,1.038346699849,1.038346699847,1.038346699848
      ,1.038346699848)
    ,(0.853534330196,0.853534330196,0.853534330196,0.853534330196
      ,0.853534330196,0.853534330196,0.853534330196,0.853534330196
      ,0.853534330196,0.853534330196,0.853534330196,0.853534330196
      ,0.853534330196,0.853534330196,0.853534330196,0.853534330196
      ,0.853534330196,0.853534330196,0.853534330196,0.853534330196
      ,0.853534330196,0.853534330196,0.853534330196,0.853534330196
      ,0.853534330196,0.853534330197,0.853534330195,0.853534330198
      ,0.853534330194,0.853534330197,0.853534330195,0.853534330196
      ,0.853534330196,0.853534330196,0.853534330196,0.853534330197
      ,0.853534330195,0.853534330198,0.853534330194,0.853534330198
      ,0.853534330195,0.853534330197,0.853534330196,0.853534330196
      ,0.853534330196)
    ,(1.038346699848,1.038346699847,1.038346699848,1.038346699847
      ,1.038346699848,1.038346699847,1.038346699848,1.038346699847
      ,1.038346699848,1.038346699847,1.038346699848,1.038346699848
      ,1.038346699848,1.038346699848,1.038346699847,1.038346699848
      ,1.038346699847,1.038346699848,1.038346699847,1.038346699848
      ,1.038346699847,1.038346699848,1.038346699848,1.038346699848
      ,1.038346699847,1.038346699849,1.038346699846,1.03834669985
      ,1.038346699845,1.038346699849,1.038346699847,1.038346699848
      ,1.038346699847,1.038346699848,1.038346699847,1.038346699848
      ,1.038346699846,1.03834669985,1.038346699844,1.038346699851
      ,1.038346699845,1.038346699849,1.038346699847,1.038346699848
      ,1.038346699848)
    ,(1.03672962321,1.03672962321,1.03672962321,1.03672962321
      ,1.03672962321,1.036729623209,1.03672962321,1.03672962321
      ,1.03672962321,1.03672962321,1.03672962321,1.03672962321
      ,1.03672962321,1.03672962321,1.03672962321,1.036729623209
      ,1.03672962321,1.036729623209,1.03672962321,1.03672962321
      ,1.03672962321,1.03672962321,1.03672962321,1.03672962321
      ,1.036729623209,1.036729623211,1.036729623207,1.036729623213
      ,1.036729623207,1.036729623212,1.036729623209,1.03672962321
      ,1.03672962321,1.03672962321,1.036729623209,1.03672962321
      ,1.036729623208,1.036729623212,1.036729623207,1.036729623212
      ,1.036729623208,1.036729623211,1.036729623209,1.03672962321
      ,1.03672962321)
    ,(1.669078461068,1.669078461068,1.669078461068,1.669078461068
      ,1.669078461068,1.669078461068,1.669078461068,1.669078461068
      ,1.669078461068,1.669078461068,1.669078461068,1.669078461068
      ,1.669078461068,1.669078461068,1.669078461068,1.669078461068
      ,1.669078461068,1.669078461068,1.669078461068,1.669078461068
      ,1.669078461068,1.669078461068,1.669078461068,1.669078461068
      ,1.669078461067,1.66907846107,1.669078461065,1.669078461072
      ,1.669078461065,1.669078461071,1.669078461067,1.669078461069
      ,1.669078461068,1.669078461068,1.669078461068,1.669078461069
      ,1.669078461066,1.669078461072,1.669078461063,1.669078461073
      ,1.669078461065,1.66907846107,1.669078461068,1.669078461068
,1.669078461068))) REPRESENTATION_ITEM('') SURFACE() );
#94 = CARTESIAN_POINT('',(-7.497241335952,-4.75,58.28));
#95 = CARTESIAN_POINT('',(-7.49724135719,-4.228791362187,58.31773968192)
  );
#96 = CARTESIAN_POINT('',(-7.905992427974,-3.707116336096,
    58.355415257043));
#97 = CARTESIAN_POINT('',(-8.729570188733,-3.546146991596,
    58.393280503751));
#98 = CARTESIAN_POINT('',(-9.587222704382,-4.086546184381,
    58.430745746368));
#99 = CARTESIAN_POINT('',(-9.876620052447,-5.335591914606,
    58.468848230388));
#100 = CARTESIAN_POINT('',(-8.812832718885,-6.399377710324,
    58.506157805492));
#101 = CARTESIAN_POINT('',(-7.563789094976,-6.109982098475,
    58.544249287225));
#102 = CARTESIAN_POINT('',(-7.023387464655,-5.252328978612,
    58.581732189258));
#103 = CARTESIAN_POINT('',(-7.184358335231,-4.428751521973,
    58.619579191463));
#104 = CARTESIAN_POINT('',(-7.70603199264,-4.020000166362,58.65726899454
    ));
#105 = CARTESIAN_POINT('',(-8.227241335952,-4.02,58.695));
#106 = CARTESIAN_POINT('',(-8.748449973765,-4.020000021238,
    58.73273968192));
#107 = CARTESIAN_POINT('',(-9.270124999858,-4.428751092021,
    58.770415257042));
#108 = CARTESIAN_POINT('',(-9.43109434435,-5.252328852782,
    58.808280503751));
#109 = CARTESIAN_POINT('',(-8.890695151587,-6.109981368428,
    58.845745746368));
#110 = CARTESIAN_POINT('',(-7.64164942132,-6.399378716498,
    58.883848230389));
#111 = CARTESIAN_POINT('',(-6.57786362566,-5.335591382928,
    58.921157805491));
#112 = CARTESIAN_POINT('',(-6.867259237451,-4.086547759028,
    58.959249287225));
#113 = CARTESIAN_POINT('',(-7.724912357354,-3.5461461287,58.996732189258
    ));
#114 = CARTESIAN_POINT('',(-8.548489813975,-3.70711699928,
    59.034579191463));
#115 = CARTESIAN_POINT('',(-8.957241169591,-4.228790656688,
    59.07226899454));
#116 = CARTESIAN_POINT('',(-8.957241335952,-4.75,59.11));
#117 = CARTESIAN_POINT('',(-8.957241314714,-5.271208637813,
    59.14773968192));
#118 = CARTESIAN_POINT('',(-8.548490243931,-5.792883663906,
    59.185415257042));
#119 = CARTESIAN_POINT('',(-7.72491248317,-5.953853008399,
    59.223280503751));
#120 = CARTESIAN_POINT('',(-6.867259967523,-5.413453815631,
    59.260745746367));
#121 = CARTESIAN_POINT('',(-6.577862619455,-4.164408085377,
    59.298848230389));
#122 = CARTESIAN_POINT('',(-7.641649953025,-3.100622289695,
    59.336157805491));
#123 = CARTESIAN_POINT('',(-8.890693576922,-3.390017901508,
    59.374249287225));
#124 = CARTESIAN_POINT('',(-9.431095207254,-4.247671021398,
    59.411732189258));
#125 = CARTESIAN_POINT('',(-9.270124336672,-5.071248478023,
    59.449579191463));
#126 = CARTESIAN_POINT('',(-8.748450679265,-5.479999833639,
    59.48726899454));
#127 = CARTESIAN_POINT('',(-8.227241335952,-5.48,59.525));
#128 = CARTESIAN_POINT('',(-7.706032698146,-5.48,59.562739951219));
#129 = CARTESIAN_POINT('',(-7.184357672017,-5.071248813601,
    59.600414060349));
#130 = CARTESIAN_POINT('',(-7.023388327635,-4.247671402491,
    59.638283740584));
#131 = CARTESIAN_POINT('',(-7.563787520152,-3.390018120229,
    59.675739262571));
#132 = CARTESIAN_POINT('',(-8.812833250852,-3.100622095389,
    59.713858525071));
#133 = CARTESIAN_POINT('',(-9.876619045896,-4.16440756278,
    59.751144437194));
#134 = CARTESIAN_POINT('',(-9.587223434823,-5.413453377622,
    59.789263699782));
#135 = CARTESIAN_POINT('',(-8.729570314223,-5.953852848608,
    59.826719221662));
#136 = CARTESIAN_POINT('',(-7.905992858172,-5.792883766539,
    59.864588901965));
#137 = CARTESIAN_POINT('',(-7.497241502165,-5.271208871427,
    59.90226301107));
#138 = CARTESIAN_POINT('',(-7.497241336025,-4.750000233621,
    59.940002962294));
#139 = CARTESIAN_POINT('',(-7.497241335952,-4.742162097296,
    58.180616003842));
#140 = CARTESIAN_POINT('',(-7.502815280938,-4.220952156995,
    58.218355823869));
#141 = CARTESIAN_POINT('',(-7.917257994663,-3.703668548747,
    58.256030581694));
#142 = CARTESIAN_POINT('',(-8.742346499855,-3.551506391492,
    58.293898082908));
#143 = CARTESIAN_POINT('',(-9.594577614566,-4.101233911001,
    58.331359792733));
#144 = CARTESIAN_POINT('',(-9.870095187711,-5.353135003103,
    58.369465165747));
#145 = CARTESIAN_POINT('',(-8.795310763458,-6.405891438508,
    58.406774723664));
#146 = CARTESIAN_POINT('',(-7.549086061702,-6.102660413486,
    58.444863346827));
#147 = CARTESIAN_POINT('',(-7.018025325546,-5.239534449831,
    58.482349760817));
#148 = CARTESIAN_POINT('',(-7.18779707131,-4.417499967452,
    58.520194519119));
#149 = CARTESIAN_POINT('',(-7.713868122283,-4.014411332698,
    58.557885135825));
#150 = CARTESIAN_POINT('',(-8.235079238657,-4.02,58.595616003842));
#151 = CARTESIAN_POINT('',(-8.756289178957,-4.025573944986,
    58.633355823869));
#152 = CARTESIAN_POINT('',(-9.273572787206,-4.44001665871,
    58.671030581694));
#153 = CARTESIAN_POINT('',(-9.425734944454,-5.265105163903,
    58.708898082908));
#154 = CARTESIAN_POINT('',(-8.876007424967,-6.117336278612,
    58.746359792733));
#155 = CARTESIAN_POINT('',(-7.624106332821,-6.392853851762,
    58.784465165747));
#156 = CARTESIAN_POINT('',(-6.571349897477,-5.318069427502,
    58.821774723664));
#157 = CARTESIAN_POINT('',(-6.874580922439,-4.071844725754,
    58.859863346827));
#158 = CARTESIAN_POINT('',(-7.737706886136,-3.540783989591,
    58.897349760817));
#159 = CARTESIAN_POINT('',(-8.559741368495,-3.710555735358,
    58.935194519119));
#160 = CARTESIAN_POINT('',(-8.962830003254,-4.236626786331,
    58.972885135825));
#161 = CARTESIAN_POINT('',(-8.957241335952,-4.757837902704,
    59.010616003842));
#162 = CARTESIAN_POINT('',(-8.951667390966,-5.279047843005,
    59.048355823869));
#163 = CARTESIAN_POINT('',(-8.537224677242,-5.796331451254,
    59.086030581694));
#164 = CARTESIAN_POINT('',(-7.712136172049,-5.948493608502,
    59.123898082908));
#165 = CARTESIAN_POINT('',(-6.859905057338,-5.398766089012,
    59.161359792733));
#166 = CARTESIAN_POINT('',(-6.584387484192,-4.146864996878,
    59.199465165747));
#167 = CARTESIAN_POINT('',(-7.659171908451,-3.094108561513,
    59.236774723664));
#168 = CARTESIAN_POINT('',(-8.905396610196,-3.397339586496,
    59.274863346827));
#169 = CARTESIAN_POINT('',(-9.436457346363,-4.26046555018,
    59.312349760817));
#170 = CARTESIAN_POINT('',(-9.266685600593,-5.082500032544,
    59.350194519119));
#171 = CARTESIAN_POINT('',(-8.740614549622,-5.485588667303,
    59.387885135825));
#172 = CARTESIAN_POINT('',(-8.219403433248,-5.48,59.425616003842));
#173 = CARTESIAN_POINT('',(-7.698193044112,-5.474426076253,
    59.46335609318));
#174 = CARTESIAN_POINT('',(-7.180911879201,-5.059983246908,
    59.501029384951));
#175 = CARTESIAN_POINT('',(-7.028742332693,-4.234895091379,
    59.538901319875));
#176 = CARTESIAN_POINT('',(-7.578486053332,-3.382663210025,
    59.576353308669));
#177 = CARTESIAN_POINT('',(-8.830359181178,-3.107146960157,
    59.614475460853));
#178 = CARTESIAN_POINT('',(-9.883155055051,-4.181929518165,
    59.651761354816));
#179 = CARTESIAN_POINT('',(-9.579877728393,-5.428156410941,
    59.689877759977));
#180 = CARTESIAN_POINT('',(-8.716797398563,-5.959214987676,
    59.727336792687));
#181 = CARTESIAN_POINT('',(-7.894725119135,-5.789445030492,
    59.765204230021));
#182 = CARTESIAN_POINT('',(-7.491662641164,-5.263372741764,
    59.802879152109));
#183 = CARTESIAN_POINT('',(-7.497236398764,-4.742162330926,
    59.840618966258));
#184 = CARTESIAN_POINT('',(-7.620514227385,-4.741036707861,
    58.166346153421));
#185 = CARTESIAN_POINT('',(-7.626888449323,-4.307822379205,
    58.204060497993));
#186 = CARTESIAN_POINT('',(-7.973114864945,-3.879365882084,
    58.241841353688));
#187 = CARTESIAN_POINT('',(-8.659403655817,-3.755364967087,
    58.279425704417));
#188 = CARTESIAN_POINT('',(-9.365836299713,-4.215702164649,
    58.317425260483));
#189 = CARTESIAN_POINT('',(-9.590904843045,-5.256408609662,
    58.354760158623));
#190 = CARTESIAN_POINT('',(-8.693550718892,-6.128575281174,
    58.39292789397));
#191 = CARTESIAN_POINT('',(-7.659331067219,-5.871810289382,
    58.430267821737));
#192 = CARTESIAN_POINT('',(-7.22034624348,-5.152919809879,
    58.468256811351));
#193 = CARTESIAN_POINT('',(-7.364481829662,-4.470122878984,
    58.505855257486));
#194 = CARTESIAN_POINT('',(-7.802990505277,-4.136881420936,
    58.543622974217));
#195 = CARTESIAN_POINT('',(-8.236204628091,-4.143272891433,
    58.581346153421));
#196 = CARTESIAN_POINT('',(-8.669418956747,-4.149647113371,
    58.619060497993));
#197 = CARTESIAN_POINT('',(-9.09787545387,-4.495873528993,
    58.656841353689));
#198 = CARTESIAN_POINT('',(-9.221876368859,-5.182162319864,
    58.694425704417));
#199 = CARTESIAN_POINT('',(-8.76153917132,-5.888594963763,
    58.732425260483));
#200 = CARTESIAN_POINT('',(-7.720832726261,-6.11366350709,
    58.769760158622));
#201 = CARTESIAN_POINT('',(-6.848666054813,-5.216309382943,
    58.80792789397));
#202 = CARTESIAN_POINT('',(-7.105431046542,-4.182089731265,
    58.845267821738));
#203 = CARTESIAN_POINT('',(-7.824321526089,-3.743104907529,
    58.883256811351));
#204 = CARTESIAN_POINT('',(-8.507118456963,-3.88724049371,
    58.920855257486));
#205 = CARTESIAN_POINT('',(-8.840359915017,-4.325749169325,
    58.958622974217));
#206 = CARTESIAN_POINT('',(-8.833968444519,-4.758963292139,
    58.996346153421));
#207 = CARTESIAN_POINT('',(-8.827594222581,-5.192177620795,
    59.034060497993));
#208 = CARTESIAN_POINT('',(-8.481367806959,-5.620634117918,
    59.071841353689));
#209 = CARTESIAN_POINT('',(-7.795079016088,-5.744635032907,
    59.109425704417));
#210 = CARTESIAN_POINT('',(-7.088646372188,-5.284297835365,
    59.147425260484));
#211 = CARTESIAN_POINT('',(-6.863577828863,-4.243591390317,
    59.184760158622));
#212 = CARTESIAN_POINT('',(-7.760931953011,-3.371424718849,
    59.22292789397));
#213 = CARTESIAN_POINT('',(-8.795151604684,-3.628189710599,
    59.260267821738));
#214 = CARTESIAN_POINT('',(-9.234136428426,-4.347080190133,
    59.298256811351));
#215 = CARTESIAN_POINT('',(-9.090000842242,-5.029877121011,
    59.335855257486));
#216 = CARTESIAN_POINT('',(-8.651492166628,-5.363118579065,
    59.373622974217));
#217 = CARTESIAN_POINT('',(-8.218278043814,-5.356727108567,
    59.411346153421));
#218 = CARTESIAN_POINT('',(-7.785063201862,-5.350352864233,
    59.449060214017));
#219 = CARTESIAN_POINT('',(-7.356609498979,-5.004126570528,
    59.486842615604));
#220 = CARTESIAN_POINT('',(-7.232600133516,-4.317837410951,
    59.524422291172));
#221 = CARTESIAN_POINT('',(-7.692955858948,-3.61140557545,
    59.562432097656));
#222 = CARTESIAN_POINT('',(-8.733630323592,-3.386335636773,
    59.599749302866));
#223 = CARTESIAN_POINT('',(-9.605842097565,-4.283691728802,
    59.637941990856));
#224 = CARTESIAN_POINT('',(-9.349024154485,-5.317909070149,
    59.675252623679));
#225 = CARTESIAN_POINT('',(-8.630185862547,-5.756896170892,
    59.713270485697));
#226 = CARTESIAN_POINT('',(-7.947345706352,-5.612758698737,
    59.75084501775));
#227 = CARTESIAN_POINT('',(-7.614134161611,-5.174251328279,
    59.788629283793));
#228 = CARTESIAN_POINT('',(-7.620508581139,-4.741036461508,
    59.826343029679));
#229 = CARTESIAN_POINT('',(-7.722188351213,-4.75,58.28));
#230 = CARTESIAN_POINT('',(-7.722188292826,-4.389365126895,
    58.317693158406));
#231 = CARTESIAN_POINT('',(-8.004967754135,-4.028630245921,
    58.355562553893));
#232 = CARTESIAN_POINT('',(-8.574869496055,-3.916741667109,
    58.392910520014));
#233 = CARTESIAN_POINT('',(-9.16789102106,-4.291578282217,
    58.431358144152));
#234 = CARTESIAN_POINT('',(-9.368866155865,-5.154490215838,
    58.468053917163));
#235 = CARTESIAN_POINT('',(-8.631733013532,-5.891627586122,
    58.506929489496));
#236 = CARTESIAN_POINT('',(-7.768815289226,-5.690647678026,
    58.543655509084));
#237 = CARTESIAN_POINT('',(-7.393985375282,-5.097627814232,
    58.58205458542));
#238 = CARTESIAN_POINT('',(-7.505869758699,-4.527725236179,
    58.619452707814));
#239 = CARTESIAN_POINT('',(-7.866608402347,-4.244946557913,
    58.657282988991));
#240 = CARTESIAN_POINT('',(-8.227241335952,-4.24494701526,58.695));
#241 = CARTESIAN_POINT('',(-8.587876209057,-4.244946956874,
    58.732693158406));
#242 = CARTESIAN_POINT('',(-8.948611090032,-4.527726418183,
    58.770562553893));
#243 = CARTESIAN_POINT('',(-9.060499668837,-5.097628160101,
    58.807910520013));
#244 = CARTESIAN_POINT('',(-8.685663053752,-5.690649685111,
    58.846358144152));
#245 = CARTESIAN_POINT('',(-7.822751120085,-5.891624819907,
    58.883053917163));
#246 = CARTESIAN_POINT('',(-7.085613749866,-5.154491677586,
    58.921929489496));
#247 = CARTESIAN_POINT('',(-7.286593657897,-4.291573953268,
    58.958655509084));
#248 = CARTESIAN_POINT('',(-7.879613521736,-3.916744039332,
    58.99705458542));
#249 = CARTESIAN_POINT('',(-8.449516099768,-4.028628422746,
    59.034452707815));
#250 = CARTESIAN_POINT('',(-8.732294778039,-4.389367066394,
    59.072282988991));
#251 = CARTESIAN_POINT('',(-8.732294320692,-4.75,59.11));
#252 = CARTESIAN_POINT('',(-8.732294379078,-5.110634873105,
    59.147693158406));
#253 = CARTESIAN_POINT('',(-8.44951491777,-5.47136975408,59.185562553894
    ));
#254 = CARTESIAN_POINT('',(-7.87961317585,-5.583258332885,
    59.222910520012));
#255 = CARTESIAN_POINT('',(-7.286591650842,-5.208421717797,
    59.261358144153));
#256 = CARTESIAN_POINT('',(-7.085616516043,-4.345509784141,
    59.298053917162));
#257 = CARTESIAN_POINT('',(-7.82274965837,-3.608372413902,
    59.336929489497));
#258 = CARTESIAN_POINT('',(-8.685667382679,-3.809352321954,
    59.373655509084));
#259 = CARTESIAN_POINT('',(-9.060497296622,-4.40237218578,59.41205458542
    ));
#260 = CARTESIAN_POINT('',(-8.948612913206,-4.972274763816,
    59.449452707815));
#261 = CARTESIAN_POINT('',(-8.587874269558,-5.255053442088,
    59.487282988991));
#262 = CARTESIAN_POINT('',(-8.227241335952,-5.255052984739,59.525));
#263 = CARTESIAN_POINT('',(-7.866606462828,-5.25505298474,
    59.562692418071));
#264 = CARTESIAN_POINT('',(-7.505871581954,-4.97227384127,
    59.600565843744));
#265 = CARTESIAN_POINT('',(-7.393983002848,-4.402371138126,
    59.637901621579));
#266 = CARTESIAN_POINT('',(-7.768819618589,-3.80935172063,
    59.676375968871));
#267 = CARTESIAN_POINT('',(-8.63173155113,-3.608372948121,
    59.713025615873));
#268 = CARTESIAN_POINT('',(-9.368868922934,-4.345511220768,
    59.751966240511));
#269 = CARTESIAN_POINT('',(-9.167889013036,-5.208422921974,
    59.788615887277));
#270 = CARTESIAN_POINT('',(-8.574869151047,-5.583258772149,
    59.827090234859));
#271 = CARTESIAN_POINT('',(-8.004966571475,-5.471369471935,
    59.864426012508));
#272 = CARTESIAN_POINT('',(-7.722187894274,-5.110634230873,
    59.902299438249));
#273 = CARTESIAN_POINT('',(-7.72218835101,-4.749999357749,
    59.939991856309));
#274 = CARTESIAN_POINT('',(-7.620514227385,-4.758963292139,
    58.393653846579));
#275 = CARTESIAN_POINT('',(-7.614139960653,-4.325751942487,
    58.431367875278));
#276 = CARTESIAN_POINT('',(-7.947348644274,-3.88725154395,
    58.469150600268));
#277 = CARTESIAN_POINT('',(-8.630182111902,-3.743107130069,
    58.50672979457));
#278 = CARTESIAN_POINT('',(-9.34901439949,-4.182108896268,
    58.544737430716));
#279 = CARTESIAN_POINT('',(-9.60582829157,-5.216284654786,58.58206572125
    ));
#280 = CARTESIAN_POINT('',(-8.733626338929,-6.113677303787,
    58.620233495904));
#281 = CARTESIAN_POINT('',(-7.692959344457,-5.888556198072,
    58.657579961696));
#282 = CARTESIAN_POINT('',(-7.232610345534,-5.182183020604,
    58.695560918882));
#283 = CARTESIAN_POINT('',(-7.356616869552,-4.495857051502,
    58.733164497194));
#284 = CARTESIAN_POINT('',(-7.785067976285,-4.149664011057,
    58.770930353021));
#285 = CARTESIAN_POINT('',(-8.218278043814,-4.143272891433,
    58.808653846579));
#286 = CARTESIAN_POINT('',(-8.651489393465,-4.136898624701,
    58.846367875278));
#287 = CARTESIAN_POINT('',(-9.089989792003,-4.470107308321,
    58.884150600269));
#288 = CARTESIAN_POINT('',(-9.234134205878,-5.152940775951,
    58.921729794569));
#289 = CARTESIAN_POINT('',(-8.795132439699,-5.871773063537,
    58.959737430717));
#290 = CARTESIAN_POINT('',(-7.76095668114,-6.128586955619,58.99706572125
    ));
#291 = CARTESIAN_POINT('',(-6.863564032198,-5.256385002977,
    59.035233495904));
#292 = CARTESIAN_POINT('',(-7.088685137854,-4.215718008505,
    59.072579961696));
#293 = CARTESIAN_POINT('',(-7.795058315362,-3.755369009582,
    59.110560918882));
#294 = CARTESIAN_POINT('',(-8.481384284446,-3.8793755336,59.148164497194
    ));
#295 = CARTESIAN_POINT('',(-8.827577324895,-4.307826640333,
    59.185930353021));
#296 = CARTESIAN_POINT('',(-8.833968444519,-4.741036707861,
    59.223653846579));
#297 = CARTESIAN_POINT('',(-8.840342711251,-5.174248057513,
    59.261367875278));
#298 = CARTESIAN_POINT('',(-8.507134027632,-5.612748456051,
    59.299150600269));
#299 = CARTESIAN_POINT('',(-7.824300560001,-5.756892869926,
    59.336729794569));
#300 = CARTESIAN_POINT('',(-7.105468272415,-5.317891103744,
    59.374737430717));
#301 = CARTESIAN_POINT('',(-6.848654380333,-4.283715345197,
    59.412065721249));
#302 = CARTESIAN_POINT('',(-7.720856332978,-3.386322696233,
    59.450233495904));
#303 = CARTESIAN_POINT('',(-8.761523327443,-3.611443801911,
    59.487579961696));
#304 = CARTESIAN_POINT('',(-9.221872326373,-4.317816979406,
    59.525560918882));
#305 = CARTESIAN_POINT('',(-9.097865802352,-5.004142948494,
    59.563164497194));
#306 = CARTESIAN_POINT('',(-8.669414695619,-5.350335988943,
    59.600930353021));
#307 = CARTESIAN_POINT('',(-8.236204628091,-5.356727108567,
    59.638653846579));
#308 = CARTESIAN_POINT('',(-7.80299379172,-5.363101352901,
    59.676367591276));
#309 = CARTESIAN_POINT('',(-7.364490599019,-5.029892791207,
    59.714151862296));
#310 = CARTESIAN_POINT('',(-7.220354635389,-4.347058954843,
    59.75172638102));
#311 = CARTESIAN_POINT('',(-7.65933787417,-3.628227475719,
    59.789744268499));
#312 = CARTESIAN_POINT('',(-8.693545612303,-3.371412188173,
    59.827054864525));
#313 = CARTESIAN_POINT('',(-9.590893159899,-4.243616108861,
    59.865247594048));
#314 = CARTESIAN_POINT('',(-9.365825004198,-5.284280792806,
    59.902564762281));
#315 = CARTESIAN_POINT('',(-8.659399640478,-5.744632068933,
    59.940574594448));
#316 = CARTESIAN_POINT('',(-7.973116895542,-5.620623658775,
    59.978154256545));
#317 = CARTESIAN_POINT('',(-7.626893942599,-5.192173857315,
    60.01593666316));
#318 = CARTESIAN_POINT('',(-7.620519873475,-4.758963045763,
    60.053650722559));
#319 = CARTESIAN_POINT('',(-7.497241335952,-4.757837902704,
    58.379383996158));
#320 = CARTESIAN_POINT('',(-7.491667433442,-4.236630567379,
    58.41712353997));
#321 = CARTESIAN_POINT('',(-7.894726861285,-3.710564123444,
    58.454799932391));
#322 = CARTESIAN_POINT('',(-8.716793877612,-3.5407875917,58.492662924594
    ));
#323 = CARTESIAN_POINT('',(-9.579867794199,-4.071858457761,
    58.530131700002));
#324 = CARTESIAN_POINT('',(-9.883144917181,-5.318048826109,
    58.568231295031));
#325 = CARTESIAN_POINT('',(-8.830354674312,-6.392863982139,
    58.605540887319));
#326 = CARTESIAN_POINT('',(-7.578492128249,-6.117303783465,
    58.643635227623));
#327 = CARTESIAN_POINT('',(-7.028749603764,-5.265123507393,
    58.681114617699));
#328 = CARTESIAN_POINT('',(-7.180919599153,-4.440003076494,
    58.718963863807));
#329 = CARTESIAN_POINT('',(-7.698195862997,-4.025589000025,
    58.756652853255));
#330 = CARTESIAN_POINT('',(-8.219403433248,-4.02,58.794383996158));
#331 = CARTESIAN_POINT('',(-8.740610768574,-4.01442609749,
    58.832123539971));
#332 = CARTESIAN_POINT('',(-9.26667721251,-4.417485525332,
    58.869799932391));
#333 = CARTESIAN_POINT('',(-9.436453744247,-5.239552541661,
    58.907662924594));
#334 = CARTESIAN_POINT('',(-8.905382878206,-6.102626458244,
    58.945131700002));
#335 = CARTESIAN_POINT('',(-7.659192509819,-6.405903581233,
    58.983231295031));
#336 = CARTESIAN_POINT('',(-6.584377353842,-5.353113338354,
    59.020540887319));
#337 = CARTESIAN_POINT('',(-6.859937552463,-4.101250792302,
    59.058635227623));
#338 = CARTESIAN_POINT('',(-7.712117828572,-3.55150826781,
    59.096114617699));
#339 = CARTESIAN_POINT('',(-8.537238259454,-3.703678263201,
    59.133963863807));
#340 = CARTESIAN_POINT('',(-8.951652335927,-4.220954527045,
    59.171652853255));
#341 = CARTESIAN_POINT('',(-8.957241335952,-4.742162097296,
    59.209383996158));
#342 = CARTESIAN_POINT('',(-8.962815238462,-5.263369432621,
    59.247123539971));
#343 = CARTESIAN_POINT('',(-8.559755810621,-5.789435876558,
    59.284799932391));
#344 = CARTESIAN_POINT('',(-7.737688794291,-5.959212408295,
    59.322662924594));
#345 = CARTESIAN_POINT('',(-6.874614877707,-5.428141542251,
    59.360131700002));
#346 = CARTESIAN_POINT('',(-6.571337754721,-4.181951173876,
    59.398231295031));
#347 = CARTESIAN_POINT('',(-7.624127997599,-3.107136017877,
    59.435540887319));
#348 = CARTESIAN_POINT('',(-8.875990543647,-3.38269621652,
    59.473635227623));
#349 = CARTESIAN_POINT('',(-9.425733068145,-4.234876492616,
    59.511114617699));
#350 = CARTESIAN_POINT('',(-9.27356307275,-5.059996923502,
    59.548963863807));
#351 = CARTESIAN_POINT('',(-8.756286808908,-5.474410999975,
    59.586652853255));
#352 = CARTESIAN_POINT('',(-8.235079238657,-5.48,59.624383996158));
#353 = CARTESIAN_POINT('',(-7.713872352179,-5.485573923747,
    59.662123809259));
#354 = CARTESIAN_POINT('',(-7.187803464833,-5.082514380294,
    59.699798735746));
#355 = CARTESIAN_POINT('',(-7.018034322577,-4.260447713603,
    59.737666161294));
#356 = CARTESIAN_POINT('',(-7.549088986972,-3.397373030432,
    59.775125216472));
#357 = CARTESIAN_POINT('',(-8.795307320526,-3.094097230624,
    59.81324158929));
#358 = CARTESIAN_POINT('',(-9.870083036741,-4.146885607395,
    59.850527519572));
#359 = CARTESIAN_POINT('',(-9.594569141253,-5.398750344302,
    59.888649639587));
#360 = CARTESIAN_POINT('',(-8.742343229883,-5.94849070954,
    59.926101650637));
#361 = CARTESIAN_POINT('',(-7.917260597208,-5.796322502586,
    59.96397357391));
#362 = CARTESIAN_POINT('',(-7.502820363167,-5.279045001089,
    60.001646870031));
#363 = CARTESIAN_POINT('',(-7.497246273287,-4.757838136315,
    60.03938695833));
#364 = CARTESIAN_POINT('',(-7.497241335952,-4.75,58.28));
#365 = CARTESIAN_POINT('',(-7.49724135719,-4.228791362187,58.31773968192
    ));
#366 = CARTESIAN_POINT('',(-7.905992427974,-3.707116336096,
    58.355415257043));
#367 = CARTESIAN_POINT('',(-8.729570188733,-3.546146991596,
    58.393280503751));
#368 = CARTESIAN_POINT('',(-9.587222704382,-4.086546184381,
    58.430745746368));
#369 = CARTESIAN_POINT('',(-9.876620052447,-5.335591914606,
    58.468848230388));
#370 = CARTESIAN_POINT('',(-8.812832718885,-6.399377710324,
    58.506157805492));
#371 = CARTESIAN_POINT('',(-7.563789094976,-6.109982098475,
    58.544249287225));
#372 = CARTESIAN_POINT('',(-7.023387464655,-5.252328978612,
    58.581732189258));
#373 = CARTESIAN_POINT('',(-7.184358335231,-4.428751521973,
    58.619579191463));
#374 = CARTESIAN_POINT('',(-7.70603199264,-4.020000166362,58.65726899454
    ));
#375 = CARTESIAN_POINT('',(-8.227241335952,-4.02,58.695));
#376 = CARTESIAN_POINT('',(-8.748449973765,-4.020000021238,
    58.73273968192));
#377 = CARTESIAN_POINT('',(-9.270124999858,-4.428751092021,
    58.770415257042));
#378 = CARTESIAN_POINT('',(-9.43109434435,-5.252328852782,
    58.808280503751));
#379 = CARTESIAN_POINT('',(-8.890695151587,-6.109981368428,
    58.845745746368));
#380 = CARTESIAN_POINT('',(-7.64164942132,-6.399378716498,
    58.883848230389));
#381 = CARTESIAN_POINT('',(-6.57786362566,-5.335591382928,
    58.921157805491));
#382 = CARTESIAN_POINT('',(-6.867259237451,-4.086547759028,
    58.959249287225));
#383 = CARTESIAN_POINT('',(-7.724912357354,-3.5461461287,58.996732189258
    ));
#384 = CARTESIAN_POINT('',(-8.548489813975,-3.70711699928,
    59.034579191463));
#385 = CARTESIAN_POINT('',(-8.957241169591,-4.228790656688,
    59.07226899454));
#386 = CARTESIAN_POINT('',(-8.957241335952,-4.75,59.11));
#387 = CARTESIAN_POINT('',(-8.957241314714,-5.271208637813,
    59.14773968192));
#388 = CARTESIAN_POINT('',(-8.548490243931,-5.792883663906,
    59.185415257042));
#389 = CARTESIAN_POINT('',(-7.72491248317,-5.953853008399,
    59.223280503751));
#390 = CARTESIAN_POINT('',(-6.867259967523,-5.413453815631,
    59.260745746367));
#391 = CARTESIAN_POINT('',(-6.577862619455,-4.164408085377,
    59.298848230389));
#392 = CARTESIAN_POINT('',(-7.641649953025,-3.100622289695,
    59.336157805491));
#393 = CARTESIAN_POINT('',(-8.890693576922,-3.390017901508,
    59.374249287225));
#394 = CARTESIAN_POINT('',(-9.431095207254,-4.247671021398,
    59.411732189258));
#395 = CARTESIAN_POINT('',(-9.270124336672,-5.071248478023,
    59.449579191463));
#396 = CARTESIAN_POINT('',(-8.748450679265,-5.479999833639,
    59.48726899454));
#397 = CARTESIAN_POINT('',(-8.227241335952,-5.48,59.525));
#398 = CARTESIAN_POINT('',(-7.706032698146,-5.48,59.562739951219));
#399 = CARTESIAN_POINT('',(-7.184357672017,-5.071248813601,
    59.600414060349));
#400 = CARTESIAN_POINT('',(-7.023388327635,-4.247671402491,
    59.638283740584));
#401 = CARTESIAN_POINT('',(-7.563787520152,-3.390018120229,
    59.675739262571));
#402 = CARTESIAN_POINT('',(-8.812833250852,-3.100622095389,
    59.713858525071));
#403 = CARTESIAN_POINT('',(-9.876619045896,-4.16440756278,
    59.751144437194));
#404 = CARTESIAN_POINT('',(-9.587223434823,-5.413453377622,
    59.789263699782));
#405 = CARTESIAN_POINT('',(-8.729570314223,-5.953852848608,
    59.826719221662));
#406 = CARTESIAN_POINT('',(-7.905992858172,-5.792883766539,
    59.864588901965));
#407 = CARTESIAN_POINT('',(-7.497241502165,-5.271208871427,
    59.90226301107));
#408 = CARTESIAN_POINT('',(-7.497241336025,-4.750000233621,
    59.940002962294));
#409 = ADVANCED_FACE('',(#410),#413,.F.);
#410 = FACE_BOUND('',#411,.F.);
#411 = EDGE_LOOP('',(#412));
#412 = ORIENTED_EDGE('',*,*,#84,.T.);
#413 = PLANE('',#414);
#414 = AXIS2_PLACEMENT_3D('',#415,#416,#417);
#415 = CARTESIAN_POINT('',(-7.557231830558,-4.75,58.28));
#416 = DIRECTION('',(-2.3E-15,0.9969046005,7.862071929391E-02));
#417 = DIRECTION('',(-2.465190328816E-32,-7.862071929391E-02,
    0.9969046005));
#418 = ADVANCED_FACE('',(#419),#422,.T.);
#419 = FACE_BOUND('',#420,.T.);
#420 = EDGE_LOOP('',(#421));
#421 = ORIENTED_EDGE('',*,*,#73,.T.);
#422 = PLANE('',#423);
#423 = AXIS2_PLACEMENT_3D('',#424,#425,#426);
#424 = CARTESIAN_POINT('',(-7.557231830558,-4.750000000037,
    59.940000000469));
#425 = DIRECTION('',(4.7716E-13,0.9969046005,7.862071929388E-02));
#426 = DIRECTION('',(0.,-7.862071929388E-02,0.9969046005));
#427 = ( GEOMETRIC_REPRESENTATION_CONTEXT(3) 
GLOBAL_UNCERTAINTY_ASSIGNED_CONTEXT((#431)) GLOBAL_UNIT_ASSIGNED_CONTEXT
((#428,#429,#430)) REPRESENTATION_CONTEXT('Context #1',
  '3D Context with UNIT and UNCERTAINTY') );
#428 = ( LENGTH_UNIT() NAMED_UNIT(*) SI_UNIT(.MILLI.,.METRE.) );
#429 = ( NAMED_UNIT(*) PLANE_ANGLE_UNIT() SI_UNIT($,.RADIAN.) );
#430 = ( NAMED_UNIT(*) SI_UNIT($,.STERADIAN.) SOLID_ANGLE_UNIT() );
#431 = UNCERTAINTY_MEASURE_WITH_UNIT(LENGTH_MEASURE(1.E-05),#428,
  'distance_accuracy_value','confusion accuracy');
#432 = PRODUCT_RELATED_PRODUCT_CATEGORY('part',$,(#7));
ENDSEC;
END-ISO-10303-21;
