ISO-10303-21;
HEADER;
FILE_DESCRIPTION(('FreeCAD Model'),'2;1');
FILE_NAME('Open CASCADE Shape Model','2026-09-30T05:23:13',('FreeCAD'),(
    'FreeCAD'),'Open CASCADE STEP processor 7.8','FreeCAD','Unknown');
FILE_SCHEMA(('AUTOMOTIVE_DESIGN { 1 0 10303 214 1 1 1 1 }'));
ENDSEC;
DATA;
#1 = APPLICATION_PROTOCOL_DEFINITION('international standard',
  'automotive_design',2000,#2);
#2 = APPLICATION_CONTEXT(
  'core data for automotive mechanical design processes');
#3 = SHAPE_DEFINITION_REPRESENTATION(#4,#10);
#4 = PRODUCT_DEFINITION_SHAPE('','',#5);
#5 = PRODUCT_DEFINITION('design','',#6,#9);
#6 = PRODUCT_DEFINITION_FORMATION('','',#7);
#7 = PRODUCT('Open CASCADE STEP translator 7.8 12',
  'Open CASCADE STEP translator 7.8 12','',(#8));
#8 = PRODUCT_CONTEXT('',#2,'mechanical');
#9 = PRODUCT_DEFINITION_CONTEXT('part definition',#2,'design');
#10 = ADVANCED_BREP_SHAPE_REPRESENTATION('',(#11,#15),#555);
#11 = AXIS2_PLACEMENT_3D('',#12,#13,#14);
#12 = CARTESIAN_POINT('',(0.,0.,0.));
#13 = DIRECTION('',(0.,0.,1.));
#14 = DIRECTION('',(1.,0.,-0.));
#15 = MANIFOLD_SOLID_BREP('',#16);
#16 = CLOSED_SHELL('',(#17,#50,#93,#102,#133,#157,#213,#230,#265,#312,
    #345,#369,#393,#424,#462,#474,#505,#522,#539));
#17 = ADVANCED_FACE('',(#18),#45,.T.);
#18 = FACE_BOUND('',#19,.T.);
#19 = EDGE_LOOP('',(#20,#29,#37,#44));
#20 = ORIENTED_EDGE('',*,*,#21,.F.);
#21 = EDGE_CURVE('',#22,#22,#24,.T.);
#22 = VERTEX_POINT('',#23);
#23 = CARTESIAN_POINT('',(8.677241335952,-4.75,60.));
#24 = CIRCLE('',#25,0.45);
#25 = AXIS2_PLACEMENT_3D('',#26,#27,#28);
#26 = CARTESIAN_POINT('',(8.227241335952,-4.75,60.));
#27 = DIRECTION('',(0.,0.,1.));
#28 = DIRECTION('',(1.,0.,0.));
#29 = ORIENTED_EDGE('',*,*,#30,.F.);
#30 = EDGE_CURVE('',#31,#22,#33,.T.);
#31 = VERTEX_POINT('',#32);
#32 = CARTESIAN_POINT('',(8.677241335952,-4.75,59.));
#33 = LINE('',#34,#35);
#34 = CARTESIAN_POINT('',(8.677241335952,-4.75,59.));
#35 = VECTOR('',#36,1.);
#36 = DIRECTION('',(0.,0.,1.));
#37 = ORIENTED_EDGE('',*,*,#38,.T.);
#38 = EDGE_CURVE('',#31,#31,#39,.T.);
#39 = CIRCLE('',#40,0.45);
#40 = AXIS2_PLACEMENT_3D('',#41,#42,#43);
#41 = CARTESIAN_POINT('',(8.227241335952,-4.75,59.));
#42 = DIRECTION('',(0.,0.,1.));
#43 = DIRECTION('',(1.,0.,0.));
#44 = ORIENTED_EDGE('',*,*,#30,.T.);
#45 = CYLINDRICAL_SURFACE('',#46,0.45);
#46 = AXIS2_PLACEMENT_3D('',#47,#48,#49);
#47 = CARTESIAN_POINT('',(8.227241335952,-4.75,59.));
#48 = DIRECTION('',(0.,0.,1.));
#49 = DIRECTION('',(1.,0.,0.));
#50 = ADVANCED_FACE('',(#51,#85),#88,.T.);
#51 = FACE_BOUND('',#52,.T.);
#52 = EDGE_LOOP('',(#53,#63,#71,#79));
#53 = ORIENTED_EDGE('',*,*,#54,.T.);
#54 = EDGE_CURVE('',#55,#57,#59,.T.);
#55 = VERTEX_POINT('',#56);
#56 = CARTESIAN_POINT('',(6.827241335952,-1.75,60.));
#57 = VERTEX_POINT('',#58);
#58 = CARTESIAN_POINT('',(9.627241335952,-1.75,60.));
#59 = LINE('',#60,#61);
#60 = CARTESIAN_POINT('',(6.827241335952,-1.75,60.));
#61 = VECTOR('',#62,1.);
#62 = DIRECTION('',(1.,0.,0.));
#63 = ORIENTED_EDGE('',*,*,#64,.T.);
#64 = EDGE_CURVE('',#57,#65,#67,.T.);
#65 = VERTEX_POINT('',#66);
#66 = CARTESIAN_POINT('',(9.627241335952,-7.75,60.));
#67 = LINE('',#68,#69);
#68 = CARTESIAN_POINT('',(9.627241335952,-1.75,60.));
#69 = VECTOR('',#70,1.);
#70 = DIRECTION('',(0.,-1.,0.));
#71 = ORIENTED_EDGE('',*,*,#72,.F.);
#72 = EDGE_CURVE('',#73,#65,#75,.T.);
#73 = VERTEX_POINT('',#74);
#74 = CARTESIAN_POINT('',(6.827241335952,-7.75,60.));
#75 = LINE('',#76,#77);
#76 = CARTESIAN_POINT('',(6.827241335952,-7.75,60.));
#77 = VECTOR('',#78,1.);
#78 = DIRECTION('',(1.,0.,0.));
#79 = ORIENTED_EDGE('',*,*,#80,.F.);
#80 = EDGE_CURVE('',#55,#73,#81,.T.);
#81 = LINE('',#82,#83);
#82 = CARTESIAN_POINT('',(6.827241335952,-1.75,60.));
#83 = VECTOR('',#84,1.);
#84 = DIRECTION('',(0.,-1.,0.));
#85 = FACE_BOUND('',#86,.T.);
#86 = EDGE_LOOP('',(#87));
#87 = ORIENTED_EDGE('',*,*,#21,.T.);
#88 = PLANE('',#89);
#89 = AXIS2_PLACEMENT_3D('',#90,#91,#92);
#90 = CARTESIAN_POINT('',(6.827241335952,-1.75,60.));
#91 = DIRECTION('',(0.,0.,-1.));
#92 = DIRECTION('',(0.,-1.,0.));
#93 = ADVANCED_FACE('',(#94),#97,.F.);
#94 = FACE_BOUND('',#95,.T.);
#95 = EDGE_LOOP('',(#96));
#96 = ORIENTED_EDGE('',*,*,#38,.F.);
#97 = PLANE('',#98);
#98 = AXIS2_PLACEMENT_3D('',#99,#100,#101);
#99 = CARTESIAN_POINT('',(8.227241335952,-4.75,59.));
#100 = DIRECTION('',(0.,0.,1.));
#101 = DIRECTION('',(1.,0.,0.));
#102 = ADVANCED_FACE('',(#103),#128,.T.);
#103 = FACE_BOUND('',#104,.T.);
#104 = EDGE_LOOP('',(#105,#115,#121,#122));
#105 = ORIENTED_EDGE('',*,*,#106,.T.);
#106 = EDGE_CURVE('',#107,#109,#111,.T.);
#107 = VERTEX_POINT('',#108);
#108 = CARTESIAN_POINT('',(6.827241335952,-1.75,61.875));
#109 = VERTEX_POINT('',#110);
#110 = CARTESIAN_POINT('',(9.627241335952,-1.75,61.875));
#111 = LINE('',#112,#113);
#112 = CARTESIAN_POINT('',(6.827241335952,-1.75,61.875));
#113 = VECTOR('',#114,1.);
#114 = DIRECTION('',(1.,0.,0.));
#115 = ORIENTED_EDGE('',*,*,#116,.T.);
#116 = EDGE_CURVE('',#109,#57,#117,.T.);
#117 = LINE('',#118,#119);
#118 = CARTESIAN_POINT('',(9.627241335952,-1.75,61.875));
#119 = VECTOR('',#120,1.);
#120 = DIRECTION('',(0.,0.,-1.));
#121 = ORIENTED_EDGE('',*,*,#54,.F.);
#122 = ORIENTED_EDGE('',*,*,#123,.F.);
#123 = EDGE_CURVE('',#107,#55,#124,.T.);
#124 = LINE('',#125,#126);
#125 = CARTESIAN_POINT('',(6.827241335952,-1.75,61.875));
#126 = VECTOR('',#127,1.);
#127 = DIRECTION('',(0.,0.,-1.));
#128 = PLANE('',#129);
#129 = AXIS2_PLACEMENT_3D('',#130,#131,#132);
#130 = CARTESIAN_POINT('',(6.827241335952,-1.75,61.875));
#131 = DIRECTION('',(0.,1.,0.));
#132 = DIRECTION('',(0.,0.,-1.));
#133 = ADVANCED_FACE('',(#134),#152,.T.);
#134 = FACE_BOUND('',#135,.T.);
#135 = EDGE_LOOP('',(#136,#144,#150,#151));
#136 = ORIENTED_EDGE('',*,*,#137,.T.);
#137 = EDGE_CURVE('',#73,#138,#140,.T.);
#138 = VERTEX_POINT('',#139);
#139 = CARTESIAN_POINT('',(6.827241335952,-7.75,60.525));
#140 = LINE('',#141,#142);
#141 = CARTESIAN_POINT('',(6.827241335952,-7.75,60.));
#142 = VECTOR('',#143,1.);
#143 = DIRECTION('',(0.,0.,1.));
#144 = ORIENTED_EDGE('',*,*,#145,.T.);
#145 = EDGE_CURVE('',#138,#107,#146,.T.);
#146 = LINE('',#147,#148);
#147 = CARTESIAN_POINT('',(6.827241335952,-7.75,60.525));
#148 = VECTOR('',#149,1.);
#149 = DIRECTION('',(0.,0.975609756098,0.219512195122));
#150 = ORIENTED_EDGE('',*,*,#123,.T.);
#151 = ORIENTED_EDGE('',*,*,#80,.T.);
#152 = PLANE('',#153);
#153 = AXIS2_PLACEMENT_3D('',#154,#155,#156);
#154 = CARTESIAN_POINT('',(6.827241335952,-4.471649484536,60.6375));
#155 = DIRECTION('',(-1.,-0.,-0.));
#156 = DIRECTION('',(0.,0.,-1.));
#157 = ADVANCED_FACE('',(#158),#208,.F.);
#158 = FACE_BOUND('',#159,.F.);
#159 = EDGE_LOOP('',(#160,#161,#169,#177,#185,#193,#201,#207));
#160 = ORIENTED_EDGE('',*,*,#64,.T.);
#161 = ORIENTED_EDGE('',*,*,#162,.T.);
#162 = EDGE_CURVE('',#65,#163,#165,.T.);
#163 = VERTEX_POINT('',#164);
#164 = CARTESIAN_POINT('',(9.627241335952,-7.75,60.525));
#165 = LINE('',#166,#167);
#166 = CARTESIAN_POINT('',(9.627241335952,-7.75,60.));
#167 = VECTOR('',#168,1.);
#168 = DIRECTION('',(0.,0.,1.));
#169 = ORIENTED_EDGE('',*,*,#170,.T.);
#170 = EDGE_CURVE('',#163,#171,#173,.T.);
#171 = VERTEX_POINT('',#172);
#172 = CARTESIAN_POINT('',(9.627241335952,-5.75,60.975));
#173 = LINE('',#174,#175);
#174 = CARTESIAN_POINT('',(9.627241335952,-7.75,60.525));
#175 = VECTOR('',#176,1.);
#176 = DIRECTION('',(0.,0.975609756098,0.219512195122));
#177 = ORIENTED_EDGE('',*,*,#178,.T.);
#178 = EDGE_CURVE('',#171,#179,#181,.T.);
#179 = VERTEX_POINT('',#180);
#180 = CARTESIAN_POINT('',(9.627241335952,-5.75,60.9));
#181 = LINE('',#182,#183);
#182 = CARTESIAN_POINT('',(9.627241335952,-5.75,60.76875));
#183 = VECTOR('',#184,1.);
#184 = DIRECTION('',(0.,0.,-1.));
#185 = ORIENTED_EDGE('',*,*,#186,.T.);
#186 = EDGE_CURVE('',#179,#187,#189,.T.);
#187 = VERTEX_POINT('',#188);
#188 = CARTESIAN_POINT('',(9.627241335952,-3.75,60.9));
#189 = LINE('',#190,#191);
#190 = CARTESIAN_POINT('',(9.627241335952,-5.110824742268,60.9));
#191 = VECTOR('',#192,1.);
#192 = DIRECTION('',(0.,1.,0.));
#193 = ORIENTED_EDGE('',*,*,#194,.F.);
#194 = EDGE_CURVE('',#195,#187,#197,.T.);
#195 = VERTEX_POINT('',#196);
#196 = CARTESIAN_POINT('',(9.627241335952,-3.75,61.425));
#197 = LINE('',#198,#199);
#198 = CARTESIAN_POINT('',(9.627241335952,-3.75,60.76875));
#199 = VECTOR('',#200,1.);
#200 = DIRECTION('',(0.,0.,-1.));
#201 = ORIENTED_EDGE('',*,*,#202,.T.);
#202 = EDGE_CURVE('',#195,#109,#203,.T.);
#203 = LINE('',#204,#205);
#204 = CARTESIAN_POINT('',(9.627241335952,-7.75,60.525));
#205 = VECTOR('',#206,1.);
#206 = DIRECTION('',(0.,0.975609756098,0.219512195122));
#207 = ORIENTED_EDGE('',*,*,#116,.T.);
#208 = PLANE('',#209);
#209 = AXIS2_PLACEMENT_3D('',#210,#211,#212);
#210 = CARTESIAN_POINT('',(9.627241335952,-4.471649484536,60.6375));
#211 = DIRECTION('',(-1.,-0.,-0.));
#212 = DIRECTION('',(0.,0.,-1.));
#213 = ADVANCED_FACE('',(#214),#225,.T.);
#214 = FACE_BOUND('',#215,.T.);
#215 = EDGE_LOOP('',(#216,#217,#218,#224));
#216 = ORIENTED_EDGE('',*,*,#72,.T.);
#217 = ORIENTED_EDGE('',*,*,#162,.T.);
#218 = ORIENTED_EDGE('',*,*,#219,.F.);
#219 = EDGE_CURVE('',#138,#163,#220,.T.);
#220 = LINE('',#221,#222);
#221 = CARTESIAN_POINT('',(6.827241335952,-7.75,60.525));
#222 = VECTOR('',#223,1.);
#223 = DIRECTION('',(1.,0.,0.));
#224 = ORIENTED_EDGE('',*,*,#137,.F.);
#225 = PLANE('',#226);
#226 = AXIS2_PLACEMENT_3D('',#227,#228,#229);
#227 = CARTESIAN_POINT('',(6.827241335952,-7.75,60.));
#228 = DIRECTION('',(0.,-1.,0.));
#229 = DIRECTION('',(0.,0.,1.));
#230 = ADVANCED_FACE('',(#231),#260,.T.);
#231 = FACE_BOUND('',#232,.T.);
#232 = EDGE_LOOP('',(#233,#234,#235,#236,#244,#252,#258,#259));
#233 = ORIENTED_EDGE('',*,*,#145,.F.);
#234 = ORIENTED_EDGE('',*,*,#219,.T.);
#235 = ORIENTED_EDGE('',*,*,#170,.T.);
#236 = ORIENTED_EDGE('',*,*,#237,.T.);
#237 = EDGE_CURVE('',#171,#238,#240,.T.);
#238 = VERTEX_POINT('',#239);
#239 = CARTESIAN_POINT('',(8.227241335952,-5.75,60.975));
#240 = LINE('',#241,#242);
#241 = CARTESIAN_POINT('',(7.527241335952,-5.75,60.975));
#242 = VECTOR('',#243,1.);
#243 = DIRECTION('',(-1.,0.,0.));
#244 = ORIENTED_EDGE('',*,*,#245,.T.);
#245 = EDGE_CURVE('',#238,#246,#248,.T.);
#246 = VERTEX_POINT('',#247);
#247 = CARTESIAN_POINT('',(8.227241335952,-3.75,61.425));
#248 = LINE('',#249,#250);
#249 = CARTESIAN_POINT('',(8.227241335952,-6.758030933968,
    60.748193039857));
#250 = VECTOR('',#251,1.);
#251 = DIRECTION('',(0.,0.975609756098,0.219512195122));
#252 = ORIENTED_EDGE('',*,*,#253,.F.);
#253 = EDGE_CURVE('',#195,#246,#254,.T.);
#254 = LINE('',#255,#256);
#255 = CARTESIAN_POINT('',(7.527241335952,-3.75,61.425));
#256 = VECTOR('',#257,1.);
#257 = DIRECTION('',(-1.,0.,0.));
#258 = ORIENTED_EDGE('',*,*,#202,.T.);
#259 = ORIENTED_EDGE('',*,*,#106,.F.);
#260 = PLANE('',#261);
#261 = AXIS2_PLACEMENT_3D('',#262,#263,#264);
#262 = CARTESIAN_POINT('',(6.827241335952,-7.75,60.525));
#263 = DIRECTION('',(0.,-0.219512195122,0.975609756098));
#264 = DIRECTION('',(0.,0.975609756098,0.219512195122));
#265 = ADVANCED_FACE('',(#266),#307,.F.);
#266 = FACE_BOUND('',#267,.F.);
#267 = EDGE_LOOP('',(#268,#276,#277,#285,#293,#301));
#268 = ORIENTED_EDGE('',*,*,#269,.F.);
#269 = EDGE_CURVE('',#187,#270,#272,.T.);
#270 = VERTEX_POINT('',#271);
#271 = CARTESIAN_POINT('',(15.627241335952,-3.75,60.9));
#272 = LINE('',#273,#274);
#273 = CARTESIAN_POINT('',(8.227241335952,-3.75,60.9));
#274 = VECTOR('',#275,1.);
#275 = DIRECTION('',(1.,0.,0.));
#276 = ORIENTED_EDGE('',*,*,#186,.F.);
#277 = ORIENTED_EDGE('',*,*,#278,.T.);
#278 = EDGE_CURVE('',#179,#279,#281,.T.);
#279 = VERTEX_POINT('',#280);
#280 = CARTESIAN_POINT('',(15.827241335952,-5.75,60.9));
#281 = LINE('',#282,#283);
#282 = CARTESIAN_POINT('',(8.227241335952,-5.75,60.9));
#283 = VECTOR('',#284,1.);
#284 = DIRECTION('',(1.,0.,0.));
#285 = ORIENTED_EDGE('',*,*,#286,.T.);
#286 = EDGE_CURVE('',#279,#287,#289,.T.);
#287 = VERTEX_POINT('',#288);
#288 = CARTESIAN_POINT('',(15.827241335952,-5.25,60.9));
#289 = LINE('',#290,#291);
#290 = CARTESIAN_POINT('',(15.827241335952,-5.75,60.9));
#291 = VECTOR('',#292,1.);
#292 = DIRECTION('',(0.,1.,0.));
#293 = ORIENTED_EDGE('',*,*,#294,.F.);
#294 = EDGE_CURVE('',#295,#287,#297,.T.);
#295 = VERTEX_POINT('',#296);
#296 = CARTESIAN_POINT('',(15.627241335952,-5.25,60.9));
#297 = LINE('',#298,#299);
#298 = CARTESIAN_POINT('',(11.927241335952,-5.25,60.9));
#299 = VECTOR('',#300,1.);
#300 = DIRECTION('',(1.,0.,0.));
#301 = ORIENTED_EDGE('',*,*,#302,.F.);
#302 = EDGE_CURVE('',#270,#295,#303,.T.);
#303 = LINE('',#304,#305);
#304 = CARTESIAN_POINT('',(15.627241335952,-5.198733100211,60.9));
#305 = VECTOR('',#306,1.);
#306 = DIRECTION('',(0.,-1.,0.));
#307 = PLANE('',#308);
#308 = AXIS2_PLACEMENT_3D('',#309,#310,#311);
#309 = CARTESIAN_POINT('',(8.227241335952,-5.75,60.9));
#310 = DIRECTION('',(0.,0.,1.));
#311 = DIRECTION('',(1.,0.,0.));
#312 = ADVANCED_FACE('',(#313),#340,.F.);
#313 = FACE_BOUND('',#314,.F.);
#314 = EDGE_LOOP('',(#315,#316,#317,#318,#326,#334));
#315 = ORIENTED_EDGE('',*,*,#278,.F.);
#316 = ORIENTED_EDGE('',*,*,#178,.F.);
#317 = ORIENTED_EDGE('',*,*,#237,.T.);
#318 = ORIENTED_EDGE('',*,*,#319,.T.);
#319 = EDGE_CURVE('',#238,#320,#322,.T.);
#320 = VERTEX_POINT('',#321);
#321 = CARTESIAN_POINT('',(8.227241335952,-5.75,61.5));
#322 = LINE('',#323,#324);
#323 = CARTESIAN_POINT('',(8.227241335952,-5.75,60.9));
#324 = VECTOR('',#325,1.);
#325 = DIRECTION('',(0.,0.,1.));
#326 = ORIENTED_EDGE('',*,*,#327,.T.);
#327 = EDGE_CURVE('',#320,#328,#330,.T.);
#328 = VERTEX_POINT('',#329);
#329 = CARTESIAN_POINT('',(15.827241335952,-5.75,61.5));
#330 = LINE('',#331,#332);
#331 = CARTESIAN_POINT('',(8.227241335952,-5.75,61.5));
#332 = VECTOR('',#333,1.);
#333 = DIRECTION('',(1.,0.,0.));
#334 = ORIENTED_EDGE('',*,*,#335,.F.);
#335 = EDGE_CURVE('',#279,#328,#336,.T.);
#336 = LINE('',#337,#338);
#337 = CARTESIAN_POINT('',(15.827241335952,-5.75,60.9));
#338 = VECTOR('',#339,1.);
#339 = DIRECTION('',(0.,0.,1.));
#340 = PLANE('',#341);
#341 = AXIS2_PLACEMENT_3D('',#342,#343,#344);
#342 = CARTESIAN_POINT('',(8.227241335952,-5.75,60.9));
#343 = DIRECTION('',(0.,1.,0.));
#344 = DIRECTION('',(0.,0.,1.));
#345 = ADVANCED_FACE('',(#346),#364,.F.);
#346 = FACE_BOUND('',#347,.F.);
#347 = EDGE_LOOP('',(#348,#349,#350,#358));
#348 = ORIENTED_EDGE('',*,*,#319,.F.);
#349 = ORIENTED_EDGE('',*,*,#245,.T.);
#350 = ORIENTED_EDGE('',*,*,#351,.T.);
#351 = EDGE_CURVE('',#246,#352,#354,.T.);
#352 = VERTEX_POINT('',#353);
#353 = CARTESIAN_POINT('',(8.227241335952,-3.75,61.5));
#354 = LINE('',#355,#356);
#355 = CARTESIAN_POINT('',(8.227241335952,-3.75,60.9));
#356 = VECTOR('',#357,1.);
#357 = DIRECTION('',(0.,0.,1.));
#358 = ORIENTED_EDGE('',*,*,#359,.F.);
#359 = EDGE_CURVE('',#320,#352,#360,.T.);
#360 = LINE('',#361,#362);
#361 = CARTESIAN_POINT('',(8.227241335952,-5.75,61.5));
#362 = VECTOR('',#363,1.);
#363 = DIRECTION('',(0.,1.,0.));
#364 = PLANE('',#365);
#365 = AXIS2_PLACEMENT_3D('',#366,#367,#368);
#366 = CARTESIAN_POINT('',(8.227241335952,-5.75,60.9));
#367 = DIRECTION('',(1.,0.,0.));
#368 = DIRECTION('',(0.,0.,1.));
#369 = ADVANCED_FACE('',(#370),#388,.T.);
#370 = FACE_BOUND('',#371,.T.);
#371 = EDGE_LOOP('',(#372,#373,#374,#382));
#372 = ORIENTED_EDGE('',*,*,#359,.F.);
#373 = ORIENTED_EDGE('',*,*,#327,.T.);
#374 = ORIENTED_EDGE('',*,*,#375,.T.);
#375 = EDGE_CURVE('',#328,#376,#378,.T.);
#376 = VERTEX_POINT('',#377);
#377 = CARTESIAN_POINT('',(15.827241335952,-3.75,61.5));
#378 = LINE('',#379,#380);
#379 = CARTESIAN_POINT('',(15.827241335952,-5.75,61.5));
#380 = VECTOR('',#381,1.);
#381 = DIRECTION('',(0.,1.,0.));
#382 = ORIENTED_EDGE('',*,*,#383,.F.);
#383 = EDGE_CURVE('',#352,#376,#384,.T.);
#384 = LINE('',#385,#386);
#385 = CARTESIAN_POINT('',(8.227241335952,-3.75,61.5));
#386 = VECTOR('',#387,1.);
#387 = DIRECTION('',(1.,0.,0.));
#388 = PLANE('',#389);
#389 = AXIS2_PLACEMENT_3D('',#390,#391,#392);
#390 = CARTESIAN_POINT('',(8.227241335952,-5.75,61.5));
#391 = DIRECTION('',(0.,0.,1.));
#392 = DIRECTION('',(1.,0.,0.));
#393 = ADVANCED_FACE('',(#394),#419,.T.);
#394 = FACE_BOUND('',#395,.T.);
#395 = EDGE_LOOP('',(#396,#406,#412,#413));
#396 = ORIENTED_EDGE('',*,*,#397,.T.);
#397 = EDGE_CURVE('',#398,#400,#402,.T.);
#398 = VERTEX_POINT('',#399);
#399 = CARTESIAN_POINT('',(15.627241335952,-5.75,60.6));
#400 = VERTEX_POINT('',#401);
#401 = CARTESIAN_POINT('',(15.627241335952,-5.75,60.7));
#402 = LINE('',#403,#404);
#403 = CARTESIAN_POINT('',(15.627241335952,-5.75,60.6));
#404 = VECTOR('',#405,1.);
#405 = DIRECTION('',(0.,0.,1.));
#406 = ORIENTED_EDGE('',*,*,#407,.T.);
#407 = EDGE_CURVE('',#400,#295,#408,.T.);
#408 = LINE('',#409,#410);
#409 = CARTESIAN_POINT('',(15.627241335952,-5.75,60.7));
#410 = VECTOR('',#411,1.);
#411 = DIRECTION('',(0.,0.928476690885,0.371390676354));
#412 = ORIENTED_EDGE('',*,*,#302,.F.);
#413 = ORIENTED_EDGE('',*,*,#414,.T.);
#414 = EDGE_CURVE('',#270,#398,#415,.T.);
#415 = LINE('',#416,#417);
#416 = CARTESIAN_POINT('',(15.627241335952,-3.75,60.9));
#417 = VECTOR('',#418,1.);
#418 = DIRECTION('',(0.,-0.988936352868,-0.14834045293));
#419 = PLANE('',#420);
#420 = AXIS2_PLACEMENT_3D('',#421,#422,#423);
#421 = CARTESIAN_POINT('',(15.627241335952,-4.647466200422,
    60.95792277031));
#422 = DIRECTION('',(-1.,-0.,-0.));
#423 = DIRECTION('',(0.,0.,-1.));
#424 = ADVANCED_FACE('',(#425),#457,.T.);
#425 = FACE_BOUND('',#426,.T.);
#426 = EDGE_LOOP('',(#427,#428,#436,#444,#450,#456));
#427 = ORIENTED_EDGE('',*,*,#407,.F.);
#428 = ORIENTED_EDGE('',*,*,#429,.T.);
#429 = EDGE_CURVE('',#400,#430,#432,.T.);
#430 = VERTEX_POINT('',#431);
#431 = CARTESIAN_POINT('',(17.027241335952,-5.75,60.7));
#432 = LINE('',#433,#434);
#433 = CARTESIAN_POINT('',(15.627241335952,-5.75,60.7));
#434 = VECTOR('',#435,1.);
#435 = DIRECTION('',(1.,0.,0.));
#436 = ORIENTED_EDGE('',*,*,#437,.T.);
#437 = EDGE_CURVE('',#430,#438,#440,.T.);
#438 = VERTEX_POINT('',#439);
#439 = CARTESIAN_POINT('',(17.027241335952,-3.75,61.5));
#440 = LINE('',#441,#442);
#441 = CARTESIAN_POINT('',(17.027241335952,-5.75,60.7));
#442 = VECTOR('',#443,1.);
#443 = DIRECTION('',(0.,0.928476690885,0.371390676354));
#444 = ORIENTED_EDGE('',*,*,#445,.F.);
#445 = EDGE_CURVE('',#376,#438,#446,.T.);
#446 = LINE('',#447,#448);
#447 = CARTESIAN_POINT('',(15.627241335952,-3.75,61.5));
#448 = VECTOR('',#449,1.);
#449 = DIRECTION('',(1.,0.,0.));
#450 = ORIENTED_EDGE('',*,*,#451,.T.);
#451 = EDGE_CURVE('',#376,#287,#452,.T.);
#452 = LINE('',#453,#454);
#453 = CARTESIAN_POINT('',(15.827241335952,-5.715517241379,
    60.713793103448));
#454 = VECTOR('',#455,1.);
#455 = DIRECTION('',(0.,-0.928476690885,-0.371390676354));
#456 = ORIENTED_EDGE('',*,*,#294,.F.);
#457 = PLANE('',#458);
#458 = AXIS2_PLACEMENT_3D('',#459,#460,#461);
#459 = CARTESIAN_POINT('',(15.627241335952,-5.75,60.7));
#460 = DIRECTION('',(0.,-0.371390676354,0.928476690885));
#461 = DIRECTION('',(0.,0.928476690885,0.371390676354));
#462 = ADVANCED_FACE('',(#463),#469,.T.);
#463 = FACE_BOUND('',#464,.T.);
#464 = EDGE_LOOP('',(#465,#466,#467,#468));
#465 = ORIENTED_EDGE('',*,*,#375,.F.);
#466 = ORIENTED_EDGE('',*,*,#335,.F.);
#467 = ORIENTED_EDGE('',*,*,#286,.T.);
#468 = ORIENTED_EDGE('',*,*,#451,.F.);
#469 = PLANE('',#470);
#470 = AXIS2_PLACEMENT_3D('',#471,#472,#473);
#471 = CARTESIAN_POINT('',(15.827241335952,-5.75,60.9));
#472 = DIRECTION('',(1.,0.,0.));
#473 = DIRECTION('',(0.,0.,1.));
#474 = ADVANCED_FACE('',(#475),#500,.T.);
#475 = FACE_BOUND('',#476,.T.);
#476 = EDGE_LOOP('',(#477,#485,#493,#499));
#477 = ORIENTED_EDGE('',*,*,#478,.T.);
#478 = EDGE_CURVE('',#270,#479,#481,.T.);
#479 = VERTEX_POINT('',#480);
#480 = CARTESIAN_POINT('',(17.027241335952,-3.75,60.9));
#481 = LINE('',#482,#483);
#482 = CARTESIAN_POINT('',(8.227241335952,-3.75,60.9));
#483 = VECTOR('',#484,1.);
#484 = DIRECTION('',(1.,0.,0.));
#485 = ORIENTED_EDGE('',*,*,#486,.T.);
#486 = EDGE_CURVE('',#479,#487,#489,.T.);
#487 = VERTEX_POINT('',#488);
#488 = CARTESIAN_POINT('',(17.027241335952,-5.75,60.6));
#489 = LINE('',#490,#491);
#490 = CARTESIAN_POINT('',(17.027241335952,-3.75,60.9));
#491 = VECTOR('',#492,1.);
#492 = DIRECTION('',(0.,-0.988936352868,-0.14834045293));
#493 = ORIENTED_EDGE('',*,*,#494,.F.);
#494 = EDGE_CURVE('',#398,#487,#495,.T.);
#495 = LINE('',#496,#497);
#496 = CARTESIAN_POINT('',(15.627241335952,-5.75,60.6));
#497 = VECTOR('',#498,1.);
#498 = DIRECTION('',(1.,0.,0.));
#499 = ORIENTED_EDGE('',*,*,#414,.F.);
#500 = PLANE('',#501);
#501 = AXIS2_PLACEMENT_3D('',#502,#503,#504);
#502 = CARTESIAN_POINT('',(15.627241335952,-3.75,60.9));
#503 = DIRECTION('',(0.,0.14834045293,-0.988936352868));
#504 = DIRECTION('',(0.,-0.988936352868,-0.14834045293));
#505 = ADVANCED_FACE('',(#506),#517,.T.);
#506 = FACE_BOUND('',#507,.T.);
#507 = EDGE_LOOP('',(#508,#509,#515,#516));
#508 = ORIENTED_EDGE('',*,*,#494,.T.);
#509 = ORIENTED_EDGE('',*,*,#510,.T.);
#510 = EDGE_CURVE('',#487,#430,#511,.T.);
#511 = LINE('',#512,#513);
#512 = CARTESIAN_POINT('',(17.027241335952,-5.75,60.6));
#513 = VECTOR('',#514,1.);
#514 = DIRECTION('',(0.,0.,1.));
#515 = ORIENTED_EDGE('',*,*,#429,.F.);
#516 = ORIENTED_EDGE('',*,*,#397,.F.);
#517 = PLANE('',#518);
#518 = AXIS2_PLACEMENT_3D('',#519,#520,#521);
#519 = CARTESIAN_POINT('',(15.627241335952,-5.75,60.6));
#520 = DIRECTION('',(0.,-1.,0.));
#521 = DIRECTION('',(0.,0.,1.));
#522 = ADVANCED_FACE('',(#523),#534,.F.);
#523 = FACE_BOUND('',#524,.F.);
#524 = EDGE_LOOP('',(#525,#526,#532,#533));
#525 = ORIENTED_EDGE('',*,*,#437,.T.);
#526 = ORIENTED_EDGE('',*,*,#527,.T.);
#527 = EDGE_CURVE('',#438,#479,#528,.T.);
#528 = LINE('',#529,#530);
#529 = CARTESIAN_POINT('',(17.027241335952,-3.75,61.5));
#530 = VECTOR('',#531,1.);
#531 = DIRECTION('',(0.,0.,-1.));
#532 = ORIENTED_EDGE('',*,*,#486,.T.);
#533 = ORIENTED_EDGE('',*,*,#510,.T.);
#534 = PLANE('',#535);
#535 = AXIS2_PLACEMENT_3D('',#536,#537,#538);
#536 = CARTESIAN_POINT('',(17.027241335952,-4.647466200422,
    60.95792277031));
#537 = DIRECTION('',(-1.,-0.,-0.));
#538 = DIRECTION('',(0.,0.,-1.));
#539 = ADVANCED_FACE('',(#540),#550,.T.);
#540 = FACE_BOUND('',#541,.T.);
#541 = EDGE_LOOP('',(#542,#543,#544,#545,#546,#547,#548,#549));
#542 = ORIENTED_EDGE('',*,*,#269,.F.);
#543 = ORIENTED_EDGE('',*,*,#194,.F.);
#544 = ORIENTED_EDGE('',*,*,#253,.T.);
#545 = ORIENTED_EDGE('',*,*,#351,.T.);
#546 = ORIENTED_EDGE('',*,*,#383,.T.);
#547 = ORIENTED_EDGE('',*,*,#445,.T.);
#548 = ORIENTED_EDGE('',*,*,#527,.T.);
#549 = ORIENTED_EDGE('',*,*,#478,.F.);
#550 = PLANE('',#551);
#551 = AXIS2_PLACEMENT_3D('',#552,#553,#554);
#552 = CARTESIAN_POINT('',(12.666337080633,-3.75,61.239095744681));
#553 = DIRECTION('',(0.,1.,0.));
#554 = DIRECTION('',(0.,0.,1.));
#555 = ( GEOMETRIC_REPRESENTATION_CONTEXT(3) 
GLOBAL_UNCERTAINTY_ASSIGNED_CONTEXT((#559)) GLOBAL_UNIT_ASSIGNED_CONTEXT
((#556,#557,#558)) REPRESENTATION_CONTEXT('Context #1',
  '3D Context with UNIT and UNCERTAINTY') );
#556 = ( LENGTH_UNIT() NAMED_UNIT(*) SI_UNIT(.MILLI.,.METRE.) );
#557 = ( NAMED_UNIT(*) PLANE_ANGLE_UNIT() SI_UNIT($,.RADIAN.) );
#558 = ( NAMED_UNIT(*) SI_UNIT($,.STERADIAN.) SOLID_ANGLE_UNIT() );
#559 = UNCERTAINTY_MEASURE_WITH_UNIT(LENGTH_MEASURE(1.E-07),#556,
  'distance_accuracy_value','confusion accuracy');
#560 = PRODUCT_RELATED_PRODUCT_CATEGORY('part',$,(#7));
ENDSEC;
END-ISO-10303-21;
