ISO-10303-21;
HEADER;
FILE_DESCRIPTION(('FreeCAD Model'),'2;1');
FILE_NAME('Open CASCADE Shape Model','2026-09-30T05:23:13',('FreeCAD'),(
    'FreeCAD'),'Open CASCADE STEP processor 7.8','FreeCAD','Unknown');
FILE_SCHEMA(('AUTOMOTIVE_DESIGN { 1 0 10303 214 1 1 1 1 }'));
ENDSEC;
DATA;
#1 = APPLICATION_PROTOCOL_DEFINITION('international standard',
  'automotive_design',2000,#2);
#2 = APPLICATION_CONTEXT(
  'core data for automotive mechanical design processes');
#3 = SHAPE_DEFINITION_REPRESENTATION(#4,#10);
#4 = PRODUCT_DEFINITION_SHAPE('','',#5);
#5 = PRODUCT_DEFINITION('design','',#6,#9);
#6 = PRODUCT_DEFINITION_FORMATION('','',#7);
#7 = PRODUCT('Open CASCADE STEP translator 7.8 11',
  'Open CASCADE STEP translator 7.8 11','',(#8));
#8 = PRODUCT_CONTEXT('',#2,'mechanical');
#9 = PRODUCT_DEFINITION_CONTEXT('part definition',#2,'design');
#10 = ADVANCED_BREP_SHAPE_REPRESENTATION('',(#11,#15),#555);
#11 = AXIS2_PLACEMENT_3D('',#12,#13,#14);
#12 = CARTESIAN_POINT('',(0.,0.,0.));
#13 = DIRECTION('',(0.,0.,1.));
#14 = DIRECTION('',(1.,0.,-0.));
#15 = MANIFOLD_SOLID_BREP('',#16);
#16 = CLOSED_SHELL('',(#17,#50,#93,#102,#133,#189,#213,#230,#265,#312,
    #345,#369,#393,#410,#450,#474,#505,#527,#539));
#17 = ADVANCED_FACE('',(#18),#45,.T.);
#18 = FACE_BOUND('',#19,.T.);
#19 = EDGE_LOOP('',(#20,#29,#37,#44));
#20 = ORIENTED_EDGE('',*,*,#21,.F.);
#21 = EDGE_CURVE('',#22,#22,#24,.T.);
#22 = VERTEX_POINT('',#23);
#23 = CARTESIAN_POINT('',(-7.777241335952,-4.75,60.));
#24 = CIRCLE('',#25,0.45);
#25 = AXIS2_PLACEMENT_3D('',#26,#27,#28);
#26 = CARTESIAN_POINT('',(-8.227241335952,-4.75,60.));
#27 = DIRECTION('',(0.,0.,1.));
#28 = DIRECTION('',(1.,0.,0.));
#29 = ORIENTED_EDGE('',*,*,#30,.F.);
#30 = EDGE_CURVE('',#31,#22,#33,.T.);
#31 = VERTEX_POINT('',#32);
#32 = CARTESIAN_POINT('',(-7.777241335952,-4.75,59.));
#33 = LINE('',#34,#35);
#34 = CARTESIAN_POINT('',(-7.777241335952,-4.75,59.));
#35 = VECTOR('',#36,1.);
#36 = DIRECTION('',(0.,0.,1.));
#37 = ORIENTED_EDGE('',*,*,#38,.T.);
#38 = EDGE_CURVE('',#31,#31,#39,.T.);
#39 = CIRCLE('',#40,0.45);
#40 = AXIS2_PLACEMENT_3D('',#41,#42,#43);
#41 = CARTESIAN_POINT('',(-8.227241335952,-4.75,59.));
#42 = DIRECTION('',(0.,0.,1.));
#43 = DIRECTION('',(1.,0.,0.));
#44 = ORIENTED_EDGE('',*,*,#30,.T.);
#45 = CYLINDRICAL_SURFACE('',#46,0.45);
#46 = AXIS2_PLACEMENT_3D('',#47,#48,#49);
#47 = CARTESIAN_POINT('',(-8.227241335952,-4.75,59.));
#48 = DIRECTION('',(0.,0.,1.));
#49 = DIRECTION('',(1.,0.,0.));
#50 = ADVANCED_FACE('',(#51,#85),#88,.T.);
#51 = FACE_BOUND('',#52,.T.);
#52 = EDGE_LOOP('',(#53,#63,#71,#79));
#53 = ORIENTED_EDGE('',*,*,#54,.T.);
#54 = EDGE_CURVE('',#55,#57,#59,.T.);
#55 = VERTEX_POINT('',#56);
#56 = CARTESIAN_POINT('',(-9.627241335952,-1.75,60.));
#57 = VERTEX_POINT('',#58);
#58 = CARTESIAN_POINT('',(-6.827241335952,-1.75,60.));
#59 = LINE('',#60,#61);
#60 = CARTESIAN_POINT('',(-9.627241335952,-1.75,60.));
#61 = VECTOR('',#62,1.);
#62 = DIRECTION('',(1.,0.,0.));
#63 = ORIENTED_EDGE('',*,*,#64,.T.);
#64 = EDGE_CURVE('',#57,#65,#67,.T.);
#65 = VERTEX_POINT('',#66);
#66 = CARTESIAN_POINT('',(-6.827241335952,-7.75,60.));
#67 = LINE('',#68,#69);
#68 = CARTESIAN_POINT('',(-6.827241335952,-1.75,60.));
#69 = VECTOR('',#70,1.);
#70 = DIRECTION('',(0.,-1.,0.));
#71 = ORIENTED_EDGE('',*,*,#72,.F.);
#72 = EDGE_CURVE('',#73,#65,#75,.T.);
#73 = VERTEX_POINT('',#74);
#74 = CARTESIAN_POINT('',(-9.627241335952,-7.75,60.));
#75 = LINE('',#76,#77);
#76 = CARTESIAN_POINT('',(-9.627241335952,-7.75,60.));
#77 = VECTOR('',#78,1.);
#78 = DIRECTION('',(1.,0.,0.));
#79 = ORIENTED_EDGE('',*,*,#80,.F.);
#80 = EDGE_CURVE('',#55,#73,#81,.T.);
#81 = LINE('',#82,#83);
#82 = CARTESIAN_POINT('',(-9.627241335952,-1.75,60.));
#83 = VECTOR('',#84,1.);
#84 = DIRECTION('',(0.,-1.,0.));
#85 = FACE_BOUND('',#86,.T.);
#86 = EDGE_LOOP('',(#87));
#87 = ORIENTED_EDGE('',*,*,#21,.T.);
#88 = PLANE('',#89);
#89 = AXIS2_PLACEMENT_3D('',#90,#91,#92);
#90 = CARTESIAN_POINT('',(-9.627241335952,-1.75,60.));
#91 = DIRECTION('',(0.,0.,-1.));
#92 = DIRECTION('',(0.,-1.,0.));
#93 = ADVANCED_FACE('',(#94),#97,.F.);
#94 = FACE_BOUND('',#95,.T.);
#95 = EDGE_LOOP('',(#96));
#96 = ORIENTED_EDGE('',*,*,#38,.F.);
#97 = PLANE('',#98);
#98 = AXIS2_PLACEMENT_3D('',#99,#100,#101);
#99 = CARTESIAN_POINT('',(-8.227241335952,-4.75,59.));
#100 = DIRECTION('',(0.,0.,1.));
#101 = DIRECTION('',(1.,0.,0.));
#102 = ADVANCED_FACE('',(#103),#128,.T.);
#103 = FACE_BOUND('',#104,.T.);
#104 = EDGE_LOOP('',(#105,#115,#121,#122));
#105 = ORIENTED_EDGE('',*,*,#106,.T.);
#106 = EDGE_CURVE('',#107,#109,#111,.T.);
#107 = VERTEX_POINT('',#108);
#108 = CARTESIAN_POINT('',(-9.627241335952,-1.75,61.875));
#109 = VERTEX_POINT('',#110);
#110 = CARTESIAN_POINT('',(-6.827241335952,-1.75,61.875));
#111 = LINE('',#112,#113);
#112 = CARTESIAN_POINT('',(-9.627241335952,-1.75,61.875));
#113 = VECTOR('',#114,1.);
#114 = DIRECTION('',(1.,0.,0.));
#115 = ORIENTED_EDGE('',*,*,#116,.T.);
#116 = EDGE_CURVE('',#109,#57,#117,.T.);
#117 = LINE('',#118,#119);
#118 = CARTESIAN_POINT('',(-6.827241335952,-1.75,61.875));
#119 = VECTOR('',#120,1.);
#120 = DIRECTION('',(0.,0.,-1.));
#121 = ORIENTED_EDGE('',*,*,#54,.F.);
#122 = ORIENTED_EDGE('',*,*,#123,.F.);
#123 = EDGE_CURVE('',#107,#55,#124,.T.);
#124 = LINE('',#125,#126);
#125 = CARTESIAN_POINT('',(-9.627241335952,-1.75,61.875));
#126 = VECTOR('',#127,1.);
#127 = DIRECTION('',(0.,0.,-1.));
#128 = PLANE('',#129);
#129 = AXIS2_PLACEMENT_3D('',#130,#131,#132);
#130 = CARTESIAN_POINT('',(-9.627241335952,-1.75,61.875));
#131 = DIRECTION('',(0.,1.,0.));
#132 = DIRECTION('',(0.,0.,-1.));
#133 = ADVANCED_FACE('',(#134),#184,.T.);
#134 = FACE_BOUND('',#135,.T.);
#135 = EDGE_LOOP('',(#136,#137,#145,#153,#161,#169,#177,#183));
#136 = ORIENTED_EDGE('',*,*,#80,.T.);
#137 = ORIENTED_EDGE('',*,*,#138,.T.);
#138 = EDGE_CURVE('',#73,#139,#141,.T.);
#139 = VERTEX_POINT('',#140);
#140 = CARTESIAN_POINT('',(-9.627241335952,-7.75,60.525));
#141 = LINE('',#142,#143);
#142 = CARTESIAN_POINT('',(-9.627241335952,-7.75,60.));
#143 = VECTOR('',#144,1.);
#144 = DIRECTION('',(0.,0.,1.));
#145 = ORIENTED_EDGE('',*,*,#146,.T.);
#146 = EDGE_CURVE('',#139,#147,#149,.T.);
#147 = VERTEX_POINT('',#148);
#148 = CARTESIAN_POINT('',(-9.627241335952,-5.75,60.975));
#149 = LINE('',#150,#151);
#150 = CARTESIAN_POINT('',(-9.627241335952,-7.75,60.525));
#151 = VECTOR('',#152,1.);
#152 = DIRECTION('',(0.,0.975609756098,0.219512195122));
#153 = ORIENTED_EDGE('',*,*,#154,.T.);
#154 = EDGE_CURVE('',#147,#155,#157,.T.);
#155 = VERTEX_POINT('',#156);
#156 = CARTESIAN_POINT('',(-9.627241335952,-5.75,60.9));
#157 = LINE('',#158,#159);
#158 = CARTESIAN_POINT('',(-9.627241335952,-5.75,60.76875));
#159 = VECTOR('',#160,1.);
#160 = DIRECTION('',(0.,0.,-1.));
#161 = ORIENTED_EDGE('',*,*,#162,.T.);
#162 = EDGE_CURVE('',#155,#163,#165,.T.);
#163 = VERTEX_POINT('',#164);
#164 = CARTESIAN_POINT('',(-9.627241335952,-3.75,60.9));
#165 = LINE('',#166,#167);
#166 = CARTESIAN_POINT('',(-9.627241335952,-5.110824742268,60.9));
#167 = VECTOR('',#168,1.);
#168 = DIRECTION('',(0.,1.,0.));
#169 = ORIENTED_EDGE('',*,*,#170,.F.);
#170 = EDGE_CURVE('',#171,#163,#173,.T.);
#171 = VERTEX_POINT('',#172);
#172 = CARTESIAN_POINT('',(-9.627241335952,-3.75,61.425));
#173 = LINE('',#174,#175);
#174 = CARTESIAN_POINT('',(-9.627241335952,-3.75,60.76875));
#175 = VECTOR('',#176,1.);
#176 = DIRECTION('',(0.,0.,-1.));
#177 = ORIENTED_EDGE('',*,*,#178,.T.);
#178 = EDGE_CURVE('',#171,#107,#179,.T.);
#179 = LINE('',#180,#181);
#180 = CARTESIAN_POINT('',(-9.627241335952,-7.75,60.525));
#181 = VECTOR('',#182,1.);
#182 = DIRECTION('',(0.,0.975609756098,0.219512195122));
#183 = ORIENTED_EDGE('',*,*,#123,.T.);
#184 = PLANE('',#185);
#185 = AXIS2_PLACEMENT_3D('',#186,#187,#188);
#186 = CARTESIAN_POINT('',(-9.627241335952,-4.471649484536,60.6375));
#187 = DIRECTION('',(-1.,-0.,-0.));
#188 = DIRECTION('',(0.,0.,-1.));
#189 = ADVANCED_FACE('',(#190),#208,.F.);
#190 = FACE_BOUND('',#191,.F.);
#191 = EDGE_LOOP('',(#192,#200,#206,#207));
#192 = ORIENTED_EDGE('',*,*,#193,.T.);
#193 = EDGE_CURVE('',#65,#194,#196,.T.);
#194 = VERTEX_POINT('',#195);
#195 = CARTESIAN_POINT('',(-6.827241335952,-7.75,60.525));
#196 = LINE('',#197,#198);
#197 = CARTESIAN_POINT('',(-6.827241335952,-7.75,60.));
#198 = VECTOR('',#199,1.);
#199 = DIRECTION('',(0.,0.,1.));
#200 = ORIENTED_EDGE('',*,*,#201,.T.);
#201 = EDGE_CURVE('',#194,#109,#202,.T.);
#202 = LINE('',#203,#204);
#203 = CARTESIAN_POINT('',(-6.827241335952,-7.75,60.525));
#204 = VECTOR('',#205,1.);
#205 = DIRECTION('',(0.,0.975609756098,0.219512195122));
#206 = ORIENTED_EDGE('',*,*,#116,.T.);
#207 = ORIENTED_EDGE('',*,*,#64,.T.);
#208 = PLANE('',#209);
#209 = AXIS2_PLACEMENT_3D('',#210,#211,#212);
#210 = CARTESIAN_POINT('',(-6.827241335952,-4.471649484536,60.6375));
#211 = DIRECTION('',(-1.,-0.,-0.));
#212 = DIRECTION('',(0.,0.,-1.));
#213 = ADVANCED_FACE('',(#214),#225,.T.);
#214 = FACE_BOUND('',#215,.T.);
#215 = EDGE_LOOP('',(#216,#217,#218,#224));
#216 = ORIENTED_EDGE('',*,*,#72,.T.);
#217 = ORIENTED_EDGE('',*,*,#193,.T.);
#218 = ORIENTED_EDGE('',*,*,#219,.F.);
#219 = EDGE_CURVE('',#139,#194,#220,.T.);
#220 = LINE('',#221,#222);
#221 = CARTESIAN_POINT('',(-9.627241335952,-7.75,60.525));
#222 = VECTOR('',#223,1.);
#223 = DIRECTION('',(1.,0.,0.));
#224 = ORIENTED_EDGE('',*,*,#138,.F.);
#225 = PLANE('',#226);
#226 = AXIS2_PLACEMENT_3D('',#227,#228,#229);
#227 = CARTESIAN_POINT('',(-9.627241335952,-7.75,60.));
#228 = DIRECTION('',(0.,-1.,0.));
#229 = DIRECTION('',(0.,0.,1.));
#230 = ADVANCED_FACE('',(#231),#260,.T.);
#231 = FACE_BOUND('',#232,.T.);
#232 = EDGE_LOOP('',(#233,#234,#235,#236,#237,#238,#246,#254));
#233 = ORIENTED_EDGE('',*,*,#146,.F.);
#234 = ORIENTED_EDGE('',*,*,#219,.T.);
#235 = ORIENTED_EDGE('',*,*,#201,.T.);
#236 = ORIENTED_EDGE('',*,*,#106,.F.);
#237 = ORIENTED_EDGE('',*,*,#178,.F.);
#238 = ORIENTED_EDGE('',*,*,#239,.F.);
#239 = EDGE_CURVE('',#240,#171,#242,.T.);
#240 = VERTEX_POINT('',#241);
#241 = CARTESIAN_POINT('',(-8.227241335952,-3.75,61.425));
#242 = LINE('',#243,#244);
#243 = CARTESIAN_POINT('',(-12.72724133595,-3.75,61.425));
#244 = VECTOR('',#245,1.);
#245 = DIRECTION('',(-1.,0.,0.));
#246 = ORIENTED_EDGE('',*,*,#247,.F.);
#247 = EDGE_CURVE('',#248,#240,#250,.T.);
#248 = VERTEX_POINT('',#249);
#249 = CARTESIAN_POINT('',(-8.227241335952,-5.75,60.975));
#250 = LINE('',#251,#252);
#251 = CARTESIAN_POINT('',(-8.227241335952,-6.758030933968,
    60.748193039857));
#252 = VECTOR('',#253,1.);
#253 = DIRECTION('',(0.,0.975609756098,0.219512195122));
#254 = ORIENTED_EDGE('',*,*,#255,.T.);
#255 = EDGE_CURVE('',#248,#147,#256,.T.);
#256 = LINE('',#257,#258);
#257 = CARTESIAN_POINT('',(-12.72724133595,-5.75,60.975));
#258 = VECTOR('',#259,1.);
#259 = DIRECTION('',(-1.,0.,0.));
#260 = PLANE('',#261);
#261 = AXIS2_PLACEMENT_3D('',#262,#263,#264);
#262 = CARTESIAN_POINT('',(-9.627241335952,-7.75,60.525));
#263 = DIRECTION('',(0.,-0.219512195122,0.975609756098));
#264 = DIRECTION('',(0.,0.975609756098,0.219512195122));
#265 = ADVANCED_FACE('',(#266),#307,.F.);
#266 = FACE_BOUND('',#267,.F.);
#267 = EDGE_LOOP('',(#268,#276,#284,#292,#300,#306));
#268 = ORIENTED_EDGE('',*,*,#269,.F.);
#269 = EDGE_CURVE('',#270,#163,#272,.T.);
#270 = VERTEX_POINT('',#271);
#271 = CARTESIAN_POINT('',(-15.62724133595,-3.75,60.9));
#272 = LINE('',#273,#274);
#273 = CARTESIAN_POINT('',(-15.82724133595,-3.75,60.9));
#274 = VECTOR('',#275,1.);
#275 = DIRECTION('',(1.,0.,0.));
#276 = ORIENTED_EDGE('',*,*,#277,.T.);
#277 = EDGE_CURVE('',#270,#278,#280,.T.);
#278 = VERTEX_POINT('',#279);
#279 = CARTESIAN_POINT('',(-15.62724133595,-5.25,60.9));
#280 = LINE('',#281,#282);
#281 = CARTESIAN_POINT('',(-15.62724133595,-5.198733100211,60.9));
#282 = VECTOR('',#283,1.);
#283 = DIRECTION('',(0.,-1.,0.));
#284 = ORIENTED_EDGE('',*,*,#285,.F.);
#285 = EDGE_CURVE('',#286,#278,#288,.T.);
#286 = VERTEX_POINT('',#287);
#287 = CARTESIAN_POINT('',(-15.82724133595,-5.25,60.9));
#288 = LINE('',#289,#290);
#289 = CARTESIAN_POINT('',(-16.42724133595,-5.25,60.9));
#290 = VECTOR('',#291,1.);
#291 = DIRECTION('',(1.,0.,0.));
#292 = ORIENTED_EDGE('',*,*,#293,.F.);
#293 = EDGE_CURVE('',#294,#286,#296,.T.);
#294 = VERTEX_POINT('',#295);
#295 = CARTESIAN_POINT('',(-15.82724133595,-5.75,60.9));
#296 = LINE('',#297,#298);
#297 = CARTESIAN_POINT('',(-15.82724133595,-5.75,60.9));
#298 = VECTOR('',#299,1.);
#299 = DIRECTION('',(0.,1.,0.));
#300 = ORIENTED_EDGE('',*,*,#301,.T.);
#301 = EDGE_CURVE('',#294,#155,#302,.T.);
#302 = LINE('',#303,#304);
#303 = CARTESIAN_POINT('',(-15.82724133595,-5.75,60.9));
#304 = VECTOR('',#305,1.);
#305 = DIRECTION('',(1.,0.,0.));
#306 = ORIENTED_EDGE('',*,*,#162,.T.);
#307 = PLANE('',#308);
#308 = AXIS2_PLACEMENT_3D('',#309,#310,#311);
#309 = CARTESIAN_POINT('',(-15.82724133595,-5.75,60.9));
#310 = DIRECTION('',(0.,0.,1.));
#311 = DIRECTION('',(1.,0.,0.));
#312 = ADVANCED_FACE('',(#313),#340,.F.);
#313 = FACE_BOUND('',#314,.F.);
#314 = EDGE_LOOP('',(#315,#316,#324,#332,#338,#339));
#315 = ORIENTED_EDGE('',*,*,#301,.F.);
#316 = ORIENTED_EDGE('',*,*,#317,.T.);
#317 = EDGE_CURVE('',#294,#318,#320,.T.);
#318 = VERTEX_POINT('',#319);
#319 = CARTESIAN_POINT('',(-15.82724133595,-5.75,61.5));
#320 = LINE('',#321,#322);
#321 = CARTESIAN_POINT('',(-15.82724133595,-5.75,60.9));
#322 = VECTOR('',#323,1.);
#323 = DIRECTION('',(0.,0.,1.));
#324 = ORIENTED_EDGE('',*,*,#325,.T.);
#325 = EDGE_CURVE('',#318,#326,#328,.T.);
#326 = VERTEX_POINT('',#327);
#327 = CARTESIAN_POINT('',(-8.227241335952,-5.75,61.5));
#328 = LINE('',#329,#330);
#329 = CARTESIAN_POINT('',(-15.82724133595,-5.75,61.5));
#330 = VECTOR('',#331,1.);
#331 = DIRECTION('',(1.,0.,0.));
#332 = ORIENTED_EDGE('',*,*,#333,.F.);
#333 = EDGE_CURVE('',#248,#326,#334,.T.);
#334 = LINE('',#335,#336);
#335 = CARTESIAN_POINT('',(-8.227241335952,-5.75,60.9));
#336 = VECTOR('',#337,1.);
#337 = DIRECTION('',(0.,0.,1.));
#338 = ORIENTED_EDGE('',*,*,#255,.T.);
#339 = ORIENTED_EDGE('',*,*,#154,.T.);
#340 = PLANE('',#341);
#341 = AXIS2_PLACEMENT_3D('',#342,#343,#344);
#342 = CARTESIAN_POINT('',(-15.82724133595,-5.75,60.9));
#343 = DIRECTION('',(0.,1.,0.));
#344 = DIRECTION('',(0.,0.,1.));
#345 = ADVANCED_FACE('',(#346),#364,.T.);
#346 = FACE_BOUND('',#347,.T.);
#347 = EDGE_LOOP('',(#348,#349,#350,#358));
#348 = ORIENTED_EDGE('',*,*,#333,.F.);
#349 = ORIENTED_EDGE('',*,*,#247,.T.);
#350 = ORIENTED_EDGE('',*,*,#351,.T.);
#351 = EDGE_CURVE('',#240,#352,#354,.T.);
#352 = VERTEX_POINT('',#353);
#353 = CARTESIAN_POINT('',(-8.227241335952,-3.75,61.5));
#354 = LINE('',#355,#356);
#355 = CARTESIAN_POINT('',(-8.227241335952,-3.75,60.9));
#356 = VECTOR('',#357,1.);
#357 = DIRECTION('',(0.,0.,1.));
#358 = ORIENTED_EDGE('',*,*,#359,.F.);
#359 = EDGE_CURVE('',#326,#352,#360,.T.);
#360 = LINE('',#361,#362);
#361 = CARTESIAN_POINT('',(-8.227241335952,-5.75,61.5));
#362 = VECTOR('',#363,1.);
#363 = DIRECTION('',(0.,1.,0.));
#364 = PLANE('',#365);
#365 = AXIS2_PLACEMENT_3D('',#366,#367,#368);
#366 = CARTESIAN_POINT('',(-8.227241335952,-5.75,60.9));
#367 = DIRECTION('',(1.,0.,0.));
#368 = DIRECTION('',(0.,0.,1.));
#369 = ADVANCED_FACE('',(#370),#388,.T.);
#370 = FACE_BOUND('',#371,.T.);
#371 = EDGE_LOOP('',(#372,#380,#381,#382));
#372 = ORIENTED_EDGE('',*,*,#373,.F.);
#373 = EDGE_CURVE('',#318,#374,#376,.T.);
#374 = VERTEX_POINT('',#375);
#375 = CARTESIAN_POINT('',(-15.82724133595,-3.75,61.5));
#376 = LINE('',#377,#378);
#377 = CARTESIAN_POINT('',(-15.82724133595,-5.75,61.5));
#378 = VECTOR('',#379,1.);
#379 = DIRECTION('',(0.,1.,0.));
#380 = ORIENTED_EDGE('',*,*,#325,.T.);
#381 = ORIENTED_EDGE('',*,*,#359,.T.);
#382 = ORIENTED_EDGE('',*,*,#383,.F.);
#383 = EDGE_CURVE('',#374,#352,#384,.T.);
#384 = LINE('',#385,#386);
#385 = CARTESIAN_POINT('',(-15.82724133595,-3.75,61.5));
#386 = VECTOR('',#387,1.);
#387 = DIRECTION('',(1.,0.,0.));
#388 = PLANE('',#389);
#389 = AXIS2_PLACEMENT_3D('',#390,#391,#392);
#390 = CARTESIAN_POINT('',(-15.82724133595,-5.75,61.5));
#391 = DIRECTION('',(0.,0.,1.));
#392 = DIRECTION('',(1.,0.,0.));
#393 = ADVANCED_FACE('',(#394),#405,.F.);
#394 = FACE_BOUND('',#395,.F.);
#395 = EDGE_LOOP('',(#396,#397,#398,#399));
#396 = ORIENTED_EDGE('',*,*,#373,.F.);
#397 = ORIENTED_EDGE('',*,*,#317,.F.);
#398 = ORIENTED_EDGE('',*,*,#293,.T.);
#399 = ORIENTED_EDGE('',*,*,#400,.F.);
#400 = EDGE_CURVE('',#374,#286,#401,.T.);
#401 = LINE('',#402,#403);
#402 = CARTESIAN_POINT('',(-15.82724133595,-5.715517241379,
    60.713793103448));
#403 = VECTOR('',#404,1.);
#404 = DIRECTION('',(0.,-0.928476690885,-0.371390676354));
#405 = PLANE('',#406);
#406 = AXIS2_PLACEMENT_3D('',#407,#408,#409);
#407 = CARTESIAN_POINT('',(-15.82724133595,-5.75,60.9));
#408 = DIRECTION('',(1.,0.,0.));
#409 = DIRECTION('',(0.,0.,1.));
#410 = ADVANCED_FACE('',(#411),#445,.T.);
#411 = FACE_BOUND('',#412,.T.);
#412 = EDGE_LOOP('',(#413,#423,#431,#437,#438,#439));
#413 = ORIENTED_EDGE('',*,*,#414,.F.);
#414 = EDGE_CURVE('',#415,#417,#419,.T.);
#415 = VERTEX_POINT('',#416);
#416 = CARTESIAN_POINT('',(-17.02724133595,-5.75,60.7));
#417 = VERTEX_POINT('',#418);
#418 = CARTESIAN_POINT('',(-17.02724133595,-3.75,61.5));
#419 = LINE('',#420,#421);
#420 = CARTESIAN_POINT('',(-17.02724133595,-5.75,60.7));
#421 = VECTOR('',#422,1.);
#422 = DIRECTION('',(0.,0.928476690885,0.371390676354));
#423 = ORIENTED_EDGE('',*,*,#424,.T.);
#424 = EDGE_CURVE('',#415,#425,#427,.T.);
#425 = VERTEX_POINT('',#426);
#426 = CARTESIAN_POINT('',(-15.62724133595,-5.75,60.7));
#427 = LINE('',#428,#429);
#428 = CARTESIAN_POINT('',(-17.02724133595,-5.75,60.7));
#429 = VECTOR('',#430,1.);
#430 = DIRECTION('',(1.,0.,0.));
#431 = ORIENTED_EDGE('',*,*,#432,.T.);
#432 = EDGE_CURVE('',#425,#278,#433,.T.);
#433 = LINE('',#434,#435);
#434 = CARTESIAN_POINT('',(-15.62724133595,-5.75,60.7));
#435 = VECTOR('',#436,1.);
#436 = DIRECTION('',(0.,0.928476690885,0.371390676354));
#437 = ORIENTED_EDGE('',*,*,#285,.F.);
#438 = ORIENTED_EDGE('',*,*,#400,.F.);
#439 = ORIENTED_EDGE('',*,*,#440,.F.);
#440 = EDGE_CURVE('',#417,#374,#441,.T.);
#441 = LINE('',#442,#443);
#442 = CARTESIAN_POINT('',(-17.02724133595,-3.75,61.5));
#443 = VECTOR('',#444,1.);
#444 = DIRECTION('',(1.,0.,0.));
#445 = PLANE('',#446);
#446 = AXIS2_PLACEMENT_3D('',#447,#448,#449);
#447 = CARTESIAN_POINT('',(-17.02724133595,-5.75,60.7));
#448 = DIRECTION('',(0.,-0.371390676354,0.928476690885));
#449 = DIRECTION('',(0.,0.928476690885,0.371390676354));
#450 = ADVANCED_FACE('',(#451),#469,.F.);
#451 = FACE_BOUND('',#452,.F.);
#452 = EDGE_LOOP('',(#453,#461,#462,#463));
#453 = ORIENTED_EDGE('',*,*,#454,.T.);
#454 = EDGE_CURVE('',#455,#425,#457,.T.);
#455 = VERTEX_POINT('',#456);
#456 = CARTESIAN_POINT('',(-15.62724133595,-5.75,60.6));
#457 = LINE('',#458,#459);
#458 = CARTESIAN_POINT('',(-15.62724133595,-5.75,60.6));
#459 = VECTOR('',#460,1.);
#460 = DIRECTION('',(0.,0.,1.));
#461 = ORIENTED_EDGE('',*,*,#432,.T.);
#462 = ORIENTED_EDGE('',*,*,#277,.F.);
#463 = ORIENTED_EDGE('',*,*,#464,.T.);
#464 = EDGE_CURVE('',#270,#455,#465,.T.);
#465 = LINE('',#466,#467);
#466 = CARTESIAN_POINT('',(-15.62724133595,-3.75,60.9));
#467 = VECTOR('',#468,1.);
#468 = DIRECTION('',(0.,-0.988936352868,-0.14834045293));
#469 = PLANE('',#470);
#470 = AXIS2_PLACEMENT_3D('',#471,#472,#473);
#471 = CARTESIAN_POINT('',(-15.62724133595,-4.647466200422,
    60.95792277031));
#472 = DIRECTION('',(-1.,-0.,-0.));
#473 = DIRECTION('',(0.,0.,-1.));
#474 = ADVANCED_FACE('',(#475),#500,.T.);
#475 = FACE_BOUND('',#476,.T.);
#476 = EDGE_LOOP('',(#477,#485,#486,#494));
#477 = ORIENTED_EDGE('',*,*,#478,.T.);
#478 = EDGE_CURVE('',#479,#270,#481,.T.);
#479 = VERTEX_POINT('',#480);
#480 = CARTESIAN_POINT('',(-17.02724133595,-3.75,60.9));
#481 = LINE('',#482,#483);
#482 = CARTESIAN_POINT('',(-17.02724133595,-3.75,60.9));
#483 = VECTOR('',#484,1.);
#484 = DIRECTION('',(1.,0.,0.));
#485 = ORIENTED_EDGE('',*,*,#464,.T.);
#486 = ORIENTED_EDGE('',*,*,#487,.F.);
#487 = EDGE_CURVE('',#488,#455,#490,.T.);
#488 = VERTEX_POINT('',#489);
#489 = CARTESIAN_POINT('',(-17.02724133595,-5.75,60.6));
#490 = LINE('',#491,#492);
#491 = CARTESIAN_POINT('',(-17.02724133595,-5.75,60.6));
#492 = VECTOR('',#493,1.);
#493 = DIRECTION('',(1.,0.,0.));
#494 = ORIENTED_EDGE('',*,*,#495,.F.);
#495 = EDGE_CURVE('',#479,#488,#496,.T.);
#496 = LINE('',#497,#498);
#497 = CARTESIAN_POINT('',(-17.02724133595,-3.75,60.9));
#498 = VECTOR('',#499,1.);
#499 = DIRECTION('',(0.,-0.988936352868,-0.14834045293));
#500 = PLANE('',#501);
#501 = AXIS2_PLACEMENT_3D('',#502,#503,#504);
#502 = CARTESIAN_POINT('',(-17.02724133595,-3.75,60.9));
#503 = DIRECTION('',(0.,0.14834045293,-0.988936352868));
#504 = DIRECTION('',(0.,-0.988936352868,-0.14834045293));
#505 = ADVANCED_FACE('',(#506),#522,.T.);
#506 = FACE_BOUND('',#507,.T.);
#507 = EDGE_LOOP('',(#508,#509,#515,#516));
#508 = ORIENTED_EDGE('',*,*,#414,.T.);
#509 = ORIENTED_EDGE('',*,*,#510,.T.);
#510 = EDGE_CURVE('',#417,#479,#511,.T.);
#511 = LINE('',#512,#513);
#512 = CARTESIAN_POINT('',(-17.02724133595,-3.75,61.5));
#513 = VECTOR('',#514,1.);
#514 = DIRECTION('',(0.,0.,-1.));
#515 = ORIENTED_EDGE('',*,*,#495,.T.);
#516 = ORIENTED_EDGE('',*,*,#517,.T.);
#517 = EDGE_CURVE('',#488,#415,#518,.T.);
#518 = LINE('',#519,#520);
#519 = CARTESIAN_POINT('',(-17.02724133595,-5.75,60.6));
#520 = VECTOR('',#521,1.);
#521 = DIRECTION('',(0.,0.,1.));
#522 = PLANE('',#523);
#523 = AXIS2_PLACEMENT_3D('',#524,#525,#526);
#524 = CARTESIAN_POINT('',(-17.02724133595,-4.647466200422,
    60.95792277031));
#525 = DIRECTION('',(-1.,-0.,-0.));
#526 = DIRECTION('',(0.,0.,-1.));
#527 = ADVANCED_FACE('',(#528),#534,.T.);
#528 = FACE_BOUND('',#529,.T.);
#529 = EDGE_LOOP('',(#530,#531,#532,#533));
#530 = ORIENTED_EDGE('',*,*,#487,.T.);
#531 = ORIENTED_EDGE('',*,*,#454,.T.);
#532 = ORIENTED_EDGE('',*,*,#424,.F.);
#533 = ORIENTED_EDGE('',*,*,#517,.F.);
#534 = PLANE('',#535);
#535 = AXIS2_PLACEMENT_3D('',#536,#537,#538);
#536 = CARTESIAN_POINT('',(-17.02724133595,-5.75,60.6));
#537 = DIRECTION('',(0.,-1.,0.));
#538 = DIRECTION('',(0.,0.,1.));
#539 = ADVANCED_FACE('',(#540),#550,.T.);
#540 = FACE_BOUND('',#541,.T.);
#541 = EDGE_LOOP('',(#542,#543,#544,#545,#546,#547,#548,#549));
#542 = ORIENTED_EDGE('',*,*,#269,.F.);
#543 = ORIENTED_EDGE('',*,*,#478,.F.);
#544 = ORIENTED_EDGE('',*,*,#510,.F.);
#545 = ORIENTED_EDGE('',*,*,#440,.T.);
#546 = ORIENTED_EDGE('',*,*,#383,.T.);
#547 = ORIENTED_EDGE('',*,*,#351,.F.);
#548 = ORIENTED_EDGE('',*,*,#239,.T.);
#549 = ORIENTED_EDGE('',*,*,#170,.T.);
#550 = PLANE('',#551);
#551 = AXIS2_PLACEMENT_3D('',#552,#553,#554);
#552 = CARTESIAN_POINT('',(-12.66633708063,-3.75,61.239095744681));
#553 = DIRECTION('',(0.,1.,0.));
#554 = DIRECTION('',(0.,0.,1.));
#555 = ( GEOMETRIC_REPRESENTATION_CONTEXT(3) 
GLOBAL_UNCERTAINTY_ASSIGNED_CONTEXT((#559)) GLOBAL_UNIT_ASSIGNED_CONTEXT
((#556,#557,#558)) REPRESENTATION_CONTEXT('Context #1',
  '3D Context with UNIT and UNCERTAINTY') );
#556 = ( LENGTH_UNIT() NAMED_UNIT(*) SI_UNIT(.MILLI.,.METRE.) );
#557 = ( NAMED_UNIT(*) PLANE_ANGLE_UNIT() SI_UNIT($,.RADIAN.) );
#558 = ( NAMED_UNIT(*) SI_UNIT($,.STERADIAN.) SOLID_ANGLE_UNIT() );
#559 = UNCERTAINTY_MEASURE_WITH_UNIT(LENGTH_MEASURE(1.E-07),#556,
  'distance_accuracy_value','confusion accuracy');
#560 = PRODUCT_RELATED_PRODUCT_CATEGORY('part',$,(#7));
ENDSEC;
END-ISO-10303-21;
