ISO-10303-21;
HEADER;
FILE_DESCRIPTION(('FreeCAD Model'),'2;1');
FILE_NAME('Open CASCADE Shape Model','2026-09-30T05:24:24',('FreeCAD'),(
    'FreeCAD'),'Open CASCADE STEP processor 7.8','FreeCAD','Unknown');
FILE_SCHEMA(('AUTOMOTIVE_DESIGN { 1 0 10303 214 1 1 1 1 }'));
ENDSEC;
DATA;
#1 = APPLICATION_PROTOCOL_DEFINITION('international standard',
  'automotive_design',2000,#2);
#2 = APPLICATION_CONTEXT(
  'core data for automotive mechanical design processes');
#3 = SHAPE_DEFINITION_REPRESENTATION(#4,#10);
#4 = PRODUCT_DEFINITION_SHAPE('','',#5);
#5 = PRODUCT_DEFINITION('design','',#6,#9);
#6 = PRODUCT_DEFINITION_FORMATION('','',#7);
#7 = PRODUCT('Open CASCADE STEP translator 7.8 52',
  'Open CASCADE STEP translator 7.8 52','',(#8));
#8 = PRODUCT_CONTEXT('',#2,'mechanical');
#9 = PRODUCT_DEFINITION_CONTEXT('part definition',#2,'design');
#10 = ADVANCED_BREP_SHAPE_REPRESENTATION('',(#11,#15),#467);
#11 = AXIS2_PLACEMENT_3D('',#12,#13,#14);
#12 = CARTESIAN_POINT('',(0.,0.,0.));
#13 = DIRECTION('',(0.,0.,1.));
#14 = DIRECTION('',(1.,0.,-0.));
#15 = MANIFOLD_SOLID_BREP('',#16);
#16 = CLOSED_SHELL('',(#17,#50,#70,#96,#121,#146,#172,#198,#223,#248,
    #274,#300,#325,#351,#377,#403,#429,#449));
#17 = ADVANCED_FACE('',(#18),#45,.T.);
#18 = FACE_BOUND('',#19,.T.);
#19 = EDGE_LOOP('',(#20,#30,#37,#38));
#20 = ORIENTED_EDGE('',*,*,#21,.T.);
#21 = EDGE_CURVE('',#22,#24,#26,.T.);
#22 = VERTEX_POINT('',#23);
#23 = CARTESIAN_POINT('',(-29.6,4.36,22.8));
#24 = VERTEX_POINT('',#25);
#25 = CARTESIAN_POINT('',(-38.,4.36,22.8));
#26 = LINE('',#27,#28);
#27 = CARTESIAN_POINT('',(-21.4,4.36,22.8));
#28 = VECTOR('',#29,1.);
#29 = DIRECTION('',(-1.,0.,0.));
#30 = ORIENTED_EDGE('',*,*,#31,.F.);
#31 = EDGE_CURVE('',#24,#24,#32,.T.);
#32 = CIRCLE('',#33,2.2);
#33 = AXIS2_PLACEMENT_3D('',#34,#35,#36);
#34 = CARTESIAN_POINT('',(-38.,4.36,20.6));
#35 = DIRECTION('',(-1.,0.,0.));
#36 = DIRECTION('',(0.,0.,1.));
#37 = ORIENTED_EDGE('',*,*,#21,.F.);
#38 = ORIENTED_EDGE('',*,*,#39,.T.);
#39 = EDGE_CURVE('',#22,#22,#40,.T.);
#40 = CIRCLE('',#41,2.2);
#41 = AXIS2_PLACEMENT_3D('',#42,#43,#44);
#42 = CARTESIAN_POINT('',(-29.6,4.36,20.6));
#43 = DIRECTION('',(-1.,0.,0.));
#44 = DIRECTION('',(0.,0.,1.));
#45 = CYLINDRICAL_SURFACE('',#46,2.2);
#46 = AXIS2_PLACEMENT_3D('',#47,#48,#49);
#47 = CARTESIAN_POINT('',(-21.4,4.36,20.6));
#48 = DIRECTION('',(-1.,0.,0.));
#49 = DIRECTION('',(0.,0.,1.));
#50 = ADVANCED_FACE('',(#51,#54),#65,.F.);
#51 = FACE_BOUND('',#52,.F.);
#52 = EDGE_LOOP('',(#53));
#53 = ORIENTED_EDGE('',*,*,#39,.T.);
#54 = FACE_BOUND('',#55,.F.);
#55 = EDGE_LOOP('',(#56));
#56 = ORIENTED_EDGE('',*,*,#57,.F.);
#57 = EDGE_CURVE('',#58,#58,#60,.T.);
#58 = VERTEX_POINT('',#59);
#59 = CARTESIAN_POINT('',(-29.6,4.36,21.8));
#60 = CIRCLE('',#61,1.2);
#61 = AXIS2_PLACEMENT_3D('',#62,#63,#64);
#62 = CARTESIAN_POINT('',(-29.6,4.36,20.6));
#63 = DIRECTION('',(-1.,0.,0.));
#64 = DIRECTION('',(0.,0.,1.));
#65 = PLANE('',#66);
#66 = AXIS2_PLACEMENT_3D('',#67,#68,#69);
#67 = CARTESIAN_POINT('',(-29.6,4.36,20.6));
#68 = DIRECTION('',(-1.,-0.,-0.));
#69 = DIRECTION('',(0.,0.,-1.));
#70 = ADVANCED_FACE('',(#71),#91,.T.);
#71 = FACE_BOUND('',#72,.T.);
#72 = EDGE_LOOP('',(#73,#82,#89,#90));
#73 = ORIENTED_EDGE('',*,*,#74,.T.);
#74 = EDGE_CURVE('',#24,#75,#77,.T.);
#75 = VERTEX_POINT('',#76);
#76 = CARTESIAN_POINT('',(-41.8,4.36,26.6));
#77 = CIRCLE('',#78,3.8);
#78 = AXIS2_PLACEMENT_3D('',#79,#80,#81);
#79 = CARTESIAN_POINT('',(-38.,4.36,26.6));
#80 = DIRECTION('',(0.,1.,0.));
#81 = DIRECTION('',(0.,0.,-1.));
#82 = ORIENTED_EDGE('',*,*,#83,.T.);
#83 = EDGE_CURVE('',#75,#75,#84,.T.);
#84 = CIRCLE('',#85,2.2);
#85 = AXIS2_PLACEMENT_3D('',#86,#87,#88);
#86 = CARTESIAN_POINT('',(-44.,4.36,26.6));
#87 = DIRECTION('',(9.5E-16,0.,-1.));
#88 = DIRECTION('',(-1.,0.,-9.5E-16));
#89 = ORIENTED_EDGE('',*,*,#74,.F.);
#90 = ORIENTED_EDGE('',*,*,#31,.T.);
#91 = TOROIDAL_SURFACE('',#92,6.,2.2);
#92 = AXIS2_PLACEMENT_3D('',#93,#94,#95);
#93 = CARTESIAN_POINT('',(-38.,4.36,26.6));
#94 = DIRECTION('',(0.,1.,0.));
#95 = DIRECTION('',(0.,0.,-1.));
#96 = ADVANCED_FACE('',(#97),#116,.F.);
#97 = FACE_BOUND('',#98,.F.);
#98 = EDGE_LOOP('',(#99,#107,#114,#115));
#99 = ORIENTED_EDGE('',*,*,#100,.T.);
#100 = EDGE_CURVE('',#58,#101,#103,.T.);
#101 = VERTEX_POINT('',#102);
#102 = CARTESIAN_POINT('',(-38.,4.36,21.8));
#103 = LINE('',#104,#105);
#104 = CARTESIAN_POINT('',(-21.4,4.36,21.8));
#105 = VECTOR('',#106,1.);
#106 = DIRECTION('',(-1.,0.,0.));
#107 = ORIENTED_EDGE('',*,*,#108,.F.);
#108 = EDGE_CURVE('',#101,#101,#109,.T.);
#109 = CIRCLE('',#110,1.2);
#110 = AXIS2_PLACEMENT_3D('',#111,#112,#113);
#111 = CARTESIAN_POINT('',(-38.,4.36,20.6));
#112 = DIRECTION('',(-1.,0.,0.));
#113 = DIRECTION('',(0.,0.,1.));
#114 = ORIENTED_EDGE('',*,*,#100,.F.);
#115 = ORIENTED_EDGE('',*,*,#57,.T.);
#116 = CYLINDRICAL_SURFACE('',#117,1.2);
#117 = AXIS2_PLACEMENT_3D('',#118,#119,#120);
#118 = CARTESIAN_POINT('',(-21.4,4.36,20.6));
#119 = DIRECTION('',(-1.,0.,0.));
#120 = DIRECTION('',(0.,0.,1.));
#121 = ADVANCED_FACE('',(#122),#141,.T.);
#122 = FACE_BOUND('',#123,.T.);
#123 = EDGE_LOOP('',(#124,#132,#139,#140));
#124 = ORIENTED_EDGE('',*,*,#125,.T.);
#125 = EDGE_CURVE('',#75,#126,#128,.T.);
#126 = VERTEX_POINT('',#127);
#127 = CARTESIAN_POINT('',(-41.8,4.36,32.8));
#128 = LINE('',#129,#130);
#129 = CARTESIAN_POINT('',(-41.8,4.36,26.6));
#130 = VECTOR('',#131,1.);
#131 = DIRECTION('',(0.,0.,1.));
#132 = ORIENTED_EDGE('',*,*,#133,.F.);
#133 = EDGE_CURVE('',#126,#126,#134,.T.);
#134 = CIRCLE('',#135,2.2);
#135 = AXIS2_PLACEMENT_3D('',#136,#137,#138);
#136 = CARTESIAN_POINT('',(-44.,4.36,32.8));
#137 = DIRECTION('',(0.,0.,1.));
#138 = DIRECTION('',(1.,0.,0.));
#139 = ORIENTED_EDGE('',*,*,#125,.F.);
#140 = ORIENTED_EDGE('',*,*,#83,.F.);
#141 = CYLINDRICAL_SURFACE('',#142,2.2);
#142 = AXIS2_PLACEMENT_3D('',#143,#144,#145);
#143 = CARTESIAN_POINT('',(-44.,4.36,26.6));
#144 = DIRECTION('',(0.,0.,1.));
#145 = DIRECTION('',(1.,0.,0.));
#146 = ADVANCED_FACE('',(#147),#167,.F.);
#147 = FACE_BOUND('',#148,.F.);
#148 = EDGE_LOOP('',(#149,#158,#165,#166));
#149 = ORIENTED_EDGE('',*,*,#150,.T.);
#150 = EDGE_CURVE('',#101,#151,#153,.T.);
#151 = VERTEX_POINT('',#152);
#152 = CARTESIAN_POINT('',(-42.8,4.36,26.6));
#153 = CIRCLE('',#154,4.8);
#154 = AXIS2_PLACEMENT_3D('',#155,#156,#157);
#155 = CARTESIAN_POINT('',(-38.,4.36,26.6));
#156 = DIRECTION('',(0.,1.,0.));
#157 = DIRECTION('',(0.,0.,-1.));
#158 = ORIENTED_EDGE('',*,*,#159,.T.);
#159 = EDGE_CURVE('',#151,#151,#160,.T.);
#160 = CIRCLE('',#161,1.2);
#161 = AXIS2_PLACEMENT_3D('',#162,#163,#164);
#162 = CARTESIAN_POINT('',(-44.,4.36,26.6));
#163 = DIRECTION('',(9.5E-16,0.,-1.));
#164 = DIRECTION('',(-1.,0.,-9.5E-16));
#165 = ORIENTED_EDGE('',*,*,#150,.F.);
#166 = ORIENTED_EDGE('',*,*,#108,.T.);
#167 = TOROIDAL_SURFACE('',#168,6.,1.2);
#168 = AXIS2_PLACEMENT_3D('',#169,#170,#171);
#169 = CARTESIAN_POINT('',(-38.,4.36,26.6));
#170 = DIRECTION('',(0.,1.,0.));
#171 = DIRECTION('',(0.,0.,-1.));
#172 = ADVANCED_FACE('',(#173),#193,.T.);
#173 = FACE_BOUND('',#174,.T.);
#174 = EDGE_LOOP('',(#175,#184,#191,#192));
#175 = ORIENTED_EDGE('',*,*,#176,.T.);
#176 = EDGE_CURVE('',#126,#177,#179,.T.);
#177 = VERTEX_POINT('',#178);
#178 = CARTESIAN_POINT('',(-38.,4.36,36.6));
#179 = CIRCLE('',#180,3.8);
#180 = AXIS2_PLACEMENT_3D('',#181,#182,#183);
#181 = CARTESIAN_POINT('',(-38.,4.36,32.8));
#182 = DIRECTION('',(0.,1.,-0.));
#183 = DIRECTION('',(-1.,0.,0.));
#184 = ORIENTED_EDGE('',*,*,#185,.T.);
#185 = EDGE_CURVE('',#177,#177,#186,.T.);
#186 = CIRCLE('',#187,2.2);
#187 = AXIS2_PLACEMENT_3D('',#188,#189,#190);
#188 = CARTESIAN_POINT('',(-38.,4.36,38.8));
#189 = DIRECTION('',(-1.,0.,-5.1E-16));
#190 = DIRECTION('',(-5.1E-16,0.,1.));
#191 = ORIENTED_EDGE('',*,*,#176,.F.);
#192 = ORIENTED_EDGE('',*,*,#133,.T.);
#193 = TOROIDAL_SURFACE('',#194,6.,2.2);
#194 = AXIS2_PLACEMENT_3D('',#195,#196,#197);
#195 = CARTESIAN_POINT('',(-38.,4.36,32.8));
#196 = DIRECTION('',(0.,1.,0.));
#197 = DIRECTION('',(-1.,0.,0.));
#198 = ADVANCED_FACE('',(#199),#218,.F.);
#199 = FACE_BOUND('',#200,.F.);
#200 = EDGE_LOOP('',(#201,#209,#216,#217));
#201 = ORIENTED_EDGE('',*,*,#202,.T.);
#202 = EDGE_CURVE('',#151,#203,#205,.T.);
#203 = VERTEX_POINT('',#204);
#204 = CARTESIAN_POINT('',(-42.8,4.36,32.8));
#205 = LINE('',#206,#207);
#206 = CARTESIAN_POINT('',(-42.8,4.36,26.6));
#207 = VECTOR('',#208,1.);
#208 = DIRECTION('',(0.,0.,1.));
#209 = ORIENTED_EDGE('',*,*,#210,.F.);
#210 = EDGE_CURVE('',#203,#203,#211,.T.);
#211 = CIRCLE('',#212,1.2);
#212 = AXIS2_PLACEMENT_3D('',#213,#214,#215);
#213 = CARTESIAN_POINT('',(-44.,4.36,32.8));
#214 = DIRECTION('',(0.,0.,1.));
#215 = DIRECTION('',(1.,0.,0.));
#216 = ORIENTED_EDGE('',*,*,#202,.F.);
#217 = ORIENTED_EDGE('',*,*,#159,.F.);
#218 = CYLINDRICAL_SURFACE('',#219,1.2);
#219 = AXIS2_PLACEMENT_3D('',#220,#221,#222);
#220 = CARTESIAN_POINT('',(-44.,4.36,26.6));
#221 = DIRECTION('',(0.,0.,1.));
#222 = DIRECTION('',(1.,0.,0.));
#223 = ADVANCED_FACE('',(#224),#243,.T.);
#224 = FACE_BOUND('',#225,.T.);
#225 = EDGE_LOOP('',(#226,#234,#241,#242));
#226 = ORIENTED_EDGE('',*,*,#227,.T.);
#227 = EDGE_CURVE('',#177,#228,#230,.T.);
#228 = VERTEX_POINT('',#229);
#229 = CARTESIAN_POINT('',(-30.4544826719,4.36,36.6));
#230 = LINE('',#231,#232);
#231 = CARTESIAN_POINT('',(-38.,4.36,36.6));
#232 = VECTOR('',#233,1.);
#233 = DIRECTION('',(1.,0.,0.));
#234 = ORIENTED_EDGE('',*,*,#235,.F.);
#235 = EDGE_CURVE('',#228,#228,#236,.T.);
#236 = CIRCLE('',#237,2.2);
#237 = AXIS2_PLACEMENT_3D('',#238,#239,#240);
#238 = CARTESIAN_POINT('',(-30.4544826719,4.36,38.8));
#239 = DIRECTION('',(1.,-0.,0.));
#240 = DIRECTION('',(0.,0.,-1.));
#241 = ORIENTED_EDGE('',*,*,#227,.F.);
#242 = ORIENTED_EDGE('',*,*,#185,.F.);
#243 = CYLINDRICAL_SURFACE('',#244,2.2);
#244 = AXIS2_PLACEMENT_3D('',#245,#246,#247);
#245 = CARTESIAN_POINT('',(-38.,4.36,38.8));
#246 = DIRECTION('',(1.,0.,0.));
#247 = DIRECTION('',(0.,0.,-1.));
#248 = ADVANCED_FACE('',(#249),#269,.F.);
#249 = FACE_BOUND('',#250,.F.);
#250 = EDGE_LOOP('',(#251,#260,#267,#268));
#251 = ORIENTED_EDGE('',*,*,#252,.T.);
#252 = EDGE_CURVE('',#203,#253,#255,.T.);
#253 = VERTEX_POINT('',#254);
#254 = CARTESIAN_POINT('',(-38.,4.36,37.6));
#255 = CIRCLE('',#256,4.8);
#256 = AXIS2_PLACEMENT_3D('',#257,#258,#259);
#257 = CARTESIAN_POINT('',(-38.,4.36,32.8));
#258 = DIRECTION('',(0.,1.,-0.));
#259 = DIRECTION('',(-1.,0.,0.));
#260 = ORIENTED_EDGE('',*,*,#261,.T.);
#261 = EDGE_CURVE('',#253,#253,#262,.T.);
#262 = CIRCLE('',#263,1.2);
#263 = AXIS2_PLACEMENT_3D('',#264,#265,#266);
#264 = CARTESIAN_POINT('',(-38.,4.36,38.8));
#265 = DIRECTION('',(-1.,0.,-5.1E-16));
#266 = DIRECTION('',(-5.1E-16,0.,1.));
#267 = ORIENTED_EDGE('',*,*,#252,.F.);
#268 = ORIENTED_EDGE('',*,*,#210,.T.);
#269 = TOROIDAL_SURFACE('',#270,6.,1.2);
#270 = AXIS2_PLACEMENT_3D('',#271,#272,#273);
#271 = CARTESIAN_POINT('',(-38.,4.36,32.8));
#272 = DIRECTION('',(0.,1.,0.));
#273 = DIRECTION('',(-1.,0.,0.));
#274 = ADVANCED_FACE('',(#275),#295,.T.);
#275 = FACE_BOUND('',#276,.T.);
#276 = EDGE_LOOP('',(#277,#286,#293,#294));
#277 = ORIENTED_EDGE('',*,*,#278,.T.);
#278 = EDGE_CURVE('',#228,#279,#281,.T.);
#279 = VERTEX_POINT('',#280);
#280 = CARTESIAN_POINT('',(-22.34086200392,-0.195,36.6));
#281 = CIRCLE('',#282,9.503717381318);
#282 = AXIS2_PLACEMENT_3D('',#283,#284,#285);
#283 = CARTESIAN_POINT('',(-30.4544826719,-5.143717381318,36.6));
#284 = DIRECTION('',(0.,0.,-1.));
#285 = DIRECTION('',(0.,1.,0.));
#286 = ORIENTED_EDGE('',*,*,#287,.T.);
#287 = EDGE_CURVE('',#279,#279,#288,.T.);
#288 = CIRCLE('',#289,2.2);
#289 = AXIS2_PLACEMENT_3D('',#290,#291,#292);
#290 = CARTESIAN_POINT('',(-22.34086200392,-0.195,38.8));
#291 = DIRECTION('',(-0.520713862035,0.853731265612,0.));
#292 = DIRECTION('',(0.853731265612,0.520713862035,0.));
#293 = ORIENTED_EDGE('',*,*,#278,.F.);
#294 = ORIENTED_EDGE('',*,*,#235,.T.);
#295 = TOROIDAL_SURFACE('',#296,9.503717381318,2.2);
#296 = AXIS2_PLACEMENT_3D('',#297,#298,#299);
#297 = CARTESIAN_POINT('',(-30.4544826719,-5.143717381318,38.8));
#298 = DIRECTION('',(0.,0.,-1.));
#299 = DIRECTION('',(0.,1.,0.));
#300 = ADVANCED_FACE('',(#301),#320,.F.);
#301 = FACE_BOUND('',#302,.F.);
#302 = EDGE_LOOP('',(#303,#311,#318,#319));
#303 = ORIENTED_EDGE('',*,*,#304,.T.);
#304 = EDGE_CURVE('',#253,#305,#307,.T.);
#305 = VERTEX_POINT('',#306);
#306 = CARTESIAN_POINT('',(-30.4544826719,4.36,37.6));
#307 = LINE('',#308,#309);
#308 = CARTESIAN_POINT('',(-38.,4.36,37.6));
#309 = VECTOR('',#310,1.);
#310 = DIRECTION('',(1.,0.,0.));
#311 = ORIENTED_EDGE('',*,*,#312,.F.);
#312 = EDGE_CURVE('',#305,#305,#313,.T.);
#313 = CIRCLE('',#314,1.2);
#314 = AXIS2_PLACEMENT_3D('',#315,#316,#317);
#315 = CARTESIAN_POINT('',(-30.4544826719,4.36,38.8));
#316 = DIRECTION('',(1.,-0.,0.));
#317 = DIRECTION('',(0.,0.,-1.));
#318 = ORIENTED_EDGE('',*,*,#304,.F.);
#319 = ORIENTED_EDGE('',*,*,#261,.F.);
#320 = CYLINDRICAL_SURFACE('',#321,1.2);
#321 = AXIS2_PLACEMENT_3D('',#322,#323,#324);
#322 = CARTESIAN_POINT('',(-38.,4.36,38.8));
#323 = DIRECTION('',(1.,0.,0.));
#324 = DIRECTION('',(0.,0.,-1.));
#325 = ADVANCED_FACE('',(#326),#346,.T.);
#326 = FACE_BOUND('',#327,.T.);
#327 = EDGE_LOOP('',(#328,#337,#344,#345));
#328 = ORIENTED_EDGE('',*,*,#329,.T.);
#329 = EDGE_CURVE('',#279,#330,#332,.T.);
#330 = VERTEX_POINT('',#331);
#331 = CARTESIAN_POINT('',(-14.22724133595,-4.75,36.6));
#332 = CIRCLE('',#333,9.503717381318);
#333 = AXIS2_PLACEMENT_3D('',#334,#335,#336);
#334 = CARTESIAN_POINT('',(-14.22724133595,4.753717381318,36.6));
#335 = DIRECTION('',(0.,0.,1.));
#336 = DIRECTION('',(-0.853731265612,-0.520713862035,0.));
#337 = ORIENTED_EDGE('',*,*,#338,.T.);
#338 = EDGE_CURVE('',#330,#330,#339,.T.);
#339 = CIRCLE('',#340,2.2);
#340 = AXIS2_PLACEMENT_3D('',#341,#342,#343);
#341 = CARTESIAN_POINT('',(-14.22724133595,-4.75,38.8));
#342 = DIRECTION('',(-1.,1.83E-15,0.));
#343 = DIRECTION('',(-1.83E-15,-1.,0.));
#344 = ORIENTED_EDGE('',*,*,#329,.F.);
#345 = ORIENTED_EDGE('',*,*,#287,.F.);
#346 = TOROIDAL_SURFACE('',#347,9.503717381318,2.2);
#347 = AXIS2_PLACEMENT_3D('',#348,#349,#350);
#348 = CARTESIAN_POINT('',(-14.22724133595,4.753717381318,38.8));
#349 = DIRECTION('',(0.,0.,1.));
#350 = DIRECTION('',(-0.853731265612,-0.520713862035,0.));
#351 = ADVANCED_FACE('',(#352),#372,.F.);
#352 = FACE_BOUND('',#353,.F.);
#353 = EDGE_LOOP('',(#354,#363,#370,#371));
#354 = ORIENTED_EDGE('',*,*,#355,.T.);
#355 = EDGE_CURVE('',#305,#356,#358,.T.);
#356 = VERTEX_POINT('',#357);
#357 = CARTESIAN_POINT('',(-22.34086200392,-0.195,37.6));
#358 = CIRCLE('',#359,9.503717381318);
#359 = AXIS2_PLACEMENT_3D('',#360,#361,#362);
#360 = CARTESIAN_POINT('',(-30.4544826719,-5.143717381318,37.6));
#361 = DIRECTION('',(0.,0.,-1.));
#362 = DIRECTION('',(0.,1.,0.));
#363 = ORIENTED_EDGE('',*,*,#364,.T.);
#364 = EDGE_CURVE('',#356,#356,#365,.T.);
#365 = CIRCLE('',#366,1.2);
#366 = AXIS2_PLACEMENT_3D('',#367,#368,#369);
#367 = CARTESIAN_POINT('',(-22.34086200392,-0.195,38.8));
#368 = DIRECTION('',(-0.520713862035,0.853731265612,0.));
#369 = DIRECTION('',(0.853731265612,0.520713862035,0.));
#370 = ORIENTED_EDGE('',*,*,#355,.F.);
#371 = ORIENTED_EDGE('',*,*,#312,.T.);
#372 = TOROIDAL_SURFACE('',#373,9.503717381318,1.2);
#373 = AXIS2_PLACEMENT_3D('',#374,#375,#376);
#374 = CARTESIAN_POINT('',(-30.4544826719,-5.143717381318,38.8));
#375 = DIRECTION('',(0.,0.,-1.));
#376 = DIRECTION('',(0.,1.,0.));
#377 = ADVANCED_FACE('',(#378),#398,.T.);
#378 = FACE_BOUND('',#379,.T.);
#379 = EDGE_LOOP('',(#380,#389,#396,#397));
#380 = ORIENTED_EDGE('',*,*,#381,.T.);
#381 = EDGE_CURVE('',#330,#382,#384,.T.);
#382 = VERTEX_POINT('',#383);
#383 = CARTESIAN_POINT('',(-6.218961776966,-4.75,43.037201513184));
#384 = CIRCLE('',#385,8.2);
#385 = AXIS2_PLACEMENT_3D('',#386,#387,#388);
#386 = CARTESIAN_POINT('',(-14.22724133595,-4.75,44.8));
#387 = DIRECTION('',(0.,-1.,0.));
#388 = DIRECTION('',(5.9E-16,0.,-1.));
#389 = ORIENTED_EDGE('',*,*,#390,.T.);
#390 = EDGE_CURVE('',#382,#382,#391,.T.);
#391 = CIRCLE('',#392,2.2);
#392 = AXIS2_PLACEMENT_3D('',#393,#394,#395);
#393 = CARTESIAN_POINT('',(-8.367524585474,-4.75,43.510147448671));
#394 = DIRECTION('',(-0.214975425221,-0.,-0.976619458413));
#395 = DIRECTION('',(0.976619458413,0.,-0.214975425221));
#396 = ORIENTED_EDGE('',*,*,#381,.F.);
#397 = ORIENTED_EDGE('',*,*,#338,.F.);
#398 = TOROIDAL_SURFACE('',#399,6.,2.2);
#399 = AXIS2_PLACEMENT_3D('',#400,#401,#402);
#400 = CARTESIAN_POINT('',(-14.22724133595,-4.75,44.8));
#401 = DIRECTION('',(0.,-1.,0.));
#402 = DIRECTION('',(5.9E-16,0.,-1.));
#403 = ADVANCED_FACE('',(#404),#424,.F.);
#404 = FACE_BOUND('',#405,.F.);
#405 = EDGE_LOOP('',(#406,#415,#422,#423));
#406 = ORIENTED_EDGE('',*,*,#407,.T.);
#407 = EDGE_CURVE('',#356,#408,#410,.T.);
#408 = VERTEX_POINT('',#409);
#409 = CARTESIAN_POINT('',(-14.22724133595,-4.75,37.6));
#410 = CIRCLE('',#411,9.503717381318);
#411 = AXIS2_PLACEMENT_3D('',#412,#413,#414);
#412 = CARTESIAN_POINT('',(-14.22724133595,4.753717381318,37.6));
#413 = DIRECTION('',(0.,0.,1.));
#414 = DIRECTION('',(-0.853731265612,-0.520713862035,0.));
#415 = ORIENTED_EDGE('',*,*,#416,.T.);
#416 = EDGE_CURVE('',#408,#408,#417,.T.);
#417 = CIRCLE('',#418,1.2);
#418 = AXIS2_PLACEMENT_3D('',#419,#420,#421);
#419 = CARTESIAN_POINT('',(-14.22724133595,-4.75,38.8));
#420 = DIRECTION('',(-1.,1.83E-15,0.));
#421 = DIRECTION('',(-1.83E-15,-1.,0.));
#422 = ORIENTED_EDGE('',*,*,#407,.F.);
#423 = ORIENTED_EDGE('',*,*,#364,.F.);
#424 = TOROIDAL_SURFACE('',#425,9.503717381318,1.2);
#425 = AXIS2_PLACEMENT_3D('',#426,#427,#428);
#426 = CARTESIAN_POINT('',(-14.22724133595,4.753717381318,38.8));
#427 = DIRECTION('',(0.,0.,1.));
#428 = DIRECTION('',(-0.853731265612,-0.520713862035,0.));
#429 = ADVANCED_FACE('',(#430,#433),#444,.T.);
#430 = FACE_BOUND('',#431,.T.);
#431 = EDGE_LOOP('',(#432));
#432 = ORIENTED_EDGE('',*,*,#390,.F.);
#433 = FACE_BOUND('',#434,.T.);
#434 = EDGE_LOOP('',(#435));
#435 = ORIENTED_EDGE('',*,*,#436,.T.);
#436 = EDGE_CURVE('',#437,#437,#439,.T.);
#437 = VERTEX_POINT('',#438);
#438 = CARTESIAN_POINT('',(-7.195581235379,-4.75,43.252176938405));
#439 = CIRCLE('',#440,1.2);
#440 = AXIS2_PLACEMENT_3D('',#441,#442,#443);
#441 = CARTESIAN_POINT('',(-8.367524585474,-4.75,43.510147448671));
#442 = DIRECTION('',(-0.214975425221,-0.,-0.976619458413));
#443 = DIRECTION('',(0.976619458413,0.,-0.214975425221));
#444 = PLANE('',#445);
#445 = AXIS2_PLACEMENT_3D('',#446,#447,#448);
#446 = CARTESIAN_POINT('',(-8.367524585474,-4.75,43.510147448671));
#447 = DIRECTION('',(0.214975425221,1.1E-16,0.976619458413));
#448 = DIRECTION('',(0.976619458413,3.08148791102E-33,-0.214975425221));
#449 = ADVANCED_FACE('',(#450),#462,.F.);
#450 = FACE_BOUND('',#451,.F.);
#451 = EDGE_LOOP('',(#452,#459,#460,#461));
#452 = ORIENTED_EDGE('',*,*,#453,.T.);
#453 = EDGE_CURVE('',#408,#437,#454,.T.);
#454 = CIRCLE('',#455,7.2);
#455 = AXIS2_PLACEMENT_3D('',#456,#457,#458);
#456 = CARTESIAN_POINT('',(-14.22724133595,-4.75,44.8));
#457 = DIRECTION('',(0.,-1.,0.));
#458 = DIRECTION('',(5.9E-16,0.,-1.));
#459 = ORIENTED_EDGE('',*,*,#436,.T.);
#460 = ORIENTED_EDGE('',*,*,#453,.F.);
#461 = ORIENTED_EDGE('',*,*,#416,.F.);
#462 = TOROIDAL_SURFACE('',#463,6.,1.2);
#463 = AXIS2_PLACEMENT_3D('',#464,#465,#466);
#464 = CARTESIAN_POINT('',(-14.22724133595,-4.75,44.8));
#465 = DIRECTION('',(0.,-1.,0.));
#466 = DIRECTION('',(5.9E-16,0.,-1.));
#467 = ( GEOMETRIC_REPRESENTATION_CONTEXT(3) 
GLOBAL_UNCERTAINTY_ASSIGNED_CONTEXT((#471)) GLOBAL_UNIT_ASSIGNED_CONTEXT
((#468,#469,#470)) REPRESENTATION_CONTEXT('Context #1',
  '3D Context with UNIT and UNCERTAINTY') );
#468 = ( LENGTH_UNIT() NAMED_UNIT(*) SI_UNIT(.MILLI.,.METRE.) );
#469 = ( NAMED_UNIT(*) PLANE_ANGLE_UNIT() SI_UNIT($,.RADIAN.) );
#470 = ( NAMED_UNIT(*) SI_UNIT($,.STERADIAN.) SOLID_ANGLE_UNIT() );
#471 = UNCERTAINTY_MEASURE_WITH_UNIT(LENGTH_MEASURE(1.E-07),#468,
  'distance_accuracy_value','confusion accuracy');
#472 = PRODUCT_RELATED_PRODUCT_CATEGORY('part',$,(#7));
ENDSEC;
END-ISO-10303-21;
