ISO-10303-21;
HEADER;
FILE_DESCRIPTION(('FreeCAD Model'),'2;1');
FILE_NAME('Open CASCADE Shape Model','2026-09-30T05:24:11',('FreeCAD'),(
    'FreeCAD'),'Open CASCADE STEP processor 7.8','FreeCAD','Unknown');
FILE_SCHEMA(('AUTOMOTIVE_DESIGN { 1 0 10303 214 1 1 1 1 }'));
ENDSEC;
DATA;
#1 = APPLICATION_PROTOCOL_DEFINITION('international standard',
  'automotive_design',2000,#2);
#2 = APPLICATION_CONTEXT(
  'core data for automotive mechanical design processes');
#3 = SHAPE_DEFINITION_REPRESENTATION(#4,#10);
#4 = PRODUCT_DEFINITION_SHAPE('','',#5);
#5 = PRODUCT_DEFINITION('design','',#6,#9);
#6 = PRODUCT_DEFINITION_FORMATION('','',#7);
#7 = PRODUCT('Open CASCADE STEP translator 7.8 41',
  'Open CASCADE STEP translator 7.8 41','',(#8));
#8 = PRODUCT_CONTEXT('',#2,'mechanical');
#9 = PRODUCT_DEFINITION_CONTEXT('part definition',#2,'design');
#10 = ADVANCED_BREP_SHAPE_REPRESENTATION('',(#11,#15),#327);
#11 = AXIS2_PLACEMENT_3D('',#12,#13,#14);
#12 = CARTESIAN_POINT('',(0.,0.,0.));
#13 = DIRECTION('',(0.,0.,1.));
#14 = DIRECTION('',(1.,0.,-0.));
#15 = MANIFOLD_SOLID_BREP('',#16);
#16 = CLOSED_SHELL('',(#17,#51,#77,#103,#128,#154,#180,#205,#231,#257,
    #283,#309,#318));
#17 = ADVANCED_FACE('',(#18),#46,.T.);
#18 = FACE_BOUND('',#19,.T.);
#19 = EDGE_LOOP('',(#20,#31,#38,#39));
#20 = ORIENTED_EDGE('',*,*,#21,.T.);
#21 = EDGE_CURVE('',#22,#24,#26,.T.);
#22 = VERTEX_POINT('',#23);
#23 = CARTESIAN_POINT('',(9.227241335952,-3.75,5.7));
#24 = VERTEX_POINT('',#25);
#25 = CARTESIAN_POINT('',(2.227241335952,-10.75,5.7));
#26 = CIRCLE('',#27,7.);
#27 = AXIS2_PLACEMENT_3D('',#28,#29,#30);
#28 = CARTESIAN_POINT('',(2.227241335952,-3.75,5.7));
#29 = DIRECTION('',(0.,0.,-1.));
#30 = DIRECTION('',(1.,7.E-17,0.));
#31 = ORIENTED_EDGE('',*,*,#32,.T.);
#32 = EDGE_CURVE('',#24,#24,#33,.T.);
#33 = CIRCLE('',#34,1.);
#34 = AXIS2_PLACEMENT_3D('',#35,#36,#37);
#35 = CARTESIAN_POINT('',(2.227241335952,-9.75,5.7));
#36 = DIRECTION('',(1.,-9.E-17,0.));
#37 = DIRECTION('',(-9.E-17,-1.,0.));
#38 = ORIENTED_EDGE('',*,*,#21,.F.);
#39 = ORIENTED_EDGE('',*,*,#40,.F.);
#40 = EDGE_CURVE('',#22,#22,#41,.T.);
#41 = CIRCLE('',#42,1.);
#42 = AXIS2_PLACEMENT_3D('',#43,#44,#45);
#43 = CARTESIAN_POINT('',(8.227241335952,-3.75,5.7));
#44 = DIRECTION('',(-7.E-17,1.,0.));
#45 = DIRECTION('',(1.,7.E-17,0.));
#46 = TOROIDAL_SURFACE('',#47,6.,1.);
#47 = AXIS2_PLACEMENT_3D('',#48,#49,#50);
#48 = CARTESIAN_POINT('',(2.227241335952,-3.75,5.7));
#49 = DIRECTION('',(0.,0.,-1.));
#50 = DIRECTION('',(1.,7.E-17,0.));
#51 = ADVANCED_FACE('',(#52),#72,.T.);
#52 = FACE_BOUND('',#53,.T.);
#53 = EDGE_LOOP('',(#54,#63,#70,#71));
#54 = ORIENTED_EDGE('',*,*,#55,.T.);
#55 = EDGE_CURVE('',#24,#56,#58,.T.);
#56 = VERTEX_POINT('',#57);
#57 = CARTESIAN_POINT('',(-7.994946598009,-9.600003857429,5.7));
#58 = CIRCLE('',#59,46.006944444444);
#59 = AXIS2_PLACEMENT_3D('',#60,#61,#62);
#60 = CARTESIAN_POINT('',(2.227241335952,35.256944444444,5.7));
#61 = DIRECTION('',(0.,-0.,-1.));
#62 = DIRECTION('',(5.E-17,-1.,0.));
#63 = ORIENTED_EDGE('',*,*,#64,.T.);
#64 = EDGE_CURVE('',#56,#56,#65,.T.);
#65 = CIRCLE('',#66,1.);
#66 = AXIS2_PLACEMENT_3D('',#67,#68,#69);
#67 = CARTESIAN_POINT('',(-7.772758664048,-8.625,5.7));
#68 = DIRECTION('',(0.975003857429,-0.222187933961,0.));
#69 = DIRECTION('',(-0.222187933961,-0.975003857429,0.));
#70 = ORIENTED_EDGE('',*,*,#55,.F.);
#71 = ORIENTED_EDGE('',*,*,#32,.F.);
#72 = TOROIDAL_SURFACE('',#73,45.006944444444,1.);
#73 = AXIS2_PLACEMENT_3D('',#74,#75,#76);
#74 = CARTESIAN_POINT('',(2.227241335952,35.256944444444,5.7));
#75 = DIRECTION('',(-0.,-0.,-1.));
#76 = DIRECTION('',(5.E-17,-1.,0.));
#77 = ADVANCED_FACE('',(#78),#98,.T.);
#78 = FACE_BOUND('',#79,.T.);
#79 = EDGE_LOOP('',(#80,#89,#96,#97));
#80 = ORIENTED_EDGE('',*,*,#81,.T.);
#81 = EDGE_CURVE('',#56,#82,#84,.T.);
#82 = VERTEX_POINT('',#83);
#83 = CARTESIAN_POINT('',(-17.77275866404,-8.5,5.7));
#84 = CIRCLE('',#85,44.006944444445);
#85 = AXIS2_PLACEMENT_3D('',#86,#87,#88);
#86 = CARTESIAN_POINT('',(-17.77275866404,-52.50694444444,5.7));
#87 = DIRECTION('',(0.,-0.,1.));
#88 = DIRECTION('',(0.222187933961,0.975003857429,0.));
#89 = ORIENTED_EDGE('',*,*,#90,.T.);
#90 = EDGE_CURVE('',#82,#82,#91,.T.);
#91 = CIRCLE('',#92,1.);
#92 = AXIS2_PLACEMENT_3D('',#93,#94,#95);
#93 = CARTESIAN_POINT('',(-17.77275866404,-7.5,5.7));
#94 = DIRECTION('',(1.,6.E-17,-0.));
#95 = DIRECTION('',(-6.E-17,1.,0.));
#96 = ORIENTED_EDGE('',*,*,#81,.F.);
#97 = ORIENTED_EDGE('',*,*,#64,.F.);
#98 = TOROIDAL_SURFACE('',#99,45.006944444445,1.);
#99 = AXIS2_PLACEMENT_3D('',#100,#101,#102);
#100 = CARTESIAN_POINT('',(-17.77275866404,-52.50694444444,5.7));
#101 = DIRECTION('',(0.,0.,1.));
#102 = DIRECTION('',(0.222187933961,0.975003857429,0.));
#103 = ADVANCED_FACE('',(#104),#123,.T.);
#104 = FACE_BOUND('',#105,.T.);
#105 = EDGE_LOOP('',(#106,#114,#121,#122));
#106 = ORIENTED_EDGE('',*,*,#107,.T.);
#107 = EDGE_CURVE('',#82,#108,#110,.T.);
#108 = VERTEX_POINT('',#109);
#109 = CARTESIAN_POINT('',(-37.,-8.5,5.7));
#110 = LINE('',#111,#112);
#111 = CARTESIAN_POINT('',(-17.77275866404,-8.5,5.7));
#112 = VECTOR('',#113,1.);
#113 = DIRECTION('',(-1.,0.,0.));
#114 = ORIENTED_EDGE('',*,*,#115,.F.);
#115 = EDGE_CURVE('',#108,#108,#116,.T.);
#116 = CIRCLE('',#117,1.);
#117 = AXIS2_PLACEMENT_3D('',#118,#119,#120);
#118 = CARTESIAN_POINT('',(-37.,-7.5,5.7));
#119 = DIRECTION('',(-1.,0.,0.));
#120 = DIRECTION('',(0.,-1.,0.));
#121 = ORIENTED_EDGE('',*,*,#107,.F.);
#122 = ORIENTED_EDGE('',*,*,#90,.F.);
#123 = CYLINDRICAL_SURFACE('',#124,1.);
#124 = AXIS2_PLACEMENT_3D('',#125,#126,#127);
#125 = CARTESIAN_POINT('',(-17.77275866404,-7.5,5.7));
#126 = DIRECTION('',(-1.,0.,0.));
#127 = DIRECTION('',(0.,-1.,0.));
#128 = ADVANCED_FACE('',(#129),#149,.T.);
#129 = FACE_BOUND('',#130,.T.);
#130 = EDGE_LOOP('',(#131,#140,#147,#148));
#131 = ORIENTED_EDGE('',*,*,#132,.T.);
#132 = EDGE_CURVE('',#108,#133,#135,.T.);
#133 = VERTEX_POINT('',#134);
#134 = CARTESIAN_POINT('',(-42.,-13.5,5.7));
#135 = CIRCLE('',#136,5.);
#136 = AXIS2_PLACEMENT_3D('',#137,#138,#139);
#137 = CARTESIAN_POINT('',(-37.,-13.5,5.7));
#138 = DIRECTION('',(0.,-0.,1.));
#139 = DIRECTION('',(0.,1.,0.));
#140 = ORIENTED_EDGE('',*,*,#141,.T.);
#141 = EDGE_CURVE('',#133,#133,#142,.T.);
#142 = CIRCLE('',#143,1.);
#143 = AXIS2_PLACEMENT_3D('',#144,#145,#146);
#144 = CARTESIAN_POINT('',(-43.,-13.5,5.7));
#145 = DIRECTION('',(1.17E-15,1.,-0.));
#146 = DIRECTION('',(-1.,1.17E-15,0.));
#147 = ORIENTED_EDGE('',*,*,#132,.F.);
#148 = ORIENTED_EDGE('',*,*,#115,.T.);
#149 = TOROIDAL_SURFACE('',#150,6.,1.);
#150 = AXIS2_PLACEMENT_3D('',#151,#152,#153);
#151 = CARTESIAN_POINT('',(-37.,-13.5,5.7));
#152 = DIRECTION('',(0.,0.,1.));
#153 = DIRECTION('',(0.,1.,0.));
#154 = ADVANCED_FACE('',(#155),#175,.T.);
#155 = FACE_BOUND('',#156,.T.);
#156 = EDGE_LOOP('',(#157,#166,#173,#174));
#157 = ORIENTED_EDGE('',*,*,#158,.T.);
#158 = EDGE_CURVE('',#133,#159,#161,.T.);
#159 = VERTEX_POINT('',#160);
#160 = CARTESIAN_POINT('',(-42.,-19.5,11.7));
#161 = CIRCLE('',#162,6.);
#162 = AXIS2_PLACEMENT_3D('',#163,#164,#165);
#163 = CARTESIAN_POINT('',(-42.,-13.5,11.7));
#164 = DIRECTION('',(-1.,-0.,0.));
#165 = DIRECTION('',(0.,-3.E-16,-1.));
#166 = ORIENTED_EDGE('',*,*,#167,.T.);
#167 = EDGE_CURVE('',#159,#159,#168,.T.);
#168 = CIRCLE('',#169,1.);
#169 = AXIS2_PLACEMENT_3D('',#170,#171,#172);
#170 = CARTESIAN_POINT('',(-43.,-19.5,11.7));
#171 = DIRECTION('',(-0.,-2.3E-16,-1.));
#172 = DIRECTION('',(0.,-1.,2.3E-16));
#173 = ORIENTED_EDGE('',*,*,#158,.F.);
#174 = ORIENTED_EDGE('',*,*,#141,.F.);
#175 = TOROIDAL_SURFACE('',#176,6.,1.);
#176 = AXIS2_PLACEMENT_3D('',#177,#178,#179);
#177 = CARTESIAN_POINT('',(-43.,-13.5,11.7));
#178 = DIRECTION('',(-1.,0.,0.));
#179 = DIRECTION('',(0.,-3.E-16,-1.));
#180 = ADVANCED_FACE('',(#181),#200,.T.);
#181 = FACE_BOUND('',#182,.T.);
#182 = EDGE_LOOP('',(#183,#191,#198,#199));
#183 = ORIENTED_EDGE('',*,*,#184,.T.);
#184 = EDGE_CURVE('',#159,#185,#187,.T.);
#185 = VERTEX_POINT('',#186);
#186 = CARTESIAN_POINT('',(-42.,-19.5,19.663732951628));
#187 = LINE('',#188,#189);
#188 = CARTESIAN_POINT('',(-42.,-19.5,11.7));
#189 = VECTOR('',#190,1.);
#190 = DIRECTION('',(0.,0.,1.));
#191 = ORIENTED_EDGE('',*,*,#192,.F.);
#192 = EDGE_CURVE('',#185,#185,#193,.T.);
#193 = CIRCLE('',#194,1.);
#194 = AXIS2_PLACEMENT_3D('',#195,#196,#197);
#195 = CARTESIAN_POINT('',(-43.,-19.5,19.663732951628));
#196 = DIRECTION('',(0.,0.,1.));
#197 = DIRECTION('',(1.,0.,0.));
#198 = ORIENTED_EDGE('',*,*,#184,.F.);
#199 = ORIENTED_EDGE('',*,*,#167,.F.);
#200 = CYLINDRICAL_SURFACE('',#201,1.);
#201 = AXIS2_PLACEMENT_3D('',#202,#203,#204);
#202 = CARTESIAN_POINT('',(-43.,-19.5,11.7));
#203 = DIRECTION('',(0.,0.,1.));
#204 = DIRECTION('',(1.,0.,0.));
#205 = ADVANCED_FACE('',(#206),#226,.T.);
#206 = FACE_BOUND('',#207,.T.);
#207 = EDGE_LOOP('',(#208,#217,#224,#225));
#208 = ORIENTED_EDGE('',*,*,#209,.T.);
#209 = EDGE_CURVE('',#185,#210,#212,.T.);
#210 = VERTEX_POINT('',#211);
#211 = CARTESIAN_POINT('',(-42.,-15.375,25.363239509217));
#212 = CIRCLE('',#213,6.);
#213 = AXIS2_PLACEMENT_3D('',#214,#215,#216);
#214 = CARTESIAN_POINT('',(-42.,-13.5,19.663732951628));
#215 = DIRECTION('',(-1.,0.,0.));
#216 = DIRECTION('',(0.,-1.,1.78E-15));
#217 = ORIENTED_EDGE('',*,*,#218,.T.);
#218 = EDGE_CURVE('',#210,#210,#219,.T.);
#219 = CIRCLE('',#220,1.);
#220 = AXIS2_PLACEMENT_3D('',#221,#222,#223);
#221 = CARTESIAN_POINT('',(-43.,-15.375,25.363239509217));
#222 = DIRECTION('',(-0.,-0.949917759598,-0.3125));
#223 = DIRECTION('',(0.,-0.3125,0.949917759598));
#224 = ORIENTED_EDGE('',*,*,#209,.F.);
#225 = ORIENTED_EDGE('',*,*,#192,.T.);
#226 = TOROIDAL_SURFACE('',#227,6.,1.);
#227 = AXIS2_PLACEMENT_3D('',#228,#229,#230);
#228 = CARTESIAN_POINT('',(-43.,-13.5,19.663732951628));
#229 = DIRECTION('',(-1.,0.,0.));
#230 = DIRECTION('',(0.,-1.,1.78E-15));
#231 = ADVANCED_FACE('',(#232),#252,.T.);
#232 = FACE_BOUND('',#233,.T.);
#233 = EDGE_LOOP('',(#234,#243,#250,#251));
#234 = ORIENTED_EDGE('',*,*,#235,.T.);
#235 = EDGE_CURVE('',#210,#236,#238,.T.);
#236 = VERTEX_POINT('',#237);
#237 = CARTESIAN_POINT('',(-42.,-11.25,31.062746066806));
#238 = CIRCLE('',#239,6.);
#239 = AXIS2_PLACEMENT_3D('',#240,#241,#242);
#240 = CARTESIAN_POINT('',(-42.,-17.25,31.062746066806));
#241 = DIRECTION('',(1.,-0.,0.));
#242 = DIRECTION('',(0.,0.3125,-0.949917759598));
#243 = ORIENTED_EDGE('',*,*,#244,.T.);
#244 = EDGE_CURVE('',#236,#236,#245,.T.);
#245 = CIRCLE('',#246,1.);
#246 = AXIS2_PLACEMENT_3D('',#247,#248,#249);
#247 = CARTESIAN_POINT('',(-43.,-11.25,31.062746066806));
#248 = DIRECTION('',(0.,-2.2E-16,-1.));
#249 = DIRECTION('',(0.,1.,-2.2E-16));
#250 = ORIENTED_EDGE('',*,*,#235,.F.);
#251 = ORIENTED_EDGE('',*,*,#218,.F.);
#252 = TOROIDAL_SURFACE('',#253,6.,1.);
#253 = AXIS2_PLACEMENT_3D('',#254,#255,#256);
#254 = CARTESIAN_POINT('',(-43.,-17.25,31.062746066806));
#255 = DIRECTION('',(1.,0.,0.));
#256 = DIRECTION('',(0.,0.3125,-0.949917759598));
#257 = ADVANCED_FACE('',(#258),#278,.T.);
#258 = FACE_BOUND('',#259,.T.);
#259 = EDGE_LOOP('',(#260,#269,#276,#277));
#260 = ORIENTED_EDGE('',*,*,#261,.T.);
#261 = EDGE_CURVE('',#236,#262,#264,.T.);
#262 = VERTEX_POINT('',#263);
#263 = CARTESIAN_POINT('',(-40.75,-11.25,34.369935205637));
#264 = CIRCLE('',#265,5.);
#265 = AXIS2_PLACEMENT_3D('',#266,#267,#268);
#266 = CARTESIAN_POINT('',(-37.,-11.25,31.062746066806));
#267 = DIRECTION('',(0.,1.,0.));
#268 = DIRECTION('',(-1.,0.,-5.9E-16));
#269 = ORIENTED_EDGE('',*,*,#270,.T.);
#270 = EDGE_CURVE('',#262,#262,#271,.T.);
#271 = CIRCLE('',#272,1.);
#272 = AXIS2_PLACEMENT_3D('',#273,#274,#275);
#273 = CARTESIAN_POINT('',(-41.5,-11.25,35.031373033403));
#274 = DIRECTION('',(-0.661437827766,0.,-0.75));
#275 = DIRECTION('',(-0.75,0.,0.661437827766));
#276 = ORIENTED_EDGE('',*,*,#261,.F.);
#277 = ORIENTED_EDGE('',*,*,#244,.F.);
#278 = TOROIDAL_SURFACE('',#279,6.,1.);
#279 = AXIS2_PLACEMENT_3D('',#280,#281,#282);
#280 = CARTESIAN_POINT('',(-37.,-11.25,31.062746066806));
#281 = DIRECTION('',(0.,1.,0.));
#282 = DIRECTION('',(-1.,0.,-5.9E-16));
#283 = ADVANCED_FACE('',(#284),#304,.T.);
#284 = FACE_BOUND('',#285,.T.);
#285 = EDGE_LOOP('',(#286,#295,#302,#303));
#286 = ORIENTED_EDGE('',*,*,#287,.T.);
#287 = EDGE_CURVE('',#262,#288,#290,.T.);
#288 = VERTEX_POINT('',#289);
#289 = CARTESIAN_POINT('',(-39.,-11.25,39.));
#290 = CIRCLE('',#291,7.);
#291 = AXIS2_PLACEMENT_3D('',#292,#293,#294);
#292 = CARTESIAN_POINT('',(-46.,-11.25,39.));
#293 = DIRECTION('',(0.,-1.,0.));
#294 = DIRECTION('',(0.75,0.,-0.661437827766));
#295 = ORIENTED_EDGE('',*,*,#296,.T.);
#296 = EDGE_CURVE('',#288,#288,#297,.T.);
#297 = CIRCLE('',#298,1.);
#298 = AXIS2_PLACEMENT_3D('',#299,#300,#301);
#299 = CARTESIAN_POINT('',(-40.,-11.25,39.));
#300 = DIRECTION('',(1.11E-15,0.,-1.));
#301 = DIRECTION('',(1.,0.,1.11E-15));
#302 = ORIENTED_EDGE('',*,*,#287,.F.);
#303 = ORIENTED_EDGE('',*,*,#270,.F.);
#304 = TOROIDAL_SURFACE('',#305,6.,1.);
#305 = AXIS2_PLACEMENT_3D('',#306,#307,#308);
#306 = CARTESIAN_POINT('',(-46.,-11.25,39.));
#307 = DIRECTION('',(0.,-1.,0.));
#308 = DIRECTION('',(0.75,0.,-0.661437827766));
#309 = ADVANCED_FACE('',(#310),#313,.F.);
#310 = FACE_BOUND('',#311,.F.);
#311 = EDGE_LOOP('',(#312));
#312 = ORIENTED_EDGE('',*,*,#40,.F.);
#313 = PLANE('',#314);
#314 = AXIS2_PLACEMENT_3D('',#315,#316,#317);
#315 = CARTESIAN_POINT('',(8.227241335952,-3.75,5.7));
#316 = DIRECTION('',(-0.,-1.,-0.));
#317 = DIRECTION('',(0.,0.,-1.));
#318 = ADVANCED_FACE('',(#319),#322,.T.);
#319 = FACE_BOUND('',#320,.T.);
#320 = EDGE_LOOP('',(#321));
#321 = ORIENTED_EDGE('',*,*,#296,.F.);
#322 = PLANE('',#323);
#323 = AXIS2_PLACEMENT_3D('',#324,#325,#326);
#324 = CARTESIAN_POINT('',(-40.,-11.25,39.));
#325 = DIRECTION('',(0.,0.,1.));
#326 = DIRECTION('',(1.,0.,0.));
#327 = ( GEOMETRIC_REPRESENTATION_CONTEXT(3) 
GLOBAL_UNCERTAINTY_ASSIGNED_CONTEXT((#331)) GLOBAL_UNIT_ASSIGNED_CONTEXT
((#328,#329,#330)) REPRESENTATION_CONTEXT('Context #1',
  '3D Context with UNIT and UNCERTAINTY') );
#328 = ( LENGTH_UNIT() NAMED_UNIT(*) SI_UNIT(.MILLI.,.METRE.) );
#329 = ( NAMED_UNIT(*) PLANE_ANGLE_UNIT() SI_UNIT($,.RADIAN.) );
#330 = ( NAMED_UNIT(*) SI_UNIT($,.STERADIAN.) SOLID_ANGLE_UNIT() );
#331 = UNCERTAINTY_MEASURE_WITH_UNIT(LENGTH_MEASURE(1.E-07),#328,
  'distance_accuracy_value','confusion accuracy');
#332 = PRODUCT_RELATED_PRODUCT_CATEGORY('part',$,(#7));
ENDSEC;
END-ISO-10303-21;
