ISO-10303-21;
HEADER;
FILE_DESCRIPTION(('FreeCAD Model'),'2;1');
FILE_NAME('Open CASCADE Shape Model','2026-09-30T05:24:17',('FreeCAD'),(
    'FreeCAD'),'Open CASCADE STEP processor 7.8','FreeCAD','Unknown');
FILE_SCHEMA(('AUTOMOTIVE_DESIGN { 1 0 10303 214 1 1 1 1 }'));
ENDSEC;
DATA;
#1 = APPLICATION_PROTOCOL_DEFINITION('international standard',
  'automotive_design',2000,#2);
#2 = APPLICATION_CONTEXT(
  'core data for automotive mechanical design processes');
#3 = SHAPE_DEFINITION_REPRESENTATION(#4,#10);
#4 = PRODUCT_DEFINITION_SHAPE('','',#5);
#5 = PRODUCT_DEFINITION('design','',#6,#9);
#6 = PRODUCT_DEFINITION_FORMATION('','',#7);
#7 = PRODUCT('Open CASCADE STEP translator 7.8 46',
  'Open CASCADE STEP translator 7.8 46','',(#8));
#8 = PRODUCT_CONTEXT('',#2,'mechanical');
#9 = PRODUCT_DEFINITION_CONTEXT('part definition',#2,'design');
#10 = ADVANCED_BREP_SHAPE_REPRESENTATION('',(#11,#15),#313);
#11 = AXIS2_PLACEMENT_3D('',#12,#13,#14);
#12 = CARTESIAN_POINT('',(0.,0.,0.));
#13 = DIRECTION('',(0.,0.,1.));
#14 = DIRECTION('',(1.,0.,-0.));
#15 = MANIFOLD_SOLID_BREP('',#16);
#16 = CLOSED_SHELL('',(#17,#51,#71,#97,#123,#148,#174,#200,#225,#250,
    #276,#296));
#17 = ADVANCED_FACE('',(#18),#46,.T.);
#18 = FACE_BOUND('',#19,.T.);
#19 = EDGE_LOOP('',(#20,#31,#38,#39));
#20 = ORIENTED_EDGE('',*,*,#21,.T.);
#21 = EDGE_CURVE('',#22,#24,#26,.T.);
#22 = VERTEX_POINT('',#23);
#23 = CARTESIAN_POINT('',(-37.8,19.903413578933,40.443316729045));
#24 = VERTEX_POINT('',#25);
#25 = CARTESIAN_POINT('',(-37.8,22.,45.));
#26 = CIRCLE('',#27,6.);
#27 = AXIS2_PLACEMENT_3D('',#28,#29,#30);
#28 = CARTESIAN_POINT('',(-37.8,16.,45.));
#29 = DIRECTION('',(1.,-0.,0.));
#30 = DIRECTION('',(0.,5.9E-16,-1.));
#31 = ORIENTED_EDGE('',*,*,#32,.T.);
#32 = EDGE_CURVE('',#24,#24,#33,.T.);
#33 = CIRCLE('',#34,2.2);
#34 = AXIS2_PLACEMENT_3D('',#35,#36,#37);
#35 = CARTESIAN_POINT('',(-40.,22.,45.));
#36 = DIRECTION('',(0.,9.E-17,-1.));
#37 = DIRECTION('',(0.,1.,9.E-17));
#38 = ORIENTED_EDGE('',*,*,#21,.F.);
#39 = ORIENTED_EDGE('',*,*,#40,.F.);
#40 = EDGE_CURVE('',#22,#22,#41,.T.);
#41 = CIRCLE('',#42,2.2);
#42 = AXIS2_PLACEMENT_3D('',#43,#44,#45);
#43 = CARTESIAN_POINT('',(-40.,19.903413578933,40.443316729045));
#44 = DIRECTION('',(0.,-0.759447211826,-0.650568929822));
#45 = DIRECTION('',(0.,0.650568929822,-0.759447211826));
#46 = TOROIDAL_SURFACE('',#47,6.,2.2);
#47 = AXIS2_PLACEMENT_3D('',#48,#49,#50);
#48 = CARTESIAN_POINT('',(-40.,16.,45.));
#49 = DIRECTION('',(1.,0.,0.));
#50 = DIRECTION('',(0.,5.9E-16,-1.));
#51 = ADVANCED_FACE('',(#52,#55),#66,.F.);
#52 = FACE_BOUND('',#53,.F.);
#53 = EDGE_LOOP('',(#54));
#54 = ORIENTED_EDGE('',*,*,#40,.F.);
#55 = FACE_BOUND('',#56,.F.);
#56 = EDGE_LOOP('',(#57));
#57 = ORIENTED_EDGE('',*,*,#58,.T.);
#58 = EDGE_CURVE('',#59,#59,#61,.T.);
#59 = VERTEX_POINT('',#60);
#60 = CARTESIAN_POINT('',(-38.8,19.903413578933,40.443316729045));
#61 = CIRCLE('',#62,1.2);
#62 = AXIS2_PLACEMENT_3D('',#63,#64,#65);
#63 = CARTESIAN_POINT('',(-40.,19.903413578933,40.443316729045));
#64 = DIRECTION('',(0.,-0.759447211826,-0.650568929822));
#65 = DIRECTION('',(0.,0.650568929822,-0.759447211826));
#66 = PLANE('',#67);
#67 = AXIS2_PLACEMENT_3D('',#68,#69,#70);
#68 = CARTESIAN_POINT('',(-40.,19.903413578933,40.443316729045));
#69 = DIRECTION('',(0.,0.759447211826,0.650568929822));
#70 = DIRECTION('',(0.,-0.650568929822,0.759447211826));
#71 = ADVANCED_FACE('',(#72),#92,.T.);
#72 = FACE_BOUND('',#73,.T.);
#73 = EDGE_LOOP('',(#74,#83,#90,#91));
#74 = ORIENTED_EDGE('',*,*,#75,.T.);
#75 = EDGE_CURVE('',#24,#76,#78,.T.);
#76 = VERTEX_POINT('',#77);
#77 = CARTESIAN_POINT('',(-34.,22.,48.8));
#78 = CIRCLE('',#79,3.8);
#79 = AXIS2_PLACEMENT_3D('',#80,#81,#82);
#80 = CARTESIAN_POINT('',(-34.,22.,45.));
#81 = DIRECTION('',(0.,1.,-0.));
#82 = DIRECTION('',(-1.,0.,0.));
#83 = ORIENTED_EDGE('',*,*,#84,.T.);
#84 = EDGE_CURVE('',#76,#76,#85,.T.);
#85 = CIRCLE('',#86,2.2);
#86 = AXIS2_PLACEMENT_3D('',#87,#88,#89);
#87 = CARTESIAN_POINT('',(-34.,22.,51.));
#88 = DIRECTION('',(-1.,0.,1.6E-16));
#89 = DIRECTION('',(1.6E-16,0.,1.));
#90 = ORIENTED_EDGE('',*,*,#75,.F.);
#91 = ORIENTED_EDGE('',*,*,#32,.F.);
#92 = TOROIDAL_SURFACE('',#93,6.,2.2);
#93 = AXIS2_PLACEMENT_3D('',#94,#95,#96);
#94 = CARTESIAN_POINT('',(-34.,22.,45.));
#95 = DIRECTION('',(0.,1.,0.));
#96 = DIRECTION('',(-1.,0.,0.));
#97 = ADVANCED_FACE('',(#98),#118,.F.);
#98 = FACE_BOUND('',#99,.F.);
#99 = EDGE_LOOP('',(#100,#109,#116,#117));
#100 = ORIENTED_EDGE('',*,*,#101,.T.);
#101 = EDGE_CURVE('',#59,#102,#104,.T.);
#102 = VERTEX_POINT('',#103);
#103 = CARTESIAN_POINT('',(-38.8,22.,45.));
#104 = CIRCLE('',#105,6.);
#105 = AXIS2_PLACEMENT_3D('',#106,#107,#108);
#106 = CARTESIAN_POINT('',(-38.8,16.,45.));
#107 = DIRECTION('',(1.,-0.,0.));
#108 = DIRECTION('',(0.,5.9E-16,-1.));
#109 = ORIENTED_EDGE('',*,*,#110,.T.);
#110 = EDGE_CURVE('',#102,#102,#111,.T.);
#111 = CIRCLE('',#112,1.2);
#112 = AXIS2_PLACEMENT_3D('',#113,#114,#115);
#113 = CARTESIAN_POINT('',(-40.,22.,45.));
#114 = DIRECTION('',(0.,9.E-17,-1.));
#115 = DIRECTION('',(0.,1.,9.E-17));
#116 = ORIENTED_EDGE('',*,*,#101,.F.);
#117 = ORIENTED_EDGE('',*,*,#58,.F.);
#118 = TOROIDAL_SURFACE('',#119,6.,1.2);
#119 = AXIS2_PLACEMENT_3D('',#120,#121,#122);
#120 = CARTESIAN_POINT('',(-40.,16.,45.));
#121 = DIRECTION('',(1.,0.,0.));
#122 = DIRECTION('',(0.,5.9E-16,-1.));
#123 = ADVANCED_FACE('',(#124),#143,.T.);
#124 = FACE_BOUND('',#125,.T.);
#125 = EDGE_LOOP('',(#126,#134,#141,#142));
#126 = ORIENTED_EDGE('',*,*,#127,.T.);
#127 = EDGE_CURVE('',#76,#128,#130,.T.);
#128 = VERTEX_POINT('',#129);
#129 = CARTESIAN_POINT('',(10.227241335952,22.,48.8));
#130 = LINE('',#131,#132);
#131 = CARTESIAN_POINT('',(-34.,22.,48.8));
#132 = VECTOR('',#133,1.);
#133 = DIRECTION('',(1.,0.,0.));
#134 = ORIENTED_EDGE('',*,*,#135,.F.);
#135 = EDGE_CURVE('',#128,#128,#136,.T.);
#136 = CIRCLE('',#137,2.2);
#137 = AXIS2_PLACEMENT_3D('',#138,#139,#140);
#138 = CARTESIAN_POINT('',(10.227241335952,22.,51.));
#139 = DIRECTION('',(1.,-0.,0.));
#140 = DIRECTION('',(0.,0.,-1.));
#141 = ORIENTED_EDGE('',*,*,#127,.F.);
#142 = ORIENTED_EDGE('',*,*,#84,.F.);
#143 = CYLINDRICAL_SURFACE('',#144,2.2);
#144 = AXIS2_PLACEMENT_3D('',#145,#146,#147);
#145 = CARTESIAN_POINT('',(-34.,22.,51.));
#146 = DIRECTION('',(1.,0.,0.));
#147 = DIRECTION('',(0.,0.,-1.));
#148 = ADVANCED_FACE('',(#149),#169,.F.);
#149 = FACE_BOUND('',#150,.F.);
#150 = EDGE_LOOP('',(#151,#160,#167,#168));
#151 = ORIENTED_EDGE('',*,*,#152,.T.);
#152 = EDGE_CURVE('',#102,#153,#155,.T.);
#153 = VERTEX_POINT('',#154);
#154 = CARTESIAN_POINT('',(-34.,22.,49.8));
#155 = CIRCLE('',#156,4.8);
#156 = AXIS2_PLACEMENT_3D('',#157,#158,#159);
#157 = CARTESIAN_POINT('',(-34.,22.,45.));
#158 = DIRECTION('',(0.,1.,-0.));
#159 = DIRECTION('',(-1.,0.,0.));
#160 = ORIENTED_EDGE('',*,*,#161,.T.);
#161 = EDGE_CURVE('',#153,#153,#162,.T.);
#162 = CIRCLE('',#163,1.2);
#163 = AXIS2_PLACEMENT_3D('',#164,#165,#166);
#164 = CARTESIAN_POINT('',(-34.,22.,51.));
#165 = DIRECTION('',(-1.,0.,1.6E-16));
#166 = DIRECTION('',(1.6E-16,0.,1.));
#167 = ORIENTED_EDGE('',*,*,#152,.F.);
#168 = ORIENTED_EDGE('',*,*,#110,.F.);
#169 = TOROIDAL_SURFACE('',#170,6.,1.2);
#170 = AXIS2_PLACEMENT_3D('',#171,#172,#173);
#171 = CARTESIAN_POINT('',(-34.,22.,45.));
#172 = DIRECTION('',(0.,1.,0.));
#173 = DIRECTION('',(-1.,0.,0.));
#174 = ADVANCED_FACE('',(#175),#195,.T.);
#175 = FACE_BOUND('',#176,.T.);
#176 = EDGE_LOOP('',(#177,#186,#193,#194));
#177 = ORIENTED_EDGE('',*,*,#178,.T.);
#178 = EDGE_CURVE('',#128,#179,#181,.T.);
#179 = VERTEX_POINT('',#180);
#180 = CARTESIAN_POINT('',(16.227241335952,16.,48.8));
#181 = CIRCLE('',#182,6.);
#182 = AXIS2_PLACEMENT_3D('',#183,#184,#185);
#183 = CARTESIAN_POINT('',(10.227241335952,16.,48.8));
#184 = DIRECTION('',(0.,0.,-1.));
#185 = DIRECTION('',(5.9E-16,1.,0.));
#186 = ORIENTED_EDGE('',*,*,#187,.T.);
#187 = EDGE_CURVE('',#179,#179,#188,.T.);
#188 = CIRCLE('',#189,2.2);
#189 = AXIS2_PLACEMENT_3D('',#190,#191,#192);
#190 = CARTESIAN_POINT('',(16.227241335952,16.,51.));
#191 = DIRECTION('',(-8.E-16,1.,0.));
#192 = DIRECTION('',(1.,8.E-16,0.));
#193 = ORIENTED_EDGE('',*,*,#178,.F.);
#194 = ORIENTED_EDGE('',*,*,#135,.T.);
#195 = TOROIDAL_SURFACE('',#196,6.,2.2);
#196 = AXIS2_PLACEMENT_3D('',#197,#198,#199);
#197 = CARTESIAN_POINT('',(10.227241335952,16.,51.));
#198 = DIRECTION('',(0.,0.,-1.));
#199 = DIRECTION('',(5.9E-16,1.,0.));
#200 = ADVANCED_FACE('',(#201),#220,.F.);
#201 = FACE_BOUND('',#202,.F.);
#202 = EDGE_LOOP('',(#203,#211,#218,#219));
#203 = ORIENTED_EDGE('',*,*,#204,.T.);
#204 = EDGE_CURVE('',#153,#205,#207,.T.);
#205 = VERTEX_POINT('',#206);
#206 = CARTESIAN_POINT('',(10.227241335952,22.,49.8));
#207 = LINE('',#208,#209);
#208 = CARTESIAN_POINT('',(-34.,22.,49.8));
#209 = VECTOR('',#210,1.);
#210 = DIRECTION('',(1.,0.,0.));
#211 = ORIENTED_EDGE('',*,*,#212,.F.);
#212 = EDGE_CURVE('',#205,#205,#213,.T.);
#213 = CIRCLE('',#214,1.2);
#214 = AXIS2_PLACEMENT_3D('',#215,#216,#217);
#215 = CARTESIAN_POINT('',(10.227241335952,22.,51.));
#216 = DIRECTION('',(1.,-0.,0.));
#217 = DIRECTION('',(0.,0.,-1.));
#218 = ORIENTED_EDGE('',*,*,#204,.F.);
#219 = ORIENTED_EDGE('',*,*,#161,.F.);
#220 = CYLINDRICAL_SURFACE('',#221,1.2);
#221 = AXIS2_PLACEMENT_3D('',#222,#223,#224);
#222 = CARTESIAN_POINT('',(-34.,22.,51.));
#223 = DIRECTION('',(1.,0.,0.));
#224 = DIRECTION('',(0.,0.,-1.));
#225 = ADVANCED_FACE('',(#226),#245,.T.);
#226 = FACE_BOUND('',#227,.T.);
#227 = EDGE_LOOP('',(#228,#236,#243,#244));
#228 = ORIENTED_EDGE('',*,*,#229,.T.);
#229 = EDGE_CURVE('',#179,#230,#232,.T.);
#230 = VERTEX_POINT('',#231);
#231 = CARTESIAN_POINT('',(16.227241335952,8.25,48.8));
#232 = LINE('',#233,#234);
#233 = CARTESIAN_POINT('',(16.227241335952,16.,48.8));
#234 = VECTOR('',#235,1.);
#235 = DIRECTION('',(0.,-1.,0.));
#236 = ORIENTED_EDGE('',*,*,#237,.F.);
#237 = EDGE_CURVE('',#230,#230,#238,.T.);
#238 = CIRCLE('',#239,2.2);
#239 = AXIS2_PLACEMENT_3D('',#240,#241,#242);
#240 = CARTESIAN_POINT('',(16.227241335952,8.25,51.));
#241 = DIRECTION('',(0.,-1.,0.));
#242 = DIRECTION('',(0.,0.,-1.));
#243 = ORIENTED_EDGE('',*,*,#229,.F.);
#244 = ORIENTED_EDGE('',*,*,#187,.F.);
#245 = CYLINDRICAL_SURFACE('',#246,2.2);
#246 = AXIS2_PLACEMENT_3D('',#247,#248,#249);
#247 = CARTESIAN_POINT('',(16.227241335952,16.,51.));
#248 = DIRECTION('',(0.,-1.,0.));
#249 = DIRECTION('',(0.,0.,-1.));
#250 = ADVANCED_FACE('',(#251),#271,.F.);
#251 = FACE_BOUND('',#252,.F.);
#252 = EDGE_LOOP('',(#253,#262,#269,#270));
#253 = ORIENTED_EDGE('',*,*,#254,.T.);
#254 = EDGE_CURVE('',#205,#255,#257,.T.);
#255 = VERTEX_POINT('',#256);
#256 = CARTESIAN_POINT('',(16.227241335952,16.,49.8));
#257 = CIRCLE('',#258,6.);
#258 = AXIS2_PLACEMENT_3D('',#259,#260,#261);
#259 = CARTESIAN_POINT('',(10.227241335952,16.,49.8));
#260 = DIRECTION('',(0.,0.,-1.));
#261 = DIRECTION('',(5.9E-16,1.,0.));
#262 = ORIENTED_EDGE('',*,*,#263,.T.);
#263 = EDGE_CURVE('',#255,#255,#264,.T.);
#264 = CIRCLE('',#265,1.2);
#265 = AXIS2_PLACEMENT_3D('',#266,#267,#268);
#266 = CARTESIAN_POINT('',(16.227241335952,16.,51.));
#267 = DIRECTION('',(-8.E-16,1.,0.));
#268 = DIRECTION('',(1.,8.E-16,0.));
#269 = ORIENTED_EDGE('',*,*,#254,.F.);
#270 = ORIENTED_EDGE('',*,*,#212,.T.);
#271 = TOROIDAL_SURFACE('',#272,6.,1.2);
#272 = AXIS2_PLACEMENT_3D('',#273,#274,#275);
#273 = CARTESIAN_POINT('',(10.227241335952,16.,51.));
#274 = DIRECTION('',(0.,0.,-1.));
#275 = DIRECTION('',(5.9E-16,1.,0.));
#276 = ADVANCED_FACE('',(#277,#280),#291,.T.);
#277 = FACE_BOUND('',#278,.T.);
#278 = EDGE_LOOP('',(#279));
#279 = ORIENTED_EDGE('',*,*,#237,.T.);
#280 = FACE_BOUND('',#281,.T.);
#281 = EDGE_LOOP('',(#282));
#282 = ORIENTED_EDGE('',*,*,#283,.F.);
#283 = EDGE_CURVE('',#284,#284,#286,.T.);
#284 = VERTEX_POINT('',#285);
#285 = CARTESIAN_POINT('',(16.227241335952,8.25,49.8));
#286 = CIRCLE('',#287,1.2);
#287 = AXIS2_PLACEMENT_3D('',#288,#289,#290);
#288 = CARTESIAN_POINT('',(16.227241335952,8.25,51.));
#289 = DIRECTION('',(0.,-1.,0.));
#290 = DIRECTION('',(0.,0.,-1.));
#291 = PLANE('',#292);
#292 = AXIS2_PLACEMENT_3D('',#293,#294,#295);
#293 = CARTESIAN_POINT('',(16.227241335952,8.25,51.));
#294 = DIRECTION('',(-0.,-1.,-0.));
#295 = DIRECTION('',(0.,0.,-1.));
#296 = ADVANCED_FACE('',(#297),#308,.F.);
#297 = FACE_BOUND('',#298,.F.);
#298 = EDGE_LOOP('',(#299,#305,#306,#307));
#299 = ORIENTED_EDGE('',*,*,#300,.T.);
#300 = EDGE_CURVE('',#255,#284,#301,.T.);
#301 = LINE('',#302,#303);
#302 = CARTESIAN_POINT('',(16.227241335952,16.,49.8));
#303 = VECTOR('',#304,1.);
#304 = DIRECTION('',(0.,-1.,0.));
#305 = ORIENTED_EDGE('',*,*,#283,.F.);
#306 = ORIENTED_EDGE('',*,*,#300,.F.);
#307 = ORIENTED_EDGE('',*,*,#263,.F.);
#308 = CYLINDRICAL_SURFACE('',#309,1.2);
#309 = AXIS2_PLACEMENT_3D('',#310,#311,#312);
#310 = CARTESIAN_POINT('',(16.227241335952,16.,51.));
#311 = DIRECTION('',(0.,-1.,0.));
#312 = DIRECTION('',(0.,0.,-1.));
#313 = ( GEOMETRIC_REPRESENTATION_CONTEXT(3) 
GLOBAL_UNCERTAINTY_ASSIGNED_CONTEXT((#317)) GLOBAL_UNIT_ASSIGNED_CONTEXT
((#314,#315,#316)) REPRESENTATION_CONTEXT('Context #1',
  '3D Context with UNIT and UNCERTAINTY') );
#314 = ( LENGTH_UNIT() NAMED_UNIT(*) SI_UNIT(.MILLI.,.METRE.) );
#315 = ( NAMED_UNIT(*) PLANE_ANGLE_UNIT() SI_UNIT($,.RADIAN.) );
#316 = ( NAMED_UNIT(*) SI_UNIT($,.STERADIAN.) SOLID_ANGLE_UNIT() );
#317 = UNCERTAINTY_MEASURE_WITH_UNIT(LENGTH_MEASURE(1.E-07),#314,
  'distance_accuracy_value','confusion accuracy');
#318 = PRODUCT_RELATED_PRODUCT_CATEGORY('part',$,(#7));
ENDSEC;
END-ISO-10303-21;
