ISO-10303-21;
HEADER;
FILE_DESCRIPTION(('FreeCAD Model'),'2;1');
FILE_NAME('Open CASCADE Shape Model','2026-09-30T05:24:13',('FreeCAD'),(
    'FreeCAD'),'Open CASCADE STEP processor 7.8','FreeCAD','Unknown');
FILE_SCHEMA(('AUTOMOTIVE_DESIGN { 1 0 10303 214 1 1 1 1 }'));
ENDSEC;
DATA;
#1 = APPLICATION_PROTOCOL_DEFINITION('international standard',
  'automotive_design',2000,#2);
#2 = APPLICATION_CONTEXT(
  'core data for automotive mechanical design processes');
#3 = SHAPE_DEFINITION_REPRESENTATION(#4,#10);
#4 = PRODUCT_DEFINITION_SHAPE('','',#5);
#5 = PRODUCT_DEFINITION('design','',#6,#9);
#6 = PRODUCT_DEFINITION_FORMATION('','',#7);
#7 = PRODUCT('Open CASCADE STEP translator 7.8 42',
  'Open CASCADE STEP translator 7.8 42','',(#8));
#8 = PRODUCT_CONTEXT('',#2,'mechanical');
#9 = PRODUCT_DEFINITION_CONTEXT('part definition',#2,'design');
#10 = ADVANCED_BREP_SHAPE_REPRESENTATION('',(#11,#15),#987);
#11 = AXIS2_PLACEMENT_3D('',#12,#13,#14);
#12 = CARTESIAN_POINT('',(0.,0.,0.));
#13 = DIRECTION('',(0.,0.,1.));
#14 = DIRECTION('',(1.,0.,-0.));
#15 = MANIFOLD_SOLID_BREP('',#16);
#16 = CLOSED_SHELL('',(#17,#148,#198,#270,#338,#411,#437,#474,#485,#511,
    #537,#562,#588,#614,#639,#665,#691,#716,#742,#768,#793,#819,#845,
    #871,#897,#923,#949,#969));
#17 = ADVANCED_FACE('',(#18),#143,.T.);
#18 = FACE_BOUND('',#19,.T.);
#19 = EDGE_LOOP('',(#20,#31,#40,#47,#48,#57,#92,#114));
#20 = ORIENTED_EDGE('',*,*,#21,.F.);
#21 = EDGE_CURVE('',#22,#24,#26,.T.);
#22 = VERTEX_POINT('',#23);
#23 = CARTESIAN_POINT('',(9.975888295733,-6.432996513728,5.7));
#24 = VERTEX_POINT('',#25);
#25 = CARTESIAN_POINT('',(8.76733484974,-6.01453059328,3.702083991236));
#26 = CIRCLE('',#27,2.2);
#27 = AXIS2_PLACEMENT_3D('',#28,#29,#30);
#28 = CARTESIAN_POINT('',(7.896983013841,-5.713168180777,5.7));
#29 = DIRECTION('',(0.327194696796,0.944956946315,0.));
#30 = DIRECTION('',(0.944956946315,-0.327194696796,0.));
#31 = ORIENTED_EDGE('',*,*,#32,.T.);
#32 = EDGE_CURVE('',#22,#33,#35,.T.);
#33 = VERTEX_POINT('',#34);
#34 = CARTESIAN_POINT('',(2.227241335952,-11.95,5.7));
#35 = CIRCLE('',#36,8.2);
#36 = AXIS2_PLACEMENT_3D('',#37,#38,#39);
#37 = CARTESIAN_POINT('',(2.227241335952,-3.75,5.7));
#38 = DIRECTION('',(0.,0.,-1.));
#39 = DIRECTION('',(1.,7.E-17,0.));
#40 = ORIENTED_EDGE('',*,*,#41,.T.);
#41 = EDGE_CURVE('',#33,#33,#42,.T.);
#42 = CIRCLE('',#43,2.2);
#43 = AXIS2_PLACEMENT_3D('',#44,#45,#46);
#44 = CARTESIAN_POINT('',(2.227241335952,-9.75,5.7));
#45 = DIRECTION('',(1.,-9.E-17,0.));
#46 = DIRECTION('',(-9.E-17,-1.,0.));
#47 = ORIENTED_EDGE('',*,*,#32,.F.);
#48 = ORIENTED_EDGE('',*,*,#49,.F.);
#49 = EDGE_CURVE('',#50,#22,#52,.T.);
#50 = VERTEX_POINT('',#51);
#51 = CARTESIAN_POINT('',(6.650224338466,-5.281473564045,3.939536264712)
  );
#52 = CIRCLE('',#53,2.2);
#53 = AXIS2_PLACEMENT_3D('',#54,#55,#56);
#54 = CARTESIAN_POINT('',(7.896983013841,-5.713168180777,5.7));
#55 = DIRECTION('',(0.327194696796,0.944956946315,0.));
#56 = DIRECTION('',(0.944956946315,-0.327194696796,0.));
#57 = ORIENTED_EDGE('',*,*,#58,.F.);
#58 = EDGE_CURVE('',#59,#50,#61,.T.);
#59 = VERTEX_POINT('',#60);
#60 = CARTESIAN_POINT('',(5.149613391789,-7.880607966084,3.710996155338)
  );
#61 = B_SPLINE_CURVE_WITH_KNOTS('',8,(#62,#63,#64,#65,#66,#67,#68,#69,
    #70,#71,#72,#73,#74,#75,#76,#77,#78,#79,#80,#81,#82,#83,#84,#85,#86,
    #87,#88,#89,#90,#91),.UNSPECIFIED.,.F.,.F.,(9,7,7,7,9),(0.,
    0.256941237264,0.668089143718,0.773033576104,1.),.UNSPECIFIED.);
#62 = CARTESIAN_POINT('',(4.724613391789,-8.616729559301,3.564771865241)
  );
#63 = CARTESIAN_POINT('',(4.785815565751,-8.510724284465,3.581243315975)
  );
#64 = CARTESIAN_POINT('',(4.846947696627,-8.404840327812,3.599650373798)
  );
#65 = CARTESIAN_POINT('',(4.908010802144,-8.299075926589,3.619744599192)
  );
#66 = CARTESIAN_POINT('',(4.969012250266,-8.193418319106,3.641270205228)
  );
#67 = CARTESIAN_POINT('',(5.029966089786,-8.087843172142,3.663961623918)
  );
#68 = CARTESIAN_POINT('',(5.090893380912,-7.982314008344,3.687541072566)
  );
#69 = CARTESIAN_POINT('',(5.151822525862,-7.876781633629,3.711716120116)
  );
#70 = CARTESIAN_POINT('',(5.31034686559,-7.602209422984,3.775319058426)
  );
#71 = CARTESIAN_POINT('',(5.407959499828,-7.433139381023,3.815176669124)
  );
#72 = CARTESIAN_POINT('',(5.505823654556,-7.263633692794,3.854503382842)
  );
#73 = CARTESIAN_POINT('',(5.60408920617,-7.093432764765,3.89190489529));
#74 = CARTESIAN_POINT('',(5.702862178164,-6.922352958856,3.925837491892)
  );
#75 = CARTESIAN_POINT('',(5.802207397422,-6.750281991613,3.954592261561)
  );
#76 = CARTESIAN_POINT('',(5.902112561943,-6.577241170723,3.976668400836)
  );
#77 = CARTESIAN_POINT('',(6.028052119393,-6.359107458539,3.994830437692)
  );
#78 = CARTESIAN_POINT('',(6.05368508414,-6.314709861247,3.998027416502)
  );
#79 = CARTESIAN_POINT('',(6.079338549129,-6.270276756497,4.000712791665)
  );
#80 = CARTESIAN_POINT('',(6.105008897628,-6.225814408648,4.002873813011)
  );
#81 = CARTESIAN_POINT('',(6.130692260289,-6.18132951961,4.00450062668));
#82 = CARTESIAN_POINT('',(6.156384505162,-6.136829246129,4.005586485701)
  );
#83 = CARTESIAN_POINT('',(6.182081227724,-6.092321217065,4.006127960583)
  );
#84 = CARTESIAN_POINT('',(6.263352348989,-5.951555505845,4.006119071133)
  );
#85 = CARTESIAN_POINT('',(6.318931665866,-5.855289305163,4.003567315107)
  );
#86 = CARTESIAN_POINT('',(6.374461828929,-5.759108241386,3.998468012524)
  );
#87 = CARTESIAN_POINT('',(6.429900280114,-5.663086027242,3.990898529853)
  );
#88 = CARTESIAN_POINT('',(6.485214725265,-5.567278597846,3.981004819722)
  );
#89 = CARTESIAN_POINT('',(6.540382134586,-5.471725841981,3.968986959283)
  );
#90 = CARTESIAN_POINT('',(6.595387784146,-5.37645326224,3.955080876548)
  );
#91 = CARTESIAN_POINT('',(6.650224338466,-5.281473564045,3.939536264712)
  );
#92 = ORIENTED_EDGE('',*,*,#93,.F.);
#93 = EDGE_CURVE('',#94,#59,#96,.T.);
#94 = VERTEX_POINT('',#95);
#95 = CARTESIAN_POINT('',(7.054869280115,-8.980607966084,3.805222529487)
  );
#96 = B_SPLINE_CURVE_WITH_KNOTS('',6,(#97,#98,#99,#100,#101,#102,#103,
    #104,#105,#106,#107,#108,#109,#110,#111,#112,#113),.UNSPECIFIED.,.F.
  ,.F.,(7,5,5,7),(0.,0.387732043321,0.839213062002,1.),.UNSPECIFIED.);
#97 = CARTESIAN_POINT('',(7.245394868948,-9.090607966084,3.946254522606)
  );
#98 = CARTESIAN_POINT('',(7.119634054883,-9.01799992623,3.840951780552)
  );
#99 = CARTESIAN_POINT('',(6.98511155534,-8.940333324907,3.749344566526)
  );
#100 = CARTESIAN_POINT('',(6.843378206672,-8.858503537901,3.672457737956
    ));
#101 = CARTESIAN_POINT('',(6.696042347736,-8.773439140082,3.610913030395
    ));
#102 = CARTESIAN_POINT('',(6.544709635345,-8.686067157846,3.565035679236
    ));
#103 = CARTESIAN_POINT('',(6.211970864666,-8.493960339025,3.49971974569)
  );
#104 = CARTESIAN_POINT('',(6.029692290652,-8.38872175525,3.485865176249)
  );
#105 = CARTESIAN_POINT('',(5.846600491711,-8.283013655845,3.493340567675
    ));
#106 = CARTESIAN_POINT('',(5.665002877352,-8.178168224311,3.521698776275
    ));
#107 = CARTESIAN_POINT('',(5.487043190813,-8.075423151383,3.570162650232
    ));
#108 = CARTESIAN_POINT('',(5.253374576396,-7.940514513948,3.661868564507
    ));
#109 = CARTESIAN_POINT('',(5.192726954327,-7.905499593021,3.688382108908
    ));
#110 = CARTESIAN_POINT('',(5.132885189591,-7.870949934041,3.717283876091
    ));
#111 = CARTESIAN_POINT('',(5.073938816706,-7.836917229789,3.748529425839
    ));
#112 = CARTESIAN_POINT('',(5.01597685387,-7.803452874942,3.782072421539)
  );
#113 = CARTESIAN_POINT('',(4.959087802957,-7.770607966084,3.817864630182
    ));
#114 = ORIENTED_EDGE('',*,*,#115,.T.);
#115 = EDGE_CURVE('',#94,#24,#116,.T.);
#116 = B_SPLINE_CURVE_WITH_KNOTS('',7,(#117,#118,#119,#120,#121,#122,
    #123,#124,#125,#126,#127,#128,#129,#130,#131,#132,#133,#134,#135,
    #136,#137,#138,#139,#140,#141,#142),.UNSPECIFIED.,.F.,.F.,(8,6,6,6,8
    ),(0.,0.342199286722,0.648337901487,0.696890363632,1.),
  .UNSPECIFIED.);
#117 = CARTESIAN_POINT('',(6.629869280115,-9.716729559301,4.015587200365
    ));
#118 = CARTESIAN_POINT('',(6.728214299544,-9.546390988979,3.949487363808
    ));
#119 = CARTESIAN_POINT('',(6.82864609077,-9.372438023879,3.893593821974)
  );
#120 = CARTESIAN_POINT('',(6.930583402105,-9.19587742146,3.846460937663)
  );
#121 = CARTESIAN_POINT('',(7.033588624981,-9.017467141994,3.806904530251
    ));
#122 = CARTESIAN_POINT('',(7.137342295549,-8.8377605131,3.773857059026)
  );
#123 = CARTESIAN_POINT('',(7.241646928234,-8.657099589824,3.746419792822
    ));
#124 = CARTESIAN_POINT('',(7.440161937364,-8.313261507946,3.70367726691)
  );
#125 = CARTESIAN_POINT('',(7.534236939222,-8.150318825005,3.687407029874
    ));
#126 = CARTESIAN_POINT('',(7.628560451204,-7.986945709905,3.67452714008)
  );
#127 = CARTESIAN_POINT('',(7.723058440377,-7.823270391443,3.664629390806
    ));
#128 = CARTESIAN_POINT('',(7.81767156516,-7.659395652256,3.657414531435)
  );
#129 = CARTESIAN_POINT('',(7.912354699588,-7.495399652807,3.652693351683
    ));
#130 = CARTESIAN_POINT('',(8.022099569311,-7.305315962576,3.650028974793
    ));
#131 = CARTESIAN_POINT('',(8.037122994468,-7.279294626902,3.64972516689)
  );
#132 = CARTESIAN_POINT('',(8.052147075689,-7.253272154889,3.6494819774)
  );
#133 = CARTESIAN_POINT('',(8.067171648922,-7.227248830688,3.649299187456
    ));
#134 = CARTESIAN_POINT('',(8.082196551027,-7.201224936863,3.649176650551
    ));
#135 = CARTESIAN_POINT('',(8.097221619781,-7.175200754393,3.649114292535
    ));
#136 = CARTESIAN_POINT('',(8.206047184009,-6.986709347989,3.649098496325
    ));
#137 = CARTESIAN_POINT('',(8.299842644812,-6.824250844359,3.651430297996
    ));
#138 = CARTESIAN_POINT('',(8.393602336541,-6.661854294583,3.656106297707
    ));
#139 = CARTESIAN_POINT('',(8.487286087074,-6.499589278816,3.663237526647
    ));
#140 = CARTESIAN_POINT('',(8.580844213776,-6.337541849906,3.673042726965
    ));
#141 = CARTESIAN_POINT('',(8.674217160503,-6.175815162123,3.685847049906
    ));
#142 = CARTESIAN_POINT('',(8.76733484974,-6.01453059328,3.702083991236)
  );
#143 = TOROIDAL_SURFACE('',#144,6.,2.2);
#144 = AXIS2_PLACEMENT_3D('',#145,#146,#147);
#145 = CARTESIAN_POINT('',(2.227241335952,-3.75,5.7));
#146 = DIRECTION('',(0.,0.,-1.));
#147 = DIRECTION('',(1.,7.E-17,0.));
#148 = ADVANCED_FACE('',(#149),#193,.F.);
#149 = FACE_BOUND('',#150,.F.);
#150 = EDGE_LOOP('',(#151,#152,#153,#161,#169,#178,#187));
#151 = ORIENTED_EDGE('',*,*,#21,.F.);
#152 = ORIENTED_EDGE('',*,*,#49,.F.);
#153 = ORIENTED_EDGE('',*,*,#154,.T.);
#154 = EDGE_CURVE('',#50,#155,#157,.T.);
#155 = VERTEX_POINT('',#156);
#156 = CARTESIAN_POINT('',(6.650224338466,-5.281473564045,6.));
#157 = LINE('',#158,#159);
#158 = CARTESIAN_POINT('',(6.650224338466,-5.281473564045,4.35));
#159 = VECTOR('',#160,1.);
#160 = DIRECTION('',(0.,0.,1.));
#161 = ORIENTED_EDGE('',*,*,#162,.F.);
#162 = EDGE_CURVE('',#163,#155,#165,.T.);
#163 = VERTEX_POINT('',#164);
#164 = CARTESIAN_POINT('',(6.799042259053,-5.333002297279,6.));
#165 = LINE('',#166,#167);
#166 = CARTESIAN_POINT('',(7.005429739975,-5.404464695123,6.));
#167 = VECTOR('',#168,1.);
#168 = DIRECTION('',(-0.944956946315,0.327194696796,0.));
#169 = ORIENTED_EDGE('',*,*,#170,.T.);
#170 = EDGE_CURVE('',#163,#171,#173,.T.);
#171 = VERTEX_POINT('',#172);
#172 = CARTESIAN_POINT('',(9.030931349418,-6.105801816932,5.7));
#173 = CIRCLE('',#174,1.2);
#174 = AXIS2_PLACEMENT_3D('',#175,#176,#177);
#175 = CARTESIAN_POINT('',(7.896983013841,-5.713168180777,5.7));
#176 = DIRECTION('',(0.327194696796,0.944956946315,0.));
#177 = DIRECTION('',(0.944956946315,-0.327194696796,0.));
#178 = ORIENTED_EDGE('',*,*,#179,.T.);
#179 = EDGE_CURVE('',#171,#180,#182,.T.);
#180 = VERTEX_POINT('',#181);
#181 = CARTESIAN_POINT('',(8.76733484974,-6.01453059328,4.930800170257)
  );
#182 = CIRCLE('',#183,1.2);
#183 = AXIS2_PLACEMENT_3D('',#184,#185,#186);
#184 = CARTESIAN_POINT('',(7.896983013841,-5.713168180777,5.7));
#185 = DIRECTION('',(0.327194696796,0.944956946315,0.));
#186 = DIRECTION('',(0.944956946315,-0.327194696796,0.));
#187 = ORIENTED_EDGE('',*,*,#188,.F.);
#188 = EDGE_CURVE('',#24,#180,#189,.T.);
#189 = LINE('',#190,#191);
#190 = CARTESIAN_POINT('',(8.76733484974,-6.01453059328,4.35));
#191 = VECTOR('',#192,1.);
#192 = DIRECTION('',(0.,0.,1.));
#193 = PLANE('',#194);
#194 = AXIS2_PLACEMENT_3D('',#195,#196,#197);
#195 = CARTESIAN_POINT('',(7.896983013841,-5.713168180777,5.7));
#196 = DIRECTION('',(-0.327194696796,-0.944956946315,-0.));
#197 = DIRECTION('',(-0.944956946315,0.327194696796,0.));
#198 = ADVANCED_FACE('',(#199),#265,.F.);
#199 = FACE_BOUND('',#200,.F.);
#200 = EDGE_LOOP('',(#201,#209,#210,#211));
#201 = ORIENTED_EDGE('',*,*,#202,.F.);
#202 = EDGE_CURVE('',#94,#203,#205,.T.);
#203 = VERTEX_POINT('',#204);
#204 = CARTESIAN_POINT('',(7.054869280115,-8.980607966084,5.263901773951
    ));
#205 = LINE('',#206,#207);
#206 = CARTESIAN_POINT('',(7.054869280115,-8.980607966084,3.));
#207 = VECTOR('',#208,1.);
#208 = DIRECTION('',(0.,0.,1.));
#209 = ORIENTED_EDGE('',*,*,#115,.T.);
#210 = ORIENTED_EDGE('',*,*,#188,.T.);
#211 = ORIENTED_EDGE('',*,*,#212,.F.);
#212 = EDGE_CURVE('',#203,#180,#213,.T.);
#213 = B_SPLINE_CURVE_WITH_KNOTS('',8,(#214,#215,#216,#217,#218,#219,
    #220,#221,#222,#223,#224,#225,#226,#227,#228,#229,#230,#231,#232,
    #233,#234,#235,#236,#237,#238,#239,#240,#241,#242,#243,#244,#245,
    #246,#247,#248,#249,#250,#251,#252,#253,#254,#255,#256,#257,#258,
    #259,#260,#261,#262,#263,#264),.UNSPECIFIED.,.F.,.F.,(9,7,7,7,7,7,7,
    9),(0.,8.245123836722E-02,0.143387570397,0.23527672174,
    0.327579228438,0.410526917402,0.686814419382,1.),.UNSPECIFIED.);
#214 = CARTESIAN_POINT('',(6.924152382042,-9.207016274955,5.7));
#215 = CARTESIAN_POINT('',(6.924152382042,-9.207016274955,5.666095644941
    ));
#216 = CARTESIAN_POINT('',(6.925810175079,-9.204144893186,5.63217725529)
  );
#217 = CARTESIAN_POINT('',(6.929127825247,-9.198398554532,5.59852249067)
  );
#218 = CARTESIAN_POINT('',(6.934052279814,-9.189869149023,5.565363523472
    ));
#219 = CARTESIAN_POINT('',(6.940493112841,-9.178713298977,5.532890836104
    ));
#220 = CARTESIAN_POINT('',(6.948336379953,-9.165128361842,5.501256831744
    ));
#221 = CARTESIAN_POINT('',(6.957454584255,-9.149335168717,5.470579258588
    ));
#222 = CARTESIAN_POINT('',(6.975294145894,-9.118436141575,5.419042573002
    ));
#223 = CARTESIAN_POINT('',(6.983502494231,-9.104218865208,5.397698222385
    ));
#224 = CARTESIAN_POINT('',(6.992289075464,-9.089000060087,5.376933719436
    ));
#225 = CARTESIAN_POINT('',(7.001606372681,-9.072862027918,5.356762059749
    ));
#226 = CARTESIAN_POINT('',(7.011409072606,-9.055883253597,5.337188148966
    ));
#227 = CARTESIAN_POINT('',(7.021655063211,-9.038136677295,5.318210040919
    ));
#228 = CARTESIAN_POINT('',(7.03230643133,-9.019687966544,5.299820175781)
  );
#229 = CARTESIAN_POINT('',(7.059954182589,-8.971800656648,5.255144602843
    ));
#230 = CARTESIAN_POINT('',(7.077419539049,-8.941549771887,5.229601768153
    ));
#231 = CARTESIAN_POINT('',(7.095616112957,-8.910032381354,5.205330608505
    ));
#232 = CARTESIAN_POINT('',(7.114447099152,-8.877416156508,5.182279874266
    ));
#233 = CARTESIAN_POINT('',(7.133829320885,-8.843845163703,5.160395321056
    ));
#234 = CARTESIAN_POINT('',(7.153693246712,-8.809439834933,5.139620459001
    ));
#235 = CARTESIAN_POINT('',(7.173983007384,-8.774296938574,5.119897301995
    ));
#236 = CARTESIAN_POINT('',(7.215422815606,-8.702521085279,5.082352675784
    ));
#237 = CARTESIAN_POINT('',(7.236570620978,-8.665892011906,5.064545287833
    ));
#238 = CARTESIAN_POINT('',(7.258053627448,-8.6286823532,5.047688298792)
  );
#239 = CARTESIAN_POINT('',(7.279831644587,-8.590961721027,5.031729914018
    ));
#240 = CARTESIAN_POINT('',(7.301870200475,-8.552789822504,5.016622515482
    ));
#241 = CARTESIAN_POINT('',(7.32414024924,-8.514216966556,5.002321978725)
  );
#242 = CARTESIAN_POINT('',(7.346617878596,-8.475284570478,4.988786989809
    ));
#243 = CARTESIAN_POINT('',(7.389652953137,-8.400745634865,4.964467883411
    ));
#244 = CARTESIAN_POINT('',(7.410172546596,-8.365204656443,4.953544955367
    ));
#245 = CARTESIAN_POINT('',(7.430828049326,-8.32942827626,4.943181866879)
  );
#246 = CARTESIAN_POINT('',(7.451606266008,-8.293439349276,4.933353249141
    ));
#247 = CARTESIAN_POINT('',(7.472495492454,-8.257258147741,4.924035827644
    ));
#248 = CARTESIAN_POINT('',(7.493485453626,-8.220902468541,4.915208174013
    ));
#249 = CARTESIAN_POINT('',(7.514567241657,-8.184387740557,4.906850457841
    ));
#250 = CARTESIAN_POINT('',(7.606234369863,-8.025615617121,4.872609521064
    ));
#251 = CARTESIAN_POINT('',(7.677634770824,-7.901946494975,4.851296661162
    ));
#252 = CARTESIAN_POINT('',(7.749691825779,-7.77714001475,4.834304593492)
  );
#253 = CARTESIAN_POINT('',(7.822211491087,-7.651532269888,4.821167619321
    ));
#254 = CARTESIAN_POINT('',(7.895035986674,-7.525396543495,4.811551878759
    ));
#255 = CARTESIAN_POINT('',(7.968040911204,-7.398948305008,4.805230726671
    ));
#256 = CARTESIAN_POINT('',(8.041135878965,-7.272344107067,4.802094070463
    ));
#257 = CARTESIAN_POINT('',(8.19715570768,-7.002109836746,4.802206503017)
  );
#258 = CARTESIAN_POINT('',(8.279973241644,-6.858665660161,4.806364758746
    ));
#259 = CARTESIAN_POINT('',(8.362660495372,-6.715447135567,4.814609560654
    ));
#260 = CARTESIAN_POINT('',(8.445092472086,-6.572670763729,4.827141627336
    ));
#261 = CARTESIAN_POINT('',(8.527079921022,-6.43066433659,4.844321048147)
  );
#262 = CARTESIAN_POINT('',(8.608358116664,-6.28988637219,4.866734137059)
  );
#263 = CARTESIAN_POINT('',(8.688592762716,-6.150915888701,4.895137241996
    ));
#264 = CARTESIAN_POINT('',(8.76733484974,-6.01453059328,4.930800170257)
  );
#265 = PLANE('',#266);
#266 = AXIS2_PLACEMENT_3D('',#267,#268,#269);
#267 = CARTESIAN_POINT('',(7.054869280115,-8.980607966084,3.));
#268 = DIRECTION('',(0.866025403784,-0.5,0.));
#269 = DIRECTION('',(0.,0.,1.));
#270 = ADVANCED_FACE('',(#271),#333,.T.);
#271 = FACE_BOUND('',#272,.T.);
#272 = EDGE_LOOP('',(#273,#274,#275,#283));
#273 = ORIENTED_EDGE('',*,*,#202,.F.);
#274 = ORIENTED_EDGE('',*,*,#93,.T.);
#275 = ORIENTED_EDGE('',*,*,#276,.T.);
#276 = EDGE_CURVE('',#59,#277,#279,.T.);
#277 = VERTEX_POINT('',#278);
#278 = CARTESIAN_POINT('',(5.149613391789,-7.880607966084,4.954254538009
    ));
#279 = LINE('',#280,#281);
#280 = CARTESIAN_POINT('',(5.149613391789,-7.880607966084,3.));
#281 = VECTOR('',#282,1.);
#282 = DIRECTION('',(0.,0.,1.));
#283 = ORIENTED_EDGE('',*,*,#284,.F.);
#284 = EDGE_CURVE('',#203,#277,#285,.T.);
#285 = B_SPLINE_CURVE_WITH_KNOTS('',6,(#286,#287,#288,#289,#290,#291,
    #292,#293,#294,#295,#296,#297,#298,#299,#300,#301,#302,#303,#304,
    #305,#306,#307,#308,#309,#310,#311,#312,#313,#314,#315,#316,#317,
    #318,#319,#320,#321,#322,#323,#324,#325,#326,#327,#328,#329,#330,
    #331,#332),.UNSPECIFIED.,.F.,.F.,(7,5,5,5,5,5,5,5,5,7),(0.,
    0.230512734031,0.341066180834,0.448399496134,0.511515839117,
    0.63846620302,0.763137121918,0.810455922854,0.879818442109,1.),
  .UNSPECIFIED.);
#286 = CARTESIAN_POINT('',(7.129247708518,-9.023550371744,5.7));
#287 = CARTESIAN_POINT('',(7.129247708518,-9.023550371744,5.566740188803
    ));
#288 = CARTESIAN_POINT('',(7.11315774912,-9.014260829354,5.433423019761)
  );
#289 = CARTESIAN_POINT('',(7.080954925775,-8.995668520628,5.303316315191
    ));
#290 = CARTESIAN_POINT('',(7.033416040634,-8.968221932495,5.179438805858
    ));
#291 = CARTESIAN_POINT('',(6.97181619451,-8.932657244753,5.064500258751)
  );
#292 = CARTESIAN_POINT('',(6.862647330272,-8.869628571598,4.910980351829
    ));
#293 = CARTESIAN_POINT('',(6.824449433666,-8.84757500571,4.86377664342)
  );
#294 = CARTESIAN_POINT('',(6.783636499307,-8.824011647071,4.819369820023
    ));
#295 = CARTESIAN_POINT('',(6.740423692144,-8.799062721223,4.777965310837
    ));
#296 = CARTESIAN_POINT('',(6.695040786218,-8.77286088827,4.739736741174)
  );
#297 = CARTESIAN_POINT('',(6.601794080412,-8.719024877572,4.670934551851
    ));
#298 = CARTESIAN_POINT('',(6.554039868625,-8.691453970542,4.640169512847
    ));
#299 = CARTESIAN_POINT('',(6.504685311658,-8.662959103791,4.612662496657
    ));
#300 = CARTESIAN_POINT('',(6.453955672454,-8.633670332941,4.588514320306
    ));
#301 = CARTESIAN_POINT('',(6.402079647956,-8.603719696232,4.56779888351)
  );
#302 = CARTESIAN_POINT('',(6.318242935345,-8.555316547639,4.540432067914
    ));
#303 = CARTESIAN_POINT('',(6.286881624658,-8.537210086472,4.531502459803
    ));
#304 = CARTESIAN_POINT('',(6.255249770277,-8.51894742683,4.523786886757)
  );
#305 = CARTESIAN_POINT('',(6.223393825325,-8.500555388436,4.517292502025
    ));
#306 = CARTESIAN_POINT('',(6.191360090489,-8.482060703005,4.512023713622
    ));
#307 = CARTESIAN_POINT('',(6.094498217757,-8.426137474709,4.499853170655
    ));
#308 = CARTESIAN_POINT('',(6.029269245177,-8.388477509832,4.496689407085
    ));
#309 = CARTESIAN_POINT('',(5.963882403368,-8.350726399112,4.498505039061
    ));
#310 = CARTESIAN_POINT('',(5.898707096174,-8.313097417958,4.505273426072
    ));
#311 = CARTESIAN_POINT('',(5.834107237805,-8.27580067234,4.516932366469)
  );
#312 = CARTESIAN_POINT('',(5.70791784867,-8.202945194554,4.549550786789)
  );
#313 = CARTESIAN_POINT('',(5.646295752558,-8.167367660775,4.570339250915
    ));
#314 = CARTESIAN_POINT('',(5.585912656229,-8.132505463856,4.595667134972
    ));
#315 = CARTESIAN_POINT('',(5.527104723403,-8.098552688008,4.625418032399
    ));
#316 = CARTESIAN_POINT('',(5.470206303395,-8.065702369899,4.659446709749
    ));
#317 = CARTESIAN_POINT('',(5.394805125335,-8.02216947945,4.712052243784)
  );
#318 = CARTESIAN_POINT('',(5.37438340907,-8.010378996067,4.727116441999)
  );
#319 = CARTESIAN_POINT('',(5.354303048057,-7.99878559423,4.742762115348)
  );
#320 = CARTESIAN_POINT('',(5.334582295323,-7.987399812331,4.758978942482
    ));
#321 = CARTESIAN_POINT('',(5.315239391192,-7.976232181424,4.775755866691
    ));
#322 = CARTESIAN_POINT('',(5.268519253527,-7.949258297366,4.818477376496
    ));
#323 = CARTESIAN_POINT('',(5.241596883843,-7.933714659982,4.84505169783)
  );
#324 = CARTESIAN_POINT('',(5.215583146748,-7.918695621868,4.87276707686)
  );
#325 = CARTESIAN_POINT('',(5.19053516208,-7.904234161177,4.90158226676)
  );
#326 = CARTESIAN_POINT('',(5.166509477002,-7.89036292543,4.93145175693)
  );
#327 = CARTESIAN_POINT('',(5.103802039491,-7.854158769503,5.015819899058
    ));
#328 = CARTESIAN_POINT('',(5.067277631453,-7.83307139269,5.072331228581)
  );
#329 = CARTESIAN_POINT('',(5.034280082433,-7.81402024888,5.131596044721)
  );
#330 = CARTESIAN_POINT('',(5.005090008444,-7.797167351805,5.19330795245)
  );
#331 = CARTESIAN_POINT('',(4.979958430298,-7.782657628398,5.257111583822
    ));
#332 = CARTESIAN_POINT('',(4.959087802957,-7.770607966084,5.322596303251
    ));
#333 = PLANE('',#334);
#334 = AXIS2_PLACEMENT_3D('',#335,#336,#337);
#335 = CARTESIAN_POINT('',(5.149613391789,-7.880607966084,3.));
#336 = DIRECTION('',(0.5,0.866025403784,0.));
#337 = DIRECTION('',(0.,0.,1.));
#338 = ADVANCED_FACE('',(#339),#406,.T.);
#339 = FACE_BOUND('',#340,.T.);
#340 = EDGE_LOOP('',(#341,#342,#343,#344,#352));
#341 = ORIENTED_EDGE('',*,*,#276,.F.);
#342 = ORIENTED_EDGE('',*,*,#58,.T.);
#343 = ORIENTED_EDGE('',*,*,#154,.T.);
#344 = ORIENTED_EDGE('',*,*,#345,.F.);
#345 = EDGE_CURVE('',#346,#155,#348,.T.);
#346 = VERTEX_POINT('',#347);
#347 = CARTESIAN_POINT('',(5.452205207536,-7.356503567257,6.));
#348 = LINE('',#349,#350);
#349 = CARTESIAN_POINT('',(5.149613391789,-7.880607966084,6.));
#350 = VECTOR('',#351,1.);
#351 = DIRECTION('',(0.5,0.866025403784,0.));
#352 = ORIENTED_EDGE('',*,*,#353,.F.);
#353 = EDGE_CURVE('',#277,#346,#354,.T.);
#354 = B_SPLINE_CURVE_WITH_KNOTS('',8,(#355,#356,#357,#358,#359,#360,
    #361,#362,#363,#364,#365,#366,#367,#368,#369,#370,#371,#372,#373,
    #374,#375,#376,#377,#378,#379,#380,#381,#382,#383,#384,#385,#386,
    #387,#388,#389,#390,#391,#392,#393,#394,#395,#396,#397,#398,#399,
    #400,#401,#402,#403,#404,#405),.UNSPECIFIED.,.F.,.F.,(9,7,7,7,7,7,7,
    9),(0.,0.135224130006,0.323475107064,0.521768820938,0.614857037559,
    0.70463500885,0.76714088381,1.),.UNSPECIFIED.);
#355 = CARTESIAN_POINT('',(4.724613391789,-8.616729559301,4.623338870644
    ));
#356 = CARTESIAN_POINT('',(4.748501089703,-8.575354852838,4.636088705225
    ));
#357 = CARTESIAN_POINT('',(4.772310569423,-8.534115624262,4.649515950068
    ));
#358 = CARTESIAN_POINT('',(4.796035578,-8.493022703997,4.663607625287));
#359 = CARTESIAN_POINT('',(4.819669835906,-8.452086968504,4.678351785055
    ));
#360 = CARTESIAN_POINT('',(4.843206939661,-8.411319508937,4.693737752304
    ));
#361 = CARTESIAN_POINT('',(4.866640264455,-8.370731799804,4.709756353424
    ));
#362 = CARTESIAN_POINT('',(4.889962866772,-8.330335867626,4.726400152967
    ));
#363 = CARTESIAN_POINT('',(4.945471337564,-8.234192375964,4.767696953721
    ));
#364 = CARTESIAN_POINT('',(4.977544266854,-8.178640432886,4.792929840291
    ));
#365 = CARTESIAN_POINT('',(5.009368366116,-8.123519476058,4.819348637951
    ));
#366 = CARTESIAN_POINT('',(5.040921319246,-8.068868158109,4.846947089164
    ));
#367 = CARTESIAN_POINT('',(5.072176198206,-8.014733119766,4.875726288412
    ));
#368 = CARTESIAN_POINT('',(5.103100075774,-7.961171392651,4.905697560297
    ));
#369 = CARTESIAN_POINT('',(5.133651355633,-7.908255023698,4.936888316274
    ));
#370 = CARTESIAN_POINT('',(5.195507351687,-7.801117295781,5.00354526401)
  );
#371 = CARTESIAN_POINT('',(5.226736325291,-7.74702712683,5.03911932028)
  );
#372 = CARTESIAN_POINT('',(5.257427814755,-7.693867907718,5.076161717071
    ));
#373 = CARTESIAN_POINT('',(5.28750766808,-7.641768073475,5.114769447134)
  );
#374 = CARTESIAN_POINT('',(5.31684849995,-7.59094826194,5.15506514292));
#375 = CARTESIAN_POINT('',(5.345268325889,-7.541723679472,5.197198084874
    ));
#376 = CARTESIAN_POINT('',(5.372508667304,-7.494542024126,5.241379670425
    ));
#377 = CARTESIAN_POINT('',(5.410200386216,-7.429258051944,5.309891759891
    ));
#378 = CARTESIAN_POINT('',(5.42188245381,-7.409024117335,5.332301563787)
  );
#379 = CARTESIAN_POINT('',(5.433164578606,-7.38948290397,5.355275628565)
  );
#380 = CARTESIAN_POINT('',(5.443991071729,-7.370730867814,5.378850648089
    ));
#381 = CARTESIAN_POINT('',(5.454290035746,-7.352892538871,5.403058563345
    ));
#382 = CARTESIAN_POINT('',(5.463973288196,-7.336120653645,5.427926296385
    ));
#383 = CARTESIAN_POINT('',(5.47293730948,-7.320594513342,5.453474549378)
  );
#384 = CARTESIAN_POINT('',(5.488904089965,-7.292939238307,5.505023645897
    ));
#385 = CARTESIAN_POINT('',(5.495969177317,-7.280702148054,5.530988878005
    ));
#386 = CARTESIAN_POINT('',(5.502144061381,-7.270006935125,5.557588561327
    ));
#387 = CARTESIAN_POINT('',(5.507301585518,-7.261073841277,5.584773154762
    ));
#388 = CARTESIAN_POINT('',(5.511315421824,-7.254121672863,5.612462353762
    ));
#389 = CARTESIAN_POINT('',(5.514076873506,-7.249338698247,5.640539037696
    ));
#390 = CARTESIAN_POINT('',(5.515516910086,-7.246844481726,5.668841190645
    ));
#391 = CARTESIAN_POINT('',(5.515714563531,-7.246502135916,5.71686241184)
  );
#392 = CARTESIAN_POINT('',(5.515154110348,-7.247472869306,5.736584074679
    ));
#393 = CARTESIAN_POINT('',(5.513950288327,-7.249557950209,5.756245105982
    ));
#394 = CARTESIAN_POINT('',(5.512116561826,-7.252734057676,5.775783859488
    ));
#395 = CARTESIAN_POINT('',(5.50967839949,-7.256957078719,5.79514802945)
  );
#396 = CARTESIAN_POINT('',(5.506670026653,-7.26216773332,5.814293959249)
  );
#397 = CARTESIAN_POINT('',(5.503131177735,-7.268297199446,5.833185949994
    ));
#398 = CARTESIAN_POINT('',(5.484100454247,-7.301259379433,5.921123763765
    ));
#399 = CARTESIAN_POINT('',(5.462470295849,-7.338723912754,5.985827616193
    ));
#400 = CARTESIAN_POINT('',(5.4362569614,-7.384126739855,6.046331899883)
  );
#401 = CARTESIAN_POINT('',(5.407038721997,-7.434734215008,6.103065456237
    ));
#402 = CARTESIAN_POINT('',(5.375801218105,-7.488839158851,6.156334170352
    ));
#403 = CARTESIAN_POINT('',(5.343167663706,-7.545362133102,6.206563074726
    ));
#404 = CARTESIAN_POINT('',(5.309363333992,-7.603912949682,6.254254517872
    ));
#405 = CARTESIAN_POINT('',(5.274269638093,-7.664697014004,6.3));
#406 = PLANE('',#407);
#407 = AXIS2_PLACEMENT_3D('',#408,#409,#410);
#408 = CARTESIAN_POINT('',(5.149613391789,-7.880607966084,3.));
#409 = DIRECTION('',(0.866025403784,-0.5,0.));
#410 = DIRECTION('',(0.,0.,1.));
#411 = ADVANCED_FACE('',(#412),#432,.T.);
#412 = FACE_BOUND('',#413,.T.);
#413 = EDGE_LOOP('',(#414,#423,#430,#431));
#414 = ORIENTED_EDGE('',*,*,#415,.T.);
#415 = EDGE_CURVE('',#33,#416,#418,.T.);
#416 = VERTEX_POINT('',#417);
#417 = CARTESIAN_POINT('',(-8.261572118762,-10.77000848634,5.7));
#418 = CIRCLE('',#419,47.206944444444);
#419 = AXIS2_PLACEMENT_3D('',#420,#421,#422);
#420 = CARTESIAN_POINT('',(2.227241335952,35.256944444444,5.7));
#421 = DIRECTION('',(0.,-0.,-1.));
#422 = DIRECTION('',(5.E-17,-1.,0.));
#423 = ORIENTED_EDGE('',*,*,#424,.T.);
#424 = EDGE_CURVE('',#416,#416,#425,.T.);
#425 = CIRCLE('',#426,2.2);
#426 = AXIS2_PLACEMENT_3D('',#427,#428,#429);
#427 = CARTESIAN_POINT('',(-7.772758664048,-8.625,5.7));
#428 = DIRECTION('',(0.975003857429,-0.222187933961,0.));
#429 = DIRECTION('',(-0.222187933961,-0.975003857429,0.));
#430 = ORIENTED_EDGE('',*,*,#415,.F.);
#431 = ORIENTED_EDGE('',*,*,#41,.F.);
#432 = TOROIDAL_SURFACE('',#433,45.006944444444,2.2);
#433 = AXIS2_PLACEMENT_3D('',#434,#435,#436);
#434 = CARTESIAN_POINT('',(2.227241335952,35.256944444444,5.7));
#435 = DIRECTION('',(-0.,-0.,-1.));
#436 = DIRECTION('',(5.E-17,-1.,0.));
#437 = ADVANCED_FACE('',(#438),#469,.F.);
#438 = FACE_BOUND('',#439,.F.);
#439 = EDGE_LOOP('',(#440,#441,#450,#457,#458,#459,#466,#467,#468));
#440 = ORIENTED_EDGE('',*,*,#179,.F.);
#441 = ORIENTED_EDGE('',*,*,#442,.T.);
#442 = EDGE_CURVE('',#171,#443,#445,.T.);
#443 = VERTEX_POINT('',#444);
#444 = CARTESIAN_POINT('',(2.227241335952,-10.95,5.7));
#445 = CIRCLE('',#446,7.2);
#446 = AXIS2_PLACEMENT_3D('',#447,#448,#449);
#447 = CARTESIAN_POINT('',(2.227241335952,-3.75,5.7));
#448 = DIRECTION('',(0.,0.,-1.));
#449 = DIRECTION('',(1.,7.E-17,0.));
#450 = ORIENTED_EDGE('',*,*,#451,.T.);
#451 = EDGE_CURVE('',#443,#443,#452,.T.);
#452 = CIRCLE('',#453,1.2);
#453 = AXIS2_PLACEMENT_3D('',#454,#455,#456);
#454 = CARTESIAN_POINT('',(2.227241335952,-9.75,5.7));
#455 = DIRECTION('',(1.,-9.E-17,0.));
#456 = DIRECTION('',(-9.E-17,-1.,0.));
#457 = ORIENTED_EDGE('',*,*,#442,.F.);
#458 = ORIENTED_EDGE('',*,*,#170,.F.);
#459 = ORIENTED_EDGE('',*,*,#460,.T.);
#460 = EDGE_CURVE('',#163,#346,#461,.T.);
#461 = CIRCLE('',#462,4.838104996138);
#462 = AXIS2_PLACEMENT_3D('',#463,#464,#465);
#463 = CARTESIAN_POINT('',(2.227241335952,-3.75,6.));
#464 = DIRECTION('',(0.,0.,-1.));
#465 = DIRECTION('',(1.,7.E-17,0.));
#466 = ORIENTED_EDGE('',*,*,#353,.F.);
#467 = ORIENTED_EDGE('',*,*,#284,.F.);
#468 = ORIENTED_EDGE('',*,*,#212,.T.);
#469 = TOROIDAL_SURFACE('',#470,6.,1.2);
#470 = AXIS2_PLACEMENT_3D('',#471,#472,#473);
#471 = CARTESIAN_POINT('',(2.227241335952,-3.75,5.7));
#472 = DIRECTION('',(0.,0.,-1.));
#473 = DIRECTION('',(1.,7.E-17,0.));
#474 = ADVANCED_FACE('',(#475),#480,.F.);
#475 = FACE_BOUND('',#476,.F.);
#476 = EDGE_LOOP('',(#477,#478,#479));
#477 = ORIENTED_EDGE('',*,*,#345,.F.);
#478 = ORIENTED_EDGE('',*,*,#460,.F.);
#479 = ORIENTED_EDGE('',*,*,#162,.T.);
#480 = PLANE('',#481);
#481 = AXIS2_PLACEMENT_3D('',#482,#483,#484);
#482 = CARTESIAN_POINT('',(5.149613391789,-7.880607966084,6.));
#483 = DIRECTION('',(0.,0.,1.));
#484 = DIRECTION('',(0.866025403784,-0.5,0.));
#485 = ADVANCED_FACE('',(#486),#506,.T.);
#486 = FACE_BOUND('',#487,.T.);
#487 = EDGE_LOOP('',(#488,#497,#504,#505));
#488 = ORIENTED_EDGE('',*,*,#489,.T.);
#489 = EDGE_CURVE('',#416,#490,#492,.T.);
#490 = VERTEX_POINT('',#491);
#491 = CARTESIAN_POINT('',(-17.77275866404,-9.7,5.7));
#492 = CIRCLE('',#493,42.806944444445);
#493 = AXIS2_PLACEMENT_3D('',#494,#495,#496);
#494 = CARTESIAN_POINT('',(-17.77275866404,-52.50694444444,5.7));
#495 = DIRECTION('',(0.,-0.,1.));
#496 = DIRECTION('',(0.222187933961,0.975003857429,0.));
#497 = ORIENTED_EDGE('',*,*,#498,.T.);
#498 = EDGE_CURVE('',#490,#490,#499,.T.);
#499 = CIRCLE('',#500,2.2);
#500 = AXIS2_PLACEMENT_3D('',#501,#502,#503);
#501 = CARTESIAN_POINT('',(-17.77275866404,-7.5,5.7));
#502 = DIRECTION('',(1.,6.E-17,-0.));
#503 = DIRECTION('',(-6.E-17,1.,0.));
#504 = ORIENTED_EDGE('',*,*,#489,.F.);
#505 = ORIENTED_EDGE('',*,*,#424,.F.);
#506 = TOROIDAL_SURFACE('',#507,45.006944444445,2.2);
#507 = AXIS2_PLACEMENT_3D('',#508,#509,#510);
#508 = CARTESIAN_POINT('',(-17.77275866404,-52.50694444444,5.7));
#509 = DIRECTION('',(0.,0.,1.));
#510 = DIRECTION('',(0.222187933961,0.975003857429,0.));
#511 = ADVANCED_FACE('',(#512),#532,.F.);
#512 = FACE_BOUND('',#513,.F.);
#513 = EDGE_LOOP('',(#514,#523,#530,#531));
#514 = ORIENTED_EDGE('',*,*,#515,.T.);
#515 = EDGE_CURVE('',#443,#516,#518,.T.);
#516 = VERTEX_POINT('',#517);
#517 = CARTESIAN_POINT('',(-8.039384184801,-9.795004628915,5.7));
#518 = CIRCLE('',#519,46.206944444444);
#519 = AXIS2_PLACEMENT_3D('',#520,#521,#522);
#520 = CARTESIAN_POINT('',(2.227241335952,35.256944444444,5.7));
#521 = DIRECTION('',(0.,-0.,-1.));
#522 = DIRECTION('',(5.E-17,-1.,0.));
#523 = ORIENTED_EDGE('',*,*,#524,.T.);
#524 = EDGE_CURVE('',#516,#516,#525,.T.);
#525 = CIRCLE('',#526,1.2);
#526 = AXIS2_PLACEMENT_3D('',#527,#528,#529);
#527 = CARTESIAN_POINT('',(-7.772758664048,-8.625,5.7));
#528 = DIRECTION('',(0.975003857429,-0.222187933961,0.));
#529 = DIRECTION('',(-0.222187933961,-0.975003857429,0.));
#530 = ORIENTED_EDGE('',*,*,#515,.F.);
#531 = ORIENTED_EDGE('',*,*,#451,.F.);
#532 = TOROIDAL_SURFACE('',#533,45.006944444444,1.2);
#533 = AXIS2_PLACEMENT_3D('',#534,#535,#536);
#534 = CARTESIAN_POINT('',(2.227241335952,35.256944444444,5.7));
#535 = DIRECTION('',(-0.,-0.,-1.));
#536 = DIRECTION('',(5.E-17,-1.,0.));
#537 = ADVANCED_FACE('',(#538),#557,.T.);
#538 = FACE_BOUND('',#539,.T.);
#539 = EDGE_LOOP('',(#540,#548,#555,#556));
#540 = ORIENTED_EDGE('',*,*,#541,.T.);
#541 = EDGE_CURVE('',#490,#542,#544,.T.);
#542 = VERTEX_POINT('',#543);
#543 = CARTESIAN_POINT('',(-37.,-9.7,5.7));
#544 = LINE('',#545,#546);
#545 = CARTESIAN_POINT('',(-17.77275866404,-9.7,5.7));
#546 = VECTOR('',#547,1.);
#547 = DIRECTION('',(-1.,0.,0.));
#548 = ORIENTED_EDGE('',*,*,#549,.F.);
#549 = EDGE_CURVE('',#542,#542,#550,.T.);
#550 = CIRCLE('',#551,2.2);
#551 = AXIS2_PLACEMENT_3D('',#552,#553,#554);
#552 = CARTESIAN_POINT('',(-37.,-7.5,5.7));
#553 = DIRECTION('',(-1.,0.,0.));
#554 = DIRECTION('',(0.,-1.,0.));
#555 = ORIENTED_EDGE('',*,*,#541,.F.);
#556 = ORIENTED_EDGE('',*,*,#498,.F.);
#557 = CYLINDRICAL_SURFACE('',#558,2.2);
#558 = AXIS2_PLACEMENT_3D('',#559,#560,#561);
#559 = CARTESIAN_POINT('',(-17.77275866404,-7.5,5.7));
#560 = DIRECTION('',(-1.,0.,0.));
#561 = DIRECTION('',(0.,-1.,0.));
#562 = ADVANCED_FACE('',(#563),#583,.F.);
#563 = FACE_BOUND('',#564,.F.);
#564 = EDGE_LOOP('',(#565,#574,#581,#582));
#565 = ORIENTED_EDGE('',*,*,#566,.T.);
#566 = EDGE_CURVE('',#516,#567,#569,.T.);
#567 = VERTEX_POINT('',#568);
#568 = CARTESIAN_POINT('',(-17.77275866404,-8.7,5.7));
#569 = CIRCLE('',#570,43.806944444445);
#570 = AXIS2_PLACEMENT_3D('',#571,#572,#573);
#571 = CARTESIAN_POINT('',(-17.77275866404,-52.50694444444,5.7));
#572 = DIRECTION('',(0.,-0.,1.));
#573 = DIRECTION('',(0.222187933961,0.975003857429,0.));
#574 = ORIENTED_EDGE('',*,*,#575,.T.);
#575 = EDGE_CURVE('',#567,#567,#576,.T.);
#576 = CIRCLE('',#577,1.2);
#577 = AXIS2_PLACEMENT_3D('',#578,#579,#580);
#578 = CARTESIAN_POINT('',(-17.77275866404,-7.5,5.7));
#579 = DIRECTION('',(1.,6.E-17,-0.));
#580 = DIRECTION('',(-6.E-17,1.,0.));
#581 = ORIENTED_EDGE('',*,*,#566,.F.);
#582 = ORIENTED_EDGE('',*,*,#524,.F.);
#583 = TOROIDAL_SURFACE('',#584,45.006944444445,1.2);
#584 = AXIS2_PLACEMENT_3D('',#585,#586,#587);
#585 = CARTESIAN_POINT('',(-17.77275866404,-52.50694444444,5.7));
#586 = DIRECTION('',(0.,0.,1.));
#587 = DIRECTION('',(0.222187933961,0.975003857429,0.));
#588 = ADVANCED_FACE('',(#589),#609,.T.);
#589 = FACE_BOUND('',#590,.T.);
#590 = EDGE_LOOP('',(#591,#600,#607,#608));
#591 = ORIENTED_EDGE('',*,*,#592,.T.);
#592 = EDGE_CURVE('',#542,#593,#595,.T.);
#593 = VERTEX_POINT('',#594);
#594 = CARTESIAN_POINT('',(-40.8,-13.5,5.7));
#595 = CIRCLE('',#596,3.8);
#596 = AXIS2_PLACEMENT_3D('',#597,#598,#599);
#597 = CARTESIAN_POINT('',(-37.,-13.5,5.7));
#598 = DIRECTION('',(0.,-0.,1.));
#599 = DIRECTION('',(0.,1.,0.));
#600 = ORIENTED_EDGE('',*,*,#601,.T.);
#601 = EDGE_CURVE('',#593,#593,#602,.T.);
#602 = CIRCLE('',#603,2.2);
#603 = AXIS2_PLACEMENT_3D('',#604,#605,#606);
#604 = CARTESIAN_POINT('',(-43.,-13.5,5.7));
#605 = DIRECTION('',(1.17E-15,1.,-0.));
#606 = DIRECTION('',(-1.,1.17E-15,0.));
#607 = ORIENTED_EDGE('',*,*,#592,.F.);
#608 = ORIENTED_EDGE('',*,*,#549,.T.);
#609 = TOROIDAL_SURFACE('',#610,6.,2.2);
#610 = AXIS2_PLACEMENT_3D('',#611,#612,#613);
#611 = CARTESIAN_POINT('',(-37.,-13.5,5.7));
#612 = DIRECTION('',(0.,0.,1.));
#613 = DIRECTION('',(0.,1.,0.));
#614 = ADVANCED_FACE('',(#615),#634,.F.);
#615 = FACE_BOUND('',#616,.F.);
#616 = EDGE_LOOP('',(#617,#625,#632,#633));
#617 = ORIENTED_EDGE('',*,*,#618,.T.);
#618 = EDGE_CURVE('',#567,#619,#621,.T.);
#619 = VERTEX_POINT('',#620);
#620 = CARTESIAN_POINT('',(-37.,-8.7,5.7));
#621 = LINE('',#622,#623);
#622 = CARTESIAN_POINT('',(-17.77275866404,-8.7,5.7));
#623 = VECTOR('',#624,1.);
#624 = DIRECTION('',(-1.,0.,0.));
#625 = ORIENTED_EDGE('',*,*,#626,.F.);
#626 = EDGE_CURVE('',#619,#619,#627,.T.);
#627 = CIRCLE('',#628,1.2);
#628 = AXIS2_PLACEMENT_3D('',#629,#630,#631);
#629 = CARTESIAN_POINT('',(-37.,-7.5,5.7));
#630 = DIRECTION('',(-1.,0.,0.));
#631 = DIRECTION('',(0.,-1.,0.));
#632 = ORIENTED_EDGE('',*,*,#618,.F.);
#633 = ORIENTED_EDGE('',*,*,#575,.F.);
#634 = CYLINDRICAL_SURFACE('',#635,1.2);
#635 = AXIS2_PLACEMENT_3D('',#636,#637,#638);
#636 = CARTESIAN_POINT('',(-17.77275866404,-7.5,5.7));
#637 = DIRECTION('',(-1.,0.,0.));
#638 = DIRECTION('',(0.,-1.,0.));
#639 = ADVANCED_FACE('',(#640),#660,.T.);
#640 = FACE_BOUND('',#641,.T.);
#641 = EDGE_LOOP('',(#642,#651,#658,#659));
#642 = ORIENTED_EDGE('',*,*,#643,.T.);
#643 = EDGE_CURVE('',#593,#644,#646,.T.);
#644 = VERTEX_POINT('',#645);
#645 = CARTESIAN_POINT('',(-40.8,-19.5,11.7));
#646 = CIRCLE('',#647,6.);
#647 = AXIS2_PLACEMENT_3D('',#648,#649,#650);
#648 = CARTESIAN_POINT('',(-40.8,-13.5,11.7));
#649 = DIRECTION('',(-1.,-0.,0.));
#650 = DIRECTION('',(0.,-3.E-16,-1.));
#651 = ORIENTED_EDGE('',*,*,#652,.T.);
#652 = EDGE_CURVE('',#644,#644,#653,.T.);
#653 = CIRCLE('',#654,2.2);
#654 = AXIS2_PLACEMENT_3D('',#655,#656,#657);
#655 = CARTESIAN_POINT('',(-43.,-19.5,11.7));
#656 = DIRECTION('',(-0.,-2.3E-16,-1.));
#657 = DIRECTION('',(0.,-1.,2.3E-16));
#658 = ORIENTED_EDGE('',*,*,#643,.F.);
#659 = ORIENTED_EDGE('',*,*,#601,.F.);
#660 = TOROIDAL_SURFACE('',#661,6.,2.2);
#661 = AXIS2_PLACEMENT_3D('',#662,#663,#664);
#662 = CARTESIAN_POINT('',(-43.,-13.5,11.7));
#663 = DIRECTION('',(-1.,0.,0.));
#664 = DIRECTION('',(0.,-3.E-16,-1.));
#665 = ADVANCED_FACE('',(#666),#686,.F.);
#666 = FACE_BOUND('',#667,.F.);
#667 = EDGE_LOOP('',(#668,#677,#684,#685));
#668 = ORIENTED_EDGE('',*,*,#669,.T.);
#669 = EDGE_CURVE('',#619,#670,#672,.T.);
#670 = VERTEX_POINT('',#671);
#671 = CARTESIAN_POINT('',(-41.8,-13.5,5.7));
#672 = CIRCLE('',#673,4.8);
#673 = AXIS2_PLACEMENT_3D('',#674,#675,#676);
#674 = CARTESIAN_POINT('',(-37.,-13.5,5.7));
#675 = DIRECTION('',(0.,-0.,1.));
#676 = DIRECTION('',(0.,1.,0.));
#677 = ORIENTED_EDGE('',*,*,#678,.T.);
#678 = EDGE_CURVE('',#670,#670,#679,.T.);
#679 = CIRCLE('',#680,1.2);
#680 = AXIS2_PLACEMENT_3D('',#681,#682,#683);
#681 = CARTESIAN_POINT('',(-43.,-13.5,5.7));
#682 = DIRECTION('',(1.17E-15,1.,-0.));
#683 = DIRECTION('',(-1.,1.17E-15,0.));
#684 = ORIENTED_EDGE('',*,*,#669,.F.);
#685 = ORIENTED_EDGE('',*,*,#626,.T.);
#686 = TOROIDAL_SURFACE('',#687,6.,1.2);
#687 = AXIS2_PLACEMENT_3D('',#688,#689,#690);
#688 = CARTESIAN_POINT('',(-37.,-13.5,5.7));
#689 = DIRECTION('',(0.,0.,1.));
#690 = DIRECTION('',(0.,1.,0.));
#691 = ADVANCED_FACE('',(#692),#711,.T.);
#692 = FACE_BOUND('',#693,.T.);
#693 = EDGE_LOOP('',(#694,#702,#709,#710));
#694 = ORIENTED_EDGE('',*,*,#695,.T.);
#695 = EDGE_CURVE('',#644,#696,#698,.T.);
#696 = VERTEX_POINT('',#697);
#697 = CARTESIAN_POINT('',(-40.8,-19.5,19.663732951628));
#698 = LINE('',#699,#700);
#699 = CARTESIAN_POINT('',(-40.8,-19.5,11.7));
#700 = VECTOR('',#701,1.);
#701 = DIRECTION('',(0.,0.,1.));
#702 = ORIENTED_EDGE('',*,*,#703,.F.);
#703 = EDGE_CURVE('',#696,#696,#704,.T.);
#704 = CIRCLE('',#705,2.2);
#705 = AXIS2_PLACEMENT_3D('',#706,#707,#708);
#706 = CARTESIAN_POINT('',(-43.,-19.5,19.663732951628));
#707 = DIRECTION('',(0.,0.,1.));
#708 = DIRECTION('',(1.,0.,0.));
#709 = ORIENTED_EDGE('',*,*,#695,.F.);
#710 = ORIENTED_EDGE('',*,*,#652,.F.);
#711 = CYLINDRICAL_SURFACE('',#712,2.2);
#712 = AXIS2_PLACEMENT_3D('',#713,#714,#715);
#713 = CARTESIAN_POINT('',(-43.,-19.5,11.7));
#714 = DIRECTION('',(0.,0.,1.));
#715 = DIRECTION('',(1.,0.,0.));
#716 = ADVANCED_FACE('',(#717),#737,.F.);
#717 = FACE_BOUND('',#718,.F.);
#718 = EDGE_LOOP('',(#719,#728,#735,#736));
#719 = ORIENTED_EDGE('',*,*,#720,.T.);
#720 = EDGE_CURVE('',#670,#721,#723,.T.);
#721 = VERTEX_POINT('',#722);
#722 = CARTESIAN_POINT('',(-41.8,-19.5,11.7));
#723 = CIRCLE('',#724,6.);
#724 = AXIS2_PLACEMENT_3D('',#725,#726,#727);
#725 = CARTESIAN_POINT('',(-41.8,-13.5,11.7));
#726 = DIRECTION('',(-1.,-0.,0.));
#727 = DIRECTION('',(0.,-3.E-16,-1.));
#728 = ORIENTED_EDGE('',*,*,#729,.T.);
#729 = EDGE_CURVE('',#721,#721,#730,.T.);
#730 = CIRCLE('',#731,1.2);
#731 = AXIS2_PLACEMENT_3D('',#732,#733,#734);
#732 = CARTESIAN_POINT('',(-43.,-19.5,11.7));
#733 = DIRECTION('',(-0.,-2.3E-16,-1.));
#734 = DIRECTION('',(0.,-1.,2.3E-16));
#735 = ORIENTED_EDGE('',*,*,#720,.F.);
#736 = ORIENTED_EDGE('',*,*,#678,.F.);
#737 = TOROIDAL_SURFACE('',#738,6.,1.2);
#738 = AXIS2_PLACEMENT_3D('',#739,#740,#741);
#739 = CARTESIAN_POINT('',(-43.,-13.5,11.7));
#740 = DIRECTION('',(-1.,0.,0.));
#741 = DIRECTION('',(0.,-3.E-16,-1.));
#742 = ADVANCED_FACE('',(#743),#763,.T.);
#743 = FACE_BOUND('',#744,.T.);
#744 = EDGE_LOOP('',(#745,#754,#761,#762));
#745 = ORIENTED_EDGE('',*,*,#746,.T.);
#746 = EDGE_CURVE('',#696,#747,#749,.T.);
#747 = VERTEX_POINT('',#748);
#748 = CARTESIAN_POINT('',(-40.8,-15.375,25.363239509217));
#749 = CIRCLE('',#750,6.);
#750 = AXIS2_PLACEMENT_3D('',#751,#752,#753);
#751 = CARTESIAN_POINT('',(-40.8,-13.5,19.663732951628));
#752 = DIRECTION('',(-1.,0.,0.));
#753 = DIRECTION('',(0.,-1.,1.78E-15));
#754 = ORIENTED_EDGE('',*,*,#755,.T.);
#755 = EDGE_CURVE('',#747,#747,#756,.T.);
#756 = CIRCLE('',#757,2.2);
#757 = AXIS2_PLACEMENT_3D('',#758,#759,#760);
#758 = CARTESIAN_POINT('',(-43.,-15.375,25.363239509217));
#759 = DIRECTION('',(-0.,-0.949917759598,-0.3125));
#760 = DIRECTION('',(0.,-0.3125,0.949917759598));
#761 = ORIENTED_EDGE('',*,*,#746,.F.);
#762 = ORIENTED_EDGE('',*,*,#703,.T.);
#763 = TOROIDAL_SURFACE('',#764,6.,2.2);
#764 = AXIS2_PLACEMENT_3D('',#765,#766,#767);
#765 = CARTESIAN_POINT('',(-43.,-13.5,19.663732951628));
#766 = DIRECTION('',(-1.,0.,0.));
#767 = DIRECTION('',(0.,-1.,1.78E-15));
#768 = ADVANCED_FACE('',(#769),#788,.F.);
#769 = FACE_BOUND('',#770,.F.);
#770 = EDGE_LOOP('',(#771,#779,#786,#787));
#771 = ORIENTED_EDGE('',*,*,#772,.T.);
#772 = EDGE_CURVE('',#721,#773,#775,.T.);
#773 = VERTEX_POINT('',#774);
#774 = CARTESIAN_POINT('',(-41.8,-19.5,19.663732951628));
#775 = LINE('',#776,#777);
#776 = CARTESIAN_POINT('',(-41.8,-19.5,11.7));
#777 = VECTOR('',#778,1.);
#778 = DIRECTION('',(0.,0.,1.));
#779 = ORIENTED_EDGE('',*,*,#780,.F.);
#780 = EDGE_CURVE('',#773,#773,#781,.T.);
#781 = CIRCLE('',#782,1.2);
#782 = AXIS2_PLACEMENT_3D('',#783,#784,#785);
#783 = CARTESIAN_POINT('',(-43.,-19.5,19.663732951628));
#784 = DIRECTION('',(0.,0.,1.));
#785 = DIRECTION('',(1.,0.,0.));
#786 = ORIENTED_EDGE('',*,*,#772,.F.);
#787 = ORIENTED_EDGE('',*,*,#729,.F.);
#788 = CYLINDRICAL_SURFACE('',#789,1.2);
#789 = AXIS2_PLACEMENT_3D('',#790,#791,#792);
#790 = CARTESIAN_POINT('',(-43.,-19.5,11.7));
#791 = DIRECTION('',(0.,0.,1.));
#792 = DIRECTION('',(1.,0.,0.));
#793 = ADVANCED_FACE('',(#794),#814,.T.);
#794 = FACE_BOUND('',#795,.T.);
#795 = EDGE_LOOP('',(#796,#805,#812,#813));
#796 = ORIENTED_EDGE('',*,*,#797,.T.);
#797 = EDGE_CURVE('',#747,#798,#800,.T.);
#798 = VERTEX_POINT('',#799);
#799 = CARTESIAN_POINT('',(-40.8,-11.25,31.062746066806));
#800 = CIRCLE('',#801,6.);
#801 = AXIS2_PLACEMENT_3D('',#802,#803,#804);
#802 = CARTESIAN_POINT('',(-40.8,-17.25,31.062746066806));
#803 = DIRECTION('',(1.,-0.,0.));
#804 = DIRECTION('',(0.,0.3125,-0.949917759598));
#805 = ORIENTED_EDGE('',*,*,#806,.T.);
#806 = EDGE_CURVE('',#798,#798,#807,.T.);
#807 = CIRCLE('',#808,2.2);
#808 = AXIS2_PLACEMENT_3D('',#809,#810,#811);
#809 = CARTESIAN_POINT('',(-43.,-11.25,31.062746066806));
#810 = DIRECTION('',(0.,-2.2E-16,-1.));
#811 = DIRECTION('',(0.,1.,-2.2E-16));
#812 = ORIENTED_EDGE('',*,*,#797,.F.);
#813 = ORIENTED_EDGE('',*,*,#755,.F.);
#814 = TOROIDAL_SURFACE('',#815,6.,2.2);
#815 = AXIS2_PLACEMENT_3D('',#816,#817,#818);
#816 = CARTESIAN_POINT('',(-43.,-17.25,31.062746066806));
#817 = DIRECTION('',(1.,0.,0.));
#818 = DIRECTION('',(0.,0.3125,-0.949917759598));
#819 = ADVANCED_FACE('',(#820),#840,.F.);
#820 = FACE_BOUND('',#821,.F.);
#821 = EDGE_LOOP('',(#822,#831,#838,#839));
#822 = ORIENTED_EDGE('',*,*,#823,.T.);
#823 = EDGE_CURVE('',#773,#824,#826,.T.);
#824 = VERTEX_POINT('',#825);
#825 = CARTESIAN_POINT('',(-41.8,-15.375,25.363239509217));
#826 = CIRCLE('',#827,6.);
#827 = AXIS2_PLACEMENT_3D('',#828,#829,#830);
#828 = CARTESIAN_POINT('',(-41.8,-13.5,19.663732951628));
#829 = DIRECTION('',(-1.,0.,0.));
#830 = DIRECTION('',(0.,-1.,1.78E-15));
#831 = ORIENTED_EDGE('',*,*,#832,.T.);
#832 = EDGE_CURVE('',#824,#824,#833,.T.);
#833 = CIRCLE('',#834,1.2);
#834 = AXIS2_PLACEMENT_3D('',#835,#836,#837);
#835 = CARTESIAN_POINT('',(-43.,-15.375,25.363239509217));
#836 = DIRECTION('',(-0.,-0.949917759598,-0.3125));
#837 = DIRECTION('',(0.,-0.3125,0.949917759598));
#838 = ORIENTED_EDGE('',*,*,#823,.F.);
#839 = ORIENTED_EDGE('',*,*,#780,.T.);
#840 = TOROIDAL_SURFACE('',#841,6.,1.2);
#841 = AXIS2_PLACEMENT_3D('',#842,#843,#844);
#842 = CARTESIAN_POINT('',(-43.,-13.5,19.663732951628));
#843 = DIRECTION('',(-1.,0.,0.));
#844 = DIRECTION('',(0.,-1.,1.78E-15));
#845 = ADVANCED_FACE('',(#846),#866,.T.);
#846 = FACE_BOUND('',#847,.T.);
#847 = EDGE_LOOP('',(#848,#857,#864,#865));
#848 = ORIENTED_EDGE('',*,*,#849,.T.);
#849 = EDGE_CURVE('',#798,#850,#852,.T.);
#850 = VERTEX_POINT('',#851);
#851 = CARTESIAN_POINT('',(-39.85,-11.25,33.576209812318));
#852 = CIRCLE('',#853,3.8);
#853 = AXIS2_PLACEMENT_3D('',#854,#855,#856);
#854 = CARTESIAN_POINT('',(-37.,-11.25,31.062746066806));
#855 = DIRECTION('',(0.,1.,0.));
#856 = DIRECTION('',(-1.,0.,-5.9E-16));
#857 = ORIENTED_EDGE('',*,*,#858,.T.);
#858 = EDGE_CURVE('',#850,#850,#859,.T.);
#859 = CIRCLE('',#860,2.2);
#860 = AXIS2_PLACEMENT_3D('',#861,#862,#863);
#861 = CARTESIAN_POINT('',(-41.5,-11.25,35.031373033403));
#862 = DIRECTION('',(-0.661437827766,0.,-0.75));
#863 = DIRECTION('',(-0.75,0.,0.661437827766));
#864 = ORIENTED_EDGE('',*,*,#849,.F.);
#865 = ORIENTED_EDGE('',*,*,#806,.F.);
#866 = TOROIDAL_SURFACE('',#867,6.,2.2);
#867 = AXIS2_PLACEMENT_3D('',#868,#869,#870);
#868 = CARTESIAN_POINT('',(-37.,-11.25,31.062746066806));
#869 = DIRECTION('',(0.,1.,0.));
#870 = DIRECTION('',(-1.,0.,-5.9E-16));
#871 = ADVANCED_FACE('',(#872),#892,.F.);
#872 = FACE_BOUND('',#873,.F.);
#873 = EDGE_LOOP('',(#874,#883,#890,#891));
#874 = ORIENTED_EDGE('',*,*,#875,.T.);
#875 = EDGE_CURVE('',#824,#876,#878,.T.);
#876 = VERTEX_POINT('',#877);
#877 = CARTESIAN_POINT('',(-41.8,-11.25,31.062746066806));
#878 = CIRCLE('',#879,6.);
#879 = AXIS2_PLACEMENT_3D('',#880,#881,#882);
#880 = CARTESIAN_POINT('',(-41.8,-17.25,31.062746066806));
#881 = DIRECTION('',(1.,-0.,0.));
#882 = DIRECTION('',(0.,0.3125,-0.949917759598));
#883 = ORIENTED_EDGE('',*,*,#884,.T.);
#884 = EDGE_CURVE('',#876,#876,#885,.T.);
#885 = CIRCLE('',#886,1.2);
#886 = AXIS2_PLACEMENT_3D('',#887,#888,#889);
#887 = CARTESIAN_POINT('',(-43.,-11.25,31.062746066806));
#888 = DIRECTION('',(0.,-2.2E-16,-1.));
#889 = DIRECTION('',(0.,1.,-2.2E-16));
#890 = ORIENTED_EDGE('',*,*,#875,.F.);
#891 = ORIENTED_EDGE('',*,*,#832,.F.);
#892 = TOROIDAL_SURFACE('',#893,6.,1.2);
#893 = AXIS2_PLACEMENT_3D('',#894,#895,#896);
#894 = CARTESIAN_POINT('',(-43.,-17.25,31.062746066806));
#895 = DIRECTION('',(1.,0.,0.));
#896 = DIRECTION('',(0.,0.3125,-0.949917759598));
#897 = ADVANCED_FACE('',(#898),#918,.T.);
#898 = FACE_BOUND('',#899,.T.);
#899 = EDGE_LOOP('',(#900,#909,#916,#917));
#900 = ORIENTED_EDGE('',*,*,#901,.T.);
#901 = EDGE_CURVE('',#850,#902,#904,.T.);
#902 = VERTEX_POINT('',#903);
#903 = CARTESIAN_POINT('',(-37.91362550118,-11.25,37.639651711914));
#904 = CIRCLE('',#905,8.2);
#905 = AXIS2_PLACEMENT_3D('',#906,#907,#908);
#906 = CARTESIAN_POINT('',(-46.,-11.25,39.));
#907 = DIRECTION('',(0.,-1.,0.));
#908 = DIRECTION('',(0.75,0.,-0.661437827766));
#909 = ORIENTED_EDGE('',*,*,#910,.T.);
#910 = EDGE_CURVE('',#902,#902,#911,.T.);
#911 = CIRCLE('',#912,2.2);
#912 = AXIS2_PLACEMENT_3D('',#913,#914,#915);
#913 = CARTESIAN_POINT('',(-40.08314061062,-11.25,38.00462320384));
#914 = DIRECTION('',(-0.165896132693,-0.,-0.986143231563));
#915 = DIRECTION('',(0.986143231563,0.,-0.165896132693));
#916 = ORIENTED_EDGE('',*,*,#901,.F.);
#917 = ORIENTED_EDGE('',*,*,#858,.F.);
#918 = TOROIDAL_SURFACE('',#919,6.,2.2);
#919 = AXIS2_PLACEMENT_3D('',#920,#921,#922);
#920 = CARTESIAN_POINT('',(-46.,-11.25,39.));
#921 = DIRECTION('',(0.,-1.,0.));
#922 = DIRECTION('',(0.75,0.,-0.661437827766));
#923 = ADVANCED_FACE('',(#924),#944,.F.);
#924 = FACE_BOUND('',#925,.F.);
#925 = EDGE_LOOP('',(#926,#935,#942,#943));
#926 = ORIENTED_EDGE('',*,*,#927,.T.);
#927 = EDGE_CURVE('',#876,#928,#930,.T.);
#928 = VERTEX_POINT('',#929);
#929 = CARTESIAN_POINT('',(-40.6,-11.25,34.237647640084));
#930 = CIRCLE('',#931,4.8);
#931 = AXIS2_PLACEMENT_3D('',#932,#933,#934);
#932 = CARTESIAN_POINT('',(-37.,-11.25,31.062746066806));
#933 = DIRECTION('',(0.,1.,0.));
#934 = DIRECTION('',(-1.,0.,-5.9E-16));
#935 = ORIENTED_EDGE('',*,*,#936,.T.);
#936 = EDGE_CURVE('',#928,#928,#937,.T.);
#937 = CIRCLE('',#938,1.2);
#938 = AXIS2_PLACEMENT_3D('',#939,#940,#941);
#939 = CARTESIAN_POINT('',(-41.5,-11.25,35.031373033403));
#940 = DIRECTION('',(-0.661437827766,0.,-0.75));
#941 = DIRECTION('',(-0.75,0.,0.661437827766));
#942 = ORIENTED_EDGE('',*,*,#927,.F.);
#943 = ORIENTED_EDGE('',*,*,#884,.F.);
#944 = TOROIDAL_SURFACE('',#945,6.,1.2);
#945 = AXIS2_PLACEMENT_3D('',#946,#947,#948);
#946 = CARTESIAN_POINT('',(-37.,-11.25,31.062746066806));
#947 = DIRECTION('',(0.,1.,0.));
#948 = DIRECTION('',(-1.,0.,-5.9E-16));
#949 = ADVANCED_FACE('',(#950,#953),#964,.T.);
#950 = FACE_BOUND('',#951,.T.);
#951 = EDGE_LOOP('',(#952));
#952 = ORIENTED_EDGE('',*,*,#910,.F.);
#953 = FACE_BOUND('',#954,.T.);
#954 = EDGE_LOOP('',(#955));
#955 = ORIENTED_EDGE('',*,*,#956,.T.);
#956 = EDGE_CURVE('',#957,#957,#959,.T.);
#957 = VERTEX_POINT('',#958);
#958 = CARTESIAN_POINT('',(-38.89976873274,-11.25,37.805547844607));
#959 = CIRCLE('',#960,1.2);
#960 = AXIS2_PLACEMENT_3D('',#961,#962,#963);
#961 = CARTESIAN_POINT('',(-40.08314061062,-11.25,38.00462320384));
#962 = DIRECTION('',(-0.165896132693,-0.,-0.986143231563));
#963 = DIRECTION('',(0.986143231563,0.,-0.165896132693));
#964 = PLANE('',#965);
#965 = AXIS2_PLACEMENT_3D('',#966,#967,#968);
#966 = CARTESIAN_POINT('',(-40.08314061062,-11.25,38.00462320384));
#967 = DIRECTION('',(0.165896132693,0.,0.986143231563));
#968 = DIRECTION('',(0.986143231563,0.,-0.165896132693));
#969 = ADVANCED_FACE('',(#970),#982,.F.);
#970 = FACE_BOUND('',#971,.F.);
#971 = EDGE_LOOP('',(#972,#979,#980,#981));
#972 = ORIENTED_EDGE('',*,*,#973,.T.);
#973 = EDGE_CURVE('',#928,#957,#974,.T.);
#974 = CIRCLE('',#975,7.2);
#975 = AXIS2_PLACEMENT_3D('',#976,#977,#978);
#976 = CARTESIAN_POINT('',(-46.,-11.25,39.));
#977 = DIRECTION('',(0.,-1.,0.));
#978 = DIRECTION('',(0.75,0.,-0.661437827766));
#979 = ORIENTED_EDGE('',*,*,#956,.T.);
#980 = ORIENTED_EDGE('',*,*,#973,.F.);
#981 = ORIENTED_EDGE('',*,*,#936,.F.);
#982 = TOROIDAL_SURFACE('',#983,6.,1.2);
#983 = AXIS2_PLACEMENT_3D('',#984,#985,#986);
#984 = CARTESIAN_POINT('',(-46.,-11.25,39.));
#985 = DIRECTION('',(0.,-1.,0.));
#986 = DIRECTION('',(0.75,0.,-0.661437827766));
#987 = ( GEOMETRIC_REPRESENTATION_CONTEXT(3) 
GLOBAL_UNCERTAINTY_ASSIGNED_CONTEXT((#991)) GLOBAL_UNIT_ASSIGNED_CONTEXT
((#988,#989,#990)) REPRESENTATION_CONTEXT('Context #1',
  '3D Context with UNIT and UNCERTAINTY') );
#988 = ( LENGTH_UNIT() NAMED_UNIT(*) SI_UNIT(.MILLI.,.METRE.) );
#989 = ( NAMED_UNIT(*) PLANE_ANGLE_UNIT() SI_UNIT($,.RADIAN.) );
#990 = ( NAMED_UNIT(*) SI_UNIT($,.STERADIAN.) SOLID_ANGLE_UNIT() );
#991 = UNCERTAINTY_MEASURE_WITH_UNIT(LENGTH_MEASURE(2.E-07),#988,
  'distance_accuracy_value','confusion accuracy');
#992 = PRODUCT_RELATED_PRODUCT_CATEGORY('part',$,(#7));
ENDSEC;
END-ISO-10303-21;
