ISO-10303-21;
HEADER;
FILE_DESCRIPTION(('FreeCAD Model'),'2;1');
FILE_NAME('Open CASCADE Shape Model','2026-09-30T05:24:20',('FreeCAD'),(
    'FreeCAD'),'Open CASCADE STEP processor 7.8','FreeCAD','Unknown');
FILE_SCHEMA(('AUTOMOTIVE_DESIGN { 1 0 10303 214 1 1 1 1 }'));
ENDSEC;
DATA;
#1 = APPLICATION_PROTOCOL_DEFINITION('international standard',
  'automotive_design',2000,#2);
#2 = APPLICATION_CONTEXT(
  'core data for automotive mechanical design processes');
#3 = SHAPE_DEFINITION_REPRESENTATION(#4,#10);
#4 = PRODUCT_DEFINITION_SHAPE('','',#5);
#5 = PRODUCT_DEFINITION('design','',#6,#9);
#6 = PRODUCT_DEFINITION_FORMATION('','',#7);
#7 = PRODUCT('Open CASCADE STEP translator 7.8 48',
  'Open CASCADE STEP translator 7.8 48','',(#8));
#8 = PRODUCT_CONTEXT('',#2,'mechanical');
#9 = PRODUCT_DEFINITION_CONTEXT('part definition',#2,'design');
#10 = ADVANCED_BREP_SHAPE_REPRESENTATION('',(#11,#15),#517);
#11 = AXIS2_PLACEMENT_3D('',#12,#13,#14);
#12 = CARTESIAN_POINT('',(0.,0.,0.));
#13 = DIRECTION('',(0.,0.,1.));
#14 = DIRECTION('',(1.,0.,-0.));
#15 = MANIFOLD_SOLID_BREP('',#16);
#16 = CLOSED_SHELL('',(#17,#50,#70,#96,#121,#146,#172,#198,#223,#249,
    #275,#301,#327,#352,#378,#404,#429,#454,#480,#500));
#17 = ADVANCED_FACE('',(#18),#45,.T.);
#18 = FACE_BOUND('',#19,.T.);
#19 = EDGE_LOOP('',(#20,#30,#37,#38));
#20 = ORIENTED_EDGE('',*,*,#21,.T.);
#21 = EDGE_CURVE('',#22,#24,#26,.T.);
#22 = VERTEX_POINT('',#23);
#23 = CARTESIAN_POINT('',(18.427241335952,-17.75,51.));
#24 = VERTEX_POINT('',#25);
#25 = CARTESIAN_POINT('',(18.427241335952,-21.,51.));
#26 = LINE('',#27,#28);
#27 = CARTESIAN_POINT('',(18.427241335952,-16.75,51.));
#28 = VECTOR('',#29,1.);
#29 = DIRECTION('',(0.,-1.,0.));
#30 = ORIENTED_EDGE('',*,*,#31,.F.);
#31 = EDGE_CURVE('',#24,#24,#32,.T.);
#32 = CIRCLE('',#33,2.2);
#33 = AXIS2_PLACEMENT_3D('',#34,#35,#36);
#34 = CARTESIAN_POINT('',(16.227241335952,-21.,51.));
#35 = DIRECTION('',(0.,-1.,0.));
#36 = DIRECTION('',(1.,0.,0.));
#37 = ORIENTED_EDGE('',*,*,#21,.F.);
#38 = ORIENTED_EDGE('',*,*,#39,.T.);
#39 = EDGE_CURVE('',#22,#22,#40,.T.);
#40 = CIRCLE('',#41,2.2);
#41 = AXIS2_PLACEMENT_3D('',#42,#43,#44);
#42 = CARTESIAN_POINT('',(16.227241335952,-17.75,51.));
#43 = DIRECTION('',(0.,-1.,0.));
#44 = DIRECTION('',(1.,0.,0.));
#45 = CYLINDRICAL_SURFACE('',#46,2.2);
#46 = AXIS2_PLACEMENT_3D('',#47,#48,#49);
#47 = CARTESIAN_POINT('',(16.227241335952,-16.75,51.));
#48 = DIRECTION('',(0.,-1.,0.));
#49 = DIRECTION('',(1.,0.,0.));
#50 = ADVANCED_FACE('',(#51,#54),#65,.F.);
#51 = FACE_BOUND('',#52,.F.);
#52 = EDGE_LOOP('',(#53));
#53 = ORIENTED_EDGE('',*,*,#39,.T.);
#54 = FACE_BOUND('',#55,.F.);
#55 = EDGE_LOOP('',(#56));
#56 = ORIENTED_EDGE('',*,*,#57,.F.);
#57 = EDGE_CURVE('',#58,#58,#60,.T.);
#58 = VERTEX_POINT('',#59);
#59 = CARTESIAN_POINT('',(17.427241335952,-17.75,51.));
#60 = CIRCLE('',#61,1.2);
#61 = AXIS2_PLACEMENT_3D('',#62,#63,#64);
#62 = CARTESIAN_POINT('',(16.227241335952,-17.75,51.));
#63 = DIRECTION('',(0.,-1.,0.));
#64 = DIRECTION('',(1.,0.,0.));
#65 = PLANE('',#66);
#66 = AXIS2_PLACEMENT_3D('',#67,#68,#69);
#67 = CARTESIAN_POINT('',(16.227241335952,-17.75,51.));
#68 = DIRECTION('',(-0.,-1.,-0.));
#69 = DIRECTION('',(0.,0.,-1.));
#70 = ADVANCED_FACE('',(#71),#91,.T.);
#71 = FACE_BOUND('',#72,.T.);
#72 = EDGE_LOOP('',(#73,#82,#89,#90));
#73 = ORIENTED_EDGE('',*,*,#74,.T.);
#74 = EDGE_CURVE('',#24,#75,#77,.T.);
#75 = VERTEX_POINT('',#76);
#76 = CARTESIAN_POINT('',(10.227241335952,-29.2,51.));
#77 = CIRCLE('',#78,8.2);
#78 = AXIS2_PLACEMENT_3D('',#79,#80,#81);
#79 = CARTESIAN_POINT('',(10.227241335952,-21.,51.));
#80 = DIRECTION('',(0.,-0.,-1.));
#81 = DIRECTION('',(1.,-1.18E-15,0.));
#82 = ORIENTED_EDGE('',*,*,#83,.T.);
#83 = EDGE_CURVE('',#75,#75,#84,.T.);
#84 = CIRCLE('',#85,2.2);
#85 = AXIS2_PLACEMENT_3D('',#86,#87,#88);
#86 = CARTESIAN_POINT('',(10.227241335952,-27.,51.));
#87 = DIRECTION('',(1.,8.8E-16,0.));
#88 = DIRECTION('',(8.8E-16,-1.,0.));
#89 = ORIENTED_EDGE('',*,*,#74,.F.);
#90 = ORIENTED_EDGE('',*,*,#31,.T.);
#91 = TOROIDAL_SURFACE('',#92,6.,2.2);
#92 = AXIS2_PLACEMENT_3D('',#93,#94,#95);
#93 = CARTESIAN_POINT('',(10.227241335952,-21.,51.));
#94 = DIRECTION('',(0.,0.,-1.));
#95 = DIRECTION('',(1.,-1.18E-15,0.));
#96 = ADVANCED_FACE('',(#97),#116,.F.);
#97 = FACE_BOUND('',#98,.F.);
#98 = EDGE_LOOP('',(#99,#107,#114,#115));
#99 = ORIENTED_EDGE('',*,*,#100,.T.);
#100 = EDGE_CURVE('',#58,#101,#103,.T.);
#101 = VERTEX_POINT('',#102);
#102 = CARTESIAN_POINT('',(17.427241335952,-21.,51.));
#103 = LINE('',#104,#105);
#104 = CARTESIAN_POINT('',(17.427241335952,-16.75,51.));
#105 = VECTOR('',#106,1.);
#106 = DIRECTION('',(0.,-1.,0.));
#107 = ORIENTED_EDGE('',*,*,#108,.F.);
#108 = EDGE_CURVE('',#101,#101,#109,.T.);
#109 = CIRCLE('',#110,1.2);
#110 = AXIS2_PLACEMENT_3D('',#111,#112,#113);
#111 = CARTESIAN_POINT('',(16.227241335952,-21.,51.));
#112 = DIRECTION('',(0.,-1.,0.));
#113 = DIRECTION('',(1.,0.,0.));
#114 = ORIENTED_EDGE('',*,*,#100,.F.);
#115 = ORIENTED_EDGE('',*,*,#57,.T.);
#116 = CYLINDRICAL_SURFACE('',#117,1.2);
#117 = AXIS2_PLACEMENT_3D('',#118,#119,#120);
#118 = CARTESIAN_POINT('',(16.227241335952,-16.75,51.));
#119 = DIRECTION('',(0.,-1.,0.));
#120 = DIRECTION('',(1.,0.,0.));
#121 = ADVANCED_FACE('',(#122),#141,.T.);
#122 = FACE_BOUND('',#123,.T.);
#123 = EDGE_LOOP('',(#124,#132,#139,#140));
#124 = ORIENTED_EDGE('',*,*,#125,.T.);
#125 = EDGE_CURVE('',#75,#126,#128,.T.);
#126 = VERTEX_POINT('',#127);
#127 = CARTESIAN_POINT('',(-32.,-29.2,51.));
#128 = LINE('',#129,#130);
#129 = CARTESIAN_POINT('',(10.227241335952,-29.2,51.));
#130 = VECTOR('',#131,1.);
#131 = DIRECTION('',(-1.,0.,0.));
#132 = ORIENTED_EDGE('',*,*,#133,.F.);
#133 = EDGE_CURVE('',#126,#126,#134,.T.);
#134 = CIRCLE('',#135,2.2);
#135 = AXIS2_PLACEMENT_3D('',#136,#137,#138);
#136 = CARTESIAN_POINT('',(-32.,-27.,51.));
#137 = DIRECTION('',(-1.,0.,0.));
#138 = DIRECTION('',(0.,-1.,0.));
#139 = ORIENTED_EDGE('',*,*,#125,.F.);
#140 = ORIENTED_EDGE('',*,*,#83,.F.);
#141 = CYLINDRICAL_SURFACE('',#142,2.2);
#142 = AXIS2_PLACEMENT_3D('',#143,#144,#145);
#143 = CARTESIAN_POINT('',(10.227241335952,-27.,51.));
#144 = DIRECTION('',(-1.,0.,0.));
#145 = DIRECTION('',(0.,-1.,0.));
#146 = ADVANCED_FACE('',(#147),#167,.F.);
#147 = FACE_BOUND('',#148,.F.);
#148 = EDGE_LOOP('',(#149,#158,#165,#166));
#149 = ORIENTED_EDGE('',*,*,#150,.T.);
#150 = EDGE_CURVE('',#101,#151,#153,.T.);
#151 = VERTEX_POINT('',#152);
#152 = CARTESIAN_POINT('',(10.227241335952,-28.2,51.));
#153 = CIRCLE('',#154,7.2);
#154 = AXIS2_PLACEMENT_3D('',#155,#156,#157);
#155 = CARTESIAN_POINT('',(10.227241335952,-21.,51.));
#156 = DIRECTION('',(0.,-0.,-1.));
#157 = DIRECTION('',(1.,-1.18E-15,0.));
#158 = ORIENTED_EDGE('',*,*,#159,.T.);
#159 = EDGE_CURVE('',#151,#151,#160,.T.);
#160 = CIRCLE('',#161,1.2);
#161 = AXIS2_PLACEMENT_3D('',#162,#163,#164);
#162 = CARTESIAN_POINT('',(10.227241335952,-27.,51.));
#163 = DIRECTION('',(1.,8.8E-16,0.));
#164 = DIRECTION('',(8.8E-16,-1.,0.));
#165 = ORIENTED_EDGE('',*,*,#150,.F.);
#166 = ORIENTED_EDGE('',*,*,#108,.T.);
#167 = TOROIDAL_SURFACE('',#168,6.,1.2);
#168 = AXIS2_PLACEMENT_3D('',#169,#170,#171);
#169 = CARTESIAN_POINT('',(10.227241335952,-21.,51.));
#170 = DIRECTION('',(0.,0.,-1.));
#171 = DIRECTION('',(1.,-1.18E-15,0.));
#172 = ADVANCED_FACE('',(#173),#193,.T.);
#173 = FACE_BOUND('',#174,.T.);
#174 = EDGE_LOOP('',(#175,#184,#191,#192));
#175 = ORIENTED_EDGE('',*,*,#176,.T.);
#176 = EDGE_CURVE('',#126,#177,#179,.T.);
#177 = VERTEX_POINT('',#178);
#178 = CARTESIAN_POINT('',(-38.,-29.2,45.));
#179 = CIRCLE('',#180,6.);
#180 = AXIS2_PLACEMENT_3D('',#181,#182,#183);
#181 = CARTESIAN_POINT('',(-32.,-29.2,45.));
#182 = DIRECTION('',(0.,-1.,0.));
#183 = DIRECTION('',(0.,0.,1.));
#184 = ORIENTED_EDGE('',*,*,#185,.T.);
#185 = EDGE_CURVE('',#177,#177,#186,.T.);
#186 = CIRCLE('',#187,2.2);
#187 = AXIS2_PLACEMENT_3D('',#188,#189,#190);
#188 = CARTESIAN_POINT('',(-38.,-27.,45.));
#189 = DIRECTION('',(5.1E-16,0.,1.));
#190 = DIRECTION('',(-1.,0.,5.1E-16));
#191 = ORIENTED_EDGE('',*,*,#176,.F.);
#192 = ORIENTED_EDGE('',*,*,#133,.T.);
#193 = TOROIDAL_SURFACE('',#194,6.,2.2);
#194 = AXIS2_PLACEMENT_3D('',#195,#196,#197);
#195 = CARTESIAN_POINT('',(-32.,-27.,45.));
#196 = DIRECTION('',(0.,-1.,0.));
#197 = DIRECTION('',(0.,0.,1.));
#198 = ADVANCED_FACE('',(#199),#218,.F.);
#199 = FACE_BOUND('',#200,.F.);
#200 = EDGE_LOOP('',(#201,#209,#216,#217));
#201 = ORIENTED_EDGE('',*,*,#202,.T.);
#202 = EDGE_CURVE('',#151,#203,#205,.T.);
#203 = VERTEX_POINT('',#204);
#204 = CARTESIAN_POINT('',(-32.,-28.2,51.));
#205 = LINE('',#206,#207);
#206 = CARTESIAN_POINT('',(10.227241335952,-28.2,51.));
#207 = VECTOR('',#208,1.);
#208 = DIRECTION('',(-1.,0.,0.));
#209 = ORIENTED_EDGE('',*,*,#210,.F.);
#210 = EDGE_CURVE('',#203,#203,#211,.T.);
#211 = CIRCLE('',#212,1.2);
#212 = AXIS2_PLACEMENT_3D('',#213,#214,#215);
#213 = CARTESIAN_POINT('',(-32.,-27.,51.));
#214 = DIRECTION('',(-1.,0.,0.));
#215 = DIRECTION('',(0.,-1.,0.));
#216 = ORIENTED_EDGE('',*,*,#202,.F.);
#217 = ORIENTED_EDGE('',*,*,#159,.F.);
#218 = CYLINDRICAL_SURFACE('',#219,1.2);
#219 = AXIS2_PLACEMENT_3D('',#220,#221,#222);
#220 = CARTESIAN_POINT('',(10.227241335952,-27.,51.));
#221 = DIRECTION('',(-1.,0.,0.));
#222 = DIRECTION('',(0.,-1.,0.));
#223 = ADVANCED_FACE('',(#224),#244,.T.);
#224 = FACE_BOUND('',#225,.T.);
#225 = EDGE_LOOP('',(#226,#235,#242,#243));
#226 = ORIENTED_EDGE('',*,*,#227,.T.);
#227 = EDGE_CURVE('',#177,#228,#230,.T.);
#228 = VERTEX_POINT('',#229);
#229 = CARTESIAN_POINT('',(-38.,-24.075,37.398396550727));
#230 = CIRCLE('',#231,8.2);
#231 = AXIS2_PLACEMENT_3D('',#232,#233,#234);
#232 = CARTESIAN_POINT('',(-38.,-21.,45.));
#233 = DIRECTION('',(1.,0.,0.));
#234 = DIRECTION('',(0.,-1.,2.37E-15));
#235 = ORIENTED_EDGE('',*,*,#236,.T.);
#236 = EDGE_CURVE('',#228,#228,#237,.T.);
#237 = CIRCLE('',#238,2.2);
#238 = AXIS2_PLACEMENT_3D('',#239,#240,#241);
#239 = CARTESIAN_POINT('',(-38.,-23.25,39.437851134678));
#240 = DIRECTION('',(0.,-0.927024810887,0.375));
#241 = DIRECTION('',(0.,-0.375,-0.927024810887));
#242 = ORIENTED_EDGE('',*,*,#227,.F.);
#243 = ORIENTED_EDGE('',*,*,#185,.F.);
#244 = TOROIDAL_SURFACE('',#245,6.,2.2);
#245 = AXIS2_PLACEMENT_3D('',#246,#247,#248);
#246 = CARTESIAN_POINT('',(-38.,-21.,45.));
#247 = DIRECTION('',(1.,0.,0.));
#248 = DIRECTION('',(0.,-1.,2.37E-15));
#249 = ADVANCED_FACE('',(#250),#270,.F.);
#250 = FACE_BOUND('',#251,.F.);
#251 = EDGE_LOOP('',(#252,#261,#268,#269));
#252 = ORIENTED_EDGE('',*,*,#253,.T.);
#253 = EDGE_CURVE('',#203,#254,#256,.T.);
#254 = VERTEX_POINT('',#255);
#255 = CARTESIAN_POINT('',(-38.,-28.2,45.));
#256 = CIRCLE('',#257,6.);
#257 = AXIS2_PLACEMENT_3D('',#258,#259,#260);
#258 = CARTESIAN_POINT('',(-32.,-28.2,45.));
#259 = DIRECTION('',(0.,-1.,0.));
#260 = DIRECTION('',(0.,0.,1.));
#261 = ORIENTED_EDGE('',*,*,#262,.T.);
#262 = EDGE_CURVE('',#254,#254,#263,.T.);
#263 = CIRCLE('',#264,1.2);
#264 = AXIS2_PLACEMENT_3D('',#265,#266,#267);
#265 = CARTESIAN_POINT('',(-38.,-27.,45.));
#266 = DIRECTION('',(5.1E-16,0.,1.));
#267 = DIRECTION('',(-1.,0.,5.1E-16));
#268 = ORIENTED_EDGE('',*,*,#253,.F.);
#269 = ORIENTED_EDGE('',*,*,#210,.T.);
#270 = TOROIDAL_SURFACE('',#271,6.,1.2);
#271 = AXIS2_PLACEMENT_3D('',#272,#273,#274);
#272 = CARTESIAN_POINT('',(-32.,-27.,45.));
#273 = DIRECTION('',(0.,-1.,0.));
#274 = DIRECTION('',(0.,0.,1.));
#275 = ADVANCED_FACE('',(#276),#296,.T.);
#276 = FACE_BOUND('',#277,.T.);
#277 = EDGE_LOOP('',(#278,#287,#294,#295));
#278 = ORIENTED_EDGE('',*,*,#279,.T.);
#279 = EDGE_CURVE('',#228,#280,#282,.T.);
#280 = VERTEX_POINT('',#281);
#281 = CARTESIAN_POINT('',(-38.,-21.7,33.875702269357));
#282 = CIRCLE('',#283,3.8);
#283 = AXIS2_PLACEMENT_3D('',#284,#285,#286);
#284 = CARTESIAN_POINT('',(-38.,-25.5,33.875702269357));
#285 = DIRECTION('',(-1.,0.,0.));
#286 = DIRECTION('',(0.,0.375,0.927024810887));
#287 = ORIENTED_EDGE('',*,*,#288,.T.);
#288 = EDGE_CURVE('',#280,#280,#289,.T.);
#289 = CIRCLE('',#290,2.2);
#290 = AXIS2_PLACEMENT_3D('',#291,#292,#293);
#291 = CARTESIAN_POINT('',(-38.,-19.5,33.875702269357));
#292 = DIRECTION('',(0.,1.7E-16,1.));
#293 = DIRECTION('',(0.,1.,-1.7E-16));
#294 = ORIENTED_EDGE('',*,*,#279,.F.);
#295 = ORIENTED_EDGE('',*,*,#236,.F.);
#296 = TOROIDAL_SURFACE('',#297,6.,2.2);
#297 = AXIS2_PLACEMENT_3D('',#298,#299,#300);
#298 = CARTESIAN_POINT('',(-38.,-25.5,33.875702269357));
#299 = DIRECTION('',(-1.,0.,0.));
#300 = DIRECTION('',(0.,0.375,0.927024810887));
#301 = ADVANCED_FACE('',(#302),#322,.F.);
#302 = FACE_BOUND('',#303,.F.);
#303 = EDGE_LOOP('',(#304,#313,#320,#321));
#304 = ORIENTED_EDGE('',*,*,#305,.T.);
#305 = EDGE_CURVE('',#254,#306,#308,.T.);
#306 = VERTEX_POINT('',#307);
#307 = CARTESIAN_POINT('',(-38.,-23.7,38.325421361614));
#308 = CIRCLE('',#309,7.2);
#309 = AXIS2_PLACEMENT_3D('',#310,#311,#312);
#310 = CARTESIAN_POINT('',(-38.,-21.,45.));
#311 = DIRECTION('',(1.,0.,0.));
#312 = DIRECTION('',(0.,-1.,2.37E-15));
#313 = ORIENTED_EDGE('',*,*,#314,.T.);
#314 = EDGE_CURVE('',#306,#306,#315,.T.);
#315 = CIRCLE('',#316,1.2);
#316 = AXIS2_PLACEMENT_3D('',#317,#318,#319);
#317 = CARTESIAN_POINT('',(-38.,-23.25,39.437851134678));
#318 = DIRECTION('',(0.,-0.927024810887,0.375));
#319 = DIRECTION('',(0.,-0.375,-0.927024810887));
#320 = ORIENTED_EDGE('',*,*,#305,.F.);
#321 = ORIENTED_EDGE('',*,*,#262,.F.);
#322 = TOROIDAL_SURFACE('',#323,6.,1.2);
#323 = AXIS2_PLACEMENT_3D('',#324,#325,#326);
#324 = CARTESIAN_POINT('',(-38.,-21.,45.));
#325 = DIRECTION('',(1.,0.,0.));
#326 = DIRECTION('',(0.,-1.,2.37E-15));
#327 = ADVANCED_FACE('',(#328),#347,.T.);
#328 = FACE_BOUND('',#329,.T.);
#329 = EDGE_LOOP('',(#330,#338,#345,#346));
#330 = ORIENTED_EDGE('',*,*,#331,.T.);
#331 = EDGE_CURVE('',#280,#332,#334,.T.);
#332 = VERTEX_POINT('',#333);
#333 = CARTESIAN_POINT('',(-38.,-21.7,26.6));
#334 = LINE('',#335,#336);
#335 = CARTESIAN_POINT('',(-38.,-21.7,33.875702269357));
#336 = VECTOR('',#337,1.);
#337 = DIRECTION('',(0.,0.,-1.));
#338 = ORIENTED_EDGE('',*,*,#339,.F.);
#339 = EDGE_CURVE('',#332,#332,#340,.T.);
#340 = CIRCLE('',#341,2.2);
#341 = AXIS2_PLACEMENT_3D('',#342,#343,#344);
#342 = CARTESIAN_POINT('',(-38.,-19.5,26.6));
#343 = DIRECTION('',(-0.,-0.,-1.));
#344 = DIRECTION('',(0.,-1.,0.));
#345 = ORIENTED_EDGE('',*,*,#331,.F.);
#346 = ORIENTED_EDGE('',*,*,#288,.F.);
#347 = CYLINDRICAL_SURFACE('',#348,2.2);
#348 = AXIS2_PLACEMENT_3D('',#349,#350,#351);
#349 = CARTESIAN_POINT('',(-38.,-19.5,33.875702269357));
#350 = DIRECTION('',(0.,0.,-1.));
#351 = DIRECTION('',(0.,-1.,0.));
#352 = ADVANCED_FACE('',(#353),#373,.F.);
#353 = FACE_BOUND('',#354,.F.);
#354 = EDGE_LOOP('',(#355,#364,#371,#372));
#355 = ORIENTED_EDGE('',*,*,#356,.T.);
#356 = EDGE_CURVE('',#306,#357,#359,.T.);
#357 = VERTEX_POINT('',#358);
#358 = CARTESIAN_POINT('',(-38.,-20.7,33.875702269357));
#359 = CIRCLE('',#360,4.8);
#360 = AXIS2_PLACEMENT_3D('',#361,#362,#363);
#361 = CARTESIAN_POINT('',(-38.,-25.5,33.875702269357));
#362 = DIRECTION('',(-1.,0.,0.));
#363 = DIRECTION('',(0.,0.375,0.927024810887));
#364 = ORIENTED_EDGE('',*,*,#365,.T.);
#365 = EDGE_CURVE('',#357,#357,#366,.T.);
#366 = CIRCLE('',#367,1.2);
#367 = AXIS2_PLACEMENT_3D('',#368,#369,#370);
#368 = CARTESIAN_POINT('',(-38.,-19.5,33.875702269357));
#369 = DIRECTION('',(0.,1.7E-16,1.));
#370 = DIRECTION('',(0.,1.,-1.7E-16));
#371 = ORIENTED_EDGE('',*,*,#356,.F.);
#372 = ORIENTED_EDGE('',*,*,#314,.F.);
#373 = TOROIDAL_SURFACE('',#374,6.,1.2);
#374 = AXIS2_PLACEMENT_3D('',#375,#376,#377);
#375 = CARTESIAN_POINT('',(-38.,-25.5,33.875702269357));
#376 = DIRECTION('',(-1.,0.,0.));
#377 = DIRECTION('',(0.,0.375,0.927024810887));
#378 = ADVANCED_FACE('',(#379),#399,.T.);
#379 = FACE_BOUND('',#380,.T.);
#380 = EDGE_LOOP('',(#381,#390,#397,#398));
#381 = ORIENTED_EDGE('',*,*,#382,.T.);
#382 = EDGE_CURVE('',#332,#383,#385,.T.);
#383 = VERTEX_POINT('',#384);
#384 = CARTESIAN_POINT('',(-32.,-21.7,20.6));
#385 = CIRCLE('',#386,6.);
#386 = AXIS2_PLACEMENT_3D('',#387,#388,#389);
#387 = CARTESIAN_POINT('',(-32.,-21.7,26.6));
#388 = DIRECTION('',(0.,-1.,-0.));
#389 = DIRECTION('',(-1.,0.,-5.9E-16));
#390 = ORIENTED_EDGE('',*,*,#391,.T.);
#391 = EDGE_CURVE('',#383,#383,#392,.T.);
#392 = CIRCLE('',#393,2.2);
#393 = AXIS2_PLACEMENT_3D('',#394,#395,#396);
#394 = CARTESIAN_POINT('',(-32.,-19.5,20.6));
#395 = DIRECTION('',(-1.,0.,3.6E-16));
#396 = DIRECTION('',(-3.6E-16,0.,-1.));
#397 = ORIENTED_EDGE('',*,*,#382,.F.);
#398 = ORIENTED_EDGE('',*,*,#339,.T.);
#399 = TOROIDAL_SURFACE('',#400,6.,2.2);
#400 = AXIS2_PLACEMENT_3D('',#401,#402,#403);
#401 = CARTESIAN_POINT('',(-32.,-19.5,26.6));
#402 = DIRECTION('',(0.,-1.,0.));
#403 = DIRECTION('',(-1.,0.,-5.9E-16));
#404 = ADVANCED_FACE('',(#405),#424,.F.);
#405 = FACE_BOUND('',#406,.F.);
#406 = EDGE_LOOP('',(#407,#415,#422,#423));
#407 = ORIENTED_EDGE('',*,*,#408,.T.);
#408 = EDGE_CURVE('',#357,#409,#411,.T.);
#409 = VERTEX_POINT('',#410);
#410 = CARTESIAN_POINT('',(-38.,-20.7,26.6));
#411 = LINE('',#412,#413);
#412 = CARTESIAN_POINT('',(-38.,-20.7,33.875702269357));
#413 = VECTOR('',#414,1.);
#414 = DIRECTION('',(0.,0.,-1.));
#415 = ORIENTED_EDGE('',*,*,#416,.F.);
#416 = EDGE_CURVE('',#409,#409,#417,.T.);
#417 = CIRCLE('',#418,1.2);
#418 = AXIS2_PLACEMENT_3D('',#419,#420,#421);
#419 = CARTESIAN_POINT('',(-38.,-19.5,26.6));
#420 = DIRECTION('',(-0.,-0.,-1.));
#421 = DIRECTION('',(0.,-1.,0.));
#422 = ORIENTED_EDGE('',*,*,#408,.F.);
#423 = ORIENTED_EDGE('',*,*,#365,.F.);
#424 = CYLINDRICAL_SURFACE('',#425,1.2);
#425 = AXIS2_PLACEMENT_3D('',#426,#427,#428);
#426 = CARTESIAN_POINT('',(-38.,-19.5,33.875702269357));
#427 = DIRECTION('',(0.,0.,-1.));
#428 = DIRECTION('',(0.,-1.,0.));
#429 = ADVANCED_FACE('',(#430),#449,.T.);
#430 = FACE_BOUND('',#431,.T.);
#431 = EDGE_LOOP('',(#432,#440,#447,#448));
#432 = ORIENTED_EDGE('',*,*,#433,.T.);
#433 = EDGE_CURVE('',#383,#434,#436,.T.);
#434 = VERTEX_POINT('',#435);
#435 = CARTESIAN_POINT('',(-29.6,-21.7,20.6));
#436 = LINE('',#437,#438);
#437 = CARTESIAN_POINT('',(-32.,-21.7,20.6));
#438 = VECTOR('',#439,1.);
#439 = DIRECTION('',(1.,0.,0.));
#440 = ORIENTED_EDGE('',*,*,#441,.F.);
#441 = EDGE_CURVE('',#434,#434,#442,.T.);
#442 = CIRCLE('',#443,2.2);
#443 = AXIS2_PLACEMENT_3D('',#444,#445,#446);
#444 = CARTESIAN_POINT('',(-29.6,-19.5,20.6));
#445 = DIRECTION('',(1.,0.,0.));
#446 = DIRECTION('',(0.,-1.,0.));
#447 = ORIENTED_EDGE('',*,*,#433,.F.);
#448 = ORIENTED_EDGE('',*,*,#391,.F.);
#449 = CYLINDRICAL_SURFACE('',#450,2.2);
#450 = AXIS2_PLACEMENT_3D('',#451,#452,#453);
#451 = CARTESIAN_POINT('',(-32.,-19.5,20.6));
#452 = DIRECTION('',(1.,0.,0.));
#453 = DIRECTION('',(0.,-1.,0.));
#454 = ADVANCED_FACE('',(#455),#475,.F.);
#455 = FACE_BOUND('',#456,.F.);
#456 = EDGE_LOOP('',(#457,#466,#473,#474));
#457 = ORIENTED_EDGE('',*,*,#458,.T.);
#458 = EDGE_CURVE('',#409,#459,#461,.T.);
#459 = VERTEX_POINT('',#460);
#460 = CARTESIAN_POINT('',(-32.,-20.7,20.6));
#461 = CIRCLE('',#462,6.);
#462 = AXIS2_PLACEMENT_3D('',#463,#464,#465);
#463 = CARTESIAN_POINT('',(-32.,-20.7,26.6));
#464 = DIRECTION('',(0.,-1.,-0.));
#465 = DIRECTION('',(-1.,0.,-5.9E-16));
#466 = ORIENTED_EDGE('',*,*,#467,.T.);
#467 = EDGE_CURVE('',#459,#459,#468,.T.);
#468 = CIRCLE('',#469,1.2);
#469 = AXIS2_PLACEMENT_3D('',#470,#471,#472);
#470 = CARTESIAN_POINT('',(-32.,-19.5,20.6));
#471 = DIRECTION('',(-1.,0.,3.6E-16));
#472 = DIRECTION('',(-3.6E-16,0.,-1.));
#473 = ORIENTED_EDGE('',*,*,#458,.F.);
#474 = ORIENTED_EDGE('',*,*,#416,.T.);
#475 = TOROIDAL_SURFACE('',#476,6.,1.2);
#476 = AXIS2_PLACEMENT_3D('',#477,#478,#479);
#477 = CARTESIAN_POINT('',(-32.,-19.5,26.6));
#478 = DIRECTION('',(0.,-1.,0.));
#479 = DIRECTION('',(-1.,0.,-5.9E-16));
#480 = ADVANCED_FACE('',(#481,#484),#495,.T.);
#481 = FACE_BOUND('',#482,.T.);
#482 = EDGE_LOOP('',(#483));
#483 = ORIENTED_EDGE('',*,*,#441,.T.);
#484 = FACE_BOUND('',#485,.T.);
#485 = EDGE_LOOP('',(#486));
#486 = ORIENTED_EDGE('',*,*,#487,.F.);
#487 = EDGE_CURVE('',#488,#488,#490,.T.);
#488 = VERTEX_POINT('',#489);
#489 = CARTESIAN_POINT('',(-29.6,-20.7,20.6));
#490 = CIRCLE('',#491,1.2);
#491 = AXIS2_PLACEMENT_3D('',#492,#493,#494);
#492 = CARTESIAN_POINT('',(-29.6,-19.5,20.6));
#493 = DIRECTION('',(1.,0.,0.));
#494 = DIRECTION('',(0.,-1.,0.));
#495 = PLANE('',#496);
#496 = AXIS2_PLACEMENT_3D('',#497,#498,#499);
#497 = CARTESIAN_POINT('',(-29.6,-19.5,20.6));
#498 = DIRECTION('',(1.,0.,0.));
#499 = DIRECTION('',(0.,0.,1.));
#500 = ADVANCED_FACE('',(#501),#512,.F.);
#501 = FACE_BOUND('',#502,.F.);
#502 = EDGE_LOOP('',(#503,#509,#510,#511));
#503 = ORIENTED_EDGE('',*,*,#504,.T.);
#504 = EDGE_CURVE('',#459,#488,#505,.T.);
#505 = LINE('',#506,#507);
#506 = CARTESIAN_POINT('',(-32.,-20.7,20.6));
#507 = VECTOR('',#508,1.);
#508 = DIRECTION('',(1.,0.,0.));
#509 = ORIENTED_EDGE('',*,*,#487,.F.);
#510 = ORIENTED_EDGE('',*,*,#504,.F.);
#511 = ORIENTED_EDGE('',*,*,#467,.F.);
#512 = CYLINDRICAL_SURFACE('',#513,1.2);
#513 = AXIS2_PLACEMENT_3D('',#514,#515,#516);
#514 = CARTESIAN_POINT('',(-32.,-19.5,20.6));
#515 = DIRECTION('',(1.,0.,0.));
#516 = DIRECTION('',(0.,-1.,0.));
#517 = ( GEOMETRIC_REPRESENTATION_CONTEXT(3) 
GLOBAL_UNCERTAINTY_ASSIGNED_CONTEXT((#521)) GLOBAL_UNIT_ASSIGNED_CONTEXT
((#518,#519,#520)) REPRESENTATION_CONTEXT('Context #1',
  '3D Context with UNIT and UNCERTAINTY') );
#518 = ( LENGTH_UNIT() NAMED_UNIT(*) SI_UNIT(.MILLI.,.METRE.) );
#519 = ( NAMED_UNIT(*) PLANE_ANGLE_UNIT() SI_UNIT($,.RADIAN.) );
#520 = ( NAMED_UNIT(*) SI_UNIT($,.STERADIAN.) SOLID_ANGLE_UNIT() );
#521 = UNCERTAINTY_MEASURE_WITH_UNIT(LENGTH_MEASURE(1.E-07),#518,
  'distance_accuracy_value','confusion accuracy');
#522 = PRODUCT_RELATED_PRODUCT_CATEGORY('part',$,(#7));
ENDSEC;
END-ISO-10303-21;
