ISO-10303-21;
HEADER;
FILE_DESCRIPTION(('FreeCAD Model'),'2;1');
FILE_NAME('Open CASCADE Shape Model','2026-09-30T05:24:15',('FreeCAD'),(
    'FreeCAD'),'Open CASCADE STEP processor 7.8','FreeCAD','Unknown');
FILE_SCHEMA(('AUTOMOTIVE_DESIGN { 1 0 10303 214 1 1 1 1 }'));
ENDSEC;
DATA;
#1 = APPLICATION_PROTOCOL_DEFINITION('international standard',
  'automotive_design',2000,#2);
#2 = APPLICATION_CONTEXT(
  'core data for automotive mechanical design processes');
#3 = SHAPE_DEFINITION_REPRESENTATION(#4,#10);
#4 = PRODUCT_DEFINITION_SHAPE('','',#5);
#5 = PRODUCT_DEFINITION('design','',#6,#9);
#6 = PRODUCT_DEFINITION_FORMATION('','',#7);
#7 = PRODUCT('Open CASCADE STEP translator 7.8 44',
  'Open CASCADE STEP translator 7.8 44','',(#8));
#8 = PRODUCT_CONTEXT('',#2,'mechanical');
#9 = PRODUCT_DEFINITION_CONTEXT('part definition',#2,'design');
#10 = ADVANCED_BREP_SHAPE_REPRESENTATION('',(#11,#15),#851);
#11 = AXIS2_PLACEMENT_3D('',#12,#13,#14);
#12 = CARTESIAN_POINT('',(0.,0.,0.));
#13 = DIRECTION('',(0.,0.,1.));
#14 = DIRECTION('',(1.,0.,-0.));
#15 = MANIFOLD_SOLID_BREP('',#16);
#16 = CLOSED_SHELL('',(#17,#166,#216,#232,#258,#313,#349,#374,#404,#430,
    #455,#480,#506,#532,#557,#582,#608,#634,#659,#685,#711,#737,#763,
    #788,#814,#834));
#17 = ADVANCED_FACE('',(#18),#161,.T.);
#18 = FACE_BOUND('',#19,.T.);
#19 = EDGE_LOOP('',(#20,#31,#40,#47,#48,#57,#80,#119,#128));
#20 = ORIENTED_EDGE('',*,*,#21,.F.);
#21 = EDGE_CURVE('',#22,#24,#26,.T.);
#22 = VERTEX_POINT('',#23);
#23 = CARTESIAN_POINT('',(-6.204550023251,-2.303997611701,5.7));
#24 = VERTEX_POINT('',#25);
#25 = CARTESIAN_POINT('',(-10.39781472145,-3.190456614761,5.000817679153
    ));
#26 = CIRCLE('',#27,2.2);
#27 = AXIS2_PLACEMENT_3D('',#28,#29,#30);
#28 = CARTESIAN_POINT('',(-8.35697939983,-2.759022642708,5.7));
#29 = DIRECTION('',(0.206829559549,-0.978376989354,0.));
#30 = DIRECTION('',(0.978376989354,0.206829559549,0.));
#31 = ORIENTED_EDGE('',*,*,#32,.T.);
#32 = EDGE_CURVE('',#22,#33,#35,.T.);
#33 = VERTEX_POINT('',#34);
#34 = CARTESIAN_POINT('',(-14.22724133595,4.2,5.7));
#35 = CIRCLE('',#36,8.2);
#36 = AXIS2_PLACEMENT_3D('',#37,#38,#39);
#37 = CARTESIAN_POINT('',(-14.22724133595,-4.,5.7));
#38 = DIRECTION('',(-0.,0.,1.));
#39 = DIRECTION('',(1.,-1.5E-16,0.));
#40 = ORIENTED_EDGE('',*,*,#41,.T.);
#41 = EDGE_CURVE('',#33,#33,#42,.T.);
#42 = CIRCLE('',#43,2.2);
#43 = AXIS2_PLACEMENT_3D('',#44,#45,#46);
#44 = CARTESIAN_POINT('',(-14.22724133595,2.,5.7));
#45 = DIRECTION('',(1.,1.E-17,-0.));
#46 = DIRECTION('',(-1.E-17,1.,0.));
#47 = ORIENTED_EDGE('',*,*,#32,.F.);
#48 = ORIENTED_EDGE('',*,*,#49,.F.);
#49 = EDGE_CURVE('',#50,#22,#52,.T.);
#50 = VERTEX_POINT('',#51);
#51 = CARTESIAN_POINT('',(-8.133801428015,-2.711842668001,3.51185794728)
  );
#52 = CIRCLE('',#53,2.2);
#53 = AXIS2_PLACEMENT_3D('',#54,#55,#56);
#54 = CARTESIAN_POINT('',(-8.35697939983,-2.759022642708,5.7));
#55 = DIRECTION('',(0.206829559549,-0.978376989354,0.));
#56 = DIRECTION('',(0.978376989354,0.206829559549,0.));
#57 = ORIENTED_EDGE('',*,*,#58,.F.);
#58 = EDGE_CURVE('',#59,#50,#61,.T.);
#59 = VERTEX_POINT('',#60);
#60 = CARTESIAN_POINT('',(-9.399613391789,-0.519392033916,3.500534165081
    ));
#61 = B_SPLINE_CURVE_WITH_KNOTS('',5,(#62,#63,#64,#65,#66,#67,#68,#69,
    #70,#71,#72,#73,#74,#75,#76,#77,#78,#79),.UNSPECIFIED.,.F.,.F.,(6,4,
    4,4,6),(0.,0.147219907853,0.428440556561,0.708118189711,1.),
  .UNSPECIFIED.);
#62 = CARTESIAN_POINT('',(-9.824613391789,0.216729559301,3.502105316993)
  );
#63 = CARTESIAN_POINT('',(-9.774936635058,0.130686892686,3.501070392514)
  );
#64 = CARTESIAN_POINT('',(-9.725224056674,4.458218114979E-02,
    3.500436925681));
#65 = CARTESIAN_POINT('',(-9.675480263156,-4.157659658373E-02,
    3.500103421897));
#66 = CARTESIAN_POINT('',(-9.625709369328,-0.127782313432,3.499982636579
    ));
#67 = CARTESIAN_POINT('',(-9.480797391453,-0.378777221737,3.500037751797
    ));
#68 = CARTESIAN_POINT('',(-9.385594252834,-0.543673894865,3.500584802526
    ));
#69 = CARTESIAN_POINT('',(-9.290332236171,-0.708672547756,3.501137074833
    ));
#70 = CARTESIAN_POINT('',(-9.195039044352,-0.873725197603,3.501412531818
    ));
#71 = CARTESIAN_POINT('',(-9.004975993733,-1.202924057916,3.501414250141
    ));
#72 = CARTESIAN_POINT('',(-8.910205520197,-1.367071333138,3.501143509644
    ));
#73 = CARTESIAN_POINT('',(-8.815465571288,-1.531165738156,3.500598182165
    ));
#74 = CARTESIAN_POINT('',(-8.720783427627,-1.695160021546,3.50005325663)
  );
#75 = CARTESIAN_POINT('',(-8.527459291076,-2.030007248381,3.499950761235
    ));
#76 = CARTESIAN_POINT('',(-8.428827297249,-2.200842872942,3.500436769325
    ));
#77 = CARTESIAN_POINT('',(-8.330312010933,-2.371476354164,3.502021658765
    ));
#78 = CARTESIAN_POINT('',(-8.23195110653,-2.541842438066,3.505512728687)
  );
#79 = CARTESIAN_POINT('',(-8.133801428015,-2.711842668001,3.51185794728)
  );
#80 = ORIENTED_EDGE('',*,*,#81,.F.);
#81 = EDGE_CURVE('',#82,#59,#84,.T.);
#82 = VERTEX_POINT('',#83);
#83 = CARTESIAN_POINT('',(-11.25991058182,-1.593435117357,6.));
#84 = B_SPLINE_CURVE_WITH_KNOTS('',5,(#85,#86,#87,#88,#89,#90,#91,#92,
    #93,#94,#95,#96,#97,#98,#99,#100,#101,#102,#103,#104,#105,#106,#107,
    #108,#109,#110,#111,#112,#113,#114,#115,#116,#117,#118),
  .UNSPECIFIED.,.F.,.F.,(6,4,4,4,4,4,4,4,6),(0.,0.141968949459,
    0.316960957266,0.408272068717,0.509493714932,0.578130531879,
    0.75476943016,0.915066392986,1.),.UNSPECIFIED.);
#85 = CARTESIAN_POINT('',(-11.2048085583,-1.561621949245,6.3));
#86 = CARTESIAN_POINT('',(-11.23360708031,-1.578248783677,6.184102966745
    ));
#87 = CARTESIAN_POINT('',(-11.25547077527,-1.590871793847,6.065911844204
    ));
#88 = CARTESIAN_POINT('',(-11.27019841967,-1.599374803306,5.946164146493
    ));
#89 = CARTESIAN_POINT('',(-11.27768475531,-1.603697041203,5.825620790903
    ));
#90 = CARTESIAN_POINT('',(-11.27822776101,-1.604010545694,5.5564568053)
  );
#91 = CARTESIAN_POINT('',(-11.26752274614,-1.597830002473,5.407817079605
    ));
#92 = CARTESIAN_POINT('',(-11.24580995427,-1.585294116242,5.260605854873
    ));
#93 = CARTESIAN_POINT('',(-11.21332580963,-1.56653938659,5.116240048864)
  );
#94 = CARTESIAN_POINT('',(-11.1481865841,-1.528931237196,4.902933232108)
  );
#95 = CARTESIAN_POINT('',(-11.12304090555,-1.514413372917,4.830934808912
    ));
#96 = CARTESIAN_POINT('',(-11.09514856079,-1.498309720162,4.760267544421
    ));
#97 = CARTESIAN_POINT('',(-11.06458708609,-1.480665044515,4.691112567699
    ));
#98 = CARTESIAN_POINT('',(-10.99471160129,-1.440322414557,4.548848612379
    ));
#99 = CARTESIAN_POINT('',(-10.95480724337,-1.417283622772,4.47612470487)
  );
#100 = CARTESIAN_POINT('',(-10.91185897454,-1.3924874282,4.405704729125)
  );
#101 = CARTESIAN_POINT('',(-10.86600815234,-1.366015443658,
    4.337806536267));
#102 = CARTESIAN_POINT('',(-10.78446170757,-1.31893458182,4.228437246603
    ));
#103 = CARTESIAN_POINT('',(-10.75024832985,-1.299181478986,
    4.185494992835));
#104 = CARTESIAN_POINT('',(-10.71482229233,-1.278728246684,
    4.143867343338));
#105 = CARTESIAN_POINT('',(-10.67823584313,-1.257605050391,
    4.103613037928));
#106 = CARTESIAN_POINT('',(-10.54354378961,-1.179840557033,
    3.964866689568));
#107 = CARTESIAN_POINT('',(-10.43922114017,-1.1196098473,3.874403048504)
  );
#108 = CARTESIAN_POINT('',(-10.32852389659,-1.05569876392,3.794335404605
    ));
#109 = CARTESIAN_POINT('',(-10.21250530331,-0.988715397856,3.72541152467
    ));
#110 = CARTESIAN_POINT('',(-9.983240153964,-0.856349102164,
    3.616240834465));
#111 = CARTESIAN_POINT('',(-9.870725670517,-0.791388834858,
    3.573928625408));
#112 = CARTESIAN_POINT('',(-9.755627033732,-0.724936605927,
    3.541649838041));
#113 = CARTESIAN_POINT('',(-9.638839358558,-0.657509210227,
    3.519662653282));
#114 = CARTESIAN_POINT('',(-9.459003737018,-0.553681065721,
    3.501924765355));
#115 = CARTESIAN_POINT('',(-9.396504091121,-0.517596878338,
    3.498698927291));
#116 = CARTESIAN_POINT('',(-9.333926528206,-0.481467705544,
    3.498405553951));
#117 = CARTESIAN_POINT('',(-9.271408504329,-0.445372907629,
    3.501046824342));
#118 = CARTESIAN_POINT('',(-9.209087802957,-0.409392033916,
    3.506612166452));
#119 = ORIENTED_EDGE('',*,*,#120,.F.);
#120 = EDGE_CURVE('',#121,#82,#123,.T.);
#121 = VERTEX_POINT('',#122);
#122 = CARTESIAN_POINT('',(-10.57172264298,-2.889239258816,6.));
#123 = CIRCLE('',#124,3.82055052823);
#124 = AXIS2_PLACEMENT_3D('',#125,#126,#127);
#125 = CARTESIAN_POINT('',(-14.22724133595,-4.,6.));
#126 = DIRECTION('',(-0.,0.,1.));
#127 = DIRECTION('',(1.,-1.5E-16,0.));
#128 = ORIENTED_EDGE('',*,*,#129,.F.);
#129 = EDGE_CURVE('',#24,#121,#130,.T.);
#130 = B_SPLINE_CURVE_WITH_KNOTS('',8,(#131,#132,#133,#134,#135,#136,
    #137,#138,#139,#140,#141,#142,#143,#144,#145,#146,#147,#148,#149,
    #150,#151,#152,#153,#154,#155,#156,#157,#158,#159,#160),
  .UNSPECIFIED.,.F.,.F.,(9,7,7,7,9),(0.,0.295776862278,0.45985429763,
    0.643917289833,1.),.UNSPECIFIED.);
#131 = CARTESIAN_POINT('',(-10.39781472145,-3.190456614761,
    5.000817679153));
#132 = CARTESIAN_POINT('',(-10.41924843265,-3.15333233796,5.040472572981
    ));
#133 = CARTESIAN_POINT('',(-10.44029202163,-3.11688377268,5.080817733831
    ));
#134 = CARTESIAN_POINT('',(-10.46091323494,-3.081166783512,
    5.121968799118));
#135 = CARTESIAN_POINT('',(-10.48104663819,-3.046294706149,
    5.164038496068));
#136 = CARTESIAN_POINT('',(-10.50058348487,-3.012455895077,
    5.207151055494));
#137 = CARTESIAN_POINT('',(-10.51936656538,-2.979922645315,
    5.251450448578));
#138 = CARTESIAN_POINT('',(-10.53716972052,-2.949086676073,
    5.297132641091));
#139 = CARTESIAN_POINT('',(-10.56277927037,-2.904729634583,
    5.370826121069));
#140 = CARTESIAN_POINT('',(-10.57149892121,-2.889626756296,
    5.397624309552));
#141 = CARTESIAN_POINT('',(-10.57974207812,-2.875349189719,
    5.424985590267));
#142 = CARTESIAN_POINT('',(-10.58743002618,-2.862033273068,5.45295074761
    ));
#143 = CARTESIAN_POINT('',(-10.59446050741,-2.849856122368,
    5.481544821038));
#144 = CARTESIAN_POINT('',(-10.60071133722,-2.839029367558,
    5.510773995794));
#145 = CARTESIAN_POINT('',(-10.60605104369,-2.829780724655,
    5.540616948387));
#146 = CARTESIAN_POINT('',(-10.61518644835,-2.813957739625,
    5.605106469185));
#147 = CARTESIAN_POINT('',(-10.61872787842,-2.807823802814,
    5.639986332417));
#148 = CARTESIAN_POINT('',(-10.62076619751,-2.804293330592,
    5.675348110719));
#149 = CARTESIAN_POINT('',(-10.62115905276,-2.803612885344,5.71090475889
    ));
#150 = CARTESIAN_POINT('',(-10.61987458937,-2.805837641187,
    5.746386585616));
#151 = CARTESIAN_POINT('',(-10.61699400403,-2.810826961352,
    5.781534827177));
#152 = CARTESIAN_POINT('',(-10.61268838393,-2.818284514122,
    5.816094384799));
#153 = CARTESIAN_POINT('',(-10.59652303696,-2.846283716404,
    5.915045743403));
#154 = CARTESIAN_POINT('',(-10.58138002738,-2.872512178375,
    5.977035558074));
#155 = CARTESIAN_POINT('',(-10.56304096489,-2.904276366378,
    6.036124224483));
#156 = CARTESIAN_POINT('',(-10.54259090995,-2.939696900547,
    6.092709519537));
#157 = CARTESIAN_POINT('',(-10.52067297858,-2.977659871278,
    6.147021521162));
#158 = CARTESIAN_POINT('',(-10.49772181709,-3.017412449065,6.19938851804
    ));
#159 = CARTESIAN_POINT('',(-10.47391697406,-3.058643646664,
    6.250207566897));
#160 = CARTESIAN_POINT('',(-10.44924334112,-3.101379632526,6.3));
#161 = TOROIDAL_SURFACE('',#162,6.,2.2);
#162 = AXIS2_PLACEMENT_3D('',#163,#164,#165);
#163 = CARTESIAN_POINT('',(-14.22724133595,-4.,5.7));
#164 = DIRECTION('',(0.,0.,1.));
#165 = DIRECTION('',(1.,-1.5E-16,0.));
#166 = ADVANCED_FACE('',(#167),#211,.F.);
#167 = FACE_BOUND('',#168,.F.);
#168 = EDGE_LOOP('',(#169,#170,#171,#179,#188,#197,#205));
#169 = ORIENTED_EDGE('',*,*,#21,.F.);
#170 = ORIENTED_EDGE('',*,*,#49,.F.);
#171 = ORIENTED_EDGE('',*,*,#172,.F.);
#172 = EDGE_CURVE('',#173,#50,#175,.T.);
#173 = VERTEX_POINT('',#174);
#174 = CARTESIAN_POINT('',(-8.133801428015,-2.711842668001,
    4.521880463245));
#175 = LINE('',#176,#177);
#176 = CARTESIAN_POINT('',(-8.133801428015,-2.711842668001,4.35));
#177 = VECTOR('',#178,1.);
#178 = DIRECTION('',(0.,0.,-1.));
#179 = ORIENTED_EDGE('',*,*,#180,.T.);
#180 = EDGE_CURVE('',#173,#181,#183,.T.);
#181 = VERTEX_POINT('',#182);
#182 = CARTESIAN_POINT('',(-7.182927012605,-2.51082717125,5.7));
#183 = CIRCLE('',#184,1.2);
#184 = AXIS2_PLACEMENT_3D('',#185,#186,#187);
#185 = CARTESIAN_POINT('',(-8.35697939983,-2.759022642708,5.7));
#186 = DIRECTION('',(0.206829559549,-0.978376989354,0.));
#187 = DIRECTION('',(0.978376989354,0.206829559549,0.));
#188 = ORIENTED_EDGE('',*,*,#189,.T.);
#189 = EDGE_CURVE('',#181,#190,#192,.T.);
#190 = VERTEX_POINT('',#191);
#191 = CARTESIAN_POINT('',(-9.493750735654,-2.999336874599,6.));
#192 = CIRCLE('',#193,1.2);
#193 = AXIS2_PLACEMENT_3D('',#194,#195,#196);
#194 = CARTESIAN_POINT('',(-8.35697939983,-2.759022642708,5.7));
#195 = DIRECTION('',(0.206829559549,-0.978376989354,0.));
#196 = DIRECTION('',(0.978376989354,0.206829559549,0.));
#197 = ORIENTED_EDGE('',*,*,#198,.F.);
#198 = EDGE_CURVE('',#199,#190,#201,.T.);
#199 = VERTEX_POINT('',#200);
#200 = CARTESIAN_POINT('',(-10.39781472145,-3.190456614761,6.));
#201 = LINE('',#202,#203);
#202 = CARTESIAN_POINT('',(-8.363267024374,-2.760351850804,6.));
#203 = VECTOR('',#204,1.);
#204 = DIRECTION('',(0.978376989354,0.206829559549,0.));
#205 = ORIENTED_EDGE('',*,*,#206,.T.);
#206 = EDGE_CURVE('',#199,#24,#207,.T.);
#207 = LINE('',#208,#209);
#208 = CARTESIAN_POINT('',(-10.39781472145,-3.190456614761,4.35));
#209 = VECTOR('',#210,1.);
#210 = DIRECTION('',(0.,0.,-1.));
#211 = PLANE('',#212);
#212 = AXIS2_PLACEMENT_3D('',#213,#214,#215);
#213 = CARTESIAN_POINT('',(-8.35697939983,-2.759022642708,5.7));
#214 = DIRECTION('',(-0.206829559549,0.978376989354,0.));
#215 = DIRECTION('',(0.978376989354,0.206829559549,0.));
#216 = ADVANCED_FACE('',(#217),#227,.T.);
#217 = FACE_BOUND('',#218,.T.);
#218 = EDGE_LOOP('',(#219,#225,#226));
#219 = ORIENTED_EDGE('',*,*,#220,.F.);
#220 = EDGE_CURVE('',#199,#121,#221,.T.);
#221 = LINE('',#222,#223);
#222 = CARTESIAN_POINT('',(-7.054869280115,-8.980607966084,6.));
#223 = VECTOR('',#224,1.);
#224 = DIRECTION('',(-0.5,0.866025403784,0.));
#225 = ORIENTED_EDGE('',*,*,#206,.T.);
#226 = ORIENTED_EDGE('',*,*,#129,.T.);
#227 = PLANE('',#228);
#228 = AXIS2_PLACEMENT_3D('',#229,#230,#231);
#229 = CARTESIAN_POINT('',(-7.054869280115,-8.980607966084,3.));
#230 = DIRECTION('',(0.866025403784,0.5,0.));
#231 = DIRECTION('',(0.,0.,1.));
#232 = ADVANCED_FACE('',(#233),#253,.F.);
#233 = FACE_BOUND('',#234,.F.);
#234 = EDGE_LOOP('',(#235,#236,#237,#246,#252));
#235 = ORIENTED_EDGE('',*,*,#220,.F.);
#236 = ORIENTED_EDGE('',*,*,#198,.T.);
#237 = ORIENTED_EDGE('',*,*,#238,.T.);
#238 = EDGE_CURVE('',#190,#239,#241,.T.);
#239 = VERTEX_POINT('',#240);
#240 = CARTESIAN_POINT('',(-10.36995707246,-1.079620219162,6.));
#241 = CIRCLE('',#242,4.838104996138);
#242 = AXIS2_PLACEMENT_3D('',#243,#244,#245);
#243 = CARTESIAN_POINT('',(-14.22724133595,-4.,6.));
#244 = DIRECTION('',(-0.,0.,1.));
#245 = DIRECTION('',(1.,-1.5E-16,0.));
#246 = ORIENTED_EDGE('',*,*,#247,.F.);
#247 = EDGE_CURVE('',#82,#239,#248,.T.);
#248 = LINE('',#249,#250);
#249 = CARTESIAN_POINT('',(-11.30486928011,-1.619392033916,6.));
#250 = VECTOR('',#251,1.);
#251 = DIRECTION('',(0.866025403784,0.5,0.));
#252 = ORIENTED_EDGE('',*,*,#120,.F.);
#253 = PLANE('',#254);
#254 = AXIS2_PLACEMENT_3D('',#255,#256,#257);
#255 = CARTESIAN_POINT('',(-7.054869280115,-8.980607966084,6.));
#256 = DIRECTION('',(0.,0.,1.));
#257 = DIRECTION('',(0.866025403784,0.5,0.));
#258 = ADVANCED_FACE('',(#259),#308,.F.);
#259 = FACE_BOUND('',#260,.F.);
#260 = EDGE_LOOP('',(#261,#269,#270,#271));
#261 = ORIENTED_EDGE('',*,*,#262,.F.);
#262 = EDGE_CURVE('',#59,#263,#265,.T.);
#263 = VERTEX_POINT('',#264);
#264 = CARTESIAN_POINT('',(-9.399613391789,-0.519392033916,
    4.500979583586));
#265 = LINE('',#266,#267);
#266 = CARTESIAN_POINT('',(-9.399613391789,-0.519392033916,3.));
#267 = VECTOR('',#268,1.);
#268 = DIRECTION('',(0.,0.,1.));
#269 = ORIENTED_EDGE('',*,*,#81,.F.);
#270 = ORIENTED_EDGE('',*,*,#247,.T.);
#271 = ORIENTED_EDGE('',*,*,#272,.T.);
#272 = EDGE_CURVE('',#239,#263,#273,.T.);
#273 = B_SPLINE_CURVE_WITH_KNOTS('',5,(#274,#275,#276,#277,#278,#279,
    #280,#281,#282,#283,#284,#285,#286,#287,#288,#289,#290,#291,#292,
    #293,#294,#295,#296,#297,#298,#299,#300,#301,#302,#303,#304,#305,
    #306,#307),.UNSPECIFIED.,.F.,.F.,(6,4,4,4,4,4,4,4,6),(0.,
    7.84972492986E-02,0.232768479409,0.417153304235,0.512610434327,
    0.613764308747,0.681242038548,0.841580951555,1.),.UNSPECIFIED.);
#274 = CARTESIAN_POINT('',(-10.26291939198,-1.01782198552,6.3));
#275 = CARTESIAN_POINT('',(-10.2813107475,-1.028440239583,6.263487755618
    ));
#276 = CARTESIAN_POINT('',(-10.29830758911,-1.038253370659,
    6.226043752988));
#277 = CARTESIAN_POINT('',(-10.31386101481,-1.047233145179,
    6.187761806684));
#278 = CARTESIAN_POINT('',(-10.32792967644,-1.055355690757,
    6.148740176157));
#279 = CARTESIAN_POINT('',(-10.36514459105,-1.076841731726,
    6.031140202566));
#280 = CARTESIAN_POINT('',(-10.38394488938,-1.087696089022,
    5.950735727872));
#281 = CARTESIAN_POINT('',(-10.39662338777,-1.095016023482,
    5.868652174983));
#282 = CARTESIAN_POINT('',(-10.40304686319,-1.098724618746,
    5.785713241729));
#283 = CARTESIAN_POINT('',(-10.40341246722,-1.098935700331,
    5.603614637938));
#284 = CARTESIAN_POINT('',(-10.39467331676,-1.093890149461,
    5.504439535304));
#285 = CARTESIAN_POINT('',(-10.37699339802,-1.083682643616,
    5.406675959999));
#286 = CARTESIAN_POINT('',(-10.35063853178,-1.068466654499,
    5.311724686416));
#287 = CARTESIAN_POINT('',(-10.2982536604,-1.038222234906,5.173867283216
    ));
#288 = CARTESIAN_POINT('',(-10.27819669727,-1.026642341842,
    5.127944684469));
#289 = CARTESIAN_POINT('',(-10.25602283846,-1.01384025849,5.083303953478
    ));
#290 = CARTESIAN_POINT('',(-10.23181867779,-0.99986597981,5.040113726441
    ));
#291 = CARTESIAN_POINT('',(-10.17799455243,-0.968790606548,
    4.954467637464));
#292 = CARTESIAN_POINT('',(-10.14813716413,-0.951552435376,
    4.912208908496));
#293 = CARTESIAN_POINT('',(-10.11623587675,-0.933134218517,
    4.871942544982));
#294 = CARTESIAN_POINT('',(-10.08242837937,-0.913615450807,
    4.833837622656));
#295 = CARTESIAN_POINT('',(-10.02314703536,-0.879389350885,
    4.774168502468));
#296 = CARTESIAN_POINT('',(-9.9986456784,-0.865243485844,4.751320819461)
  );
#297 = CARTESIAN_POINT('',(-9.973409808944,-0.85067354982,4.729546629648
    ));
#298 = CARTESIAN_POINT('',(-9.947487426761,-0.835707255489,4.70888645093
    ));
#299 = CARTESIAN_POINT('',(-9.857821671783,-0.783938707716,
    4.643018005028));
#300 = CARTESIAN_POINT('',(-9.791121438427,-0.745429310032,
    4.603153575276));
#301 = CARTESIAN_POINT('',(-9.72150929678,-0.705238721314,4.570273546866
    ));
#302 = CARTESIAN_POINT('',(-9.649726535202,-0.663794924594,
    4.544723551267));
#303 = CARTESIAN_POINT('',(-9.504259933159,-0.579809742746,
    4.508885504389));
#304 = CARTESIAN_POINT('',(-9.430605490043,-0.537285330186,
    4.498417460868));
#305 = CARTESIAN_POINT('',(-9.356346294119,-0.494411763429,
    4.495477973554));
#306 = CARTESIAN_POINT('',(-9.282251971993,-0.451633386604,
    4.500101033752));
#307 = CARTESIAN_POINT('',(-9.209087802957,-0.409392033916,
    4.512165757205));
#308 = PLANE('',#309);
#309 = AXIS2_PLACEMENT_3D('',#310,#311,#312);
#310 = CARTESIAN_POINT('',(-11.30486928011,-1.619392033916,3.));
#311 = DIRECTION('',(-0.5,0.866025403784,0.));
#312 = DIRECTION('',(0.,0.,1.));
#313 = ADVANCED_FACE('',(#314),#344,.F.);
#314 = FACE_BOUND('',#315,.F.);
#315 = EDGE_LOOP('',(#316,#317,#342,#343));
#316 = ORIENTED_EDGE('',*,*,#262,.T.);
#317 = ORIENTED_EDGE('',*,*,#318,.T.);
#318 = EDGE_CURVE('',#263,#173,#319,.T.);
#319 = B_SPLINE_CURVE_WITH_KNOTS('',6,(#320,#321,#322,#323,#324,#325,
    #326,#327,#328,#329,#330,#331,#332,#333,#334,#335,#336,#337,#338,
    #339,#340,#341),.UNSPECIFIED.,.F.,.F.,(7,5,5,5,7),(0.,0.118107378329
    ,0.427748603177,0.735662139732,1.),.UNSPECIFIED.);
#320 = CARTESIAN_POINT('',(-9.824613391789,0.216729559301,4.503864122439
    ));
#321 = CARTESIAN_POINT('',(-9.791628275707,0.159597662353,4.502601423535
    ));
#322 = CARTESIAN_POINT('',(-9.758580637392,0.102357473721,4.501650178994
    ));
#323 = CARTESIAN_POINT('',(-9.725475019951,4.501686229724E-02,
    4.500964153638));
#324 = CARTESIAN_POINT('',(-9.692315692262,-1.241677800592E-02,
    4.500500257735));
#325 = CARTESIAN_POINT('',(-9.659106648968,-6.993652826108E-02,
    4.500218546996));
#326 = CARTESIAN_POINT('',(-9.538667126378,-0.278543900626,
    4.499724821883));
#327 = CARTESIAN_POINT('',(-9.451166064293,-0.430100185874,
    4.500366973752));
#328 = CARTESIAN_POINT('',(-9.363418211231,-0.582083925633,
    4.501350985184));
#329 = CARTESIAN_POINT('',(-9.275497569484,-0.734366944172,
    4.502179101527));
#330 = CARTESIAN_POINT('',(-9.187486003892,-0.88680744743,4.502592792668
    ));
#331 = CARTESIAN_POINT('',(-9.011955696187,-1.190834858644,
    4.502593592212));
#332 = CARTESIAN_POINT('',(-8.924435054611,-1.342425056565,
    4.502185294203));
#333 = CARTESIAN_POINT('',(-8.837003678276,-1.493860642553,4.50136692337
    ));
#334 = CARTESIAN_POINT('',(-8.749742149833,-1.645002043362,
    4.500390916889));
#335 = CARTESIAN_POINT('',(-8.662723347032,-1.795723031027,
    4.499743981092));
#336 = CARTESIAN_POINT('',(-8.501579343982,-2.074832631646,
    4.500349801706));
#337 = CARTESIAN_POINT('',(-8.427376481681,-2.203355759217,
    4.501346863256));
#338 = CARTESIAN_POINT('',(-8.353440993978,-2.331415780402,
    4.503468852046));
#339 = CARTESIAN_POINT('',(-8.279820629411,-2.458929992303,
    4.507214428496));
#340 = CARTESIAN_POINT('',(-8.206579323221,-2.585787655838,
    4.513141833218));
#341 = CARTESIAN_POINT('',(-8.133801428015,-2.711842668001,
    4.521880463245));
#342 = ORIENTED_EDGE('',*,*,#172,.T.);
#343 = ORIENTED_EDGE('',*,*,#58,.F.);
#344 = PLANE('',#345);
#345 = AXIS2_PLACEMENT_3D('',#346,#347,#348);
#346 = CARTESIAN_POINT('',(-5.149613391789,-7.880607966084,3.));
#347 = DIRECTION('',(0.866025403784,0.5,0.));
#348 = DIRECTION('',(0.,0.,1.));
#349 = ADVANCED_FACE('',(#350),#369,.T.);
#350 = FACE_BOUND('',#351,.T.);
#351 = EDGE_LOOP('',(#352,#360,#367,#368));
#352 = ORIENTED_EDGE('',*,*,#353,.T.);
#353 = EDGE_CURVE('',#33,#354,#356,.T.);
#354 = VERTEX_POINT('',#355);
#355 = CARTESIAN_POINT('',(-43.,4.2,5.7));
#356 = LINE('',#357,#358);
#357 = CARTESIAN_POINT('',(-14.22724133595,4.2,5.7));
#358 = VECTOR('',#359,1.);
#359 = DIRECTION('',(-1.,0.,0.));
#360 = ORIENTED_EDGE('',*,*,#361,.F.);
#361 = EDGE_CURVE('',#354,#354,#362,.T.);
#362 = CIRCLE('',#363,2.2);
#363 = AXIS2_PLACEMENT_3D('',#364,#365,#366);
#364 = CARTESIAN_POINT('',(-43.,2.,5.7));
#365 = DIRECTION('',(-1.,0.,0.));
#366 = DIRECTION('',(0.,1.,0.));
#367 = ORIENTED_EDGE('',*,*,#353,.F.);
#368 = ORIENTED_EDGE('',*,*,#41,.F.);
#369 = CYLINDRICAL_SURFACE('',#370,2.2);
#370 = AXIS2_PLACEMENT_3D('',#371,#372,#373);
#371 = CARTESIAN_POINT('',(-14.22724133595,2.,5.7));
#372 = DIRECTION('',(-1.,0.,0.));
#373 = DIRECTION('',(0.,1.,0.));
#374 = ADVANCED_FACE('',(#375),#399,.F.);
#375 = FACE_BOUND('',#376,.F.);
#376 = EDGE_LOOP('',(#377,#378,#387,#394,#395,#396,#397,#398));
#377 = ORIENTED_EDGE('',*,*,#189,.F.);
#378 = ORIENTED_EDGE('',*,*,#379,.T.);
#379 = EDGE_CURVE('',#181,#380,#382,.T.);
#380 = VERTEX_POINT('',#381);
#381 = CARTESIAN_POINT('',(-14.22724133595,3.2,5.7));
#382 = CIRCLE('',#383,7.2);
#383 = AXIS2_PLACEMENT_3D('',#384,#385,#386);
#384 = CARTESIAN_POINT('',(-14.22724133595,-4.,5.7));
#385 = DIRECTION('',(-0.,0.,1.));
#386 = DIRECTION('',(1.,-1.5E-16,0.));
#387 = ORIENTED_EDGE('',*,*,#388,.T.);
#388 = EDGE_CURVE('',#380,#380,#389,.T.);
#389 = CIRCLE('',#390,1.2);
#390 = AXIS2_PLACEMENT_3D('',#391,#392,#393);
#391 = CARTESIAN_POINT('',(-14.22724133595,2.,5.7));
#392 = DIRECTION('',(1.,1.E-17,-0.));
#393 = DIRECTION('',(-1.E-17,1.,0.));
#394 = ORIENTED_EDGE('',*,*,#379,.F.);
#395 = ORIENTED_EDGE('',*,*,#180,.F.);
#396 = ORIENTED_EDGE('',*,*,#318,.F.);
#397 = ORIENTED_EDGE('',*,*,#272,.F.);
#398 = ORIENTED_EDGE('',*,*,#238,.F.);
#399 = TOROIDAL_SURFACE('',#400,6.,1.2);
#400 = AXIS2_PLACEMENT_3D('',#401,#402,#403);
#401 = CARTESIAN_POINT('',(-14.22724133595,-4.,5.7));
#402 = DIRECTION('',(0.,0.,1.));
#403 = DIRECTION('',(1.,-1.5E-16,0.));
#404 = ADVANCED_FACE('',(#405),#425,.T.);
#405 = FACE_BOUND('',#406,.T.);
#406 = EDGE_LOOP('',(#407,#416,#423,#424));
#407 = ORIENTED_EDGE('',*,*,#408,.T.);
#408 = EDGE_CURVE('',#354,#409,#411,.T.);
#409 = VERTEX_POINT('',#410);
#410 = CARTESIAN_POINT('',(-51.2,-4.,5.7));
#411 = CIRCLE('',#412,8.2);
#412 = AXIS2_PLACEMENT_3D('',#413,#414,#415);
#413 = CARTESIAN_POINT('',(-43.,-4.,5.7));
#414 = DIRECTION('',(0.,-0.,1.));
#415 = DIRECTION('',(0.,1.,0.));
#416 = ORIENTED_EDGE('',*,*,#417,.T.);
#417 = EDGE_CURVE('',#409,#409,#418,.T.);
#418 = CIRCLE('',#419,2.2);
#419 = AXIS2_PLACEMENT_3D('',#420,#421,#422);
#420 = CARTESIAN_POINT('',(-49.,-4.,5.7));
#421 = DIRECTION('',(2.8E-16,1.,-0.));
#422 = DIRECTION('',(-1.,2.8E-16,0.));
#423 = ORIENTED_EDGE('',*,*,#408,.F.);
#424 = ORIENTED_EDGE('',*,*,#361,.T.);
#425 = TOROIDAL_SURFACE('',#426,6.,2.2);
#426 = AXIS2_PLACEMENT_3D('',#427,#428,#429);
#427 = CARTESIAN_POINT('',(-43.,-4.,5.7));
#428 = DIRECTION('',(0.,0.,1.));
#429 = DIRECTION('',(0.,1.,0.));
#430 = ADVANCED_FACE('',(#431),#450,.F.);
#431 = FACE_BOUND('',#432,.F.);
#432 = EDGE_LOOP('',(#433,#441,#448,#449));
#433 = ORIENTED_EDGE('',*,*,#434,.T.);
#434 = EDGE_CURVE('',#380,#435,#437,.T.);
#435 = VERTEX_POINT('',#436);
#436 = CARTESIAN_POINT('',(-43.,3.2,5.7));
#437 = LINE('',#438,#439);
#438 = CARTESIAN_POINT('',(-14.22724133595,3.2,5.7));
#439 = VECTOR('',#440,1.);
#440 = DIRECTION('',(-1.,0.,0.));
#441 = ORIENTED_EDGE('',*,*,#442,.F.);
#442 = EDGE_CURVE('',#435,#435,#443,.T.);
#443 = CIRCLE('',#444,1.2);
#444 = AXIS2_PLACEMENT_3D('',#445,#446,#447);
#445 = CARTESIAN_POINT('',(-43.,2.,5.7));
#446 = DIRECTION('',(-1.,0.,0.));
#447 = DIRECTION('',(0.,1.,0.));
#448 = ORIENTED_EDGE('',*,*,#434,.F.);
#449 = ORIENTED_EDGE('',*,*,#388,.F.);
#450 = CYLINDRICAL_SURFACE('',#451,1.2);
#451 = AXIS2_PLACEMENT_3D('',#452,#453,#454);
#452 = CARTESIAN_POINT('',(-14.22724133595,2.,5.7));
#453 = DIRECTION('',(-1.,0.,0.));
#454 = DIRECTION('',(0.,1.,0.));
#455 = ADVANCED_FACE('',(#456),#475,.T.);
#456 = FACE_BOUND('',#457,.T.);
#457 = EDGE_LOOP('',(#458,#466,#473,#474));
#458 = ORIENTED_EDGE('',*,*,#459,.T.);
#459 = EDGE_CURVE('',#409,#460,#462,.T.);
#460 = VERTEX_POINT('',#461);
#461 = CARTESIAN_POINT('',(-51.2,-4.5,5.7));
#462 = LINE('',#463,#464);
#463 = CARTESIAN_POINT('',(-51.2,-4.,5.7));
#464 = VECTOR('',#465,1.);
#465 = DIRECTION('',(0.,-1.,0.));
#466 = ORIENTED_EDGE('',*,*,#467,.F.);
#467 = EDGE_CURVE('',#460,#460,#468,.T.);
#468 = CIRCLE('',#469,2.2);
#469 = AXIS2_PLACEMENT_3D('',#470,#471,#472);
#470 = CARTESIAN_POINT('',(-49.,-4.5,5.7));
#471 = DIRECTION('',(0.,-1.,0.));
#472 = DIRECTION('',(-1.,0.,0.));
#473 = ORIENTED_EDGE('',*,*,#459,.F.);
#474 = ORIENTED_EDGE('',*,*,#417,.F.);
#475 = CYLINDRICAL_SURFACE('',#476,2.2);
#476 = AXIS2_PLACEMENT_3D('',#477,#478,#479);
#477 = CARTESIAN_POINT('',(-49.,-4.,5.7));
#478 = DIRECTION('',(0.,-1.,0.));
#479 = DIRECTION('',(-1.,0.,0.));
#480 = ADVANCED_FACE('',(#481),#501,.F.);
#481 = FACE_BOUND('',#482,.F.);
#482 = EDGE_LOOP('',(#483,#492,#499,#500));
#483 = ORIENTED_EDGE('',*,*,#484,.T.);
#484 = EDGE_CURVE('',#435,#485,#487,.T.);
#485 = VERTEX_POINT('',#486);
#486 = CARTESIAN_POINT('',(-50.2,-4.,5.7));
#487 = CIRCLE('',#488,7.2);
#488 = AXIS2_PLACEMENT_3D('',#489,#490,#491);
#489 = CARTESIAN_POINT('',(-43.,-4.,5.7));
#490 = DIRECTION('',(0.,-0.,1.));
#491 = DIRECTION('',(0.,1.,0.));
#492 = ORIENTED_EDGE('',*,*,#493,.T.);
#493 = EDGE_CURVE('',#485,#485,#494,.T.);
#494 = CIRCLE('',#495,1.2);
#495 = AXIS2_PLACEMENT_3D('',#496,#497,#498);
#496 = CARTESIAN_POINT('',(-49.,-4.,5.7));
#497 = DIRECTION('',(2.8E-16,1.,-0.));
#498 = DIRECTION('',(-1.,2.8E-16,0.));
#499 = ORIENTED_EDGE('',*,*,#484,.F.);
#500 = ORIENTED_EDGE('',*,*,#442,.T.);
#501 = TOROIDAL_SURFACE('',#502,6.,1.2);
#502 = AXIS2_PLACEMENT_3D('',#503,#504,#505);
#503 = CARTESIAN_POINT('',(-43.,-4.,5.7));
#504 = DIRECTION('',(0.,0.,1.));
#505 = DIRECTION('',(0.,1.,0.));
#506 = ADVANCED_FACE('',(#507),#527,.T.);
#507 = FACE_BOUND('',#508,.T.);
#508 = EDGE_LOOP('',(#509,#518,#525,#526));
#509 = ORIENTED_EDGE('',*,*,#510,.T.);
#510 = EDGE_CURVE('',#460,#511,#513,.T.);
#511 = VERTEX_POINT('',#512);
#512 = CARTESIAN_POINT('',(-51.2,-10.5,11.7));
#513 = CIRCLE('',#514,6.);
#514 = AXIS2_PLACEMENT_3D('',#515,#516,#517);
#515 = CARTESIAN_POINT('',(-51.2,-4.5,11.7));
#516 = DIRECTION('',(-1.,-0.,0.));
#517 = DIRECTION('',(0.,-3.E-16,-1.));
#518 = ORIENTED_EDGE('',*,*,#519,.T.);
#519 = EDGE_CURVE('',#511,#511,#520,.T.);
#520 = CIRCLE('',#521,2.2);
#521 = AXIS2_PLACEMENT_3D('',#522,#523,#524);
#522 = CARTESIAN_POINT('',(-49.,-10.5,11.7));
#523 = DIRECTION('',(0.,8.8E-16,-1.));
#524 = DIRECTION('',(0.,-1.,-8.8E-16));
#525 = ORIENTED_EDGE('',*,*,#510,.F.);
#526 = ORIENTED_EDGE('',*,*,#467,.T.);
#527 = TOROIDAL_SURFACE('',#528,6.,2.2);
#528 = AXIS2_PLACEMENT_3D('',#529,#530,#531);
#529 = CARTESIAN_POINT('',(-49.,-4.5,11.7));
#530 = DIRECTION('',(-1.,0.,0.));
#531 = DIRECTION('',(0.,-3.E-16,-1.));
#532 = ADVANCED_FACE('',(#533),#552,.F.);
#533 = FACE_BOUND('',#534,.F.);
#534 = EDGE_LOOP('',(#535,#543,#550,#551));
#535 = ORIENTED_EDGE('',*,*,#536,.T.);
#536 = EDGE_CURVE('',#485,#537,#539,.T.);
#537 = VERTEX_POINT('',#538);
#538 = CARTESIAN_POINT('',(-50.2,-4.5,5.7));
#539 = LINE('',#540,#541);
#540 = CARTESIAN_POINT('',(-50.2,-4.,5.7));
#541 = VECTOR('',#542,1.);
#542 = DIRECTION('',(0.,-1.,0.));
#543 = ORIENTED_EDGE('',*,*,#544,.F.);
#544 = EDGE_CURVE('',#537,#537,#545,.T.);
#545 = CIRCLE('',#546,1.2);
#546 = AXIS2_PLACEMENT_3D('',#547,#548,#549);
#547 = CARTESIAN_POINT('',(-49.,-4.5,5.7));
#548 = DIRECTION('',(0.,-1.,0.));
#549 = DIRECTION('',(-1.,0.,0.));
#550 = ORIENTED_EDGE('',*,*,#536,.F.);
#551 = ORIENTED_EDGE('',*,*,#493,.F.);
#552 = CYLINDRICAL_SURFACE('',#553,1.2);
#553 = AXIS2_PLACEMENT_3D('',#554,#555,#556);
#554 = CARTESIAN_POINT('',(-49.,-4.,5.7));
#555 = DIRECTION('',(0.,-1.,0.));
#556 = DIRECTION('',(-1.,0.,0.));
#557 = ADVANCED_FACE('',(#558),#577,.T.);
#558 = FACE_BOUND('',#559,.T.);
#559 = EDGE_LOOP('',(#560,#568,#575,#576));
#560 = ORIENTED_EDGE('',*,*,#561,.T.);
#561 = EDGE_CURVE('',#511,#562,#564,.T.);
#562 = VERTEX_POINT('',#563);
#563 = CARTESIAN_POINT('',(-51.2,-10.5,14.6));
#564 = LINE('',#565,#566);
#565 = CARTESIAN_POINT('',(-51.2,-10.5,11.7));
#566 = VECTOR('',#567,1.);
#567 = DIRECTION('',(0.,0.,1.));
#568 = ORIENTED_EDGE('',*,*,#569,.F.);
#569 = EDGE_CURVE('',#562,#562,#570,.T.);
#570 = CIRCLE('',#571,2.2);
#571 = AXIS2_PLACEMENT_3D('',#572,#573,#574);
#572 = CARTESIAN_POINT('',(-49.,-10.5,14.6));
#573 = DIRECTION('',(0.,0.,1.));
#574 = DIRECTION('',(-1.,0.,0.));
#575 = ORIENTED_EDGE('',*,*,#561,.F.);
#576 = ORIENTED_EDGE('',*,*,#519,.F.);
#577 = CYLINDRICAL_SURFACE('',#578,2.2);
#578 = AXIS2_PLACEMENT_3D('',#579,#580,#581);
#579 = CARTESIAN_POINT('',(-49.,-10.5,11.7));
#580 = DIRECTION('',(0.,0.,1.));
#581 = DIRECTION('',(-1.,0.,0.));
#582 = ADVANCED_FACE('',(#583),#603,.F.);
#583 = FACE_BOUND('',#584,.F.);
#584 = EDGE_LOOP('',(#585,#594,#601,#602));
#585 = ORIENTED_EDGE('',*,*,#586,.T.);
#586 = EDGE_CURVE('',#537,#587,#589,.T.);
#587 = VERTEX_POINT('',#588);
#588 = CARTESIAN_POINT('',(-50.2,-10.5,11.7));
#589 = CIRCLE('',#590,6.);
#590 = AXIS2_PLACEMENT_3D('',#591,#592,#593);
#591 = CARTESIAN_POINT('',(-50.2,-4.5,11.7));
#592 = DIRECTION('',(-1.,-0.,0.));
#593 = DIRECTION('',(0.,-3.E-16,-1.));
#594 = ORIENTED_EDGE('',*,*,#595,.T.);
#595 = EDGE_CURVE('',#587,#587,#596,.T.);
#596 = CIRCLE('',#597,1.2);
#597 = AXIS2_PLACEMENT_3D('',#598,#599,#600);
#598 = CARTESIAN_POINT('',(-49.,-10.5,11.7));
#599 = DIRECTION('',(0.,8.8E-16,-1.));
#600 = DIRECTION('',(0.,-1.,-8.8E-16));
#601 = ORIENTED_EDGE('',*,*,#586,.F.);
#602 = ORIENTED_EDGE('',*,*,#544,.T.);
#603 = TOROIDAL_SURFACE('',#604,6.,1.2);
#604 = AXIS2_PLACEMENT_3D('',#605,#606,#607);
#605 = CARTESIAN_POINT('',(-49.,-4.5,11.7));
#606 = DIRECTION('',(-1.,0.,0.));
#607 = DIRECTION('',(0.,-3.E-16,-1.));
#608 = ADVANCED_FACE('',(#609),#629,.T.);
#609 = FACE_BOUND('',#610,.T.);
#610 = EDGE_LOOP('',(#611,#620,#627,#628));
#611 = ORIENTED_EDGE('',*,*,#612,.T.);
#612 = EDGE_CURVE('',#562,#613,#615,.T.);
#613 = VERTEX_POINT('',#614);
#614 = CARTESIAN_POINT('',(-43.,-10.5,22.8));
#615 = CIRCLE('',#616,8.2);
#616 = AXIS2_PLACEMENT_3D('',#617,#618,#619);
#617 = CARTESIAN_POINT('',(-43.,-10.5,14.6));
#618 = DIRECTION('',(0.,1.,-0.));
#619 = DIRECTION('',(-1.,0.,5.9E-16));
#620 = ORIENTED_EDGE('',*,*,#621,.T.);
#621 = EDGE_CURVE('',#613,#613,#622,.T.);
#622 = CIRCLE('',#623,2.2);
#623 = AXIS2_PLACEMENT_3D('',#624,#625,#626);
#624 = CARTESIAN_POINT('',(-43.,-10.5,20.6));
#625 = DIRECTION('',(-1.,0.,-3.6E-16));
#626 = DIRECTION('',(-3.6E-16,0.,1.));
#627 = ORIENTED_EDGE('',*,*,#612,.F.);
#628 = ORIENTED_EDGE('',*,*,#569,.T.);
#629 = TOROIDAL_SURFACE('',#630,6.,2.2);
#630 = AXIS2_PLACEMENT_3D('',#631,#632,#633);
#631 = CARTESIAN_POINT('',(-43.,-10.5,14.6));
#632 = DIRECTION('',(0.,1.,0.));
#633 = DIRECTION('',(-1.,0.,5.9E-16));
#634 = ADVANCED_FACE('',(#635),#654,.F.);
#635 = FACE_BOUND('',#636,.F.);
#636 = EDGE_LOOP('',(#637,#645,#652,#653));
#637 = ORIENTED_EDGE('',*,*,#638,.T.);
#638 = EDGE_CURVE('',#587,#639,#641,.T.);
#639 = VERTEX_POINT('',#640);
#640 = CARTESIAN_POINT('',(-50.2,-10.5,14.6));
#641 = LINE('',#642,#643);
#642 = CARTESIAN_POINT('',(-50.2,-10.5,11.7));
#643 = VECTOR('',#644,1.);
#644 = DIRECTION('',(0.,0.,1.));
#645 = ORIENTED_EDGE('',*,*,#646,.F.);
#646 = EDGE_CURVE('',#639,#639,#647,.T.);
#647 = CIRCLE('',#648,1.2);
#648 = AXIS2_PLACEMENT_3D('',#649,#650,#651);
#649 = CARTESIAN_POINT('',(-49.,-10.5,14.6));
#650 = DIRECTION('',(0.,0.,1.));
#651 = DIRECTION('',(-1.,0.,0.));
#652 = ORIENTED_EDGE('',*,*,#638,.F.);
#653 = ORIENTED_EDGE('',*,*,#595,.F.);
#654 = CYLINDRICAL_SURFACE('',#655,1.2);
#655 = AXIS2_PLACEMENT_3D('',#656,#657,#658);
#656 = CARTESIAN_POINT('',(-49.,-10.5,11.7));
#657 = DIRECTION('',(0.,0.,1.));
#658 = DIRECTION('',(-1.,0.,0.));
#659 = ADVANCED_FACE('',(#660),#680,.T.);
#660 = FACE_BOUND('',#661,.T.);
#661 = EDGE_LOOP('',(#662,#671,#678,#679));
#662 = ORIENTED_EDGE('',*,*,#663,.T.);
#663 = EDGE_CURVE('',#613,#664,#666,.T.);
#664 = VERTEX_POINT('',#665);
#665 = CARTESIAN_POINT('',(-37.5,-11.19,22.8));
#666 = CIRCLE('',#667,22.265289855073);
#667 = AXIS2_PLACEMENT_3D('',#668,#669,#670);
#668 = CARTESIAN_POINT('',(-43.,-32.76528985507,22.8));
#669 = DIRECTION('',(0.,0.,-1.));
#670 = DIRECTION('',(1.91E-15,1.,0.));
#671 = ORIENTED_EDGE('',*,*,#672,.T.);
#672 = EDGE_CURVE('',#664,#664,#673,.T.);
#673 = CIRCLE('',#674,2.2);
#674 = AXIS2_PLACEMENT_3D('',#675,#676,#677);
#675 = CARTESIAN_POINT('',(-37.5,-11.19,20.6));
#676 = DIRECTION('',(-0.969010059851,0.247021262054,0.));
#677 = DIRECTION('',(0.247021262054,0.969010059851,0.));
#678 = ORIENTED_EDGE('',*,*,#663,.F.);
#679 = ORIENTED_EDGE('',*,*,#621,.F.);
#680 = TOROIDAL_SURFACE('',#681,22.265289855073,2.2);
#681 = AXIS2_PLACEMENT_3D('',#682,#683,#684);
#682 = CARTESIAN_POINT('',(-43.,-32.76528985507,20.6));
#683 = DIRECTION('',(0.,0.,-1.));
#684 = DIRECTION('',(1.91E-15,1.,0.));
#685 = ADVANCED_FACE('',(#686),#706,.F.);
#686 = FACE_BOUND('',#687,.F.);
#687 = EDGE_LOOP('',(#688,#697,#704,#705));
#688 = ORIENTED_EDGE('',*,*,#689,.T.);
#689 = EDGE_CURVE('',#639,#690,#692,.T.);
#690 = VERTEX_POINT('',#691);
#691 = CARTESIAN_POINT('',(-43.,-10.5,21.8));
#692 = CIRCLE('',#693,7.2);
#693 = AXIS2_PLACEMENT_3D('',#694,#695,#696);
#694 = CARTESIAN_POINT('',(-43.,-10.5,14.6));
#695 = DIRECTION('',(0.,1.,-0.));
#696 = DIRECTION('',(-1.,0.,5.9E-16));
#697 = ORIENTED_EDGE('',*,*,#698,.T.);
#698 = EDGE_CURVE('',#690,#690,#699,.T.);
#699 = CIRCLE('',#700,1.2);
#700 = AXIS2_PLACEMENT_3D('',#701,#702,#703);
#701 = CARTESIAN_POINT('',(-43.,-10.5,20.6));
#702 = DIRECTION('',(-1.,0.,-3.6E-16));
#703 = DIRECTION('',(-3.6E-16,0.,1.));
#704 = ORIENTED_EDGE('',*,*,#689,.F.);
#705 = ORIENTED_EDGE('',*,*,#646,.T.);
#706 = TOROIDAL_SURFACE('',#707,6.,1.2);
#707 = AXIS2_PLACEMENT_3D('',#708,#709,#710);
#708 = CARTESIAN_POINT('',(-43.,-10.5,14.6));
#709 = DIRECTION('',(0.,1.,0.));
#710 = DIRECTION('',(-1.,0.,5.9E-16));
#711 = ADVANCED_FACE('',(#712),#732,.T.);
#712 = FACE_BOUND('',#713,.T.);
#713 = EDGE_LOOP('',(#714,#723,#730,#731));
#714 = ORIENTED_EDGE('',*,*,#715,.T.);
#715 = EDGE_CURVE('',#664,#716,#718,.T.);
#716 = VERTEX_POINT('',#717);
#717 = CARTESIAN_POINT('',(-32.,-11.88,22.8));
#718 = CIRCLE('',#719,22.265289855072);
#719 = AXIS2_PLACEMENT_3D('',#720,#721,#722);
#720 = CARTESIAN_POINT('',(-32.,10.385289855072,22.8));
#721 = DIRECTION('',(0.,0.,1.));
#722 = DIRECTION('',(-0.247021262054,-0.969010059851,0.));
#723 = ORIENTED_EDGE('',*,*,#724,.T.);
#724 = EDGE_CURVE('',#716,#716,#725,.T.);
#725 = CIRCLE('',#726,2.2);
#726 = AXIS2_PLACEMENT_3D('',#727,#728,#729);
#727 = CARTESIAN_POINT('',(-32.,-11.88,20.6));
#728 = DIRECTION('',(-1.,1.1E-16,0.));
#729 = DIRECTION('',(-1.1E-16,-1.,0.));
#730 = ORIENTED_EDGE('',*,*,#715,.F.);
#731 = ORIENTED_EDGE('',*,*,#672,.F.);
#732 = TOROIDAL_SURFACE('',#733,22.265289855072,2.2);
#733 = AXIS2_PLACEMENT_3D('',#734,#735,#736);
#734 = CARTESIAN_POINT('',(-32.,10.385289855072,20.6));
#735 = DIRECTION('',(0.,0.,1.));
#736 = DIRECTION('',(-0.247021262054,-0.969010059851,0.));
#737 = ADVANCED_FACE('',(#738),#758,.F.);
#738 = FACE_BOUND('',#739,.F.);
#739 = EDGE_LOOP('',(#740,#749,#756,#757));
#740 = ORIENTED_EDGE('',*,*,#741,.T.);
#741 = EDGE_CURVE('',#690,#742,#744,.T.);
#742 = VERTEX_POINT('',#743);
#743 = CARTESIAN_POINT('',(-37.5,-11.19,21.8));
#744 = CIRCLE('',#745,22.265289855073);
#745 = AXIS2_PLACEMENT_3D('',#746,#747,#748);
#746 = CARTESIAN_POINT('',(-43.,-32.76528985507,21.8));
#747 = DIRECTION('',(0.,0.,-1.));
#748 = DIRECTION('',(1.91E-15,1.,0.));
#749 = ORIENTED_EDGE('',*,*,#750,.T.);
#750 = EDGE_CURVE('',#742,#742,#751,.T.);
#751 = CIRCLE('',#752,1.2);
#752 = AXIS2_PLACEMENT_3D('',#753,#754,#755);
#753 = CARTESIAN_POINT('',(-37.5,-11.19,20.6));
#754 = DIRECTION('',(-0.969010059851,0.247021262054,0.));
#755 = DIRECTION('',(0.247021262054,0.969010059851,0.));
#756 = ORIENTED_EDGE('',*,*,#741,.F.);
#757 = ORIENTED_EDGE('',*,*,#698,.F.);
#758 = TOROIDAL_SURFACE('',#759,22.265289855073,1.2);
#759 = AXIS2_PLACEMENT_3D('',#760,#761,#762);
#760 = CARTESIAN_POINT('',(-43.,-32.76528985507,20.6));
#761 = DIRECTION('',(0.,0.,-1.));
#762 = DIRECTION('',(1.91E-15,1.,0.));
#763 = ADVANCED_FACE('',(#764),#783,.T.);
#764 = FACE_BOUND('',#765,.T.);
#765 = EDGE_LOOP('',(#766,#774,#781,#782));
#766 = ORIENTED_EDGE('',*,*,#767,.T.);
#767 = EDGE_CURVE('',#716,#768,#770,.T.);
#768 = VERTEX_POINT('',#769);
#769 = CARTESIAN_POINT('',(-29.6,-11.88,22.8));
#770 = LINE('',#771,#772);
#771 = CARTESIAN_POINT('',(-32.,-11.88,22.8));
#772 = VECTOR('',#773,1.);
#773 = DIRECTION('',(1.,0.,0.));
#774 = ORIENTED_EDGE('',*,*,#775,.F.);
#775 = EDGE_CURVE('',#768,#768,#776,.T.);
#776 = CIRCLE('',#777,2.2);
#777 = AXIS2_PLACEMENT_3D('',#778,#779,#780);
#778 = CARTESIAN_POINT('',(-29.6,-11.88,20.6));
#779 = DIRECTION('',(1.,0.,-0.));
#780 = DIRECTION('',(0.,0.,1.));
#781 = ORIENTED_EDGE('',*,*,#767,.F.);
#782 = ORIENTED_EDGE('',*,*,#724,.F.);
#783 = CYLINDRICAL_SURFACE('',#784,2.2);
#784 = AXIS2_PLACEMENT_3D('',#785,#786,#787);
#785 = CARTESIAN_POINT('',(-32.,-11.88,20.6));
#786 = DIRECTION('',(1.,0.,0.));
#787 = DIRECTION('',(0.,0.,1.));
#788 = ADVANCED_FACE('',(#789),#809,.F.);
#789 = FACE_BOUND('',#790,.F.);
#790 = EDGE_LOOP('',(#791,#800,#807,#808));
#791 = ORIENTED_EDGE('',*,*,#792,.T.);
#792 = EDGE_CURVE('',#742,#793,#795,.T.);
#793 = VERTEX_POINT('',#794);
#794 = CARTESIAN_POINT('',(-32.,-11.88,21.8));
#795 = CIRCLE('',#796,22.265289855072);
#796 = AXIS2_PLACEMENT_3D('',#797,#798,#799);
#797 = CARTESIAN_POINT('',(-32.,10.385289855072,21.8));
#798 = DIRECTION('',(0.,0.,1.));
#799 = DIRECTION('',(-0.247021262054,-0.969010059851,0.));
#800 = ORIENTED_EDGE('',*,*,#801,.T.);
#801 = EDGE_CURVE('',#793,#793,#802,.T.);
#802 = CIRCLE('',#803,1.2);
#803 = AXIS2_PLACEMENT_3D('',#804,#805,#806);
#804 = CARTESIAN_POINT('',(-32.,-11.88,20.6));
#805 = DIRECTION('',(-1.,1.1E-16,0.));
#806 = DIRECTION('',(-1.1E-16,-1.,0.));
#807 = ORIENTED_EDGE('',*,*,#792,.F.);
#808 = ORIENTED_EDGE('',*,*,#750,.F.);
#809 = TOROIDAL_SURFACE('',#810,22.265289855072,1.2);
#810 = AXIS2_PLACEMENT_3D('',#811,#812,#813);
#811 = CARTESIAN_POINT('',(-32.,10.385289855072,20.6));
#812 = DIRECTION('',(0.,0.,1.));
#813 = DIRECTION('',(-0.247021262054,-0.969010059851,0.));
#814 = ADVANCED_FACE('',(#815,#818),#829,.T.);
#815 = FACE_BOUND('',#816,.T.);
#816 = EDGE_LOOP('',(#817));
#817 = ORIENTED_EDGE('',*,*,#775,.T.);
#818 = FACE_BOUND('',#819,.T.);
#819 = EDGE_LOOP('',(#820));
#820 = ORIENTED_EDGE('',*,*,#821,.F.);
#821 = EDGE_CURVE('',#822,#822,#824,.T.);
#822 = VERTEX_POINT('',#823);
#823 = CARTESIAN_POINT('',(-29.6,-11.88,21.8));
#824 = CIRCLE('',#825,1.2);
#825 = AXIS2_PLACEMENT_3D('',#826,#827,#828);
#826 = CARTESIAN_POINT('',(-29.6,-11.88,20.6));
#827 = DIRECTION('',(1.,0.,-0.));
#828 = DIRECTION('',(0.,0.,1.));
#829 = PLANE('',#830);
#830 = AXIS2_PLACEMENT_3D('',#831,#832,#833);
#831 = CARTESIAN_POINT('',(-29.6,-11.88,20.6));
#832 = DIRECTION('',(1.,0.,0.));
#833 = DIRECTION('',(0.,0.,1.));
#834 = ADVANCED_FACE('',(#835),#846,.F.);
#835 = FACE_BOUND('',#836,.F.);
#836 = EDGE_LOOP('',(#837,#843,#844,#845));
#837 = ORIENTED_EDGE('',*,*,#838,.T.);
#838 = EDGE_CURVE('',#793,#822,#839,.T.);
#839 = LINE('',#840,#841);
#840 = CARTESIAN_POINT('',(-32.,-11.88,21.8));
#841 = VECTOR('',#842,1.);
#842 = DIRECTION('',(1.,0.,0.));
#843 = ORIENTED_EDGE('',*,*,#821,.F.);
#844 = ORIENTED_EDGE('',*,*,#838,.F.);
#845 = ORIENTED_EDGE('',*,*,#801,.F.);
#846 = CYLINDRICAL_SURFACE('',#847,1.2);
#847 = AXIS2_PLACEMENT_3D('',#848,#849,#850);
#848 = CARTESIAN_POINT('',(-32.,-11.88,20.6));
#849 = DIRECTION('',(1.,0.,0.));
#850 = DIRECTION('',(0.,0.,1.));
#851 = ( GEOMETRIC_REPRESENTATION_CONTEXT(3) 
GLOBAL_UNCERTAINTY_ASSIGNED_CONTEXT((#855)) GLOBAL_UNIT_ASSIGNED_CONTEXT
((#852,#853,#854)) REPRESENTATION_CONTEXT('Context #1',
  '3D Context with UNIT and UNCERTAINTY') );
#852 = ( LENGTH_UNIT() NAMED_UNIT(*) SI_UNIT(.MILLI.,.METRE.) );
#853 = ( NAMED_UNIT(*) PLANE_ANGLE_UNIT() SI_UNIT($,.RADIAN.) );
#854 = ( NAMED_UNIT(*) SI_UNIT($,.STERADIAN.) SOLID_ANGLE_UNIT() );
#855 = UNCERTAINTY_MEASURE_WITH_UNIT(LENGTH_MEASURE(2.E-07),#852,
  'distance_accuracy_value','confusion accuracy');
#856 = PRODUCT_RELATED_PRODUCT_CATEGORY('part',$,(#7));
ENDSEC;
END-ISO-10303-21;
