ISO-10303-21;
HEADER;
FILE_DESCRIPTION(('FreeCAD Model'),'2;1');
FILE_NAME('Open CASCADE Shape Model','2026-09-30T05:24:22',('FreeCAD'),(
    'FreeCAD'),'Open CASCADE STEP processor 7.8','FreeCAD','Unknown');
FILE_SCHEMA(('AUTOMOTIVE_DESIGN { 1 0 10303 214 1 1 1 1 }'));
ENDSEC;
DATA;
#1 = APPLICATION_PROTOCOL_DEFINITION('international standard',
  'automotive_design',2000,#2);
#2 = APPLICATION_CONTEXT(
  'core data for automotive mechanical design processes');
#3 = SHAPE_DEFINITION_REPRESENTATION(#4,#10);
#4 = PRODUCT_DEFINITION_SHAPE('','',#5);
#5 = PRODUCT_DEFINITION('design','',#6,#9);
#6 = PRODUCT_DEFINITION_FORMATION('','',#7);
#7 = PRODUCT('Open CASCADE STEP translator 7.8 50',
  'Open CASCADE STEP translator 7.8 50','',(#8));
#8 = PRODUCT_CONTEXT('',#2,'mechanical');
#9 = PRODUCT_DEFINITION_CONTEXT('part definition',#2,'design');
#10 = ADVANCED_BREP_SHAPE_REPRESENTATION('',(#11,#15),#417);
#11 = AXIS2_PLACEMENT_3D('',#12,#13,#14);
#12 = CARTESIAN_POINT('',(0.,0.,0.));
#13 = DIRECTION('',(0.,0.,1.));
#14 = DIRECTION('',(1.,0.,-0.));
#15 = MANIFOLD_SOLID_BREP('',#16);
#16 = CLOSED_SHELL('',(#17,#50,#70,#96,#121,#146,#172,#198,#223,#249,
    #275,#301,#327,#353,#379,#399));
#17 = ADVANCED_FACE('',(#18),#45,.T.);
#18 = FACE_BOUND('',#19,.T.);
#19 = EDGE_LOOP('',(#20,#30,#37,#38));
#20 = ORIENTED_EDGE('',*,*,#21,.T.);
#21 = EDGE_CURVE('',#22,#24,#26,.T.);
#22 = VERTEX_POINT('',#23);
#23 = CARTESIAN_POINT('',(-29.6,-3.26,22.8));
#24 = VERTEX_POINT('',#25);
#25 = CARTESIAN_POINT('',(-38.,-3.26,22.8));
#26 = LINE('',#27,#28);
#27 = CARTESIAN_POINT('',(-21.4,-3.26,22.8));
#28 = VECTOR('',#29,1.);
#29 = DIRECTION('',(-1.,0.,0.));
#30 = ORIENTED_EDGE('',*,*,#31,.F.);
#31 = EDGE_CURVE('',#24,#24,#32,.T.);
#32 = CIRCLE('',#33,2.2);
#33 = AXIS2_PLACEMENT_3D('',#34,#35,#36);
#34 = CARTESIAN_POINT('',(-38.,-3.26,20.6));
#35 = DIRECTION('',(-1.,0.,0.));
#36 = DIRECTION('',(0.,0.,1.));
#37 = ORIENTED_EDGE('',*,*,#21,.F.);
#38 = ORIENTED_EDGE('',*,*,#39,.T.);
#39 = EDGE_CURVE('',#22,#22,#40,.T.);
#40 = CIRCLE('',#41,2.2);
#41 = AXIS2_PLACEMENT_3D('',#42,#43,#44);
#42 = CARTESIAN_POINT('',(-29.6,-3.26,20.6));
#43 = DIRECTION('',(-1.,0.,0.));
#44 = DIRECTION('',(0.,0.,1.));
#45 = CYLINDRICAL_SURFACE('',#46,2.2);
#46 = AXIS2_PLACEMENT_3D('',#47,#48,#49);
#47 = CARTESIAN_POINT('',(-21.4,-3.26,20.6));
#48 = DIRECTION('',(-1.,0.,0.));
#49 = DIRECTION('',(0.,0.,1.));
#50 = ADVANCED_FACE('',(#51,#54),#65,.F.);
#51 = FACE_BOUND('',#52,.F.);
#52 = EDGE_LOOP('',(#53));
#53 = ORIENTED_EDGE('',*,*,#39,.T.);
#54 = FACE_BOUND('',#55,.F.);
#55 = EDGE_LOOP('',(#56));
#56 = ORIENTED_EDGE('',*,*,#57,.F.);
#57 = EDGE_CURVE('',#58,#58,#60,.T.);
#58 = VERTEX_POINT('',#59);
#59 = CARTESIAN_POINT('',(-29.6,-3.26,21.8));
#60 = CIRCLE('',#61,1.2);
#61 = AXIS2_PLACEMENT_3D('',#62,#63,#64);
#62 = CARTESIAN_POINT('',(-29.6,-3.26,20.6));
#63 = DIRECTION('',(-1.,0.,0.));
#64 = DIRECTION('',(0.,0.,1.));
#65 = PLANE('',#66);
#66 = AXIS2_PLACEMENT_3D('',#67,#68,#69);
#67 = CARTESIAN_POINT('',(-29.6,-3.26,20.6));
#68 = DIRECTION('',(-1.,-0.,-0.));
#69 = DIRECTION('',(0.,0.,-1.));
#70 = ADVANCED_FACE('',(#71),#91,.T.);
#71 = FACE_BOUND('',#72,.T.);
#72 = EDGE_LOOP('',(#73,#82,#89,#90));
#73 = ORIENTED_EDGE('',*,*,#74,.T.);
#74 = EDGE_CURVE('',#24,#75,#77,.T.);
#75 = VERTEX_POINT('',#76);
#76 = CARTESIAN_POINT('',(-41.8,-3.26,26.6));
#77 = CIRCLE('',#78,3.8);
#78 = AXIS2_PLACEMENT_3D('',#79,#80,#81);
#79 = CARTESIAN_POINT('',(-38.,-3.26,26.6));
#80 = DIRECTION('',(0.,1.,0.));
#81 = DIRECTION('',(0.,0.,-1.));
#82 = ORIENTED_EDGE('',*,*,#83,.T.);
#83 = EDGE_CURVE('',#75,#75,#84,.T.);
#84 = CIRCLE('',#85,2.2);
#85 = AXIS2_PLACEMENT_3D('',#86,#87,#88);
#86 = CARTESIAN_POINT('',(-44.,-3.26,26.6));
#87 = DIRECTION('',(9.5E-16,0.,-1.));
#88 = DIRECTION('',(-1.,0.,-9.5E-16));
#89 = ORIENTED_EDGE('',*,*,#74,.F.);
#90 = ORIENTED_EDGE('',*,*,#31,.T.);
#91 = TOROIDAL_SURFACE('',#92,6.,2.2);
#92 = AXIS2_PLACEMENT_3D('',#93,#94,#95);
#93 = CARTESIAN_POINT('',(-38.,-3.26,26.6));
#94 = DIRECTION('',(0.,1.,0.));
#95 = DIRECTION('',(0.,0.,-1.));
#96 = ADVANCED_FACE('',(#97),#116,.F.);
#97 = FACE_BOUND('',#98,.F.);
#98 = EDGE_LOOP('',(#99,#107,#114,#115));
#99 = ORIENTED_EDGE('',*,*,#100,.T.);
#100 = EDGE_CURVE('',#58,#101,#103,.T.);
#101 = VERTEX_POINT('',#102);
#102 = CARTESIAN_POINT('',(-38.,-3.26,21.8));
#103 = LINE('',#104,#105);
#104 = CARTESIAN_POINT('',(-21.4,-3.26,21.8));
#105 = VECTOR('',#106,1.);
#106 = DIRECTION('',(-1.,0.,0.));
#107 = ORIENTED_EDGE('',*,*,#108,.F.);
#108 = EDGE_CURVE('',#101,#101,#109,.T.);
#109 = CIRCLE('',#110,1.2);
#110 = AXIS2_PLACEMENT_3D('',#111,#112,#113);
#111 = CARTESIAN_POINT('',(-38.,-3.26,20.6));
#112 = DIRECTION('',(-1.,0.,0.));
#113 = DIRECTION('',(0.,0.,1.));
#114 = ORIENTED_EDGE('',*,*,#100,.F.);
#115 = ORIENTED_EDGE('',*,*,#57,.T.);
#116 = CYLINDRICAL_SURFACE('',#117,1.2);
#117 = AXIS2_PLACEMENT_3D('',#118,#119,#120);
#118 = CARTESIAN_POINT('',(-21.4,-3.26,20.6));
#119 = DIRECTION('',(-1.,0.,0.));
#120 = DIRECTION('',(0.,0.,1.));
#121 = ADVANCED_FACE('',(#122),#141,.T.);
#122 = FACE_BOUND('',#123,.T.);
#123 = EDGE_LOOP('',(#124,#132,#139,#140));
#124 = ORIENTED_EDGE('',*,*,#125,.T.);
#125 = EDGE_CURVE('',#75,#126,#128,.T.);
#126 = VERTEX_POINT('',#127);
#127 = CARTESIAN_POINT('',(-41.8,-3.26,32.8));
#128 = LINE('',#129,#130);
#129 = CARTESIAN_POINT('',(-41.8,-3.26,26.6));
#130 = VECTOR('',#131,1.);
#131 = DIRECTION('',(0.,0.,1.));
#132 = ORIENTED_EDGE('',*,*,#133,.F.);
#133 = EDGE_CURVE('',#126,#126,#134,.T.);
#134 = CIRCLE('',#135,2.2);
#135 = AXIS2_PLACEMENT_3D('',#136,#137,#138);
#136 = CARTESIAN_POINT('',(-44.,-3.26,32.8));
#137 = DIRECTION('',(0.,0.,1.));
#138 = DIRECTION('',(1.,0.,0.));
#139 = ORIENTED_EDGE('',*,*,#125,.F.);
#140 = ORIENTED_EDGE('',*,*,#83,.F.);
#141 = CYLINDRICAL_SURFACE('',#142,2.2);
#142 = AXIS2_PLACEMENT_3D('',#143,#144,#145);
#143 = CARTESIAN_POINT('',(-44.,-3.26,26.6));
#144 = DIRECTION('',(0.,0.,1.));
#145 = DIRECTION('',(1.,0.,0.));
#146 = ADVANCED_FACE('',(#147),#167,.F.);
#147 = FACE_BOUND('',#148,.F.);
#148 = EDGE_LOOP('',(#149,#158,#165,#166));
#149 = ORIENTED_EDGE('',*,*,#150,.T.);
#150 = EDGE_CURVE('',#101,#151,#153,.T.);
#151 = VERTEX_POINT('',#152);
#152 = CARTESIAN_POINT('',(-42.8,-3.26,26.6));
#153 = CIRCLE('',#154,4.8);
#154 = AXIS2_PLACEMENT_3D('',#155,#156,#157);
#155 = CARTESIAN_POINT('',(-38.,-3.26,26.6));
#156 = DIRECTION('',(0.,1.,0.));
#157 = DIRECTION('',(0.,0.,-1.));
#158 = ORIENTED_EDGE('',*,*,#159,.T.);
#159 = EDGE_CURVE('',#151,#151,#160,.T.);
#160 = CIRCLE('',#161,1.2);
#161 = AXIS2_PLACEMENT_3D('',#162,#163,#164);
#162 = CARTESIAN_POINT('',(-44.,-3.26,26.6));
#163 = DIRECTION('',(9.5E-16,0.,-1.));
#164 = DIRECTION('',(-1.,0.,-9.5E-16));
#165 = ORIENTED_EDGE('',*,*,#150,.F.);
#166 = ORIENTED_EDGE('',*,*,#108,.T.);
#167 = TOROIDAL_SURFACE('',#168,6.,1.2);
#168 = AXIS2_PLACEMENT_3D('',#169,#170,#171);
#169 = CARTESIAN_POINT('',(-38.,-3.26,26.6));
#170 = DIRECTION('',(0.,1.,0.));
#171 = DIRECTION('',(0.,0.,-1.));
#172 = ADVANCED_FACE('',(#173),#193,.T.);
#173 = FACE_BOUND('',#174,.T.);
#174 = EDGE_LOOP('',(#175,#184,#191,#192));
#175 = ORIENTED_EDGE('',*,*,#176,.T.);
#176 = EDGE_CURVE('',#126,#177,#179,.T.);
#177 = VERTEX_POINT('',#178);
#178 = CARTESIAN_POINT('',(-38.,-3.26,36.6));
#179 = CIRCLE('',#180,3.8);
#180 = AXIS2_PLACEMENT_3D('',#181,#182,#183);
#181 = CARTESIAN_POINT('',(-38.,-3.26,32.8));
#182 = DIRECTION('',(0.,1.,-0.));
#183 = DIRECTION('',(-1.,0.,0.));
#184 = ORIENTED_EDGE('',*,*,#185,.T.);
#185 = EDGE_CURVE('',#177,#177,#186,.T.);
#186 = CIRCLE('',#187,2.2);
#187 = AXIS2_PLACEMENT_3D('',#188,#189,#190);
#188 = CARTESIAN_POINT('',(-38.,-3.26,38.8));
#189 = DIRECTION('',(-1.,0.,-5.1E-16));
#190 = DIRECTION('',(-5.1E-16,0.,1.));
#191 = ORIENTED_EDGE('',*,*,#176,.F.);
#192 = ORIENTED_EDGE('',*,*,#133,.T.);
#193 = TOROIDAL_SURFACE('',#194,6.,2.2);
#194 = AXIS2_PLACEMENT_3D('',#195,#196,#197);
#195 = CARTESIAN_POINT('',(-38.,-3.26,32.8));
#196 = DIRECTION('',(0.,1.,0.));
#197 = DIRECTION('',(-1.,0.,0.));
#198 = ADVANCED_FACE('',(#199),#218,.F.);
#199 = FACE_BOUND('',#200,.F.);
#200 = EDGE_LOOP('',(#201,#209,#216,#217));
#201 = ORIENTED_EDGE('',*,*,#202,.T.);
#202 = EDGE_CURVE('',#151,#203,#205,.T.);
#203 = VERTEX_POINT('',#204);
#204 = CARTESIAN_POINT('',(-42.8,-3.26,32.8));
#205 = LINE('',#206,#207);
#206 = CARTESIAN_POINT('',(-42.8,-3.26,26.6));
#207 = VECTOR('',#208,1.);
#208 = DIRECTION('',(0.,0.,1.));
#209 = ORIENTED_EDGE('',*,*,#210,.F.);
#210 = EDGE_CURVE('',#203,#203,#211,.T.);
#211 = CIRCLE('',#212,1.2);
#212 = AXIS2_PLACEMENT_3D('',#213,#214,#215);
#213 = CARTESIAN_POINT('',(-44.,-3.26,32.8));
#214 = DIRECTION('',(0.,0.,1.));
#215 = DIRECTION('',(1.,0.,0.));
#216 = ORIENTED_EDGE('',*,*,#202,.F.);
#217 = ORIENTED_EDGE('',*,*,#159,.F.);
#218 = CYLINDRICAL_SURFACE('',#219,1.2);
#219 = AXIS2_PLACEMENT_3D('',#220,#221,#222);
#220 = CARTESIAN_POINT('',(-44.,-3.26,26.6));
#221 = DIRECTION('',(0.,0.,1.));
#222 = DIRECTION('',(1.,0.,0.));
#223 = ADVANCED_FACE('',(#224),#244,.T.);
#224 = FACE_BOUND('',#225,.T.);
#225 = EDGE_LOOP('',(#226,#235,#242,#243));
#226 = ORIENTED_EDGE('',*,*,#227,.T.);
#227 = EDGE_CURVE('',#177,#228,#230,.T.);
#228 = VERTEX_POINT('',#229);
#229 = CARTESIAN_POINT('',(-20.88637933202,-12.505,36.6));
#230 = CIRCLE('',#231,20.462197802454);
#231 = AXIS2_PLACEMENT_3D('',#232,#233,#234);
#232 = CARTESIAN_POINT('',(-38.,-23.72219780245,36.6));
#233 = DIRECTION('',(0.,0.,-1.));
#234 = DIRECTION('',(6.9E-16,1.,0.));
#235 = ORIENTED_EDGE('',*,*,#236,.T.);
#236 = EDGE_CURVE('',#228,#228,#237,.T.);
#237 = CIRCLE('',#238,2.2);
#238 = AXIS2_PLACEMENT_3D('',#239,#240,#241);
#239 = CARTESIAN_POINT('',(-20.88637933202,-12.505,38.8));
#240 = DIRECTION('',(-0.548191250556,0.836353007296,0.));
#241 = DIRECTION('',(0.836353007296,0.548191250556,0.));
#242 = ORIENTED_EDGE('',*,*,#227,.F.);
#243 = ORIENTED_EDGE('',*,*,#185,.F.);
#244 = TOROIDAL_SURFACE('',#245,20.462197802454,2.2);
#245 = AXIS2_PLACEMENT_3D('',#246,#247,#248);
#246 = CARTESIAN_POINT('',(-38.,-23.72219780245,38.8));
#247 = DIRECTION('',(0.,0.,-1.));
#248 = DIRECTION('',(6.9E-16,1.,0.));
#249 = ADVANCED_FACE('',(#250),#270,.F.);
#250 = FACE_BOUND('',#251,.F.);
#251 = EDGE_LOOP('',(#252,#261,#268,#269));
#252 = ORIENTED_EDGE('',*,*,#253,.T.);
#253 = EDGE_CURVE('',#203,#254,#256,.T.);
#254 = VERTEX_POINT('',#255);
#255 = CARTESIAN_POINT('',(-38.,-3.26,37.6));
#256 = CIRCLE('',#257,4.8);
#257 = AXIS2_PLACEMENT_3D('',#258,#259,#260);
#258 = CARTESIAN_POINT('',(-38.,-3.26,32.8));
#259 = DIRECTION('',(0.,1.,-0.));
#260 = DIRECTION('',(-1.,0.,0.));
#261 = ORIENTED_EDGE('',*,*,#262,.T.);
#262 = EDGE_CURVE('',#254,#254,#263,.T.);
#263 = CIRCLE('',#264,1.2);
#264 = AXIS2_PLACEMENT_3D('',#265,#266,#267);
#265 = CARTESIAN_POINT('',(-38.,-3.26,38.8));
#266 = DIRECTION('',(-1.,0.,-5.1E-16));
#267 = DIRECTION('',(-5.1E-16,0.,1.));
#268 = ORIENTED_EDGE('',*,*,#253,.F.);
#269 = ORIENTED_EDGE('',*,*,#210,.T.);
#270 = TOROIDAL_SURFACE('',#271,6.,1.2);
#271 = AXIS2_PLACEMENT_3D('',#272,#273,#274);
#272 = CARTESIAN_POINT('',(-38.,-3.26,32.8));
#273 = DIRECTION('',(0.,1.,0.));
#274 = DIRECTION('',(-1.,0.,0.));
#275 = ADVANCED_FACE('',(#276),#296,.T.);
#276 = FACE_BOUND('',#277,.T.);
#277 = EDGE_LOOP('',(#278,#287,#294,#295));
#278 = ORIENTED_EDGE('',*,*,#279,.T.);
#279 = EDGE_CURVE('',#228,#280,#282,.T.);
#280 = VERTEX_POINT('',#281);
#281 = CARTESIAN_POINT('',(-3.772758664048,-21.75,36.6));
#282 = CIRCLE('',#283,20.462197802454);
#283 = AXIS2_PLACEMENT_3D('',#284,#285,#286);
#284 = CARTESIAN_POINT('',(-3.772758664048,-1.287802197546,36.6));
#285 = DIRECTION('',(0.,0.,1.));
#286 = DIRECTION('',(-0.836353007296,-0.548191250556,0.));
#287 = ORIENTED_EDGE('',*,*,#288,.T.);
#288 = EDGE_CURVE('',#280,#280,#289,.T.);
#289 = CIRCLE('',#290,2.2);
#290 = AXIS2_PLACEMENT_3D('',#291,#292,#293);
#291 = CARTESIAN_POINT('',(-3.772758664048,-21.75,38.8));
#292 = DIRECTION('',(-1.,5.E-16,0.));
#293 = DIRECTION('',(-5.E-16,-1.,0.));
#294 = ORIENTED_EDGE('',*,*,#279,.F.);
#295 = ORIENTED_EDGE('',*,*,#236,.F.);
#296 = TOROIDAL_SURFACE('',#297,20.462197802454,2.2);
#297 = AXIS2_PLACEMENT_3D('',#298,#299,#300);
#298 = CARTESIAN_POINT('',(-3.772758664048,-1.287802197546,38.8));
#299 = DIRECTION('',(0.,0.,1.));
#300 = DIRECTION('',(-0.836353007296,-0.548191250556,0.));
#301 = ADVANCED_FACE('',(#302),#322,.F.);
#302 = FACE_BOUND('',#303,.F.);
#303 = EDGE_LOOP('',(#304,#313,#320,#321));
#304 = ORIENTED_EDGE('',*,*,#305,.T.);
#305 = EDGE_CURVE('',#254,#306,#308,.T.);
#306 = VERTEX_POINT('',#307);
#307 = CARTESIAN_POINT('',(-20.88637933202,-12.505,37.6));
#308 = CIRCLE('',#309,20.462197802454);
#309 = AXIS2_PLACEMENT_3D('',#310,#311,#312);
#310 = CARTESIAN_POINT('',(-38.,-23.72219780245,37.6));
#311 = DIRECTION('',(0.,0.,-1.));
#312 = DIRECTION('',(6.9E-16,1.,0.));
#313 = ORIENTED_EDGE('',*,*,#314,.T.);
#314 = EDGE_CURVE('',#306,#306,#315,.T.);
#315 = CIRCLE('',#316,1.2);
#316 = AXIS2_PLACEMENT_3D('',#317,#318,#319);
#317 = CARTESIAN_POINT('',(-20.88637933202,-12.505,38.8));
#318 = DIRECTION('',(-0.548191250556,0.836353007296,0.));
#319 = DIRECTION('',(0.836353007296,0.548191250556,0.));
#320 = ORIENTED_EDGE('',*,*,#305,.F.);
#321 = ORIENTED_EDGE('',*,*,#262,.F.);
#322 = TOROIDAL_SURFACE('',#323,20.462197802454,1.2);
#323 = AXIS2_PLACEMENT_3D('',#324,#325,#326);
#324 = CARTESIAN_POINT('',(-38.,-23.72219780245,38.8));
#325 = DIRECTION('',(0.,0.,-1.));
#326 = DIRECTION('',(6.9E-16,1.,0.));
#327 = ADVANCED_FACE('',(#328),#348,.T.);
#328 = FACE_BOUND('',#329,.T.);
#329 = EDGE_LOOP('',(#330,#339,#346,#347));
#330 = ORIENTED_EDGE('',*,*,#331,.T.);
#331 = EDGE_CURVE('',#280,#332,#334,.T.);
#332 = VERTEX_POINT('',#333);
#333 = CARTESIAN_POINT('',(4.235520894939,-21.75,43.037201513184));
#334 = CIRCLE('',#335,8.2);
#335 = AXIS2_PLACEMENT_3D('',#336,#337,#338);
#336 = CARTESIAN_POINT('',(-3.772758664048,-21.75,44.8));
#337 = DIRECTION('',(0.,-1.,0.));
#338 = DIRECTION('',(5.2E-16,0.,-1.));
#339 = ORIENTED_EDGE('',*,*,#340,.T.);
#340 = EDGE_CURVE('',#332,#332,#341,.T.);
#341 = CIRCLE('',#342,2.2);
#342 = AXIS2_PLACEMENT_3D('',#343,#344,#345);
#343 = CARTESIAN_POINT('',(2.08695808643,-21.75,43.510147448671));
#344 = DIRECTION('',(-0.214975425221,-0.,-0.976619458413));
#345 = DIRECTION('',(0.976619458413,0.,-0.214975425221));
#346 = ORIENTED_EDGE('',*,*,#331,.F.);
#347 = ORIENTED_EDGE('',*,*,#288,.F.);
#348 = TOROIDAL_SURFACE('',#349,6.,2.2);
#349 = AXIS2_PLACEMENT_3D('',#350,#351,#352);
#350 = CARTESIAN_POINT('',(-3.772758664048,-21.75,44.8));
#351 = DIRECTION('',(0.,-1.,0.));
#352 = DIRECTION('',(5.2E-16,0.,-1.));
#353 = ADVANCED_FACE('',(#354),#374,.F.);
#354 = FACE_BOUND('',#355,.F.);
#355 = EDGE_LOOP('',(#356,#365,#372,#373));
#356 = ORIENTED_EDGE('',*,*,#357,.T.);
#357 = EDGE_CURVE('',#306,#358,#360,.T.);
#358 = VERTEX_POINT('',#359);
#359 = CARTESIAN_POINT('',(-3.772758664048,-21.75,37.6));
#360 = CIRCLE('',#361,20.462197802454);
#361 = AXIS2_PLACEMENT_3D('',#362,#363,#364);
#362 = CARTESIAN_POINT('',(-3.772758664048,-1.287802197546,37.6));
#363 = DIRECTION('',(0.,0.,1.));
#364 = DIRECTION('',(-0.836353007296,-0.548191250556,0.));
#365 = ORIENTED_EDGE('',*,*,#366,.T.);
#366 = EDGE_CURVE('',#358,#358,#367,.T.);
#367 = CIRCLE('',#368,1.2);
#368 = AXIS2_PLACEMENT_3D('',#369,#370,#371);
#369 = CARTESIAN_POINT('',(-3.772758664048,-21.75,38.8));
#370 = DIRECTION('',(-1.,5.E-16,0.));
#371 = DIRECTION('',(-5.E-16,-1.,0.));
#372 = ORIENTED_EDGE('',*,*,#357,.F.);
#373 = ORIENTED_EDGE('',*,*,#314,.F.);
#374 = TOROIDAL_SURFACE('',#375,20.462197802454,1.2);
#375 = AXIS2_PLACEMENT_3D('',#376,#377,#378);
#376 = CARTESIAN_POINT('',(-3.772758664048,-1.287802197546,38.8));
#377 = DIRECTION('',(0.,0.,1.));
#378 = DIRECTION('',(-0.836353007296,-0.548191250556,0.));
#379 = ADVANCED_FACE('',(#380,#383),#394,.T.);
#380 = FACE_BOUND('',#381,.T.);
#381 = EDGE_LOOP('',(#382));
#382 = ORIENTED_EDGE('',*,*,#340,.F.);
#383 = FACE_BOUND('',#384,.T.);
#384 = EDGE_LOOP('',(#385));
#385 = ORIENTED_EDGE('',*,*,#386,.T.);
#386 = EDGE_CURVE('',#387,#387,#389,.T.);
#387 = VERTEX_POINT('',#388);
#388 = CARTESIAN_POINT('',(3.258901436526,-21.75,43.252176938405));
#389 = CIRCLE('',#390,1.2);
#390 = AXIS2_PLACEMENT_3D('',#391,#392,#393);
#391 = CARTESIAN_POINT('',(2.08695808643,-21.75,43.510147448671));
#392 = DIRECTION('',(-0.214975425221,-0.,-0.976619458413));
#393 = DIRECTION('',(0.976619458413,0.,-0.214975425221));
#394 = PLANE('',#395);
#395 = AXIS2_PLACEMENT_3D('',#396,#397,#398);
#396 = CARTESIAN_POINT('',(2.08695808643,-21.75,43.510147448671));
#397 = DIRECTION('',(0.214975425221,0.,0.976619458413));
#398 = DIRECTION('',(0.976619458413,0.,-0.214975425221));
#399 = ADVANCED_FACE('',(#400),#412,.F.);
#400 = FACE_BOUND('',#401,.F.);
#401 = EDGE_LOOP('',(#402,#409,#410,#411));
#402 = ORIENTED_EDGE('',*,*,#403,.T.);
#403 = EDGE_CURVE('',#358,#387,#404,.T.);
#404 = CIRCLE('',#405,7.2);
#405 = AXIS2_PLACEMENT_3D('',#406,#407,#408);
#406 = CARTESIAN_POINT('',(-3.772758664048,-21.75,44.8));
#407 = DIRECTION('',(0.,-1.,0.));
#408 = DIRECTION('',(5.2E-16,0.,-1.));
#409 = ORIENTED_EDGE('',*,*,#386,.T.);
#410 = ORIENTED_EDGE('',*,*,#403,.F.);
#411 = ORIENTED_EDGE('',*,*,#366,.F.);
#412 = TOROIDAL_SURFACE('',#413,6.,1.2);
#413 = AXIS2_PLACEMENT_3D('',#414,#415,#416);
#414 = CARTESIAN_POINT('',(-3.772758664048,-21.75,44.8));
#415 = DIRECTION('',(0.,-1.,0.));
#416 = DIRECTION('',(5.2E-16,0.,-1.));
#417 = ( GEOMETRIC_REPRESENTATION_CONTEXT(3) 
GLOBAL_UNCERTAINTY_ASSIGNED_CONTEXT((#421)) GLOBAL_UNIT_ASSIGNED_CONTEXT
((#418,#419,#420)) REPRESENTATION_CONTEXT('Context #1',
  '3D Context with UNIT and UNCERTAINTY') );
#418 = ( LENGTH_UNIT() NAMED_UNIT(*) SI_UNIT(.MILLI.,.METRE.) );
#419 = ( NAMED_UNIT(*) PLANE_ANGLE_UNIT() SI_UNIT($,.RADIAN.) );
#420 = ( NAMED_UNIT(*) SI_UNIT($,.STERADIAN.) SOLID_ANGLE_UNIT() );
#421 = UNCERTAINTY_MEASURE_WITH_UNIT(LENGTH_MEASURE(1.E-07),#418,
  'distance_accuracy_value','confusion accuracy');
#422 = PRODUCT_RELATED_PRODUCT_CATEGORY('part',$,(#7));
ENDSEC;
END-ISO-10303-21;
