ISO-10303-21;
HEADER;
FILE_DESCRIPTION(('FreeCAD Model'),'2;1');
FILE_NAME('Open CASCADE Shape Model','2026-09-30T05:24:05',('FreeCAD'),(
    'FreeCAD'),'Open CASCADE STEP processor 7.8','FreeCAD','Unknown');
FILE_SCHEMA(('AUTOMOTIVE_DESIGN { 1 0 10303 214 1 1 1 1 }'));
ENDSEC;
DATA;
#1 = APPLICATION_PROTOCOL_DEFINITION('international standard',
  'automotive_design',2000,#2);
#2 = APPLICATION_CONTEXT(
  'core data for automotive mechanical design processes');
#3 = SHAPE_DEFINITION_REPRESENTATION(#4,#10);
#4 = PRODUCT_DEFINITION_SHAPE('','',#5);
#5 = PRODUCT_DEFINITION('design','',#6,#9);
#6 = PRODUCT_DEFINITION_FORMATION('','',#7);
#7 = PRODUCT('Open CASCADE STEP translator 7.8 15',
  'Open CASCADE STEP translator 7.8 15','',(#8));
#8 = PRODUCT_CONTEXT('',#2,'mechanical');
#9 = PRODUCT_DEFINITION_CONTEXT('part definition',#2,'design');
#10 = ADVANCED_BREP_SHAPE_REPRESENTATION('',(#11,#15),#779);
#11 = AXIS2_PLACEMENT_3D('',#12,#13,#14);
#12 = CARTESIAN_POINT('',(0.,0.,0.));
#13 = DIRECTION('',(0.,0.,1.));
#14 = DIRECTION('',(1.,0.,-0.));
#15 = MANIFOLD_SOLID_BREP('',#16);
#16 = CLOSED_SHELL('',(#17,#761,#770));
#17 = ADVANCED_FACE('',(#18),#137,.T.);
#18 = FACE_BOUND('',#19,.T.);
#19 = EDGE_LOOP('',(#20,#116,#126,#127));
#20 = ORIENTED_EDGE('',*,*,#21,.T.);
#21 = EDGE_CURVE('',#22,#24,#26,.T.);
#22 = VERTEX_POINT('',#23);
#23 = CARTESIAN_POINT('',(22.227241335952,-9.625,59.4));
#24 = VERTEX_POINT('',#25);
#25 = CARTESIAN_POINT('',(22.227241335303,17.12498818263,59.399995242439
    ));
#26 = ( BOUNDED_CURVE() B_SPLINE_CURVE(11,(#27,#28,#29,#30,#31,#32,#33,
    #34,#35,#36,#37,#38,#39,#40,#41,#42,#43,#44,#45,#46,#47,#48,#49,#50,
    #51,#52,#53,#54,#55,#56,#57,#58,#59,#60,#61,#62,#63,#64,#65,#66,#67,
    #68,#69,#70,#71,#72,#73,#74,#75,#76,#77,#78,#79,#80,#81,#82,#83,#84,
    #85,#86,#87,#88,#89,#90,#91,#92,#93,#94,#95,#96,#97,#98,#99,#100,
    #101,#102,#103,#104,#105,#106,#107,#108,#109,#110,#111,#112,#113,
#114,#115),.UNSPECIFIED.,.F.,.F.) B_SPLINE_CURVE_WITH_KNOTS((12,11,11,11
    ,11,11,11,11,12),(0.,7.819561134937,15.639122269874,23.458683404811,
    31.278244539747,39.097805674684,46.917366809621,54.736927944558,
62.556489079495),.PIECEWISE_BEZIER_KNOTS.) CURVE() 
GEOMETRIC_REPRESENTATION_ITEM() RATIONAL_B_SPLINE_CURVE((1.669078461068,
    1.669078461068,1.669078461068,1.669078461069,1.669078461066,
    1.669078461071,1.669078461066,1.66907846107,1.669078461067,
    1.669078461069,1.669078461068,1.669078461068,1.669078461068,
    1.669078461068,1.669078461068,1.669078461069,1.669078461068,
    1.669078461069,1.669078461068,1.669078461069,1.669078461068,
    1.669078461068,1.669078461068,1.669078461068,1.669078461068,
    1.669078461069,1.669078461067,1.66907846107,1.669078461066,
    1.66907846107,1.669078461067,1.669078461069,1.669078461068,
    1.669078461068,1.669078461068,1.669078461068,1.669078461069,
    1.669078461067,1.669078461069,1.669078461067,1.669078461069,
    1.669078461068,1.669078461068,1.669078461068,1.669078461068,
    1.669078461068,1.669078461068,1.669078461068,1.669078461069,
    1.669078461066,1.66907846107,1.669078461067,1.669078461069,
    1.669078461068,1.669078461068,1.669078461068,1.669078461068,
    1.669078461069,1.669078461067,1.669078461069,1.669078461067,
    1.66907846107,1.669078461067,1.669078461069,1.669078461068,
    1.669078461068,1.669078461068,1.669078461068,1.669078461069,
    1.669078461066,1.669078461072,1.669078461064,1.669078461072,
    1.669078461065,1.66907846107,1.669078461068,1.669078461068,
    1.669078461068,1.669078461068,1.669078461068,1.669078461068,
    1.669078461068,1.669078461068,1.669078461068,1.669078461068,
    1.669078461068,1.669078461068,1.669078461068,1.669078461068)) 
REPRESENTATION_ITEM('') );
#27 = CARTESIAN_POINT('',(22.227241335952,-9.625,59.4));
#28 = CARTESIAN_POINT('',(22.227241335952,-9.321098599217,58.56464402615
    ));
#29 = CARTESIAN_POINT('',(21.637080435341,-9.016712578205,57.72898568245
    ));
#30 = CARTESIAN_POINT('',(20.453343885482,-8.714104997541,
    57.358600312297));
#31 = CARTESIAN_POINT('',(19.102870015267,-8.406979189142,
    57.911717181927));
#32 = CARTESIAN_POINT('',(18.349389245609,-8.108136677115,
    59.447788274837));
#33 = CARTESIAN_POINT('',(19.070639963731,-7.798125139704,
    61.189031983768));
#34 = CARTESIAN_POINT('',(20.689599322173,-7.499282629099,
    61.742401158171));
#35 = CARTESIAN_POINT('',(22.035639365407,-7.192156819618,
    61.178579556194));
#36 = CARTESIAN_POINT('',(22.610761400906,-6.889549238928,
    60.079647372698));
#37 = CARTESIAN_POINT('',(22.437164826951,-6.585163218299,
    59.071441528339));
#38 = CARTESIAN_POINT('',(21.846476786932,-6.281261817371,
    58.480757820813));
#39 = CARTESIAN_POINT('',(21.255801073685,-5.977324729578,
    57.890082104794));
#40 = CARTESIAN_POINT('',(20.247576792127,-5.673001315958,
    57.716471377727));
#41 = CARTESIAN_POINT('',(19.1486724014,-5.370303266383,58.291623263057)
  );
#42 = CARTESIAN_POINT('',(18.584824760983,-5.063286684628,
    59.637634094014));
#43 = CARTESIAN_POINT('',(19.138231238832,-4.764333347456,
    61.256623286698));
#44 = CARTESIAN_POINT('',(20.879450870515,-4.454416207907,
    61.977840378265));
#45 = CARTESIAN_POINT('',(22.415538163989,-4.155506763522,
    61.224373384904));
#46 = CARTESIAN_POINT('',(22.968639087514,-3.848419732202,
    59.873886226804));
#47 = CARTESIAN_POINT('',(22.598254415396,-3.545794465,58.690156170687)
  );
#48 = CARTESIAN_POINT('',(21.762592246313,-3.241414292606,
    58.099996631329));
#49 = CARTESIAN_POINT('',(20.927236578391,-2.937511817371,
    58.100000000649));
#50 = CARTESIAN_POINT('',(20.091895277579,-2.633573655271,58.09999969282
    ));
#51 = CARTESIAN_POINT('',(19.25621006412,-2.329256089887,58.69016226194)
  );
#52 = CARTESIAN_POINT('',(18.885866150104,-2.026540353795,
    59.873893771243));
#53 = CARTESIAN_POINT('',(19.438928008478,-1.719562550217,61.22437868812
    ));
#54 = CARTESIAN_POINT('',(20.975062770276,-1.420542279236,
    61.977840394748));
#55 = CARTESIAN_POINT('',(22.716241606533,-1.110719537584,
    61.256616558142));
#56 = CARTESIAN_POINT('',(23.269669272621,-0.811699268021,
    59.637625642626));
#57 = CARTESIAN_POINT('',(22.705800969133,-0.504721463367,
    58.291616699805));
#58 = CARTESIAN_POINT('',(21.606901656733,-0.202005727244,
    57.716468905629));
#59 = CARTESIAN_POINT('',(20.598675637636,0.102311837755,57.890083305065
    ));
#60 = CARTESIAN_POINT('',(20.00800252041,0.40625,58.480761184457));
#61 = CARTESIAN_POINT('',(19.417316646596,0.710151400783,59.071447058272
    ));
#62 = CARTESIAN_POINT('',(19.243723739825,1.014537421796,60.07965351467)
  );
#63 = CARTESIAN_POINT('',(19.818849874477,1.317145002458,61.178583663103
    ));
#64 = CARTESIAN_POINT('',(21.164891795231,1.62427081086,61.742400205238)
  );
#65 = CARTESIAN_POINT('',(22.783849443128,1.923113322883,61.189025280785
    ));
#66 = CARTESIAN_POINT('',(23.50509340369,2.233124860298,59.44777877277)
  );
#67 = CARTESIAN_POINT('',(22.751607358594,2.5319673709,57.91171053624));
#68 = CARTESIAN_POINT('',(21.401131238135,2.839093180383,57.358598572052
    ));
#69 = CARTESIAN_POINT('',(20.21739614781,3.141700761071,57.728988279758)
  );
#70 = CARTESIAN_POINT('',(19.627238273067,3.446086781702,58.56464878377)
  );
#71 = CARTESIAN_POINT('',(19.627241336601,3.749988182629,59.400004757561
    ));
#72 = CARTESIAN_POINT('',(19.627241028772,4.053926344729,60.235346058373
    ));
#73 = CARTESIAN_POINT('',(20.217403597893,4.358243910115,61.071031271832
    ));
#74 = CARTESIAN_POINT('',(21.401135107194,4.660959646196,61.441375185849
    ));
#75 = CARTESIAN_POINT('',(22.751620024075,4.967937449803,60.888313327473
    ));
#76 = CARTESIAN_POINT('',(23.505081730694,5.266957720734,59.352178565673
    ));
#77 = CARTESIAN_POINT('',(22.783857894107,5.576780462448,57.610999729427
    ));
#78 = CARTESIAN_POINT('',(21.164866978564,5.875800731955,57.057572063324
    ));
#79 = CARTESIAN_POINT('',(19.818858035767,6.182778536646,57.621440366822
    ));
#80 = CARTESIAN_POINT('',(19.243710241577,6.48549427275,58.720339679219)
  );
#81 = CARTESIAN_POINT('',(19.417324641018,6.789811837757,59.728565698316
    ));
#82 = CARTESIAN_POINT('',(20.00800252041,7.09375,60.319238815543));
#83 = CARTESIAN_POINT('',(20.598687961718,7.39765247509,60.909924689415)
  );
#84 = CARTESIAN_POINT('',(21.60689677256,7.70203264787,61.083517595866)
  );
#85 = CARTESIAN_POINT('',(22.705819800572,8.004657915035,60.508391462182
    ));
#86 = CARTESIAN_POINT('',(23.269651954424,8.311744945294,59.162349539305
    ));
#87 = CARTESIAN_POINT('',(22.716250083069,8.610654391072,57.543391895072
    ));
#88 = CARTESIAN_POINT('',(20.975041578739,8.920571530653,56.82214792934)
  );
#89 = CARTESIAN_POINT('',(19.438928725052,9.219524866374,57.575633980514
    ));
#90 = CARTESIAN_POINT('',(18.885860734478,9.526541449236,58.926110094975
    ));
#91 = CARTESIAN_POINT('',(19.256214020259,9.829239498816,60.109845190271
    ));
#92 = CARTESIAN_POINT('',(20.091899729411,10.133562912068,
    60.700003061574));
#93 = CARTESIAN_POINT('',(20.927241335953,10.437499999997,60.7));
#94 = CARTESIAN_POINT('',(21.762597309799,10.741401400788,60.7));
#95 = CARTESIAN_POINT('',(22.598255653505,11.045787421796,60.10983909939
    ));
#96 = CARTESIAN_POINT('',(22.968641023657,11.34839500244,58.926102549524
    ));
#97 = CARTESIAN_POINT('',(22.415524154015,11.655520810903,
    57.575628679327));
#98 = CARTESIAN_POINT('',(20.879453061127,11.954363322824,
    56.822147909642));
#99 = CARTESIAN_POINT('',(19.138209352175,12.264374860353,
    57.543398627784));
#100 = CARTESIAN_POINT('',(18.584840177787,12.563217370865,
    59.162357986228));
#101 = CARTESIAN_POINT('',(19.148661779755,12.870343180395,
    60.508398029445));
#102 = CARTESIAN_POINT('',(20.247593963254,13.172950761073,
    61.08352006496));
#103 = CARTESIAN_POINT('',(21.255799807614,13.477336781697,
    60.909923490996));
#104 = CARTESIAN_POINT('',(21.846483515139,13.781238182631,
    60.31923545098));
#105 = CARTESIAN_POINT('',(22.437159231159,14.085175270418,
    59.728559737732));
#106 = CARTESIAN_POINT('',(22.610769958224,14.389498684049,
    58.720335456177));
#107 = CARTESIAN_POINT('',(22.035618072897,14.692196733605,
    57.621431065445));
#108 = CARTESIAN_POINT('',(20.689607241933,14.999213315391,
    57.057583425031));
#109 = CARTESIAN_POINT('',(19.070618049264,15.298166652519,
    57.610989902884));
#110 = CARTESIAN_POINT('',(18.349400957675,15.608083792117,
    59.352209534555));
#111 = CARTESIAN_POINT('',(19.102867951059,15.906993236463,
    60.888296828046));
#112 = CARTESIAN_POINT('',(20.453355109141,16.214080267804,
    61.441397751556));
#113 = CARTESIAN_POINT('',(21.637085165268,16.516705535,61.071013079447)
  );
#114 = CARTESIAN_POINT('',(22.227244704623,16.821085707393,
    60.23535091036));
#115 = CARTESIAN_POINT('',(22.227241335303,17.12498818263,
    59.399995242439));
#116 = ORIENTED_EDGE('',*,*,#117,.F.);
#117 = EDGE_CURVE('',#24,#24,#118,.T.);
#118 = ( BOUNDED_CURVE() B_SPLINE_CURVE(6,(#119,#120,#121,#122,#123,#124
,#125),.UNSPECIFIED.,.T.,.F.) B_SPLINE_CURVE_WITH_KNOTS((1,6,6,1),(
    -6.28318530718,0.,6.28318530718,12.566370614359),.UNSPECIFIED.) 
CURVE() GEOMETRIC_REPRESENTATION_ITEM() RATIONAL_B_SPLINE_CURVE((
    1.669078461068,1.03672962321,1.038346699848,0.853534330196,
1.038346699848,1.03672962321,1.669078461068)) REPRESENTATION_ITEM('') );
#119 = CARTESIAN_POINT('',(22.227241335303,17.12498818263,
    59.399995242439));
#120 = CARTESIAN_POINT('',(22.227220168743,16.932322766123,
    59.32242997261));
#121 = CARTESIAN_POINT('',(21.970398607101,16.904683570661,
    59.311302694592));
#122 = CARTESIAN_POINT('',(21.758601722611,17.125032487331,
    59.400013079091));
#123 = CARTESIAN_POINT('',(21.970447018535,17.34534135331,
    59.488707339563));
#124 = CARTESIAN_POINT('',(22.227262501863,17.317653599138,
    59.477560512268));
#125 = CARTESIAN_POINT('',(22.227241335303,17.12498818263,
    59.399995242439));
#126 = ORIENTED_EDGE('',*,*,#21,.F.);
#127 = ORIENTED_EDGE('',*,*,#128,.T.);
#128 = EDGE_CURVE('',#22,#22,#129,.T.);
#129 = ( BOUNDED_CURVE() B_SPLINE_CURVE(6,(#130,#131,#132,#133,#134,#135
,#136),.UNSPECIFIED.,.T.,.F.) B_SPLINE_CURVE_WITH_KNOTS((1,6,6,1),(
    -6.28318530718,0.,6.28318530718,12.566370614359),.UNSPECIFIED.) 
CURVE() GEOMETRIC_REPRESENTATION_ITEM() RATIONAL_B_SPLINE_CURVE((
    1.669078461068,1.03672962321,1.038346699848,0.853534330196,
1.038346699848,1.03672962321,1.669078461068)) REPRESENTATION_ITEM('') );
#130 = CARTESIAN_POINT('',(22.227241335952,-9.625,59.4));
#131 = CARTESIAN_POINT('',(22.227241335952,-9.817665417508,
    59.322434729767));
#132 = CARTESIAN_POINT('',(21.970422812134,-9.845328892469,
    59.311297677054));
#133 = CARTESIAN_POINT('',(21.758601720826,-9.625,59.4));
#134 = CARTESIAN_POINT('',(21.970422812134,-9.404671107531,
    59.488702322946));
#135 = CARTESIAN_POINT('',(22.227241335952,-9.432334582492,
    59.477565270233));
#136 = CARTESIAN_POINT('',(22.227241335952,-9.625,59.4));
#137 = ( BOUNDED_SURFACE() B_SPLINE_SURFACE(6,11,(
    (#138,#139,#140,#141,#142,#143,#144,#145,#146,#147,#148,#149,#150
      ,#151,#152,#153,#154,#155,#156,#157,#158,#159,#160,#161,#162,#163
      ,#164,#165,#166,#167,#168,#169,#170,#171,#172,#173,#174,#175,#176
      ,#177,#178,#179,#180,#181,#182,#183,#184,#185,#186,#187,#188,#189
      ,#190,#191,#192,#193,#194,#195,#196,#197,#198,#199,#200,#201,#202
      ,#203,#204,#205,#206,#207,#208,#209,#210,#211,#212,#213,#214,#215
      ,#216,#217,#218,#219,#220,#221,#222,#223,#224,#225,#226)
    ,(#227,#228,#229,#230,#231,#232,#233,#234,#235,#236,#237,#238,#239
      ,#240,#241,#242,#243,#244,#245,#246,#247,#248,#249,#250,#251,#252
      ,#253,#254,#255,#256,#257,#258,#259,#260,#261,#262,#263,#264,#265
      ,#266,#267,#268,#269,#270,#271,#272,#273,#274,#275,#276,#277,#278
      ,#279,#280,#281,#282,#283,#284,#285,#286,#287,#288,#289,#290,#291
      ,#292,#293,#294,#295,#296,#297,#298,#299,#300,#301,#302,#303,#304
      ,#305,#306,#307,#308,#309,#310,#311,#312,#313,#314,#315)
    ,(#316,#317,#318,#319,#320,#321,#322,#323,#324,#325,#326,#327,#328
      ,#329,#330,#331,#332,#333,#334,#335,#336,#337,#338,#339,#340,#341
      ,#342,#343,#344,#345,#346,#347,#348,#349,#350,#351,#352,#353,#354
      ,#355,#356,#357,#358,#359,#360,#361,#362,#363,#364,#365,#366,#367
      ,#368,#369,#370,#371,#372,#373,#374,#375,#376,#377,#378,#379,#380
      ,#381,#382,#383,#384,#385,#386,#387,#388,#389,#390,#391,#392,#393
      ,#394,#395,#396,#397,#398,#399,#400,#401,#402,#403,#404)
    ,(#405,#406,#407,#408,#409,#410,#411,#412,#413,#414,#415,#416,#417
      ,#418,#419,#420,#421,#422,#423,#424,#425,#426,#427,#428,#429,#430
      ,#431,#432,#433,#434,#435,#436,#437,#438,#439,#440,#441,#442,#443
      ,#444,#445,#446,#447,#448,#449,#450,#451,#452,#453,#454,#455,#456
      ,#457,#458,#459,#460,#461,#462,#463,#464,#465,#466,#467,#468,#469
      ,#470,#471,#472,#473,#474,#475,#476,#477,#478,#479,#480,#481,#482
      ,#483,#484,#485,#486,#487,#488,#489,#490,#491,#492,#493)
    ,(#494,#495,#496,#497,#498,#499,#500,#501,#502,#503,#504,#505,#506
      ,#507,#508,#509,#510,#511,#512,#513,#514,#515,#516,#517,#518,#519
      ,#520,#521,#522,#523,#524,#525,#526,#527,#528,#529,#530,#531,#532
      ,#533,#534,#535,#536,#537,#538,#539,#540,#541,#542,#543,#544,#545
      ,#546,#547,#548,#549,#550,#551,#552,#553,#554,#555,#556,#557,#558
      ,#559,#560,#561,#562,#563,#564,#565,#566,#567,#568,#569,#570,#571
      ,#572,#573,#574,#575,#576,#577,#578,#579,#580,#581,#582)
    ,(#583,#584,#585,#586,#587,#588,#589,#590,#591,#592,#593,#594,#595
      ,#596,#597,#598,#599,#600,#601,#602,#603,#604,#605,#606,#607,#608
      ,#609,#610,#611,#612,#613,#614,#615,#616,#617,#618,#619,#620,#621
      ,#622,#623,#624,#625,#626,#627,#628,#629,#630,#631,#632,#633,#634
      ,#635,#636,#637,#638,#639,#640,#641,#642,#643,#644,#645,#646,#647
      ,#648,#649,#650,#651,#652,#653,#654,#655,#656,#657,#658,#659,#660
      ,#661,#662,#663,#664,#665,#666,#667,#668,#669,#670,#671)
    ,(#672,#673,#674,#675,#676,#677,#678,#679,#680,#681,#682,#683,#684
      ,#685,#686,#687,#688,#689,#690,#691,#692,#693,#694,#695,#696,#697
      ,#698,#699,#700,#701,#702,#703,#704,#705,#706,#707,#708,#709,#710
      ,#711,#712,#713,#714,#715,#716,#717,#718,#719,#720,#721,#722,#723
      ,#724,#725,#726,#727,#728,#729,#730,#731,#732,#733,#734,#735,#736
      ,#737,#738,#739,#740,#741,#742,#743,#744,#745,#746,#747,#748,#749
      ,#750,#751,#752,#753,#754,#755,#756,#757,#758,#759,#760
)),.UNSPECIFIED.,.T.,.F.,.F.) B_SPLINE_SURFACE_WITH_KNOTS((1,6,6,1),(12,
    11,11,11,11,11,11,11,12),(-6.28318530718,0.,6.28318530718,
    12.566370614359),(0.,7.819561134937,15.639122269874,23.458683404811,
    31.278244539747,39.097805674684,46.917366809621,54.736927944558,
62.556489079495),.UNSPECIFIED.) GEOMETRIC_REPRESENTATION_ITEM() 
RATIONAL_B_SPLINE_SURFACE((
    (1.669078461068,1.669078461068,1.669078461068,1.669078461069
      ,1.669078461066,1.669078461071,1.669078461066,1.66907846107
      ,1.669078461067,1.669078461069,1.669078461068,1.669078461068
      ,1.669078461068,1.669078461068,1.669078461068,1.669078461069
      ,1.669078461068,1.669078461069,1.669078461068,1.669078461069
      ,1.669078461068,1.669078461068,1.669078461068,1.669078461068
      ,1.669078461068,1.669078461069,1.669078461067,1.66907846107
      ,1.669078461066,1.66907846107,1.669078461067,1.669078461069
      ,1.669078461068,1.669078461068,1.669078461068,1.669078461068
      ,1.669078461069,1.669078461067,1.669078461069,1.669078461067
      ,1.669078461069,1.669078461068,1.669078461068,1.669078461068
      ,1.669078461068,1.669078461068,1.669078461068,1.669078461068
      ,1.669078461069,1.669078461066,1.66907846107,1.669078461067
      ,1.669078461069,1.669078461068,1.669078461068,1.669078461068
      ,1.669078461068,1.669078461069,1.669078461067,1.669078461069
      ,1.669078461067,1.66907846107,1.669078461067,1.669078461069
      ,1.669078461068,1.669078461068,1.669078461068,1.669078461068
      ,1.669078461069,1.669078461066,1.669078461072,1.669078461064
      ,1.669078461072,1.669078461065,1.66907846107,1.669078461068
      ,1.669078461068,1.669078461068,1.669078461068,1.669078461068
      ,1.669078461068,1.669078461068,1.669078461068,1.669078461068
      ,1.669078461068,1.669078461068,1.669078461068,1.669078461068
      ,1.669078461068)
    ,(1.03672962321,1.03672962321,1.036729623209,1.03672962321
      ,1.036729623208,1.036729623212,1.036729623208,1.036729623211
      ,1.036729623209,1.03672962321,1.03672962321,1.03672962321
      ,1.03672962321,1.03672962321,1.036729623209,1.03672962321
      ,1.036729623209,1.03672962321,1.036729623209,1.03672962321
      ,1.03672962321,1.03672962321,1.03672962321,1.03672962321
      ,1.036729623209,1.036729623211,1.036729623208,1.036729623212
      ,1.036729623208,1.036729623211,1.036729623209,1.03672962321
      ,1.03672962321,1.03672962321,1.03672962321,1.036729623209
      ,1.03672962321,1.036729623209,1.03672962321,1.036729623209
      ,1.03672962321,1.036729623209,1.03672962321,1.03672962321
      ,1.03672962321,1.03672962321,1.03672962321,1.036729623209
      ,1.03672962321,1.036729623209,1.03672962321,1.036729623209
      ,1.03672962321,1.036729623209,1.03672962321,1.03672962321
      ,1.03672962321,1.03672962321,1.036729623209,1.03672962321
      ,1.036729623209,1.036729623211,1.036729623209,1.03672962321
      ,1.036729623209,1.03672962321,1.03672962321,1.036729623209
      ,1.03672962321,1.036729623208,1.036729623212,1.036729623207
      ,1.036729623212,1.036729623208,1.036729623211,1.036729623209
      ,1.03672962321,1.03672962321,1.03672962321,1.03672962321
      ,1.03672962321,1.03672962321,1.036729623209,1.03672962321
      ,1.036729623209,1.03672962321,1.03672962321,1.03672962321
      ,1.03672962321)
    ,(1.038346699848,1.038346699848,1.038346699847,1.038346699848
      ,1.038346699846,1.038346699849,1.038346699846,1.038346699849
      ,1.038346699847,1.038346699848,1.038346699847,1.038346699848
      ,1.038346699847,1.038346699848,1.038346699847,1.038346699848
      ,1.038346699847,1.038346699848,1.038346699847,1.038346699848
      ,1.038346699847,1.038346699848,1.038346699848,1.038346699848
      ,1.038346699847,1.038346699848,1.038346699847,1.038346699849
      ,1.038346699846,1.038346699848,1.038346699847,1.038346699848
      ,1.038346699847,1.038346699848,1.038346699848,1.038346699847
      ,1.038346699848,1.038346699847,1.038346699848,1.038346699847
      ,1.038346699847,1.038346699848,1.038346699847,1.038346699848
      ,1.038346699848,1.038346699847,1.038346699848,1.038346699847
      ,1.038346699848,1.038346699846,1.038346699849,1.038346699846
      ,1.038346699848,1.038346699847,1.038346699848,1.038346699848
      ,1.038346699847,1.038346699848,1.038346699847,1.038346699849
      ,1.038346699846,1.038346699849,1.038346699846,1.038346699848
      ,1.038346699847,1.038346699848,1.038346699848,1.038346699847
      ,1.038346699848,1.038346699846,1.03834669985,1.038346699845
      ,1.03834669985,1.038346699845,1.038346699849,1.038346699847
      ,1.038346699848,1.038346699848,1.038346699848,1.038346699847
      ,1.038346699848,1.038346699847,1.038346699847,1.038346699848
      ,1.038346699847,1.038346699848,1.038346699847,1.038346699848
      ,1.038346699848)
    ,(0.853534330196,0.853534330196,0.853534330196,0.853534330197
      ,0.853534330195,0.853534330198,0.853534330195,0.853534330197
      ,0.853534330196,0.853534330196,0.853534330196,0.853534330196
      ,0.853534330196,0.853534330196,0.853534330196,0.853534330197
      ,0.853534330195,0.853534330197,0.853534330195,0.853534330197
      ,0.853534330196,0.853534330196,0.853534330196,0.853534330196
      ,0.853534330196,0.853534330197,0.853534330195,0.853534330197
      ,0.853534330195,0.853534330197,0.853534330196,0.853534330196
      ,0.853534330196,0.853534330196,0.853534330196,0.853534330196
      ,0.853534330197,0.853534330196,0.853534330197,0.853534330196
      ,0.853534330197,0.853534330196,0.853534330196,0.853534330196
      ,0.853534330196,0.853534330196,0.853534330196,0.853534330196
      ,0.853534330197,0.853534330196,0.853534330197,0.853534330196
      ,0.853534330196,0.853534330196,0.853534330196,0.853534330196
      ,0.853534330196,0.853534330196,0.853534330196,0.853534330197
      ,0.853534330196,0.853534330197,0.853534330196,0.853534330196
      ,0.853534330196,0.853534330196,0.853534330196,0.853534330196
      ,0.853534330197,0.853534330195,0.853534330198,0.853534330194
      ,0.853534330198,0.853534330195,0.853534330197,0.853534330196
      ,0.853534330196,0.853534330196,0.853534330196,0.853534330196
      ,0.853534330196,0.853534330196,0.853534330196,0.853534330196
      ,0.853534330196,0.853534330196,0.853534330196,0.853534330196
      ,0.853534330196)
    ,(1.038346699848,1.038346699848,1.038346699847,1.038346699848
      ,1.038346699846,1.038346699849,1.038346699846,1.038346699849
      ,1.038346699847,1.038346699848,1.038346699847,1.038346699848
      ,1.038346699847,1.038346699848,1.038346699847,1.038346699848
      ,1.038346699847,1.038346699848,1.038346699847,1.038346699848
      ,1.038346699847,1.038346699848,1.038346699848,1.038346699848
      ,1.038346699847,1.038346699848,1.038346699847,1.038346699848
      ,1.038346699847,1.038346699848,1.038346699847,1.038346699848
      ,1.038346699847,1.038346699848,1.038346699848,1.038346699847
      ,1.038346699848,1.038346699847,1.038346699848,1.038346699847
      ,1.038346699848,1.038346699847,1.038346699848,1.038346699848
      ,1.038346699848,1.038346699847,1.038346699848,1.038346699847
      ,1.038346699849,1.038346699846,1.038346699849,1.038346699846
      ,1.038346699848,1.038346699847,1.038346699848,1.038346699848
      ,1.038346699847,1.038346699848,1.038346699847,1.038346699849
      ,1.038346699846,1.038346699849,1.038346699846,1.038346699848
      ,1.038346699847,1.038346699848,1.038346699848,1.038346699847
      ,1.038346699848,1.038346699846,1.03834669985,1.038346699845
      ,1.03834669985,1.038346699846,1.038346699849,1.038346699847
      ,1.038346699848,1.038346699848,1.038346699848,1.038346699847
      ,1.038346699848,1.038346699848,1.038346699847,1.038346699848
      ,1.038346699847,1.038346699848,1.038346699847,1.038346699848
      ,1.038346699848)
    ,(1.03672962321,1.03672962321,1.036729623209,1.03672962321
      ,1.036729623208,1.036729623212,1.036729623208,1.036729623211
      ,1.036729623209,1.03672962321,1.03672962321,1.03672962321
      ,1.03672962321,1.03672962321,1.036729623209,1.03672962321
      ,1.036729623209,1.03672962321,1.036729623209,1.03672962321
      ,1.036729623209,1.03672962321,1.03672962321,1.03672962321
      ,1.036729623209,1.03672962321,1.036729623208,1.036729623211
      ,1.036729623208,1.036729623211,1.036729623209,1.03672962321
      ,1.03672962321,1.03672962321,1.03672962321,1.036729623209
      ,1.03672962321,1.036729623209,1.03672962321,1.036729623209
      ,1.03672962321,1.03672962321,1.03672962321,1.03672962321
      ,1.03672962321,1.03672962321,1.03672962321,1.036729623209
      ,1.03672962321,1.036729623208,1.036729623211,1.036729623209
      ,1.03672962321,1.036729623209,1.03672962321,1.03672962321
      ,1.03672962321,1.03672962321,1.036729623209,1.03672962321
      ,1.036729623209,1.03672962321,1.036729623209,1.03672962321
      ,1.036729623209,1.03672962321,1.03672962321,1.036729623209
      ,1.03672962321,1.036729623208,1.036729623212,1.036729623207
      ,1.036729623212,1.036729623208,1.036729623211,1.036729623209
      ,1.03672962321,1.03672962321,1.03672962321,1.03672962321
      ,1.03672962321,1.03672962321,1.03672962321,1.03672962321
      ,1.036729623209,1.03672962321,1.03672962321,1.03672962321
      ,1.03672962321)
    ,(1.669078461068,1.669078461068,1.669078461068,1.669078461069
      ,1.669078461066,1.669078461071,1.669078461066,1.66907846107
      ,1.669078461067,1.669078461069,1.669078461068,1.669078461068
      ,1.669078461068,1.669078461068,1.669078461068,1.669078461069
      ,1.669078461068,1.669078461069,1.669078461068,1.669078461069
      ,1.669078461068,1.669078461068,1.669078461068,1.669078461068
      ,1.669078461068,1.669078461069,1.669078461067,1.66907846107
      ,1.669078461066,1.66907846107,1.669078461067,1.669078461069
      ,1.669078461068,1.669078461068,1.669078461068,1.669078461068
      ,1.669078461069,1.669078461067,1.669078461069,1.669078461067
      ,1.669078461069,1.669078461068,1.669078461068,1.669078461068
      ,1.669078461068,1.669078461068,1.669078461068,1.669078461068
      ,1.669078461069,1.669078461066,1.66907846107,1.669078461067
      ,1.669078461069,1.669078461068,1.669078461068,1.669078461068
      ,1.669078461068,1.669078461069,1.669078461067,1.669078461069
      ,1.669078461067,1.66907846107,1.669078461067,1.669078461069
      ,1.669078461068,1.669078461068,1.669078461068,1.669078461068
      ,1.669078461069,1.669078461066,1.669078461072,1.669078461064
      ,1.669078461072,1.669078461065,1.66907846107,1.669078461068
      ,1.669078461068,1.669078461068,1.669078461068,1.669078461068
      ,1.669078461068,1.669078461068,1.669078461068,1.669078461068
      ,1.669078461068,1.669078461068,1.669078461068,1.669078461068
,1.669078461068))) REPRESENTATION_ITEM('') SURFACE() );
#138 = CARTESIAN_POINT('',(22.227241335952,-9.625,59.4));
#139 = CARTESIAN_POINT('',(22.227241335952,-9.321098599217,
    58.56464402615));
#140 = CARTESIAN_POINT('',(21.637080435341,-9.016712578205,
    57.72898568245));
#141 = CARTESIAN_POINT('',(20.453343885482,-8.714104997541,
    57.358600312297));
#142 = CARTESIAN_POINT('',(19.102870015267,-8.406979189142,
    57.911717181927));
#143 = CARTESIAN_POINT('',(18.349389245609,-8.108136677115,
    59.447788274837));
#144 = CARTESIAN_POINT('',(19.070639963731,-7.798125139704,
    61.189031983768));
#145 = CARTESIAN_POINT('',(20.689599322173,-7.499282629099,
    61.742401158171));
#146 = CARTESIAN_POINT('',(22.035639365407,-7.192156819618,
    61.178579556194));
#147 = CARTESIAN_POINT('',(22.610761400906,-6.889549238928,
    60.079647372698));
#148 = CARTESIAN_POINT('',(22.437164826951,-6.585163218299,
    59.071441528339));
#149 = CARTESIAN_POINT('',(21.846476786932,-6.281261817371,
    58.480757820813));
#150 = CARTESIAN_POINT('',(21.255801073685,-5.977324729578,
    57.890082104794));
#151 = CARTESIAN_POINT('',(20.247576792127,-5.673001315958,
    57.716471377727));
#152 = CARTESIAN_POINT('',(19.1486724014,-5.370303266383,58.291623263057
    ));
#153 = CARTESIAN_POINT('',(18.584824760983,-5.063286684628,
    59.637634094014));
#154 = CARTESIAN_POINT('',(19.138231238832,-4.764333347456,
    61.256623286698));
#155 = CARTESIAN_POINT('',(20.879450870515,-4.454416207907,
    61.977840378265));
#156 = CARTESIAN_POINT('',(22.415538163989,-4.155506763522,
    61.224373384904));
#157 = CARTESIAN_POINT('',(22.968639087514,-3.848419732202,
    59.873886226804));
#158 = CARTESIAN_POINT('',(22.598254415396,-3.545794465,58.690156170687)
  );
#159 = CARTESIAN_POINT('',(21.762592246313,-3.241414292606,
    58.099996631329));
#160 = CARTESIAN_POINT('',(20.927236578391,-2.937511817371,
    58.100000000649));
#161 = CARTESIAN_POINT('',(20.091895277579,-2.633573655271,
    58.09999969282));
#162 = CARTESIAN_POINT('',(19.25621006412,-2.329256089887,58.69016226194
    ));
#163 = CARTESIAN_POINT('',(18.885866150104,-2.026540353795,
    59.873893771243));
#164 = CARTESIAN_POINT('',(19.438928008478,-1.719562550217,
    61.22437868812));
#165 = CARTESIAN_POINT('',(20.975062770276,-1.420542279236,
    61.977840394748));
#166 = CARTESIAN_POINT('',(22.716241606533,-1.110719537584,
    61.256616558142));
#167 = CARTESIAN_POINT('',(23.269669272621,-0.811699268021,
    59.637625642626));
#168 = CARTESIAN_POINT('',(22.705800969133,-0.504721463367,
    58.291616699805));
#169 = CARTESIAN_POINT('',(21.606901656733,-0.202005727244,
    57.716468905629));
#170 = CARTESIAN_POINT('',(20.598675637636,0.102311837755,
    57.890083305065));
#171 = CARTESIAN_POINT('',(20.00800252041,0.40625,58.480761184457));
#172 = CARTESIAN_POINT('',(19.417316646595,0.710151400783,
    59.071447058272));
#173 = CARTESIAN_POINT('',(19.243723739825,1.014537421796,60.07965351467
    ));
#174 = CARTESIAN_POINT('',(19.818849874477,1.317145002458,
    61.178583663103));
#175 = CARTESIAN_POINT('',(21.164891795231,1.62427081086,61.742400205238
    ));
#176 = CARTESIAN_POINT('',(22.783849443128,1.923113322883,
    61.189025280785));
#177 = CARTESIAN_POINT('',(23.50509340369,2.233124860298,59.44777877277)
  );
#178 = CARTESIAN_POINT('',(22.751607358594,2.5319673709,57.91171053624)
  );
#179 = CARTESIAN_POINT('',(21.401131238135,2.839093180383,
    57.358598572052));
#180 = CARTESIAN_POINT('',(20.21739614781,3.141700761071,57.728988279758
    ));
#181 = CARTESIAN_POINT('',(19.627238273067,3.446086781702,58.56464878377
    ));
#182 = CARTESIAN_POINT('',(19.627241336601,3.749988182629,
    59.400004757561));
#183 = CARTESIAN_POINT('',(19.627241028772,4.053926344729,
    60.235346058373));
#184 = CARTESIAN_POINT('',(20.217403597893,4.358243910115,
    61.071031271832));
#185 = CARTESIAN_POINT('',(21.401135107194,4.660959646196,
    61.441375185849));
#186 = CARTESIAN_POINT('',(22.751620024075,4.967937449803,
    60.888313327473));
#187 = CARTESIAN_POINT('',(23.505081730694,5.266957720734,
    59.352178565673));
#188 = CARTESIAN_POINT('',(22.783857894107,5.576780462448,
    57.610999729427));
#189 = CARTESIAN_POINT('',(21.164866978564,5.875800731955,
    57.057572063324));
#190 = CARTESIAN_POINT('',(19.818858035767,6.182778536646,
    57.621440366822));
#191 = CARTESIAN_POINT('',(19.243710241577,6.48549427275,58.720339679218
    ));
#192 = CARTESIAN_POINT('',(19.417324641018,6.789811837757,
    59.728565698316));
#193 = CARTESIAN_POINT('',(20.00800252041,7.09375,60.319238815543));
#194 = CARTESIAN_POINT('',(20.598687961718,7.39765247509,60.909924689415
    ));
#195 = CARTESIAN_POINT('',(21.60689677256,7.70203264787,61.083517595866)
  );
#196 = CARTESIAN_POINT('',(22.705819800572,8.004657915035,
    60.508391462182));
#197 = CARTESIAN_POINT('',(23.269651954424,8.311744945294,
    59.162349539305));
#198 = CARTESIAN_POINT('',(22.716250083069,8.610654391072,
    57.543391895072));
#199 = CARTESIAN_POINT('',(20.975041578739,8.920571530653,56.82214792934
    ));
#200 = CARTESIAN_POINT('',(19.438928725052,9.219524866374,
    57.575633980514));
#201 = CARTESIAN_POINT('',(18.885860734478,9.526541449236,
    58.926110094975));
#202 = CARTESIAN_POINT('',(19.256214020259,9.829239498816,
    60.109845190271));
#203 = CARTESIAN_POINT('',(20.091899729411,10.133562912068,
    60.700003061574));
#204 = CARTESIAN_POINT('',(20.927241335953,10.437499999997,60.7));
#205 = CARTESIAN_POINT('',(21.762597309799,10.741401400788,60.7));
#206 = CARTESIAN_POINT('',(22.598255653505,11.045787421796,
    60.10983909939));
#207 = CARTESIAN_POINT('',(22.968641023657,11.34839500244,
    58.926102549524));
#208 = CARTESIAN_POINT('',(22.415524154015,11.655520810903,
    57.575628679327));
#209 = CARTESIAN_POINT('',(20.879453061127,11.954363322824,
    56.822147909642));
#210 = CARTESIAN_POINT('',(19.138209352175,12.264374860353,
    57.543398627784));
#211 = CARTESIAN_POINT('',(18.584840177787,12.563217370865,
    59.162357986228));
#212 = CARTESIAN_POINT('',(19.148661779755,12.870343180395,
    60.508398029445));
#213 = CARTESIAN_POINT('',(20.247593963254,13.172950761073,
    61.08352006496));
#214 = CARTESIAN_POINT('',(21.255799807614,13.477336781697,
    60.909923490996));
#215 = CARTESIAN_POINT('',(21.846483515139,13.781238182631,
    60.31923545098));
#216 = CARTESIAN_POINT('',(22.437159231159,14.085175270418,
    59.728559737732));
#217 = CARTESIAN_POINT('',(22.610769958224,14.389498684049,
    58.720335456177));
#218 = CARTESIAN_POINT('',(22.035618072897,14.692196733605,
    57.621431065445));
#219 = CARTESIAN_POINT('',(20.689607241933,14.999213315391,
    57.057583425031));
#220 = CARTESIAN_POINT('',(19.070618049264,15.298166652519,
    57.610989902884));
#221 = CARTESIAN_POINT('',(18.349400957675,15.608083792117,
    59.352209534555));
#222 = CARTESIAN_POINT('',(19.102867951059,15.906993236463,
    60.888296828046));
#223 = CARTESIAN_POINT('',(20.453355109141,16.214080267804,
    61.441397751556));
#224 = CARTESIAN_POINT('',(21.637085165268,16.516705535,61.071013079447)
  );
#225 = CARTESIAN_POINT('',(22.227244704623,16.821085707393,
    60.23535091036));
#226 = CARTESIAN_POINT('',(22.227241335303,17.12498818263,
    59.399995242439));
#227 = CARTESIAN_POINT('',(22.227241335952,-9.817665417508,
    59.322434729767));
#228 = CARTESIAN_POINT('',(22.177294763239,-9.513766371249,
    58.487084604354));
#229 = CARTESIAN_POINT('',(21.537806186304,-9.209374131682,
    57.686653921075));
#230 = CARTESIAN_POINT('',(20.330283678926,-8.906766901307,
    57.386989029638));
#231 = CARTESIAN_POINT('',(19.016507814329,-8.599658934978,
    58.020077993256));
#232 = CARTESIAN_POINT('',(18.34904161139,-8.30079285381,59.602705342678
    ));
#233 = CARTESIAN_POINT('',(19.18045901438,-7.990781827302,
    61.298300179448));
#234 = CARTESIAN_POINT('',(20.827293081647,-7.691962016347,
    61.757918222898));
#235 = CARTESIAN_POINT('',(22.142711917408,-7.384818897953,
    61.11160782591));
#236 = CARTESIAN_POINT('',(22.650998395463,-7.082210735036,
    59.979505711849));
#237 = CARTESIAN_POINT('',(22.417615012056,-6.777831002179,
    58.981286527327));
#238 = CARTESIAN_POINT('',(21.791614891631,-6.473927233878,
    58.425925859551));
#239 = CARTESIAN_POINT('',(21.165670951294,-6.169992503631,
    57.87052663984));
#240 = CARTESIAN_POINT('',(20.147397160428,-5.865662866155,
    57.756784860237));
#241 = CARTESIAN_POINT('',(19.081795067059,-5.562965174529,
    58.398648303988));
#242 = CARTESIAN_POINT('',(18.600307309356,-5.255966425596,
    59.77539687742));
#243 = CARTESIAN_POINT('',(19.247595875689,-4.956989528667,
    61.366344465657));
#244 = CARTESIAN_POINT('',(21.03431693506,-4.647072892026,
    61.977502879966));
#245 = CARTESIAN_POINT('',(22.523907335566,-4.348186152962,
    61.137948655465));
#246 = CARTESIAN_POINT('',(22.996978296655,-4.041081809442,
    59.750834689023));
#247 = CARTESIAN_POINT('',(22.555901465829,-3.738455961513,
    58.59088742509));
#248 = CARTESIAN_POINT('',(21.685017866444,-3.434082076394,
    58.050072586102));
#249 = CARTESIAN_POINT('',(20.849671308561,-3.130177233878,
    58.100021167211));
#250 = CARTESIAN_POINT('',(20.014334494305,-2.826241429416,
    58.149902151062));
#251 = CARTESIAN_POINT('',(19.21388435049,-2.52191763968,58.7895119419)
  );
#252 = CARTESIAN_POINT('',(18.91423851123,-2.219202263032,
    59.996844966236));
#253 = CARTESIAN_POINT('',(19.547321581852,-1.912242288999,
    61.310876630353));
#254 = CARTESIAN_POINT('',(21.129927821308,-1.613198463919,
    61.978040495074));
#255 = CARTESIAN_POINT('',(22.825577348365,-1.303376217193,
    61.146938608577));
#256 = CARTESIAN_POINT('',(23.285113515484,-1.004378662326,
    59.499812736068));
#257 = CARTESIAN_POINT('',(22.63889475945,-0.69738353623,58.184632793719
    ));
#258 = CARTESIAN_POINT('',(21.506710932374,-0.394667227036,
    57.676174298818));
#259 = CARTESIAN_POINT('',(20.508550868779,-9.035594401329E-02,
    57.909665275162));
#260 = CARTESIAN_POINT('',(19.953155591843,0.213584582493,
    58.535608113023));
#261 = CARTESIAN_POINT('',(19.397791413761,0.51748362875,59.161607411632
    ));
#262 = CARTESIAN_POINT('',(19.283988158989,0.82187586832,60.179784084887
    ));
#263 = CARTESIAN_POINT('',(19.925940435566,1.12448309869,61.245526515115
    ));
#264 = CARTESIAN_POINT('',(21.302581757661,1.431591065026,
    61.726844838651));
#265 = CARTESIAN_POINT('',(22.893638166832,1.730457146185,
    61.079728186108));
#266 = CARTESIAN_POINT('',(23.504703890406,2.040468172704,59.29286069522
    ));
#267 = CARTESIAN_POINT('',(22.665215389236,2.339287983647,
    57.803374123494));
#268 = CARTESIAN_POINT('',(21.278063345903,2.64643110205,57.330243009087
    ));
#269 = CARTESIAN_POINT('',(20.118133448639,2.949039264962,
    57.771347275517));
#270 = CARTESIAN_POINT('',(19.577312867175,3.253418997822,
    58.642221803027));
#271 = CARTESIAN_POINT('',(19.627262503163,3.557322766122,
    59.477570027391));
#272 = CARTESIAN_POINT('',(19.677143487013,3.861258570585,
    60.312906841647));
#273 = CARTESIAN_POINT('',(20.316753277856,4.165582360322,
    61.113356985465));
#274 = CARTESIAN_POINT('',(21.524086302185,4.468297736957,
    61.413002824714));
#275 = CARTESIAN_POINT('',(22.838117966303,4.775257711026,
    60.779919754114));
#276 = CARTESIAN_POINT('',(23.505281831033,5.074301536045,
    59.197313514627));
#277 = CARTESIAN_POINT('',(22.674179944522,5.384123782844,
    57.501663987602));
#278 = CARTESIAN_POINT('',(21.027054072025,5.683121337645,
    57.042127820461));
#279 = CARTESIAN_POINT('',(19.711874129669,5.990116463787,
    57.688346576504));
#280 = CARTESIAN_POINT('',(19.203415634772,6.292832772957,
    58.820530403578));
#281 = CARTESIAN_POINT('',(19.436906611112,6.597144055989,
    59.818690467174));
#282 = CARTESIAN_POINT('',(20.062849448976,6.901084582492,
    60.374085744108));
#283 = CARTESIAN_POINT('',(20.688848315112,7.204984702966,
    60.929451846484));
#284 = CARTESIAN_POINT('',(21.70702734262,7.509371094797,61.043244625932
    ));
#285 = CARTESIAN_POINT('',(22.772762653017,7.811996010176,
    60.401324029327));
#286 = CARTESIAN_POINT('',(23.254096586964,8.119065201647,
    59.024613248027));
#287 = CARTESIAN_POINT('',(22.606952989787,8.417998210901,57.43367673024
    ));
#288 = CARTESIAN_POINT('',(20.820123499372,8.727914847569,
    56.822441921773));
#289 = CARTESIAN_POINT('',(19.330592314269,9.026845474257,
    57.662128932302));
#290 = CARTESIAN_POINT('',(18.857505169746,9.333879375281,
    59.049085329494));
#291 = CARTESIAN_POINT('',(19.298573017341,9.636577999427,
    60.209177274156));
#292 = CARTESIAN_POINT('',(20.169472747854,9.940895130209,
    60.749885713616));
#293 = CARTESIAN_POINT('',(21.004806606185,10.244834582489,
    60.699999999996));
#294 = CARTESIAN_POINT('',(21.840156731595,10.548733628756,60.6500534273
    ));
#295 = CARTESIAN_POINT('',(22.640587414889,10.853125868316,
    60.010564850331));
#296 = CARTESIAN_POINT('',(22.94025230629,11.155733098679,
    58.803042342993));
#297 = CARTESIAN_POINT('',(22.307163342725,11.462841065061,
    57.48926647837));
#298 = CARTESIAN_POINT('',(20.724535993257,11.761707146133,
    56.821800275426));
#299 = CARTESIAN_POINT('',(19.028941156497,12.071718172755,
    57.653217678442));
#300 = CARTESIAN_POINT('',(18.569323113081,12.370537983614,
    59.300051745693));
#301 = CARTESIAN_POINT('',(19.215633510014,12.677681102063,
    60.615470581446));
#302 = CARTESIAN_POINT('',(20.34773562412,12.980289264962,
    61.123757059524));
#303 = CARTESIAN_POINT('',(21.345954808619,13.284668997818,
    60.890373676095));
#304 = CARTESIAN_POINT('',(21.901315476403,13.588572766124,
    60.264373555682));
#305 = CARTESIAN_POINT('',(22.456714696108,13.892507496365,
    59.638429615336));
#306 = CARTESIAN_POINT('',(22.570456475724,14.196837133852,
    58.620155824484));
#307 = CARTESIAN_POINT('',(21.928593031951,14.499534825458,
    57.554553731097));
#308 = CARTESIAN_POINT('',(20.551844458548,14.806533574424,
    57.073065973416));
#309 = CARTESIAN_POINT('',(18.960896870284,15.105510471306,
    57.720354539722));
#310 = CARTESIAN_POINT('',(18.349738455988,15.415427108001,
    59.507075599125));
#311 = CARTESIAN_POINT('',(19.189292680495,15.714313847019,
    60.996665999598));
#312 = CARTESIAN_POINT('',(20.576406646919,16.021418190566,
    61.469736960712));
#313 = CARTESIAN_POINT('',(21.736353910871,16.324044038485,
    61.028660129875));
#314 = CARTESIAN_POINT('',(22.277168749845,16.628417923605,
    60.157776530491));
#315 = CARTESIAN_POINT('',(22.227220168743,16.932322766123,
    59.32242997261));
#316 = CARTESIAN_POINT('',(21.970422812134,-9.845328892469,
    59.311297677054));
#317 = CARTESIAN_POINT('',(21.913304761625,-9.541274301714,
    58.640934239497));
#318 = CARTESIAN_POINT('',(21.383421301659,-9.23772096232,
    58.011019211836));
#319 = CARTESIAN_POINT('',(20.40587407065,-8.93229968388,57.793332660937
    ));
#320 = CARTESIAN_POINT('',(19.365299848721,-8.631663097656,
    58.331663274832));
#321 = CARTESIAN_POINT('',(18.857119590646,-8.322244019028,59.6126880404
    ));
#322 = CARTESIAN_POINT('',(19.564183667205,-8.024630753489,
    60.963344445993));
#323 = CARTESIAN_POINT('',(20.893125292866,-7.715264585575,61.2954204591
    ));
#324 = CARTESIAN_POINT('',(21.939570742749,-7.414587802411,
    60.751609593075));
#325 = CARTESIAN_POINT('',(22.324024460566,-7.109165457599,
    59.830568349065));
#326 = CARTESIAN_POINT('',(22.116549721709,-6.80562641982,
    59.033288672771));
#327 = CARTESIAN_POINT('',(21.602146450097,-6.501566429338,
    58.599657953601));
#328 = CARTESIAN_POINT('',(21.087780329214,-6.19754947571,
    58.165965580713));
#329 = CARTESIAN_POINT('',(20.267607073798,-5.893930107739,
    58.09534205417));
#330 = CARTESIAN_POINT('',(19.422553029528,-5.588604241894,
    58.632486502749));
#331 = CARTESIAN_POINT('',(19.067287764567,-5.287852460318,
    59.74913180928));
#332 = CARTESIAN_POINT('',(19.61389859578,-4.978550262897,
    61.014097029069));
#333 = CARTESIAN_POINT('',(21.068818323621,-4.680837441106,
    61.469350590378));
#334 = CARTESIAN_POINT('',(22.243412006825,-4.37154186458,
    60.764343117509));
#335 = CARTESIAN_POINT('',(22.598783808042,-4.070824184219,
    59.639929898978));
#336 = CARTESIAN_POINT('',(22.219379435582,-3.765420492398,
    58.716774632587));
#337 = CARTESIAN_POINT('',(21.508904060803,-3.461875286809,
    58.299729787786));
#338 = CARTESIAN_POINT('',(20.838544030544,-3.157816429337,
    58.356842728854));
#339 = CARTESIAN_POINT('',(20.168163562139,-2.853800608722,
    58.413886449706));
#340 = CARTESIAN_POINT('',(19.538285342995,-2.550175072941,
    58.943904860225));
#341 = CARTESIAN_POINT('',(19.320529453808,-2.244867860085,
    59.921246481458));
#342 = CARTESIAN_POINT('',(19.858974250547,-1.944075181314,
    60.962088949347));
#343 = CARTESIAN_POINT('',(21.139834922519,-1.634843575277,
    61.469965361633));
#344 = CARTESIAN_POINT('',(22.490696469679,-1.33703119724,
    60.763203015252));
#345 = CARTESIAN_POINT('',(22.822550277976,-1.027852501914,
    59.433997052683));
#346 = CARTESIAN_POINT('',(22.278946867058,-0.727019626207,
    58.387756434446));
#347 = CARTESIAN_POINT('',(21.357739922442,-0.421711346977,
    58.003162622047));
#348 = CARTESIAN_POINT('',(20.560572202559,-0.118100112812,
    58.210721219608));
#349 = CARTESIAN_POINT('',(20.126878626073,0.185921107531,
    58.725081318246));
#350 = CARTESIAN_POINT('',(19.693248654361,0.489975698287,
    59.239488411646));
#351 = CARTESIAN_POINT('',(19.622515654511,0.793529037679,
    60.059589787054));
#352 = CARTESIAN_POINT('',(20.159818294171,1.09895031612,60.904747699351
    ));
#353 = CARTESIAN_POINT('',(21.276272610436,1.399586902345,
    61.259887560387));
#354 = CARTESIAN_POINT('',(22.541431615584,1.709005980972,
    60.713403968352));
#355 = CARTESIAN_POINT('',(22.99652011576,2.00661924651,59.258375861623)
  );
#356 = CARTESIAN_POINT('',(22.291629681199,2.315985414427,
    58.083859025585));
#357 = CARTESIAN_POINT('',(21.16714865639,2.616662197587,57.72844270288)
  );
#358 = CARTESIAN_POINT('',(20.244024316081,2.922084542402,58.10786738135
    ));
#359 = CARTESIAN_POINT('',(19.82696924524,3.225623580179,58.81833604173)
  );
#360 = CARTESIAN_POINT('',(19.884084064806,3.529683570662,
    59.488697305408));
#361 = CARTESIAN_POINT('',(19.941127785656,3.833699391277,
    60.159077773814));
#362 = CARTESIAN_POINT('',(20.471146196183,4.137324927062,60.78895599296
    ));
#363 = CARTESIAN_POINT('',(21.448487817401,4.442632139909,
    61.006711882133));
#364 = CARTESIAN_POINT('',(22.489330285307,4.743424818693,
    60.468267085426));
#365 = CARTESIAN_POINT('',(22.997206697585,5.052656424716,
    59.187406413404));
#366 = CARTESIAN_POINT('',(22.290444351198,5.350468802765,57.8365448663)
  );
#367 = CARTESIAN_POINT('',(20.961238388643,5.659647498082,
    57.504691057959));
#368 = CARTESIAN_POINT('',(19.914997770392,5.960480373795,
    58.048294468902));
#369 = CARTESIAN_POINT('',(19.530403958002,6.265788653022,
    58.969501413507));
#370 = CARTESIAN_POINT('',(19.737962555558,6.569399887187,
    59.766669133395));
#371 = CARTESIAN_POINT('',(20.252322654199,6.873421107532,
    60.200362709878));
#372 = CARTESIAN_POINT('',(20.766730203735,7.177474565273,
    60.633994882051));
#373 = CARTESIAN_POINT('',(21.58682909605,7.481034072481,60.704715903201
    ));
#374 = CARTESIAN_POINT('',(22.431994517846,7.786436697925,60.16744949009
    ));
#375 = CARTESIAN_POINT('',(22.787117914087,8.087114181349,
    59.050915746131));
#376 = CARTESIAN_POINT('',(22.240662741441,8.396462668596,
    57.785893838659));
#377 = CARTESIAN_POINT('',(20.785594554343,8.694175490366,
    57.330611987267));
#378 = CARTESIAN_POINT('',(19.611124773543,9.003424777105,
    58.035729420374));
#379 = CARTESIAN_POINT('',(19.2556620743,9.304216755586,59.159986720776)
  );
#380 = CARTESIAN_POINT('',(19.635125164966,9.609543687831,
    60.083296364805));
#381 = CARTESIAN_POINT('',(20.345567242873,9.91314875417,60.500223199521
    ));
#382 = CARTESIAN_POINT('',(21.015943658897,10.217171107533,
    60.443181476176));
#383 = CARTESIAN_POINT('',(21.686307096458,10.521225698278,
    60.386063425689));
#384 = CARTESIAN_POINT('',(22.316222124122,10.824779037698,
    59.856179965677));
#385 = CARTESIAN_POINT('',(22.533908674992,11.13020031609,
    58.878632734738));
#386 = CARTESIAN_POINT('',(21.995578061159,11.430836902385,
    57.838058512737));
#387 = CARTESIAN_POINT('',(20.714553295516,11.740255980927,
    57.329878254701));
#388 = CARTESIAN_POINT('',(19.363896889972,12.037869246554,
    58.036942331265));
#389 = CARTESIAN_POINT('',(19.031820876867,12.347235414389,59.3658839569
    ));
#390 = CARTESIAN_POINT('',(19.575631742852,12.647912197615,60.4123294068
    ));
#391 = CARTESIAN_POINT('',(20.496672986906,12.953334542385,
    60.796783124618));
#392 = CARTESIAN_POINT('',(21.293952663171,13.256873580187,
    60.589308385751));
#393 = CARTESIAN_POINT('',(21.727583382354,13.560933570661,
    60.074905114147));
#394 = CARTESIAN_POINT('',(22.161275755233,13.864950524293,
    59.560538993258));
#395 = CARTESIAN_POINT('',(22.231899281795,14.168569892256,
    58.74036573785));
#396 = CARTESIAN_POINT('',(21.694754833184,14.473895758111,
    57.895311693574));
#397 = CARTESIAN_POINT('',(20.578109526698,14.77464753968,
    57.540046428616));
#398 = CARTESIAN_POINT('',(19.31314430686,15.083949737101,
    58.086657259822));
#399 = CARTESIAN_POINT('',(18.85789074559,15.3816625589,59.541576987682)
  );
#400 = CARTESIAN_POINT('',(19.562898218438,15.690958135411,
    60.716170670856));
#401 = CARTESIAN_POINT('',(20.687311436972,15.991675815791,
    61.071542472103));
#402 = CARTESIAN_POINT('',(21.610466703371,16.297079507595,
    60.692138099624));
#403 = CARTESIAN_POINT('',(22.027511548161,16.600624713195,
    59.981662724853));
#404 = CARTESIAN_POINT('',(21.970398607101,16.904683570661,
    59.311302694592));
#405 = CARTESIAN_POINT('',(21.758601720826,-9.625,59.4));
#406 = CARTESIAN_POINT('',(21.758601720826,-9.320814146425,
    58.865708385586));
#407 = CARTESIAN_POINT('',(21.381371308626,-9.017960570534,
    58.331975181667));
#408 = CARTESIAN_POINT('',(20.623523237896,-8.710217854153,
    58.092653608231));
#409 = CARTESIAN_POINT('',(19.761969523083,-8.414896274165,
    58.451903104595));
#410 = CARTESIAN_POINT('',(19.276615432247,-8.096802943847,
    59.425414981037));
#411 = CARTESIAN_POINT('',(19.742082945616,-7.809414570332,
    60.54917923699));
#412 = CARTESIAN_POINT('',(20.773652261443,-7.49132123612,
    60.894374725041));
#413 = CARTESIAN_POINT('',(21.636895652086,-7.195999659085,
    60.539205916055));
#414 = CARTESIAN_POINT('',(22.003560523595,-6.888256942791,
    59.834106093301));
#415 = CARTESIAN_POINT('',(21.892906419817,-6.585403365841,
    59.189955860359));
#416 = CARTESIAN_POINT('',(21.515111151283,-6.281217512666,
    58.812148681299));
#417 = CARTESIAN_POINT('',(21.137281995012,-5.977129766856,
    58.434319532649));
#418 = CARTESIAN_POINT('',(20.493182448088,-5.674104075913,
    58.323704337428));
#419 = CARTESIAN_POINT('',(19.788006219757,-5.366610069171,
    58.69028714826));
#420 = CARTESIAN_POINT('',(19.432908993499,-5.070988212324,
    59.553610846877));
#421 = CARTESIAN_POINT('',(19.778001929993,-4.753199553343,
    60.585098144862));
#422 = CARTESIAN_POINT('',(20.901832377153,-4.465551669017,
    61.050658101594));
#423 = CARTESIAN_POINT('',(21.875299716303,-4.147642343628,
    60.565266138083));
#424 = CARTESIAN_POINT('',(22.234593050414,-3.852214160879,
    59.703748953228));
#425 = CARTESIAN_POINT('',(21.99526955798,-3.544520066878,
    58.945883030441));
#426 = CARTESIAN_POINT('',(21.46154687049,-3.241650412447,
    58.568648875997));
#427 = CARTESIAN_POINT('',(20.927254415045,-2.937467512666,
    58.568639613341));
#428 = CARTESIAN_POINT('',(20.392922462734,-2.633382720249,
    58.568640459602));
#429 = CARTESIAN_POINT('',(19.859263126925,-2.330340951831,
    58.945866284873));
#430 = CARTESIAN_POINT('',(19.61982758571,-2.022895567373,
    59.703728212684));
#431 = CARTESIAN_POINT('',(19.979228314481,-1.727167104819,
    60.565251558924));
#432 = CARTESIAN_POINT('',(20.952565157649,-1.409562454656,
    61.050658056276));
#433 = CARTESIAN_POINT('',(22.07650775624,-1.121655059523,60.58511664245
    ));
#434 = CARTESIAN_POINT('',(22.42154244374,-0.804050405467,59.55363408073
    ));
#435 = CARTESIAN_POINT('',(22.066502022718,-0.508321945863,
    58.690305191405));
#436 = CARTESIAN_POINT('',(21.361311833453,-0.200876561497,
    58.323711133515));
#437 = CARTESIAN_POINT('',(20.717217063234,0.102165207984,
    58.434316232962));
#438 = CARTESIAN_POINT('',(20.339380770198,0.406249999999,
    58.812139434246));
#439 = CARTESIAN_POINT('',(19.961579546515,0.710435853576,
    59.189940657929));
#440 = CARTESIAN_POINT('',(19.850915361214,1.013289429464,
    59.834089208301));
#441 = CARTESIAN_POINT('',(20.217568963678,1.321032145848,
    60.539194625688));
#442 = CARTESIAN_POINT('',(21.080807192793,1.616353725836,
    60.894377344761));
#443 = CARTESIAN_POINT('',(22.112381211103,1.934447056152,
    60.549197664287));
#444 = CARTESIAN_POINT('',(22.577867301809,2.221835429668,
    59.425441103304));
#445 = CARTESIAN_POINT('',(22.092527713766,2.539928763883,
    58.451921374396));
#446 = CARTESIAN_POINT('',(21.230980185126,2.835250340911,
    58.092658392351));
#447 = CARTESIAN_POINT('',(20.473128101976,3.142993057211,58.33196804137
    ));
#448 = CARTESIAN_POINT('',(20.095889371308,3.445846634158,
    58.865695306333));
#449 = CARTESIAN_POINT('',(20.095880949294,3.750032487334,
    59.399986920907));
#450 = CARTESIAN_POINT('',(20.095881795553,4.054117279749,
    59.934318873219));
#451 = CARTESIAN_POINT('',(20.473107620829,4.357159048174,
    60.467978209026));
#452 = CARTESIAN_POINT('',(21.230969548625,4.664604432623,
    60.707413750241));
#453 = CARTESIAN_POINT('',(22.092492894895,4.960332895177,60.34801302148
    ));
#454 = CARTESIAN_POINT('',(22.577899392207,5.277937545358,
    59.374676178283));
#455 = CARTESIAN_POINT('',(22.11235797842,5.565844940458,58.25073357974)
  );
#456 = CARTESIAN_POINT('',(21.080875416671,5.88344959455,57.905698892186
    ));
#457 = CARTESIAN_POINT('',(20.217546527362,6.179178054126,
    58.260739313249));
#458 = CARTESIAN_POINT('',(19.850952469466,6.486623438509,
    58.965929502493));
#459 = CARTESIAN_POINT('',(19.961557568915,6.789665207981,
    59.610024272719));
#460 = CARTESIAN_POINT('',(20.339380770198,7.093750000001,
    59.987860565754));
#461 = CARTESIAN_POINT('',(20.71718318289,7.397932900178,60.365661789276
    ));
#462 = CARTESIAN_POINT('',(21.361325260623,7.700802553555,
    60.476325975455));
#463 = CARTESIAN_POINT('',(22.066450252872,8.008496647643,
    60.109672370329));
#464 = CARTESIAN_POINT('',(22.421590053523,8.30392483333,59.246434147062
    ));
#465 = CARTESIAN_POINT('',(22.07648445321,8.621834154868,58.214860118646
    ));
#466 = CARTESIAN_POINT('',(20.952623415696,8.909482039122,
    57.749374042201));
#467 = CARTESIAN_POINT('',(19.979226344517,9.227270702086,
    58.234713613499));
#468 = CARTESIAN_POINT('',(19.619842473907,9.522892555892,
    59.096261158642));
#469 = CARTESIAN_POINT('',(19.859252251033,9.830386562617,
    59.854113228125));
#470 = CARTESIAN_POINT('',(20.392910224129,10.133412254574,
    60.231351968249));
#471 = CARTESIAN_POINT('',(20.927241335949,10.437500000006,
    60.231360384874));
#472 = CARTESIAN_POINT('',(21.461532950374,10.741685853553,
    60.231360384876));
#473 = CARTESIAN_POINT('',(21.995266154274,11.044539429506,
    59.854129972663));
#474 = CARTESIAN_POINT('',(22.234587727734,11.352282145795,
    59.096281901968));
#475 = CARTESIAN_POINT('',(21.875338231354,11.647603725887,
    58.234728187101));
#476 = CARTESIAN_POINT('',(20.901826354902,11.965697056108,
    57.749374096314));
#477 = CARTESIAN_POINT('',(19.778062098987,12.253085429708,
    58.214841609663));
#478 = CARTESIAN_POINT('',(19.432866610892,12.571178763841,
    59.246410925478));
#479 = CARTESIAN_POINT('',(19.788035419904,12.866500340952,
    60.109654316149));
#480 = CARTESIAN_POINT('',(20.493135242653,13.17424305718,
    60.476319187632));
#481 = CARTESIAN_POINT('',(21.137285475589,13.477096634175,
    60.365665083869));
#482 = CARTESIAN_POINT('',(21.515092654655,13.781282487329,
    59.98786981533));
#483 = CARTESIAN_POINT('',(21.892921803301,14.085370233154,
    59.610040659063));
#484 = CARTESIAN_POINT('',(22.003536998527,14.388395924071,
    58.965941112128));
#485 = CARTESIAN_POINT('',(21.636954187687,14.695889930849,
    58.260764883819));
#486 = CARTESIAN_POINT('',(20.773630489082,14.991511787652,
    57.905667657525));
#487 = CARTESIAN_POINT('',(19.74214319108,15.309300446679,
    58.250760594066));
#488 = CARTESIAN_POINT('',(19.276583234371,15.596948330969,
    59.374591041179));
#489 = CARTESIAN_POINT('',(19.761975197856,15.914857656372,
    60.348058380363));
#490 = CARTESIAN_POINT('',(20.623492382734,16.21028583913,
    60.707351714459));
#491 = CARTESIAN_POINT('',(21.381358305507,16.517979933111,
    60.468028222025));
#492 = CARTESIAN_POINT('',(21.758592459956,16.820849587561,
    59.934305534541));
#493 = CARTESIAN_POINT('',(21.758601722611,17.125032487331,
    59.400013079091));
#494 = CARTESIAN_POINT('',(21.970422812134,-9.404671107531,
    59.488702322946));
#495 = CARTESIAN_POINT('',(22.027540862641,-9.100611131587,
    58.818325509046));
#496 = CARTESIAN_POINT('',(21.61047798494,-8.797072015063,
    58.107838975555));
#497 = CARTESIAN_POINT('',(20.687333186335,-8.491649935451,
    57.728402952937));
#498 = CARTESIAN_POINT('',(19.562824535091,-8.190972541455,
    58.083824115568));
#499 = CARTESIAN_POINT('',(18.857914687801,-7.88160736936,
    59.258366995936));
#500 = CARTESIAN_POINT('',(19.313009272603,-7.583992935308,
    60.713429948127));
#501 = CARTESIAN_POINT('',(20.578196813046,-7.274574849516,
    61.25993035683));
#502 = CARTESIAN_POINT('',(21.694678046371,-6.97393765472,
    60.904785054983));
#503 = CARTESIAN_POINT('',(22.231995776208,-6.668516641551,
    60.059608947118));
#504 = CARTESIAN_POINT('',(22.161263392896,-6.364963222598,
    59.239488122372));
#505 = CARTESIAN_POINT('',(21.727624709627,-6.060908646689,
    58.725067749018));
#506 = CARTESIAN_POINT('',(21.293922877278,-5.756886300962,
    58.210692174522));
#507 = CARTESIAN_POINT('',(20.496734517485,-5.453281167982,
    58.003138429171));
#508 = CARTESIAN_POINT('',(19.575512592247,-5.147954483451,
    58.387702472075));
#509 = CARTESIAN_POINT('',(19.031876606928,-4.847161915246,
    59.434045460268));
#510 = CARTESIAN_POINT('',(19.363763520937,-4.537913602909,
    60.763146483269));
#511 = CARTESIAN_POINT('',(20.714613932159,-4.240199630871,
    61.470122504998));
#512 = CARTESIAN_POINT('',(21.995553726289,-3.930852123519,
    60.96201081694));
#513 = CARTESIAN_POINT('',(22.533967333511,-3.630174039024,
    59.921369187735));
#514 = CARTESIAN_POINT('',(22.316247660212,-3.324771675427,
    58.943818728586));
#515 = CARTESIAN_POINT('',(21.686329541946,-3.021212089794,
    58.413914364703));
#516 = CARTESIAN_POINT('',(21.015948675516,-2.717158646689,
    58.356794317414));
#517 = CARTESIAN_POINT('',(20.345557945613,-2.413137433765,
    58.299751245805));
#518 = CARTESIAN_POINT('',(19.635091274517,-2.109526134111,
    58.716675653906));
#519 = CARTESIAN_POINT('',(19.255637155187,-1.804218099137,
    59.640036693309));
#520 = CARTESIAN_POINT('',(19.611060159049,-1.503384641259,
    60.764253800107));
#521 = CARTESIAN_POINT('',(20.785632849129,-1.194206907328,
    61.469507698978));
#522 = CARTESIAN_POINT('',(22.240627482556,-0.896393397341,
    61.014054688257));
#523 = CARTESIAN_POINT('',(22.787226731392,-0.587162749713,
    59.749198041659));
#524 = CARTESIAN_POINT('',(22.431972472479,-0.286369491034,
    58.632446382906));
#525 = CARTESIAN_POINT('',(21.586892736884,1.893747749606E-02,
    58.095323075188));
#526 = CARTESIAN_POINT('',(20.766702506203,0.32256307958,58.165934004139
    ));
#527 = CARTESIAN_POINT('',(20.252322654199,0.626578892468,
    58.599637290122));
#528 = CARTESIAN_POINT('',(19.737906102296,0.930638868414,
    59.033276720338));
#529 = CARTESIAN_POINT('',(19.530424245528,1.234177984935,
    59.830574555118));
#530 = CARTESIAN_POINT('',(19.91488440802,1.539600064551,60.751638286845
    ));
#531 = CARTESIAN_POINT('',(20.961352815086,1.840277458543,
    61.295465265366));
#532 = CARTESIAN_POINT('',(22.290326583742,2.149642630642,60.96338456302
    ));
#533 = CARTESIAN_POINT('',(22.997410997284,2.447257064689,59.61269921546
    ));
#534 = CARTESIAN_POINT('',(22.489222452887,2.756675150487,58.33164238124
    ));
#535 = CARTESIAN_POINT('',(21.448625350491,3.057312345278,
    57.793296581321));
#536 = CARTESIAN_POINT('',(20.471054582901,3.362733358451,
    58.010985328074));
#537 = CARTESIAN_POINT('',(19.941156934223,3.666286777402,
    58.640913672533));
#538 = CARTESIAN_POINT('',(19.884035653366,3.970341353311,
    59.311292660437));
#539 = CARTESIAN_POINT('',(19.826992581758,4.274362566234,59.98168339034
    ));
#540 = CARTESIAN_POINT('',(20.243916989858,4.577973865894,60.69215006143
    ));
#541 = CARTESIAN_POINT('',(21.167278029256,4.883281900856,
    61.071604180777));
#542 = CARTESIAN_POINT('',(22.291495136076,5.18411535875,60.716181176888
    ));
#543 = CARTESIAN_POINT('',(22.996749034902,5.493293092666,
    59.541608486828));
#544 = CARTESIAN_POINT('',(22.541296024246,5.791106602662,
    58.086613853407));
#545 = CARTESIAN_POINT('',(21.276439377576,6.100337250287,
    57.540014604543));
#546 = CARTESIAN_POINT('',(20.159687718879,6.401130508965,
    57.895268863485));
#547 = CARTESIAN_POINT('',(19.622564411131,6.706437477497,
    58.740348599065));
#548 = CARTESIAN_POINT('',(19.693175340093,7.010063079579,
    59.560538829749));
#549 = CARTESIAN_POINT('',(20.126878626073,7.314078892469,
    60.074918681754));
#550 = CARTESIAN_POINT('',(20.560518512349,7.618137735607,
    60.589333033073));
#551 = CARTESIAN_POINT('',(21.357813864475,7.921683018814,
    60.796826869214));
#552 = CARTESIAN_POINT('',(22.278885104351,8.227086448854,
    60.412330478131));
#553 = CARTESIAN_POINT('',(22.822695621063,8.52780473254,59.365941503248
    ));
#554 = CARTESIAN_POINT('',(22.490643332919,8.837099326219,
    58.036830629154));
#555 = CARTESIAN_POINT('',(21.139917912337,9.134813298217,
    57.329939577783));
#556 = CARTESIAN_POINT('',(19.858908124708,9.444114524299,
    57.837901110776));
#557 = CARTESIAN_POINT('',(19.320515956782,9.744866893259,
    58.878721950244));
#558 = CARTESIAN_POINT('',(19.538243108665,10.050192511381,
    59.856107403629));
#559 = CARTESIAN_POINT('',(20.168144875537,10.353811946771,
    60.386133295686));
#560 = CARTESIAN_POINT('',(20.838539013005,10.657828892471,
    60.443181476187));
#561 = CARTESIAN_POINT('',(21.50891582691,10.961888868402,
    60.500299526676));
#562 = CARTESIAN_POINT('',(22.219402360381,11.265427984961,
    60.083236649006));
#563 = CARTESIAN_POINT('',(22.598838383053,11.570850064509,
    59.160091850365));
#564 = CARTESIAN_POINT('',(22.243417220334,11.871527458595,
    58.035583199149));
#565 = CARTESIAN_POINT('',(21.068874340049,12.180892630588,
    57.330673351849));
#566 = CARTESIAN_POINT('',(19.613811387831,12.478507064737,
    57.785767936643));
#567 = CARTESIAN_POINT('',(19.067310979091,12.78792515045,59.0509554771)
  );
#568 = CARTESIAN_POINT('',(19.422456281,13.088562345303,60.167436710423)
  );
#569 = CARTESIAN_POINT('',(20.267632388816,13.393983358436,
    60.704754440246));
#570 = CARTESIAN_POINT('',(21.087753213587,13.697536777408,
    60.634022056953));
#571 = CARTESIAN_POINT('',(21.602173586933,14.00159135331,
    60.200383373671));
#572 = CARTESIAN_POINT('',(22.116549161435,14.305613699041,
    59.766681541333));
#573 = CARTESIAN_POINT('',(22.324102906772,14.609218832012,
    58.969493181523));
#574 = CARTESIAN_POINT('',(21.939538863893,14.914545516557,
    58.04827125631));
#575 = CARTESIAN_POINT('',(20.893195875662,15.215338084744,
    57.50463527095));
#576 = CARTESIAN_POINT('',(19.564094852704,15.524586397101,
    57.836522185024));
#577 = CARTESIAN_POINT('',(18.857118830943,15.822300369122,
    59.187372596162));
#578 = CARTESIAN_POINT('',(19.365230519012,16.131647876484,
    60.468312390374));
#579 = CARTESIAN_POINT('',(20.405872148224,16.432325960977,
    61.006725997537));
#580 = CARTESIAN_POINT('',(21.383422607358,16.73772832457,
    60.789006324266));
#581 = CARTESIAN_POINT('',(21.913326971255,17.041287910209,
    60.159088205994));
#582 = CARTESIAN_POINT('',(21.970447018535,17.34534135331,
    59.488707339563));
#583 = CARTESIAN_POINT('',(22.227241335952,-9.432334582492,
    59.477565270233));
#584 = CARTESIAN_POINT('',(22.277187908664,-9.128430827184,
    58.642203447947));
#585 = CARTESIAN_POINT('',(21.736354684379,-8.824051024728,
    57.771317443825));
#586 = CARTESIAN_POINT('',(20.576404092038,-8.521443093773,
    57.330211594957));
#587 = CARTESIAN_POINT('',(19.189232216204,-8.214299443308,
    57.803356370599));
#588 = CARTESIAN_POINT('',(18.349736879831,-7.915480500416,
    59.292871206996));
#589 = CARTESIAN_POINT('',(18.96082091308,-7.605468452111,61.07976378809
    ));
#590 = CARTESIAN_POINT('',(20.5519055627,-7.306603241845,61.726884093443
    ));
#591 = CARTESIAN_POINT('',(21.928566813406,-6.999494741287,
    61.24555128648));
#592 = CARTESIAN_POINT('',(22.570524406348,-6.696887742818,
    60.179789033548));
#593 = CARTESIAN_POINT('',(22.456714641846,-6.392495434419,
    59.161596529352));
#594 = CARTESIAN_POINT('',(21.901338682232,-6.088596400864,
    58.535589782074));
#595 = CARTESIAN_POINT('',(21.345931196076,-5.784656955524,
    57.909637569748));
#596 = CARTESIAN_POINT('',(20.347756423827,-5.480339765761,
    57.676157895216));
#597 = CARTESIAN_POINT('',(19.21554973574,-5.177641358238,
    58.184598222128));
#598 = CARTESIAN_POINT('',(18.569342212611,-4.870606943659,
    59.499871310605));
#599 = CARTESIAN_POINT('',(19.028866601975,-4.571677166248,
    61.146902107741));
#600 = CARTESIAN_POINT('',(20.724584805972,-4.261759523784,
    61.978177876562));
#601 = CARTESIAN_POINT('',(22.307168992413,-3.962827374084,
    61.310798114344));
#602 = CARTESIAN_POINT('',(22.940299878373,-3.65575765496,
    59.996937764584));
#603 = CARTESIAN_POINT('',(22.640607364963,-3.353132968487,
    58.789424916284));
#604 = CARTESIAN_POINT('',(21.840166626182,-3.048746508817,
    58.149920676555));
#605 = CARTESIAN_POINT('',(21.004801848221,-2.744846400864,
    58.099978834087));
#606 = CARTESIAN_POINT('',(20.169456060853,-2.440905881127,
    58.050097234577));
#607 = CARTESIAN_POINT('',(19.29853577775,-2.136594540095,58.59081258198
    ));
#608 = CARTESIAN_POINT('',(18.857493788979,-1.833878444552,
    59.75094257625));
#609 = CARTESIAN_POINT('',(19.330534435104,-1.526882811443,
    61.137880745887));
#610 = CARTESIAN_POINT('',(20.820197719244,-1.227886094543,
    61.977640294421));
#611 = CARTESIAN_POINT('',(22.606905864703,-0.918062857984,
    61.366294507708));
#612 = CARTESIAN_POINT('',(23.254225029756,-0.619019873711,
    59.775438549185));
#613 = CARTESIAN_POINT('',(22.772707178817,-0.312059390508,
    58.398600605891));
#614 = CARTESIAN_POINT('',(21.707092381093,-9.344227450878E-03,
    57.756763512439));
#615 = CARTESIAN_POINT('',(20.688800406492,0.294979619522,
    57.870501334969));
#616 = CARTESIAN_POINT('',(20.062849448976,0.598915417508,
    58.425914255892));
#617 = CARTESIAN_POINT('',(19.43684187943,0.902819172815,58.981286704912
    ));
#618 = CARTESIAN_POINT('',(19.203459320661,1.207198975273,
    59.979522944452));
#619 = CARTESIAN_POINT('',(19.711759313388,1.509806906225,
    61.111640811091));
#620 = CARTESIAN_POINT('',(21.027201832801,1.816950556696,
    61.757955571824));
#621 = CARTESIAN_POINT('',(22.674060719426,2.115769499578,
    61.298322375462));
#622 = CARTESIAN_POINT('',(23.505482916972,2.425781547896,59.60269685032
    ));
#623 = CARTESIAN_POINT('',(22.837999327953,2.724646758149,
    58.020046948985));
#624 = CARTESIAN_POINT('',(21.524199130367,3.031755258717,
    57.386954135018));
#625 = CARTESIAN_POINT('',(20.316658846981,3.33436225718,57.686629283998
    ));
#626 = CARTESIAN_POINT('',(19.677163678958,3.638754565581,
    58.487075764513));
#627 = CARTESIAN_POINT('',(19.62722017004,3.942653599136,59.322439487732
    ));
#628 = CARTESIAN_POINT('',(19.577338570531,4.246594118873,60.1577852751)
  );
#629 = CARTESIAN_POINT('',(20.11805391793,4.550905459908,61.028705558199
    ));
#630 = CARTESIAN_POINT('',(21.278183912203,4.853621555436,
    61.469747546985));
#631 = CARTESIAN_POINT('',(22.665122081846,5.160617188581,
    60.996706900831));
#632 = CARTESIAN_POINT('',(23.504881630355,5.459613905422,59.50704361672
    ));
#633 = CARTESIAN_POINT('',(22.893535843691,5.769437142051,
    57.720335471251));
#634 = CARTESIAN_POINT('',(21.302679885104,6.068480126265,
    57.073016306188));
#635 = CARTESIAN_POINT('',(19.925841941866,6.375440609505,57.55453415714
    ));
#636 = CARTESIAN_POINT('',(19.284004848383,6.678155772544,
    58.620148954859));
#637 = CARTESIAN_POINT('',(19.397742670923,6.982479619524,
    59.638440929458));
#638 = CARTESIAN_POINT('',(19.953155591843,7.286415417507,
    60.264391886977));
#639 = CARTESIAN_POINT('',(20.508527608324,7.590320247213,
    60.890397532346));
#640 = CARTESIAN_POINT('',(21.5067662025,7.894694200943,61.1237905658));
#641 = CARTESIAN_POINT('',(22.638876948128,8.197319819895,
    60.615458895036));
#642 = CARTESIAN_POINT('',(23.285207321883,8.504424688939,
    59.300085830584));
#643 = CARTESIAN_POINT('',(22.825547176352,8.803310571246,
    57.653107059905));
#644 = CARTESIAN_POINT('',(21.129959658105,9.113228213732,
    56.821853936906));
#645 = CARTESIAN_POINT('',(19.547265135837,9.412204258494,
    57.489139028725));
#646 = CARTESIAN_POINT('',(18.914216299209,9.719203523189,
    58.803134860457));
#647 = CARTESIAN_POINT('',(19.213855023178,10.021900998205,
    60.010513106385));
#648 = CARTESIAN_POINT('',(20.014326710968,10.326230693927,
    60.650120409532));
#649 = CARTESIAN_POINT('',(20.849676065721,10.630165417505,
    60.700000000004));
#650 = CARTESIAN_POINT('',(21.685037888004,10.934069172819,60.7499465727
    ));
#651 = CARTESIAN_POINT('',(22.55592389212,11.238448975275,
    60.209113348449));
#652 = CARTESIAN_POINT('',(22.997029741024,11.541056906204,
    59.049162756054));
#653 = CARTESIAN_POINT('',(22.523884965306,11.848200556741,
    57.661990880284));
#654 = CARTESIAN_POINT('',(21.034370128997,12.147019499519,
    56.822495543859));
#655 = CARTESIAN_POINT('',(19.247477547853,12.457031547948,
    57.433579577126));
#656 = CARTESIAN_POINT('',(18.600357242494,12.755896758119,
    59.024664226762));
#657 = CARTESIAN_POINT('',(19.081690049495,13.063005258725,
    60.401325477445));
#658 = CARTESIAN_POINT('',(20.147452302388,13.365612257184,
    61.043283070395));
#659 = CARTESIAN_POINT('',(21.165644806609,13.670004565576,
    60.929473305897));
#660 = CARTESIAN_POINT('',(21.791651553875,13.973903599139,
    60.374097346278));
#661 = CARTESIAN_POINT('',(22.41760376621,14.277843044471,
    59.818689860127));
#662 = CARTESIAN_POINT('',(22.651083440725,14.58216023425,
    58.820515087871));
#663 = CARTESIAN_POINT('',(22.142643113843,14.884858641744,
    57.688308399793));
#664 = CARTESIAN_POINT('',(20.827370025321,15.19189305637,
    57.042100876647));
#665 = CARTESIAN_POINT('',(19.180339228241,15.490822833716,
    57.501625266047));
#666 = CARTESIAN_POINT('',(18.349063459365,15.800740476249,
    59.197343469985));
#667 = CARTESIAN_POINT('',(19.016443221621,16.099672625894,
    60.779927656493));
#668 = CARTESIAN_POINT('',(20.330303571366,16.406742345049,
    61.413058542399));
#669 = CARTESIAN_POINT('',(21.537816419664,16.709367031512,
    61.113366029019));
#670 = CARTESIAN_POINT('',(22.177320659401,17.013753491181,
    60.312925290228));
#671 = CARTESIAN_POINT('',(22.227262501863,17.317653599138,
    59.477560512268));
#672 = CARTESIAN_POINT('',(22.227241335952,-9.625,59.4));
#673 = CARTESIAN_POINT('',(22.227241335952,-9.321098599217,
    58.56464402615));
#674 = CARTESIAN_POINT('',(21.637080435341,-9.016712578205,
    57.72898568245));
#675 = CARTESIAN_POINT('',(20.453343885482,-8.714104997541,
    57.358600312297));
#676 = CARTESIAN_POINT('',(19.102870015267,-8.406979189142,
    57.911717181927));
#677 = CARTESIAN_POINT('',(18.349389245609,-8.108136677115,
    59.447788274837));
#678 = CARTESIAN_POINT('',(19.070639963731,-7.798125139704,
    61.189031983768));
#679 = CARTESIAN_POINT('',(20.689599322173,-7.499282629099,
    61.742401158171));
#680 = CARTESIAN_POINT('',(22.035639365407,-7.192156819618,
    61.178579556194));
#681 = CARTESIAN_POINT('',(22.610761400906,-6.889549238928,
    60.079647372698));
#682 = CARTESIAN_POINT('',(22.437164826951,-6.585163218299,
    59.071441528339));
#683 = CARTESIAN_POINT('',(21.846476786932,-6.281261817371,
    58.480757820813));
#684 = CARTESIAN_POINT('',(21.255801073685,-5.977324729578,
    57.890082104794));
#685 = CARTESIAN_POINT('',(20.247576792127,-5.673001315958,
    57.716471377727));
#686 = CARTESIAN_POINT('',(19.1486724014,-5.370303266383,58.291623263057
    ));
#687 = CARTESIAN_POINT('',(18.584824760983,-5.063286684628,
    59.637634094014));
#688 = CARTESIAN_POINT('',(19.138231238832,-4.764333347456,
    61.256623286698));
#689 = CARTESIAN_POINT('',(20.879450870515,-4.454416207907,
    61.977840378265));
#690 = CARTESIAN_POINT('',(22.415538163989,-4.155506763522,
    61.224373384904));
#691 = CARTESIAN_POINT('',(22.968639087514,-3.848419732202,
    59.873886226804));
#692 = CARTESIAN_POINT('',(22.598254415396,-3.545794465,58.690156170687)
  );
#693 = CARTESIAN_POINT('',(21.762592246313,-3.241414292606,
    58.099996631329));
#694 = CARTESIAN_POINT('',(20.927236578391,-2.937511817371,
    58.100000000649));
#695 = CARTESIAN_POINT('',(20.091895277579,-2.633573655271,
    58.09999969282));
#696 = CARTESIAN_POINT('',(19.25621006412,-2.329256089887,58.69016226194
    ));
#697 = CARTESIAN_POINT('',(18.885866150104,-2.026540353795,
    59.873893771243));
#698 = CARTESIAN_POINT('',(19.438928008478,-1.719562550217,
    61.22437868812));
#699 = CARTESIAN_POINT('',(20.975062770276,-1.420542279236,
    61.977840394748));
#700 = CARTESIAN_POINT('',(22.716241606533,-1.110719537584,
    61.256616558142));
#701 = CARTESIAN_POINT('',(23.269669272621,-0.811699268021,
    59.637625642626));
#702 = CARTESIAN_POINT('',(22.705800969133,-0.504721463367,
    58.291616699805));
#703 = CARTESIAN_POINT('',(21.606901656733,-0.202005727244,
    57.716468905629));
#704 = CARTESIAN_POINT('',(20.598675637636,0.102311837755,
    57.890083305065));
#705 = CARTESIAN_POINT('',(20.00800252041,0.40625,58.480761184457));
#706 = CARTESIAN_POINT('',(19.417316646595,0.710151400783,
    59.071447058272));
#707 = CARTESIAN_POINT('',(19.243723739825,1.014537421796,60.07965351467
    ));
#708 = CARTESIAN_POINT('',(19.818849874477,1.317145002458,
    61.178583663103));
#709 = CARTESIAN_POINT('',(21.164891795231,1.62427081086,61.742400205238
    ));
#710 = CARTESIAN_POINT('',(22.783849443128,1.923113322883,
    61.189025280785));
#711 = CARTESIAN_POINT('',(23.50509340369,2.233124860298,59.44777877277)
  );
#712 = CARTESIAN_POINT('',(22.751607358594,2.5319673709,57.91171053624)
  );
#713 = CARTESIAN_POINT('',(21.401131238135,2.839093180383,
    57.358598572052));
#714 = CARTESIAN_POINT('',(20.21739614781,3.141700761071,57.728988279758
    ));
#715 = CARTESIAN_POINT('',(19.627238273067,3.446086781702,58.56464878377
    ));
#716 = CARTESIAN_POINT('',(19.627241336601,3.749988182629,
    59.400004757561));
#717 = CARTESIAN_POINT('',(19.627241028772,4.053926344729,
    60.235346058373));
#718 = CARTESIAN_POINT('',(20.217403597893,4.358243910115,
    61.071031271832));
#719 = CARTESIAN_POINT('',(21.401135107194,4.660959646196,
    61.441375185849));
#720 = CARTESIAN_POINT('',(22.751620024075,4.967937449803,
    60.888313327473));
#721 = CARTESIAN_POINT('',(23.505081730694,5.266957720734,
    59.352178565673));
#722 = CARTESIAN_POINT('',(22.783857894107,5.576780462448,
    57.610999729427));
#723 = CARTESIAN_POINT('',(21.164866978564,5.875800731955,
    57.057572063324));
#724 = CARTESIAN_POINT('',(19.818858035767,6.182778536646,
    57.621440366822));
#725 = CARTESIAN_POINT('',(19.243710241577,6.48549427275,58.720339679218
    ));
#726 = CARTESIAN_POINT('',(19.417324641018,6.789811837757,
    59.728565698316));
#727 = CARTESIAN_POINT('',(20.00800252041,7.09375,60.319238815543));
#728 = CARTESIAN_POINT('',(20.598687961718,7.39765247509,60.909924689415
    ));
#729 = CARTESIAN_POINT('',(21.60689677256,7.70203264787,61.083517595866)
  );
#730 = CARTESIAN_POINT('',(22.705819800572,8.004657915035,
    60.508391462182));
#731 = CARTESIAN_POINT('',(23.269651954424,8.311744945294,
    59.162349539305));
#732 = CARTESIAN_POINT('',(22.716250083069,8.610654391072,
    57.543391895072));
#733 = CARTESIAN_POINT('',(20.975041578739,8.920571530653,56.82214792934
    ));
#734 = CARTESIAN_POINT('',(19.438928725052,9.219524866374,
    57.575633980514));
#735 = CARTESIAN_POINT('',(18.885860734478,9.526541449236,
    58.926110094975));
#736 = CARTESIAN_POINT('',(19.256214020259,9.829239498816,
    60.109845190271));
#737 = CARTESIAN_POINT('',(20.091899729411,10.133562912068,
    60.700003061574));
#738 = CARTESIAN_POINT('',(20.927241335953,10.437499999997,60.7));
#739 = CARTESIAN_POINT('',(21.762597309799,10.741401400788,60.7));
#740 = CARTESIAN_POINT('',(22.598255653505,11.045787421796,
    60.10983909939));
#741 = CARTESIAN_POINT('',(22.968641023657,11.34839500244,
    58.926102549524));
#742 = CARTESIAN_POINT('',(22.415524154015,11.655520810903,
    57.575628679327));
#743 = CARTESIAN_POINT('',(20.879453061127,11.954363322824,
    56.822147909642));
#744 = CARTESIAN_POINT('',(19.138209352175,12.264374860353,
    57.543398627784));
#745 = CARTESIAN_POINT('',(18.584840177787,12.563217370865,
    59.162357986228));
#746 = CARTESIAN_POINT('',(19.148661779755,12.870343180395,
    60.508398029445));
#747 = CARTESIAN_POINT('',(20.247593963254,13.172950761073,
    61.08352006496));
#748 = CARTESIAN_POINT('',(21.255799807614,13.477336781697,
    60.909923490996));
#749 = CARTESIAN_POINT('',(21.846483515139,13.781238182631,
    60.31923545098));
#750 = CARTESIAN_POINT('',(22.437159231159,14.085175270418,
    59.728559737732));
#751 = CARTESIAN_POINT('',(22.610769958224,14.389498684049,
    58.720335456177));
#752 = CARTESIAN_POINT('',(22.035618072897,14.692196733605,
    57.621431065445));
#753 = CARTESIAN_POINT('',(20.689607241933,14.999213315391,
    57.057583425031));
#754 = CARTESIAN_POINT('',(19.070618049264,15.298166652519,
    57.610989902884));
#755 = CARTESIAN_POINT('',(18.349400957675,15.608083792117,
    59.352209534555));
#756 = CARTESIAN_POINT('',(19.102867951059,15.906993236463,
    60.888296828046));
#757 = CARTESIAN_POINT('',(20.453355109141,16.214080267804,
    61.441397751556));
#758 = CARTESIAN_POINT('',(21.637085165268,16.516705535,61.071013079447)
  );
#759 = CARTESIAN_POINT('',(22.227244704623,16.821085707393,
    60.23535091036));
#760 = CARTESIAN_POINT('',(22.227241335303,17.12498818263,
    59.399995242439));
#761 = ADVANCED_FACE('',(#762),#765,.F.);
#762 = FACE_BOUND('',#763,.F.);
#763 = EDGE_LOOP('',(#764));
#764 = ORIENTED_EDGE('',*,*,#128,.T.);
#765 = PLANE('',#766);
#766 = AXIS2_PLACEMENT_3D('',#767,#768,#769);
#767 = CARTESIAN_POINT('',(22.102261138857,-9.625,59.4));
#768 = DIRECTION('',(2.9E-15,0.373461375142,-0.92764573048));
#769 = DIRECTION('',(0.,0.92764573048,0.373461375142));
#770 = ADVANCED_FACE('',(#771),#774,.T.);
#771 = FACE_BOUND('',#772,.T.);
#772 = EDGE_LOOP('',(#773));
#773 = ORIENTED_EDGE('',*,*,#117,.T.);
#774 = PLANE('',#775);
#775 = AXIS2_PLACEMENT_3D('',#776,#777,#778);
#776 = CARTESIAN_POINT('',(22.102261138856,17.124999998128,
    59.399999999246));
#777 = DIRECTION('',(1.5832E-13,0.373461375141,-0.92764573048));
#778 = DIRECTION('',(0.,0.92764573048,0.373461375141));
#779 = ( GEOMETRIC_REPRESENTATION_CONTEXT(3) 
GLOBAL_UNCERTAINTY_ASSIGNED_CONTEXT((#783)) GLOBAL_UNIT_ASSIGNED_CONTEXT
((#780,#781,#782)) REPRESENTATION_CONTEXT('Context #1',
  '3D Context with UNIT and UNCERTAINTY') );
#780 = ( LENGTH_UNIT() NAMED_UNIT(*) SI_UNIT(.MILLI.,.METRE.) );
#781 = ( NAMED_UNIT(*) PLANE_ANGLE_UNIT() SI_UNIT($,.RADIAN.) );
#782 = ( NAMED_UNIT(*) SI_UNIT($,.STERADIAN.) SOLID_ANGLE_UNIT() );
#783 = UNCERTAINTY_MEASURE_WITH_UNIT(LENGTH_MEASURE(1.E-05),#780,
  'distance_accuracy_value','confusion accuracy');
#784 = PRODUCT_RELATED_PRODUCT_CATEGORY('part',$,(#7));
ENDSEC;
END-ISO-10303-21;
