ISO-10303-21;
HEADER;
FILE_DESCRIPTION(('FreeCAD Model'),'2;1');
FILE_NAME('Open CASCADE Shape Model','2026-09-30T05:23:13',('FreeCAD'),(
    'FreeCAD'),'Open CASCADE STEP processor 7.8','FreeCAD','Unknown');
FILE_SCHEMA(('AUTOMOTIVE_DESIGN { 1 0 10303 214 1 1 1 1 }'));
ENDSEC;
DATA;
#1 = APPLICATION_PROTOCOL_DEFINITION('international standard',
  'automotive_design',2000,#2);
#2 = APPLICATION_CONTEXT(
  'core data for automotive mechanical design processes');
#3 = SHAPE_DEFINITION_REPRESENTATION(#4,#10);
#4 = PRODUCT_DEFINITION_SHAPE('','',#5);
#5 = PRODUCT_DEFINITION('design','',#6,#9);
#6 = PRODUCT_DEFINITION_FORMATION('','',#7);
#7 = PRODUCT('Open CASCADE STEP translator 7.8 10',
  'Open CASCADE STEP translator 7.8 10','',(#8));
#8 = PRODUCT_CONTEXT('',#2,'mechanical');
#9 = PRODUCT_DEFINITION_CONTEXT('part definition',#2,'design');
#10 = ADVANCED_BREP_SHAPE_REPRESENTATION('',(#11,#15),#1495);
#11 = AXIS2_PLACEMENT_3D('',#12,#13,#14);
#12 = CARTESIAN_POINT('',(0.,0.,0.));
#13 = DIRECTION('',(0.,0.,1.));
#14 = DIRECTION('',(1.,0.,-0.));
#15 = MANIFOLD_SOLID_BREP('',#16);
#16 = CLOSED_SHELL('',(#17,#57,#104,#138,#186,#226,#257,#288,#321,#416,
    #438,#469,#516,#540,#564,#581,#605,#622,#645,#670,#690,#715,#724,
    #755,#786,#881,#912,#959,#990,#1021,#1052,#1074,#1098,#1122,#1157,
    #1181,#1205,#1222,#1245,#1270,#1290,#1315,#1324,#1347,#1400,#1415,
    #1447,#1462,#1481));
#17 = ADVANCED_FACE('',(#18),#52,.T.);
#18 = FACE_BOUND('',#19,.T.);
#19 = EDGE_LOOP('',(#20,#30,#38,#46));
#20 = ORIENTED_EDGE('',*,*,#21,.F.);
#21 = EDGE_CURVE('',#22,#24,#26,.T.);
#22 = VERTEX_POINT('',#23);
#23 = CARTESIAN_POINT('',(20.927241335952,-12.75,59.4));
#24 = VERTEX_POINT('',#25);
#25 = CARTESIAN_POINT('',(20.927241335952,-10.1,59.4));
#26 = LINE('',#27,#28);
#27 = CARTESIAN_POINT('',(20.927241335952,-12.75,59.4));
#28 = VECTOR('',#29,1.);
#29 = DIRECTION('',(0.,1.,0.));
#30 = ORIENTED_EDGE('',*,*,#31,.F.);
#31 = EDGE_CURVE('',#32,#22,#34,.T.);
#32 = VERTEX_POINT('',#33);
#33 = CARTESIAN_POINT('',(20.927241335952,-12.75,58.));
#34 = LINE('',#35,#36);
#35 = CARTESIAN_POINT('',(20.927241335952,-12.75,58.));
#36 = VECTOR('',#37,1.);
#37 = DIRECTION('',(0.,0.,1.));
#38 = ORIENTED_EDGE('',*,*,#39,.T.);
#39 = EDGE_CURVE('',#32,#40,#42,.T.);
#40 = VERTEX_POINT('',#41);
#41 = CARTESIAN_POINT('',(20.927241335952,-10.1,58.));
#42 = LINE('',#43,#44);
#43 = CARTESIAN_POINT('',(20.927241335952,-12.75,58.));
#44 = VECTOR('',#45,1.);
#45 = DIRECTION('',(0.,1.,0.));
#46 = ORIENTED_EDGE('',*,*,#47,.T.);
#47 = EDGE_CURVE('',#40,#24,#48,.T.);
#48 = LINE('',#49,#50);
#49 = CARTESIAN_POINT('',(20.927241335952,-10.1,58.7));
#50 = VECTOR('',#51,1.);
#51 = DIRECTION('',(0.,0.,1.));
#52 = PLANE('',#53);
#53 = AXIS2_PLACEMENT_3D('',#54,#55,#56);
#54 = CARTESIAN_POINT('',(20.927241335952,-12.75,58.));
#55 = DIRECTION('',(1.,0.,0.));
#56 = DIRECTION('',(0.,0.,1.));
#57 = ADVANCED_FACE('',(#58),#99,.T.);
#58 = FACE_BOUND('',#59,.T.);
#59 = EDGE_LOOP('',(#60,#70,#76,#77,#85,#93));
#60 = ORIENTED_EDGE('',*,*,#61,.F.);
#61 = EDGE_CURVE('',#62,#64,#66,.T.);
#62 = VERTEX_POINT('',#63);
#63 = CARTESIAN_POINT('',(14.227241335952,-12.75,59.4));
#64 = VERTEX_POINT('',#65);
#65 = CARTESIAN_POINT('',(14.227241335952,-9.75,59.4));
#66 = LINE('',#67,#68);
#67 = CARTESIAN_POINT('',(14.227241335952,-12.75,59.4));
#68 = VECTOR('',#69,1.);
#69 = DIRECTION('',(0.,1.,0.));
#70 = ORIENTED_EDGE('',*,*,#71,.T.);
#71 = EDGE_CURVE('',#62,#22,#72,.T.);
#72 = LINE('',#73,#74);
#73 = CARTESIAN_POINT('',(13.227241335952,-12.75,59.4));
#74 = VECTOR('',#75,1.);
#75 = DIRECTION('',(1.,0.,0.));
#76 = ORIENTED_EDGE('',*,*,#21,.T.);
#77 = ORIENTED_EDGE('',*,*,#78,.T.);
#78 = EDGE_CURVE('',#24,#79,#81,.T.);
#79 = VERTEX_POINT('',#80);
#80 = CARTESIAN_POINT('',(19.477241335952,-10.1,59.4));
#81 = LINE('',#82,#83);
#82 = CARTESIAN_POINT('',(17.077241335952,-10.1,59.4));
#83 = VECTOR('',#84,1.);
#84 = DIRECTION('',(-1.,0.,0.));
#85 = ORIENTED_EDGE('',*,*,#86,.T.);
#86 = EDGE_CURVE('',#79,#87,#89,.T.);
#87 = VERTEX_POINT('',#88);
#88 = CARTESIAN_POINT('',(19.477241335952,-9.75,59.4));
#89 = LINE('',#90,#91);
#90 = CARTESIAN_POINT('',(19.477241335952,-10.1,59.4));
#91 = VECTOR('',#92,1.);
#92 = DIRECTION('',(0.,1.,0.));
#93 = ORIENTED_EDGE('',*,*,#94,.F.);
#94 = EDGE_CURVE('',#64,#87,#95,.T.);
#95 = LINE('',#96,#97);
#96 = CARTESIAN_POINT('',(13.227241335952,-9.75,59.4));
#97 = VECTOR('',#98,1.);
#98 = DIRECTION('',(1.,0.,0.));
#99 = PLANE('',#100);
#100 = AXIS2_PLACEMENT_3D('',#101,#102,#103);
#101 = CARTESIAN_POINT('',(13.227241335952,-12.75,59.4));
#102 = DIRECTION('',(0.,0.,1.));
#103 = DIRECTION('',(1.,0.,0.));
#104 = ADVANCED_FACE('',(#105),#133,.F.);
#105 = FACE_BOUND('',#106,.F.);
#106 = EDGE_LOOP('',(#107,#116,#125,#131,#132));
#107 = ORIENTED_EDGE('',*,*,#108,.T.);
#108 = EDGE_CURVE('',#79,#109,#111,.T.);
#109 = VERTEX_POINT('',#110);
#110 = CARTESIAN_POINT('',(20.927241335952,-10.1,60.85));
#111 = CIRCLE('',#112,1.45);
#112 = AXIS2_PLACEMENT_3D('',#113,#114,#115);
#113 = CARTESIAN_POINT('',(20.927241335952,-10.1,59.4));
#114 = DIRECTION('',(0.,1.,0.));
#115 = DIRECTION('',(0.,0.,1.));
#116 = ORIENTED_EDGE('',*,*,#117,.T.);
#117 = EDGE_CURVE('',#109,#118,#120,.T.);
#118 = VERTEX_POINT('',#119);
#119 = CARTESIAN_POINT('',(20.549749614189,-10.1,58.));
#120 = CIRCLE('',#121,1.45);
#121 = AXIS2_PLACEMENT_3D('',#122,#123,#124);
#122 = CARTESIAN_POINT('',(20.927241335952,-10.1,59.4));
#123 = DIRECTION('',(0.,1.,0.));
#124 = DIRECTION('',(0.,0.,1.));
#125 = ORIENTED_EDGE('',*,*,#126,.F.);
#126 = EDGE_CURVE('',#40,#118,#127,.T.);
#127 = LINE('',#128,#129);
#128 = CARTESIAN_POINT('',(17.077241335952,-10.1,58.));
#129 = VECTOR('',#130,1.);
#130 = DIRECTION('',(-1.,0.,0.));
#131 = ORIENTED_EDGE('',*,*,#47,.T.);
#132 = ORIENTED_EDGE('',*,*,#78,.T.);
#133 = PLANE('',#134);
#134 = AXIS2_PLACEMENT_3D('',#135,#136,#137);
#135 = CARTESIAN_POINT('',(20.927241335952,-10.1,59.4));
#136 = DIRECTION('',(0.,1.,0.));
#137 = DIRECTION('',(0.,0.,1.));
#138 = ADVANCED_FACE('',(#139),#181,.T.);
#139 = FACE_BOUND('',#140,.T.);
#140 = EDGE_LOOP('',(#141,#149,#150,#151,#159,#167,#175));
#141 = ORIENTED_EDGE('',*,*,#142,.T.);
#142 = EDGE_CURVE('',#143,#32,#145,.T.);
#143 = VERTEX_POINT('',#144);
#144 = CARTESIAN_POINT('',(-14.22724133595,-12.75,58.));
#145 = LINE('',#146,#147);
#146 = CARTESIAN_POINT('',(-14.22724133595,-12.75,58.));
#147 = VECTOR('',#148,1.);
#148 = DIRECTION('',(1.,0.,0.));
#149 = ORIENTED_EDGE('',*,*,#31,.T.);
#150 = ORIENTED_EDGE('',*,*,#71,.F.);
#151 = ORIENTED_EDGE('',*,*,#152,.F.);
#152 = EDGE_CURVE('',#153,#62,#155,.T.);
#153 = VERTEX_POINT('',#154);
#154 = CARTESIAN_POINT('',(5.227241335952,-12.75,59.4));
#155 = LINE('',#156,#157);
#156 = CARTESIAN_POINT('',(-14.22724133595,-12.75,59.4));
#157 = VECTOR('',#158,1.);
#158 = DIRECTION('',(1.,0.,0.));
#159 = ORIENTED_EDGE('',*,*,#160,.F.);
#160 = EDGE_CURVE('',#161,#153,#163,.T.);
#161 = VERTEX_POINT('',#162);
#162 = CARTESIAN_POINT('',(-5.227241335952,-12.75,59.4));
#163 = LINE('',#164,#165);
#164 = CARTESIAN_POINT('',(-14.22724133595,-12.75,59.4));
#165 = VECTOR('',#166,1.);
#166 = DIRECTION('',(1.,0.,0.));
#167 = ORIENTED_EDGE('',*,*,#168,.F.);
#168 = EDGE_CURVE('',#169,#161,#171,.T.);
#169 = VERTEX_POINT('',#170);
#170 = CARTESIAN_POINT('',(-14.22724133595,-12.75,59.4));
#171 = LINE('',#172,#173);
#172 = CARTESIAN_POINT('',(-14.22724133595,-12.75,59.4));
#173 = VECTOR('',#174,1.);
#174 = DIRECTION('',(1.,0.,0.));
#175 = ORIENTED_EDGE('',*,*,#176,.F.);
#176 = EDGE_CURVE('',#143,#169,#177,.T.);
#177 = LINE('',#178,#179);
#178 = CARTESIAN_POINT('',(-14.22724133595,-12.75,58.));
#179 = VECTOR('',#180,1.);
#180 = DIRECTION('',(0.,0.,1.));
#181 = PLANE('',#182);
#182 = AXIS2_PLACEMENT_3D('',#183,#184,#185);
#183 = CARTESIAN_POINT('',(3.35,-12.75,58.7));
#184 = DIRECTION('',(-0.,-1.,-0.));
#185 = DIRECTION('',(0.,0.,-1.));
#186 = ADVANCED_FACE('',(#187),#221,.F.);
#187 = FACE_BOUND('',#188,.F.);
#188 = EDGE_LOOP('',(#189,#199,#207,#215));
#189 = ORIENTED_EDGE('',*,*,#190,.F.);
#190 = EDGE_CURVE('',#191,#193,#195,.T.);
#191 = VERTEX_POINT('',#192);
#192 = CARTESIAN_POINT('',(5.227241335952,0.25,58.));
#193 = VERTEX_POINT('',#194);
#194 = CARTESIAN_POINT('',(5.227241335952,0.25,59.4));
#195 = LINE('',#196,#197);
#196 = CARTESIAN_POINT('',(5.227241335952,0.25,57.8));
#197 = VECTOR('',#198,1.);
#198 = DIRECTION('',(0.,0.,1.));
#199 = ORIENTED_EDGE('',*,*,#200,.T.);
#200 = EDGE_CURVE('',#191,#201,#203,.T.);
#201 = VERTEX_POINT('',#202);
#202 = CARTESIAN_POINT('',(1.5,0.25,58.));
#203 = LINE('',#204,#205);
#204 = CARTESIAN_POINT('',(-9.727241335952,0.25,58.));
#205 = VECTOR('',#206,1.);
#206 = DIRECTION('',(-1.,0.,0.));
#207 = ORIENTED_EDGE('',*,*,#208,.F.);
#208 = EDGE_CURVE('',#209,#201,#211,.T.);
#209 = VERTEX_POINT('',#210);
#210 = CARTESIAN_POINT('',(1.5,0.25,59.4));
#211 = LINE('',#212,#213);
#212 = CARTESIAN_POINT('',(1.5,0.25,57.8));
#213 = VECTOR('',#214,1.);
#214 = DIRECTION('',(0.,0.,-1.));
#215 = ORIENTED_EDGE('',*,*,#216,.F.);
#216 = EDGE_CURVE('',#193,#209,#217,.T.);
#217 = LINE('',#218,#219);
#218 = CARTESIAN_POINT('',(-9.727241335952,0.25,59.4));
#219 = VECTOR('',#220,1.);
#220 = DIRECTION('',(-1.,0.,0.));
#221 = PLANE('',#222);
#222 = AXIS2_PLACEMENT_3D('',#223,#224,#225);
#223 = CARTESIAN_POINT('',(-5.227241335952,0.25,57.8));
#224 = DIRECTION('',(0.,1.,0.));
#225 = DIRECTION('',(0.,0.,1.));
#226 = ADVANCED_FACE('',(#227),#252,.F.);
#227 = FACE_BOUND('',#228,.F.);
#228 = EDGE_LOOP('',(#229,#237,#238,#246));
#229 = ORIENTED_EDGE('',*,*,#230,.F.);
#230 = EDGE_CURVE('',#209,#231,#233,.T.);
#231 = VERTEX_POINT('',#232);
#232 = CARTESIAN_POINT('',(1.5,3.25,59.4));
#233 = LINE('',#234,#235);
#234 = CARTESIAN_POINT('',(1.5,-9.325,59.4));
#235 = VECTOR('',#236,1.);
#236 = DIRECTION('',(0.,1.,0.));
#237 = ORIENTED_EDGE('',*,*,#208,.T.);
#238 = ORIENTED_EDGE('',*,*,#239,.T.);
#239 = EDGE_CURVE('',#201,#240,#242,.T.);
#240 = VERTEX_POINT('',#241);
#241 = CARTESIAN_POINT('',(1.5,3.25,58.));
#242 = LINE('',#243,#244);
#243 = CARTESIAN_POINT('',(1.5,-9.325,58.));
#244 = VECTOR('',#245,1.);
#245 = DIRECTION('',(0.,1.,0.));
#246 = ORIENTED_EDGE('',*,*,#247,.F.);
#247 = EDGE_CURVE('',#231,#240,#248,.T.);
#248 = LINE('',#249,#250);
#249 = CARTESIAN_POINT('',(1.5,3.25,57.9));
#250 = VECTOR('',#251,1.);
#251 = DIRECTION('',(0.,0.,-1.));
#252 = PLANE('',#253);
#253 = AXIS2_PLACEMENT_3D('',#254,#255,#256);
#254 = CARTESIAN_POINT('',(1.5,-5.9,57.8));
#255 = DIRECTION('',(1.,0.,0.));
#256 = DIRECTION('',(0.,0.,1.));
#257 = ADVANCED_FACE('',(#258),#283,.T.);
#258 = FACE_BOUND('',#259,.T.);
#259 = EDGE_LOOP('',(#260,#268,#269,#277));
#260 = ORIENTED_EDGE('',*,*,#261,.F.);
#261 = EDGE_CURVE('',#240,#262,#264,.T.);
#262 = VERTEX_POINT('',#263);
#263 = CARTESIAN_POINT('',(14.227241335952,3.25,58.));
#264 = LINE('',#265,#266);
#265 = CARTESIAN_POINT('',(-14.22724133595,3.25,58.));
#266 = VECTOR('',#267,1.);
#267 = DIRECTION('',(1.,0.,0.));
#268 = ORIENTED_EDGE('',*,*,#247,.F.);
#269 = ORIENTED_EDGE('',*,*,#270,.T.);
#270 = EDGE_CURVE('',#231,#271,#273,.T.);
#271 = VERTEX_POINT('',#272);
#272 = CARTESIAN_POINT('',(14.227241335952,3.25,59.4));
#273 = LINE('',#274,#275);
#274 = CARTESIAN_POINT('',(-14.22724133595,3.25,59.4));
#275 = VECTOR('',#276,1.);
#276 = DIRECTION('',(1.,0.,0.));
#277 = ORIENTED_EDGE('',*,*,#278,.F.);
#278 = EDGE_CURVE('',#262,#271,#279,.T.);
#279 = LINE('',#280,#281);
#280 = CARTESIAN_POINT('',(14.227241335952,3.25,58.));
#281 = VECTOR('',#282,1.);
#282 = DIRECTION('',(0.,0.,1.));
#283 = PLANE('',#284);
#284 = AXIS2_PLACEMENT_3D('',#285,#286,#287);
#285 = CARTESIAN_POINT('',(-14.22724133595,3.25,58.));
#286 = DIRECTION('',(0.,1.,0.));
#287 = DIRECTION('',(0.,0.,1.));
#288 = ADVANCED_FACE('',(#289),#316,.T.);
#289 = FACE_BOUND('',#290,.T.);
#290 = EDGE_LOOP('',(#291,#292,#293,#294,#302,#310));
#291 = ORIENTED_EDGE('',*,*,#270,.F.);
#292 = ORIENTED_EDGE('',*,*,#230,.F.);
#293 = ORIENTED_EDGE('',*,*,#216,.F.);
#294 = ORIENTED_EDGE('',*,*,#295,.F.);
#295 = EDGE_CURVE('',#296,#193,#298,.T.);
#296 = VERTEX_POINT('',#297);
#297 = CARTESIAN_POINT('',(5.227241335952,-0.25,59.4));
#298 = LINE('',#299,#300);
#299 = CARTESIAN_POINT('',(5.227241335952,-11.25,59.4));
#300 = VECTOR('',#301,1.);
#301 = DIRECTION('',(0.,1.,0.));
#302 = ORIENTED_EDGE('',*,*,#303,.T.);
#303 = EDGE_CURVE('',#296,#304,#306,.T.);
#304 = VERTEX_POINT('',#305);
#305 = CARTESIAN_POINT('',(14.227241335952,-0.25,59.4));
#306 = LINE('',#307,#308);
#307 = CARTESIAN_POINT('',(5.227241335952,-0.25,59.4));
#308 = VECTOR('',#309,1.);
#309 = DIRECTION('',(1.,0.,0.));
#310 = ORIENTED_EDGE('',*,*,#311,.T.);
#311 = EDGE_CURVE('',#304,#271,#312,.T.);
#312 = LINE('',#313,#314);
#313 = CARTESIAN_POINT('',(14.227241335952,-12.75,59.4));
#314 = VECTOR('',#315,1.);
#315 = DIRECTION('',(0.,1.,0.));
#316 = PLANE('',#317);
#317 = AXIS2_PLACEMENT_3D('',#318,#319,#320);
#318 = CARTESIAN_POINT('',(-14.22724133595,-12.75,59.4));
#319 = DIRECTION('',(0.,0.,1.));
#320 = DIRECTION('',(1.,0.,0.));
#321 = ADVANCED_FACE('',(#322),#411,.T.);
#322 = FACE_BOUND('',#323,.T.);
#323 = EDGE_LOOP('',(#324,#332,#333,#341,#349,#357,#365,#373,#381,#389,
    #397,#405));
#324 = ORIENTED_EDGE('',*,*,#325,.F.);
#325 = EDGE_CURVE('',#153,#326,#328,.T.);
#326 = VERTEX_POINT('',#327);
#327 = CARTESIAN_POINT('',(5.227241335952,-0.25,62.1));
#328 = LINE('',#329,#330);
#329 = CARTESIAN_POINT('',(5.227241335952,-12.75,59.4));
#330 = VECTOR('',#331,1.);
#331 = DIRECTION('',(0.,0.977457799366,0.211130884663));
#332 = ORIENTED_EDGE('',*,*,#152,.T.);
#333 = ORIENTED_EDGE('',*,*,#334,.T.);
#334 = EDGE_CURVE('',#62,#335,#337,.T.);
#335 = VERTEX_POINT('',#336);
#336 = CARTESIAN_POINT('',(14.227241335952,-6.05,60.8472));
#337 = LINE('',#338,#339);
#338 = CARTESIAN_POINT('',(14.227241335952,-12.75,59.4));
#339 = VECTOR('',#340,1.);
#340 = DIRECTION('',(0.,0.977457799366,0.211130884663));
#341 = ORIENTED_EDGE('',*,*,#342,.T.);
#342 = EDGE_CURVE('',#335,#343,#345,.T.);
#343 = VERTEX_POINT('',#344);
#344 = CARTESIAN_POINT('',(9.927241335952,-6.05,60.8472));
#345 = LINE('',#346,#347);
#346 = CARTESIAN_POINT('',(6.727241335952,-6.05,60.8472));
#347 = VECTOR('',#348,1.);
#348 = DIRECTION('',(-1.,0.,0.));
#349 = ORIENTED_EDGE('',*,*,#350,.F.);
#350 = EDGE_CURVE('',#351,#343,#353,.T.);
#351 = VERTEX_POINT('',#352);
#352 = CARTESIAN_POINT('',(9.927241335952,-7.95,60.4368));
#353 = LINE('',#354,#355);
#354 = CARTESIAN_POINT('',(9.927241335952,-10.49825730708,
    59.886376421671));
#355 = VECTOR('',#356,1.);
#356 = DIRECTION('',(0.,0.977457799366,0.211130884663));
#357 = ORIENTED_EDGE('',*,*,#358,.T.);
#358 = EDGE_CURVE('',#351,#359,#361,.T.);
#359 = VERTEX_POINT('',#360);
#360 = CARTESIAN_POINT('',(6.527241335952,-7.95,60.4368));
#361 = LINE('',#362,#363);
#362 = CARTESIAN_POINT('',(5.877241335952,-7.95,60.4368));
#363 = VECTOR('',#364,1.);
#364 = DIRECTION('',(-1.,0.,0.));
#365 = ORIENTED_EDGE('',*,*,#366,.T.);
#366 = EDGE_CURVE('',#359,#367,#369,.T.);
#367 = VERTEX_POINT('',#368);
#368 = CARTESIAN_POINT('',(6.527241335952,-1.55,61.8192));
#369 = LINE('',#370,#371);
#370 = CARTESIAN_POINT('',(6.527241335952,-10.49825730708,
    59.886376421671));
#371 = VECTOR('',#372,1.);
#372 = DIRECTION('',(0.,0.977457799366,0.211130884663));
#373 = ORIENTED_EDGE('',*,*,#374,.F.);
#374 = EDGE_CURVE('',#375,#367,#377,.T.);
#375 = VERTEX_POINT('',#376);
#376 = CARTESIAN_POINT('',(9.927241335952,-1.55,61.8192));
#377 = LINE('',#378,#379);
#378 = CARTESIAN_POINT('',(5.877241335952,-1.55,61.8192));
#379 = VECTOR('',#380,1.);
#380 = DIRECTION('',(-1.,0.,0.));
#381 = ORIENTED_EDGE('',*,*,#382,.F.);
#382 = EDGE_CURVE('',#383,#375,#385,.T.);
#383 = VERTEX_POINT('',#384);
#384 = CARTESIAN_POINT('',(9.927241335952,-3.45,61.4088));
#385 = LINE('',#386,#387);
#386 = CARTESIAN_POINT('',(9.927241335952,-10.49825730708,
    59.886376421671));
#387 = VECTOR('',#388,1.);
#388 = DIRECTION('',(0.,0.977457799366,0.211130884663));
#389 = ORIENTED_EDGE('',*,*,#390,.F.);
#390 = EDGE_CURVE('',#391,#383,#393,.T.);
#391 = VERTEX_POINT('',#392);
#392 = CARTESIAN_POINT('',(14.227241335952,-3.45,61.4088));
#393 = LINE('',#394,#395);
#394 = CARTESIAN_POINT('',(6.727241335952,-3.45,61.4088));
#395 = VECTOR('',#396,1.);
#396 = DIRECTION('',(-1.,0.,0.));
#397 = ORIENTED_EDGE('',*,*,#398,.T.);
#398 = EDGE_CURVE('',#391,#399,#401,.T.);
#399 = VERTEX_POINT('',#400);
#400 = CARTESIAN_POINT('',(14.227241335952,-0.25,62.1));
#401 = LINE('',#402,#403);
#402 = CARTESIAN_POINT('',(14.227241335952,-12.75,59.4));
#403 = VECTOR('',#404,1.);
#404 = DIRECTION('',(0.,0.977457799366,0.211130884663));
#405 = ORIENTED_EDGE('',*,*,#406,.F.);
#406 = EDGE_CURVE('',#326,#399,#407,.T.);
#407 = LINE('',#408,#409);
#408 = CARTESIAN_POINT('',(5.227241335952,-0.25,62.1));
#409 = VECTOR('',#410,1.);
#410 = DIRECTION('',(1.,0.,0.));
#411 = PLANE('',#412);
#412 = AXIS2_PLACEMENT_3D('',#413,#414,#415);
#413 = CARTESIAN_POINT('',(5.227241335952,-12.75,59.4));
#414 = DIRECTION('',(0.,-0.211130884663,0.977457799366));
#415 = DIRECTION('',(0.,0.977457799366,0.211130884663));
#416 = ADVANCED_FACE('',(#417),#433,.T.);
#417 = FACE_BOUND('',#418,.T.);
#418 = EDGE_LOOP('',(#419,#420,#426,#427));
#419 = ORIENTED_EDGE('',*,*,#406,.T.);
#420 = ORIENTED_EDGE('',*,*,#421,.T.);
#421 = EDGE_CURVE('',#399,#304,#422,.T.);
#422 = LINE('',#423,#424);
#423 = CARTESIAN_POINT('',(14.227241335952,-0.25,62.1));
#424 = VECTOR('',#425,1.);
#425 = DIRECTION('',(0.,0.,-1.));
#426 = ORIENTED_EDGE('',*,*,#303,.F.);
#427 = ORIENTED_EDGE('',*,*,#428,.F.);
#428 = EDGE_CURVE('',#326,#296,#429,.T.);
#429 = LINE('',#430,#431);
#430 = CARTESIAN_POINT('',(5.227241335952,-0.25,62.1));
#431 = VECTOR('',#432,1.);
#432 = DIRECTION('',(0.,0.,-1.));
#433 = PLANE('',#434);
#434 = AXIS2_PLACEMENT_3D('',#435,#436,#437);
#435 = CARTESIAN_POINT('',(5.227241335952,-0.25,62.1));
#436 = DIRECTION('',(0.,1.,0.));
#437 = DIRECTION('',(0.,0.,-1.));
#438 = ADVANCED_FACE('',(#439),#464,.F.);
#439 = FACE_BOUND('',#440,.F.);
#440 = EDGE_LOOP('',(#441,#451,#457,#458));
#441 = ORIENTED_EDGE('',*,*,#442,.F.);
#442 = EDGE_CURVE('',#443,#445,#447,.T.);
#443 = VERTEX_POINT('',#444);
#444 = CARTESIAN_POINT('',(9.927241335952,-3.45,59.8));
#445 = VERTEX_POINT('',#446);
#446 = CARTESIAN_POINT('',(14.227241335952,-3.45,59.8));
#447 = LINE('',#448,#449);
#448 = CARTESIAN_POINT('',(8.227241335952,-3.45,59.8));
#449 = VECTOR('',#450,1.);
#450 = DIRECTION('',(1.,0.,0.));
#451 = ORIENTED_EDGE('',*,*,#452,.T.);
#452 = EDGE_CURVE('',#443,#383,#453,.T.);
#453 = LINE('',#454,#455);
#454 = CARTESIAN_POINT('',(9.927241335952,-3.45,59.4));
#455 = VECTOR('',#456,1.);
#456 = DIRECTION('',(0.,0.,1.));
#457 = ORIENTED_EDGE('',*,*,#390,.F.);
#458 = ORIENTED_EDGE('',*,*,#459,.T.);
#459 = EDGE_CURVE('',#391,#445,#460,.T.);
#460 = LINE('',#461,#462);
#461 = CARTESIAN_POINT('',(14.227241335952,-3.45,59.973534485083));
#462 = VECTOR('',#463,1.);
#463 = DIRECTION('',(0.,0.,-1.));
#464 = PLANE('',#465);
#465 = AXIS2_PLACEMENT_3D('',#466,#467,#468);
#466 = CARTESIAN_POINT('',(8.227241335952,-3.45,59.8));
#467 = DIRECTION('',(0.,1.,0.));
#468 = DIRECTION('',(0.,0.,1.));
#469 = ADVANCED_FACE('',(#470),#511,.F.);
#470 = FACE_BOUND('',#471,.F.);
#471 = EDGE_LOOP('',(#472,#480,#488,#494,#495,#496,#504,#510));
#472 = ORIENTED_EDGE('',*,*,#473,.F.);
#473 = EDGE_CURVE('',#474,#351,#476,.T.);
#474 = VERTEX_POINT('',#475);
#475 = CARTESIAN_POINT('',(9.927241335952,-7.95,59.));
#476 = LINE('',#477,#478);
#477 = CARTESIAN_POINT('',(9.927241335952,-7.95,59.));
#478 = VECTOR('',#479,1.);
#479 = DIRECTION('',(0.,0.,1.));
#480 = ORIENTED_EDGE('',*,*,#481,.T.);
#481 = EDGE_CURVE('',#474,#482,#484,.T.);
#482 = VERTEX_POINT('',#483);
#483 = CARTESIAN_POINT('',(9.927241335952,-1.55,59.));
#484 = LINE('',#485,#486);
#485 = CARTESIAN_POINT('',(9.927241335952,-7.95,59.));
#486 = VECTOR('',#487,1.);
#487 = DIRECTION('',(0.,1.,0.));
#488 = ORIENTED_EDGE('',*,*,#489,.T.);
#489 = EDGE_CURVE('',#482,#375,#490,.T.);
#490 = LINE('',#491,#492);
#491 = CARTESIAN_POINT('',(9.927241335952,-1.55,59.));
#492 = VECTOR('',#493,1.);
#493 = DIRECTION('',(0.,0.,1.));
#494 = ORIENTED_EDGE('',*,*,#382,.F.);
#495 = ORIENTED_EDGE('',*,*,#452,.F.);
#496 = ORIENTED_EDGE('',*,*,#497,.T.);
#497 = EDGE_CURVE('',#443,#498,#500,.T.);
#498 = VERTEX_POINT('',#499);
#499 = CARTESIAN_POINT('',(9.927241335952,-6.05,59.8));
#500 = LINE('',#501,#502);
#501 = CARTESIAN_POINT('',(9.927241335952,-7.,59.8));
#502 = VECTOR('',#503,1.);
#503 = DIRECTION('',(0.,-1.,0.));
#504 = ORIENTED_EDGE('',*,*,#505,.T.);
#505 = EDGE_CURVE('',#498,#343,#506,.T.);
#506 = LINE('',#507,#508);
#507 = CARTESIAN_POINT('',(9.927241335952,-6.05,59.4));
#508 = VECTOR('',#509,1.);
#509 = DIRECTION('',(0.,0.,1.));
#510 = ORIENTED_EDGE('',*,*,#350,.F.);
#511 = PLANE('',#512);
#512 = AXIS2_PLACEMENT_3D('',#513,#514,#515);
#513 = CARTESIAN_POINT('',(9.927241335952,-7.95,59.));
#514 = DIRECTION('',(1.,0.,0.));
#515 = DIRECTION('',(0.,0.,1.));
#516 = ADVANCED_FACE('',(#517),#535,.F.);
#517 = FACE_BOUND('',#518,.F.);
#518 = EDGE_LOOP('',(#519,#520,#528,#534));
#519 = ORIENTED_EDGE('',*,*,#489,.F.);
#520 = ORIENTED_EDGE('',*,*,#521,.F.);
#521 = EDGE_CURVE('',#522,#482,#524,.T.);
#522 = VERTEX_POINT('',#523);
#523 = CARTESIAN_POINT('',(6.527241335952,-1.55,59.));
#524 = LINE('',#525,#526);
#525 = CARTESIAN_POINT('',(6.527241335952,-1.55,59.));
#526 = VECTOR('',#527,1.);
#527 = DIRECTION('',(1.,0.,0.));
#528 = ORIENTED_EDGE('',*,*,#529,.T.);
#529 = EDGE_CURVE('',#522,#367,#530,.T.);
#530 = LINE('',#531,#532);
#531 = CARTESIAN_POINT('',(6.527241335952,-1.55,59.));
#532 = VECTOR('',#533,1.);
#533 = DIRECTION('',(0.,0.,1.));
#534 = ORIENTED_EDGE('',*,*,#374,.F.);
#535 = PLANE('',#536);
#536 = AXIS2_PLACEMENT_3D('',#537,#538,#539);
#537 = CARTESIAN_POINT('',(6.527241335952,-1.55,59.));
#538 = DIRECTION('',(0.,1.,0.));
#539 = DIRECTION('',(0.,0.,1.));
#540 = ADVANCED_FACE('',(#541),#559,.T.);
#541 = FACE_BOUND('',#542,.T.);
#542 = EDGE_LOOP('',(#543,#551,#557,#558));
#543 = ORIENTED_EDGE('',*,*,#544,.F.);
#544 = EDGE_CURVE('',#545,#359,#547,.T.);
#545 = VERTEX_POINT('',#546);
#546 = CARTESIAN_POINT('',(6.527241335952,-7.95,59.));
#547 = LINE('',#548,#549);
#548 = CARTESIAN_POINT('',(6.527241335952,-7.95,59.));
#549 = VECTOR('',#550,1.);
#550 = DIRECTION('',(0.,0.,1.));
#551 = ORIENTED_EDGE('',*,*,#552,.T.);
#552 = EDGE_CURVE('',#545,#522,#553,.T.);
#553 = LINE('',#554,#555);
#554 = CARTESIAN_POINT('',(6.527241335952,-7.95,59.));
#555 = VECTOR('',#556,1.);
#556 = DIRECTION('',(0.,1.,0.));
#557 = ORIENTED_EDGE('',*,*,#529,.T.);
#558 = ORIENTED_EDGE('',*,*,#366,.F.);
#559 = PLANE('',#560);
#560 = AXIS2_PLACEMENT_3D('',#561,#562,#563);
#561 = CARTESIAN_POINT('',(6.527241335952,-7.95,59.));
#562 = DIRECTION('',(1.,0.,0.));
#563 = DIRECTION('',(0.,0.,1.));
#564 = ADVANCED_FACE('',(#565),#576,.T.);
#565 = FACE_BOUND('',#566,.T.);
#566 = EDGE_LOOP('',(#567,#568,#574,#575));
#567 = ORIENTED_EDGE('',*,*,#473,.F.);
#568 = ORIENTED_EDGE('',*,*,#569,.F.);
#569 = EDGE_CURVE('',#545,#474,#570,.T.);
#570 = LINE('',#571,#572);
#571 = CARTESIAN_POINT('',(6.527241335952,-7.95,59.));
#572 = VECTOR('',#573,1.);
#573 = DIRECTION('',(1.,0.,0.));
#574 = ORIENTED_EDGE('',*,*,#544,.T.);
#575 = ORIENTED_EDGE('',*,*,#358,.F.);
#576 = PLANE('',#577);
#577 = AXIS2_PLACEMENT_3D('',#578,#579,#580);
#578 = CARTESIAN_POINT('',(6.527241335952,-7.95,59.));
#579 = DIRECTION('',(0.,1.,0.));
#580 = DIRECTION('',(0.,0.,1.));
#581 = ADVANCED_FACE('',(#582),#600,.T.);
#582 = FACE_BOUND('',#583,.T.);
#583 = EDGE_LOOP('',(#584,#592,#593,#594));
#584 = ORIENTED_EDGE('',*,*,#585,.F.);
#585 = EDGE_CURVE('',#498,#586,#588,.T.);
#586 = VERTEX_POINT('',#587);
#587 = CARTESIAN_POINT('',(14.227241335952,-6.05,59.8));
#588 = LINE('',#589,#590);
#589 = CARTESIAN_POINT('',(8.227241335952,-6.05,59.8));
#590 = VECTOR('',#591,1.);
#591 = DIRECTION('',(1.,0.,0.));
#592 = ORIENTED_EDGE('',*,*,#505,.T.);
#593 = ORIENTED_EDGE('',*,*,#342,.F.);
#594 = ORIENTED_EDGE('',*,*,#595,.T.);
#595 = EDGE_CURVE('',#335,#586,#596,.T.);
#596 = LINE('',#597,#598);
#597 = CARTESIAN_POINT('',(14.227241335952,-6.05,59.973534485083));
#598 = VECTOR('',#599,1.);
#599 = DIRECTION('',(0.,0.,-1.));
#600 = PLANE('',#601);
#601 = AXIS2_PLACEMENT_3D('',#602,#603,#604);
#602 = CARTESIAN_POINT('',(8.227241335952,-6.05,59.8));
#603 = DIRECTION('',(0.,1.,0.));
#604 = DIRECTION('',(0.,0.,1.));
#605 = ADVANCED_FACE('',(#606),#617,.T.);
#606 = FACE_BOUND('',#607,.T.);
#607 = EDGE_LOOP('',(#608,#609,#610,#611));
#608 = ORIENTED_EDGE('',*,*,#442,.F.);
#609 = ORIENTED_EDGE('',*,*,#497,.T.);
#610 = ORIENTED_EDGE('',*,*,#585,.T.);
#611 = ORIENTED_EDGE('',*,*,#612,.T.);
#612 = EDGE_CURVE('',#586,#445,#613,.T.);
#613 = LINE('',#614,#615);
#614 = CARTESIAN_POINT('',(14.227241335952,-5.973534485083,59.8));
#615 = VECTOR('',#616,1.);
#616 = DIRECTION('',(0.,1.,0.));
#617 = PLANE('',#618);
#618 = AXIS2_PLACEMENT_3D('',#619,#620,#621);
#619 = CARTESIAN_POINT('',(8.227241335952,-6.05,59.8));
#620 = DIRECTION('',(0.,0.,1.));
#621 = DIRECTION('',(1.,0.,0.));
#622 = ADVANCED_FACE('',(#623,#629),#640,.T.);
#623 = FACE_BOUND('',#624,.T.);
#624 = EDGE_LOOP('',(#625,#626,#627,#628));
#625 = ORIENTED_EDGE('',*,*,#552,.F.);
#626 = ORIENTED_EDGE('',*,*,#569,.T.);
#627 = ORIENTED_EDGE('',*,*,#481,.T.);
#628 = ORIENTED_EDGE('',*,*,#521,.F.);
#629 = FACE_BOUND('',#630,.T.);
#630 = EDGE_LOOP('',(#631));
#631 = ORIENTED_EDGE('',*,*,#632,.F.);
#632 = EDGE_CURVE('',#633,#633,#635,.T.);
#633 = VERTEX_POINT('',#634);
#634 = CARTESIAN_POINT('',(9.727241335952,-4.75,59.));
#635 = CIRCLE('',#636,1.5);
#636 = AXIS2_PLACEMENT_3D('',#637,#638,#639);
#637 = CARTESIAN_POINT('',(8.227241335952,-4.75,59.));
#638 = DIRECTION('',(0.,0.,1.));
#639 = DIRECTION('',(1.,0.,0.));
#640 = PLANE('',#641);
#641 = AXIS2_PLACEMENT_3D('',#642,#643,#644);
#642 = CARTESIAN_POINT('',(6.527241335952,-7.95,59.));
#643 = DIRECTION('',(0.,0.,1.));
#644 = DIRECTION('',(1.,0.,0.));
#645 = ADVANCED_FACE('',(#646),#665,.T.);
#646 = FACE_BOUND('',#647,.T.);
#647 = EDGE_LOOP('',(#648,#656,#663,#664));
#648 = ORIENTED_EDGE('',*,*,#649,.T.);
#649 = EDGE_CURVE('',#633,#650,#652,.T.);
#650 = VERTEX_POINT('',#651);
#651 = CARTESIAN_POINT('',(9.727241335952,-4.75,59.1));
#652 = LINE('',#653,#654);
#653 = CARTESIAN_POINT('',(9.727241335952,-4.75,58.));
#654 = VECTOR('',#655,1.);
#655 = DIRECTION('',(0.,0.,1.));
#656 = ORIENTED_EDGE('',*,*,#657,.F.);
#657 = EDGE_CURVE('',#650,#650,#658,.T.);
#658 = CIRCLE('',#659,1.5);
#659 = AXIS2_PLACEMENT_3D('',#660,#661,#662);
#660 = CARTESIAN_POINT('',(8.227241335952,-4.75,59.1));
#661 = DIRECTION('',(0.,0.,1.));
#662 = DIRECTION('',(1.,0.,0.));
#663 = ORIENTED_EDGE('',*,*,#649,.F.);
#664 = ORIENTED_EDGE('',*,*,#632,.T.);
#665 = CYLINDRICAL_SURFACE('',#666,1.5);
#666 = AXIS2_PLACEMENT_3D('',#667,#668,#669);
#667 = CARTESIAN_POINT('',(8.227241335952,-4.75,58.));
#668 = DIRECTION('',(0.,0.,1.));
#669 = DIRECTION('',(1.,0.,0.));
#670 = ADVANCED_FACE('',(#671,#674),#685,.T.);
#671 = FACE_BOUND('',#672,.T.);
#672 = EDGE_LOOP('',(#673));
#673 = ORIENTED_EDGE('',*,*,#657,.T.);
#674 = FACE_BOUND('',#675,.T.);
#675 = EDGE_LOOP('',(#676));
#676 = ORIENTED_EDGE('',*,*,#677,.F.);
#677 = EDGE_CURVE('',#678,#678,#680,.T.);
#678 = VERTEX_POINT('',#679);
#679 = CARTESIAN_POINT('',(9.227241335952,-4.75,59.1));
#680 = CIRCLE('',#681,1.);
#681 = AXIS2_PLACEMENT_3D('',#682,#683,#684);
#682 = CARTESIAN_POINT('',(8.227241335952,-4.75,59.1));
#683 = DIRECTION('',(0.,0.,1.));
#684 = DIRECTION('',(1.,0.,0.));
#685 = PLANE('',#686);
#686 = AXIS2_PLACEMENT_3D('',#687,#688,#689);
#687 = CARTESIAN_POINT('',(8.227241335952,-4.75,59.1));
#688 = DIRECTION('',(0.,0.,1.));
#689 = DIRECTION('',(1.,0.,0.));
#690 = ADVANCED_FACE('',(#691),#710,.F.);
#691 = FACE_BOUND('',#692,.F.);
#692 = EDGE_LOOP('',(#693,#694,#702,#709));
#693 = ORIENTED_EDGE('',*,*,#677,.F.);
#694 = ORIENTED_EDGE('',*,*,#695,.F.);
#695 = EDGE_CURVE('',#696,#678,#698,.T.);
#696 = VERTEX_POINT('',#697);
#697 = CARTESIAN_POINT('',(9.227241335952,-4.75,58.2));
#698 = LINE('',#699,#700);
#699 = CARTESIAN_POINT('',(9.227241335952,-4.75,58.2));
#700 = VECTOR('',#701,1.);
#701 = DIRECTION('',(0.,0.,1.));
#702 = ORIENTED_EDGE('',*,*,#703,.T.);
#703 = EDGE_CURVE('',#696,#696,#704,.T.);
#704 = CIRCLE('',#705,1.);
#705 = AXIS2_PLACEMENT_3D('',#706,#707,#708);
#706 = CARTESIAN_POINT('',(8.227241335952,-4.75,58.2));
#707 = DIRECTION('',(0.,0.,1.));
#708 = DIRECTION('',(1.,0.,0.));
#709 = ORIENTED_EDGE('',*,*,#695,.T.);
#710 = CYLINDRICAL_SURFACE('',#711,1.);
#711 = AXIS2_PLACEMENT_3D('',#712,#713,#714);
#712 = CARTESIAN_POINT('',(8.227241335952,-4.75,58.2));
#713 = DIRECTION('',(0.,0.,1.));
#714 = DIRECTION('',(1.,0.,0.));
#715 = ADVANCED_FACE('',(#716),#719,.T.);
#716 = FACE_BOUND('',#717,.F.);
#717 = EDGE_LOOP('',(#718));
#718 = ORIENTED_EDGE('',*,*,#703,.F.);
#719 = PLANE('',#720);
#720 = AXIS2_PLACEMENT_3D('',#721,#722,#723);
#721 = CARTESIAN_POINT('',(8.227241335952,-4.75,58.2));
#722 = DIRECTION('',(0.,0.,1.));
#723 = DIRECTION('',(1.,0.,0.));
#724 = ADVANCED_FACE('',(#725),#750,.T.);
#725 = FACE_BOUND('',#726,.T.);
#726 = EDGE_LOOP('',(#727,#728,#736,#744));
#727 = ORIENTED_EDGE('',*,*,#160,.T.);
#728 = ORIENTED_EDGE('',*,*,#729,.F.);
#729 = EDGE_CURVE('',#730,#153,#732,.T.);
#730 = VERTEX_POINT('',#731);
#731 = CARTESIAN_POINT('',(5.227241335952,-9.75,59.4));
#732 = LINE('',#733,#734);
#733 = CARTESIAN_POINT('',(5.227241335952,-0.25,59.4));
#734 = VECTOR('',#735,1.);
#735 = DIRECTION('',(0.,-1.,0.));
#736 = ORIENTED_EDGE('',*,*,#737,.T.);
#737 = EDGE_CURVE('',#730,#738,#740,.T.);
#738 = VERTEX_POINT('',#739);
#739 = CARTESIAN_POINT('',(-5.227241335952,-9.75,59.4));
#740 = LINE('',#741,#742);
#741 = CARTESIAN_POINT('',(-9.727241335952,-9.75,59.4));
#742 = VECTOR('',#743,1.);
#743 = DIRECTION('',(-1.,0.,0.));
#744 = ORIENTED_EDGE('',*,*,#745,.T.);
#745 = EDGE_CURVE('',#738,#161,#746,.T.);
#746 = LINE('',#747,#748);
#747 = CARTESIAN_POINT('',(-5.227241335952,-0.25,59.4));
#748 = VECTOR('',#749,1.);
#749 = DIRECTION('',(0.,-1.,0.));
#750 = PLANE('',#751);
#751 = AXIS2_PLACEMENT_3D('',#752,#753,#754);
#752 = CARTESIAN_POINT('',(-14.22724133595,-12.75,59.4));
#753 = DIRECTION('',(0.,0.,1.));
#754 = DIRECTION('',(1.,0.,0.));
#755 = ADVANCED_FACE('',(#756),#781,.T.);
#756 = FACE_BOUND('',#757,.T.);
#757 = EDGE_LOOP('',(#758,#766,#774,#780));
#758 = ORIENTED_EDGE('',*,*,#759,.F.);
#759 = EDGE_CURVE('',#760,#730,#762,.T.);
#760 = VERTEX_POINT('',#761);
#761 = CARTESIAN_POINT('',(5.227241335952,-9.75,58.));
#762 = LINE('',#763,#764);
#763 = CARTESIAN_POINT('',(5.227241335952,-9.75,57.8));
#764 = VECTOR('',#765,1.);
#765 = DIRECTION('',(0.,0.,1.));
#766 = ORIENTED_EDGE('',*,*,#767,.T.);
#767 = EDGE_CURVE('',#760,#768,#770,.T.);
#768 = VERTEX_POINT('',#769);
#769 = CARTESIAN_POINT('',(-5.227241335952,-9.75,58.));
#770 = LINE('',#771,#772);
#771 = CARTESIAN_POINT('',(-9.727241335952,-9.75,58.));
#772 = VECTOR('',#773,1.);
#773 = DIRECTION('',(-1.,0.,0.));
#774 = ORIENTED_EDGE('',*,*,#775,.T.);
#775 = EDGE_CURVE('',#768,#738,#776,.T.);
#776 = LINE('',#777,#778);
#777 = CARTESIAN_POINT('',(-5.227241335952,-9.75,57.8));
#778 = VECTOR('',#779,1.);
#779 = DIRECTION('',(0.,0.,1.));
#780 = ORIENTED_EDGE('',*,*,#737,.F.);
#781 = PLANE('',#782);
#782 = AXIS2_PLACEMENT_3D('',#783,#784,#785);
#783 = CARTESIAN_POINT('',(-5.227241335952,-9.75,57.8));
#784 = DIRECTION('',(0.,1.,0.));
#785 = DIRECTION('',(0.,0.,1.));
#786 = ADVANCED_FACE('',(#787),#876,.T.);
#787 = FACE_BOUND('',#788,.T.);
#788 = EDGE_LOOP('',(#789,#797,#798,#806,#814,#822,#830,#838,#846,#854,
    #862,#870));
#789 = ORIENTED_EDGE('',*,*,#790,.F.);
#790 = EDGE_CURVE('',#169,#791,#793,.T.);
#791 = VERTEX_POINT('',#792);
#792 = CARTESIAN_POINT('',(-14.22724133595,-6.05,60.8472));
#793 = LINE('',#794,#795);
#794 = CARTESIAN_POINT('',(-14.22724133595,-12.75,59.4));
#795 = VECTOR('',#796,1.);
#796 = DIRECTION('',(0.,0.977457799366,0.211130884663));
#797 = ORIENTED_EDGE('',*,*,#168,.T.);
#798 = ORIENTED_EDGE('',*,*,#799,.T.);
#799 = EDGE_CURVE('',#161,#800,#802,.T.);
#800 = VERTEX_POINT('',#801);
#801 = CARTESIAN_POINT('',(-5.227241335952,-0.25,62.1));
#802 = LINE('',#803,#804);
#803 = CARTESIAN_POINT('',(-5.227241335952,-12.75,59.4));
#804 = VECTOR('',#805,1.);
#805 = DIRECTION('',(0.,0.977457799366,0.211130884663));
#806 = ORIENTED_EDGE('',*,*,#807,.F.);
#807 = EDGE_CURVE('',#808,#800,#810,.T.);
#808 = VERTEX_POINT('',#809);
#809 = CARTESIAN_POINT('',(-14.22724133595,-0.25,62.1));
#810 = LINE('',#811,#812);
#811 = CARTESIAN_POINT('',(-14.22724133595,-0.25,62.1));
#812 = VECTOR('',#813,1.);
#813 = DIRECTION('',(1.,0.,0.));
#814 = ORIENTED_EDGE('',*,*,#815,.F.);
#815 = EDGE_CURVE('',#816,#808,#818,.T.);
#816 = VERTEX_POINT('',#817);
#817 = CARTESIAN_POINT('',(-14.22724133595,-3.45,61.4088));
#818 = LINE('',#819,#820);
#819 = CARTESIAN_POINT('',(-14.22724133595,-12.75,59.4));
#820 = VECTOR('',#821,1.);
#821 = DIRECTION('',(0.,0.977457799366,0.211130884663));
#822 = ORIENTED_EDGE('',*,*,#823,.F.);
#823 = EDGE_CURVE('',#824,#816,#826,.T.);
#824 = VERTEX_POINT('',#825);
#825 = CARTESIAN_POINT('',(-9.927241335952,-3.45,61.4088));
#826 = LINE('',#827,#828);
#827 = CARTESIAN_POINT('',(-15.07724133595,-3.45,61.4088));
#828 = VECTOR('',#829,1.);
#829 = DIRECTION('',(-1.,0.,0.));
#830 = ORIENTED_EDGE('',*,*,#831,.T.);
#831 = EDGE_CURVE('',#824,#832,#834,.T.);
#832 = VERTEX_POINT('',#833);
#833 = CARTESIAN_POINT('',(-9.927241335952,-1.55,61.8192));
#834 = LINE('',#835,#836);
#835 = CARTESIAN_POINT('',(-9.927241335952,-10.49825730708,
    59.886376421671));
#836 = VECTOR('',#837,1.);
#837 = DIRECTION('',(0.,0.977457799366,0.211130884663));
#838 = ORIENTED_EDGE('',*,*,#839,.F.);
#839 = EDGE_CURVE('',#840,#832,#842,.T.);
#840 = VERTEX_POINT('',#841);
#841 = CARTESIAN_POINT('',(-6.527241335952,-1.55,61.8192));
#842 = LINE('',#843,#844);
#843 = CARTESIAN_POINT('',(-12.07724133595,-1.55,61.8192));
#844 = VECTOR('',#845,1.);
#845 = DIRECTION('',(-1.,0.,0.));
#846 = ORIENTED_EDGE('',*,*,#847,.F.);
#847 = EDGE_CURVE('',#848,#840,#850,.T.);
#848 = VERTEX_POINT('',#849);
#849 = CARTESIAN_POINT('',(-6.527241335952,-7.95,60.4368));
#850 = LINE('',#851,#852);
#851 = CARTESIAN_POINT('',(-6.527241335952,-10.49825730708,
    59.886376421671));
#852 = VECTOR('',#853,1.);
#853 = DIRECTION('',(0.,0.977457799366,0.211130884663));
#854 = ORIENTED_EDGE('',*,*,#855,.T.);
#855 = EDGE_CURVE('',#848,#856,#858,.T.);
#856 = VERTEX_POINT('',#857);
#857 = CARTESIAN_POINT('',(-9.927241335952,-7.95,60.4368));
#858 = LINE('',#859,#860);
#859 = CARTESIAN_POINT('',(-12.07724133595,-7.95,60.4368));
#860 = VECTOR('',#861,1.);
#861 = DIRECTION('',(-1.,0.,0.));
#862 = ORIENTED_EDGE('',*,*,#863,.T.);
#863 = EDGE_CURVE('',#856,#864,#866,.T.);
#864 = VERTEX_POINT('',#865);
#865 = CARTESIAN_POINT('',(-9.927241335952,-6.05,60.8472));
#866 = LINE('',#867,#868);
#867 = CARTESIAN_POINT('',(-9.927241335952,-10.49825730708,
    59.886376421671));
#868 = VECTOR('',#869,1.);
#869 = DIRECTION('',(0.,0.977457799366,0.211130884663));
#870 = ORIENTED_EDGE('',*,*,#871,.T.);
#871 = EDGE_CURVE('',#864,#791,#872,.T.);
#872 = LINE('',#873,#874);
#873 = CARTESIAN_POINT('',(-15.07724133595,-6.05,60.8472));
#874 = VECTOR('',#875,1.);
#875 = DIRECTION('',(-1.,0.,0.));
#876 = PLANE('',#877);
#877 = AXIS2_PLACEMENT_3D('',#878,#879,#880);
#878 = CARTESIAN_POINT('',(-14.22724133595,-12.75,59.4));
#879 = DIRECTION('',(0.,-0.211130884663,0.977457799366));
#880 = DIRECTION('',(0.,0.977457799366,0.211130884663));
#881 = ADVANCED_FACE('',(#882),#907,.T.);
#882 = FACE_BOUND('',#883,.T.);
#883 = EDGE_LOOP('',(#884,#885,#893,#901));
#884 = ORIENTED_EDGE('',*,*,#807,.T.);
#885 = ORIENTED_EDGE('',*,*,#886,.T.);
#886 = EDGE_CURVE('',#800,#887,#889,.T.);
#887 = VERTEX_POINT('',#888);
#888 = CARTESIAN_POINT('',(-5.227241335952,-0.25,59.4));
#889 = LINE('',#890,#891);
#890 = CARTESIAN_POINT('',(-5.227241335952,-0.25,62.1));
#891 = VECTOR('',#892,1.);
#892 = DIRECTION('',(0.,0.,-1.));
#893 = ORIENTED_EDGE('',*,*,#894,.F.);
#894 = EDGE_CURVE('',#895,#887,#897,.T.);
#895 = VERTEX_POINT('',#896);
#896 = CARTESIAN_POINT('',(-14.22724133595,-0.25,59.4));
#897 = LINE('',#898,#899);
#898 = CARTESIAN_POINT('',(-14.22724133595,-0.25,59.4));
#899 = VECTOR('',#900,1.);
#900 = DIRECTION('',(1.,0.,0.));
#901 = ORIENTED_EDGE('',*,*,#902,.F.);
#902 = EDGE_CURVE('',#808,#895,#903,.T.);
#903 = LINE('',#904,#905);
#904 = CARTESIAN_POINT('',(-14.22724133595,-0.25,62.1));
#905 = VECTOR('',#906,1.);
#906 = DIRECTION('',(0.,0.,-1.));
#907 = PLANE('',#908);
#908 = AXIS2_PLACEMENT_3D('',#909,#910,#911);
#909 = CARTESIAN_POINT('',(-14.22724133595,-0.25,62.1));
#910 = DIRECTION('',(0.,1.,0.));
#911 = DIRECTION('',(0.,0.,-1.));
#912 = ADVANCED_FACE('',(#913),#954,.T.);
#913 = FACE_BOUND('',#914,.T.);
#914 = EDGE_LOOP('',(#915,#923,#924,#932,#940,#948));
#915 = ORIENTED_EDGE('',*,*,#916,.F.);
#916 = EDGE_CURVE('',#895,#917,#919,.T.);
#917 = VERTEX_POINT('',#918);
#918 = CARTESIAN_POINT('',(-14.22724133595,3.25,59.4));
#919 = LINE('',#920,#921);
#920 = CARTESIAN_POINT('',(-14.22724133595,-12.75,59.4));
#921 = VECTOR('',#922,1.);
#922 = DIRECTION('',(0.,1.,0.));
#923 = ORIENTED_EDGE('',*,*,#894,.T.);
#924 = ORIENTED_EDGE('',*,*,#925,.T.);
#925 = EDGE_CURVE('',#887,#926,#928,.T.);
#926 = VERTEX_POINT('',#927);
#927 = CARTESIAN_POINT('',(-5.227241335952,0.25,59.4));
#928 = LINE('',#929,#930);
#929 = CARTESIAN_POINT('',(-5.227241335952,-11.25,59.4));
#930 = VECTOR('',#931,1.);
#931 = DIRECTION('',(0.,1.,0.));
#932 = ORIENTED_EDGE('',*,*,#933,.F.);
#933 = EDGE_CURVE('',#934,#926,#936,.T.);
#934 = VERTEX_POINT('',#935);
#935 = CARTESIAN_POINT('',(-1.5,0.25,59.4));
#936 = LINE('',#937,#938);
#937 = CARTESIAN_POINT('',(-9.727241335952,0.25,59.4));
#938 = VECTOR('',#939,1.);
#939 = DIRECTION('',(-1.,0.,0.));
#940 = ORIENTED_EDGE('',*,*,#941,.T.);
#941 = EDGE_CURVE('',#934,#942,#944,.T.);
#942 = VERTEX_POINT('',#943);
#943 = CARTESIAN_POINT('',(-1.5,3.25,59.4));
#944 = LINE('',#945,#946);
#945 = CARTESIAN_POINT('',(-1.5,-9.325,59.4));
#946 = VECTOR('',#947,1.);
#947 = DIRECTION('',(0.,1.,0.));
#948 = ORIENTED_EDGE('',*,*,#949,.F.);
#949 = EDGE_CURVE('',#917,#942,#950,.T.);
#950 = LINE('',#951,#952);
#951 = CARTESIAN_POINT('',(-14.22724133595,3.25,59.4));
#952 = VECTOR('',#953,1.);
#953 = DIRECTION('',(1.,0.,0.));
#954 = PLANE('',#955);
#955 = AXIS2_PLACEMENT_3D('',#956,#957,#958);
#956 = CARTESIAN_POINT('',(-14.22724133595,-12.75,59.4));
#957 = DIRECTION('',(0.,0.,1.));
#958 = DIRECTION('',(1.,0.,0.));
#959 = ADVANCED_FACE('',(#960),#985,.T.);
#960 = FACE_BOUND('',#961,.T.);
#961 = EDGE_LOOP('',(#962,#972,#978,#979));
#962 = ORIENTED_EDGE('',*,*,#963,.F.);
#963 = EDGE_CURVE('',#964,#966,#968,.T.);
#964 = VERTEX_POINT('',#965);
#965 = CARTESIAN_POINT('',(-14.22724133595,3.25,58.));
#966 = VERTEX_POINT('',#967);
#967 = CARTESIAN_POINT('',(-1.5,3.25,58.));
#968 = LINE('',#969,#970);
#969 = CARTESIAN_POINT('',(-14.22724133595,3.25,58.));
#970 = VECTOR('',#971,1.);
#971 = DIRECTION('',(1.,0.,0.));
#972 = ORIENTED_EDGE('',*,*,#973,.T.);
#973 = EDGE_CURVE('',#964,#917,#974,.T.);
#974 = LINE('',#975,#976);
#975 = CARTESIAN_POINT('',(-14.22724133595,3.25,58.));
#976 = VECTOR('',#977,1.);
#977 = DIRECTION('',(0.,0.,1.));
#978 = ORIENTED_EDGE('',*,*,#949,.T.);
#979 = ORIENTED_EDGE('',*,*,#980,.T.);
#980 = EDGE_CURVE('',#942,#966,#981,.T.);
#981 = LINE('',#982,#983);
#982 = CARTESIAN_POINT('',(-1.5,3.25,57.9));
#983 = VECTOR('',#984,1.);
#984 = DIRECTION('',(0.,0.,-1.));
#985 = PLANE('',#986);
#986 = AXIS2_PLACEMENT_3D('',#987,#988,#989);
#987 = CARTESIAN_POINT('',(-14.22724133595,3.25,58.));
#988 = DIRECTION('',(0.,1.,0.));
#989 = DIRECTION('',(0.,0.,1.));
#990 = ADVANCED_FACE('',(#991),#1016,.F.);
#991 = FACE_BOUND('',#992,.F.);
#992 = EDGE_LOOP('',(#993,#1003,#1009,#1010));
#993 = ORIENTED_EDGE('',*,*,#994,.F.);
#994 = EDGE_CURVE('',#995,#997,#999,.T.);
#995 = VERTEX_POINT('',#996);
#996 = CARTESIAN_POINT('',(-14.22724133595,-3.45,59.8));
#997 = VERTEX_POINT('',#998);
#998 = CARTESIAN_POINT('',(-9.927241335952,-3.45,59.8));
#999 = LINE('',#1000,#1001);
#1000 = CARTESIAN_POINT('',(-15.92724133595,-3.45,59.8));
#1001 = VECTOR('',#1002,1.);
#1002 = DIRECTION('',(1.,0.,0.));
#1003 = ORIENTED_EDGE('',*,*,#1004,.F.);
#1004 = EDGE_CURVE('',#816,#995,#1005,.T.);
#1005 = LINE('',#1006,#1007);
#1006 = CARTESIAN_POINT('',(-14.22724133595,-3.45,59.973534485083));
#1007 = VECTOR('',#1008,1.);
#1008 = DIRECTION('',(0.,0.,-1.));
#1009 = ORIENTED_EDGE('',*,*,#823,.F.);
#1010 = ORIENTED_EDGE('',*,*,#1011,.F.);
#1011 = EDGE_CURVE('',#997,#824,#1012,.T.);
#1012 = LINE('',#1013,#1014);
#1013 = CARTESIAN_POINT('',(-9.927241335952,-3.45,59.4));
#1014 = VECTOR('',#1015,1.);
#1015 = DIRECTION('',(0.,0.,1.));
#1016 = PLANE('',#1017);
#1017 = AXIS2_PLACEMENT_3D('',#1018,#1019,#1020);
#1018 = CARTESIAN_POINT('',(-15.92724133595,-3.45,59.8));
#1019 = DIRECTION('',(0.,1.,0.));
#1020 = DIRECTION('',(0.,0.,1.));
#1021 = ADVANCED_FACE('',(#1022),#1047,.T.);
#1022 = FACE_BOUND('',#1023,.T.);
#1023 = EDGE_LOOP('',(#1024,#1025,#1033,#1041));
#1024 = ORIENTED_EDGE('',*,*,#994,.F.);
#1025 = ORIENTED_EDGE('',*,*,#1026,.F.);
#1026 = EDGE_CURVE('',#1027,#995,#1029,.T.);
#1027 = VERTEX_POINT('',#1028);
#1028 = CARTESIAN_POINT('',(-14.22724133595,-6.05,59.8));
#1029 = LINE('',#1030,#1031);
#1030 = CARTESIAN_POINT('',(-14.22724133595,-5.973534485083,59.8));
#1031 = VECTOR('',#1032,1.);
#1032 = DIRECTION('',(0.,1.,0.));
#1033 = ORIENTED_EDGE('',*,*,#1034,.T.);
#1034 = EDGE_CURVE('',#1027,#1035,#1037,.T.);
#1035 = VERTEX_POINT('',#1036);
#1036 = CARTESIAN_POINT('',(-9.927241335952,-6.05,59.8));
#1037 = LINE('',#1038,#1039);
#1038 = CARTESIAN_POINT('',(-15.92724133595,-6.05,59.8));
#1039 = VECTOR('',#1040,1.);
#1040 = DIRECTION('',(1.,0.,0.));
#1041 = ORIENTED_EDGE('',*,*,#1042,.F.);
#1042 = EDGE_CURVE('',#997,#1035,#1043,.T.);
#1043 = LINE('',#1044,#1045);
#1044 = CARTESIAN_POINT('',(-9.927241335952,-7.,59.8));
#1045 = VECTOR('',#1046,1.);
#1046 = DIRECTION('',(0.,-1.,0.));
#1047 = PLANE('',#1048);
#1048 = AXIS2_PLACEMENT_3D('',#1049,#1050,#1051);
#1049 = CARTESIAN_POINT('',(-15.92724133595,-6.05,59.8));
#1050 = DIRECTION('',(0.,0.,1.));
#1051 = DIRECTION('',(1.,0.,0.));
#1052 = ADVANCED_FACE('',(#1053),#1069,.T.);
#1053 = FACE_BOUND('',#1054,.T.);
#1054 = EDGE_LOOP('',(#1055,#1056,#1062,#1063));
#1055 = ORIENTED_EDGE('',*,*,#1034,.F.);
#1056 = ORIENTED_EDGE('',*,*,#1057,.F.);
#1057 = EDGE_CURVE('',#791,#1027,#1058,.T.);
#1058 = LINE('',#1059,#1060);
#1059 = CARTESIAN_POINT('',(-14.22724133595,-6.05,59.973534485083));
#1060 = VECTOR('',#1061,1.);
#1061 = DIRECTION('',(0.,0.,-1.));
#1062 = ORIENTED_EDGE('',*,*,#871,.F.);
#1063 = ORIENTED_EDGE('',*,*,#1064,.F.);
#1064 = EDGE_CURVE('',#1035,#864,#1065,.T.);
#1065 = LINE('',#1066,#1067);
#1066 = CARTESIAN_POINT('',(-9.927241335952,-6.05,59.4));
#1067 = VECTOR('',#1068,1.);
#1068 = DIRECTION('',(0.,0.,1.));
#1069 = PLANE('',#1070);
#1070 = AXIS2_PLACEMENT_3D('',#1071,#1072,#1073);
#1071 = CARTESIAN_POINT('',(-15.92724133595,-6.05,59.8));
#1072 = DIRECTION('',(0.,1.,0.));
#1073 = DIRECTION('',(0.,0.,1.));
#1074 = ADVANCED_FACE('',(#1075),#1093,.T.);
#1075 = FACE_BOUND('',#1076,.T.);
#1076 = EDGE_LOOP('',(#1077,#1078,#1086,#1092));
#1077 = ORIENTED_EDGE('',*,*,#941,.F.);
#1078 = ORIENTED_EDGE('',*,*,#1079,.T.);
#1079 = EDGE_CURVE('',#934,#1080,#1082,.T.);
#1080 = VERTEX_POINT('',#1081);
#1081 = CARTESIAN_POINT('',(-1.5,0.25,58.));
#1082 = LINE('',#1083,#1084);
#1083 = CARTESIAN_POINT('',(-1.5,0.25,57.8));
#1084 = VECTOR('',#1085,1.);
#1085 = DIRECTION('',(0.,0.,-1.));
#1086 = ORIENTED_EDGE('',*,*,#1087,.T.);
#1087 = EDGE_CURVE('',#1080,#966,#1088,.T.);
#1088 = LINE('',#1089,#1090);
#1089 = CARTESIAN_POINT('',(-1.5,-9.325,58.));
#1090 = VECTOR('',#1091,1.);
#1091 = DIRECTION('',(0.,1.,0.));
#1092 = ORIENTED_EDGE('',*,*,#980,.F.);
#1093 = PLANE('',#1094);
#1094 = AXIS2_PLACEMENT_3D('',#1095,#1096,#1097);
#1095 = CARTESIAN_POINT('',(-1.5,-5.9,57.8));
#1096 = DIRECTION('',(1.,0.,0.));
#1097 = DIRECTION('',(0.,0.,1.));
#1098 = ADVANCED_FACE('',(#1099),#1117,.F.);
#1099 = FACE_BOUND('',#1100,.F.);
#1100 = EDGE_LOOP('',(#1101,#1102,#1110,#1116));
#1101 = ORIENTED_EDGE('',*,*,#1079,.T.);
#1102 = ORIENTED_EDGE('',*,*,#1103,.T.);
#1103 = EDGE_CURVE('',#1080,#1104,#1106,.T.);
#1104 = VERTEX_POINT('',#1105);
#1105 = CARTESIAN_POINT('',(-5.227241335952,0.25,58.));
#1106 = LINE('',#1107,#1108);
#1107 = CARTESIAN_POINT('',(-9.727241335952,0.25,58.));
#1108 = VECTOR('',#1109,1.);
#1109 = DIRECTION('',(-1.,0.,0.));
#1110 = ORIENTED_EDGE('',*,*,#1111,.T.);
#1111 = EDGE_CURVE('',#1104,#926,#1112,.T.);
#1112 = LINE('',#1113,#1114);
#1113 = CARTESIAN_POINT('',(-5.227241335952,0.25,57.8));
#1114 = VECTOR('',#1115,1.);
#1115 = DIRECTION('',(0.,0.,1.));
#1116 = ORIENTED_EDGE('',*,*,#933,.F.);
#1117 = PLANE('',#1118);
#1118 = AXIS2_PLACEMENT_3D('',#1119,#1120,#1121);
#1119 = CARTESIAN_POINT('',(-5.227241335952,0.25,57.8));
#1120 = DIRECTION('',(0.,1.,0.));
#1121 = DIRECTION('',(0.,0.,1.));
#1122 = ADVANCED_FACE('',(#1123),#1152,.T.);
#1123 = FACE_BOUND('',#1124,.T.);
#1124 = EDGE_LOOP('',(#1125,#1133,#1141,#1147,#1148,#1149,#1150,#1151));
#1125 = ORIENTED_EDGE('',*,*,#1126,.F.);
#1126 = EDGE_CURVE('',#1127,#856,#1129,.T.);
#1127 = VERTEX_POINT('',#1128);
#1128 = CARTESIAN_POINT('',(-9.927241335952,-7.95,59.));
#1129 = LINE('',#1130,#1131);
#1130 = CARTESIAN_POINT('',(-9.927241335952,-7.95,59.));
#1131 = VECTOR('',#1132,1.);
#1132 = DIRECTION('',(0.,0.,1.));
#1133 = ORIENTED_EDGE('',*,*,#1134,.T.);
#1134 = EDGE_CURVE('',#1127,#1135,#1137,.T.);
#1135 = VERTEX_POINT('',#1136);
#1136 = CARTESIAN_POINT('',(-9.927241335952,-1.55,59.));
#1137 = LINE('',#1138,#1139);
#1138 = CARTESIAN_POINT('',(-9.927241335952,-7.95,59.));
#1139 = VECTOR('',#1140,1.);
#1140 = DIRECTION('',(0.,1.,0.));
#1141 = ORIENTED_EDGE('',*,*,#1142,.T.);
#1142 = EDGE_CURVE('',#1135,#832,#1143,.T.);
#1143 = LINE('',#1144,#1145);
#1144 = CARTESIAN_POINT('',(-9.927241335952,-1.55,59.));
#1145 = VECTOR('',#1146,1.);
#1146 = DIRECTION('',(0.,0.,1.));
#1147 = ORIENTED_EDGE('',*,*,#831,.F.);
#1148 = ORIENTED_EDGE('',*,*,#1011,.F.);
#1149 = ORIENTED_EDGE('',*,*,#1042,.T.);
#1150 = ORIENTED_EDGE('',*,*,#1064,.T.);
#1151 = ORIENTED_EDGE('',*,*,#863,.F.);
#1152 = PLANE('',#1153);
#1153 = AXIS2_PLACEMENT_3D('',#1154,#1155,#1156);
#1154 = CARTESIAN_POINT('',(-9.927241335952,-7.95,59.));
#1155 = DIRECTION('',(1.,0.,0.));
#1156 = DIRECTION('',(0.,0.,1.));
#1157 = ADVANCED_FACE('',(#1158),#1176,.T.);
#1158 = FACE_BOUND('',#1159,.T.);
#1159 = EDGE_LOOP('',(#1160,#1168,#1174,#1175));
#1160 = ORIENTED_EDGE('',*,*,#1161,.F.);
#1161 = EDGE_CURVE('',#1162,#848,#1164,.T.);
#1162 = VERTEX_POINT('',#1163);
#1163 = CARTESIAN_POINT('',(-6.527241335952,-7.95,59.));
#1164 = LINE('',#1165,#1166);
#1165 = CARTESIAN_POINT('',(-6.527241335952,-7.95,59.));
#1166 = VECTOR('',#1167,1.);
#1167 = DIRECTION('',(0.,0.,1.));
#1168 = ORIENTED_EDGE('',*,*,#1169,.F.);
#1169 = EDGE_CURVE('',#1127,#1162,#1170,.T.);
#1170 = LINE('',#1171,#1172);
#1171 = CARTESIAN_POINT('',(-9.927241335952,-7.95,59.));
#1172 = VECTOR('',#1173,1.);
#1173 = DIRECTION('',(1.,0.,0.));
#1174 = ORIENTED_EDGE('',*,*,#1126,.T.);
#1175 = ORIENTED_EDGE('',*,*,#855,.F.);
#1176 = PLANE('',#1177);
#1177 = AXIS2_PLACEMENT_3D('',#1178,#1179,#1180);
#1178 = CARTESIAN_POINT('',(-9.927241335952,-7.95,59.));
#1179 = DIRECTION('',(0.,1.,0.));
#1180 = DIRECTION('',(0.,0.,1.));
#1181 = ADVANCED_FACE('',(#1182),#1200,.F.);
#1182 = FACE_BOUND('',#1183,.F.);
#1183 = EDGE_LOOP('',(#1184,#1185,#1193,#1199));
#1184 = ORIENTED_EDGE('',*,*,#1161,.F.);
#1185 = ORIENTED_EDGE('',*,*,#1186,.T.);
#1186 = EDGE_CURVE('',#1162,#1187,#1189,.T.);
#1187 = VERTEX_POINT('',#1188);
#1188 = CARTESIAN_POINT('',(-6.527241335952,-1.55,59.));
#1189 = LINE('',#1190,#1191);
#1190 = CARTESIAN_POINT('',(-6.527241335952,-7.95,59.));
#1191 = VECTOR('',#1192,1.);
#1192 = DIRECTION('',(0.,1.,0.));
#1193 = ORIENTED_EDGE('',*,*,#1194,.T.);
#1194 = EDGE_CURVE('',#1187,#840,#1195,.T.);
#1195 = LINE('',#1196,#1197);
#1196 = CARTESIAN_POINT('',(-6.527241335952,-1.55,59.));
#1197 = VECTOR('',#1198,1.);
#1198 = DIRECTION('',(0.,0.,1.));
#1199 = ORIENTED_EDGE('',*,*,#847,.F.);
#1200 = PLANE('',#1201);
#1201 = AXIS2_PLACEMENT_3D('',#1202,#1203,#1204);
#1202 = CARTESIAN_POINT('',(-6.527241335952,-7.95,59.));
#1203 = DIRECTION('',(1.,0.,0.));
#1204 = DIRECTION('',(0.,0.,1.));
#1205 = ADVANCED_FACE('',(#1206),#1217,.F.);
#1206 = FACE_BOUND('',#1207,.F.);
#1207 = EDGE_LOOP('',(#1208,#1209,#1215,#1216));
#1208 = ORIENTED_EDGE('',*,*,#1194,.F.);
#1209 = ORIENTED_EDGE('',*,*,#1210,.F.);
#1210 = EDGE_CURVE('',#1135,#1187,#1211,.T.);
#1211 = LINE('',#1212,#1213);
#1212 = CARTESIAN_POINT('',(-9.927241335952,-1.55,59.));
#1213 = VECTOR('',#1214,1.);
#1214 = DIRECTION('',(1.,0.,0.));
#1215 = ORIENTED_EDGE('',*,*,#1142,.T.);
#1216 = ORIENTED_EDGE('',*,*,#839,.F.);
#1217 = PLANE('',#1218);
#1218 = AXIS2_PLACEMENT_3D('',#1219,#1220,#1221);
#1219 = CARTESIAN_POINT('',(-9.927241335952,-1.55,59.));
#1220 = DIRECTION('',(0.,1.,0.));
#1221 = DIRECTION('',(0.,0.,1.));
#1222 = ADVANCED_FACE('',(#1223,#1229),#1240,.T.);
#1223 = FACE_BOUND('',#1224,.T.);
#1224 = EDGE_LOOP('',(#1225,#1226,#1227,#1228));
#1225 = ORIENTED_EDGE('',*,*,#1134,.F.);
#1226 = ORIENTED_EDGE('',*,*,#1169,.T.);
#1227 = ORIENTED_EDGE('',*,*,#1186,.T.);
#1228 = ORIENTED_EDGE('',*,*,#1210,.F.);
#1229 = FACE_BOUND('',#1230,.T.);
#1230 = EDGE_LOOP('',(#1231));
#1231 = ORIENTED_EDGE('',*,*,#1232,.F.);
#1232 = EDGE_CURVE('',#1233,#1233,#1235,.T.);
#1233 = VERTEX_POINT('',#1234);
#1234 = CARTESIAN_POINT('',(-6.727241335952,-4.75,59.));
#1235 = CIRCLE('',#1236,1.5);
#1236 = AXIS2_PLACEMENT_3D('',#1237,#1238,#1239);
#1237 = CARTESIAN_POINT('',(-8.227241335952,-4.75,59.));
#1238 = DIRECTION('',(0.,0.,1.));
#1239 = DIRECTION('',(1.,0.,0.));
#1240 = PLANE('',#1241);
#1241 = AXIS2_PLACEMENT_3D('',#1242,#1243,#1244);
#1242 = CARTESIAN_POINT('',(-9.927241335952,-7.95,59.));
#1243 = DIRECTION('',(0.,0.,1.));
#1244 = DIRECTION('',(1.,0.,0.));
#1245 = ADVANCED_FACE('',(#1246),#1265,.T.);
#1246 = FACE_BOUND('',#1247,.T.);
#1247 = EDGE_LOOP('',(#1248,#1256,#1263,#1264));
#1248 = ORIENTED_EDGE('',*,*,#1249,.T.);
#1249 = EDGE_CURVE('',#1233,#1250,#1252,.T.);
#1250 = VERTEX_POINT('',#1251);
#1251 = CARTESIAN_POINT('',(-6.727241335952,-4.75,59.1));
#1252 = LINE('',#1253,#1254);
#1253 = CARTESIAN_POINT('',(-6.727241335952,-4.75,58.));
#1254 = VECTOR('',#1255,1.);
#1255 = DIRECTION('',(0.,0.,1.));
#1256 = ORIENTED_EDGE('',*,*,#1257,.F.);
#1257 = EDGE_CURVE('',#1250,#1250,#1258,.T.);
#1258 = CIRCLE('',#1259,1.5);
#1259 = AXIS2_PLACEMENT_3D('',#1260,#1261,#1262);
#1260 = CARTESIAN_POINT('',(-8.227241335952,-4.75,59.1));
#1261 = DIRECTION('',(0.,0.,1.));
#1262 = DIRECTION('',(1.,0.,0.));
#1263 = ORIENTED_EDGE('',*,*,#1249,.F.);
#1264 = ORIENTED_EDGE('',*,*,#1232,.T.);
#1265 = CYLINDRICAL_SURFACE('',#1266,1.5);
#1266 = AXIS2_PLACEMENT_3D('',#1267,#1268,#1269);
#1267 = CARTESIAN_POINT('',(-8.227241335952,-4.75,58.));
#1268 = DIRECTION('',(0.,0.,1.));
#1269 = DIRECTION('',(1.,0.,0.));
#1270 = ADVANCED_FACE('',(#1271,#1274),#1285,.T.);
#1271 = FACE_BOUND('',#1272,.T.);
#1272 = EDGE_LOOP('',(#1273));
#1273 = ORIENTED_EDGE('',*,*,#1257,.T.);
#1274 = FACE_BOUND('',#1275,.T.);
#1275 = EDGE_LOOP('',(#1276));
#1276 = ORIENTED_EDGE('',*,*,#1277,.F.);
#1277 = EDGE_CURVE('',#1278,#1278,#1280,.T.);
#1278 = VERTEX_POINT('',#1279);
#1279 = CARTESIAN_POINT('',(-7.227241335952,-4.75,59.1));
#1280 = CIRCLE('',#1281,1.);
#1281 = AXIS2_PLACEMENT_3D('',#1282,#1283,#1284);
#1282 = CARTESIAN_POINT('',(-8.227241335952,-4.75,59.1));
#1283 = DIRECTION('',(0.,0.,1.));
#1284 = DIRECTION('',(1.,0.,0.));
#1285 = PLANE('',#1286);
#1286 = AXIS2_PLACEMENT_3D('',#1287,#1288,#1289);
#1287 = CARTESIAN_POINT('',(-8.227241335952,-4.75,59.1));
#1288 = DIRECTION('',(0.,0.,1.));
#1289 = DIRECTION('',(1.,0.,0.));
#1290 = ADVANCED_FACE('',(#1291),#1310,.F.);
#1291 = FACE_BOUND('',#1292,.F.);
#1292 = EDGE_LOOP('',(#1293,#1294,#1302,#1309));
#1293 = ORIENTED_EDGE('',*,*,#1277,.F.);
#1294 = ORIENTED_EDGE('',*,*,#1295,.F.);
#1295 = EDGE_CURVE('',#1296,#1278,#1298,.T.);
#1296 = VERTEX_POINT('',#1297);
#1297 = CARTESIAN_POINT('',(-7.227241335952,-4.75,58.2));
#1298 = LINE('',#1299,#1300);
#1299 = CARTESIAN_POINT('',(-7.227241335952,-4.75,58.2));
#1300 = VECTOR('',#1301,1.);
#1301 = DIRECTION('',(0.,0.,1.));
#1302 = ORIENTED_EDGE('',*,*,#1303,.T.);
#1303 = EDGE_CURVE('',#1296,#1296,#1304,.T.);
#1304 = CIRCLE('',#1305,1.);
#1305 = AXIS2_PLACEMENT_3D('',#1306,#1307,#1308);
#1306 = CARTESIAN_POINT('',(-8.227241335952,-4.75,58.2));
#1307 = DIRECTION('',(0.,0.,1.));
#1308 = DIRECTION('',(1.,0.,0.));
#1309 = ORIENTED_EDGE('',*,*,#1295,.T.);
#1310 = CYLINDRICAL_SURFACE('',#1311,1.);
#1311 = AXIS2_PLACEMENT_3D('',#1312,#1313,#1314);
#1312 = CARTESIAN_POINT('',(-8.227241335952,-4.75,58.2));
#1313 = DIRECTION('',(0.,0.,1.));
#1314 = DIRECTION('',(1.,0.,0.));
#1315 = ADVANCED_FACE('',(#1316),#1319,.T.);
#1316 = FACE_BOUND('',#1317,.F.);
#1317 = EDGE_LOOP('',(#1318));
#1318 = ORIENTED_EDGE('',*,*,#1303,.F.);
#1319 = PLANE('',#1320);
#1320 = AXIS2_PLACEMENT_3D('',#1321,#1322,#1323);
#1321 = CARTESIAN_POINT('',(-8.227241335952,-4.75,58.2));
#1322 = DIRECTION('',(0.,0.,1.));
#1323 = DIRECTION('',(1.,0.,0.));
#1324 = ADVANCED_FACE('',(#1325),#1342,.T.);
#1325 = FACE_BOUND('',#1326,.T.);
#1326 = EDGE_LOOP('',(#1327,#1328,#1329,#1330,#1331,#1332,#1333,#1334,
    #1335,#1336));
#1327 = ORIENTED_EDGE('',*,*,#176,.T.);
#1328 = ORIENTED_EDGE('',*,*,#790,.T.);
#1329 = ORIENTED_EDGE('',*,*,#1057,.T.);
#1330 = ORIENTED_EDGE('',*,*,#1026,.T.);
#1331 = ORIENTED_EDGE('',*,*,#1004,.F.);
#1332 = ORIENTED_EDGE('',*,*,#815,.T.);
#1333 = ORIENTED_EDGE('',*,*,#902,.T.);
#1334 = ORIENTED_EDGE('',*,*,#916,.T.);
#1335 = ORIENTED_EDGE('',*,*,#973,.F.);
#1336 = ORIENTED_EDGE('',*,*,#1337,.F.);
#1337 = EDGE_CURVE('',#143,#964,#1338,.T.);
#1338 = LINE('',#1339,#1340);
#1339 = CARTESIAN_POINT('',(-14.22724133595,-12.75,58.));
#1340 = VECTOR('',#1341,1.);
#1341 = DIRECTION('',(0.,1.,0.));
#1342 = PLANE('',#1343);
#1343 = AXIS2_PLACEMENT_3D('',#1344,#1345,#1346);
#1344 = CARTESIAN_POINT('',(-14.22724133595,-4.443554357358,
    59.298415802217));
#1345 = DIRECTION('',(-1.,-0.,-0.));
#1346 = DIRECTION('',(0.,0.,-1.));
#1347 = ADVANCED_FACE('',(#1348),#1395,.T.);
#1348 = FACE_BOUND('',#1349,.T.);
#1349 = EDGE_LOOP('',(#1350,#1351,#1352,#1353,#1359,#1360,#1366,#1367,
    #1368,#1369,#1377,#1385,#1391,#1392,#1393,#1394));
#1350 = ORIENTED_EDGE('',*,*,#963,.T.);
#1351 = ORIENTED_EDGE('',*,*,#1087,.F.);
#1352 = ORIENTED_EDGE('',*,*,#1103,.T.);
#1353 = ORIENTED_EDGE('',*,*,#1354,.F.);
#1354 = EDGE_CURVE('',#768,#1104,#1355,.T.);
#1355 = LINE('',#1356,#1357);
#1356 = CARTESIAN_POINT('',(-5.227241335952,-11.25,58.));
#1357 = VECTOR('',#1358,1.);
#1358 = DIRECTION('',(0.,1.,0.));
#1359 = ORIENTED_EDGE('',*,*,#767,.F.);
#1360 = ORIENTED_EDGE('',*,*,#1361,.T.);
#1361 = EDGE_CURVE('',#760,#191,#1362,.T.);
#1362 = LINE('',#1363,#1364);
#1363 = CARTESIAN_POINT('',(5.227241335952,-11.25,58.));
#1364 = VECTOR('',#1365,1.);
#1365 = DIRECTION('',(0.,1.,0.));
#1366 = ORIENTED_EDGE('',*,*,#200,.T.);
#1367 = ORIENTED_EDGE('',*,*,#239,.T.);
#1368 = ORIENTED_EDGE('',*,*,#261,.T.);
#1369 = ORIENTED_EDGE('',*,*,#1370,.F.);
#1370 = EDGE_CURVE('',#1371,#262,#1373,.T.);
#1371 = VERTEX_POINT('',#1372);
#1372 = CARTESIAN_POINT('',(14.227241335952,-9.75,58.));
#1373 = LINE('',#1374,#1375);
#1374 = CARTESIAN_POINT('',(14.227241335952,-12.75,58.));
#1375 = VECTOR('',#1376,1.);
#1376 = DIRECTION('',(0.,1.,0.));
#1377 = ORIENTED_EDGE('',*,*,#1378,.T.);
#1378 = EDGE_CURVE('',#1371,#1379,#1381,.T.);
#1379 = VERTEX_POINT('',#1380);
#1380 = CARTESIAN_POINT('',(20.549749614189,-9.75,58.));
#1381 = LINE('',#1382,#1383);
#1382 = CARTESIAN_POINT('',(13.227241335952,-9.75,58.));
#1383 = VECTOR('',#1384,1.);
#1384 = DIRECTION('',(1.,0.,0.));
#1385 = ORIENTED_EDGE('',*,*,#1386,.F.);
#1386 = EDGE_CURVE('',#118,#1379,#1387,.T.);
#1387 = LINE('',#1388,#1389);
#1388 = CARTESIAN_POINT('',(20.549749614189,-10.1,58.));
#1389 = VECTOR('',#1390,1.);
#1390 = DIRECTION('',(0.,1.,0.));
#1391 = ORIENTED_EDGE('',*,*,#126,.F.);
#1392 = ORIENTED_EDGE('',*,*,#39,.F.);
#1393 = ORIENTED_EDGE('',*,*,#142,.F.);
#1394 = ORIENTED_EDGE('',*,*,#1337,.T.);
#1395 = PLANE('',#1396);
#1396 = AXIS2_PLACEMENT_3D('',#1397,#1398,#1399);
#1397 = CARTESIAN_POINT('',(1.784014826722,-5.359086597494,58.));
#1398 = DIRECTION('',(-0.,-0.,-1.));
#1399 = DIRECTION('',(-1.,0.,0.));
#1400 = ADVANCED_FACE('',(#1401),#1410,.T.);
#1401 = FACE_BOUND('',#1402,.T.);
#1402 = EDGE_LOOP('',(#1403,#1404,#1405,#1406,#1407,#1408,#1409));
#1403 = ORIENTED_EDGE('',*,*,#775,.F.);
#1404 = ORIENTED_EDGE('',*,*,#1354,.T.);
#1405 = ORIENTED_EDGE('',*,*,#1111,.T.);
#1406 = ORIENTED_EDGE('',*,*,#925,.F.);
#1407 = ORIENTED_EDGE('',*,*,#886,.F.);
#1408 = ORIENTED_EDGE('',*,*,#799,.F.);
#1409 = ORIENTED_EDGE('',*,*,#745,.F.);
#1410 = PLANE('',#1411);
#1411 = AXIS2_PLACEMENT_3D('',#1412,#1413,#1414);
#1412 = CARTESIAN_POINT('',(-5.227241335952,-5.610521120864,
    59.555691754327));
#1413 = DIRECTION('',(1.,0.,0.));
#1414 = DIRECTION('',(0.,0.,1.));
#1415 = ADVANCED_FACE('',(#1416),#1442,.T.);
#1416 = FACE_BOUND('',#1417,.T.);
#1417 = EDGE_LOOP('',(#1418,#1419,#1425,#1426,#1435));
#1418 = ORIENTED_EDGE('',*,*,#1378,.F.);
#1419 = ORIENTED_EDGE('',*,*,#1420,.T.);
#1420 = EDGE_CURVE('',#1371,#64,#1421,.T.);
#1421 = LINE('',#1422,#1423);
#1422 = CARTESIAN_POINT('',(14.227241335952,-9.75,58.));
#1423 = VECTOR('',#1424,1.);
#1424 = DIRECTION('',(0.,0.,1.));
#1425 = ORIENTED_EDGE('',*,*,#94,.T.);
#1426 = ORIENTED_EDGE('',*,*,#1427,.T.);
#1427 = EDGE_CURVE('',#87,#1428,#1430,.T.);
#1428 = VERTEX_POINT('',#1429);
#1429 = CARTESIAN_POINT('',(20.927241335952,-9.75,60.85));
#1430 = CIRCLE('',#1431,1.45);
#1431 = AXIS2_PLACEMENT_3D('',#1432,#1433,#1434);
#1432 = CARTESIAN_POINT('',(20.927241335952,-9.75,59.4));
#1433 = DIRECTION('',(0.,1.,0.));
#1434 = DIRECTION('',(0.,0.,1.));
#1435 = ORIENTED_EDGE('',*,*,#1436,.T.);
#1436 = EDGE_CURVE('',#1428,#1379,#1437,.T.);
#1437 = CIRCLE('',#1438,1.45);
#1438 = AXIS2_PLACEMENT_3D('',#1439,#1440,#1441);
#1439 = CARTESIAN_POINT('',(20.927241335952,-9.75,59.4));
#1440 = DIRECTION('',(0.,1.,0.));
#1441 = DIRECTION('',(0.,0.,1.));
#1442 = PLANE('',#1443);
#1443 = AXIS2_PLACEMENT_3D('',#1444,#1445,#1446);
#1444 = CARTESIAN_POINT('',(18.329658505961,-9.75,58.984827114499));
#1445 = DIRECTION('',(0.,1.,0.));
#1446 = DIRECTION('',(0.,0.,1.));
#1447 = ADVANCED_FACE('',(#1448),#1457,.T.);
#1448 = FACE_BOUND('',#1449,.T.);
#1449 = EDGE_LOOP('',(#1450,#1451,#1452,#1453,#1454,#1455,#1456));
#1450 = ORIENTED_EDGE('',*,*,#759,.T.);
#1451 = ORIENTED_EDGE('',*,*,#729,.T.);
#1452 = ORIENTED_EDGE('',*,*,#325,.T.);
#1453 = ORIENTED_EDGE('',*,*,#428,.T.);
#1454 = ORIENTED_EDGE('',*,*,#295,.T.);
#1455 = ORIENTED_EDGE('',*,*,#190,.F.);
#1456 = ORIENTED_EDGE('',*,*,#1361,.F.);
#1457 = PLANE('',#1458);
#1458 = AXIS2_PLACEMENT_3D('',#1459,#1460,#1461);
#1459 = CARTESIAN_POINT('',(5.227241335952,-5.610521120864,
    59.555691754327));
#1460 = DIRECTION('',(-1.,-0.,-0.));
#1461 = DIRECTION('',(0.,0.,-1.));
#1462 = ADVANCED_FACE('',(#1463),#1476,.T.);
#1463 = FACE_BOUND('',#1464,.T.);
#1464 = EDGE_LOOP('',(#1465,#1466,#1467,#1468,#1469,#1470,#1471,#1472,
    #1473,#1474,#1475));
#1465 = ORIENTED_EDGE('',*,*,#1420,.F.);
#1466 = ORIENTED_EDGE('',*,*,#1370,.T.);
#1467 = ORIENTED_EDGE('',*,*,#278,.T.);
#1468 = ORIENTED_EDGE('',*,*,#311,.F.);
#1469 = ORIENTED_EDGE('',*,*,#421,.F.);
#1470 = ORIENTED_EDGE('',*,*,#398,.F.);
#1471 = ORIENTED_EDGE('',*,*,#459,.T.);
#1472 = ORIENTED_EDGE('',*,*,#612,.F.);
#1473 = ORIENTED_EDGE('',*,*,#595,.F.);
#1474 = ORIENTED_EDGE('',*,*,#334,.F.);
#1475 = ORIENTED_EDGE('',*,*,#61,.T.);
#1476 = PLANE('',#1477);
#1477 = AXIS2_PLACEMENT_3D('',#1478,#1479,#1480);
#1478 = CARTESIAN_POINT('',(14.227241335952,-4.339553582496,
    59.402416577079));
#1479 = DIRECTION('',(1.,0.,0.));
#1480 = DIRECTION('',(0.,0.,1.));
#1481 = ADVANCED_FACE('',(#1482),#1490,.T.);
#1482 = FACE_BOUND('',#1483,.T.);
#1483 = EDGE_LOOP('',(#1484,#1485,#1486,#1487,#1488,#1489));
#1484 = ORIENTED_EDGE('',*,*,#1427,.F.);
#1485 = ORIENTED_EDGE('',*,*,#86,.F.);
#1486 = ORIENTED_EDGE('',*,*,#108,.T.);
#1487 = ORIENTED_EDGE('',*,*,#117,.T.);
#1488 = ORIENTED_EDGE('',*,*,#1386,.T.);
#1489 = ORIENTED_EDGE('',*,*,#1436,.F.);
#1490 = CYLINDRICAL_SURFACE('',#1491,1.45);
#1491 = AXIS2_PLACEMENT_3D('',#1492,#1493,#1494);
#1492 = CARTESIAN_POINT('',(20.927241335952,-10.1,59.4));
#1493 = DIRECTION('',(0.,1.,0.));
#1494 = DIRECTION('',(0.,0.,1.));
#1495 = ( GEOMETRIC_REPRESENTATION_CONTEXT(3) 
GLOBAL_UNCERTAINTY_ASSIGNED_CONTEXT((#1499)) 
GLOBAL_UNIT_ASSIGNED_CONTEXT((#1496,#1497,#1498)) REPRESENTATION_CONTEXT
('Context #1','3D Context with UNIT and UNCERTAINTY') );
#1496 = ( LENGTH_UNIT() NAMED_UNIT(*) SI_UNIT(.MILLI.,.METRE.) );
#1497 = ( NAMED_UNIT(*) PLANE_ANGLE_UNIT() SI_UNIT($,.RADIAN.) );
#1498 = ( NAMED_UNIT(*) SI_UNIT($,.STERADIAN.) SOLID_ANGLE_UNIT() );
#1499 = UNCERTAINTY_MEASURE_WITH_UNIT(LENGTH_MEASURE(2.E-07),#1496,
  'distance_accuracy_value','confusion accuracy');
#1500 = PRODUCT_RELATED_PRODUCT_CATEGORY('part',$,(#7));
ENDSEC;
END-ISO-10303-21;
