ISO-10303-21;
HEADER;
FILE_DESCRIPTION(('FreeCAD Model'),'2;1');
FILE_NAME('Open CASCADE Shape Model','2026-09-30T05:23:12',('FreeCAD'),(
    'FreeCAD'),'Open CASCADE STEP processor 7.8','FreeCAD','Unknown');
FILE_SCHEMA(('AUTOMOTIVE_DESIGN { 1 0 10303 214 1 1 1 1 }'));
ENDSEC;
DATA;
#1 = APPLICATION_PROTOCOL_DEFINITION('international standard',
  'automotive_design',2000,#2);
#2 = APPLICATION_CONTEXT(
  'core data for automotive mechanical design processes');
#3 = SHAPE_DEFINITION_REPRESENTATION(#4,#10);
#4 = PRODUCT_DEFINITION_SHAPE('','',#5);
#5 = PRODUCT_DEFINITION('design','',#6,#9);
#6 = PRODUCT_DEFINITION_FORMATION('','',#7);
#7 = PRODUCT('Open CASCADE STEP translator 7.8 6',
  'Open CASCADE STEP translator 7.8 6','',(#8));
#8 = PRODUCT_CONTEXT('',#2,'mechanical');
#9 = PRODUCT_DEFINITION_CONTEXT('part definition',#2,'design');
#10 = ADVANCED_BREP_SHAPE_REPRESENTATION('',(#11,#15),#561);
#11 = AXIS2_PLACEMENT_3D('',#12,#13,#14);
#12 = CARTESIAN_POINT('',(0.,0.,0.));
#13 = DIRECTION('',(0.,0.,1.));
#14 = DIRECTION('',(1.,0.,-0.));
#15 = MANIFOLD_SOLID_BREP('',#16);
#16 = CLOSED_SHELL('',(#17,#57,#88,#208,#232,#345,#362,#379,#396,#413,
    #430,#447,#464,#481,#498,#515,#532,#549));
#17 = ADVANCED_FACE('',(#18),#52,.F.);
#18 = FACE_BOUND('',#19,.T.);
#19 = EDGE_LOOP('',(#20,#30,#38,#46));
#20 = ORIENTED_EDGE('',*,*,#21,.F.);
#21 = EDGE_CURVE('',#22,#24,#26,.T.);
#22 = VERTEX_POINT('',#23);
#23 = CARTESIAN_POINT('',(21.227241335952,-18.75,43.5));
#24 = VERTEX_POINT('',#25);
#25 = CARTESIAN_POINT('',(21.227241335952,-18.75,44.));
#26 = LINE('',#27,#28);
#27 = CARTESIAN_POINT('',(21.227241335952,-18.75,43.5));
#28 = VECTOR('',#29,1.);
#29 = DIRECTION('',(0.,0.,1.));
#30 = ORIENTED_EDGE('',*,*,#31,.T.);
#31 = EDGE_CURVE('',#22,#32,#34,.T.);
#32 = VERTEX_POINT('',#33);
#33 = CARTESIAN_POINT('',(21.227241335952,9.25,43.5));
#34 = LINE('',#35,#36);
#35 = CARTESIAN_POINT('',(21.227241335952,-18.75,43.5));
#36 = VECTOR('',#37,1.);
#37 = DIRECTION('',(0.,1.,0.));
#38 = ORIENTED_EDGE('',*,*,#39,.T.);
#39 = EDGE_CURVE('',#32,#40,#42,.T.);
#40 = VERTEX_POINT('',#41);
#41 = CARTESIAN_POINT('',(21.227241335952,9.25,44.));
#42 = LINE('',#43,#44);
#43 = CARTESIAN_POINT('',(21.227241335952,9.25,43.5));
#44 = VECTOR('',#45,1.);
#45 = DIRECTION('',(0.,0.,1.));
#46 = ORIENTED_EDGE('',*,*,#47,.F.);
#47 = EDGE_CURVE('',#24,#40,#48,.T.);
#48 = LINE('',#49,#50);
#49 = CARTESIAN_POINT('',(21.227241335952,-18.75,44.));
#50 = VECTOR('',#51,1.);
#51 = DIRECTION('',(0.,1.,0.));
#52 = PLANE('',#53);
#53 = AXIS2_PLACEMENT_3D('',#54,#55,#56);
#54 = CARTESIAN_POINT('',(21.227241335952,-18.75,43.5));
#55 = DIRECTION('',(-1.,0.,0.));
#56 = DIRECTION('',(0.,0.,-1.));
#57 = ADVANCED_FACE('',(#58),#83,.F.);
#58 = FACE_BOUND('',#59,.T.);
#59 = EDGE_LOOP('',(#60,#68,#69,#77));
#60 = ORIENTED_EDGE('',*,*,#61,.F.);
#61 = EDGE_CURVE('',#22,#62,#64,.T.);
#62 = VERTEX_POINT('',#63);
#63 = CARTESIAN_POINT('',(-4.772758664048,-18.75,43.5));
#64 = LINE('',#65,#66);
#65 = CARTESIAN_POINT('',(21.227241335952,-18.75,43.5));
#66 = VECTOR('',#67,1.);
#67 = DIRECTION('',(-1.,0.,0.));
#68 = ORIENTED_EDGE('',*,*,#21,.T.);
#69 = ORIENTED_EDGE('',*,*,#70,.T.);
#70 = EDGE_CURVE('',#24,#71,#73,.T.);
#71 = VERTEX_POINT('',#72);
#72 = CARTESIAN_POINT('',(-4.772758664048,-18.75,44.));
#73 = LINE('',#74,#75);
#74 = CARTESIAN_POINT('',(21.227241335952,-18.75,44.));
#75 = VECTOR('',#76,1.);
#76 = DIRECTION('',(-1.,0.,0.));
#77 = ORIENTED_EDGE('',*,*,#78,.F.);
#78 = EDGE_CURVE('',#62,#71,#79,.T.);
#79 = LINE('',#80,#81);
#80 = CARTESIAN_POINT('',(-4.772758664048,-18.75,43.5));
#81 = VECTOR('',#82,1.);
#82 = DIRECTION('',(0.,0.,1.));
#83 = PLANE('',#84);
#84 = AXIS2_PLACEMENT_3D('',#85,#86,#87);
#85 = CARTESIAN_POINT('',(21.227241335952,-18.75,43.5));
#86 = DIRECTION('',(0.,1.,0.));
#87 = DIRECTION('',(-0.,-0.,-1.));
#88 = ADVANCED_FACE('',(#89),#203,.T.);
#89 = FACE_BOUND('',#90,.F.);
#90 = EDGE_LOOP('',(#91,#99,#100,#101,#109,#117,#125,#133,#141,#149,#157
    ,#165,#173,#181,#189,#197));
#91 = ORIENTED_EDGE('',*,*,#92,.F.);
#92 = EDGE_CURVE('',#40,#93,#95,.T.);
#93 = VERTEX_POINT('',#94);
#94 = CARTESIAN_POINT('',(2.325268817204,9.25,44.));
#95 = LINE('',#96,#97);
#96 = CARTESIAN_POINT('',(21.227241335952,9.25,44.));
#97 = VECTOR('',#98,1.);
#98 = DIRECTION('',(-1.,0.,0.));
#99 = ORIENTED_EDGE('',*,*,#47,.F.);
#100 = ORIENTED_EDGE('',*,*,#70,.T.);
#101 = ORIENTED_EDGE('',*,*,#102,.T.);
#102 = EDGE_CURVE('',#71,#103,#105,.T.);
#103 = VERTEX_POINT('',#104);
#104 = CARTESIAN_POINT('',(-4.772758664048,9.25,44.));
#105 = LINE('',#106,#107);
#106 = CARTESIAN_POINT('',(-4.772758664048,-18.75,44.));
#107 = VECTOR('',#108,1.);
#108 = DIRECTION('',(0.,1.,0.));
#109 = ORIENTED_EDGE('',*,*,#110,.F.);
#110 = EDGE_CURVE('',#111,#103,#113,.T.);
#111 = VERTEX_POINT('',#112);
#112 = CARTESIAN_POINT('',(-2.325268817204,9.25,44.));
#113 = LINE('',#114,#115);
#114 = CARTESIAN_POINT('',(21.227241335952,9.25,44.));
#115 = VECTOR('',#116,1.);
#116 = DIRECTION('',(-1.,0.,0.));
#117 = ORIENTED_EDGE('',*,*,#118,.T.);
#118 = EDGE_CURVE('',#111,#119,#121,.T.);
#119 = VERTEX_POINT('',#120);
#120 = CARTESIAN_POINT('',(-2.325268817204,6.1,44.));
#121 = LINE('',#122,#123);
#122 = CARTESIAN_POINT('',(-2.325268817204,-6.325,44.));
#123 = VECTOR('',#124,1.);
#124 = DIRECTION('',(0.,-1.,0.));
#125 = ORIENTED_EDGE('',*,*,#126,.F.);
#126 = EDGE_CURVE('',#127,#119,#129,.T.);
#127 = VERTEX_POINT('',#128);
#128 = CARTESIAN_POINT('',(-1.925268817204,6.1,44.));
#129 = LINE('',#130,#131);
#130 = CARTESIAN_POINT('',(10.613620667976,6.1,44.));
#131 = VECTOR('',#132,1.);
#132 = DIRECTION('',(-1.,0.,0.));
#133 = ORIENTED_EDGE('',*,*,#134,.T.);
#134 = EDGE_CURVE('',#127,#135,#137,.T.);
#135 = VERTEX_POINT('',#136);
#136 = CARTESIAN_POINT('',(-1.925268817204,9.25,44.));
#137 = LINE('',#138,#139);
#138 = CARTESIAN_POINT('',(-1.925268817204,-6.325,44.));
#139 = VECTOR('',#140,1.);
#140 = DIRECTION('',(0.,1.,0.));
#141 = ORIENTED_EDGE('',*,*,#142,.F.);
#142 = EDGE_CURVE('',#143,#135,#145,.T.);
#143 = VERTEX_POINT('',#144);
#144 = CARTESIAN_POINT('',(-1.2,9.25,44.));
#145 = LINE('',#146,#147);
#146 = CARTESIAN_POINT('',(21.227241335952,9.25,44.));
#147 = VECTOR('',#148,1.);
#148 = DIRECTION('',(-1.,0.,0.));
#149 = ORIENTED_EDGE('',*,*,#150,.T.);
#150 = EDGE_CURVE('',#143,#151,#153,.T.);
#151 = VERTEX_POINT('',#152);
#152 = CARTESIAN_POINT('',(-1.2,6.7,44.));
#153 = LINE('',#154,#155);
#154 = CARTESIAN_POINT('',(-1.2,-6.025,44.));
#155 = VECTOR('',#156,1.);
#156 = DIRECTION('',(0.,-1.,0.));
#157 = ORIENTED_EDGE('',*,*,#158,.T.);
#158 = EDGE_CURVE('',#151,#159,#161,.T.);
#159 = VERTEX_POINT('',#160);
#160 = CARTESIAN_POINT('',(1.2,6.7,44.));
#161 = LINE('',#162,#163);
#162 = CARTESIAN_POINT('',(10.013620667976,6.7,44.));
#163 = VECTOR('',#164,1.);
#164 = DIRECTION('',(1.,0.,0.));
#165 = ORIENTED_EDGE('',*,*,#166,.F.);
#166 = EDGE_CURVE('',#167,#159,#169,.T.);
#167 = VERTEX_POINT('',#168);
#168 = CARTESIAN_POINT('',(1.2,9.25,44.));
#169 = LINE('',#170,#171);
#170 = CARTESIAN_POINT('',(1.2,-6.025,44.));
#171 = VECTOR('',#172,1.);
#172 = DIRECTION('',(0.,-1.,0.));
#173 = ORIENTED_EDGE('',*,*,#174,.F.);
#174 = EDGE_CURVE('',#175,#167,#177,.T.);
#175 = VERTEX_POINT('',#176);
#176 = CARTESIAN_POINT('',(1.925268817204,9.25,44.));
#177 = LINE('',#178,#179);
#178 = CARTESIAN_POINT('',(21.227241335952,9.25,44.));
#179 = VECTOR('',#180,1.);
#180 = DIRECTION('',(-1.,0.,0.));
#181 = ORIENTED_EDGE('',*,*,#182,.F.);
#182 = EDGE_CURVE('',#183,#175,#185,.T.);
#183 = VERTEX_POINT('',#184);
#184 = CARTESIAN_POINT('',(1.925268817204,6.1,44.));
#185 = LINE('',#186,#187);
#186 = CARTESIAN_POINT('',(1.925268817204,-6.325,44.));
#187 = VECTOR('',#188,1.);
#188 = DIRECTION('',(0.,1.,0.));
#189 = ORIENTED_EDGE('',*,*,#190,.F.);
#190 = EDGE_CURVE('',#191,#183,#193,.T.);
#191 = VERTEX_POINT('',#192);
#192 = CARTESIAN_POINT('',(2.325268817204,6.1,44.));
#193 = LINE('',#194,#195);
#194 = CARTESIAN_POINT('',(10.613620667976,6.1,44.));
#195 = VECTOR('',#196,1.);
#196 = DIRECTION('',(-1.,0.,0.));
#197 = ORIENTED_EDGE('',*,*,#198,.F.);
#198 = EDGE_CURVE('',#93,#191,#199,.T.);
#199 = LINE('',#200,#201);
#200 = CARTESIAN_POINT('',(2.325268817204,-6.325,44.));
#201 = VECTOR('',#202,1.);
#202 = DIRECTION('',(0.,-1.,0.));
#203 = PLANE('',#204);
#204 = AXIS2_PLACEMENT_3D('',#205,#206,#207);
#205 = CARTESIAN_POINT('',(21.227241335952,-18.75,44.));
#206 = DIRECTION('',(0.,0.,1.));
#207 = DIRECTION('',(1.,0.,0.));
#208 = ADVANCED_FACE('',(#209),#227,.T.);
#209 = FACE_BOUND('',#210,.F.);
#210 = EDGE_LOOP('',(#211,#219,#220,#221));
#211 = ORIENTED_EDGE('',*,*,#212,.F.);
#212 = EDGE_CURVE('',#32,#213,#215,.T.);
#213 = VERTEX_POINT('',#214);
#214 = CARTESIAN_POINT('',(2.39247311828,9.25,43.5));
#215 = LINE('',#216,#217);
#216 = CARTESIAN_POINT('',(21.227241335952,9.25,43.5));
#217 = VECTOR('',#218,1.);
#218 = DIRECTION('',(-1.,0.,0.));
#219 = ORIENTED_EDGE('',*,*,#39,.T.);
#220 = ORIENTED_EDGE('',*,*,#92,.T.);
#221 = ORIENTED_EDGE('',*,*,#222,.F.);
#222 = EDGE_CURVE('',#213,#93,#223,.T.);
#223 = LINE('',#224,#225);
#224 = CARTESIAN_POINT('',(2.61334893721,9.25,41.856683907155));
#225 = VECTOR('',#226,1.);
#226 = DIRECTION('',(-0.133210717496,0.,0.991087738167));
#227 = PLANE('',#228);
#228 = AXIS2_PLACEMENT_3D('',#229,#230,#231);
#229 = CARTESIAN_POINT('',(21.227241335952,9.25,43.5));
#230 = DIRECTION('',(0.,1.,0.));
#231 = DIRECTION('',(-0.,-0.,-1.));
#232 = ADVANCED_FACE('',(#233),#340,.F.);
#233 = FACE_BOUND('',#234,.T.);
#234 = EDGE_LOOP('',(#235,#236,#237,#238,#246,#254,#262,#270,#278,#286,
    #294,#302,#310,#318,#326,#334));
#235 = ORIENTED_EDGE('',*,*,#212,.F.);
#236 = ORIENTED_EDGE('',*,*,#31,.F.);
#237 = ORIENTED_EDGE('',*,*,#61,.T.);
#238 = ORIENTED_EDGE('',*,*,#239,.T.);
#239 = EDGE_CURVE('',#62,#240,#242,.T.);
#240 = VERTEX_POINT('',#241);
#241 = CARTESIAN_POINT('',(-4.772758664048,9.25,43.5));
#242 = LINE('',#243,#244);
#243 = CARTESIAN_POINT('',(-4.772758664048,-18.75,43.5));
#244 = VECTOR('',#245,1.);
#245 = DIRECTION('',(0.,1.,0.));
#246 = ORIENTED_EDGE('',*,*,#247,.F.);
#247 = EDGE_CURVE('',#248,#240,#250,.T.);
#248 = VERTEX_POINT('',#249);
#249 = CARTESIAN_POINT('',(-2.39247311828,9.25,43.5));
#250 = LINE('',#251,#252);
#251 = CARTESIAN_POINT('',(21.227241335952,9.25,43.5));
#252 = VECTOR('',#253,1.);
#253 = DIRECTION('',(-1.,0.,0.));
#254 = ORIENTED_EDGE('',*,*,#255,.T.);
#255 = EDGE_CURVE('',#248,#256,#258,.T.);
#256 = VERTEX_POINT('',#257);
#257 = CARTESIAN_POINT('',(-2.39247311828,6.1,43.5));
#258 = LINE('',#259,#260);
#259 = CARTESIAN_POINT('',(-2.39247311828,-6.325,43.5));
#260 = VECTOR('',#261,1.);
#261 = DIRECTION('',(0.,-1.,0.));
#262 = ORIENTED_EDGE('',*,*,#263,.F.);
#263 = EDGE_CURVE('',#264,#256,#266,.T.);
#264 = VERTEX_POINT('',#265);
#265 = CARTESIAN_POINT('',(-1.99247311828,6.1,43.5));
#266 = LINE('',#267,#268);
#267 = CARTESIAN_POINT('',(10.613620667976,6.1,43.5));
#268 = VECTOR('',#269,1.);
#269 = DIRECTION('',(-1.,0.,0.));
#270 = ORIENTED_EDGE('',*,*,#271,.T.);
#271 = EDGE_CURVE('',#264,#272,#274,.T.);
#272 = VERTEX_POINT('',#273);
#273 = CARTESIAN_POINT('',(-1.99247311828,9.25,43.5));
#274 = LINE('',#275,#276);
#275 = CARTESIAN_POINT('',(-1.99247311828,-6.325,43.5));
#276 = VECTOR('',#277,1.);
#277 = DIRECTION('',(0.,1.,0.));
#278 = ORIENTED_EDGE('',*,*,#279,.F.);
#279 = EDGE_CURVE('',#280,#272,#282,.T.);
#280 = VERTEX_POINT('',#281);
#281 = CARTESIAN_POINT('',(-1.2,9.25,43.5));
#282 = LINE('',#283,#284);
#283 = CARTESIAN_POINT('',(21.227241335952,9.25,43.5));
#284 = VECTOR('',#285,1.);
#285 = DIRECTION('',(-1.,0.,0.));
#286 = ORIENTED_EDGE('',*,*,#287,.T.);
#287 = EDGE_CURVE('',#280,#288,#290,.T.);
#288 = VERTEX_POINT('',#289);
#289 = CARTESIAN_POINT('',(-1.2,6.7,43.5));
#290 = LINE('',#291,#292);
#291 = CARTESIAN_POINT('',(-1.2,-6.025,43.5));
#292 = VECTOR('',#293,1.);
#293 = DIRECTION('',(0.,-1.,0.));
#294 = ORIENTED_EDGE('',*,*,#295,.T.);
#295 = EDGE_CURVE('',#288,#296,#298,.T.);
#296 = VERTEX_POINT('',#297);
#297 = CARTESIAN_POINT('',(1.2,6.7,43.5));
#298 = LINE('',#299,#300);
#299 = CARTESIAN_POINT('',(10.013620667976,6.7,43.5));
#300 = VECTOR('',#301,1.);
#301 = DIRECTION('',(1.,0.,0.));
#302 = ORIENTED_EDGE('',*,*,#303,.F.);
#303 = EDGE_CURVE('',#304,#296,#306,.T.);
#304 = VERTEX_POINT('',#305);
#305 = CARTESIAN_POINT('',(1.2,9.25,43.5));
#306 = LINE('',#307,#308);
#307 = CARTESIAN_POINT('',(1.2,-6.025,43.5));
#308 = VECTOR('',#309,1.);
#309 = DIRECTION('',(0.,-1.,0.));
#310 = ORIENTED_EDGE('',*,*,#311,.F.);
#311 = EDGE_CURVE('',#312,#304,#314,.T.);
#312 = VERTEX_POINT('',#313);
#313 = CARTESIAN_POINT('',(1.99247311828,9.25,43.5));
#314 = LINE('',#315,#316);
#315 = CARTESIAN_POINT('',(21.227241335952,9.25,43.5));
#316 = VECTOR('',#317,1.);
#317 = DIRECTION('',(-1.,0.,0.));
#318 = ORIENTED_EDGE('',*,*,#319,.F.);
#319 = EDGE_CURVE('',#320,#312,#322,.T.);
#320 = VERTEX_POINT('',#321);
#321 = CARTESIAN_POINT('',(1.99247311828,6.1,43.5));
#322 = LINE('',#323,#324);
#323 = CARTESIAN_POINT('',(1.99247311828,-6.325,43.5));
#324 = VECTOR('',#325,1.);
#325 = DIRECTION('',(0.,1.,0.));
#326 = ORIENTED_EDGE('',*,*,#327,.F.);
#327 = EDGE_CURVE('',#328,#320,#330,.T.);
#328 = VERTEX_POINT('',#329);
#329 = CARTESIAN_POINT('',(2.39247311828,6.1,43.5));
#330 = LINE('',#331,#332);
#331 = CARTESIAN_POINT('',(10.613620667976,6.1,43.5));
#332 = VECTOR('',#333,1.);
#333 = DIRECTION('',(-1.,0.,0.));
#334 = ORIENTED_EDGE('',*,*,#335,.F.);
#335 = EDGE_CURVE('',#213,#328,#336,.T.);
#336 = LINE('',#337,#338);
#337 = CARTESIAN_POINT('',(2.39247311828,-6.325,43.5));
#338 = VECTOR('',#339,1.);
#339 = DIRECTION('',(0.,-1.,0.));
#340 = PLANE('',#341);
#341 = AXIS2_PLACEMENT_3D('',#342,#343,#344);
#342 = CARTESIAN_POINT('',(21.227241335952,-18.75,43.5));
#343 = DIRECTION('',(0.,0.,1.));
#344 = DIRECTION('',(1.,0.,0.));
#345 = ADVANCED_FACE('',(#346),#357,.T.);
#346 = FACE_BOUND('',#347,.F.);
#347 = EDGE_LOOP('',(#348,#349,#350,#356));
#348 = ORIENTED_EDGE('',*,*,#78,.F.);
#349 = ORIENTED_EDGE('',*,*,#239,.T.);
#350 = ORIENTED_EDGE('',*,*,#351,.T.);
#351 = EDGE_CURVE('',#240,#103,#352,.T.);
#352 = LINE('',#353,#354);
#353 = CARTESIAN_POINT('',(-4.772758664048,9.25,43.5));
#354 = VECTOR('',#355,1.);
#355 = DIRECTION('',(0.,0.,1.));
#356 = ORIENTED_EDGE('',*,*,#102,.F.);
#357 = PLANE('',#358);
#358 = AXIS2_PLACEMENT_3D('',#359,#360,#361);
#359 = CARTESIAN_POINT('',(-4.772758664048,-18.75,43.5));
#360 = DIRECTION('',(-1.,0.,0.));
#361 = DIRECTION('',(0.,0.,-1.));
#362 = ADVANCED_FACE('',(#363),#374,.F.);
#363 = FACE_BOUND('',#364,.F.);
#364 = EDGE_LOOP('',(#365,#371,#372,#373));
#365 = ORIENTED_EDGE('',*,*,#366,.F.);
#366 = EDGE_CURVE('',#328,#191,#367,.T.);
#367 = LINE('',#368,#369);
#368 = CARTESIAN_POINT('',(2.5,6.1,42.7));
#369 = VECTOR('',#370,1.);
#370 = DIRECTION('',(-0.133210717496,0.,0.991087738167));
#371 = ORIENTED_EDGE('',*,*,#335,.F.);
#372 = ORIENTED_EDGE('',*,*,#222,.T.);
#373 = ORIENTED_EDGE('',*,*,#198,.T.);
#374 = PLANE('',#375);
#375 = AXIS2_PLACEMENT_3D('',#376,#377,#378);
#376 = CARTESIAN_POINT('',(2.5,6.1,42.7));
#377 = DIRECTION('',(0.991087738167,0.,0.133210717496));
#378 = DIRECTION('',(-0.133210717496,0.,0.991087738167));
#379 = ADVANCED_FACE('',(#380),#391,.F.);
#380 = FACE_BOUND('',#381,.F.);
#381 = EDGE_LOOP('',(#382,#383,#384,#385));
#382 = ORIENTED_EDGE('',*,*,#327,.F.);
#383 = ORIENTED_EDGE('',*,*,#366,.T.);
#384 = ORIENTED_EDGE('',*,*,#190,.T.);
#385 = ORIENTED_EDGE('',*,*,#386,.T.);
#386 = EDGE_CURVE('',#183,#320,#387,.T.);
#387 = LINE('',#388,#389);
#388 = CARTESIAN_POINT('',(0.85,6.1,52.));
#389 = VECTOR('',#390,1.);
#390 = DIRECTION('',(0.133210717496,0.,-0.991087738167));
#391 = PLANE('',#392);
#392 = AXIS2_PLACEMENT_3D('',#393,#394,#395);
#393 = CARTESIAN_POINT('',(-1.5E-16,6.1,47.325020235939));
#394 = DIRECTION('',(-0.,-1.,-0.));
#395 = DIRECTION('',(0.,0.,-1.));
#396 = ADVANCED_FACE('',(#397),#408,.F.);
#397 = FACE_BOUND('',#398,.F.);
#398 = EDGE_LOOP('',(#399,#400,#401,#407));
#399 = ORIENTED_EDGE('',*,*,#386,.F.);
#400 = ORIENTED_EDGE('',*,*,#182,.T.);
#401 = ORIENTED_EDGE('',*,*,#402,.T.);
#402 = EDGE_CURVE('',#175,#312,#403,.T.);
#403 = LINE('',#404,#405);
#404 = CARTESIAN_POINT('',(1.591897956261,9.25,46.480279205415));
#405 = VECTOR('',#406,1.);
#406 = DIRECTION('',(0.133210717496,0.,-0.991087738167));
#407 = ORIENTED_EDGE('',*,*,#319,.F.);
#408 = PLANE('',#409);
#409 = AXIS2_PLACEMENT_3D('',#410,#411,#412);
#410 = CARTESIAN_POINT('',(0.85,6.1,52.));
#411 = DIRECTION('',(-0.991087738167,0.,-0.133210717496));
#412 = DIRECTION('',(0.133210717496,0.,-0.991087738167));
#413 = ADVANCED_FACE('',(#414),#425,.T.);
#414 = FACE_BOUND('',#415,.F.);
#415 = EDGE_LOOP('',(#416,#417,#418,#419));
#416 = ORIENTED_EDGE('',*,*,#311,.F.);
#417 = ORIENTED_EDGE('',*,*,#402,.F.);
#418 = ORIENTED_EDGE('',*,*,#174,.T.);
#419 = ORIENTED_EDGE('',*,*,#420,.F.);
#420 = EDGE_CURVE('',#304,#167,#421,.T.);
#421 = LINE('',#422,#423);
#422 = CARTESIAN_POINT('',(1.2,9.25,43.4));
#423 = VECTOR('',#424,1.);
#424 = DIRECTION('',(0.,0.,1.));
#425 = PLANE('',#426);
#426 = AXIS2_PLACEMENT_3D('',#427,#428,#429);
#427 = CARTESIAN_POINT('',(21.227241335952,9.25,43.5));
#428 = DIRECTION('',(0.,1.,0.));
#429 = DIRECTION('',(-0.,-0.,-1.));
#430 = ADVANCED_FACE('',(#431),#442,.F.);
#431 = FACE_BOUND('',#432,.F.);
#432 = EDGE_LOOP('',(#433,#439,#440,#441));
#433 = ORIENTED_EDGE('',*,*,#434,.F.);
#434 = EDGE_CURVE('',#296,#159,#435,.T.);
#435 = LINE('',#436,#437);
#436 = CARTESIAN_POINT('',(1.2,6.7,43.3));
#437 = VECTOR('',#438,1.);
#438 = DIRECTION('',(0.,0.,1.));
#439 = ORIENTED_EDGE('',*,*,#303,.F.);
#440 = ORIENTED_EDGE('',*,*,#420,.T.);
#441 = ORIENTED_EDGE('',*,*,#166,.T.);
#442 = PLANE('',#443);
#443 = AXIS2_PLACEMENT_3D('',#444,#445,#446);
#444 = CARTESIAN_POINT('',(1.2,6.7,43.3));
#445 = DIRECTION('',(1.,0.,0.));
#446 = DIRECTION('',(0.,0.,1.));
#447 = ADVANCED_FACE('',(#448),#459,.T.);
#448 = FACE_BOUND('',#449,.T.);
#449 = EDGE_LOOP('',(#450,#451,#452,#458));
#450 = ORIENTED_EDGE('',*,*,#434,.F.);
#451 = ORIENTED_EDGE('',*,*,#295,.F.);
#452 = ORIENTED_EDGE('',*,*,#453,.T.);
#453 = EDGE_CURVE('',#288,#151,#454,.T.);
#454 = LINE('',#455,#456);
#455 = CARTESIAN_POINT('',(-1.2,6.7,43.3));
#456 = VECTOR('',#457,1.);
#457 = DIRECTION('',(0.,0.,1.));
#458 = ORIENTED_EDGE('',*,*,#158,.T.);
#459 = PLANE('',#460);
#460 = AXIS2_PLACEMENT_3D('',#461,#462,#463);
#461 = CARTESIAN_POINT('',(-1.2,6.7,43.3));
#462 = DIRECTION('',(0.,1.,0.));
#463 = DIRECTION('',(0.,0.,1.));
#464 = ADVANCED_FACE('',(#465),#476,.T.);
#465 = FACE_BOUND('',#466,.T.);
#466 = EDGE_LOOP('',(#467,#468,#469,#475));
#467 = ORIENTED_EDGE('',*,*,#453,.F.);
#468 = ORIENTED_EDGE('',*,*,#287,.F.);
#469 = ORIENTED_EDGE('',*,*,#470,.T.);
#470 = EDGE_CURVE('',#280,#143,#471,.T.);
#471 = LINE('',#472,#473);
#472 = CARTESIAN_POINT('',(-1.2,9.25,43.4));
#473 = VECTOR('',#474,1.);
#474 = DIRECTION('',(0.,0.,1.));
#475 = ORIENTED_EDGE('',*,*,#150,.T.);
#476 = PLANE('',#477);
#477 = AXIS2_PLACEMENT_3D('',#478,#479,#480);
#478 = CARTESIAN_POINT('',(-1.2,6.7,43.3));
#479 = DIRECTION('',(1.,0.,0.));
#480 = DIRECTION('',(0.,0.,1.));
#481 = ADVANCED_FACE('',(#482),#493,.T.);
#482 = FACE_BOUND('',#483,.F.);
#483 = EDGE_LOOP('',(#484,#485,#486,#487));
#484 = ORIENTED_EDGE('',*,*,#279,.F.);
#485 = ORIENTED_EDGE('',*,*,#470,.T.);
#486 = ORIENTED_EDGE('',*,*,#142,.T.);
#487 = ORIENTED_EDGE('',*,*,#488,.T.);
#488 = EDGE_CURVE('',#135,#272,#489,.T.);
#489 = LINE('',#490,#491);
#490 = CARTESIAN_POINT('',(-1.21521853674,9.25,49.282774086655));
#491 = VECTOR('',#492,1.);
#492 = DIRECTION('',(-0.133210717496,0.,-0.991087738167));
#493 = PLANE('',#494);
#494 = AXIS2_PLACEMENT_3D('',#495,#496,#497);
#495 = CARTESIAN_POINT('',(21.227241335952,9.25,43.5));
#496 = DIRECTION('',(0.,1.,0.));
#497 = DIRECTION('',(-0.,-0.,-1.));
#498 = ADVANCED_FACE('',(#499),#510,.T.);
#499 = FACE_BOUND('',#500,.T.);
#500 = EDGE_LOOP('',(#501,#507,#508,#509));
#501 = ORIENTED_EDGE('',*,*,#502,.F.);
#502 = EDGE_CURVE('',#127,#264,#503,.T.);
#503 = LINE('',#504,#505);
#504 = CARTESIAN_POINT('',(-0.85,6.1,52.));
#505 = VECTOR('',#506,1.);
#506 = DIRECTION('',(-0.133210717496,0.,-0.991087738167));
#507 = ORIENTED_EDGE('',*,*,#134,.T.);
#508 = ORIENTED_EDGE('',*,*,#488,.T.);
#509 = ORIENTED_EDGE('',*,*,#271,.F.);
#510 = PLANE('',#511);
#511 = AXIS2_PLACEMENT_3D('',#512,#513,#514);
#512 = CARTESIAN_POINT('',(-0.85,6.1,52.));
#513 = DIRECTION('',(-0.991087738167,0.,0.133210717496));
#514 = DIRECTION('',(-0.133210717496,0.,-0.991087738167));
#515 = ADVANCED_FACE('',(#516),#527,.F.);
#516 = FACE_BOUND('',#517,.F.);
#517 = EDGE_LOOP('',(#518,#524,#525,#526));
#518 = ORIENTED_EDGE('',*,*,#519,.F.);
#519 = EDGE_CURVE('',#256,#119,#520,.T.);
#520 = LINE('',#521,#522);
#521 = CARTESIAN_POINT('',(-2.5,6.1,42.7));
#522 = VECTOR('',#523,1.);
#523 = DIRECTION('',(0.133210717496,0.,0.991087738167));
#524 = ORIENTED_EDGE('',*,*,#263,.F.);
#525 = ORIENTED_EDGE('',*,*,#502,.F.);
#526 = ORIENTED_EDGE('',*,*,#126,.T.);
#527 = PLANE('',#528);
#528 = AXIS2_PLACEMENT_3D('',#529,#530,#531);
#529 = CARTESIAN_POINT('',(-1.5E-16,6.1,47.325020235939));
#530 = DIRECTION('',(-0.,-1.,-0.));
#531 = DIRECTION('',(0.,0.,-1.));
#532 = ADVANCED_FACE('',(#533),#544,.T.);
#533 = FACE_BOUND('',#534,.T.);
#534 = EDGE_LOOP('',(#535,#536,#537,#543));
#535 = ORIENTED_EDGE('',*,*,#519,.F.);
#536 = ORIENTED_EDGE('',*,*,#255,.F.);
#537 = ORIENTED_EDGE('',*,*,#538,.T.);
#538 = EDGE_CURVE('',#248,#111,#539,.T.);
#539 = LINE('',#540,#541);
#540 = CARTESIAN_POINT('',(-2.236669517689,9.25,44.659178788396));
#541 = VECTOR('',#542,1.);
#542 = DIRECTION('',(0.133210717496,0.,0.991087738167));
#543 = ORIENTED_EDGE('',*,*,#118,.T.);
#544 = PLANE('',#545);
#545 = AXIS2_PLACEMENT_3D('',#546,#547,#548);
#546 = CARTESIAN_POINT('',(-2.5,6.1,42.7));
#547 = DIRECTION('',(0.991087738167,0.,-0.133210717496));
#548 = DIRECTION('',(0.133210717496,0.,0.991087738167));
#549 = ADVANCED_FACE('',(#550),#556,.T.);
#550 = FACE_BOUND('',#551,.F.);
#551 = EDGE_LOOP('',(#552,#553,#554,#555));
#552 = ORIENTED_EDGE('',*,*,#247,.F.);
#553 = ORIENTED_EDGE('',*,*,#538,.T.);
#554 = ORIENTED_EDGE('',*,*,#110,.T.);
#555 = ORIENTED_EDGE('',*,*,#351,.F.);
#556 = PLANE('',#557);
#557 = AXIS2_PLACEMENT_3D('',#558,#559,#560);
#558 = CARTESIAN_POINT('',(21.227241335952,9.25,43.5));
#559 = DIRECTION('',(0.,1.,0.));
#560 = DIRECTION('',(-0.,-0.,-1.));
#561 = ( GEOMETRIC_REPRESENTATION_CONTEXT(3) 
GLOBAL_UNCERTAINTY_ASSIGNED_CONTEXT((#565)) GLOBAL_UNIT_ASSIGNED_CONTEXT
((#562,#563,#564)) REPRESENTATION_CONTEXT('Context #1',
  '3D Context with UNIT and UNCERTAINTY') );
#562 = ( LENGTH_UNIT() NAMED_UNIT(*) SI_UNIT(.MILLI.,.METRE.) );
#563 = ( NAMED_UNIT(*) PLANE_ANGLE_UNIT() SI_UNIT($,.RADIAN.) );
#564 = ( NAMED_UNIT(*) SI_UNIT($,.STERADIAN.) SOLID_ANGLE_UNIT() );
#565 = UNCERTAINTY_MEASURE_WITH_UNIT(LENGTH_MEASURE(1.E-07),#562,
  'distance_accuracy_value','confusion accuracy');
#566 = PRODUCT_RELATED_PRODUCT_CATEGORY('part',$,(#7));
ENDSEC;
END-ISO-10303-21;
