o HeadB_thermal_sensor_FR4
v 4.827241 1.250000 43.465000
v 4.827241 1.250000 41.865000
v 4.827241 -10.750000 43.465000
v 4.827241 -10.750000 41.865000
v 16.827241 1.250000 41.865000
v 16.827241 1.250000 43.465000
v 16.827241 -10.750000 43.465000
v 16.827241 -10.750000 41.865000
f 1 2 3
f 3 2 4
f 5 6 7
f 5 7 8
f 6 5 1
f 1 5 2
f 8 7 3
f 8 3 4
f 3 7 1
f 1 7 6
f 8 4 2
f 8 2 5
o HeadB_GND_HEAD_thermal_island_B_Cu
v 6.027241 -3.850000 43.500000
v 6.027241 -3.850000 43.465000
v 6.027241 -6.450000 43.500000
v 6.027241 -6.450000 43.465000
v 9.327241 -3.850000 43.465000
v 9.327241 -3.850000 43.500000
v 9.327241 -6.450000 43.500000
v 9.327241 -6.450000 43.465000
f 9 10 11
f 11 10 12
f 13 14 15
f 13 15 16
f 14 13 9
f 9 13 10
f 16 15 11
f 16 11 12
f 11 15 9
f 9 15 14
f 16 12 10
f 16 10 13
o HeadB_U1_TMP302BDRLR
v 7.577241 -3.900000 41.865000
v 7.577241 -3.900000 41.265000
v 7.577241 -5.600000 41.865000
v 7.577241 -5.600000 41.265000
v 8.877241 -3.900000 41.265000
v 8.877241 -3.900000 41.865000
v 8.877241 -5.600000 41.865000
v 8.877241 -5.600000 41.265000
f 17 18 19
f 19 18 20
f 21 22 23
f 21 23 24
f 22 21 17
f 17 21 18
f 24 23 19
f 24 19 20
f 19 23 17
f 17 23 22
f 24 20 18
f 24 18 21
o HeadB_Pad_U1_0
v 7.177241 -5.075000 41.865000
v 7.177241 -5.075000 41.830000
v 7.177241 -5.425000 41.865000
v 7.177241 -5.425000 41.830000
v 7.852241 -5.075000 41.830000
v 7.852241 -5.075000 41.865000
v 7.852241 -5.425000 41.865000
v 7.852241 -5.425000 41.830000
f 25 26 27
f 27 26 28
f 29 30 31
f 29 31 32
f 30 29 25
f 25 29 26
f 32 31 27
f 32 27 28
f 27 31 25
f 25 31 30
f 32 28 26
f 32 26 29
o HeadB_Pad_U1_1
v 7.177241 -4.575000 41.865000
v 7.177241 -4.575000 41.830000
v 7.177241 -4.925000 41.865000
v 7.177241 -4.925000 41.830000
v 7.852241 -4.575000 41.830000
v 7.852241 -4.575000 41.865000
v 7.852241 -4.925000 41.865000
v 7.852241 -4.925000 41.830000
f 33 34 35
f 35 34 36
f 37 38 39
f 37 39 40
f 38 37 33
f 33 37 34
f 40 39 35
f 40 35 36
f 35 39 33
f 33 39 38
f 40 36 34
f 40 34 37
o HeadB_Pad_U1_2
v 7.177241 -4.075000 41.865000
v 7.177241 -4.075000 41.830000
v 7.177241 -4.425000 41.865000
v 7.177241 -4.425000 41.830000
v 7.852241 -4.075000 41.830000
v 7.852241 -4.075000 41.865000
v 7.852241 -4.425000 41.865000
v 7.852241 -4.425000 41.830000
f 41 42 43
f 43 42 44
f 45 46 47
f 45 47 48
f 46 45 41
f 41 45 42
f 48 47 43
f 48 43 44
f 43 47 41
f 41 47 46
f 48 44 42
f 48 42 45
o HeadB_Pad_U1_3
v 8.602241 -4.075000 41.865000
v 8.602241 -4.075000 41.830000
v 8.602241 -4.425000 41.865000
v 8.602241 -4.425000 41.830000
v 9.277241 -4.075000 41.830000
v 9.277241 -4.075000 41.865000
v 9.277241 -4.425000 41.865000
v 9.277241 -4.425000 41.830000
f 49 50 51
f 51 50 52
f 53 54 55
f 53 55 56
f 54 53 49
f 49 53 50
f 56 55 51
f 56 51 52
f 51 55 49
f 49 55 54
f 56 52 50
f 56 50 53
o HeadB_Pad_U1_4
v 8.602241 -4.575000 41.865000
v 8.602241 -4.575000 41.830000
v 8.602241 -4.925000 41.865000
v 8.602241 -4.925000 41.830000
v 9.277241 -4.575000 41.830000
v 9.277241 -4.575000 41.865000
v 9.277241 -4.925000 41.865000
v 9.277241 -4.925000 41.830000
f 57 58 59
f 59 58 60
f 61 62 63
f 61 63 64
f 62 61 57
f 57 61 58
f 64 63 59
f 64 59 60
f 59 63 57
f 57 63 62
f 64 60 58
f 64 58 61
o HeadB_Pad_U1_5
v 8.602241 -5.075000 41.865000
v 8.602241 -5.075000 41.830000
v 8.602241 -5.425000 41.865000
v 8.602241 -5.425000 41.830000
v 9.277241 -5.075000 41.830000
v 9.277241 -5.075000 41.865000
v 9.277241 -5.425000 41.865000
v 9.277241 -5.425000 41.830000
f 65 66 67
f 67 66 68
f 69 70 71
f 69 71 72
f 70 69 65
f 65 69 66
f 72 71 67
f 72 67 68
f 67 71 65
f 65 71 70
f 72 68 66
f 72 66 69
o HeadB_J4_Soldered_insulated_pigtail_
v 12.677241 -1.520000 41.865000
v 12.677241 -1.520000 39.865000
v 12.677241 -8.900000 41.865000
v 12.677241 -8.900000 39.865000
v 14.977241 -1.520000 39.865000
v 14.977241 -1.520000 41.865000
v 14.977241 -8.900000 41.865000
v 14.977241 -8.900000 39.865000
f 73 74 75
f 75 74 76
f 77 78 79
f 77 79 80
f 78 77 73
f 73 77 74
f 80 79 75
f 80 75 76
f 75 79 73
f 73 79 78
f 80 76 74
f 80 74 77
o HeadB_Pad_J4_0
v 12.827241 -7.050000 41.865000
v 12.827241 -7.050000 41.830000
v 12.827241 -8.450000 41.865000
v 12.827241 -8.450000 41.830000
v 14.827241 -7.050000 41.830000
v 14.827241 -7.050000 41.865000
v 14.827241 -8.450000 41.865000
v 14.827241 -8.450000 41.830000
f 81 82 83
f 83 82 84
f 85 86 87
f 85 87 88
f 86 85 81
f 81 85 82
f 88 87 83
f 88 83 84
f 83 87 81
f 81 87 86
f 88 84 82
f 88 82 85
o HeadB_Pad_J4_1
v 12.827241 -4.510000 41.865000
v 12.827241 -4.510000 41.830000
v 12.827241 -5.910000 41.865000
v 12.827241 -5.910000 41.830000
v 14.827241 -4.510000 41.830000
v 14.827241 -4.510000 41.865000
v 14.827241 -5.910000 41.865000
v 14.827241 -5.910000 41.830000
f 89 90 91
f 91 90 92
f 93 94 95
f 93 95 96
f 94 93 89
f 89 93 90
f 96 95 91
f 96 91 92
f 91 95 89
f 89 95 94
f 96 92 90
f 96 90 93
o HeadB_Pad_J4_2
v 12.827241 -1.970000 41.865000
v 12.827241 -1.970000 41.830000
v 12.827241 -3.370000 41.865000
v 12.827241 -3.370000 41.830000
v 14.827241 -1.970000 41.830000
v 14.827241 -1.970000 41.865000
v 14.827241 -3.370000 41.865000
v 14.827241 -3.370000 41.830000
f 97 98 99
f 99 98 100
f 101 102 103
f 101 103 104
f 102 101 97
f 97 101 98
f 104 103 99
f 104 99 100
f 99 103 97
f 97 103 102
f 104 100 98
f 104 98 101
o HeadB_R1_RC0603FR_0710KL
v 9.477241 -7.287500 41.865000
v 9.477241 -7.287500 41.315000
v 9.477241 -8.212500 41.865000
v 9.477241 -8.212500 41.315000
v 11.177241 -7.287500 41.315000
v 11.177241 -7.287500 41.865000
v 11.177241 -8.212500 41.865000
v 11.177241 -8.212500 41.315000
f 105 106 107
f 107 106 108
f 109 110 111
f 109 111 112
f 110 109 105
f 105 109 106
f 112 111 107
f 112 107 108
f 107 111 105
f 105 111 110
f 112 108 106
f 112 106 109
o HeadB_Pad_R1_0
v 9.102241 -7.275000 41.865000
v 9.102241 -7.275000 41.830000
v 9.102241 -8.225000 41.865000
v 9.102241 -8.225000 41.830000
v 9.902241 -7.275000 41.830000
v 9.902241 -7.275000 41.865000
v 9.902241 -8.225000 41.865000
v 9.902241 -8.225000 41.830000
f 113 114 115
f 115 114 116
f 117 118 119
f 117 119 120
f 118 117 113
f 113 117 114
f 120 119 115
f 120 115 116
f 115 119 113
f 113 119 118
f 120 116 114
f 120 114 117
o HeadB_Pad_R1_1
v 10.752241 -7.275000 41.865000
v 10.752241 -7.275000 41.830000
v 10.752241 -8.225000 41.865000
v 10.752241 -8.225000 41.830000
v 11.552241 -7.275000 41.830000
v 11.552241 -7.275000 41.865000
v 11.552241 -8.225000 41.865000
v 11.552241 -8.225000 41.830000
f 121 122 123
f 123 122 124
f 125 126 127
f 125 127 128
f 126 125 121
f 121 125 122
f 128 127 123
f 128 123 124
f 123 127 121
f 121 127 126
f 128 124 122
f 128 122 125
o HeadB_C1_GRM188R71C104KA01D
v 6.477241 -8.000000 41.865000
v 6.477241 -8.000000 40.965000
v 6.477241 -8.900000 41.865000
v 6.477241 -8.900000 40.965000
v 8.177241 -8.000000 40.965000
v 8.177241 -8.000000 41.865000
v 8.177241 -8.900000 41.865000
v 8.177241 -8.900000 40.965000
f 129 130 131
f 131 130 132
f 133 134 135
f 133 135 136
f 134 133 129
f 129 133 130
f 136 135 131
f 136 131 132
f 131 135 129
f 129 135 134
f 136 132 130
f 136 130 133
o HeadB_Pad_C1_0
v 6.102241 -7.975000 41.865000
v 6.102241 -7.975000 41.830000
v 6.102241 -8.925000 41.865000
v 6.102241 -8.925000 41.830000
v 7.002241 -7.975000 41.830000
v 7.002241 -7.975000 41.865000
v 7.002241 -8.925000 41.865000
v 7.002241 -8.925000 41.830000
f 137 138 139
f 139 138 140
f 141 142 143
f 141 143 144
f 142 141 137
f 137 141 138
f 144 143 139
f 144 139 140
f 139 143 137
f 137 143 142
f 144 140 138
f 144 138 141
o HeadB_Pad_C1_1
v 7.652241 -7.975000 41.865000
v 7.652241 -7.975000 41.830000
v 7.652241 -8.925000 41.865000
v 7.652241 -8.925000 41.830000
v 8.552241 -7.975000 41.830000
v 8.552241 -7.975000 41.865000
v 8.552241 -8.925000 41.865000
v 8.552241 -8.925000 41.830000
f 145 146 147
f 147 146 148
f 149 150 151
f 149 151 152
f 150 149 145
f 145 149 146
f 152 151 147
f 152 147 148
f 147 151 145
f 145 151 150
f 152 148 146
f 152 146 149
